<?xml version="1.0" encoding="utf-8" standalone="no"?>
<!DOCTYPE svg PUBLIC "-//W3C//DTD SVG 1.1//EN"
  "http://www.w3.org/Graphics/SVG/1.1/DTD/svg11.dtd">
<!-- Created with matplotlib (https://matplotlib.org/) -->
<svg height="92.270125pt" version="1.1" viewBox="0 0 856.828125 92.270125" width="856.828125pt" xmlns="http://www.w3.org/2000/svg" xmlns:xlink="http://www.w3.org/1999/xlink">
 <defs>
  <style type="text/css">
*{stroke-linecap:butt;stroke-linejoin:round;}
  </style>
 </defs>
 <g id="figure_1">
  <g id="patch_1">
   <path d="M 0 92.270125 
L 856.828125 92.270125 
L 856.828125 0 
L 0 0 
z
" style="fill:none;"/>
  </g>
  <g id="axes_1">
   <g id="patch_2">
    <path d="M 30.103125 68.392 
L 849.628125 68.392 
L 849.628125 34.592 
L 30.103125 34.592 
z
" style="fill:#ffffff;"/>
   </g>
   <g id="matplotlib.axis_1">
    <g id="xtick_1">
     <g id="line2d_1">
      <defs>
       <path d="M 0 0 
L 0 3.5 
" id="m5725fea6b5" style="stroke:#000000;stroke-width:0.8;"/>
      </defs>
      <g>
       <use style="stroke:#000000;stroke-width:0.8;" x="67.354261" xlink:href="#m5725fea6b5" y="68.392"/>
      </g>
     </g>
     <g id="text_1">
      <!-- 0 -->
      <defs>
       <path d="M 31.78125 66.40625 
Q 24.171875 66.40625 20.328125 58.90625 
Q 16.5 51.421875 16.5 36.375 
Q 16.5 21.390625 20.328125 13.890625 
Q 24.171875 6.390625 31.78125 6.390625 
Q 39.453125 6.390625 43.28125 13.890625 
Q 47.125 21.390625 47.125 36.375 
Q 47.125 51.421875 43.28125 58.90625 
Q 39.453125 66.40625 31.78125 66.40625 
z
M 31.78125 74.21875 
Q 44.046875 74.21875 50.515625 64.515625 
Q 56.984375 54.828125 56.984375 36.375 
Q 56.984375 17.96875 50.515625 8.265625 
Q 44.046875 -1.421875 31.78125 -1.421875 
Q 19.53125 -1.421875 13.0625 8.265625 
Q 6.59375 17.96875 6.59375 36.375 
Q 6.59375 54.828125 13.0625 64.515625 
Q 19.53125 74.21875 31.78125 74.21875 
z
" id="DejaVuSans-48"/>
      </defs>
      <g transform="translate(64.173011 82.990437)scale(0.1 -0.1)">
       <use xlink:href="#DejaVuSans-48"/>
      </g>
     </g>
    </g>
    <g id="xtick_2">
     <g id="line2d_2">
      <g>
       <use style="stroke:#000000;stroke-width:0.8;" x="206.871626" xlink:href="#m5725fea6b5" y="68.392"/>
      </g>
     </g>
     <g id="text_2">
      <!-- 100 -->
      <defs>
       <path d="M 12.40625 8.296875 
L 28.515625 8.296875 
L 28.515625 63.921875 
L 10.984375 60.40625 
L 10.984375 69.390625 
L 28.421875 72.90625 
L 38.28125 72.90625 
L 38.28125 8.296875 
L 54.390625 8.296875 
L 54.390625 0 
L 12.40625 0 
z
" id="DejaVuSans-49"/>
      </defs>
      <g transform="translate(197.327876 82.990437)scale(0.1 -0.1)">
       <use xlink:href="#DejaVuSans-49"/>
       <use x="63.623047" xlink:href="#DejaVuSans-48"/>
       <use x="127.246094" xlink:href="#DejaVuSans-48"/>
      </g>
     </g>
    </g>
    <g id="xtick_3">
     <g id="line2d_3">
      <g>
       <use style="stroke:#000000;stroke-width:0.8;" x="346.388991" xlink:href="#m5725fea6b5" y="68.392"/>
      </g>
     </g>
     <g id="text_3">
      <!-- 200 -->
      <defs>
       <path d="M 19.1875 8.296875 
L 53.609375 8.296875 
L 53.609375 0 
L 7.328125 0 
L 7.328125 8.296875 
Q 12.9375 14.109375 22.625 23.890625 
Q 32.328125 33.6875 34.8125 36.53125 
Q 39.546875 41.84375 41.421875 45.53125 
Q 43.3125 49.21875 43.3125 52.78125 
Q 43.3125 58.59375 39.234375 62.25 
Q 35.15625 65.921875 28.609375 65.921875 
Q 23.96875 65.921875 18.8125 64.3125 
Q 13.671875 62.703125 7.8125 59.421875 
L 7.8125 69.390625 
Q 13.765625 71.78125 18.9375 73 
Q 24.125 74.21875 28.421875 74.21875 
Q 39.75 74.21875 46.484375 68.546875 
Q 53.21875 62.890625 53.21875 53.421875 
Q 53.21875 48.921875 51.53125 44.890625 
Q 49.859375 40.875 45.40625 35.40625 
Q 44.1875 33.984375 37.640625 27.21875 
Q 31.109375 20.453125 19.1875 8.296875 
z
" id="DejaVuSans-50"/>
      </defs>
      <g transform="translate(336.845241 82.990437)scale(0.1 -0.1)">
       <use xlink:href="#DejaVuSans-50"/>
       <use x="63.623047" xlink:href="#DejaVuSans-48"/>
       <use x="127.246094" xlink:href="#DejaVuSans-48"/>
      </g>
     </g>
    </g>
    <g id="xtick_4">
     <g id="line2d_4">
      <g>
       <use style="stroke:#000000;stroke-width:0.8;" x="485.906355" xlink:href="#m5725fea6b5" y="68.392"/>
      </g>
     </g>
     <g id="text_4">
      <!-- 300 -->
      <defs>
       <path d="M 40.578125 39.3125 
Q 47.65625 37.796875 51.625 33 
Q 55.609375 28.21875 55.609375 21.1875 
Q 55.609375 10.40625 48.1875 4.484375 
Q 40.765625 -1.421875 27.09375 -1.421875 
Q 22.515625 -1.421875 17.65625 -0.515625 
Q 12.796875 0.390625 7.625 2.203125 
L 7.625 11.71875 
Q 11.71875 9.328125 16.59375 8.109375 
Q 21.484375 6.890625 26.8125 6.890625 
Q 36.078125 6.890625 40.9375 10.546875 
Q 45.796875 14.203125 45.796875 21.1875 
Q 45.796875 27.640625 41.28125 31.265625 
Q 36.765625 34.90625 28.71875 34.90625 
L 20.21875 34.90625 
L 20.21875 43.015625 
L 29.109375 43.015625 
Q 36.375 43.015625 40.234375 45.921875 
Q 44.09375 48.828125 44.09375 54.296875 
Q 44.09375 59.90625 40.109375 62.90625 
Q 36.140625 65.921875 28.71875 65.921875 
Q 24.65625 65.921875 20.015625 65.03125 
Q 15.375 64.15625 9.8125 62.3125 
L 9.8125 71.09375 
Q 15.4375 72.65625 20.34375 73.4375 
Q 25.25 74.21875 29.59375 74.21875 
Q 40.828125 74.21875 47.359375 69.109375 
Q 53.90625 64.015625 53.90625 55.328125 
Q 53.90625 49.265625 50.4375 45.09375 
Q 46.96875 40.921875 40.578125 39.3125 
z
" id="DejaVuSans-51"/>
      </defs>
      <g transform="translate(476.362605 82.990437)scale(0.1 -0.1)">
       <use xlink:href="#DejaVuSans-51"/>
       <use x="63.623047" xlink:href="#DejaVuSans-48"/>
       <use x="127.246094" xlink:href="#DejaVuSans-48"/>
      </g>
     </g>
    </g>
    <g id="xtick_5">
     <g id="line2d_5">
      <g>
       <use style="stroke:#000000;stroke-width:0.8;" x="625.42372" xlink:href="#m5725fea6b5" y="68.392"/>
      </g>
     </g>
     <g id="text_5">
      <!-- 400 -->
      <defs>
       <path d="M 37.796875 64.3125 
L 12.890625 25.390625 
L 37.796875 25.390625 
z
M 35.203125 72.90625 
L 47.609375 72.90625 
L 47.609375 25.390625 
L 58.015625 25.390625 
L 58.015625 17.1875 
L 47.609375 17.1875 
L 47.609375 0 
L 37.796875 0 
L 37.796875 17.1875 
L 4.890625 17.1875 
L 4.890625 26.703125 
z
" id="DejaVuSans-52"/>
      </defs>
      <g transform="translate(615.87997 82.990437)scale(0.1 -0.1)">
       <use xlink:href="#DejaVuSans-52"/>
       <use x="63.623047" xlink:href="#DejaVuSans-48"/>
       <use x="127.246094" xlink:href="#DejaVuSans-48"/>
      </g>
     </g>
    </g>
    <g id="xtick_6">
     <g id="line2d_6">
      <g>
       <use style="stroke:#000000;stroke-width:0.8;" x="764.941085" xlink:href="#m5725fea6b5" y="68.392"/>
      </g>
     </g>
     <g id="text_6">
      <!-- 500 -->
      <defs>
       <path d="M 10.796875 72.90625 
L 49.515625 72.90625 
L 49.515625 64.59375 
L 19.828125 64.59375 
L 19.828125 46.734375 
Q 21.96875 47.46875 24.109375 47.828125 
Q 26.265625 48.1875 28.421875 48.1875 
Q 40.625 48.1875 47.75 41.5 
Q 54.890625 34.8125 54.890625 23.390625 
Q 54.890625 11.625 47.5625 5.09375 
Q 40.234375 -1.421875 26.90625 -1.421875 
Q 22.3125 -1.421875 17.546875 -0.640625 
Q 12.796875 0.140625 7.71875 1.703125 
L 7.71875 11.625 
Q 12.109375 9.234375 16.796875 8.0625 
Q 21.484375 6.890625 26.703125 6.890625 
Q 35.15625 6.890625 40.078125 11.328125 
Q 45.015625 15.765625 45.015625 23.390625 
Q 45.015625 31 40.078125 35.4375 
Q 35.15625 39.890625 26.703125 39.890625 
Q 22.75 39.890625 18.8125 39.015625 
Q 14.890625 38.140625 10.796875 36.28125 
z
" id="DejaVuSans-53"/>
      </defs>
      <g transform="translate(755.397335 82.990437)scale(0.1 -0.1)">
       <use xlink:href="#DejaVuSans-53"/>
       <use x="63.623047" xlink:href="#DejaVuSans-48"/>
       <use x="127.246094" xlink:href="#DejaVuSans-48"/>
      </g>
     </g>
    </g>
   </g>
   <g id="matplotlib.axis_2">
    <g id="ytick_1">
     <g id="line2d_7">
      <defs>
       <path d="M 0 0 
L -3.5 0 
" id="m8a86b0f525" style="stroke:#000000;stroke-width:0.8;"/>
      </defs>
      <g>
       <use style="stroke:#000000;stroke-width:0.8;" x="30.103125" xlink:href="#m8a86b0f525" y="58.381379"/>
      </g>
     </g>
     <g id="text_7">
      <!-- 0.0 -->
      <defs>
       <path d="M 10.6875 12.40625 
L 21 12.40625 
L 21 0 
L 10.6875 0 
z
" id="DejaVuSans-46"/>
      </defs>
      <g transform="translate(7.2 62.180598)scale(0.1 -0.1)">
       <use xlink:href="#DejaVuSans-48"/>
       <use x="63.623047" xlink:href="#DejaVuSans-46"/>
       <use x="95.410156" xlink:href="#DejaVuSans-48"/>
      </g>
     </g>
    </g>
    <g id="ytick_2">
     <g id="line2d_8">
      <g>
       <use style="stroke:#000000;stroke-width:0.8;" x="30.103125" xlink:href="#m8a86b0f525" y="45.872961"/>
      </g>
     </g>
     <g id="text_8">
      <!-- 0.5 -->
      <g transform="translate(7.2 49.67218)scale(0.1 -0.1)">
       <use xlink:href="#DejaVuSans-48"/>
       <use x="63.623047" xlink:href="#DejaVuSans-46"/>
       <use x="95.410156" xlink:href="#DejaVuSans-53"/>
      </g>
     </g>
    </g>
   </g>
   <g id="line2d_9">
    <path clip-path="url(#p3889ee8888)" d="M 67.354261 58.381379 
L 85.491519 58.410407 
L 86.886692 58.75386 
L 88.281866 59.586999 
L 92.467387 62.863598 
L 93.862561 63.738046 
L 95.257734 61.335309 
L 96.652908 53.034188 
L 98.048082 43.175549 
L 99.443255 37.077607 
L 100.838429 36.128364 
L 102.233603 39.354868 
L 105.02395 50.087845 
L 106.419123 54.62758 
L 107.814297 57.782899 
L 109.209471 59.654775 
L 110.604644 60.595772 
L 111.999818 60.953412 
L 113.394992 60.967988 
L 114.790165 60.781282 
L 117.580513 60.115338 
L 121.766034 59.089304 
L 124.556381 58.667632 
L 127.346728 58.460129 
L 134.322596 58.197956 
L 135.71777 58.894109 
L 137.112944 59.859757 
L 138.508117 61.002337 
L 139.903291 62.589828 
L 141.298465 63.856894 
L 142.693638 64.099619 
L 144.088812 63.530336 
L 145.483986 62.477134 
L 148.274333 59.54297 
L 149.669507 58.728439 
L 151.06468 59.048483 
L 152.459854 60.073833 
L 156.645375 64.067459 
L 158.040548 64.919964 
L 159.435722 65.207734 
L 160.830896 64.862279 
L 162.226069 63.978999 
L 166.41159 60.222403 
L 167.806764 59.504957 
L 169.201938 59.801623 
L 170.597111 60.994577 
L 171.992285 62.347088 
L 173.387459 63.051547 
L 174.782632 62.944479 
L 176.177806 62.537862 
L 177.572979 62.320558 
L 178.968153 62.502492 
L 180.363327 62.825894 
L 181.7585 62.877075 
L 183.153674 62.62763 
L 184.548848 62.519299 
L 187.339195 62.676909 
L 190.129542 63.336895 
L 191.524716 63.05896 
L 194.315063 61.166863 
L 195.710237 60.92864 
L 197.10541 61.195282 
L 198.500584 62.070214 
L 199.895758 63.67347 
L 201.290931 65.446806 
L 202.686105 66.560538 
L 204.081279 66.600809 
L 205.476452 65.611054 
L 209.661973 60.93616 
L 211.057147 59.85017 
L 212.452321 58.973734 
L 213.847494 58.508018 
L 215.242668 58.469487 
L 218.033015 58.556425 
L 225.008883 58.079363 
L 231.984752 58.185788 
L 237.565446 58.319021 
L 238.96062 58.466962 
L 240.355794 58.727089 
L 241.750967 59.285125 
L 243.146141 60.053379 
L 247.331662 62.001405 
L 248.726835 62.857472 
L 250.122009 63.576694 
L 251.517183 63.634664 
L 252.912356 61.989732 
L 254.30753 59.420608 
L 255.702704 57.607965 
L 257.097877 56.749107 
L 258.493051 56.490428 
L 262.678572 56.58198 
L 264.073746 56.783183 
L 265.468919 57.180351 
L 266.864093 57.924665 
L 268.259266 58.925837 
L 269.65444 60.187792 
L 271.049614 61.605353 
L 272.444787 62.633643 
L 273.839961 63.128967 
L 275.235135 63.494203 
L 276.630308 64.114823 
L 279.420656 66.062982 
L 280.815829 66.565132 
L 282.211003 66.780236 
L 285.00135 66.833148 
L 286.396524 66.634359 
L 290.582045 65.311989 
L 293.372392 64.402157 
L 294.767566 64.256871 
L 296.162739 64.242213 
L 297.557913 64.028663 
L 298.953087 63.359585 
L 301.743434 60.93438 
L 303.138608 60.315195 
L 304.533781 60.304881 
L 307.324129 61.043376 
L 308.719302 61.651884 
L 310.114476 62.035442 
L 311.50965 61.645123 
L 315.69517 58.760591 
L 317.090344 58.216775 
L 318.485518 57.961923 
L 319.880691 57.987655 
L 321.275865 58.298336 
L 325.461386 60.229157 
L 326.85656 61.04935 
L 328.251733 62.061507 
L 329.646907 62.904399 
L 331.042081 63.284512 
L 333.832428 63.389017 
L 335.227602 63.722601 
L 336.622775 64.600145 
L 338.017949 65.642117 
L 339.413122 66.004285 
L 340.808296 65.314068 
L 342.20347 63.741498 
L 343.598643 61.932387 
L 344.993817 60.503619 
L 347.784164 58.507014 
L 349.179338 57.360586 
L 350.574512 56.56435 
L 351.969685 56.334958 
L 354.760033 56.870676 
L 357.55038 56.226036 
L 358.945553 56.17935 
L 361.735901 56.831052 
L 363.131074 56.732013 
L 365.921422 55.092472 
L 367.316595 54.923143 
L 368.711769 55.359922 
L 370.106943 56.219648 
L 371.502116 57.39899 
L 374.292464 60.173282 
L 375.687637 61.055408 
L 377.082811 61.77829 
L 379.873158 63.865879 
L 381.268332 64.60116 
L 382.663505 64.769111 
L 384.058679 64.53163 
L 385.453853 63.914486 
L 386.849026 62.951256 
L 388.2442 62.170849 
L 391.034547 61.612619 
L 392.429721 60.904983 
L 393.824895 59.295181 
L 395.220068 57.369451 
L 396.615242 56.199552 
L 398.010416 56.286413 
L 399.405589 57.326592 
L 402.195937 59.8953 
L 403.59111 61.034482 
L 404.986284 61.853244 
L 406.381457 61.862274 
L 410.566978 59.930123 
L 411.962152 59.659191 
L 413.357326 59.208037 
L 416.147673 57.685722 
L 417.542847 57.23623 
L 418.93802 57.474889 
L 420.333194 58.244234 
L 421.728368 58.885001 
L 423.123541 57.512027 
L 424.518715 53.51381 
L 427.309062 43.114133 
L 428.704236 39.6966 
L 430.099409 39.572379 
L 431.494583 42.278367 
L 434.28493 50.353497 
L 435.680104 53.930782 
L 437.075278 56.230391 
L 438.470451 54.277869 
L 439.865625 48.994796 
L 441.260799 44.770882 
L 442.655972 43.823437 
L 444.051146 45.861153 
L 446.841493 53.221002 
L 448.236667 55.809734 
L 449.631841 57.434473 
L 451.027014 58.44992 
L 452.422188 59.112688 
L 453.817361 59.54141 
L 455.212535 59.631966 
L 458.002882 59.204151 
L 459.398056 59.025151 
L 460.79323 57.196561 
L 462.188403 53.953026 
L 463.583577 51.574354 
L 464.978751 51.293475 
L 466.373924 52.709038 
L 470.559445 59.07761 
L 471.954619 60.71568 
L 473.349793 62.021371 
L 474.744966 62.976846 
L 476.14014 63.663007 
L 477.535313 64.028091 
L 478.930487 63.96895 
L 480.325661 62.350259 
L 481.720834 57.86117 
L 483.116008 52.605894 
L 484.511182 49.33471 
L 485.906355 48.695528 
L 487.301529 49.879639 
L 490.091876 53.751714 
L 491.48705 55.376371 
L 492.882224 56.626177 
L 494.277397 57.572027 
L 495.672571 58.261148 
L 498.462918 59.427856 
L 502.648439 61.931863 
L 505.438786 62.867851 
L 506.83396 63.602309 
L 509.624307 65.838936 
L 511.019481 65.684108 
L 512.414655 62.929485 
L 513.809828 59.090344 
L 515.205002 56.391072 
L 516.600176 55.38964 
L 517.995349 55.600104 
L 519.390523 56.258055 
L 520.785697 56.751485 
L 522.18087 57.125305 
L 523.576044 57.703203 
L 526.366391 59.325 
L 527.761565 59.705039 
L 529.156738 59.436448 
L 530.551912 57.304575 
L 531.947086 53.907348 
L 533.342259 51.348554 
L 534.737433 50.623035 
L 536.132607 51.258028 
L 540.318128 54.228332 
L 541.713301 54.888754 
L 544.503648 55.627768 
L 545.898822 56.209532 
L 547.293996 56.933873 
L 548.689169 57.849111 
L 550.084343 58.916625 
L 551.479517 59.78901 
L 552.87469 60.226564 
L 554.269864 60.243777 
L 555.665038 60.022412 
L 557.060211 59.380327 
L 559.850559 56.90341 
L 561.245732 56.156687 
L 562.640906 55.967426 
L 564.03608 56.070005 
L 565.431253 56.386821 
L 571.011948 58.401721 
L 572.407121 58.998104 
L 573.802295 59.387563 
L 575.197469 59.476907 
L 577.987816 59.154944 
L 582.173337 58.636804 
L 586.358858 58.396768 
L 591.939552 58.330169 
L 597.520247 58.329225 
L 598.915421 58.147461 
L 601.705768 57.49224 
L 603.100942 57.372507 
L 604.496115 57.499248 
L 605.891289 57.989345 
L 607.286463 59.215148 
L 608.681636 60.762204 
L 610.07681 61.47572 
L 611.471984 60.551826 
L 614.262331 55.986504 
L 615.657504 54.727982 
L 617.052678 54.570072 
L 618.447852 55.100759 
L 621.238199 56.632996 
L 622.633373 57.270392 
L 624.028546 58.130125 
L 625.42372 59.754073 
L 626.818894 61.855868 
L 628.214067 63.509714 
L 629.609241 64.089137 
L 631.004415 63.653956 
L 632.399588 62.64036 
L 635.189936 60.423636 
L 636.585109 59.579299 
L 637.980283 58.949748 
L 639.375456 58.504389 
L 640.77063 58.206826 
L 643.560977 57.935141 
L 646.351325 57.934105 
L 658.907888 58.355272 
L 660.303061 58.226499 
L 661.698235 57.484931 
L 663.093408 56.399453 
L 664.488582 55.665607 
L 665.883756 55.558461 
L 667.278929 55.931204 
L 670.069277 56.983577 
L 671.46445 57.238288 
L 672.859624 56.974331 
L 674.254798 53.999995 
L 675.649971 48.534358 
L 677.045145 43.958834 
L 678.440319 42.390304 
L 679.835492 43.252172 
L 681.230666 44.950472 
L 682.62584 47.02753 
L 685.416187 51.765202 
L 688.206534 55.979913 
L 689.601708 58.159859 
L 690.996881 59.830297 
L 692.392055 60.757748 
L 693.787229 61.043051 
L 695.182402 60.919154 
L 697.97275 60.204485 
L 700.763097 59.530181 
L 702.158271 59.39034 
L 703.553444 59.429085 
L 704.948618 58.655487 
L 706.343791 56.882035 
L 707.738965 55.644431 
L 709.134139 55.687951 
L 711.924486 56.804329 
L 713.31966 56.588027 
L 714.714833 54.901057 
L 716.110007 52.67569 
L 717.505181 51.327613 
L 718.900354 51.416639 
L 720.295528 52.925019 
L 721.690702 55.092659 
L 723.085875 56.823503 
L 724.481049 58.148593 
L 727.271396 61.160893 
L 728.66657 62.082346 
L 730.061743 62.274344 
L 731.456917 62.282445 
L 732.852091 62.502362 
L 734.247264 62.608377 
L 735.642438 62.184805 
L 737.037612 60.371212 
L 739.827959 54.081371 
L 741.223133 51.660384 
L 742.618306 50.162147 
L 744.01348 50.608911 
L 745.408654 52.996551 
L 746.803827 56.1199 
L 748.199001 58.793088 
L 749.594175 60.822441 
L 750.989348 62.493116 
L 752.384522 63.87096 
L 753.779695 64.642921 
L 755.174869 64.751718 
L 757.965216 64.412483 
L 759.36039 64.818478 
L 760.755564 65.563772 
L 762.150737 65.660574 
L 763.545911 64.423862 
L 764.941085 62.446222 
L 766.336258 60.880408 
L 767.731432 60.006986 
L 770.521779 58.882067 
L 771.916953 58.367912 
L 773.312127 58.040818 
L 774.7073 58.142387 
L 776.102474 58.45617 
L 777.497647 58.562834 
L 778.892821 58.185388 
L 780.287995 57.428618 
L 781.683168 56.808465 
L 783.078342 56.456455 
L 785.868689 55.415222 
L 787.263863 55.320493 
L 788.659037 55.709174 
L 791.449384 56.933427 
L 792.844558 57.196443 
L 795.634905 57.329302 
L 798.425252 57.780777 
L 801.215599 58.259173 
L 804.005947 58.503638 
L 808.191468 58.570096 
L 812.376989 58.512704 
L 812.376989 58.512704 
" style="fill:none;stroke:#1f77b4;stroke-linecap:square;stroke-width:1.5;"/>
   </g>
   <g id="patch_3">
    <path d="M 30.103125 68.392 
L 30.103125 34.592 
" style="fill:none;stroke:#000000;stroke-linecap:square;stroke-linejoin:miter;stroke-width:0.8;"/>
   </g>
   <g id="patch_4">
    <path d="M 30.103125 68.392 
L 849.628125 68.392 
" style="fill:none;stroke:#000000;stroke-linecap:square;stroke-linejoin:miter;stroke-width:0.8;"/>
   </g>
   <g id="text_9">
    <!-- Budapest_movie -->
    <defs>
     <path d="M 19.671875 34.8125 
L 19.671875 8.109375 
L 35.5 8.109375 
Q 43.453125 8.109375 47.28125 11.40625 
Q 51.125 14.703125 51.125 21.484375 
Q 51.125 28.328125 47.28125 31.5625 
Q 43.453125 34.8125 35.5 34.8125 
z
M 19.671875 64.796875 
L 19.671875 42.828125 
L 34.28125 42.828125 
Q 41.5 42.828125 45.03125 45.53125 
Q 48.578125 48.25 48.578125 53.8125 
Q 48.578125 59.328125 45.03125 62.0625 
Q 41.5 64.796875 34.28125 64.796875 
z
M 9.8125 72.90625 
L 35.015625 72.90625 
Q 46.296875 72.90625 52.390625 68.21875 
Q 58.5 63.53125 58.5 54.890625 
Q 58.5 48.1875 55.375 44.234375 
Q 52.25 40.28125 46.1875 39.3125 
Q 53.46875 37.75 57.5 32.78125 
Q 61.53125 27.828125 61.53125 20.40625 
Q 61.53125 10.640625 54.890625 5.3125 
Q 48.25 0 35.984375 0 
L 9.8125 0 
z
" id="DejaVuSans-66"/>
     <path d="M 8.5 21.578125 
L 8.5 54.6875 
L 17.484375 54.6875 
L 17.484375 21.921875 
Q 17.484375 14.15625 20.5 10.265625 
Q 23.53125 6.390625 29.59375 6.390625 
Q 36.859375 6.390625 41.078125 11.03125 
Q 45.3125 15.671875 45.3125 23.6875 
L 45.3125 54.6875 
L 54.296875 54.6875 
L 54.296875 0 
L 45.3125 0 
L 45.3125 8.40625 
Q 42.046875 3.421875 37.71875 1 
Q 33.40625 -1.421875 27.6875 -1.421875 
Q 18.265625 -1.421875 13.375 4.4375 
Q 8.5 10.296875 8.5 21.578125 
z
M 31.109375 56 
z
" id="DejaVuSans-117"/>
     <path d="M 45.40625 46.390625 
L 45.40625 75.984375 
L 54.390625 75.984375 
L 54.390625 0 
L 45.40625 0 
L 45.40625 8.203125 
Q 42.578125 3.328125 38.25 0.953125 
Q 33.9375 -1.421875 27.875 -1.421875 
Q 17.96875 -1.421875 11.734375 6.484375 
Q 5.515625 14.40625 5.515625 27.296875 
Q 5.515625 40.1875 11.734375 48.09375 
Q 17.96875 56 27.875 56 
Q 33.9375 56 38.25 53.625 
Q 42.578125 51.265625 45.40625 46.390625 
z
M 14.796875 27.296875 
Q 14.796875 17.390625 18.875 11.75 
Q 22.953125 6.109375 30.078125 6.109375 
Q 37.203125 6.109375 41.296875 11.75 
Q 45.40625 17.390625 45.40625 27.296875 
Q 45.40625 37.203125 41.296875 42.84375 
Q 37.203125 48.484375 30.078125 48.484375 
Q 22.953125 48.484375 18.875 42.84375 
Q 14.796875 37.203125 14.796875 27.296875 
z
" id="DejaVuSans-100"/>
     <path d="M 34.28125 27.484375 
Q 23.390625 27.484375 19.1875 25 
Q 14.984375 22.515625 14.984375 16.5 
Q 14.984375 11.71875 18.140625 8.90625 
Q 21.296875 6.109375 26.703125 6.109375 
Q 34.1875 6.109375 38.703125 11.40625 
Q 43.21875 16.703125 43.21875 25.484375 
L 43.21875 27.484375 
z
M 52.203125 31.203125 
L 52.203125 0 
L 43.21875 0 
L 43.21875 8.296875 
Q 40.140625 3.328125 35.546875 0.953125 
Q 30.953125 -1.421875 24.3125 -1.421875 
Q 15.921875 -1.421875 10.953125 3.296875 
Q 6 8.015625 6 15.921875 
Q 6 25.140625 12.171875 29.828125 
Q 18.359375 34.515625 30.609375 34.515625 
L 43.21875 34.515625 
L 43.21875 35.40625 
Q 43.21875 41.609375 39.140625 45 
Q 35.0625 48.390625 27.6875 48.390625 
Q 23 48.390625 18.546875 47.265625 
Q 14.109375 46.140625 10.015625 43.890625 
L 10.015625 52.203125 
Q 14.9375 54.109375 19.578125 55.046875 
Q 24.21875 56 28.609375 56 
Q 40.484375 56 46.34375 49.84375 
Q 52.203125 43.703125 52.203125 31.203125 
z
" id="DejaVuSans-97"/>
     <path d="M 18.109375 8.203125 
L 18.109375 -20.796875 
L 9.078125 -20.796875 
L 9.078125 54.6875 
L 18.109375 54.6875 
L 18.109375 46.390625 
Q 20.953125 51.265625 25.265625 53.625 
Q 29.59375 56 35.59375 56 
Q 45.5625 56 51.78125 48.09375 
Q 58.015625 40.1875 58.015625 27.296875 
Q 58.015625 14.40625 51.78125 6.484375 
Q 45.5625 -1.421875 35.59375 -1.421875 
Q 29.59375 -1.421875 25.265625 0.953125 
Q 20.953125 3.328125 18.109375 8.203125 
z
M 48.6875 27.296875 
Q 48.6875 37.203125 44.609375 42.84375 
Q 40.53125 48.484375 33.40625 48.484375 
Q 26.265625 48.484375 22.1875 42.84375 
Q 18.109375 37.203125 18.109375 27.296875 
Q 18.109375 17.390625 22.1875 11.75 
Q 26.265625 6.109375 33.40625 6.109375 
Q 40.53125 6.109375 44.609375 11.75 
Q 48.6875 17.390625 48.6875 27.296875 
z
" id="DejaVuSans-112"/>
     <path d="M 56.203125 29.59375 
L 56.203125 25.203125 
L 14.890625 25.203125 
Q 15.484375 15.921875 20.484375 11.0625 
Q 25.484375 6.203125 34.421875 6.203125 
Q 39.59375 6.203125 44.453125 7.46875 
Q 49.3125 8.734375 54.109375 11.28125 
L 54.109375 2.78125 
Q 49.265625 0.734375 44.1875 -0.34375 
Q 39.109375 -1.421875 33.890625 -1.421875 
Q 20.796875 -1.421875 13.15625 6.1875 
Q 5.515625 13.8125 5.515625 26.8125 
Q 5.515625 40.234375 12.765625 48.109375 
Q 20.015625 56 32.328125 56 
Q 43.359375 56 49.78125 48.890625 
Q 56.203125 41.796875 56.203125 29.59375 
z
M 47.21875 32.234375 
Q 47.125 39.59375 43.09375 43.984375 
Q 39.0625 48.390625 32.421875 48.390625 
Q 24.90625 48.390625 20.390625 44.140625 
Q 15.875 39.890625 15.1875 32.171875 
z
" id="DejaVuSans-101"/>
     <path d="M 44.28125 53.078125 
L 44.28125 44.578125 
Q 40.484375 46.53125 36.375 47.5 
Q 32.28125 48.484375 27.875 48.484375 
Q 21.1875 48.484375 17.84375 46.4375 
Q 14.5 44.390625 14.5 40.28125 
Q 14.5 37.15625 16.890625 35.375 
Q 19.28125 33.59375 26.515625 31.984375 
L 29.59375 31.296875 
Q 39.15625 29.25 43.1875 25.515625 
Q 47.21875 21.78125 47.21875 15.09375 
Q 47.21875 7.46875 41.1875 3.015625 
Q 35.15625 -1.421875 24.609375 -1.421875 
Q 20.21875 -1.421875 15.453125 -0.5625 
Q 10.6875 0.296875 5.421875 2 
L 5.421875 11.28125 
Q 10.40625 8.6875 15.234375 7.390625 
Q 20.0625 6.109375 24.8125 6.109375 
Q 31.15625 6.109375 34.5625 8.28125 
Q 37.984375 10.453125 37.984375 14.40625 
Q 37.984375 18.0625 35.515625 20.015625 
Q 33.0625 21.96875 24.703125 23.78125 
L 21.578125 24.515625 
Q 13.234375 26.265625 9.515625 29.90625 
Q 5.8125 33.546875 5.8125 39.890625 
Q 5.8125 47.609375 11.28125 51.796875 
Q 16.75 56 26.8125 56 
Q 31.78125 56 36.171875 55.265625 
Q 40.578125 54.546875 44.28125 53.078125 
z
" id="DejaVuSans-115"/>
     <path d="M 18.3125 70.21875 
L 18.3125 54.6875 
L 36.8125 54.6875 
L 36.8125 47.703125 
L 18.3125 47.703125 
L 18.3125 18.015625 
Q 18.3125 11.328125 20.140625 9.421875 
Q 21.96875 7.515625 27.59375 7.515625 
L 36.8125 7.515625 
L 36.8125 0 
L 27.59375 0 
Q 17.1875 0 13.234375 3.875 
Q 9.28125 7.765625 9.28125 18.015625 
L 9.28125 47.703125 
L 2.6875 47.703125 
L 2.6875 54.6875 
L 9.28125 54.6875 
L 9.28125 70.21875 
z
" id="DejaVuSans-116"/>
     <path d="M 50.984375 -16.609375 
L 50.984375 -23.578125 
L -0.984375 -23.578125 
L -0.984375 -16.609375 
z
" id="DejaVuSans-95"/>
     <path d="M 52 44.1875 
Q 55.375 50.25 60.0625 53.125 
Q 64.75 56 71.09375 56 
Q 79.640625 56 84.28125 50.015625 
Q 88.921875 44.046875 88.921875 33.015625 
L 88.921875 0 
L 79.890625 0 
L 79.890625 32.71875 
Q 79.890625 40.578125 77.09375 44.375 
Q 74.3125 48.1875 68.609375 48.1875 
Q 61.625 48.1875 57.5625 43.546875 
Q 53.515625 38.921875 53.515625 30.90625 
L 53.515625 0 
L 44.484375 0 
L 44.484375 32.71875 
Q 44.484375 40.625 41.703125 44.40625 
Q 38.921875 48.1875 33.109375 48.1875 
Q 26.21875 48.1875 22.15625 43.53125 
Q 18.109375 38.875 18.109375 30.90625 
L 18.109375 0 
L 9.078125 0 
L 9.078125 54.6875 
L 18.109375 54.6875 
L 18.109375 46.1875 
Q 21.1875 51.21875 25.484375 53.609375 
Q 29.78125 56 35.6875 56 
Q 41.65625 56 45.828125 52.96875 
Q 50 49.953125 52 44.1875 
z
" id="DejaVuSans-109"/>
     <path d="M 30.609375 48.390625 
Q 23.390625 48.390625 19.1875 42.75 
Q 14.984375 37.109375 14.984375 27.296875 
Q 14.984375 17.484375 19.15625 11.84375 
Q 23.34375 6.203125 30.609375 6.203125 
Q 37.796875 6.203125 41.984375 11.859375 
Q 46.1875 17.53125 46.1875 27.296875 
Q 46.1875 37.015625 41.984375 42.703125 
Q 37.796875 48.390625 30.609375 48.390625 
z
M 30.609375 56 
Q 42.328125 56 49.015625 48.375 
Q 55.71875 40.765625 55.71875 27.296875 
Q 55.71875 13.875 49.015625 6.21875 
Q 42.328125 -1.421875 30.609375 -1.421875 
Q 18.84375 -1.421875 12.171875 6.21875 
Q 5.515625 13.875 5.515625 27.296875 
Q 5.515625 40.765625 12.171875 48.375 
Q 18.84375 56 30.609375 56 
z
" id="DejaVuSans-111"/>
     <path d="M 2.984375 54.6875 
L 12.5 54.6875 
L 29.59375 8.796875 
L 46.6875 54.6875 
L 56.203125 54.6875 
L 35.6875 0 
L 23.484375 0 
z
" id="DejaVuSans-118"/>
     <path d="M 9.421875 54.6875 
L 18.40625 54.6875 
L 18.40625 0 
L 9.421875 0 
z
M 9.421875 75.984375 
L 18.40625 75.984375 
L 18.40625 64.59375 
L 9.421875 64.59375 
z
" id="DejaVuSans-105"/>
    </defs>
    <g transform="translate(398.357813 28.592)scale(0.1 -0.1)">
     <use xlink:href="#DejaVuSans-66"/>
     <use x="68.603516" xlink:href="#DejaVuSans-117"/>
     <use x="131.982422" xlink:href="#DejaVuSans-100"/>
     <use x="195.458984" xlink:href="#DejaVuSans-97"/>
     <use x="256.738281" xlink:href="#DejaVuSans-112"/>
     <use x="320.214844" xlink:href="#DejaVuSans-101"/>
     <use x="381.738281" xlink:href="#DejaVuSans-115"/>
     <use x="433.837891" xlink:href="#DejaVuSans-116"/>
     <use x="473.046875" xlink:href="#DejaVuSans-95"/>
     <use x="523.046875" xlink:href="#DejaVuSans-109"/>
     <use x="620.458984" xlink:href="#DejaVuSans-111"/>
     <use x="681.640625" xlink:href="#DejaVuSans-118"/>
     <use x="740.820312" xlink:href="#DejaVuSans-105"/>
     <use x="768.603516" xlink:href="#DejaVuSans-101"/>
    </g>
   </g>
  </g>
  <g id="text_10">
   <!-- lancastersensorimotornorms_Gustatory.mean [model: lancastersensorimotornorms_Gustatory.mean] -->
   <defs>
    <path d="M 9.421875 75.984375 
L 18.40625 75.984375 
L 18.40625 0 
L 9.421875 0 
z
" id="DejaVuSans-108"/>
    <path d="M 54.890625 33.015625 
L 54.890625 0 
L 45.90625 0 
L 45.90625 32.71875 
Q 45.90625 40.484375 42.875 44.328125 
Q 39.84375 48.1875 33.796875 48.1875 
Q 26.515625 48.1875 22.3125 43.546875 
Q 18.109375 38.921875 18.109375 30.90625 
L 18.109375 0 
L 9.078125 0 
L 9.078125 54.6875 
L 18.109375 54.6875 
L 18.109375 46.1875 
Q 21.34375 51.125 25.703125 53.5625 
Q 30.078125 56 35.796875 56 
Q 45.21875 56 50.046875 50.171875 
Q 54.890625 44.34375 54.890625 33.015625 
z
" id="DejaVuSans-110"/>
    <path d="M 48.78125 52.59375 
L 48.78125 44.1875 
Q 44.96875 46.296875 41.140625 47.34375 
Q 37.3125 48.390625 33.40625 48.390625 
Q 24.65625 48.390625 19.8125 42.84375 
Q 14.984375 37.3125 14.984375 27.296875 
Q 14.984375 17.28125 19.8125 11.734375 
Q 24.65625 6.203125 33.40625 6.203125 
Q 37.3125 6.203125 41.140625 7.25 
Q 44.96875 8.296875 48.78125 10.40625 
L 48.78125 2.09375 
Q 45.015625 0.34375 40.984375 -0.53125 
Q 36.96875 -1.421875 32.421875 -1.421875 
Q 20.0625 -1.421875 12.78125 6.34375 
Q 5.515625 14.109375 5.515625 27.296875 
Q 5.515625 40.671875 12.859375 48.328125 
Q 20.21875 56 33.015625 56 
Q 37.15625 56 41.109375 55.140625 
Q 45.0625 54.296875 48.78125 52.59375 
z
" id="DejaVuSans-99"/>
    <path d="M 41.109375 46.296875 
Q 39.59375 47.171875 37.8125 47.578125 
Q 36.03125 48 33.890625 48 
Q 26.265625 48 22.1875 43.046875 
Q 18.109375 38.09375 18.109375 28.8125 
L 18.109375 0 
L 9.078125 0 
L 9.078125 54.6875 
L 18.109375 54.6875 
L 18.109375 46.1875 
Q 20.953125 51.171875 25.484375 53.578125 
Q 30.03125 56 36.53125 56 
Q 37.453125 56 38.578125 55.875 
Q 39.703125 55.765625 41.0625 55.515625 
z
" id="DejaVuSans-114"/>
    <path d="M 59.515625 10.40625 
L 59.515625 29.984375 
L 43.40625 29.984375 
L 43.40625 38.09375 
L 69.28125 38.09375 
L 69.28125 6.78125 
Q 63.578125 2.734375 56.6875 0.65625 
Q 49.8125 -1.421875 42 -1.421875 
Q 24.90625 -1.421875 15.25 8.5625 
Q 5.609375 18.5625 5.609375 36.375 
Q 5.609375 54.25 15.25 64.234375 
Q 24.90625 74.21875 42 74.21875 
Q 49.125 74.21875 55.546875 72.453125 
Q 61.96875 70.703125 67.390625 67.28125 
L 67.390625 56.78125 
Q 61.921875 61.421875 55.765625 63.765625 
Q 49.609375 66.109375 42.828125 66.109375 
Q 29.4375 66.109375 22.71875 58.640625 
Q 16.015625 51.171875 16.015625 36.375 
Q 16.015625 21.625 22.71875 14.15625 
Q 29.4375 6.6875 42.828125 6.6875 
Q 48.046875 6.6875 52.140625 7.59375 
Q 56.25 8.5 59.515625 10.40625 
z
" id="DejaVuSans-71"/>
    <path d="M 32.171875 -5.078125 
Q 28.375 -14.84375 24.75 -17.8125 
Q 21.140625 -20.796875 15.09375 -20.796875 
L 7.90625 -20.796875 
L 7.90625 -13.28125 
L 13.1875 -13.28125 
Q 16.890625 -13.28125 18.9375 -11.515625 
Q 21 -9.765625 23.484375 -3.21875 
L 25.09375 0.875 
L 2.984375 54.6875 
L 12.5 54.6875 
L 29.59375 11.921875 
L 46.6875 54.6875 
L 56.203125 54.6875 
z
" id="DejaVuSans-121"/>
    <path id="DejaVuSans-32"/>
    <path d="M 8.59375 75.984375 
L 29.296875 75.984375 
L 29.296875 69 
L 17.578125 69 
L 17.578125 -6.203125 
L 29.296875 -6.203125 
L 29.296875 -13.1875 
L 8.59375 -13.1875 
z
" id="DejaVuSans-91"/>
    <path d="M 11.71875 12.40625 
L 22.015625 12.40625 
L 22.015625 0 
L 11.71875 0 
z
M 11.71875 51.703125 
L 22.015625 51.703125 
L 22.015625 39.3125 
L 11.71875 39.3125 
z
" id="DejaVuSans-58"/>
    <path d="M 30.421875 75.984375 
L 30.421875 -13.1875 
L 9.71875 -13.1875 
L 9.71875 -6.203125 
L 21.390625 -6.203125 
L 21.390625 69 
L 9.71875 69 
L 9.71875 75.984375 
z
" id="DejaVuSans-93"/>
   </defs>
   <g transform="translate(125.768438 16.318125)scale(0.12 -0.12)">
    <use xlink:href="#DejaVuSans-108"/>
    <use x="27.783203" xlink:href="#DejaVuSans-97"/>
    <use x="89.0625" xlink:href="#DejaVuSans-110"/>
    <use x="152.441406" xlink:href="#DejaVuSans-99"/>
    <use x="207.421875" xlink:href="#DejaVuSans-97"/>
    <use x="268.701172" xlink:href="#DejaVuSans-115"/>
    <use x="320.800781" xlink:href="#DejaVuSans-116"/>
    <use x="360.009766" xlink:href="#DejaVuSans-101"/>
    <use x="421.533203" xlink:href="#DejaVuSans-114"/>
    <use x="462.646484" xlink:href="#DejaVuSans-115"/>
    <use x="514.746094" xlink:href="#DejaVuSans-101"/>
    <use x="576.269531" xlink:href="#DejaVuSans-110"/>
    <use x="639.648438" xlink:href="#DejaVuSans-115"/>
    <use x="691.748047" xlink:href="#DejaVuSans-111"/>
    <use x="752.929688" xlink:href="#DejaVuSans-114"/>
    <use x="794.042969" xlink:href="#DejaVuSans-105"/>
    <use x="821.826172" xlink:href="#DejaVuSans-109"/>
    <use x="919.238281" xlink:href="#DejaVuSans-111"/>
    <use x="980.419922" xlink:href="#DejaVuSans-116"/>
    <use x="1019.628906" xlink:href="#DejaVuSans-111"/>
    <use x="1080.810547" xlink:href="#DejaVuSans-114"/>
    <use x="1120.173828" xlink:href="#DejaVuSans-110"/>
    <use x="1183.552734" xlink:href="#DejaVuSans-111"/>
    <use x="1244.734375" xlink:href="#DejaVuSans-114"/>
    <use x="1284.097656" xlink:href="#DejaVuSans-109"/>
    <use x="1381.509766" xlink:href="#DejaVuSans-115"/>
    <use x="1433.609375" xlink:href="#DejaVuSans-95"/>
    <use x="1483.609375" xlink:href="#DejaVuSans-71"/>
    <use x="1561.099609" xlink:href="#DejaVuSans-117"/>
    <use x="1624.478516" xlink:href="#DejaVuSans-115"/>
    <use x="1676.578125" xlink:href="#DejaVuSans-116"/>
    <use x="1715.787109" xlink:href="#DejaVuSans-97"/>
    <use x="1777.066406" xlink:href="#DejaVuSans-116"/>
    <use x="1816.275391" xlink:href="#DejaVuSans-111"/>
    <use x="1877.457031" xlink:href="#DejaVuSans-114"/>
    <use x="1918.570312" xlink:href="#DejaVuSans-121"/>
    <use x="1963.5" xlink:href="#DejaVuSans-46"/>
    <use x="1995.287109" xlink:href="#DejaVuSans-109"/>
    <use x="2092.699219" xlink:href="#DejaVuSans-101"/>
    <use x="2154.222656" xlink:href="#DejaVuSans-97"/>
    <use x="2215.501953" xlink:href="#DejaVuSans-110"/>
    <use x="2278.880859" xlink:href="#DejaVuSans-32"/>
    <use x="2310.667969" xlink:href="#DejaVuSans-91"/>
    <use x="2349.681641" xlink:href="#DejaVuSans-109"/>
    <use x="2447.09375" xlink:href="#DejaVuSans-111"/>
    <use x="2508.275391" xlink:href="#DejaVuSans-100"/>
    <use x="2571.751953" xlink:href="#DejaVuSans-101"/>
    <use x="2633.275391" xlink:href="#DejaVuSans-108"/>
    <use x="2661.058594" xlink:href="#DejaVuSans-58"/>
    <use x="2694.75" xlink:href="#DejaVuSans-32"/>
    <use x="2726.537109" xlink:href="#DejaVuSans-108"/>
    <use x="2754.320312" xlink:href="#DejaVuSans-97"/>
    <use x="2815.599609" xlink:href="#DejaVuSans-110"/>
    <use x="2878.978516" xlink:href="#DejaVuSans-99"/>
    <use x="2933.958984" xlink:href="#DejaVuSans-97"/>
    <use x="2995.238281" xlink:href="#DejaVuSans-115"/>
    <use x="3047.337891" xlink:href="#DejaVuSans-116"/>
    <use x="3086.546875" xlink:href="#DejaVuSans-101"/>
    <use x="3148.070312" xlink:href="#DejaVuSans-114"/>
    <use x="3189.183594" xlink:href="#DejaVuSans-115"/>
    <use x="3241.283203" xlink:href="#DejaVuSans-101"/>
    <use x="3302.806641" xlink:href="#DejaVuSans-110"/>
    <use x="3366.185547" xlink:href="#DejaVuSans-115"/>
    <use x="3418.285156" xlink:href="#DejaVuSans-111"/>
    <use x="3479.466797" xlink:href="#DejaVuSans-114"/>
    <use x="3520.580078" xlink:href="#DejaVuSans-105"/>
    <use x="3548.363281" xlink:href="#DejaVuSans-109"/>
    <use x="3645.775391" xlink:href="#DejaVuSans-111"/>
    <use x="3706.957031" xlink:href="#DejaVuSans-116"/>
    <use x="3746.166016" xlink:href="#DejaVuSans-111"/>
    <use x="3807.347656" xlink:href="#DejaVuSans-114"/>
    <use x="3846.710938" xlink:href="#DejaVuSans-110"/>
    <use x="3910.089844" xlink:href="#DejaVuSans-111"/>
    <use x="3971.271484" xlink:href="#DejaVuSans-114"/>
    <use x="4010.634766" xlink:href="#DejaVuSans-109"/>
    <use x="4108.046875" xlink:href="#DejaVuSans-115"/>
    <use x="4160.146484" xlink:href="#DejaVuSans-95"/>
    <use x="4210.146484" xlink:href="#DejaVuSans-71"/>
    <use x="4287.636719" xlink:href="#DejaVuSans-117"/>
    <use x="4351.015625" xlink:href="#DejaVuSans-115"/>
    <use x="4403.115234" xlink:href="#DejaVuSans-116"/>
    <use x="4442.324219" xlink:href="#DejaVuSans-97"/>
    <use x="4503.603516" xlink:href="#DejaVuSans-116"/>
    <use x="4542.8125" xlink:href="#DejaVuSans-111"/>
    <use x="4603.994141" xlink:href="#DejaVuSans-114"/>
    <use x="4645.107422" xlink:href="#DejaVuSans-121"/>
    <use x="4690.037109" xlink:href="#DejaVuSans-46"/>
    <use x="4721.824219" xlink:href="#DejaVuSans-109"/>
    <use x="4819.236328" xlink:href="#DejaVuSans-101"/>
    <use x="4880.759766" xlink:href="#DejaVuSans-97"/>
    <use x="4942.039062" xlink:href="#DejaVuSans-110"/>
    <use x="5005.417969" xlink:href="#DejaVuSans-93"/>
   </g>
  </g>
 </g>
 <defs>
  <clipPath id="p3889ee8888">
   <rect height="33.8" width="819.525" x="30.103125" y="34.592"/>
  </clipPath>
 </defs>
</svg>
