<?xml version="1.0" encoding="utf-8" standalone="no"?>
<!DOCTYPE svg PUBLIC "-//W3C//DTD SVG 1.1//EN"
  "http://www.w3.org/Graphics/SVG/1.1/DTD/svg11.dtd">
<!-- Created with matplotlib (https://matplotlib.org/) -->
<svg height="225.43625pt" version="1.1" viewBox="0 0 760.907282 225.43625" width="760.907282pt" xmlns="http://www.w3.org/2000/svg" xmlns:xlink="http://www.w3.org/1999/xlink">
 <defs>
  <style type="text/css">
*{stroke-linecap:butt;stroke-linejoin:round;}
  </style>
 </defs>
 <g id="figure_1">
  <g id="patch_1">
   <path d="M 0 225.43625 
L 760.907282 225.43625 
L 760.907282 0 
L 0 0 
z
" style="fill:none;"/>
  </g>
  <g id="axes_1">
   <g id="patch_2">
    <path d="M 20.5625 187.88 
L 632.289782 187.88 
L 632.289782 24.48 
L 20.5625 24.48 
z
" style="fill:#ffffff;"/>
   </g>
   <g id="matplotlib.axis_1">
    <g id="xtick_1">
     <g id="line2d_1">
      <defs>
       <path d="M 0 0 
L 0 3.5 
" id="m45e69ada95" style="stroke:#000000;stroke-width:0.8;"/>
      </defs>
      <g>
       <use style="stroke:#000000;stroke-width:0.8;" x="58.982133" xlink:href="#m45e69ada95" y="187.88"/>
      </g>
     </g>
     <g id="text_1">
      <!-- −0.6 -->
      <defs>
       <path d="M 10.59375 35.5 
L 73.1875 35.5 
L 73.1875 27.203125 
L 10.59375 27.203125 
z
" id="DejaVuSans-8722"/>
       <path d="M 31.78125 66.40625 
Q 24.171875 66.40625 20.328125 58.90625 
Q 16.5 51.421875 16.5 36.375 
Q 16.5 21.390625 20.328125 13.890625 
Q 24.171875 6.390625 31.78125 6.390625 
Q 39.453125 6.390625 43.28125 13.890625 
Q 47.125 21.390625 47.125 36.375 
Q 47.125 51.421875 43.28125 58.90625 
Q 39.453125 66.40625 31.78125 66.40625 
z
M 31.78125 74.21875 
Q 44.046875 74.21875 50.515625 64.515625 
Q 56.984375 54.828125 56.984375 36.375 
Q 56.984375 17.96875 50.515625 8.265625 
Q 44.046875 -1.421875 31.78125 -1.421875 
Q 19.53125 -1.421875 13.0625 8.265625 
Q 6.59375 17.96875 6.59375 36.375 
Q 6.59375 54.828125 13.0625 64.515625 
Q 19.53125 74.21875 31.78125 74.21875 
z
" id="DejaVuSans-48"/>
       <path d="M 10.6875 12.40625 
L 21 12.40625 
L 21 0 
L 10.6875 0 
z
" id="DejaVuSans-46"/>
       <path d="M 33.015625 40.375 
Q 26.375 40.375 22.484375 35.828125 
Q 18.609375 31.296875 18.609375 23.390625 
Q 18.609375 15.53125 22.484375 10.953125 
Q 26.375 6.390625 33.015625 6.390625 
Q 39.65625 6.390625 43.53125 10.953125 
Q 47.40625 15.53125 47.40625 23.390625 
Q 47.40625 31.296875 43.53125 35.828125 
Q 39.65625 40.375 33.015625 40.375 
z
M 52.59375 71.296875 
L 52.59375 62.3125 
Q 48.875 64.0625 45.09375 64.984375 
Q 41.3125 65.921875 37.59375 65.921875 
Q 27.828125 65.921875 22.671875 59.328125 
Q 17.53125 52.734375 16.796875 39.40625 
Q 19.671875 43.65625 24.015625 45.921875 
Q 28.375 48.1875 33.59375 48.1875 
Q 44.578125 48.1875 50.953125 41.515625 
Q 57.328125 34.859375 57.328125 23.390625 
Q 57.328125 12.15625 50.6875 5.359375 
Q 44.046875 -1.421875 33.015625 -1.421875 
Q 20.359375 -1.421875 13.671875 8.265625 
Q 6.984375 17.96875 6.984375 36.375 
Q 6.984375 53.65625 15.1875 63.9375 
Q 23.390625 74.21875 37.203125 74.21875 
Q 40.921875 74.21875 44.703125 73.484375 
Q 48.484375 72.75 52.59375 71.296875 
z
" id="DejaVuSans-54"/>
      </defs>
      <g transform="translate(46.840727 202.478438)scale(0.1 -0.1)">
       <use xlink:href="#DejaVuSans-8722"/>
       <use x="83.789062" xlink:href="#DejaVuSans-48"/>
       <use x="147.412109" xlink:href="#DejaVuSans-46"/>
       <use x="179.199219" xlink:href="#DejaVuSans-54"/>
      </g>
     </g>
    </g>
    <g id="xtick_2">
     <g id="line2d_2">
      <g>
       <use style="stroke:#000000;stroke-width:0.8;" x="141.180446" xlink:href="#m45e69ada95" y="187.88"/>
      </g>
     </g>
     <g id="text_2">
      <!-- −0.4 -->
      <defs>
       <path d="M 37.796875 64.3125 
L 12.890625 25.390625 
L 37.796875 25.390625 
z
M 35.203125 72.90625 
L 47.609375 72.90625 
L 47.609375 25.390625 
L 58.015625 25.390625 
L 58.015625 17.1875 
L 47.609375 17.1875 
L 47.609375 0 
L 37.796875 0 
L 37.796875 17.1875 
L 4.890625 17.1875 
L 4.890625 26.703125 
z
" id="DejaVuSans-52"/>
      </defs>
      <g transform="translate(129.03904 202.478438)scale(0.1 -0.1)">
       <use xlink:href="#DejaVuSans-8722"/>
       <use x="83.789062" xlink:href="#DejaVuSans-48"/>
       <use x="147.412109" xlink:href="#DejaVuSans-46"/>
       <use x="179.199219" xlink:href="#DejaVuSans-52"/>
      </g>
     </g>
    </g>
    <g id="xtick_3">
     <g id="line2d_3">
      <g>
       <use style="stroke:#000000;stroke-width:0.8;" x="223.37876" xlink:href="#m45e69ada95" y="187.88"/>
      </g>
     </g>
     <g id="text_3">
      <!-- −0.2 -->
      <defs>
       <path d="M 19.1875 8.296875 
L 53.609375 8.296875 
L 53.609375 0 
L 7.328125 0 
L 7.328125 8.296875 
Q 12.9375 14.109375 22.625 23.890625 
Q 32.328125 33.6875 34.8125 36.53125 
Q 39.546875 41.84375 41.421875 45.53125 
Q 43.3125 49.21875 43.3125 52.78125 
Q 43.3125 58.59375 39.234375 62.25 
Q 35.15625 65.921875 28.609375 65.921875 
Q 23.96875 65.921875 18.8125 64.3125 
Q 13.671875 62.703125 7.8125 59.421875 
L 7.8125 69.390625 
Q 13.765625 71.78125 18.9375 73 
Q 24.125 74.21875 28.421875 74.21875 
Q 39.75 74.21875 46.484375 68.546875 
Q 53.21875 62.890625 53.21875 53.421875 
Q 53.21875 48.921875 51.53125 44.890625 
Q 49.859375 40.875 45.40625 35.40625 
Q 44.1875 33.984375 37.640625 27.21875 
Q 31.109375 20.453125 19.1875 8.296875 
z
" id="DejaVuSans-50"/>
      </defs>
      <g transform="translate(211.237354 202.478438)scale(0.1 -0.1)">
       <use xlink:href="#DejaVuSans-8722"/>
       <use x="83.789062" xlink:href="#DejaVuSans-48"/>
       <use x="147.412109" xlink:href="#DejaVuSans-46"/>
       <use x="179.199219" xlink:href="#DejaVuSans-50"/>
      </g>
     </g>
    </g>
    <g id="xtick_4">
     <g id="line2d_4">
      <g>
       <use style="stroke:#000000;stroke-width:0.8;" x="305.577073" xlink:href="#m45e69ada95" y="187.88"/>
      </g>
     </g>
     <g id="text_4">
      <!-- 0.0 -->
      <g transform="translate(297.625511 202.478438)scale(0.1 -0.1)">
       <use xlink:href="#DejaVuSans-48"/>
       <use x="63.623047" xlink:href="#DejaVuSans-46"/>
       <use x="95.410156" xlink:href="#DejaVuSans-48"/>
      </g>
     </g>
    </g>
    <g id="xtick_5">
     <g id="line2d_5">
      <g>
       <use style="stroke:#000000;stroke-width:0.8;" x="387.775387" xlink:href="#m45e69ada95" y="187.88"/>
      </g>
     </g>
     <g id="text_5">
      <!-- 0.2 -->
      <g transform="translate(379.823824 202.478438)scale(0.1 -0.1)">
       <use xlink:href="#DejaVuSans-48"/>
       <use x="63.623047" xlink:href="#DejaVuSans-46"/>
       <use x="95.410156" xlink:href="#DejaVuSans-50"/>
      </g>
     </g>
    </g>
    <g id="xtick_6">
     <g id="line2d_6">
      <g>
       <use style="stroke:#000000;stroke-width:0.8;" x="469.9737" xlink:href="#m45e69ada95" y="187.88"/>
      </g>
     </g>
     <g id="text_6">
      <!-- 0.4 -->
      <g transform="translate(462.022138 202.478438)scale(0.1 -0.1)">
       <use xlink:href="#DejaVuSans-48"/>
       <use x="63.623047" xlink:href="#DejaVuSans-46"/>
       <use x="95.410156" xlink:href="#DejaVuSans-52"/>
      </g>
     </g>
    </g>
    <g id="xtick_7">
     <g id="line2d_7">
      <g>
       <use style="stroke:#000000;stroke-width:0.8;" x="552.172014" xlink:href="#m45e69ada95" y="187.88"/>
      </g>
     </g>
     <g id="text_7">
      <!-- 0.6 -->
      <g transform="translate(544.220451 202.478438)scale(0.1 -0.1)">
       <use xlink:href="#DejaVuSans-48"/>
       <use x="63.623047" xlink:href="#DejaVuSans-46"/>
       <use x="95.410156" xlink:href="#DejaVuSans-54"/>
      </g>
     </g>
    </g>
    <g id="text_8">
     <!-- values -->
     <defs>
      <path d="M 2.984375 54.6875 
L 12.5 54.6875 
L 29.59375 8.796875 
L 46.6875 54.6875 
L 56.203125 54.6875 
L 35.6875 0 
L 23.484375 0 
z
" id="DejaVuSans-118"/>
      <path d="M 34.28125 27.484375 
Q 23.390625 27.484375 19.1875 25 
Q 14.984375 22.515625 14.984375 16.5 
Q 14.984375 11.71875 18.140625 8.90625 
Q 21.296875 6.109375 26.703125 6.109375 
Q 34.1875 6.109375 38.703125 11.40625 
Q 43.21875 16.703125 43.21875 25.484375 
L 43.21875 27.484375 
z
M 52.203125 31.203125 
L 52.203125 0 
L 43.21875 0 
L 43.21875 8.296875 
Q 40.140625 3.328125 35.546875 0.953125 
Q 30.953125 -1.421875 24.3125 -1.421875 
Q 15.921875 -1.421875 10.953125 3.296875 
Q 6 8.015625 6 15.921875 
Q 6 25.140625 12.171875 29.828125 
Q 18.359375 34.515625 30.609375 34.515625 
L 43.21875 34.515625 
L 43.21875 35.40625 
Q 43.21875 41.609375 39.140625 45 
Q 35.0625 48.390625 27.6875 48.390625 
Q 23 48.390625 18.546875 47.265625 
Q 14.109375 46.140625 10.015625 43.890625 
L 10.015625 52.203125 
Q 14.9375 54.109375 19.578125 55.046875 
Q 24.21875 56 28.609375 56 
Q 40.484375 56 46.34375 49.84375 
Q 52.203125 43.703125 52.203125 31.203125 
z
" id="DejaVuSans-97"/>
      <path d="M 9.421875 75.984375 
L 18.40625 75.984375 
L 18.40625 0 
L 9.421875 0 
z
" id="DejaVuSans-108"/>
      <path d="M 8.5 21.578125 
L 8.5 54.6875 
L 17.484375 54.6875 
L 17.484375 21.921875 
Q 17.484375 14.15625 20.5 10.265625 
Q 23.53125 6.390625 29.59375 6.390625 
Q 36.859375 6.390625 41.078125 11.03125 
Q 45.3125 15.671875 45.3125 23.6875 
L 45.3125 54.6875 
L 54.296875 54.6875 
L 54.296875 0 
L 45.3125 0 
L 45.3125 8.40625 
Q 42.046875 3.421875 37.71875 1 
Q 33.40625 -1.421875 27.6875 -1.421875 
Q 18.265625 -1.421875 13.375 4.4375 
Q 8.5 10.296875 8.5 21.578125 
z
M 31.109375 56 
z
" id="DejaVuSans-117"/>
      <path d="M 56.203125 29.59375 
L 56.203125 25.203125 
L 14.890625 25.203125 
Q 15.484375 15.921875 20.484375 11.0625 
Q 25.484375 6.203125 34.421875 6.203125 
Q 39.59375 6.203125 44.453125 7.46875 
Q 49.3125 8.734375 54.109375 11.28125 
L 54.109375 2.78125 
Q 49.265625 0.734375 44.1875 -0.34375 
Q 39.109375 -1.421875 33.890625 -1.421875 
Q 20.796875 -1.421875 13.15625 6.1875 
Q 5.515625 13.8125 5.515625 26.8125 
Q 5.515625 40.234375 12.765625 48.109375 
Q 20.015625 56 32.328125 56 
Q 43.359375 56 49.78125 48.890625 
Q 56.203125 41.796875 56.203125 29.59375 
z
M 47.21875 32.234375 
Q 47.125 39.59375 43.09375 43.984375 
Q 39.0625 48.390625 32.421875 48.390625 
Q 24.90625 48.390625 20.390625 44.140625 
Q 15.875 39.890625 15.1875 32.171875 
z
" id="DejaVuSans-101"/>
      <path d="M 44.28125 53.078125 
L 44.28125 44.578125 
Q 40.484375 46.53125 36.375 47.5 
Q 32.28125 48.484375 27.875 48.484375 
Q 21.1875 48.484375 17.84375 46.4375 
Q 14.5 44.390625 14.5 40.28125 
Q 14.5 37.15625 16.890625 35.375 
Q 19.28125 33.59375 26.515625 31.984375 
L 29.59375 31.296875 
Q 39.15625 29.25 43.1875 25.515625 
Q 47.21875 21.78125 47.21875 15.09375 
Q 47.21875 7.46875 41.1875 3.015625 
Q 35.15625 -1.421875 24.609375 -1.421875 
Q 20.21875 -1.421875 15.453125 -0.5625 
Q 10.6875 0.296875 5.421875 2 
L 5.421875 11.28125 
Q 10.40625 8.6875 15.234375 7.390625 
Q 20.0625 6.109375 24.8125 6.109375 
Q 31.15625 6.109375 34.5625 8.28125 
Q 37.984375 10.453125 37.984375 14.40625 
Q 37.984375 18.0625 35.515625 20.015625 
Q 33.0625 21.96875 24.703125 23.78125 
L 21.578125 24.515625 
Q 13.234375 26.265625 9.515625 29.90625 
Q 5.8125 33.546875 5.8125 39.890625 
Q 5.8125 47.609375 11.28125 51.796875 
Q 16.75 56 26.8125 56 
Q 31.78125 56 36.171875 55.265625 
Q 40.578125 54.546875 44.28125 53.078125 
z
" id="DejaVuSans-115"/>
     </defs>
     <g transform="translate(310.163641 216.156563)scale(0.1 -0.1)">
      <use xlink:href="#DejaVuSans-118"/>
      <use x="59.179688" xlink:href="#DejaVuSans-97"/>
      <use x="120.458984" xlink:href="#DejaVuSans-108"/>
      <use x="148.242188" xlink:href="#DejaVuSans-117"/>
      <use x="211.621094" xlink:href="#DejaVuSans-101"/>
      <use x="273.144531" xlink:href="#DejaVuSans-115"/>
     </g>
    </g>
   </g>
   <g id="matplotlib.axis_2">
    <g id="ytick_1">
     <g id="line2d_8">
      <defs>
       <path d="M 0 0 
L -3.5 0 
" id="mb958941aa9" style="stroke:#000000;stroke-width:0.8;"/>
      </defs>
      <g>
       <use style="stroke:#000000;stroke-width:0.8;" x="20.5625" xlink:href="#mb958941aa9" y="187.88"/>
      </g>
     </g>
     <g id="text_9">
      <!-- 0 -->
      <g transform="translate(7.2 191.679219)scale(0.1 -0.1)">
       <use xlink:href="#DejaVuSans-48"/>
      </g>
     </g>
    </g>
    <g id="ytick_2">
     <g id="line2d_9">
      <g>
       <use style="stroke:#000000;stroke-width:0.8;" x="20.5625" xlink:href="#mb958941aa9" y="148.775182"/>
      </g>
     </g>
     <g id="text_10">
      <!-- 1 -->
      <defs>
       <path d="M 12.40625 8.296875 
L 28.515625 8.296875 
L 28.515625 63.921875 
L 10.984375 60.40625 
L 10.984375 69.390625 
L 28.421875 72.90625 
L 38.28125 72.90625 
L 38.28125 8.296875 
L 54.390625 8.296875 
L 54.390625 0 
L 12.40625 0 
z
" id="DejaVuSans-49"/>
      </defs>
      <g transform="translate(7.2 152.574401)scale(0.1 -0.1)">
       <use xlink:href="#DejaVuSans-49"/>
      </g>
     </g>
    </g>
    <g id="ytick_3">
     <g id="line2d_10">
      <g>
       <use style="stroke:#000000;stroke-width:0.8;" x="20.5625" xlink:href="#mb958941aa9" y="109.670364"/>
      </g>
     </g>
     <g id="text_11">
      <!-- 2 -->
      <g transform="translate(7.2 113.469583)scale(0.1 -0.1)">
       <use xlink:href="#DejaVuSans-50"/>
      </g>
     </g>
    </g>
    <g id="ytick_4">
     <g id="line2d_11">
      <g>
       <use style="stroke:#000000;stroke-width:0.8;" x="20.5625" xlink:href="#mb958941aa9" y="70.565546"/>
      </g>
     </g>
     <g id="text_12">
      <!-- 3 -->
      <defs>
       <path d="M 40.578125 39.3125 
Q 47.65625 37.796875 51.625 33 
Q 55.609375 28.21875 55.609375 21.1875 
Q 55.609375 10.40625 48.1875 4.484375 
Q 40.765625 -1.421875 27.09375 -1.421875 
Q 22.515625 -1.421875 17.65625 -0.515625 
Q 12.796875 0.390625 7.625 2.203125 
L 7.625 11.71875 
Q 11.71875 9.328125 16.59375 8.109375 
Q 21.484375 6.890625 26.8125 6.890625 
Q 36.078125 6.890625 40.9375 10.546875 
Q 45.796875 14.203125 45.796875 21.1875 
Q 45.796875 27.640625 41.28125 31.265625 
Q 36.765625 34.90625 28.71875 34.90625 
L 20.21875 34.90625 
L 20.21875 43.015625 
L 29.109375 43.015625 
Q 36.375 43.015625 40.234375 45.921875 
Q 44.09375 48.828125 44.09375 54.296875 
Q 44.09375 59.90625 40.109375 62.90625 
Q 36.140625 65.921875 28.71875 65.921875 
Q 24.65625 65.921875 20.015625 65.03125 
Q 15.375 64.15625 9.8125 62.3125 
L 9.8125 71.09375 
Q 15.4375 72.65625 20.34375 73.4375 
Q 25.25 74.21875 29.59375 74.21875 
Q 40.828125 74.21875 47.359375 69.109375 
Q 53.90625 64.015625 53.90625 55.328125 
Q 53.90625 49.265625 50.4375 45.09375 
Q 46.96875 40.921875 40.578125 39.3125 
z
" id="DejaVuSans-51"/>
      </defs>
      <g transform="translate(7.2 74.364764)scale(0.1 -0.1)">
       <use xlink:href="#DejaVuSans-51"/>
      </g>
     </g>
    </g>
    <g id="ytick_5">
     <g id="line2d_12">
      <g>
       <use style="stroke:#000000;stroke-width:0.8;" x="20.5625" xlink:href="#mb958941aa9" y="31.460728"/>
      </g>
     </g>
     <g id="text_13">
      <!-- 4 -->
      <g transform="translate(7.2 35.259946)scale(0.1 -0.1)">
       <use xlink:href="#DejaVuSans-52"/>
      </g>
     </g>
    </g>
   </g>
   <g id="LineCollection_1">
    <path clip-path="url(#pfc262e812c)" d="M 305.577074 187.88 
L 305.577074 179.71 
" style="fill:none;stroke:#1f77b4;"/>
    <path clip-path="url(#pfc262e812c)" d="M 305.577072 187.88 
L 305.577072 179.71 
" style="fill:none;stroke:#1f77b4;"/>
    <path clip-path="url(#pfc262e812c)" d="M 305.577077 187.88 
L 305.577077 179.71 
" style="fill:none;stroke:#1f77b4;"/>
    <path clip-path="url(#pfc262e812c)" d="M 305.577065 187.88 
L 305.577065 179.71 
" style="fill:none;stroke:#1f77b4;"/>
    <path clip-path="url(#pfc262e812c)" d="M 305.577093 187.88 
L 305.577093 179.71 
" style="fill:none;stroke:#1f77b4;"/>
    <path clip-path="url(#pfc262e812c)" d="M 305.577033 187.88 
L 305.577033 179.71 
" style="fill:none;stroke:#1f77b4;"/>
    <path clip-path="url(#pfc262e812c)" d="M 305.57715 187.88 
L 305.57715 179.71 
" style="fill:none;stroke:#1f77b4;"/>
    <path clip-path="url(#pfc262e812c)" d="M 305.576948 187.88 
L 305.576948 179.71 
" style="fill:none;stroke:#1f77b4;"/>
    <path clip-path="url(#pfc262e812c)" d="M 305.577196 187.88 
L 305.577196 179.71 
" style="fill:none;stroke:#1f77b4;"/>
    <path clip-path="url(#pfc262e812c)" d="M 305.577299 187.88 
L 305.577299 179.71 
" style="fill:none;stroke:#1f77b4;"/>
    <path clip-path="url(#pfc262e812c)" d="M 305.574828 187.88 
L 305.574828 179.71 
" style="fill:none;stroke:#1f77b4;"/>
    <path clip-path="url(#pfc262e812c)" d="M 305.586534 187.88 
L 305.586534 179.71 
" style="fill:none;stroke:#1f77b4;"/>
    <path clip-path="url(#pfc262e812c)" d="M 305.555256 187.88 
L 305.555256 179.71 
" style="fill:none;stroke:#1f77b4;"/>
    <path clip-path="url(#pfc262e812c)" d="M 304.785527 187.88 
L 304.785527 179.71 
" style="fill:none;stroke:#1f77b4;"/>
    <path clip-path="url(#pfc262e812c)" d="M 294.613489 187.88 
L 294.613489 179.71 
" style="fill:none;stroke:#1f77b4;"/>
    <path clip-path="url(#pfc262e812c)" d="M 270.967262 187.88 
L 270.967262 179.71 
" style="fill:none;stroke:#1f77b4;"/>
    <path clip-path="url(#pfc262e812c)" d="M 248.76432 187.88 
L 248.76432 179.71 
" style="fill:none;stroke:#1f77b4;"/>
    <path clip-path="url(#pfc262e812c)" d="M 236.879713 187.88 
L 236.879713 179.71 
" style="fill:none;stroke:#1f77b4;"/>
    <path clip-path="url(#pfc262e812c)" d="M 228.791883 187.88 
L 228.791883 179.71 
" style="fill:none;stroke:#1f77b4;"/>
    <path clip-path="url(#pfc262e812c)" d="M 218.181839 187.88 
L 218.181839 179.71 
" style="fill:none;stroke:#1f77b4;"/>
    <path clip-path="url(#pfc262e812c)" d="M 221.210529 187.88 
L 221.210529 179.71 
" style="fill:none;stroke:#1f77b4;"/>
    <path clip-path="url(#pfc262e812c)" d="M 249.122151 187.88 
L 249.122151 179.71 
" style="fill:none;stroke:#1f77b4;"/>
    <path clip-path="url(#pfc262e812c)" d="M 277.705689 187.88 
L 277.705689 179.71 
" style="fill:none;stroke:#1f77b4;"/>
    <path clip-path="url(#pfc262e812c)" d="M 288.846237 187.88 
L 288.846237 179.71 
" style="fill:none;stroke:#1f77b4;"/>
    <path clip-path="url(#pfc262e812c)" d="M 292.337148 187.88 
L 292.337148 179.71 
" style="fill:none;stroke:#1f77b4;"/>
    <path clip-path="url(#pfc262e812c)" d="M 298.94083 187.88 
L 298.94083 179.71 
" style="fill:none;stroke:#1f77b4;"/>
    <path clip-path="url(#pfc262e812c)" d="M 302.629632 187.88 
L 302.629632 179.71 
" style="fill:none;stroke:#1f77b4;"/>
    <path clip-path="url(#pfc262e812c)" d="M 310.671447 187.88 
L 310.671447 179.71 
" style="fill:none;stroke:#1f77b4;"/>
    <path clip-path="url(#pfc262e812c)" d="M 331.627842 187.88 
L 331.627842 179.71 
" style="fill:none;stroke:#1f77b4;"/>
    <path clip-path="url(#pfc262e812c)" d="M 353.194923 187.88 
L 353.194923 179.71 
" style="fill:none;stroke:#1f77b4;"/>
    <path clip-path="url(#pfc262e812c)" d="M 363.733331 187.88 
L 363.733331 179.71 
" style="fill:none;stroke:#1f77b4;"/>
    <path clip-path="url(#pfc262e812c)" d="M 361.900315 187.88 
L 361.900315 179.71 
" style="fill:none;stroke:#1f77b4;"/>
    <path clip-path="url(#pfc262e812c)" d="M 352.401095 187.88 
L 352.401095 179.71 
" style="fill:none;stroke:#1f77b4;"/>
    <path clip-path="url(#pfc262e812c)" d="M 340.447807 187.88 
L 340.447807 179.71 
" style="fill:none;stroke:#1f77b4;"/>
    <path clip-path="url(#pfc262e812c)" d="M 329.310117 187.88 
L 329.310117 179.71 
" style="fill:none;stroke:#1f77b4;"/>
    <path clip-path="url(#pfc262e812c)" d="M 320.29329 187.88 
L 320.29329 179.71 
" style="fill:none;stroke:#1f77b4;"/>
    <path clip-path="url(#pfc262e812c)" d="M 313.525244 187.88 
L 313.525244 179.71 
" style="fill:none;stroke:#1f77b4;"/>
    <path clip-path="url(#pfc262e812c)" d="M 308.674853 187.88 
L 308.674853 179.71 
" style="fill:none;stroke:#1f77b4;"/>
    <path clip-path="url(#pfc262e812c)" d="M 305.344753 187.88 
L 305.344753 179.71 
" style="fill:none;stroke:#1f77b4;"/>
    <path clip-path="url(#pfc262e812c)" d="M 303.204378 187.88 
L 303.204378 179.71 
" style="fill:none;stroke:#1f77b4;"/>
    <path clip-path="url(#pfc262e812c)" d="M 301.99437 187.88 
L 301.99437 179.71 
" style="fill:none;stroke:#1f77b4;"/>
    <path clip-path="url(#pfc262e812c)" d="M 301.494801 187.88 
L 301.494801 179.71 
" style="fill:none;stroke:#1f77b4;"/>
    <path clip-path="url(#pfc262e812c)" d="M 301.509333 187.88 
L 301.509333 179.71 
" style="fill:none;stroke:#1f77b4;"/>
    <path clip-path="url(#pfc262e812c)" d="M 301.856867 187.88 
L 301.856867 179.71 
" style="fill:none;stroke:#1f77b4;"/>
    <path clip-path="url(#pfc262e812c)" d="M 302.378778 187.88 
L 302.378778 179.71 
" style="fill:none;stroke:#1f77b4;"/>
    <path clip-path="url(#pfc262e812c)" d="M 302.963064 187.88 
L 302.963064 179.71 
" style="fill:none;stroke:#1f77b4;"/>
    <path clip-path="url(#pfc262e812c)" d="M 303.722173 187.88 
L 303.722173 179.71 
" style="fill:none;stroke:#1f77b4;"/>
    <path clip-path="url(#pfc262e812c)" d="M 305.52639 187.88 
L 305.52639 179.71 
" style="fill:none;stroke:#1f77b4;"/>
    <path clip-path="url(#pfc262e812c)" d="M 301.935041 187.88 
L 301.935041 179.71 
" style="fill:none;stroke:#1f77b4;"/>
    <path clip-path="url(#pfc262e812c)" d="M 288.338538 187.88 
L 288.338538 179.71 
" style="fill:none;stroke:#1f77b4;"/>
    <path clip-path="url(#pfc262e812c)" d="M 271.499969 187.88 
L 271.499969 179.71 
" style="fill:none;stroke:#1f77b4;"/>
    <path clip-path="url(#pfc262e812c)" d="M 250.800202 187.88 
L 250.800202 179.71 
" style="fill:none;stroke:#1f77b4;"/>
    <path clip-path="url(#pfc262e812c)" d="M 226.121639 187.88 
L 226.121639 179.71 
" style="fill:none;stroke:#1f77b4;"/>
    <path clip-path="url(#pfc262e812c)" d="M 212.808015 187.88 
L 212.808015 179.71 
" style="fill:none;stroke:#1f77b4;"/>
    <path clip-path="url(#pfc262e812c)" d="M 221.573882 187.88 
L 221.573882 179.71 
" style="fill:none;stroke:#1f77b4;"/>
    <path clip-path="url(#pfc262e812c)" d="M 244.088651 187.88 
L 244.088651 179.71 
" style="fill:none;stroke:#1f77b4;"/>
    <path clip-path="url(#pfc262e812c)" d="M 257.492867 187.88 
L 257.492867 179.71 
" style="fill:none;stroke:#1f77b4;"/>
    <path clip-path="url(#pfc262e812c)" d="M 241.953437 187.88 
L 241.953437 179.71 
" style="fill:none;stroke:#1f77b4;"/>
    <path clip-path="url(#pfc262e812c)" d="M 210.981334 187.88 
L 210.981334 179.71 
" style="fill:none;stroke:#1f77b4;"/>
    <path clip-path="url(#pfc262e812c)" d="M 187.448039 187.88 
L 187.448039 179.71 
" style="fill:none;stroke:#1f77b4;"/>
    <path clip-path="url(#pfc262e812c)" d="M 168.981013 187.88 
L 168.981013 179.71 
" style="fill:none;stroke:#1f77b4;"/>
    <path clip-path="url(#pfc262e812c)" d="M 150.846639 187.88 
L 150.846639 179.71 
" style="fill:none;stroke:#1f77b4;"/>
    <path clip-path="url(#pfc262e812c)" d="M 142.578565 187.88 
L 142.578565 179.71 
" style="fill:none;stroke:#1f77b4;"/>
    <path clip-path="url(#pfc262e812c)" d="M 156.090313 187.88 
L 156.090313 179.71 
" style="fill:none;stroke:#1f77b4;"/>
    <path clip-path="url(#pfc262e812c)" d="M 197.421717 187.88 
L 197.421717 179.71 
" style="fill:none;stroke:#1f77b4;"/>
    <path clip-path="url(#pfc262e812c)" d="M 253.758194 187.88 
L 253.758194 179.71 
" style="fill:none;stroke:#1f77b4;"/>
    <path clip-path="url(#pfc262e812c)" d="M 296.241884 187.88 
L 296.241884 179.71 
" style="fill:none;stroke:#1f77b4;"/>
    <path clip-path="url(#pfc262e812c)" d="M 312.485993 187.88 
L 312.485993 179.71 
" style="fill:none;stroke:#1f77b4;"/>
    <path clip-path="url(#pfc262e812c)" d="M 322.495209 187.88 
L 322.495209 179.71 
" style="fill:none;stroke:#1f77b4;"/>
    <path clip-path="url(#pfc262e812c)" d="M 343.946187 187.88 
L 343.946187 179.71 
" style="fill:none;stroke:#1f77b4;"/>
    <path clip-path="url(#pfc262e812c)" d="M 367.190661 187.88 
L 367.190661 179.71 
" style="fill:none;stroke:#1f77b4;"/>
    <path clip-path="url(#pfc262e812c)" d="M 384.647192 187.88 
L 384.647192 179.71 
" style="fill:none;stroke:#1f77b4;"/>
    <path clip-path="url(#pfc262e812c)" d="M 401.7162 187.88 
L 401.7162 179.71 
" style="fill:none;stroke:#1f77b4;"/>
    <path clip-path="url(#pfc262e812c)" d="M 415.450187 187.88 
L 415.450187 179.71 
" style="fill:none;stroke:#1f77b4;"/>
    <path clip-path="url(#pfc262e812c)" d="M 414.483486 187.88 
L 414.483486 179.71 
" style="fill:none;stroke:#1f77b4;"/>
    <path clip-path="url(#pfc262e812c)" d="M 395.499484 187.88 
L 395.499484 179.71 
" style="fill:none;stroke:#1f77b4;"/>
    <path clip-path="url(#pfc262e812c)" d="M 366.235412 187.88 
L 366.235412 179.71 
" style="fill:none;stroke:#1f77b4;"/>
    <path clip-path="url(#pfc262e812c)" d="M 336.384896 187.88 
L 336.384896 179.71 
" style="fill:none;stroke:#1f77b4;"/>
    <path clip-path="url(#pfc262e812c)" d="M 312.054158 187.88 
L 312.054158 179.71 
" style="fill:none;stroke:#1f77b4;"/>
    <path clip-path="url(#pfc262e812c)" d="M 292.952061 187.88 
L 292.952061 179.71 
" style="fill:none;stroke:#1f77b4;"/>
    <path clip-path="url(#pfc262e812c)" d="M 278.912177 187.88 
L 278.912177 179.71 
" style="fill:none;stroke:#1f77b4;"/>
    <path clip-path="url(#pfc262e812c)" d="M 271.924291 187.88 
L 271.924291 179.71 
" style="fill:none;stroke:#1f77b4;"/>
    <path clip-path="url(#pfc262e812c)" d="M 273.180787 187.88 
L 273.180787 179.71 
" style="fill:none;stroke:#1f77b4;"/>
    <path clip-path="url(#pfc262e812c)" d="M 286.281348 187.88 
L 286.281348 179.71 
" style="fill:none;stroke:#1f77b4;"/>
    <path clip-path="url(#pfc262e812c)" d="M 305.62505 187.88 
L 305.62505 179.71 
" style="fill:none;stroke:#1f77b4;"/>
    <path clip-path="url(#pfc262e812c)" d="M 319.551649 187.88 
L 319.551649 179.71 
" style="fill:none;stroke:#1f77b4;"/>
    <path clip-path="url(#pfc262e812c)" d="M 324.907049 187.88 
L 324.907049 179.71 
" style="fill:none;stroke:#1f77b4;"/>
    <path clip-path="url(#pfc262e812c)" d="M 322.018167 187.88 
L 322.018167 179.71 
" style="fill:none;stroke:#1f77b4;"/>
    <path clip-path="url(#pfc262e812c)" d="M 309.909021 187.88 
L 309.909021 179.71 
" style="fill:none;stroke:#1f77b4;"/>
    <path clip-path="url(#pfc262e812c)" d="M 291.207049 187.88 
L 291.207049 179.71 
" style="fill:none;stroke:#1f77b4;"/>
    <path clip-path="url(#pfc262e812c)" d="M 272.746776 187.88 
L 272.746776 179.71 
" style="fill:none;stroke:#1f77b4;"/>
    <path clip-path="url(#pfc262e812c)" d="M 260.029253 187.88 
L 260.029253 179.71 
" style="fill:none;stroke:#1f77b4;"/>
    <path clip-path="url(#pfc262e812c)" d="M 259.180346 187.88 
L 259.180346 179.71 
" style="fill:none;stroke:#1f77b4;"/>
    <path clip-path="url(#pfc262e812c)" d="M 271.215116 187.88 
L 271.215116 179.71 
" style="fill:none;stroke:#1f77b4;"/>
    <path clip-path="url(#pfc262e812c)" d="M 275.883872 187.88 
L 275.883872 179.71 
" style="fill:none;stroke:#1f77b4;"/>
    <path clip-path="url(#pfc262e812c)" d="M 253.242342 187.88 
L 253.242342 179.71 
" style="fill:none;stroke:#1f77b4;"/>
    <path clip-path="url(#pfc262e812c)" d="M 212.509887 187.88 
L 212.509887 179.71 
" style="fill:none;stroke:#1f77b4;"/>
    <path clip-path="url(#pfc262e812c)" d="M 175.81583 187.88 
L 175.81583 179.71 
" style="fill:none;stroke:#1f77b4;"/>
    <path clip-path="url(#pfc262e812c)" d="M 157.874657 187.88 
L 157.874657 179.71 
" style="fill:none;stroke:#1f77b4;"/>
    <path clip-path="url(#pfc262e812c)" d="M 165.186202 187.88 
L 165.186202 179.71 
" style="fill:none;stroke:#1f77b4;"/>
    <path clip-path="url(#pfc262e812c)" d="M 190.381295 187.88 
L 190.381295 179.71 
" style="fill:none;stroke:#1f77b4;"/>
    <path clip-path="url(#pfc262e812c)" d="M 216.591476 187.88 
L 216.591476 179.71 
" style="fill:none;stroke:#1f77b4;"/>
    <path clip-path="url(#pfc262e812c)" d="M 234.685077 187.88 
L 234.685077 179.71 
" style="fill:none;stroke:#1f77b4;"/>
    <path clip-path="url(#pfc262e812c)" d="M 247.450211 187.88 
L 247.450211 179.71 
" style="fill:none;stroke:#1f77b4;"/>
    <path clip-path="url(#pfc262e812c)" d="M 258.855018 187.88 
L 258.855018 179.71 
" style="fill:none;stroke:#1f77b4;"/>
    <path clip-path="url(#pfc262e812c)" d="M 270.570897 187.88 
L 270.570897 179.71 
" style="fill:none;stroke:#1f77b4;"/>
    <path clip-path="url(#pfc262e812c)" d="M 282.922404 187.88 
L 282.922404 179.71 
" style="fill:none;stroke:#1f77b4;"/>
    <path clip-path="url(#pfc262e812c)" d="M 294.546645 187.88 
L 294.546645 179.71 
" style="fill:none;stroke:#1f77b4;"/>
    <path clip-path="url(#pfc262e812c)" d="M 303.968725 187.88 
L 303.968725 179.71 
" style="fill:none;stroke:#1f77b4;"/>
    <path clip-path="url(#pfc262e812c)" d="M 310.535621 187.88 
L 310.535621 179.71 
" style="fill:none;stroke:#1f77b4;"/>
    <path clip-path="url(#pfc262e812c)" d="M 314.421833 187.88 
L 314.421833 179.71 
" style="fill:none;stroke:#1f77b4;"/>
    <path clip-path="url(#pfc262e812c)" d="M 316.20276 187.88 
L 316.20276 179.71 
" style="fill:none;stroke:#1f77b4;"/>
    <path clip-path="url(#pfc262e812c)" d="M 316.525095 187.88 
L 316.525095 179.71 
" style="fill:none;stroke:#1f77b4;"/>
    <path clip-path="url(#pfc262e812c)" d="M 315.949046 187.88 
L 315.949046 179.71 
" style="fill:none;stroke:#1f77b4;"/>
    <path clip-path="url(#pfc262e812c)" d="M 314.857759 187.88 
L 314.857759 179.71 
" style="fill:none;stroke:#1f77b4;"/>
    <path clip-path="url(#pfc262e812c)" d="M 313.533313 187.88 
L 313.533313 179.71 
" style="fill:none;stroke:#1f77b4;"/>
    <path clip-path="url(#pfc262e812c)" d="M 312.166114 187.88 
L 312.166114 179.71 
" style="fill:none;stroke:#1f77b4;"/>
    <path clip-path="url(#pfc262e812c)" d="M 310.860787 187.88 
L 310.860787 179.71 
" style="fill:none;stroke:#1f77b4;"/>
    <path clip-path="url(#pfc262e812c)" d="M 309.687771 187.88 
L 309.687771 179.71 
" style="fill:none;stroke:#1f77b4;"/>
    <path clip-path="url(#pfc262e812c)" d="M 308.688025 187.88 
L 308.688025 179.71 
" style="fill:none;stroke:#1f77b4;"/>
    <path clip-path="url(#pfc262e812c)" d="M 307.866923 187.88 
L 307.866923 179.71 
" style="fill:none;stroke:#1f77b4;"/>
    <path clip-path="url(#pfc262e812c)" d="M 307.230476 187.88 
L 307.230476 179.71 
" style="fill:none;stroke:#1f77b4;"/>
    <path clip-path="url(#pfc262e812c)" d="M 307.012444 187.88 
L 307.012444 179.71 
" style="fill:none;stroke:#1f77b4;"/>
    <path clip-path="url(#pfc262e812c)" d="M 310.402787 187.88 
L 310.402787 179.71 
" style="fill:none;stroke:#1f77b4;"/>
    <path clip-path="url(#pfc262e812c)" d="M 316.911409 187.88 
L 316.911409 179.71 
" style="fill:none;stroke:#1f77b4;"/>
    <path clip-path="url(#pfc262e812c)" d="M 318.768531 187.88 
L 318.768531 179.71 
" style="fill:none;stroke:#1f77b4;"/>
    <path clip-path="url(#pfc262e812c)" d="M 317.333439 187.88 
L 317.333439 179.71 
" style="fill:none;stroke:#1f77b4;"/>
    <path clip-path="url(#pfc262e812c)" d="M 326.466511 187.88 
L 326.466511 179.71 
" style="fill:none;stroke:#1f77b4;"/>
    <path clip-path="url(#pfc262e812c)" d="M 341.843448 187.88 
L 341.843448 179.71 
" style="fill:none;stroke:#1f77b4;"/>
    <path clip-path="url(#pfc262e812c)" d="M 349.605487 187.88 
L 349.605487 179.71 
" style="fill:none;stroke:#1f77b4;"/>
    <path clip-path="url(#pfc262e812c)" d="M 358.385698 187.88 
L 358.385698 179.71 
" style="fill:none;stroke:#1f77b4;"/>
    <path clip-path="url(#pfc262e812c)" d="M 368.828545 187.88 
L 368.828545 179.71 
" style="fill:none;stroke:#1f77b4;"/>
    <path clip-path="url(#pfc262e812c)" d="M 381.946882 187.88 
L 381.946882 179.71 
" style="fill:none;stroke:#1f77b4;"/>
    <path clip-path="url(#pfc262e812c)" d="M 406.529439 187.88 
L 406.529439 179.71 
" style="fill:none;stroke:#1f77b4;"/>
    <path clip-path="url(#pfc262e812c)" d="M 441.126015 187.88 
L 441.126015 179.71 
" style="fill:none;stroke:#1f77b4;"/>
    <path clip-path="url(#pfc262e812c)" d="M 487.254581 187.88 
L 487.254581 179.71 
" style="fill:none;stroke:#1f77b4;"/>
    <path clip-path="url(#pfc262e812c)" d="M 534.661166 187.88 
L 534.661166 179.71 
" style="fill:none;stroke:#1f77b4;"/>
    <path clip-path="url(#pfc262e812c)" d="M 563.462746 187.88 
L 563.462746 179.71 
" style="fill:none;stroke:#1f77b4;"/>
    <path clip-path="url(#pfc262e812c)" d="M 560.98123 187.88 
L 560.98123 179.71 
" style="fill:none;stroke:#1f77b4;"/>
    <path clip-path="url(#pfc262e812c)" d="M 531.640982 187.88 
L 531.640982 179.71 
" style="fill:none;stroke:#1f77b4;"/>
    <path clip-path="url(#pfc262e812c)" d="M 488.44258 187.88 
L 488.44258 179.71 
" style="fill:none;stroke:#1f77b4;"/>
    <path clip-path="url(#pfc262e812c)" d="M 441.804393 187.88 
L 441.804393 179.71 
" style="fill:none;stroke:#1f77b4;"/>
    <path clip-path="url(#pfc262e812c)" d="M 396.172392 187.88 
L 396.172392 179.71 
" style="fill:none;stroke:#1f77b4;"/>
    <path clip-path="url(#pfc262e812c)" d="M 350.572754 187.88 
L 350.572754 179.71 
" style="fill:none;stroke:#1f77b4;"/>
    <path clip-path="url(#pfc262e812c)" d="M 306.698257 187.88 
L 306.698257 179.71 
" style="fill:none;stroke:#1f77b4;"/>
    <path clip-path="url(#pfc262e812c)" d="M 263.935737 187.88 
L 263.935737 179.71 
" style="fill:none;stroke:#1f77b4;"/>
    <path clip-path="url(#pfc262e812c)" d="M 222.144026 187.88 
L 222.144026 179.71 
" style="fill:none;stroke:#1f77b4;"/>
    <path clip-path="url(#pfc262e812c)" d="M 191.489111 187.88 
L 191.489111 179.71 
" style="fill:none;stroke:#1f77b4;"/>
    <path clip-path="url(#pfc262e812c)" d="M 183.532186 187.88 
L 183.532186 179.71 
" style="fill:none;stroke:#1f77b4;"/>
    <path clip-path="url(#pfc262e812c)" d="M 189.781763 187.88 
L 189.781763 179.71 
" style="fill:none;stroke:#1f77b4;"/>
    <path clip-path="url(#pfc262e812c)" d="M 187.693895 187.88 
L 187.693895 179.71 
" style="fill:none;stroke:#1f77b4;"/>
    <path clip-path="url(#pfc262e812c)" d="M 172.191976 187.88 
L 172.191976 179.71 
" style="fill:none;stroke:#1f77b4;"/>
    <path clip-path="url(#pfc262e812c)" d="M 153.506984 187.88 
L 153.506984 179.71 
" style="fill:none;stroke:#1f77b4;"/>
    <path clip-path="url(#pfc262e812c)" d="M 139.644156 187.88 
L 139.644156 179.71 
" style="fill:none;stroke:#1f77b4;"/>
    <path clip-path="url(#pfc262e812c)" d="M 125.529152 187.88 
L 125.529152 179.71 
" style="fill:none;stroke:#1f77b4;"/>
    <path clip-path="url(#pfc262e812c)" d="M 110.664173 187.88 
L 110.664173 179.71 
" style="fill:none;stroke:#1f77b4;"/>
    <path clip-path="url(#pfc262e812c)" d="M 94.952807 187.88 
L 94.952807 179.71 
" style="fill:none;stroke:#1f77b4;"/>
    <path clip-path="url(#pfc262e812c)" d="M 89.389536 187.88 
L 89.389536 179.71 
" style="fill:none;stroke:#1f77b4;"/>
    <path clip-path="url(#pfc262e812c)" d="M 118.770278 187.88 
L 118.770278 179.71 
" style="fill:none;stroke:#1f77b4;"/>
    <path clip-path="url(#pfc262e812c)" d="M 181.56533 187.88 
L 181.56533 179.71 
" style="fill:none;stroke:#1f77b4;"/>
    <path clip-path="url(#pfc262e812c)" d="M 239.846927 187.88 
L 239.846927 179.71 
" style="fill:none;stroke:#1f77b4;"/>
    <path clip-path="url(#pfc262e812c)" d="M 269.403212 187.88 
L 269.403212 179.71 
" style="fill:none;stroke:#1f77b4;"/>
    <path clip-path="url(#pfc262e812c)" d="M 273.901039 187.88 
L 273.901039 179.71 
" style="fill:none;stroke:#1f77b4;"/>
    <path clip-path="url(#pfc262e812c)" d="M 272.172585 187.88 
L 272.172585 179.71 
" style="fill:none;stroke:#1f77b4;"/>
    <path clip-path="url(#pfc262e812c)" d="M 281.018498 187.88 
L 281.018498 179.71 
" style="fill:none;stroke:#1f77b4;"/>
    <path clip-path="url(#pfc262e812c)" d="M 291.280703 187.88 
L 291.280703 179.71 
" style="fill:none;stroke:#1f77b4;"/>
    <path clip-path="url(#pfc262e812c)" d="M 288.810888 187.88 
L 288.810888 179.71 
" style="fill:none;stroke:#1f77b4;"/>
    <path clip-path="url(#pfc262e812c)" d="M 277.057151 187.88 
L 277.057151 179.71 
" style="fill:none;stroke:#1f77b4;"/>
    <path clip-path="url(#pfc262e812c)" d="M 270.356832 187.88 
L 270.356832 179.71 
" style="fill:none;stroke:#1f77b4;"/>
    <path clip-path="url(#pfc262e812c)" d="M 277.215391 187.88 
L 277.215391 179.71 
" style="fill:none;stroke:#1f77b4;"/>
    <path clip-path="url(#pfc262e812c)" d="M 286.777778 187.88 
L 286.777778 179.71 
" style="fill:none;stroke:#1f77b4;"/>
    <path clip-path="url(#pfc262e812c)" d="M 302.379539 187.88 
L 302.379539 179.71 
" style="fill:none;stroke:#1f77b4;"/>
    <path clip-path="url(#pfc262e812c)" d="M 332.230871 187.88 
L 332.230871 179.71 
" style="fill:none;stroke:#1f77b4;"/>
    <path clip-path="url(#pfc262e812c)" d="M 369.92378 187.88 
L 369.92378 179.71 
" style="fill:none;stroke:#1f77b4;"/>
    <path clip-path="url(#pfc262e812c)" d="M 396.704614 187.88 
L 396.704614 179.71 
" style="fill:none;stroke:#1f77b4;"/>
    <path clip-path="url(#pfc262e812c)" d="M 395.530655 187.88 
L 395.530655 179.71 
" style="fill:none;stroke:#1f77b4;"/>
    <path clip-path="url(#pfc262e812c)" d="M 372.709478 187.88 
L 372.709478 179.71 
" style="fill:none;stroke:#1f77b4;"/>
    <path clip-path="url(#pfc262e812c)" d="M 345.239985 187.88 
L 345.239985 179.71 
" style="fill:none;stroke:#1f77b4;"/>
    <path clip-path="url(#pfc262e812c)" d="M 323.84761 187.88 
L 323.84761 179.71 
" style="fill:none;stroke:#1f77b4;"/>
    <path clip-path="url(#pfc262e812c)" d="M 310.663435 187.88 
L 310.663435 179.71 
" style="fill:none;stroke:#1f77b4;"/>
    <path clip-path="url(#pfc262e812c)" d="M 307.362705 187.88 
L 307.362705 179.71 
" style="fill:none;stroke:#1f77b4;"/>
    <path clip-path="url(#pfc262e812c)" d="M 316.080764 187.88 
L 316.080764 179.71 
" style="fill:none;stroke:#1f77b4;"/>
    <path clip-path="url(#pfc262e812c)" d="M 326.048023 187.88 
L 326.048023 179.71 
" style="fill:none;stroke:#1f77b4;"/>
    <path clip-path="url(#pfc262e812c)" d="M 320.381176 187.88 
L 320.381176 179.71 
" style="fill:none;stroke:#1f77b4;"/>
    <path clip-path="url(#pfc262e812c)" d="M 305.424831 187.88 
L 305.424831 179.71 
" style="fill:none;stroke:#1f77b4;"/>
    <path clip-path="url(#pfc262e812c)" d="M 310.713733 187.88 
L 310.713733 179.71 
" style="fill:none;stroke:#1f77b4;"/>
    <path clip-path="url(#pfc262e812c)" d="M 342.223352 187.88 
L 342.223352 179.71 
" style="fill:none;stroke:#1f77b4;"/>
    <path clip-path="url(#pfc262e812c)" d="M 372.554432 187.88 
L 372.554432 179.71 
" style="fill:none;stroke:#1f77b4;"/>
    <path clip-path="url(#pfc262e812c)" d="M 380.769586 187.88 
L 380.769586 179.71 
" style="fill:none;stroke:#1f77b4;"/>
    <path clip-path="url(#pfc262e812c)" d="M 365.310961 187.88 
L 365.310961 179.71 
" style="fill:none;stroke:#1f77b4;"/>
    <path clip-path="url(#pfc262e812c)" d="M 332.84531 187.88 
L 332.84531 179.71 
" style="fill:none;stroke:#1f77b4;"/>
    <path clip-path="url(#pfc262e812c)" d="M 289.567525 187.88 
L 289.567525 179.71 
" style="fill:none;stroke:#1f77b4;"/>
    <path clip-path="url(#pfc262e812c)" d="M 251.216459 187.88 
L 251.216459 179.71 
" style="fill:none;stroke:#1f77b4;"/>
    <path clip-path="url(#pfc262e812c)" d="M 236.549972 187.88 
L 236.549972 179.71 
" style="fill:none;stroke:#1f77b4;"/>
    <path clip-path="url(#pfc262e812c)" d="M 244.40043 187.88 
L 244.40043 179.71 
" style="fill:none;stroke:#1f77b4;"/>
    <path clip-path="url(#pfc262e812c)" d="M 261.409636 187.88 
L 261.409636 179.71 
" style="fill:none;stroke:#1f77b4;"/>
    <path clip-path="url(#pfc262e812c)" d="M 277.633911 187.88 
L 277.633911 179.71 
" style="fill:none;stroke:#1f77b4;"/>
    <path clip-path="url(#pfc262e812c)" d="M 288.407944 187.88 
L 288.407944 179.71 
" style="fill:none;stroke:#1f77b4;"/>
    <path clip-path="url(#pfc262e812c)" d="M 296.137339 187.88 
L 296.137339 179.71 
" style="fill:none;stroke:#1f77b4;"/>
    <path clip-path="url(#pfc262e812c)" d="M 311.258448 187.88 
L 311.258448 179.71 
" style="fill:none;stroke:#1f77b4;"/>
    <path clip-path="url(#pfc262e812c)" d="M 332.955591 187.88 
L 332.955591 179.71 
" style="fill:none;stroke:#1f77b4;"/>
    <path clip-path="url(#pfc262e812c)" d="M 361.221261 187.88 
L 361.221261 179.71 
" style="fill:none;stroke:#1f77b4;"/>
    <path clip-path="url(#pfc262e812c)" d="M 397.843254 187.88 
L 397.843254 179.71 
" style="fill:none;stroke:#1f77b4;"/>
    <path clip-path="url(#pfc262e812c)" d="M 440.287379 187.88 
L 440.287379 179.71 
" style="fill:none;stroke:#1f77b4;"/>
    <path clip-path="url(#pfc262e812c)" d="M 475.95112 187.88 
L 475.95112 179.71 
" style="fill:none;stroke:#1f77b4;"/>
    <path clip-path="url(#pfc262e812c)" d="M 486.428798 187.88 
L 486.428798 179.71 
" style="fill:none;stroke:#1f77b4;"/>
    <path clip-path="url(#pfc262e812c)" d="M 483.633641 187.88 
L 483.633641 179.71 
" style="fill:none;stroke:#1f77b4;"/>
    <path clip-path="url(#pfc262e812c)" d="M 492.959813 187.88 
L 492.959813 179.71 
" style="fill:none;stroke:#1f77b4;"/>
    <path clip-path="url(#pfc262e812c)" d="M 508.999397 187.88 
L 508.999397 179.71 
" style="fill:none;stroke:#1f77b4;"/>
    <path clip-path="url(#pfc262e812c)" d="M 509.193105 187.88 
L 509.193105 179.71 
" style="fill:none;stroke:#1f77b4;"/>
    <path clip-path="url(#pfc262e812c)" d="M 484.263346 187.88 
L 484.263346 179.71 
" style="fill:none;stroke:#1f77b4;"/>
    <path clip-path="url(#pfc262e812c)" d="M 439.280648 187.88 
L 439.280648 179.71 
" style="fill:none;stroke:#1f77b4;"/>
    <path clip-path="url(#pfc262e812c)" d="M 386.472128 187.88 
L 386.472128 179.71 
" style="fill:none;stroke:#1f77b4;"/>
    <path clip-path="url(#pfc262e812c)" d="M 337.115267 187.88 
L 337.115267 179.71 
" style="fill:none;stroke:#1f77b4;"/>
    <path clip-path="url(#pfc262e812c)" d="M 303.529354 187.88 
L 303.529354 179.71 
" style="fill:none;stroke:#1f77b4;"/>
    <path clip-path="url(#pfc262e812c)" d="M 291.288897 187.88 
L 291.288897 179.71 
" style="fill:none;stroke:#1f77b4;"/>
    <path clip-path="url(#pfc262e812c)" d="M 291.479123 187.88 
L 291.479123 179.71 
" style="fill:none;stroke:#1f77b4;"/>
    <path clip-path="url(#pfc262e812c)" d="M 290.931712 187.88 
L 290.931712 179.71 
" style="fill:none;stroke:#1f77b4;"/>
    <path clip-path="url(#pfc262e812c)" d="M 280.918361 187.88 
L 280.918361 179.71 
" style="fill:none;stroke:#1f77b4;"/>
    <path clip-path="url(#pfc262e812c)" d="M 259.510343 187.88 
L 259.510343 179.71 
" style="fill:none;stroke:#1f77b4;"/>
    <path clip-path="url(#pfc262e812c)" d="M 235.710217 187.88 
L 235.710217 179.71 
" style="fill:none;stroke:#1f77b4;"/>
    <path clip-path="url(#pfc262e812c)" d="M 221.453353 187.88 
L 221.453353 179.71 
" style="fill:none;stroke:#1f77b4;"/>
    <path clip-path="url(#pfc262e812c)" d="M 214.115767 187.88 
L 214.115767 179.71 
" style="fill:none;stroke:#1f77b4;"/>
    <path clip-path="url(#pfc262e812c)" d="M 206.110062 187.88 
L 206.110062 179.71 
" style="fill:none;stroke:#1f77b4;"/>
    <path clip-path="url(#pfc262e812c)" d="M 196.044133 187.88 
L 196.044133 179.71 
" style="fill:none;stroke:#1f77b4;"/>
    <path clip-path="url(#pfc262e812c)" d="M 186.765988 187.88 
L 186.765988 179.71 
" style="fill:none;stroke:#1f77b4;"/>
    <path clip-path="url(#pfc262e812c)" d="M 179.427001 187.88 
L 179.427001 179.71 
" style="fill:none;stroke:#1f77b4;"/>
    <path clip-path="url(#pfc262e812c)" d="M 173.710094 187.88 
L 173.710094 179.71 
" style="fill:none;stroke:#1f77b4;"/>
    <path clip-path="url(#pfc262e812c)" d="M 176.232494 187.88 
L 176.232494 179.71 
" style="fill:none;stroke:#1f77b4;"/>
    <path clip-path="url(#pfc262e812c)" d="M 187.397661 187.88 
L 187.397661 179.71 
" style="fill:none;stroke:#1f77b4;"/>
    <path clip-path="url(#pfc262e812c)" d="M 194.48138 187.88 
L 194.48138 179.71 
" style="fill:none;stroke:#1f77b4;"/>
    <path clip-path="url(#pfc262e812c)" d="M 200.466277 187.88 
L 200.466277 179.71 
" style="fill:none;stroke:#1f77b4;"/>
    <path clip-path="url(#pfc262e812c)" d="M 216.460319 187.88 
L 216.460319 179.71 
" style="fill:none;stroke:#1f77b4;"/>
    <path clip-path="url(#pfc262e812c)" d="M 234.821096 187.88 
L 234.821096 179.71 
" style="fill:none;stroke:#1f77b4;"/>
    <path clip-path="url(#pfc262e812c)" d="M 237.844409 187.88 
L 237.844409 179.71 
" style="fill:none;stroke:#1f77b4;"/>
    <path clip-path="url(#pfc262e812c)" d="M 228.252825 187.88 
L 228.252825 179.71 
" style="fill:none;stroke:#1f77b4;"/>
    <path clip-path="url(#pfc262e812c)" d="M 218.787968 187.88 
L 218.787968 179.71 
" style="fill:none;stroke:#1f77b4;"/>
    <path clip-path="url(#pfc262e812c)" d="M 213.750954 187.88 
L 213.750954 179.71 
" style="fill:none;stroke:#1f77b4;"/>
    <path clip-path="url(#pfc262e812c)" d="M 218.61513 187.88 
L 218.61513 179.71 
" style="fill:none;stroke:#1f77b4;"/>
    <path clip-path="url(#pfc262e812c)" d="M 234.996693 187.88 
L 234.996693 179.71 
" style="fill:none;stroke:#1f77b4;"/>
    <path clip-path="url(#pfc262e812c)" d="M 253.806009 187.88 
L 253.806009 179.71 
" style="fill:none;stroke:#1f77b4;"/>
    <path clip-path="url(#pfc262e812c)" d="M 263.737606 187.88 
L 263.737606 179.71 
" style="fill:none;stroke:#1f77b4;"/>
    <path clip-path="url(#pfc262e812c)" d="M 264.774958 187.88 
L 264.774958 179.71 
" style="fill:none;stroke:#1f77b4;"/>
    <path clip-path="url(#pfc262e812c)" d="M 260.001292 187.88 
L 260.001292 179.71 
" style="fill:none;stroke:#1f77b4;"/>
    <path clip-path="url(#pfc262e812c)" d="M 256.795488 187.88 
L 256.795488 179.71 
" style="fill:none;stroke:#1f77b4;"/>
    <path clip-path="url(#pfc262e812c)" d="M 263.193092 187.88 
L 263.193092 179.71 
" style="fill:none;stroke:#1f77b4;"/>
    <path clip-path="url(#pfc262e812c)" d="M 280.428451 187.88 
L 280.428451 179.71 
" style="fill:none;stroke:#1f77b4;"/>
    <path clip-path="url(#pfc262e812c)" d="M 303.264026 187.88 
L 303.264026 179.71 
" style="fill:none;stroke:#1f77b4;"/>
    <path clip-path="url(#pfc262e812c)" d="M 324.633905 187.88 
L 324.633905 179.71 
" style="fill:none;stroke:#1f77b4;"/>
    <path clip-path="url(#pfc262e812c)" d="M 339.763727 187.88 
L 339.763727 179.71 
" style="fill:none;stroke:#1f77b4;"/>
    <path clip-path="url(#pfc262e812c)" d="M 346.308556 187.88 
L 346.308556 179.71 
" style="fill:none;stroke:#1f77b4;"/>
    <path clip-path="url(#pfc262e812c)" d="M 339.447652 187.88 
L 339.447652 179.71 
" style="fill:none;stroke:#1f77b4;"/>
    <path clip-path="url(#pfc262e812c)" d="M 315.977405 187.88 
L 315.977405 179.71 
" style="fill:none;stroke:#1f77b4;"/>
    <path clip-path="url(#pfc262e812c)" d="M 294.656969 187.88 
L 294.656969 179.71 
" style="fill:none;stroke:#1f77b4;"/>
    <path clip-path="url(#pfc262e812c)" d="M 289.139623 187.88 
L 289.139623 179.71 
" style="fill:none;stroke:#1f77b4;"/>
    <path clip-path="url(#pfc262e812c)" d="M 300.840109 187.88 
L 300.840109 179.71 
" style="fill:none;stroke:#1f77b4;"/>
    <path clip-path="url(#pfc262e812c)" d="M 325.17363 187.88 
L 325.17363 179.71 
" style="fill:none;stroke:#1f77b4;"/>
    <path clip-path="url(#pfc262e812c)" d="M 356.733342 187.88 
L 356.733342 179.71 
" style="fill:none;stroke:#1f77b4;"/>
    <path clip-path="url(#pfc262e812c)" d="M 393.964305 187.88 
L 393.964305 179.71 
" style="fill:none;stroke:#1f77b4;"/>
    <path clip-path="url(#pfc262e812c)" d="M 421.850515 187.88 
L 421.850515 179.71 
" style="fill:none;stroke:#1f77b4;"/>
    <path clip-path="url(#pfc262e812c)" d="M 426.683696 187.88 
L 426.683696 179.71 
" style="fill:none;stroke:#1f77b4;"/>
    <path clip-path="url(#pfc262e812c)" d="M 409.383458 187.88 
L 409.383458 179.71 
" style="fill:none;stroke:#1f77b4;"/>
    <path clip-path="url(#pfc262e812c)" d="M 381.361104 187.88 
L 381.361104 179.71 
" style="fill:none;stroke:#1f77b4;"/>
    <path clip-path="url(#pfc262e812c)" d="M 353.565909 187.88 
L 353.565909 179.71 
" style="fill:none;stroke:#1f77b4;"/>
    <path clip-path="url(#pfc262e812c)" d="M 323.914525 187.88 
L 323.914525 179.71 
" style="fill:none;stroke:#1f77b4;"/>
    <path clip-path="url(#pfc262e812c)" d="M 289.016705 187.88 
L 289.016705 179.71 
" style="fill:none;stroke:#1f77b4;"/>
    <path clip-path="url(#pfc262e812c)" d="M 271.294606 187.88 
L 271.294606 179.71 
" style="fill:none;stroke:#1f77b4;"/>
    <path clip-path="url(#pfc262e812c)" d="M 279.967857 187.88 
L 279.967857 179.71 
" style="fill:none;stroke:#1f77b4;"/>
    <path clip-path="url(#pfc262e812c)" d="M 298.408844 187.88 
L 298.408844 179.71 
" style="fill:none;stroke:#1f77b4;"/>
    <path clip-path="url(#pfc262e812c)" d="M 312.810903 187.88 
L 312.810903 179.71 
" style="fill:none;stroke:#1f77b4;"/>
    <path clip-path="url(#pfc262e812c)" d="M 322.619552 187.88 
L 322.619552 179.71 
" style="fill:none;stroke:#1f77b4;"/>
    <path clip-path="url(#pfc262e812c)" d="M 334.831924 187.88 
L 334.831924 179.71 
" style="fill:none;stroke:#1f77b4;"/>
    <path clip-path="url(#pfc262e812c)" d="M 348.566749 187.88 
L 348.566749 179.71 
" style="fill:none;stroke:#1f77b4;"/>
    <path clip-path="url(#pfc262e812c)" d="M 355.96456 187.88 
L 355.96456 179.71 
" style="fill:none;stroke:#1f77b4;"/>
    <path clip-path="url(#pfc262e812c)" d="M 354.161201 187.88 
L 354.161201 179.71 
" style="fill:none;stroke:#1f77b4;"/>
    <path clip-path="url(#pfc262e812c)" d="M 345.813336 187.88 
L 345.813336 179.71 
" style="fill:none;stroke:#1f77b4;"/>
    <path clip-path="url(#pfc262e812c)" d="M 334.983721 187.88 
L 334.983721 179.71 
" style="fill:none;stroke:#1f77b4;"/>
    <path clip-path="url(#pfc262e812c)" d="M 324.666014 187.88 
L 324.666014 179.71 
" style="fill:none;stroke:#1f77b4;"/>
    <path clip-path="url(#pfc262e812c)" d="M 314.7907 187.88 
L 314.7907 179.71 
" style="fill:none;stroke:#1f77b4;"/>
    <path clip-path="url(#pfc262e812c)" d="M 303.303396 187.88 
L 303.303396 179.71 
" style="fill:none;stroke:#1f77b4;"/>
    <path clip-path="url(#pfc262e812c)" d="M 291.58985 187.88 
L 291.58985 179.71 
" style="fill:none;stroke:#1f77b4;"/>
    <path clip-path="url(#pfc262e812c)" d="M 282.463426 187.88 
L 282.463426 179.71 
" style="fill:none;stroke:#1f77b4;"/>
    <path clip-path="url(#pfc262e812c)" d="M 279.305407 187.88 
L 279.305407 179.71 
" style="fill:none;stroke:#1f77b4;"/>
    <path clip-path="url(#pfc262e812c)" d="M 279.883032 187.88 
L 279.883032 179.71 
" style="fill:none;stroke:#1f77b4;"/>
    <path clip-path="url(#pfc262e812c)" d="M 283.551878 187.88 
L 283.551878 179.71 
" style="fill:none;stroke:#1f77b4;"/>
    <path clip-path="url(#pfc262e812c)" d="M 299.956315 187.88 
L 299.956315 179.71 
" style="fill:none;stroke:#1f77b4;"/>
    <path clip-path="url(#pfc262e812c)" d="M 327.210887 187.88 
L 327.210887 179.71 
" style="fill:none;stroke:#1f77b4;"/>
    <path clip-path="url(#pfc262e812c)" d="M 347.680111 187.88 
L 347.680111 179.71 
" style="fill:none;stroke:#1f77b4;"/>
    <path clip-path="url(#pfc262e812c)" d="M 351.998709 187.88 
L 351.998709 179.71 
" style="fill:none;stroke:#1f77b4;"/>
    <path clip-path="url(#pfc262e812c)" d="M 343.835973 187.88 
L 343.835973 179.71 
" style="fill:none;stroke:#1f77b4;"/>
    <path clip-path="url(#pfc262e812c)" d="M 326.623633 187.88 
L 326.623633 179.71 
" style="fill:none;stroke:#1f77b4;"/>
    <path clip-path="url(#pfc262e812c)" d="M 303.403241 187.88 
L 303.403241 179.71 
" style="fill:none;stroke:#1f77b4;"/>
    <path clip-path="url(#pfc262e812c)" d="M 279.464754 187.88 
L 279.464754 179.71 
" style="fill:none;stroke:#1f77b4;"/>
    <path clip-path="url(#pfc262e812c)" d="M 266.195313 187.88 
L 266.195313 179.71 
" style="fill:none;stroke:#1f77b4;"/>
    <path clip-path="url(#pfc262e812c)" d="M 282.078155 187.88 
L 282.078155 179.71 
" style="fill:none;stroke:#1f77b4;"/>
    <path clip-path="url(#pfc262e812c)" d="M 313.457723 187.88 
L 313.457723 179.71 
" style="fill:none;stroke:#1f77b4;"/>
    <path clip-path="url(#pfc262e812c)" d="M 339.084384 187.88 
L 339.084384 179.71 
" style="fill:none;stroke:#1f77b4;"/>
    <path clip-path="url(#pfc262e812c)" d="M 374.338641 187.88 
L 374.338641 179.71 
" style="fill:none;stroke:#1f77b4;"/>
    <path clip-path="url(#pfc262e812c)" d="M 414.801491 187.88 
L 414.801491 179.71 
" style="fill:none;stroke:#1f77b4;"/>
    <path clip-path="url(#pfc262e812c)" d="M 436.764264 187.88 
L 436.764264 179.71 
" style="fill:none;stroke:#1f77b4;"/>
    <path clip-path="url(#pfc262e812c)" d="M 433.064987 187.88 
L 433.064987 179.71 
" style="fill:none;stroke:#1f77b4;"/>
    <path clip-path="url(#pfc262e812c)" d="M 411.645058 187.88 
L 411.645058 179.71 
" style="fill:none;stroke:#1f77b4;"/>
    <path clip-path="url(#pfc262e812c)" d="M 383.834975 187.88 
L 383.834975 179.71 
" style="fill:none;stroke:#1f77b4;"/>
    <path clip-path="url(#pfc262e812c)" d="M 357.487487 187.88 
L 357.487487 179.71 
" style="fill:none;stroke:#1f77b4;"/>
    <path clip-path="url(#pfc262e812c)" d="M 335.732997 187.88 
L 335.732997 179.71 
" style="fill:none;stroke:#1f77b4;"/>
    <path clip-path="url(#pfc262e812c)" d="M 319.373885 187.88 
L 319.373885 179.71 
" style="fill:none;stroke:#1f77b4;"/>
    <path clip-path="url(#pfc262e812c)" d="M 308.418039 187.88 
L 308.418039 179.71 
" style="fill:none;stroke:#1f77b4;"/>
    <path clip-path="url(#pfc262e812c)" d="M 301.59329 187.88 
L 301.59329 179.71 
" style="fill:none;stroke:#1f77b4;"/>
    <path clip-path="url(#pfc262e812c)" d="M 298.268054 187.88 
L 298.268054 179.71 
" style="fill:none;stroke:#1f77b4;"/>
    <path clip-path="url(#pfc262e812c)" d="M 300.814751 187.88 
L 300.814751 179.71 
" style="fill:none;stroke:#1f77b4;"/>
    <path clip-path="url(#pfc262e812c)" d="M 306.911185 187.88 
L 306.911185 179.71 
" style="fill:none;stroke:#1f77b4;"/>
    <path clip-path="url(#pfc262e812c)" d="M 307.132794 187.88 
L 307.132794 179.71 
" style="fill:none;stroke:#1f77b4;"/>
    <path clip-path="url(#pfc262e812c)" d="M 298.162582 187.88 
L 298.162582 179.71 
" style="fill:none;stroke:#1f77b4;"/>
    <path clip-path="url(#pfc262e812c)" d="M 288.516233 187.88 
L 288.516233 179.71 
" style="fill:none;stroke:#1f77b4;"/>
    <path clip-path="url(#pfc262e812c)" d="M 297.470798 187.88 
L 297.470798 179.71 
" style="fill:none;stroke:#1f77b4;"/>
    <path clip-path="url(#pfc262e812c)" d="M 317.41987 187.88 
L 317.41987 179.71 
" style="fill:none;stroke:#1f77b4;"/>
    <path clip-path="url(#pfc262e812c)" d="M 320.148943 187.88 
L 320.148943 179.71 
" style="fill:none;stroke:#1f77b4;"/>
    <path clip-path="url(#pfc262e812c)" d="M 319.224405 187.88 
L 319.224405 179.71 
" style="fill:none;stroke:#1f77b4;"/>
    <path clip-path="url(#pfc262e812c)" d="M 350.300171 187.88 
L 350.300171 179.71 
" style="fill:none;stroke:#1f77b4;"/>
    <path clip-path="url(#pfc262e812c)" d="M 413.017306 187.88 
L 413.017306 179.71 
" style="fill:none;stroke:#1f77b4;"/>
    <path clip-path="url(#pfc262e812c)" d="M 463.970174 187.88 
L 463.970174 179.71 
" style="fill:none;stroke:#1f77b4;"/>
    <path clip-path="url(#pfc262e812c)" d="M 473.050244 187.88 
L 473.050244 179.71 
" style="fill:none;stroke:#1f77b4;"/>
    <path clip-path="url(#pfc262e812c)" d="M 447.697633 187.88 
L 447.697633 179.71 
" style="fill:none;stroke:#1f77b4;"/>
    <path clip-path="url(#pfc262e812c)" d="M 407.663939 187.88 
L 407.663939 179.71 
" style="fill:none;stroke:#1f77b4;"/>
    <path clip-path="url(#pfc262e812c)" d="M 369.670909 187.88 
L 369.670909 179.71 
" style="fill:none;stroke:#1f77b4;"/>
    <path clip-path="url(#pfc262e812c)" d="M 342.388968 187.88 
L 342.388968 179.71 
" style="fill:none;stroke:#1f77b4;"/>
    <path clip-path="url(#pfc262e812c)" d="M 323.023921 187.88 
L 323.023921 179.71 
" style="fill:none;stroke:#1f77b4;"/>
    <path clip-path="url(#pfc262e812c)" d="M 305.252698 187.88 
L 305.252698 179.71 
" style="fill:none;stroke:#1f77b4;"/>
    <path clip-path="url(#pfc262e812c)" d="M 283.72886 187.88 
L 283.72886 179.71 
" style="fill:none;stroke:#1f77b4;"/>
    <path clip-path="url(#pfc262e812c)" d="M 261.553484 187.88 
L 261.553484 179.71 
" style="fill:none;stroke:#1f77b4;"/>
    <path clip-path="url(#pfc262e812c)" d="M 242.672289 187.88 
L 242.672289 179.71 
" style="fill:none;stroke:#1f77b4;"/>
    <path clip-path="url(#pfc262e812c)" d="M 230.162454 187.88 
L 230.162454 179.71 
" style="fill:none;stroke:#1f77b4;"/>
    <path clip-path="url(#pfc262e812c)" d="M 233.871662 187.88 
L 233.871662 179.71 
" style="fill:none;stroke:#1f77b4;"/>
    <path clip-path="url(#pfc262e812c)" d="M 252.102268 187.88 
L 252.102268 179.71 
" style="fill:none;stroke:#1f77b4;"/>
    <path clip-path="url(#pfc262e812c)" d="M 273.404588 187.88 
L 273.404588 179.71 
" style="fill:none;stroke:#1f77b4;"/>
    <path clip-path="url(#pfc262e812c)" d="M 289.957114 187.88 
L 289.957114 179.71 
" style="fill:none;stroke:#1f77b4;"/>
    <path clip-path="url(#pfc262e812c)" d="M 296.077884 187.88 
L 296.077884 179.71 
" style="fill:none;stroke:#1f77b4;"/>
    <path clip-path="url(#pfc262e812c)" d="M 291.410114 187.88 
L 291.410114 179.71 
" style="fill:none;stroke:#1f77b4;"/>
    <path clip-path="url(#pfc262e812c)" d="M 284.076362 187.88 
L 284.076362 179.71 
" style="fill:none;stroke:#1f77b4;"/>
    <path clip-path="url(#pfc262e812c)" d="M 281.981339 187.88 
L 281.981339 179.71 
" style="fill:none;stroke:#1f77b4;"/>
    <path clip-path="url(#pfc262e812c)" d="M 290.063975 187.88 
L 290.063975 179.71 
" style="fill:none;stroke:#1f77b4;"/>
    <path clip-path="url(#pfc262e812c)" d="M 304.76291 187.88 
L 304.76291 179.71 
" style="fill:none;stroke:#1f77b4;"/>
    <path clip-path="url(#pfc262e812c)" d="M 317.590424 187.88 
L 317.590424 179.71 
" style="fill:none;stroke:#1f77b4;"/>
    <path clip-path="url(#pfc262e812c)" d="M 324.098147 187.88 
L 324.098147 179.71 
" style="fill:none;stroke:#1f77b4;"/>
    <path clip-path="url(#pfc262e812c)" d="M 324.69535 187.88 
L 324.69535 179.71 
" style="fill:none;stroke:#1f77b4;"/>
    <path clip-path="url(#pfc262e812c)" d="M 316.2219 187.88 
L 316.2219 179.71 
" style="fill:none;stroke:#1f77b4;"/>
    <path clip-path="url(#pfc262e812c)" d="M 296.894201 187.88 
L 296.894201 179.71 
" style="fill:none;stroke:#1f77b4;"/>
    <path clip-path="url(#pfc262e812c)" d="M 277.055637 187.88 
L 277.055637 179.71 
" style="fill:none;stroke:#1f77b4;"/>
    <path clip-path="url(#pfc262e812c)" d="M 266.281511 187.88 
L 266.281511 179.71 
" style="fill:none;stroke:#1f77b4;"/>
    <path clip-path="url(#pfc262e812c)" d="M 265.894802 187.88 
L 265.894802 179.71 
" style="fill:none;stroke:#1f77b4;"/>
    <path clip-path="url(#pfc262e812c)" d="M 272.120902 187.88 
L 272.120902 179.71 
" style="fill:none;stroke:#1f77b4;"/>
    <path clip-path="url(#pfc262e812c)" d="M 284.672216 187.88 
L 284.672216 179.71 
" style="fill:none;stroke:#1f77b4;"/>
    <path clip-path="url(#pfc262e812c)" d="M 301.801145 187.88 
L 301.801145 179.71 
" style="fill:none;stroke:#1f77b4;"/>
    <path clip-path="url(#pfc262e812c)" d="M 316.986303 187.88 
L 316.986303 179.71 
" style="fill:none;stroke:#1f77b4;"/>
    <path clip-path="url(#pfc262e812c)" d="M 322.265693 187.88 
L 322.265693 179.71 
" style="fill:none;stroke:#1f77b4;"/>
    <path clip-path="url(#pfc262e812c)" d="M 317.089898 187.88 
L 317.089898 179.71 
" style="fill:none;stroke:#1f77b4;"/>
    <path clip-path="url(#pfc262e812c)" d="M 315.055628 187.88 
L 315.055628 179.71 
" style="fill:none;stroke:#1f77b4;"/>
    <path clip-path="url(#pfc262e812c)" d="M 322.093861 187.88 
L 322.093861 179.71 
" style="fill:none;stroke:#1f77b4;"/>
    <path clip-path="url(#pfc262e812c)" d="M 331.650953 187.88 
L 331.650953 179.71 
" style="fill:none;stroke:#1f77b4;"/>
    <path clip-path="url(#pfc262e812c)" d="M 336.516304 187.88 
L 336.516304 179.71 
" style="fill:none;stroke:#1f77b4;"/>
    <path clip-path="url(#pfc262e812c)" d="M 336.532592 187.88 
L 336.532592 179.71 
" style="fill:none;stroke:#1f77b4;"/>
    <path clip-path="url(#pfc262e812c)" d="M 343.181762 187.88 
L 343.181762 179.71 
" style="fill:none;stroke:#1f77b4;"/>
    <path clip-path="url(#pfc262e812c)" d="M 368.097682 187.88 
L 368.097682 179.71 
" style="fill:none;stroke:#1f77b4;"/>
    <path clip-path="url(#pfc262e812c)" d="M 412.057836 187.88 
L 412.057836 179.71 
" style="fill:none;stroke:#1f77b4;"/>
    <path clip-path="url(#pfc262e812c)" d="M 453.427578 187.88 
L 453.427578 179.71 
" style="fill:none;stroke:#1f77b4;"/>
    <path clip-path="url(#pfc262e812c)" d="M 469.01227 187.88 
L 469.01227 179.71 
" style="fill:none;stroke:#1f77b4;"/>
    <path clip-path="url(#pfc262e812c)" d="M 456.190977 187.88 
L 456.190977 179.71 
" style="fill:none;stroke:#1f77b4;"/>
    <path clip-path="url(#pfc262e812c)" d="M 426.076859 187.88 
L 426.076859 179.71 
" style="fill:none;stroke:#1f77b4;"/>
    <path clip-path="url(#pfc262e812c)" d="M 391.334449 187.88 
L 391.334449 179.71 
" style="fill:none;stroke:#1f77b4;"/>
    <path clip-path="url(#pfc262e812c)" d="M 360.010857 187.88 
L 360.010857 179.71 
" style="fill:none;stroke:#1f77b4;"/>
    <path clip-path="url(#pfc262e812c)" d="M 335.266435 187.88 
L 335.266435 179.71 
" style="fill:none;stroke:#1f77b4;"/>
    <path clip-path="url(#pfc262e812c)" d="M 317.226558 187.88 
L 317.226558 179.71 
" style="fill:none;stroke:#1f77b4;"/>
    <path clip-path="url(#pfc262e812c)" d="M 304.834712 187.88 
L 304.834712 179.71 
" style="fill:none;stroke:#1f77b4;"/>
    <path clip-path="url(#pfc262e812c)" d="M 296.858779 187.88 
L 296.858779 179.71 
" style="fill:none;stroke:#1f77b4;"/>
    <path clip-path="url(#pfc262e812c)" d="M 292.255645 187.88 
L 292.255645 179.71 
" style="fill:none;stroke:#1f77b4;"/>
    <path clip-path="url(#pfc262e812c)" d="M 290.188734 187.88 
L 290.188734 179.71 
" style="fill:none;stroke:#1f77b4;"/>
    <path clip-path="url(#pfc262e812c)" d="M 289.971573 187.88 
L 289.971573 179.71 
" style="fill:none;stroke:#1f77b4;"/>
    <path clip-path="url(#pfc262e812c)" d="M 291.040209 187.88 
L 291.040209 179.71 
" style="fill:none;stroke:#1f77b4;"/>
    <path clip-path="url(#pfc262e812c)" d="M 292.819478 187.88 
L 292.819478 179.71 
" style="fill:none;stroke:#1f77b4;"/>
    <path clip-path="url(#pfc262e812c)" d="M 294.912395 187.88 
L 294.912395 179.71 
" style="fill:none;stroke:#1f77b4;"/>
    <path clip-path="url(#pfc262e812c)" d="M 294.920301 187.88 
L 294.920301 179.71 
" style="fill:none;stroke:#1f77b4;"/>
    <path clip-path="url(#pfc262e812c)" d="M 291.327984 187.88 
L 291.327984 179.71 
" style="fill:none;stroke:#1f77b4;"/>
    <path clip-path="url(#pfc262e812c)" d="M 285.719112 187.88 
L 285.719112 179.71 
" style="fill:none;stroke:#1f77b4;"/>
    <path clip-path="url(#pfc262e812c)" d="M 275.726679 187.88 
L 275.726679 179.71 
" style="fill:none;stroke:#1f77b4;"/>
    <path clip-path="url(#pfc262e812c)" d="M 267.501869 187.88 
L 267.501869 179.71 
" style="fill:none;stroke:#1f77b4;"/>
    <path clip-path="url(#pfc262e812c)" d="M 270.393497 187.88 
L 270.393497 179.71 
" style="fill:none;stroke:#1f77b4;"/>
    <path clip-path="url(#pfc262e812c)" d="M 289.288195 187.88 
L 289.288195 179.71 
" style="fill:none;stroke:#1f77b4;"/>
    <path clip-path="url(#pfc262e812c)" d="M 321.917021 187.88 
L 321.917021 179.71 
" style="fill:none;stroke:#1f77b4;"/>
    <path clip-path="url(#pfc262e812c)" d="M 345.998155 187.88 
L 345.998155 179.71 
" style="fill:none;stroke:#1f77b4;"/>
    <path clip-path="url(#pfc262e812c)" d="M 346.833453 187.88 
L 346.833453 179.71 
" style="fill:none;stroke:#1f77b4;"/>
    <path clip-path="url(#pfc262e812c)" d="M 331.742147 187.88 
L 331.742147 179.71 
" style="fill:none;stroke:#1f77b4;"/>
    <path clip-path="url(#pfc262e812c)" d="M 322.093671 187.88 
L 322.093671 179.71 
" style="fill:none;stroke:#1f77b4;"/>
    <path clip-path="url(#pfc262e812c)" d="M 325.753975 187.88 
L 325.753975 179.71 
" style="fill:none;stroke:#1f77b4;"/>
    <path clip-path="url(#pfc262e812c)" d="M 333.4892 187.88 
L 333.4892 179.71 
" style="fill:none;stroke:#1f77b4;"/>
    <path clip-path="url(#pfc262e812c)" d="M 336.886486 187.88 
L 336.886486 179.71 
" style="fill:none;stroke:#1f77b4;"/>
    <path clip-path="url(#pfc262e812c)" d="M 334.322789 187.88 
L 334.322789 179.71 
" style="fill:none;stroke:#1f77b4;"/>
    <path clip-path="url(#pfc262e812c)" d="M 328.04431 187.88 
L 328.04431 179.71 
" style="fill:none;stroke:#1f77b4;"/>
    <path clip-path="url(#pfc262e812c)" d="M 320.976647 187.88 
L 320.976647 179.71 
" style="fill:none;stroke:#1f77b4;"/>
    <path clip-path="url(#pfc262e812c)" d="M 315.055175 187.88 
L 315.055175 179.71 
" style="fill:none;stroke:#1f77b4;"/>
    <path clip-path="url(#pfc262e812c)" d="M 319.370827 187.88 
L 319.370827 179.71 
" style="fill:none;stroke:#1f77b4;"/>
    <path clip-path="url(#pfc262e812c)" d="M 337.412331 187.88 
L 337.412331 179.71 
" style="fill:none;stroke:#1f77b4;"/>
    <path clip-path="url(#pfc262e812c)" d="M 350.412276 187.88 
L 350.412276 179.71 
" style="fill:none;stroke:#1f77b4;"/>
    <path clip-path="url(#pfc262e812c)" d="M 348.922924 187.88 
L 348.922924 179.71 
" style="fill:none;stroke:#1f77b4;"/>
    <path clip-path="url(#pfc262e812c)" d="M 338.506231 187.88 
L 338.506231 179.71 
" style="fill:none;stroke:#1f77b4;"/>
    <path clip-path="url(#pfc262e812c)" d="M 326.391761 187.88 
L 326.391761 179.71 
" style="fill:none;stroke:#1f77b4;"/>
    <path clip-path="url(#pfc262e812c)" d="M 316.53293 187.88 
L 316.53293 179.71 
" style="fill:none;stroke:#1f77b4;"/>
    <path clip-path="url(#pfc262e812c)" d="M 309.773253 187.88 
L 309.773253 179.71 
" style="fill:none;stroke:#1f77b4;"/>
    <path clip-path="url(#pfc262e812c)" d="M 305.553053 187.88 
L 305.553053 179.71 
" style="fill:none;stroke:#1f77b4;"/>
    <path clip-path="url(#pfc262e812c)" d="M 303.044894 187.88 
L 303.044894 179.71 
" style="fill:none;stroke:#1f77b4;"/>
    <path clip-path="url(#pfc262e812c)" d="M 301.628374 187.88 
L 301.628374 179.71 
" style="fill:none;stroke:#1f77b4;"/>
    <path clip-path="url(#pfc262e812c)" d="M 300.934031 187.88 
L 300.934031 179.71 
" style="fill:none;stroke:#1f77b4;"/>
    <path clip-path="url(#pfc262e812c)" d="M 300.759615 187.88 
L 300.759615 179.71 
" style="fill:none;stroke:#1f77b4;"/>
    <path clip-path="url(#pfc262e812c)" d="M 300.974038 187.88 
L 300.974038 179.71 
" style="fill:none;stroke:#1f77b4;"/>
    <path clip-path="url(#pfc262e812c)" d="M 301.440652 187.88 
L 301.440652 179.71 
" style="fill:none;stroke:#1f77b4;"/>
    <path clip-path="url(#pfc262e812c)" d="M 302.069978 187.88 
L 302.069978 179.71 
" style="fill:none;stroke:#1f77b4;"/>
    <path clip-path="url(#pfc262e812c)" d="M 302.747096 187.88 
L 302.747096 179.71 
" style="fill:none;stroke:#1f77b4;"/>
    <path clip-path="url(#pfc262e812c)" d="M 303.393099 187.88 
L 303.393099 179.71 
" style="fill:none;stroke:#1f77b4;"/>
    <path clip-path="url(#pfc262e812c)" d="M 303.967672 187.88 
L 303.967672 179.71 
" style="fill:none;stroke:#1f77b4;"/>
    <path clip-path="url(#pfc262e812c)" d="M 304.412739 187.88 
L 304.412739 179.71 
" style="fill:none;stroke:#1f77b4;"/>
    <path clip-path="url(#pfc262e812c)" d="M 304.767747 187.88 
L 304.767747 179.71 
" style="fill:none;stroke:#1f77b4;"/>
    <path clip-path="url(#pfc262e812c)" d="M 305.027749 187.88 
L 305.027749 179.71 
" style="fill:none;stroke:#1f77b4;"/>
    <path clip-path="url(#pfc262e812c)" d="M 305.235821 187.88 
L 305.235821 179.71 
" style="fill:none;stroke:#1f77b4;"/>
    <path clip-path="url(#pfc262e812c)" d="M 305.346102 187.88 
L 305.346102 179.71 
" style="fill:none;stroke:#1f77b4;"/>
    <path clip-path="url(#pfc262e812c)" d="M 305.473376 187.88 
L 305.473376 179.71 
" style="fill:none;stroke:#1f77b4;"/>
    <path clip-path="url(#pfc262e812c)" d="M 305.460689 187.88 
L 305.460689 179.71 
" style="fill:none;stroke:#1f77b4;"/>
    <path clip-path="url(#pfc262e812c)" d="M 308.286397 187.88 
L 308.286397 179.71 
" style="fill:none;stroke:#1f77b4;"/>
    <path clip-path="url(#pfc262e812c)" d="M 319.996523 187.88 
L 319.996523 179.71 
" style="fill:none;stroke:#1f77b4;"/>
    <path clip-path="url(#pfc262e812c)" d="M 335.826561 187.88 
L 335.826561 179.71 
" style="fill:none;stroke:#1f77b4;"/>
    <path clip-path="url(#pfc262e812c)" d="M 345.932509 187.88 
L 345.932509 179.71 
" style="fill:none;stroke:#1f77b4;"/>
    <path clip-path="url(#pfc262e812c)" d="M 346.90666 187.88 
L 346.90666 179.71 
" style="fill:none;stroke:#1f77b4;"/>
    <path clip-path="url(#pfc262e812c)" d="M 341.057546 187.88 
L 341.057546 179.71 
" style="fill:none;stroke:#1f77b4;"/>
    <path clip-path="url(#pfc262e812c)" d="M 332.344275 187.88 
L 332.344275 179.71 
" style="fill:none;stroke:#1f77b4;"/>
    <path clip-path="url(#pfc262e812c)" d="M 322.160583 187.88 
L 322.160583 179.71 
" style="fill:none;stroke:#1f77b4;"/>
    <path clip-path="url(#pfc262e812c)" d="M 307.052084 187.88 
L 307.052084 179.71 
" style="fill:none;stroke:#1f77b4;"/>
    <path clip-path="url(#pfc262e812c)" d="M 291.200473 187.88 
L 291.200473 179.71 
" style="fill:none;stroke:#1f77b4;"/>
    <path clip-path="url(#pfc262e812c)" d="M 292.100423 187.88 
L 292.100423 179.71 
" style="fill:none;stroke:#1f77b4;"/>
    <path clip-path="url(#pfc262e812c)" d="M 312.012995 187.88 
L 312.012995 179.71 
" style="fill:none;stroke:#1f77b4;"/>
    <path clip-path="url(#pfc262e812c)" d="M 333.147555 187.88 
L 333.147555 179.71 
" style="fill:none;stroke:#1f77b4;"/>
    <path clip-path="url(#pfc262e812c)" d="M 339.513613 187.88 
L 339.513613 179.71 
" style="fill:none;stroke:#1f77b4;"/>
    <path clip-path="url(#pfc262e812c)" d="M 350.23229 187.88 
L 350.23229 179.71 
" style="fill:none;stroke:#1f77b4;"/>
    <path clip-path="url(#pfc262e812c)" d="M 399.461478 187.88 
L 399.461478 179.71 
" style="fill:none;stroke:#1f77b4;"/>
    <path clip-path="url(#pfc262e812c)" d="M 467.78712 187.88 
L 467.78712 179.71 
" style="fill:none;stroke:#1f77b4;"/>
    <path clip-path="url(#pfc262e812c)" d="M 510.930427 187.88 
L 510.930427 179.71 
" style="fill:none;stroke:#1f77b4;"/>
    <path clip-path="url(#pfc262e812c)" d="M 510.969486 187.88 
L 510.969486 179.71 
" style="fill:none;stroke:#1f77b4;"/>
    <path clip-path="url(#pfc262e812c)" d="M 470.691322 187.88 
L 470.691322 179.71 
" style="fill:none;stroke:#1f77b4;"/>
    <path clip-path="url(#pfc262e812c)" d="M 405.446882 187.88 
L 405.446882 179.71 
" style="fill:none;stroke:#1f77b4;"/>
    <path clip-path="url(#pfc262e812c)" d="M 340.813949 187.88 
L 340.813949 179.71 
" style="fill:none;stroke:#1f77b4;"/>
    <path clip-path="url(#pfc262e812c)" d="M 294.942852 187.88 
L 294.942852 179.71 
" style="fill:none;stroke:#1f77b4;"/>
    <path clip-path="url(#pfc262e812c)" d="M 270.820736 187.88 
L 270.820736 179.71 
" style="fill:none;stroke:#1f77b4;"/>
    <path clip-path="url(#pfc262e812c)" d="M 262.651606 187.88 
L 262.651606 179.71 
" style="fill:none;stroke:#1f77b4;"/>
    <path clip-path="url(#pfc262e812c)" d="M 263.29458 187.88 
L 263.29458 179.71 
" style="fill:none;stroke:#1f77b4;"/>
    <path clip-path="url(#pfc262e812c)" d="M 267.780741 187.88 
L 267.780741 179.71 
" style="fill:none;stroke:#1f77b4;"/>
    <path clip-path="url(#pfc262e812c)" d="M 273.499072 187.88 
L 273.499072 179.71 
" style="fill:none;stroke:#1f77b4;"/>
    <path clip-path="url(#pfc262e812c)" d="M 279.762827 187.88 
L 279.762827 179.71 
" style="fill:none;stroke:#1f77b4;"/>
    <path clip-path="url(#pfc262e812c)" d="M 287.894443 187.88 
L 287.894443 179.71 
" style="fill:none;stroke:#1f77b4;"/>
    <path clip-path="url(#pfc262e812c)" d="M 300.804638 187.88 
L 300.804638 179.71 
" style="fill:none;stroke:#1f77b4;"/>
    <path clip-path="url(#pfc262e812c)" d="M 313.882157 187.88 
L 313.882157 179.71 
" style="fill:none;stroke:#1f77b4;"/>
    <path clip-path="url(#pfc262e812c)" d="M 319.95869 187.88 
L 319.95869 179.71 
" style="fill:none;stroke:#1f77b4;"/>
    <path clip-path="url(#pfc262e812c)" d="M 317.039651 187.88 
L 317.039651 179.71 
" style="fill:none;stroke:#1f77b4;"/>
    <path clip-path="url(#pfc262e812c)" d="M 303.941355 187.88 
L 303.941355 179.71 
" style="fill:none;stroke:#1f77b4;"/>
    <path clip-path="url(#pfc262e812c)" d="M 290.988672 187.88 
L 290.988672 179.71 
" style="fill:none;stroke:#1f77b4;"/>
    <path clip-path="url(#pfc262e812c)" d="M 283.980663 187.88 
L 283.980663 179.71 
" style="fill:none;stroke:#1f77b4;"/>
    <path clip-path="url(#pfc262e812c)" d="M 286.715623 187.88 
L 286.715623 179.71 
" style="fill:none;stroke:#1f77b4;"/>
    <path clip-path="url(#pfc262e812c)" d="M 304.258068 187.88 
L 304.258068 179.71 
" style="fill:none;stroke:#1f77b4;"/>
    <path clip-path="url(#pfc262e812c)" d="M 326.111954 187.88 
L 326.111954 179.71 
" style="fill:none;stroke:#1f77b4;"/>
    <path clip-path="url(#pfc262e812c)" d="M 333.893703 187.88 
L 333.893703 179.71 
" style="fill:none;stroke:#1f77b4;"/>
    <path clip-path="url(#pfc262e812c)" d="M 319.642756 187.88 
L 319.642756 179.71 
" style="fill:none;stroke:#1f77b4;"/>
    <path clip-path="url(#pfc262e812c)" d="M 295.16728 187.88 
L 295.16728 179.71 
" style="fill:none;stroke:#1f77b4;"/>
    <path clip-path="url(#pfc262e812c)" d="M 281.604948 187.88 
L 281.604948 179.71 
" style="fill:none;stroke:#1f77b4;"/>
    <path clip-path="url(#pfc262e812c)" d="M 277.740132 187.88 
L 277.740132 179.71 
" style="fill:none;stroke:#1f77b4;"/>
    <path clip-path="url(#pfc262e812c)" d="M 273.848616 187.88 
L 273.848616 179.71 
" style="fill:none;stroke:#1f77b4;"/>
    <path clip-path="url(#pfc262e812c)" d="M 261.976692 187.88 
L 261.976692 179.71 
" style="fill:none;stroke:#1f77b4;"/>
    <path clip-path="url(#pfc262e812c)" d="M 235.032038 187.88 
L 235.032038 179.71 
" style="fill:none;stroke:#1f77b4;"/>
    <path clip-path="url(#pfc262e812c)" d="M 206.856979 187.88 
L 206.856979 179.71 
" style="fill:none;stroke:#1f77b4;"/>
    <path clip-path="url(#pfc262e812c)" d="M 194.770276 187.88 
L 194.770276 179.71 
" style="fill:none;stroke:#1f77b4;"/>
    <path clip-path="url(#pfc262e812c)" d="M 205.085816 187.88 
L 205.085816 179.71 
" style="fill:none;stroke:#1f77b4;"/>
    <path clip-path="url(#pfc262e812c)" d="M 247.16184 187.88 
L 247.16184 179.71 
" style="fill:none;stroke:#1f77b4;"/>
    <path clip-path="url(#pfc262e812c)" d="M 308.593297 187.88 
L 308.593297 179.71 
" style="fill:none;stroke:#1f77b4;"/>
    <path clip-path="url(#pfc262e812c)" d="M 360.629956 187.88 
L 360.629956 179.71 
" style="fill:none;stroke:#1f77b4;"/>
    <path clip-path="url(#pfc262e812c)" d="M 390.680993 187.88 
L 390.680993 179.71 
" style="fill:none;stroke:#1f77b4;"/>
    <path clip-path="url(#pfc262e812c)" d="M 405.944124 187.88 
L 405.944124 179.71 
" style="fill:none;stroke:#1f77b4;"/>
    <path clip-path="url(#pfc262e812c)" d="M 419.215354 187.88 
L 419.215354 179.71 
" style="fill:none;stroke:#1f77b4;"/>
    <path clip-path="url(#pfc262e812c)" d="M 429.720388 187.88 
L 429.720388 179.71 
" style="fill:none;stroke:#1f77b4;"/>
    <path clip-path="url(#pfc262e812c)" d="M 437.081587 187.88 
L 437.081587 179.71 
" style="fill:none;stroke:#1f77b4;"/>
    <path clip-path="url(#pfc262e812c)" d="M 433.589051 187.88 
L 433.589051 179.71 
" style="fill:none;stroke:#1f77b4;"/>
    <path clip-path="url(#pfc262e812c)" d="M 404.899291 187.88 
L 404.899291 179.71 
" style="fill:none;stroke:#1f77b4;"/>
    <path clip-path="url(#pfc262e812c)" d="M 353.777242 187.88 
L 353.777242 179.71 
" style="fill:none;stroke:#1f77b4;"/>
    <path clip-path="url(#pfc262e812c)" d="M 302.015379 187.88 
L 302.015379 179.71 
" style="fill:none;stroke:#1f77b4;"/>
    <path clip-path="url(#pfc262e812c)" d="M 268.797997 187.88 
L 268.797997 179.71 
" style="fill:none;stroke:#1f77b4;"/>
    <path clip-path="url(#pfc262e812c)" d="M 249.496325 187.88 
L 249.496325 179.71 
" style="fill:none;stroke:#1f77b4;"/>
    <path clip-path="url(#pfc262e812c)" d="M 234.600698 187.88 
L 234.600698 179.71 
" style="fill:none;stroke:#1f77b4;"/>
    <path clip-path="url(#pfc262e812c)" d="M 228.03607 187.88 
L 228.03607 179.71 
" style="fill:none;stroke:#1f77b4;"/>
    <path clip-path="url(#pfc262e812c)" d="M 235.958602 187.88 
L 235.958602 179.71 
" style="fill:none;stroke:#1f77b4;"/>
    <path clip-path="url(#pfc262e812c)" d="M 251.380904 187.88 
L 251.380904 179.71 
" style="fill:none;stroke:#1f77b4;"/>
    <path clip-path="url(#pfc262e812c)" d="M 267.662157 187.88 
L 267.662157 179.71 
" style="fill:none;stroke:#1f77b4;"/>
    <path clip-path="url(#pfc262e812c)" d="M 282.144622 187.88 
L 282.144622 179.71 
" style="fill:none;stroke:#1f77b4;"/>
    <path clip-path="url(#pfc262e812c)" d="M 284.839506 187.88 
L 284.839506 179.71 
" style="fill:none;stroke:#1f77b4;"/>
    <path clip-path="url(#pfc262e812c)" d="M 270.588624 187.88 
L 270.588624 179.71 
" style="fill:none;stroke:#1f77b4;"/>
    <path clip-path="url(#pfc262e812c)" d="M 252.840881 187.88 
L 252.840881 179.71 
" style="fill:none;stroke:#1f77b4;"/>
    <path clip-path="url(#pfc262e812c)" d="M 247.015783 187.88 
L 247.015783 179.71 
" style="fill:none;stroke:#1f77b4;"/>
    <path clip-path="url(#pfc262e812c)" d="M 252.660909 187.88 
L 252.660909 179.71 
" style="fill:none;stroke:#1f77b4;"/>
    <path clip-path="url(#pfc262e812c)" d="M 258.984463 187.88 
L 258.984463 179.71 
" style="fill:none;stroke:#1f77b4;"/>
    <path clip-path="url(#pfc262e812c)" d="M 258.125464 187.88 
L 258.125464 179.71 
" style="fill:none;stroke:#1f77b4;"/>
    <path clip-path="url(#pfc262e812c)" d="M 254.343875 187.88 
L 254.343875 179.71 
" style="fill:none;stroke:#1f77b4;"/>
    <path clip-path="url(#pfc262e812c)" d="M 254.952462 187.88 
L 254.952462 179.71 
" style="fill:none;stroke:#1f77b4;"/>
    <path clip-path="url(#pfc262e812c)" d="M 262.15017 187.88 
L 262.15017 179.71 
" style="fill:none;stroke:#1f77b4;"/>
    <path clip-path="url(#pfc262e812c)" d="M 273.468038 187.88 
L 273.468038 179.71 
" style="fill:none;stroke:#1f77b4;"/>
    <path clip-path="url(#pfc262e812c)" d="M 283.866783 187.88 
L 283.866783 179.71 
" style="fill:none;stroke:#1f77b4;"/>
    <path clip-path="url(#pfc262e812c)" d="M 292.285963 187.88 
L 292.285963 179.71 
" style="fill:none;stroke:#1f77b4;"/>
    <path clip-path="url(#pfc262e812c)" d="M 295.855144 187.88 
L 295.855144 179.71 
" style="fill:none;stroke:#1f77b4;"/>
    <path clip-path="url(#pfc262e812c)" d="M 289.209818 187.88 
L 289.209818 179.71 
" style="fill:none;stroke:#1f77b4;"/>
    <path clip-path="url(#pfc262e812c)" d="M 278.198215 187.88 
L 278.198215 179.71 
" style="fill:none;stroke:#1f77b4;"/>
    <path clip-path="url(#pfc262e812c)" d="M 270.264277 187.88 
L 270.264277 179.71 
" style="fill:none;stroke:#1f77b4;"/>
    <path clip-path="url(#pfc262e812c)" d="M 266.070134 187.88 
L 266.070134 179.71 
" style="fill:none;stroke:#1f77b4;"/>
    <path clip-path="url(#pfc262e812c)" d="M 264.948461 187.88 
L 264.948461 179.71 
" style="fill:none;stroke:#1f77b4;"/>
    <path clip-path="url(#pfc262e812c)" d="M 269.593977 187.88 
L 269.593977 179.71 
" style="fill:none;stroke:#1f77b4;"/>
    <path clip-path="url(#pfc262e812c)" d="M 283.33656 187.88 
L 283.33656 179.71 
" style="fill:none;stroke:#1f77b4;"/>
    <path clip-path="url(#pfc262e812c)" d="M 301.214614 187.88 
L 301.214614 179.71 
" style="fill:none;stroke:#1f77b4;"/>
    <path clip-path="url(#pfc262e812c)" d="M 315.46812 187.88 
L 315.46812 179.71 
" style="fill:none;stroke:#1f77b4;"/>
    <path clip-path="url(#pfc262e812c)" d="M 327.300828 187.88 
L 327.300828 179.71 
" style="fill:none;stroke:#1f77b4;"/>
    <path clip-path="url(#pfc262e812c)" d="M 341.667333 187.88 
L 341.667333 179.71 
" style="fill:none;stroke:#1f77b4;"/>
    <path clip-path="url(#pfc262e812c)" d="M 354.03608 187.88 
L 354.03608 179.71 
" style="fill:none;stroke:#1f77b4;"/>
    <path clip-path="url(#pfc262e812c)" d="M 358.354171 187.88 
L 358.354171 179.71 
" style="fill:none;stroke:#1f77b4;"/>
    <path clip-path="url(#pfc262e812c)" d="M 354.250052 187.88 
L 354.250052 179.71 
" style="fill:none;stroke:#1f77b4;"/>
    <path clip-path="url(#pfc262e812c)" d="M 345.085153 187.88 
L 345.085153 179.71 
" style="fill:none;stroke:#1f77b4;"/>
    <path clip-path="url(#pfc262e812c)" d="M 334.513478 187.88 
L 334.513478 179.71 
" style="fill:none;stroke:#1f77b4;"/>
    <path clip-path="url(#pfc262e812c)" d="M 324.84459 187.88 
L 324.84459 179.71 
" style="fill:none;stroke:#1f77b4;"/>
    <path clip-path="url(#pfc262e812c)" d="M 317.037238 187.88 
L 317.037238 179.71 
" style="fill:none;stroke:#1f77b4;"/>
    <path clip-path="url(#pfc262e812c)" d="M 311.200658 187.88 
L 311.200658 179.71 
" style="fill:none;stroke:#1f77b4;"/>
    <path clip-path="url(#pfc262e812c)" d="M 307.067011 187.88 
L 307.067011 179.71 
" style="fill:none;stroke:#1f77b4;"/>
    <path clip-path="url(#pfc262e812c)" d="M 304.302031 187.88 
L 304.302031 179.71 
" style="fill:none;stroke:#1f77b4;"/>
    <path clip-path="url(#pfc262e812c)" d="M 302.614264 187.88 
L 302.614264 179.71 
" style="fill:none;stroke:#1f77b4;"/>
    <path clip-path="url(#pfc262e812c)" d="M 301.757033 187.88 
L 301.757033 179.71 
" style="fill:none;stroke:#1f77b4;"/>
    <path clip-path="url(#pfc262e812c)" d="M 301.512174 187.88 
L 301.512174 179.71 
" style="fill:none;stroke:#1f77b4;"/>
    <path clip-path="url(#pfc262e812c)" d="M 301.701513 187.88 
L 301.701513 179.71 
" style="fill:none;stroke:#1f77b4;"/>
   </g>
   <g id="line2d_13">
    <path clip-path="url(#pfc262e812c)" d="M 48.368286 187.86049 
L 61.504877 187.718271 
L 70.262605 187.357121 
L 79.020333 186.700931 
L 92.156924 185.644531 
L 100.914652 185.219579 
L 127.187835 184.20329 
L 131.566699 183.864297 
L 135.945563 183.397018 
L 140.324427 182.796689 
L 149.082154 181.270948 
L 157.839882 179.361782 
L 162.218746 178.202282 
L 166.59761 176.872742 
L 179.734202 172.455896 
L 184.113065 171.24369 
L 188.491929 170.304761 
L 201.628521 168.168581 
L 206.007385 167.132248 
L 210.386249 165.773329 
L 214.765112 164.12452 
L 219.143976 162.252869 
L 223.52284 160.194019 
L 227.901704 157.909095 
L 232.280568 155.277682 
L 236.659432 152.121611 
L 241.038296 148.24961 
L 245.417159 143.513447 
L 249.796023 137.860485 
L 254.174887 131.358867 
L 258.553751 124.173186 
L 262.932615 116.487286 
L 267.311479 108.400208 
L 271.690343 99.847353 
L 276.069207 90.607489 
L 280.44807 80.435291 
L 284.826934 69.304516 
L 289.205798 57.671561 
L 293.584662 46.610747 
L 297.963526 37.68431 
L 302.34239 32.522309 
L 306.721254 32.260023 
L 311.100117 37.099255 
L 315.478981 46.221121 
L 319.857845 58.090577 
L 324.236709 70.986764 
L 328.615573 83.505962 
L 332.994437 94.846636 
L 337.373301 104.823874 
L 341.752165 113.679886 
L 346.131028 121.813153 
L 350.509892 129.54368 
L 354.888756 136.986449 
L 359.26762 144.044771 
L 363.646484 150.486344 
L 368.025348 156.046548 
L 372.404212 160.516035 
L 376.783075 163.795304 
L 381.161939 165.917507 
L 385.540803 167.045265 
L 389.919667 167.444589 
L 403.056259 167.436169 
L 407.435123 167.847941 
L 411.813986 168.604219 
L 420.571714 170.73028 
L 429.329442 172.862725 
L 451.223761 177.798966 
L 455.602625 178.422328 
L 459.981489 178.737708 
L 464.360353 178.782478 
L 477.496944 178.553385 
L 481.875808 178.761697 
L 486.254672 179.186741 
L 495.0124 180.441019 
L 503.770128 181.709016 
L 521.285583 183.885403 
L 530.043311 184.807545 
L 538.801038 185.468586 
L 547.558766 185.79543 
L 565.074222 186.060468 
L 573.831949 186.63915 
L 582.589677 187.29169 
L 591.347405 187.691013 
L 600.105133 187.837627 
L 604.483996 187.858779 
L 604.483996 187.858779 
" style="fill:none;stroke:#1f77b4;stroke-linecap:square;stroke-width:1.5;"/>
   </g>
   <g id="patch_3">
    <path d="M 20.5625 187.88 
L 20.5625 24.48 
" style="fill:none;stroke:#000000;stroke-linecap:square;stroke-linejoin:miter;stroke-width:0.8;"/>
   </g>
   <g id="patch_4">
    <path d="M 20.5625 187.88 
L 632.289782 187.88 
" style="fill:none;stroke:#000000;stroke-linecap:square;stroke-linejoin:miter;stroke-width:0.8;"/>
   </g>
  </g>
  <g id="text_14">
   <!-- lancastersensorimotornorms_Mouth.mean [model: lancastersensorimotornorms_Mouth.mean] -->
   <defs>
    <path d="M 54.890625 33.015625 
L 54.890625 0 
L 45.90625 0 
L 45.90625 32.71875 
Q 45.90625 40.484375 42.875 44.328125 
Q 39.84375 48.1875 33.796875 48.1875 
Q 26.515625 48.1875 22.3125 43.546875 
Q 18.109375 38.921875 18.109375 30.90625 
L 18.109375 0 
L 9.078125 0 
L 9.078125 54.6875 
L 18.109375 54.6875 
L 18.109375 46.1875 
Q 21.34375 51.125 25.703125 53.5625 
Q 30.078125 56 35.796875 56 
Q 45.21875 56 50.046875 50.171875 
Q 54.890625 44.34375 54.890625 33.015625 
z
" id="DejaVuSans-110"/>
    <path d="M 48.78125 52.59375 
L 48.78125 44.1875 
Q 44.96875 46.296875 41.140625 47.34375 
Q 37.3125 48.390625 33.40625 48.390625 
Q 24.65625 48.390625 19.8125 42.84375 
Q 14.984375 37.3125 14.984375 27.296875 
Q 14.984375 17.28125 19.8125 11.734375 
Q 24.65625 6.203125 33.40625 6.203125 
Q 37.3125 6.203125 41.140625 7.25 
Q 44.96875 8.296875 48.78125 10.40625 
L 48.78125 2.09375 
Q 45.015625 0.34375 40.984375 -0.53125 
Q 36.96875 -1.421875 32.421875 -1.421875 
Q 20.0625 -1.421875 12.78125 6.34375 
Q 5.515625 14.109375 5.515625 27.296875 
Q 5.515625 40.671875 12.859375 48.328125 
Q 20.21875 56 33.015625 56 
Q 37.15625 56 41.109375 55.140625 
Q 45.0625 54.296875 48.78125 52.59375 
z
" id="DejaVuSans-99"/>
    <path d="M 18.3125 70.21875 
L 18.3125 54.6875 
L 36.8125 54.6875 
L 36.8125 47.703125 
L 18.3125 47.703125 
L 18.3125 18.015625 
Q 18.3125 11.328125 20.140625 9.421875 
Q 21.96875 7.515625 27.59375 7.515625 
L 36.8125 7.515625 
L 36.8125 0 
L 27.59375 0 
Q 17.1875 0 13.234375 3.875 
Q 9.28125 7.765625 9.28125 18.015625 
L 9.28125 47.703125 
L 2.6875 47.703125 
L 2.6875 54.6875 
L 9.28125 54.6875 
L 9.28125 70.21875 
z
" id="DejaVuSans-116"/>
    <path d="M 41.109375 46.296875 
Q 39.59375 47.171875 37.8125 47.578125 
Q 36.03125 48 33.890625 48 
Q 26.265625 48 22.1875 43.046875 
Q 18.109375 38.09375 18.109375 28.8125 
L 18.109375 0 
L 9.078125 0 
L 9.078125 54.6875 
L 18.109375 54.6875 
L 18.109375 46.1875 
Q 20.953125 51.171875 25.484375 53.578125 
Q 30.03125 56 36.53125 56 
Q 37.453125 56 38.578125 55.875 
Q 39.703125 55.765625 41.0625 55.515625 
z
" id="DejaVuSans-114"/>
    <path d="M 30.609375 48.390625 
Q 23.390625 48.390625 19.1875 42.75 
Q 14.984375 37.109375 14.984375 27.296875 
Q 14.984375 17.484375 19.15625 11.84375 
Q 23.34375 6.203125 30.609375 6.203125 
Q 37.796875 6.203125 41.984375 11.859375 
Q 46.1875 17.53125 46.1875 27.296875 
Q 46.1875 37.015625 41.984375 42.703125 
Q 37.796875 48.390625 30.609375 48.390625 
z
M 30.609375 56 
Q 42.328125 56 49.015625 48.375 
Q 55.71875 40.765625 55.71875 27.296875 
Q 55.71875 13.875 49.015625 6.21875 
Q 42.328125 -1.421875 30.609375 -1.421875 
Q 18.84375 -1.421875 12.171875 6.21875 
Q 5.515625 13.875 5.515625 27.296875 
Q 5.515625 40.765625 12.171875 48.375 
Q 18.84375 56 30.609375 56 
z
" id="DejaVuSans-111"/>
    <path d="M 9.421875 54.6875 
L 18.40625 54.6875 
L 18.40625 0 
L 9.421875 0 
z
M 9.421875 75.984375 
L 18.40625 75.984375 
L 18.40625 64.59375 
L 9.421875 64.59375 
z
" id="DejaVuSans-105"/>
    <path d="M 52 44.1875 
Q 55.375 50.25 60.0625 53.125 
Q 64.75 56 71.09375 56 
Q 79.640625 56 84.28125 50.015625 
Q 88.921875 44.046875 88.921875 33.015625 
L 88.921875 0 
L 79.890625 0 
L 79.890625 32.71875 
Q 79.890625 40.578125 77.09375 44.375 
Q 74.3125 48.1875 68.609375 48.1875 
Q 61.625 48.1875 57.5625 43.546875 
Q 53.515625 38.921875 53.515625 30.90625 
L 53.515625 0 
L 44.484375 0 
L 44.484375 32.71875 
Q 44.484375 40.625 41.703125 44.40625 
Q 38.921875 48.1875 33.109375 48.1875 
Q 26.21875 48.1875 22.15625 43.53125 
Q 18.109375 38.875 18.109375 30.90625 
L 18.109375 0 
L 9.078125 0 
L 9.078125 54.6875 
L 18.109375 54.6875 
L 18.109375 46.1875 
Q 21.1875 51.21875 25.484375 53.609375 
Q 29.78125 56 35.6875 56 
Q 41.65625 56 45.828125 52.96875 
Q 50 49.953125 52 44.1875 
z
" id="DejaVuSans-109"/>
    <path d="M 50.984375 -16.609375 
L 50.984375 -23.578125 
L -0.984375 -23.578125 
L -0.984375 -16.609375 
z
" id="DejaVuSans-95"/>
    <path d="M 9.8125 72.90625 
L 24.515625 72.90625 
L 43.109375 23.296875 
L 61.8125 72.90625 
L 76.515625 72.90625 
L 76.515625 0 
L 66.890625 0 
L 66.890625 64.015625 
L 48.09375 14.015625 
L 38.1875 14.015625 
L 19.390625 64.015625 
L 19.390625 0 
L 9.8125 0 
z
" id="DejaVuSans-77"/>
    <path d="M 54.890625 33.015625 
L 54.890625 0 
L 45.90625 0 
L 45.90625 32.71875 
Q 45.90625 40.484375 42.875 44.328125 
Q 39.84375 48.1875 33.796875 48.1875 
Q 26.515625 48.1875 22.3125 43.546875 
Q 18.109375 38.921875 18.109375 30.90625 
L 18.109375 0 
L 9.078125 0 
L 9.078125 75.984375 
L 18.109375 75.984375 
L 18.109375 46.1875 
Q 21.34375 51.125 25.703125 53.5625 
Q 30.078125 56 35.796875 56 
Q 45.21875 56 50.046875 50.171875 
Q 54.890625 44.34375 54.890625 33.015625 
z
" id="DejaVuSans-104"/>
    <path id="DejaVuSans-32"/>
    <path d="M 8.59375 75.984375 
L 29.296875 75.984375 
L 29.296875 69 
L 17.578125 69 
L 17.578125 -6.203125 
L 29.296875 -6.203125 
L 29.296875 -13.1875 
L 8.59375 -13.1875 
z
" id="DejaVuSans-91"/>
    <path d="M 45.40625 46.390625 
L 45.40625 75.984375 
L 54.390625 75.984375 
L 54.390625 0 
L 45.40625 0 
L 45.40625 8.203125 
Q 42.578125 3.328125 38.25 0.953125 
Q 33.9375 -1.421875 27.875 -1.421875 
Q 17.96875 -1.421875 11.734375 6.484375 
Q 5.515625 14.40625 5.515625 27.296875 
Q 5.515625 40.1875 11.734375 48.09375 
Q 17.96875 56 27.875 56 
Q 33.9375 56 38.25 53.625 
Q 42.578125 51.265625 45.40625 46.390625 
z
M 14.796875 27.296875 
Q 14.796875 17.390625 18.875 11.75 
Q 22.953125 6.109375 30.078125 6.109375 
Q 37.203125 6.109375 41.296875 11.75 
Q 45.40625 17.390625 45.40625 27.296875 
Q 45.40625 37.203125 41.296875 42.84375 
Q 37.203125 48.484375 30.078125 48.484375 
Q 22.953125 48.484375 18.875 42.84375 
Q 14.796875 37.203125 14.796875 27.296875 
z
" id="DejaVuSans-100"/>
    <path d="M 11.71875 12.40625 
L 22.015625 12.40625 
L 22.015625 0 
L 11.71875 0 
z
M 11.71875 51.703125 
L 22.015625 51.703125 
L 22.015625 39.3125 
L 11.71875 39.3125 
z
" id="DejaVuSans-58"/>
    <path d="M 30.421875 75.984375 
L 30.421875 -13.1875 
L 9.71875 -13.1875 
L 9.71875 -6.203125 
L 21.390625 -6.203125 
L 21.390625 69 
L 9.71875 69 
L 9.71875 75.984375 
z
" id="DejaVuSans-93"/>
   </defs>
   <g transform="translate(92.64697 16.318125)scale(0.12 -0.12)">
    <use xlink:href="#DejaVuSans-108"/>
    <use x="27.783203" xlink:href="#DejaVuSans-97"/>
    <use x="89.0625" xlink:href="#DejaVuSans-110"/>
    <use x="152.441406" xlink:href="#DejaVuSans-99"/>
    <use x="207.421875" xlink:href="#DejaVuSans-97"/>
    <use x="268.701172" xlink:href="#DejaVuSans-115"/>
    <use x="320.800781" xlink:href="#DejaVuSans-116"/>
    <use x="360.009766" xlink:href="#DejaVuSans-101"/>
    <use x="421.533203" xlink:href="#DejaVuSans-114"/>
    <use x="462.646484" xlink:href="#DejaVuSans-115"/>
    <use x="514.746094" xlink:href="#DejaVuSans-101"/>
    <use x="576.269531" xlink:href="#DejaVuSans-110"/>
    <use x="639.648438" xlink:href="#DejaVuSans-115"/>
    <use x="691.748047" xlink:href="#DejaVuSans-111"/>
    <use x="752.929688" xlink:href="#DejaVuSans-114"/>
    <use x="794.042969" xlink:href="#DejaVuSans-105"/>
    <use x="821.826172" xlink:href="#DejaVuSans-109"/>
    <use x="919.238281" xlink:href="#DejaVuSans-111"/>
    <use x="980.419922" xlink:href="#DejaVuSans-116"/>
    <use x="1019.628906" xlink:href="#DejaVuSans-111"/>
    <use x="1080.810547" xlink:href="#DejaVuSans-114"/>
    <use x="1120.173828" xlink:href="#DejaVuSans-110"/>
    <use x="1183.552734" xlink:href="#DejaVuSans-111"/>
    <use x="1244.734375" xlink:href="#DejaVuSans-114"/>
    <use x="1284.097656" xlink:href="#DejaVuSans-109"/>
    <use x="1381.509766" xlink:href="#DejaVuSans-115"/>
    <use x="1433.609375" xlink:href="#DejaVuSans-95"/>
    <use x="1483.609375" xlink:href="#DejaVuSans-77"/>
    <use x="1569.888672" xlink:href="#DejaVuSans-111"/>
    <use x="1631.070312" xlink:href="#DejaVuSans-117"/>
    <use x="1694.449219" xlink:href="#DejaVuSans-116"/>
    <use x="1733.658203" xlink:href="#DejaVuSans-104"/>
    <use x="1797.037109" xlink:href="#DejaVuSans-46"/>
    <use x="1828.824219" xlink:href="#DejaVuSans-109"/>
    <use x="1926.236328" xlink:href="#DejaVuSans-101"/>
    <use x="1987.759766" xlink:href="#DejaVuSans-97"/>
    <use x="2049.039062" xlink:href="#DejaVuSans-110"/>
    <use x="2112.417969" xlink:href="#DejaVuSans-32"/>
    <use x="2144.205078" xlink:href="#DejaVuSans-91"/>
    <use x="2183.21875" xlink:href="#DejaVuSans-109"/>
    <use x="2280.630859" xlink:href="#DejaVuSans-111"/>
    <use x="2341.8125" xlink:href="#DejaVuSans-100"/>
    <use x="2405.289062" xlink:href="#DejaVuSans-101"/>
    <use x="2466.8125" xlink:href="#DejaVuSans-108"/>
    <use x="2494.595703" xlink:href="#DejaVuSans-58"/>
    <use x="2528.287109" xlink:href="#DejaVuSans-32"/>
    <use x="2560.074219" xlink:href="#DejaVuSans-108"/>
    <use x="2587.857422" xlink:href="#DejaVuSans-97"/>
    <use x="2649.136719" xlink:href="#DejaVuSans-110"/>
    <use x="2712.515625" xlink:href="#DejaVuSans-99"/>
    <use x="2767.496094" xlink:href="#DejaVuSans-97"/>
    <use x="2828.775391" xlink:href="#DejaVuSans-115"/>
    <use x="2880.875" xlink:href="#DejaVuSans-116"/>
    <use x="2920.083984" xlink:href="#DejaVuSans-101"/>
    <use x="2981.607422" xlink:href="#DejaVuSans-114"/>
    <use x="3022.720703" xlink:href="#DejaVuSans-115"/>
    <use x="3074.820312" xlink:href="#DejaVuSans-101"/>
    <use x="3136.34375" xlink:href="#DejaVuSans-110"/>
    <use x="3199.722656" xlink:href="#DejaVuSans-115"/>
    <use x="3251.822266" xlink:href="#DejaVuSans-111"/>
    <use x="3313.003906" xlink:href="#DejaVuSans-114"/>
    <use x="3354.117188" xlink:href="#DejaVuSans-105"/>
    <use x="3381.900391" xlink:href="#DejaVuSans-109"/>
    <use x="3479.3125" xlink:href="#DejaVuSans-111"/>
    <use x="3540.494141" xlink:href="#DejaVuSans-116"/>
    <use x="3579.703125" xlink:href="#DejaVuSans-111"/>
    <use x="3640.884766" xlink:href="#DejaVuSans-114"/>
    <use x="3680.248047" xlink:href="#DejaVuSans-110"/>
    <use x="3743.626953" xlink:href="#DejaVuSans-111"/>
    <use x="3804.808594" xlink:href="#DejaVuSans-114"/>
    <use x="3844.171875" xlink:href="#DejaVuSans-109"/>
    <use x="3941.583984" xlink:href="#DejaVuSans-115"/>
    <use x="3993.683594" xlink:href="#DejaVuSans-95"/>
    <use x="4043.683594" xlink:href="#DejaVuSans-77"/>
    <use x="4129.962891" xlink:href="#DejaVuSans-111"/>
    <use x="4191.144531" xlink:href="#DejaVuSans-117"/>
    <use x="4254.523438" xlink:href="#DejaVuSans-116"/>
    <use x="4293.732422" xlink:href="#DejaVuSans-104"/>
    <use x="4357.111328" xlink:href="#DejaVuSans-46"/>
    <use x="4388.898438" xlink:href="#DejaVuSans-109"/>
    <use x="4486.310547" xlink:href="#DejaVuSans-101"/>
    <use x="4547.833984" xlink:href="#DejaVuSans-97"/>
    <use x="4609.113281" xlink:href="#DejaVuSans-110"/>
    <use x="4672.492188" xlink:href="#DejaVuSans-93"/>
   </g>
  </g>
  <g id="legend_1">
   <g id="text_15">
    <!-- ds_task -->
    <defs>
     <path d="M 9.078125 75.984375 
L 18.109375 75.984375 
L 18.109375 31.109375 
L 44.921875 54.6875 
L 56.390625 54.6875 
L 27.390625 29.109375 
L 57.625 0 
L 45.90625 0 
L 18.109375 26.703125 
L 18.109375 0 
L 9.078125 0 
z
" id="DejaVuSans-107"/>
    </defs>
    <g transform="translate(677.596345 107.860313)scale(0.1 -0.1)">
     <use xlink:href="#DejaVuSans-100"/>
     <use x="63.476562" xlink:href="#DejaVuSans-115"/>
     <use x="115.576172" xlink:href="#DejaVuSans-95"/>
     <use x="165.576172" xlink:href="#DejaVuSans-116"/>
     <use x="204.785156" xlink:href="#DejaVuSans-97"/>
     <use x="266.064453" xlink:href="#DejaVuSans-115"/>
     <use x="318.164062" xlink:href="#DejaVuSans-107"/>
    </g>
   </g>
   <g id="line2d_14">
    <path d="M 640.891657 119.316563 
L 660.891657 119.316563 
" style="fill:none;stroke:#1f77b4;stroke-linecap:square;stroke-width:1.5;"/>
   </g>
   <g id="line2d_15"/>
   <g id="text_16">
    <!-- Budapest_movie -->
    <defs>
     <path d="M 19.671875 34.8125 
L 19.671875 8.109375 
L 35.5 8.109375 
Q 43.453125 8.109375 47.28125 11.40625 
Q 51.125 14.703125 51.125 21.484375 
Q 51.125 28.328125 47.28125 31.5625 
Q 43.453125 34.8125 35.5 34.8125 
z
M 19.671875 64.796875 
L 19.671875 42.828125 
L 34.28125 42.828125 
Q 41.5 42.828125 45.03125 45.53125 
Q 48.578125 48.25 48.578125 53.8125 
Q 48.578125 59.328125 45.03125 62.0625 
Q 41.5 64.796875 34.28125 64.796875 
z
M 9.8125 72.90625 
L 35.015625 72.90625 
Q 46.296875 72.90625 52.390625 68.21875 
Q 58.5 63.53125 58.5 54.890625 
Q 58.5 48.1875 55.375 44.234375 
Q 52.25 40.28125 46.1875 39.3125 
Q 53.46875 37.75 57.5 32.78125 
Q 61.53125 27.828125 61.53125 20.40625 
Q 61.53125 10.640625 54.890625 5.3125 
Q 48.25 0 35.984375 0 
L 9.8125 0 
z
" id="DejaVuSans-66"/>
     <path d="M 18.109375 8.203125 
L 18.109375 -20.796875 
L 9.078125 -20.796875 
L 9.078125 54.6875 
L 18.109375 54.6875 
L 18.109375 46.390625 
Q 20.953125 51.265625 25.265625 53.625 
Q 29.59375 56 35.59375 56 
Q 45.5625 56 51.78125 48.09375 
Q 58.015625 40.1875 58.015625 27.296875 
Q 58.015625 14.40625 51.78125 6.484375 
Q 45.5625 -1.421875 35.59375 -1.421875 
Q 29.59375 -1.421875 25.265625 0.953125 
Q 20.953125 3.328125 18.109375 8.203125 
z
M 48.6875 27.296875 
Q 48.6875 37.203125 44.609375 42.84375 
Q 40.53125 48.484375 33.40625 48.484375 
Q 26.265625 48.484375 22.1875 42.84375 
Q 18.109375 37.203125 18.109375 27.296875 
Q 18.109375 17.390625 22.1875 11.75 
Q 26.265625 6.109375 33.40625 6.109375 
Q 40.53125 6.109375 44.609375 11.75 
Q 48.6875 17.390625 48.6875 27.296875 
z
" id="DejaVuSans-112"/>
    </defs>
    <g transform="translate(668.891657 122.816563)scale(0.1 -0.1)">
     <use xlink:href="#DejaVuSans-66"/>
     <use x="68.603516" xlink:href="#DejaVuSans-117"/>
     <use x="131.982422" xlink:href="#DejaVuSans-100"/>
     <use x="195.458984" xlink:href="#DejaVuSans-97"/>
     <use x="256.738281" xlink:href="#DejaVuSans-112"/>
     <use x="320.214844" xlink:href="#DejaVuSans-101"/>
     <use x="381.738281" xlink:href="#DejaVuSans-115"/>
     <use x="433.837891" xlink:href="#DejaVuSans-116"/>
     <use x="473.046875" xlink:href="#DejaVuSans-95"/>
     <use x="523.046875" xlink:href="#DejaVuSans-109"/>
     <use x="620.458984" xlink:href="#DejaVuSans-111"/>
     <use x="681.640625" xlink:href="#DejaVuSans-118"/>
     <use x="740.820312" xlink:href="#DejaVuSans-105"/>
     <use x="768.603516" xlink:href="#DejaVuSans-101"/>
    </g>
   </g>
  </g>
 </g>
 <defs>
  <clipPath id="pfc262e812c">
   <rect height="163.4" width="611.727282" x="20.5625" y="24.48"/>
  </clipPath>
 </defs>
</svg>
