<?xml version="1.0" encoding="utf-8" standalone="no"?>
<!DOCTYPE svg PUBLIC "-//W3C//DTD SVG 1.1//EN"
  "http://www.w3.org/Graphics/SVG/1.1/DTD/svg11.dtd">
<!-- Created with matplotlib (https://matplotlib.org/) -->
<svg height="225.43625pt" version="1.1" viewBox="0 0 760.907282 225.43625" width="760.907282pt" xmlns="http://www.w3.org/2000/svg" xmlns:xlink="http://www.w3.org/1999/xlink">
 <defs>
  <style type="text/css">
*{stroke-linecap:butt;stroke-linejoin:round;}
  </style>
 </defs>
 <g id="figure_1">
  <g id="patch_1">
   <path d="M 0 225.43625 
L 760.907282 225.43625 
L 760.907282 0 
L 0 0 
z
" style="fill:none;"/>
  </g>
  <g id="axes_1">
   <g id="patch_2">
    <path d="M 20.5625 187.88 
L 632.289782 187.88 
L 632.289782 24.48 
L 20.5625 24.48 
z
" style="fill:#ffffff;"/>
   </g>
   <g id="matplotlib.axis_1">
    <g id="xtick_1">
     <g id="line2d_1">
      <defs>
       <path d="M 0 0 
L 0 3.5 
" id="m7049506b66" style="stroke:#000000;stroke-width:0.8;"/>
      </defs>
      <g>
       <use style="stroke:#000000;stroke-width:0.8;" x="76.44829" xlink:href="#m7049506b66" y="187.88"/>
      </g>
     </g>
     <g id="text_1">
      <!-- −0.4 -->
      <defs>
       <path d="M 10.59375 35.5 
L 73.1875 35.5 
L 73.1875 27.203125 
L 10.59375 27.203125 
z
" id="DejaVuSans-8722"/>
       <path d="M 31.78125 66.40625 
Q 24.171875 66.40625 20.328125 58.90625 
Q 16.5 51.421875 16.5 36.375 
Q 16.5 21.390625 20.328125 13.890625 
Q 24.171875 6.390625 31.78125 6.390625 
Q 39.453125 6.390625 43.28125 13.890625 
Q 47.125 21.390625 47.125 36.375 
Q 47.125 51.421875 43.28125 58.90625 
Q 39.453125 66.40625 31.78125 66.40625 
z
M 31.78125 74.21875 
Q 44.046875 74.21875 50.515625 64.515625 
Q 56.984375 54.828125 56.984375 36.375 
Q 56.984375 17.96875 50.515625 8.265625 
Q 44.046875 -1.421875 31.78125 -1.421875 
Q 19.53125 -1.421875 13.0625 8.265625 
Q 6.59375 17.96875 6.59375 36.375 
Q 6.59375 54.828125 13.0625 64.515625 
Q 19.53125 74.21875 31.78125 74.21875 
z
" id="DejaVuSans-48"/>
       <path d="M 10.6875 12.40625 
L 21 12.40625 
L 21 0 
L 10.6875 0 
z
" id="DejaVuSans-46"/>
       <path d="M 37.796875 64.3125 
L 12.890625 25.390625 
L 37.796875 25.390625 
z
M 35.203125 72.90625 
L 47.609375 72.90625 
L 47.609375 25.390625 
L 58.015625 25.390625 
L 58.015625 17.1875 
L 47.609375 17.1875 
L 47.609375 0 
L 37.796875 0 
L 37.796875 17.1875 
L 4.890625 17.1875 
L 4.890625 26.703125 
z
" id="DejaVuSans-52"/>
      </defs>
      <g transform="translate(64.306884 202.478438)scale(0.1 -0.1)">
       <use xlink:href="#DejaVuSans-8722"/>
       <use x="83.789062" xlink:href="#DejaVuSans-48"/>
       <use x="147.412109" xlink:href="#DejaVuSans-46"/>
       <use x="179.199219" xlink:href="#DejaVuSans-52"/>
      </g>
     </g>
    </g>
    <g id="xtick_2">
     <g id="line2d_2">
      <g>
       <use style="stroke:#000000;stroke-width:0.8;" x="191.589911" xlink:href="#m7049506b66" y="187.88"/>
      </g>
     </g>
     <g id="text_2">
      <!-- −0.2 -->
      <defs>
       <path d="M 19.1875 8.296875 
L 53.609375 8.296875 
L 53.609375 0 
L 7.328125 0 
L 7.328125 8.296875 
Q 12.9375 14.109375 22.625 23.890625 
Q 32.328125 33.6875 34.8125 36.53125 
Q 39.546875 41.84375 41.421875 45.53125 
Q 43.3125 49.21875 43.3125 52.78125 
Q 43.3125 58.59375 39.234375 62.25 
Q 35.15625 65.921875 28.609375 65.921875 
Q 23.96875 65.921875 18.8125 64.3125 
Q 13.671875 62.703125 7.8125 59.421875 
L 7.8125 69.390625 
Q 13.765625 71.78125 18.9375 73 
Q 24.125 74.21875 28.421875 74.21875 
Q 39.75 74.21875 46.484375 68.546875 
Q 53.21875 62.890625 53.21875 53.421875 
Q 53.21875 48.921875 51.53125 44.890625 
Q 49.859375 40.875 45.40625 35.40625 
Q 44.1875 33.984375 37.640625 27.21875 
Q 31.109375 20.453125 19.1875 8.296875 
z
" id="DejaVuSans-50"/>
      </defs>
      <g transform="translate(179.448504 202.478438)scale(0.1 -0.1)">
       <use xlink:href="#DejaVuSans-8722"/>
       <use x="83.789062" xlink:href="#DejaVuSans-48"/>
       <use x="147.412109" xlink:href="#DejaVuSans-46"/>
       <use x="179.199219" xlink:href="#DejaVuSans-50"/>
      </g>
     </g>
    </g>
    <g id="xtick_3">
     <g id="line2d_3">
      <g>
       <use style="stroke:#000000;stroke-width:0.8;" x="306.731531" xlink:href="#m7049506b66" y="187.88"/>
      </g>
     </g>
     <g id="text_3">
      <!-- 0.0 -->
      <g transform="translate(298.779969 202.478438)scale(0.1 -0.1)">
       <use xlink:href="#DejaVuSans-48"/>
       <use x="63.623047" xlink:href="#DejaVuSans-46"/>
       <use x="95.410156" xlink:href="#DejaVuSans-48"/>
      </g>
     </g>
    </g>
    <g id="xtick_4">
     <g id="line2d_4">
      <g>
       <use style="stroke:#000000;stroke-width:0.8;" x="421.873152" xlink:href="#m7049506b66" y="187.88"/>
      </g>
     </g>
     <g id="text_4">
      <!-- 0.2 -->
      <g transform="translate(413.92159 202.478438)scale(0.1 -0.1)">
       <use xlink:href="#DejaVuSans-48"/>
       <use x="63.623047" xlink:href="#DejaVuSans-46"/>
       <use x="95.410156" xlink:href="#DejaVuSans-50"/>
      </g>
     </g>
    </g>
    <g id="xtick_5">
     <g id="line2d_5">
      <g>
       <use style="stroke:#000000;stroke-width:0.8;" x="537.014773" xlink:href="#m7049506b66" y="187.88"/>
      </g>
     </g>
     <g id="text_5">
      <!-- 0.4 -->
      <g transform="translate(529.063211 202.478438)scale(0.1 -0.1)">
       <use xlink:href="#DejaVuSans-48"/>
       <use x="63.623047" xlink:href="#DejaVuSans-46"/>
       <use x="95.410156" xlink:href="#DejaVuSans-52"/>
      </g>
     </g>
    </g>
    <g id="text_6">
     <!-- values -->
     <defs>
      <path d="M 2.984375 54.6875 
L 12.5 54.6875 
L 29.59375 8.796875 
L 46.6875 54.6875 
L 56.203125 54.6875 
L 35.6875 0 
L 23.484375 0 
z
" id="DejaVuSans-118"/>
      <path d="M 34.28125 27.484375 
Q 23.390625 27.484375 19.1875 25 
Q 14.984375 22.515625 14.984375 16.5 
Q 14.984375 11.71875 18.140625 8.90625 
Q 21.296875 6.109375 26.703125 6.109375 
Q 34.1875 6.109375 38.703125 11.40625 
Q 43.21875 16.703125 43.21875 25.484375 
L 43.21875 27.484375 
z
M 52.203125 31.203125 
L 52.203125 0 
L 43.21875 0 
L 43.21875 8.296875 
Q 40.140625 3.328125 35.546875 0.953125 
Q 30.953125 -1.421875 24.3125 -1.421875 
Q 15.921875 -1.421875 10.953125 3.296875 
Q 6 8.015625 6 15.921875 
Q 6 25.140625 12.171875 29.828125 
Q 18.359375 34.515625 30.609375 34.515625 
L 43.21875 34.515625 
L 43.21875 35.40625 
Q 43.21875 41.609375 39.140625 45 
Q 35.0625 48.390625 27.6875 48.390625 
Q 23 48.390625 18.546875 47.265625 
Q 14.109375 46.140625 10.015625 43.890625 
L 10.015625 52.203125 
Q 14.9375 54.109375 19.578125 55.046875 
Q 24.21875 56 28.609375 56 
Q 40.484375 56 46.34375 49.84375 
Q 52.203125 43.703125 52.203125 31.203125 
z
" id="DejaVuSans-97"/>
      <path d="M 9.421875 75.984375 
L 18.40625 75.984375 
L 18.40625 0 
L 9.421875 0 
z
" id="DejaVuSans-108"/>
      <path d="M 8.5 21.578125 
L 8.5 54.6875 
L 17.484375 54.6875 
L 17.484375 21.921875 
Q 17.484375 14.15625 20.5 10.265625 
Q 23.53125 6.390625 29.59375 6.390625 
Q 36.859375 6.390625 41.078125 11.03125 
Q 45.3125 15.671875 45.3125 23.6875 
L 45.3125 54.6875 
L 54.296875 54.6875 
L 54.296875 0 
L 45.3125 0 
L 45.3125 8.40625 
Q 42.046875 3.421875 37.71875 1 
Q 33.40625 -1.421875 27.6875 -1.421875 
Q 18.265625 -1.421875 13.375 4.4375 
Q 8.5 10.296875 8.5 21.578125 
z
M 31.109375 56 
z
" id="DejaVuSans-117"/>
      <path d="M 56.203125 29.59375 
L 56.203125 25.203125 
L 14.890625 25.203125 
Q 15.484375 15.921875 20.484375 11.0625 
Q 25.484375 6.203125 34.421875 6.203125 
Q 39.59375 6.203125 44.453125 7.46875 
Q 49.3125 8.734375 54.109375 11.28125 
L 54.109375 2.78125 
Q 49.265625 0.734375 44.1875 -0.34375 
Q 39.109375 -1.421875 33.890625 -1.421875 
Q 20.796875 -1.421875 13.15625 6.1875 
Q 5.515625 13.8125 5.515625 26.8125 
Q 5.515625 40.234375 12.765625 48.109375 
Q 20.015625 56 32.328125 56 
Q 43.359375 56 49.78125 48.890625 
Q 56.203125 41.796875 56.203125 29.59375 
z
M 47.21875 32.234375 
Q 47.125 39.59375 43.09375 43.984375 
Q 39.0625 48.390625 32.421875 48.390625 
Q 24.90625 48.390625 20.390625 44.140625 
Q 15.875 39.890625 15.1875 32.171875 
z
" id="DejaVuSans-101"/>
      <path d="M 44.28125 53.078125 
L 44.28125 44.578125 
Q 40.484375 46.53125 36.375 47.5 
Q 32.28125 48.484375 27.875 48.484375 
Q 21.1875 48.484375 17.84375 46.4375 
Q 14.5 44.390625 14.5 40.28125 
Q 14.5 37.15625 16.890625 35.375 
Q 19.28125 33.59375 26.515625 31.984375 
L 29.59375 31.296875 
Q 39.15625 29.25 43.1875 25.515625 
Q 47.21875 21.78125 47.21875 15.09375 
Q 47.21875 7.46875 41.1875 3.015625 
Q 35.15625 -1.421875 24.609375 -1.421875 
Q 20.21875 -1.421875 15.453125 -0.5625 
Q 10.6875 0.296875 5.421875 2 
L 5.421875 11.28125 
Q 10.40625 8.6875 15.234375 7.390625 
Q 20.0625 6.109375 24.8125 6.109375 
Q 31.15625 6.109375 34.5625 8.28125 
Q 37.984375 10.453125 37.984375 14.40625 
Q 37.984375 18.0625 35.515625 20.015625 
Q 33.0625 21.96875 24.703125 23.78125 
L 21.578125 24.515625 
Q 13.234375 26.265625 9.515625 29.90625 
Q 5.8125 33.546875 5.8125 39.890625 
Q 5.8125 47.609375 11.28125 51.796875 
Q 16.75 56 26.8125 56 
Q 31.78125 56 36.171875 55.265625 
Q 40.578125 54.546875 44.28125 53.078125 
z
" id="DejaVuSans-115"/>
     </defs>
     <g transform="translate(310.163641 216.156563)scale(0.1 -0.1)">
      <use xlink:href="#DejaVuSans-118"/>
      <use x="59.179688" xlink:href="#DejaVuSans-97"/>
      <use x="120.458984" xlink:href="#DejaVuSans-108"/>
      <use x="148.242188" xlink:href="#DejaVuSans-117"/>
      <use x="211.621094" xlink:href="#DejaVuSans-101"/>
      <use x="273.144531" xlink:href="#DejaVuSans-115"/>
     </g>
    </g>
   </g>
   <g id="matplotlib.axis_2">
    <g id="ytick_1">
     <g id="line2d_6">
      <defs>
       <path d="M 0 0 
L -3.5 0 
" id="mf2002ec66d" style="stroke:#000000;stroke-width:0.8;"/>
      </defs>
      <g>
       <use style="stroke:#000000;stroke-width:0.8;" x="20.5625" xlink:href="#mf2002ec66d" y="187.88"/>
      </g>
     </g>
     <g id="text_7">
      <!-- 0 -->
      <g transform="translate(7.2 191.679219)scale(0.1 -0.1)">
       <use xlink:href="#DejaVuSans-48"/>
      </g>
     </g>
    </g>
    <g id="ytick_2">
     <g id="line2d_7">
      <g>
       <use style="stroke:#000000;stroke-width:0.8;" x="20.5625" xlink:href="#mf2002ec66d" y="154.059079"/>
      </g>
     </g>
     <g id="text_8">
      <!-- 1 -->
      <defs>
       <path d="M 12.40625 8.296875 
L 28.515625 8.296875 
L 28.515625 63.921875 
L 10.984375 60.40625 
L 10.984375 69.390625 
L 28.421875 72.90625 
L 38.28125 72.90625 
L 38.28125 8.296875 
L 54.390625 8.296875 
L 54.390625 0 
L 12.40625 0 
z
" id="DejaVuSans-49"/>
      </defs>
      <g transform="translate(7.2 157.858298)scale(0.1 -0.1)">
       <use xlink:href="#DejaVuSans-49"/>
      </g>
     </g>
    </g>
    <g id="ytick_3">
     <g id="line2d_8">
      <g>
       <use style="stroke:#000000;stroke-width:0.8;" x="20.5625" xlink:href="#mf2002ec66d" y="120.238158"/>
      </g>
     </g>
     <g id="text_9">
      <!-- 2 -->
      <g transform="translate(7.2 124.037376)scale(0.1 -0.1)">
       <use xlink:href="#DejaVuSans-50"/>
      </g>
     </g>
    </g>
    <g id="ytick_4">
     <g id="line2d_9">
      <g>
       <use style="stroke:#000000;stroke-width:0.8;" x="20.5625" xlink:href="#mf2002ec66d" y="86.417236"/>
      </g>
     </g>
     <g id="text_10">
      <!-- 3 -->
      <defs>
       <path d="M 40.578125 39.3125 
Q 47.65625 37.796875 51.625 33 
Q 55.609375 28.21875 55.609375 21.1875 
Q 55.609375 10.40625 48.1875 4.484375 
Q 40.765625 -1.421875 27.09375 -1.421875 
Q 22.515625 -1.421875 17.65625 -0.515625 
Q 12.796875 0.390625 7.625 2.203125 
L 7.625 11.71875 
Q 11.71875 9.328125 16.59375 8.109375 
Q 21.484375 6.890625 26.8125 6.890625 
Q 36.078125 6.890625 40.9375 10.546875 
Q 45.796875 14.203125 45.796875 21.1875 
Q 45.796875 27.640625 41.28125 31.265625 
Q 36.765625 34.90625 28.71875 34.90625 
L 20.21875 34.90625 
L 20.21875 43.015625 
L 29.109375 43.015625 
Q 36.375 43.015625 40.234375 45.921875 
Q 44.09375 48.828125 44.09375 54.296875 
Q 44.09375 59.90625 40.109375 62.90625 
Q 36.140625 65.921875 28.71875 65.921875 
Q 24.65625 65.921875 20.015625 65.03125 
Q 15.375 64.15625 9.8125 62.3125 
L 9.8125 71.09375 
Q 15.4375 72.65625 20.34375 73.4375 
Q 25.25 74.21875 29.59375 74.21875 
Q 40.828125 74.21875 47.359375 69.109375 
Q 53.90625 64.015625 53.90625 55.328125 
Q 53.90625 49.265625 50.4375 45.09375 
Q 46.96875 40.921875 40.578125 39.3125 
z
" id="DejaVuSans-51"/>
      </defs>
      <g transform="translate(7.2 90.216455)scale(0.1 -0.1)">
       <use xlink:href="#DejaVuSans-51"/>
      </g>
     </g>
    </g>
    <g id="ytick_5">
     <g id="line2d_10">
      <g>
       <use style="stroke:#000000;stroke-width:0.8;" x="20.5625" xlink:href="#mf2002ec66d" y="52.596315"/>
      </g>
     </g>
     <g id="text_11">
      <!-- 4 -->
      <g transform="translate(7.2 56.395534)scale(0.1 -0.1)">
       <use xlink:href="#DejaVuSans-52"/>
      </g>
     </g>
    </g>
   </g>
   <g id="LineCollection_1">
    <path clip-path="url(#p3fd125daae)" d="M 306.731532 187.88 
L 306.731532 179.71 
" style="fill:none;stroke:#1f77b4;"/>
    <path clip-path="url(#p3fd125daae)" d="M 306.73153 187.88 
L 306.73153 179.71 
" style="fill:none;stroke:#1f77b4;"/>
    <path clip-path="url(#p3fd125daae)" d="M 306.731534 187.88 
L 306.731534 179.71 
" style="fill:none;stroke:#1f77b4;"/>
    <path clip-path="url(#p3fd125daae)" d="M 306.731525 187.88 
L 306.731525 179.71 
" style="fill:none;stroke:#1f77b4;"/>
    <path clip-path="url(#p3fd125daae)" d="M 306.731544 187.88 
L 306.731544 179.71 
" style="fill:none;stroke:#1f77b4;"/>
    <path clip-path="url(#p3fd125daae)" d="M 306.731509 187.88 
L 306.731509 179.71 
" style="fill:none;stroke:#1f77b4;"/>
    <path clip-path="url(#p3fd125daae)" d="M 306.731561 187.88 
L 306.731561 179.71 
" style="fill:none;stroke:#1f77b4;"/>
    <path clip-path="url(#p3fd125daae)" d="M 306.731534 187.88 
L 306.731534 179.71 
" style="fill:none;stroke:#1f77b4;"/>
    <path clip-path="url(#p3fd125daae)" d="M 306.731321 187.88 
L 306.731321 179.71 
" style="fill:none;stroke:#1f77b4;"/>
    <path clip-path="url(#p3fd125daae)" d="M 306.732611 187.88 
L 306.732611 179.71 
" style="fill:none;stroke:#1f77b4;"/>
    <path clip-path="url(#p3fd125daae)" d="M 306.727264 187.88 
L 306.727264 179.71 
" style="fill:none;stroke:#1f77b4;"/>
    <path clip-path="url(#p3fd125daae)" d="M 306.745464 187.88 
L 306.745464 179.71 
" style="fill:none;stroke:#1f77b4;"/>
    <path clip-path="url(#p3fd125daae)" d="M 306.699525 187.88 
L 306.699525 179.71 
" style="fill:none;stroke:#1f77b4;"/>
    <path clip-path="url(#p3fd125daae)" d="M 306.453837 187.88 
L 306.453837 179.71 
" style="fill:none;stroke:#1f77b4;"/>
    <path clip-path="url(#p3fd125daae)" d="M 299.971622 187.88 
L 299.971622 179.71 
" style="fill:none;stroke:#1f77b4;"/>
    <path clip-path="url(#p3fd125daae)" d="M 284.500375 187.88 
L 284.500375 179.71 
" style="fill:none;stroke:#1f77b4;"/>
    <path clip-path="url(#p3fd125daae)" d="M 267.306071 187.88 
L 267.306071 179.71 
" style="fill:none;stroke:#1f77b4;"/>
    <path clip-path="url(#p3fd125daae)" d="M 247.828493 187.88 
L 247.828493 179.71 
" style="fill:none;stroke:#1f77b4;"/>
    <path clip-path="url(#p3fd125daae)" d="M 229.264759 187.88 
L 229.264759 179.71 
" style="fill:none;stroke:#1f77b4;"/>
    <path clip-path="url(#p3fd125daae)" d="M 222.030868 187.88 
L 222.030868 179.71 
" style="fill:none;stroke:#1f77b4;"/>
    <path clip-path="url(#p3fd125daae)" d="M 221.49689 187.88 
L 221.49689 179.71 
" style="fill:none;stroke:#1f77b4;"/>
    <path clip-path="url(#p3fd125daae)" d="M 235.202943 187.88 
L 235.202943 179.71 
" style="fill:none;stroke:#1f77b4;"/>
    <path clip-path="url(#p3fd125daae)" d="M 286.983704 187.88 
L 286.983704 179.71 
" style="fill:none;stroke:#1f77b4;"/>
    <path clip-path="url(#p3fd125daae)" d="M 355.243169 187.88 
L 355.243169 179.71 
" style="fill:none;stroke:#1f77b4;"/>
    <path clip-path="url(#p3fd125daae)" d="M 412.187315 187.88 
L 412.187315 179.71 
" style="fill:none;stroke:#1f77b4;"/>
    <path clip-path="url(#p3fd125daae)" d="M 442.41574 187.88 
L 442.41574 179.71 
" style="fill:none;stroke:#1f77b4;"/>
    <path clip-path="url(#p3fd125daae)" d="M 431.689915 187.88 
L 431.689915 179.71 
" style="fill:none;stroke:#1f77b4;"/>
    <path clip-path="url(#p3fd125daae)" d="M 393.670459 187.88 
L 393.670459 179.71 
" style="fill:none;stroke:#1f77b4;"/>
    <path clip-path="url(#p3fd125daae)" d="M 359.661277 187.88 
L 359.661277 179.71 
" style="fill:none;stroke:#1f77b4;"/>
    <path clip-path="url(#p3fd125daae)" d="M 340.241131 187.88 
L 340.241131 179.71 
" style="fill:none;stroke:#1f77b4;"/>
    <path clip-path="url(#p3fd125daae)" d="M 330.069943 187.88 
L 330.069943 179.71 
" style="fill:none;stroke:#1f77b4;"/>
    <path clip-path="url(#p3fd125daae)" d="M 322.99544 187.88 
L 322.99544 179.71 
" style="fill:none;stroke:#1f77b4;"/>
    <path clip-path="url(#p3fd125daae)" d="M 316.426737 187.88 
L 316.426737 179.71 
" style="fill:none;stroke:#1f77b4;"/>
    <path clip-path="url(#p3fd125daae)" d="M 310.330378 187.88 
L 310.330378 179.71 
" style="fill:none;stroke:#1f77b4;"/>
    <path clip-path="url(#p3fd125daae)" d="M 305.385163 187.88 
L 305.385163 179.71 
" style="fill:none;stroke:#1f77b4;"/>
    <path clip-path="url(#p3fd125daae)" d="M 302.032416 187.88 
L 302.032416 179.71 
" style="fill:none;stroke:#1f77b4;"/>
    <path clip-path="url(#p3fd125daae)" d="M 300.262392 187.88 
L 300.262392 179.71 
" style="fill:none;stroke:#1f77b4;"/>
    <path clip-path="url(#p3fd125daae)" d="M 299.757083 187.88 
L 299.757083 179.71 
" style="fill:none;stroke:#1f77b4;"/>
    <path clip-path="url(#p3fd125daae)" d="M 300.093057 187.88 
L 300.093057 179.71 
" style="fill:none;stroke:#1f77b4;"/>
    <path clip-path="url(#p3fd125daae)" d="M 300.885244 187.88 
L 300.885244 179.71 
" style="fill:none;stroke:#1f77b4;"/>
    <path clip-path="url(#p3fd125daae)" d="M 301.85005 187.88 
L 301.85005 179.71 
" style="fill:none;stroke:#1f77b4;"/>
    <path clip-path="url(#p3fd125daae)" d="M 302.810793 187.88 
L 302.810793 179.71 
" style="fill:none;stroke:#1f77b4;"/>
    <path clip-path="url(#p3fd125daae)" d="M 303.674171 187.88 
L 303.674171 179.71 
" style="fill:none;stroke:#1f77b4;"/>
    <path clip-path="url(#p3fd125daae)" d="M 304.407411 187.88 
L 304.407411 179.71 
" style="fill:none;stroke:#1f77b4;"/>
    <path clip-path="url(#p3fd125daae)" d="M 304.989476 187.88 
L 304.989476 179.71 
" style="fill:none;stroke:#1f77b4;"/>
    <path clip-path="url(#p3fd125daae)" d="M 305.463136 187.88 
L 305.463136 179.71 
" style="fill:none;stroke:#1f77b4;"/>
    <path clip-path="url(#p3fd125daae)" d="M 306.040249 187.88 
L 306.040249 179.71 
" style="fill:none;stroke:#1f77b4;"/>
    <path clip-path="url(#p3fd125daae)" d="M 309.033976 187.88 
L 309.033976 179.71 
" style="fill:none;stroke:#1f77b4;"/>
    <path clip-path="url(#p3fd125daae)" d="M 312.836046 187.88 
L 312.836046 179.71 
" style="fill:none;stroke:#1f77b4;"/>
    <path clip-path="url(#p3fd125daae)" d="M 310.535455 187.88 
L 310.535455 179.71 
" style="fill:none;stroke:#1f77b4;"/>
    <path clip-path="url(#p3fd125daae)" d="M 305.268484 187.88 
L 305.268484 179.71 
" style="fill:none;stroke:#1f77b4;"/>
    <path clip-path="url(#p3fd125daae)" d="M 300.629799 187.88 
L 300.629799 179.71 
" style="fill:none;stroke:#1f77b4;"/>
    <path clip-path="url(#p3fd125daae)" d="M 289.9743 187.88 
L 289.9743 179.71 
" style="fill:none;stroke:#1f77b4;"/>
    <path clip-path="url(#p3fd125daae)" d="M 280.224658 187.88 
L 280.224658 179.71 
" style="fill:none;stroke:#1f77b4;"/>
    <path clip-path="url(#p3fd125daae)" d="M 286.168305 187.88 
L 286.168305 179.71 
" style="fill:none;stroke:#1f77b4;"/>
    <path clip-path="url(#p3fd125daae)" d="M 302.399052 187.88 
L 302.399052 179.71 
" style="fill:none;stroke:#1f77b4;"/>
    <path clip-path="url(#p3fd125daae)" d="M 337.684242 187.88 
L 337.684242 179.71 
" style="fill:none;stroke:#1f77b4;"/>
    <path clip-path="url(#p3fd125daae)" d="M 415.784811 187.88 
L 415.784811 179.71 
" style="fill:none;stroke:#1f77b4;"/>
    <path clip-path="url(#p3fd125daae)" d="M 505.753543 187.88 
L 505.753543 179.71 
" style="fill:none;stroke:#1f77b4;"/>
    <path clip-path="url(#p3fd125daae)" d="M 551.832556 187.88 
L 551.832556 179.71 
" style="fill:none;stroke:#1f77b4;"/>
    <path clip-path="url(#p3fd125daae)" d="M 530.220145 187.88 
L 530.220145 179.71 
" style="fill:none;stroke:#1f77b4;"/>
    <path clip-path="url(#p3fd125daae)" d="M 477.773612 187.88 
L 477.773612 179.71 
" style="fill:none;stroke:#1f77b4;"/>
    <path clip-path="url(#p3fd125daae)" d="M 432.311161 187.88 
L 432.311161 179.71 
" style="fill:none;stroke:#1f77b4;"/>
    <path clip-path="url(#p3fd125daae)" d="M 399.293218 187.88 
L 399.293218 179.71 
" style="fill:none;stroke:#1f77b4;"/>
    <path clip-path="url(#p3fd125daae)" d="M 393.504076 187.88 
L 393.504076 179.71 
" style="fill:none;stroke:#1f77b4;"/>
    <path clip-path="url(#p3fd125daae)" d="M 411.426743 187.88 
L 411.426743 179.71 
" style="fill:none;stroke:#1f77b4;"/>
    <path clip-path="url(#p3fd125daae)" d="M 416.598082 187.88 
L 416.598082 179.71 
" style="fill:none;stroke:#1f77b4;"/>
    <path clip-path="url(#p3fd125daae)" d="M 389.551901 187.88 
L 389.551901 179.71 
" style="fill:none;stroke:#1f77b4;"/>
    <path clip-path="url(#p3fd125daae)" d="M 363.108588 187.88 
L 363.108588 179.71 
" style="fill:none;stroke:#1f77b4;"/>
    <path clip-path="url(#p3fd125daae)" d="M 368.021865 187.88 
L 368.021865 179.71 
" style="fill:none;stroke:#1f77b4;"/>
    <path clip-path="url(#p3fd125daae)" d="M 386.500761 187.88 
L 386.500761 179.71 
" style="fill:none;stroke:#1f77b4;"/>
    <path clip-path="url(#p3fd125daae)" d="M 403.651243 187.88 
L 403.651243 179.71 
" style="fill:none;stroke:#1f77b4;"/>
    <path clip-path="url(#p3fd125daae)" d="M 425.95429 187.88 
L 425.95429 179.71 
" style="fill:none;stroke:#1f77b4;"/>
    <path clip-path="url(#p3fd125daae)" d="M 444.236813 187.88 
L 444.236813 179.71 
" style="fill:none;stroke:#1f77b4;"/>
    <path clip-path="url(#p3fd125daae)" d="M 454.624187 187.88 
L 454.624187 179.71 
" style="fill:none;stroke:#1f77b4;"/>
    <path clip-path="url(#p3fd125daae)" d="M 451.120056 187.88 
L 451.120056 179.71 
" style="fill:none;stroke:#1f77b4;"/>
    <path clip-path="url(#p3fd125daae)" d="M 423.650932 187.88 
L 423.650932 179.71 
" style="fill:none;stroke:#1f77b4;"/>
    <path clip-path="url(#p3fd125daae)" d="M 375.092828 187.88 
L 375.092828 179.71 
" style="fill:none;stroke:#1f77b4;"/>
    <path clip-path="url(#p3fd125daae)" d="M 318.652322 187.88 
L 318.652322 179.71 
" style="fill:none;stroke:#1f77b4;"/>
    <path clip-path="url(#p3fd125daae)" d="M 265.235502 187.88 
L 265.235502 179.71 
" style="fill:none;stroke:#1f77b4;"/>
    <path clip-path="url(#p3fd125daae)" d="M 227.399744 187.88 
L 227.399744 179.71 
" style="fill:none;stroke:#1f77b4;"/>
    <path clip-path="url(#p3fd125daae)" d="M 214.651107 187.88 
L 214.651107 179.71 
" style="fill:none;stroke:#1f77b4;"/>
    <path clip-path="url(#p3fd125daae)" d="M 229.369236 187.88 
L 229.369236 179.71 
" style="fill:none;stroke:#1f77b4;"/>
    <path clip-path="url(#p3fd125daae)" d="M 271.968791 187.88 
L 271.968791 179.71 
" style="fill:none;stroke:#1f77b4;"/>
    <path clip-path="url(#p3fd125daae)" d="M 331.270443 187.88 
L 331.270443 179.71 
" style="fill:none;stroke:#1f77b4;"/>
    <path clip-path="url(#p3fd125daae)" d="M 385.920554 187.88 
L 385.920554 179.71 
" style="fill:none;stroke:#1f77b4;"/>
    <path clip-path="url(#p3fd125daae)" d="M 421.406158 187.88 
L 421.406158 179.71 
" style="fill:none;stroke:#1f77b4;"/>
    <path clip-path="url(#p3fd125daae)" d="M 426.470906 187.88 
L 426.470906 179.71 
" style="fill:none;stroke:#1f77b4;"/>
    <path clip-path="url(#p3fd125daae)" d="M 404.751207 187.88 
L 404.751207 179.71 
" style="fill:none;stroke:#1f77b4;"/>
    <path clip-path="url(#p3fd125daae)" d="M 371.352902 187.88 
L 371.352902 179.71 
" style="fill:none;stroke:#1f77b4;"/>
    <path clip-path="url(#p3fd125daae)" d="M 337.508279 187.88 
L 337.508279 179.71 
" style="fill:none;stroke:#1f77b4;"/>
    <path clip-path="url(#p3fd125daae)" d="M 316.871725 187.88 
L 316.871725 179.71 
" style="fill:none;stroke:#1f77b4;"/>
    <path clip-path="url(#p3fd125daae)" d="M 328.242288 187.88 
L 328.242288 179.71 
" style="fill:none;stroke:#1f77b4;"/>
    <path clip-path="url(#p3fd125daae)" d="M 388.623368 187.88 
L 388.623368 179.71 
" style="fill:none;stroke:#1f77b4;"/>
    <path clip-path="url(#p3fd125daae)" d="M 476.786609 187.88 
L 476.786609 179.71 
" style="fill:none;stroke:#1f77b4;"/>
    <path clip-path="url(#p3fd125daae)" d="M 537.191468 187.88 
L 537.191468 179.71 
" style="fill:none;stroke:#1f77b4;"/>
    <path clip-path="url(#p3fd125daae)" d="M 541.90285 187.88 
L 541.90285 179.71 
" style="fill:none;stroke:#1f77b4;"/>
    <path clip-path="url(#p3fd125daae)" d="M 501.68231 187.88 
L 501.68231 179.71 
" style="fill:none;stroke:#1f77b4;"/>
    <path clip-path="url(#p3fd125daae)" d="M 440.968551 187.88 
L 440.968551 179.71 
" style="fill:none;stroke:#1f77b4;"/>
    <path clip-path="url(#p3fd125daae)" d="M 386.431309 187.88 
L 386.431309 179.71 
" style="fill:none;stroke:#1f77b4;"/>
    <path clip-path="url(#p3fd125daae)" d="M 349.994757 187.88 
L 349.994757 179.71 
" style="fill:none;stroke:#1f77b4;"/>
    <path clip-path="url(#p3fd125daae)" d="M 325.60813 187.88 
L 325.60813 179.71 
" style="fill:none;stroke:#1f77b4;"/>
    <path clip-path="url(#p3fd125daae)" d="M 307.536089 187.88 
L 307.536089 179.71 
" style="fill:none;stroke:#1f77b4;"/>
    <path clip-path="url(#p3fd125daae)" d="M 295.601463 187.88 
L 295.601463 179.71 
" style="fill:none;stroke:#1f77b4;"/>
    <path clip-path="url(#p3fd125daae)" d="M 294.763691 187.88 
L 294.763691 179.71 
" style="fill:none;stroke:#1f77b4;"/>
    <path clip-path="url(#p3fd125daae)" d="M 306.535577 187.88 
L 306.535577 179.71 
" style="fill:none;stroke:#1f77b4;"/>
    <path clip-path="url(#p3fd125daae)" d="M 322.527652 187.88 
L 322.527652 179.71 
" style="fill:none;stroke:#1f77b4;"/>
    <path clip-path="url(#p3fd125daae)" d="M 332.752031 187.88 
L 332.752031 179.71 
" style="fill:none;stroke:#1f77b4;"/>
    <path clip-path="url(#p3fd125daae)" d="M 334.294369 187.88 
L 334.294369 179.71 
" style="fill:none;stroke:#1f77b4;"/>
    <path clip-path="url(#p3fd125daae)" d="M 329.714246 187.88 
L 329.714246 179.71 
" style="fill:none;stroke:#1f77b4;"/>
    <path clip-path="url(#p3fd125daae)" d="M 322.81041 187.88 
L 322.81041 179.71 
" style="fill:none;stroke:#1f77b4;"/>
    <path clip-path="url(#p3fd125daae)" d="M 316.166985 187.88 
L 316.166985 179.71 
" style="fill:none;stroke:#1f77b4;"/>
    <path clip-path="url(#p3fd125daae)" d="M 310.881887 187.88 
L 310.881887 179.71 
" style="fill:none;stroke:#1f77b4;"/>
    <path clip-path="url(#p3fd125daae)" d="M 307.094322 187.88 
L 307.094322 179.71 
" style="fill:none;stroke:#1f77b4;"/>
    <path clip-path="url(#p3fd125daae)" d="M 304.539683 187.88 
L 304.539683 179.71 
" style="fill:none;stroke:#1f77b4;"/>
    <path clip-path="url(#p3fd125daae)" d="M 302.920337 187.88 
L 302.920337 179.71 
" style="fill:none;stroke:#1f77b4;"/>
    <path clip-path="url(#p3fd125daae)" d="M 302.026566 187.88 
L 302.026566 179.71 
" style="fill:none;stroke:#1f77b4;"/>
    <path clip-path="url(#p3fd125daae)" d="M 301.670832 187.88 
L 301.670832 179.71 
" style="fill:none;stroke:#1f77b4;"/>
    <path clip-path="url(#p3fd125daae)" d="M 301.754336 187.88 
L 301.754336 179.71 
" style="fill:none;stroke:#1f77b4;"/>
    <path clip-path="url(#p3fd125daae)" d="M 302.142567 187.88 
L 302.142567 179.71 
" style="fill:none;stroke:#1f77b4;"/>
    <path clip-path="url(#p3fd125daae)" d="M 302.721264 187.88 
L 302.721264 179.71 
" style="fill:none;stroke:#1f77b4;"/>
    <path clip-path="url(#p3fd125daae)" d="M 303.380225 187.88 
L 303.380225 179.71 
" style="fill:none;stroke:#1f77b4;"/>
    <path clip-path="url(#p3fd125daae)" d="M 304.217589 187.88 
L 304.217589 179.71 
" style="fill:none;stroke:#1f77b4;"/>
    <path clip-path="url(#p3fd125daae)" d="M 307.385212 187.88 
L 307.385212 179.71 
" style="fill:none;stroke:#1f77b4;"/>
    <path clip-path="url(#p3fd125daae)" d="M 321.629482 187.88 
L 321.629482 179.71 
" style="fill:none;stroke:#1f77b4;"/>
    <path clip-path="url(#p3fd125daae)" d="M 353.70615 187.88 
L 353.70615 179.71 
" style="fill:none;stroke:#1f77b4;"/>
    <path clip-path="url(#p3fd125daae)" d="M 386.342101 187.88 
L 386.342101 179.71 
" style="fill:none;stroke:#1f77b4;"/>
    <path clip-path="url(#p3fd125daae)" d="M 396.590347 187.88 
L 396.590347 179.71 
" style="fill:none;stroke:#1f77b4;"/>
    <path clip-path="url(#p3fd125daae)" d="M 384.340241 187.88 
L 384.340241 179.71 
" style="fill:none;stroke:#1f77b4;"/>
    <path clip-path="url(#p3fd125daae)" d="M 371.522778 187.88 
L 371.522778 179.71 
" style="fill:none;stroke:#1f77b4;"/>
    <path clip-path="url(#p3fd125daae)" d="M 374.132304 187.88 
L 374.132304 179.71 
" style="fill:none;stroke:#1f77b4;"/>
    <path clip-path="url(#p3fd125daae)" d="M 377.638923 187.88 
L 377.638923 179.71 
" style="fill:none;stroke:#1f77b4;"/>
    <path clip-path="url(#p3fd125daae)" d="M 366.930688 187.88 
L 366.930688 179.71 
" style="fill:none;stroke:#1f77b4;"/>
    <path clip-path="url(#p3fd125daae)" d="M 364.689143 187.88 
L 364.689143 179.71 
" style="fill:none;stroke:#1f77b4;"/>
    <path clip-path="url(#p3fd125daae)" d="M 377.396911 187.88 
L 377.396911 179.71 
" style="fill:none;stroke:#1f77b4;"/>
    <path clip-path="url(#p3fd125daae)" d="M 391.18414 187.88 
L 391.18414 179.71 
" style="fill:none;stroke:#1f77b4;"/>
    <path clip-path="url(#p3fd125daae)" d="M 408.192628 187.88 
L 408.192628 179.71 
" style="fill:none;stroke:#1f77b4;"/>
    <path clip-path="url(#p3fd125daae)" d="M 421.506183 187.88 
L 421.506183 179.71 
" style="fill:none;stroke:#1f77b4;"/>
    <path clip-path="url(#p3fd125daae)" d="M 410.577426 187.88 
L 410.577426 179.71 
" style="fill:none;stroke:#1f77b4;"/>
    <path clip-path="url(#p3fd125daae)" d="M 377.95744 187.88 
L 377.95744 179.71 
" style="fill:none;stroke:#1f77b4;"/>
    <path clip-path="url(#p3fd125daae)" d="M 340.773005 187.88 
L 340.773005 179.71 
" style="fill:none;stroke:#1f77b4;"/>
    <path clip-path="url(#p3fd125daae)" d="M 311.707606 187.88 
L 311.707606 179.71 
" style="fill:none;stroke:#1f77b4;"/>
    <path clip-path="url(#p3fd125daae)" d="M 294.491219 187.88 
L 294.491219 179.71 
" style="fill:none;stroke:#1f77b4;"/>
    <path clip-path="url(#p3fd125daae)" d="M 286.332322 187.88 
L 286.332322 179.71 
" style="fill:none;stroke:#1f77b4;"/>
    <path clip-path="url(#p3fd125daae)" d="M 283.53056 187.88 
L 283.53056 179.71 
" style="fill:none;stroke:#1f77b4;"/>
    <path clip-path="url(#p3fd125daae)" d="M 287.219576 187.88 
L 287.219576 179.71 
" style="fill:none;stroke:#1f77b4;"/>
    <path clip-path="url(#p3fd125daae)" d="M 288.475496 187.88 
L 288.475496 179.71 
" style="fill:none;stroke:#1f77b4;"/>
    <path clip-path="url(#p3fd125daae)" d="M 270.820385 187.88 
L 270.820385 179.71 
" style="fill:none;stroke:#1f77b4;"/>
    <path clip-path="url(#p3fd125daae)" d="M 241.816902 187.88 
L 241.816902 179.71 
" style="fill:none;stroke:#1f77b4;"/>
    <path clip-path="url(#p3fd125daae)" d="M 214.452464 187.88 
L 214.452464 179.71 
" style="fill:none;stroke:#1f77b4;"/>
    <path clip-path="url(#p3fd125daae)" d="M 185.404611 187.88 
L 185.404611 179.71 
" style="fill:none;stroke:#1f77b4;"/>
    <path clip-path="url(#p3fd125daae)" d="M 154.817111 187.88 
L 154.817111 179.71 
" style="fill:none;stroke:#1f77b4;"/>
    <path clip-path="url(#p3fd125daae)" d="M 133.082523 187.88 
L 133.082523 179.71 
" style="fill:none;stroke:#1f77b4;"/>
    <path clip-path="url(#p3fd125daae)" d="M 131.561432 187.88 
L 131.561432 179.71 
" style="fill:none;stroke:#1f77b4;"/>
    <path clip-path="url(#p3fd125daae)" d="M 153.934568 187.88 
L 153.934568 179.71 
" style="fill:none;stroke:#1f77b4;"/>
    <path clip-path="url(#p3fd125daae)" d="M 188.916548 187.88 
L 188.916548 179.71 
" style="fill:none;stroke:#1f77b4;"/>
    <path clip-path="url(#p3fd125daae)" d="M 210.325574 187.88 
L 210.325574 179.71 
" style="fill:none;stroke:#1f77b4;"/>
    <path clip-path="url(#p3fd125daae)" d="M 217.024854 187.88 
L 217.024854 179.71 
" style="fill:none;stroke:#1f77b4;"/>
    <path clip-path="url(#p3fd125daae)" d="M 226.871699 187.88 
L 226.871699 179.71 
" style="fill:none;stroke:#1f77b4;"/>
    <path clip-path="url(#p3fd125daae)" d="M 237.484188 187.88 
L 237.484188 179.71 
" style="fill:none;stroke:#1f77b4;"/>
    <path clip-path="url(#p3fd125daae)" d="M 232.013088 187.88 
L 232.013088 179.71 
" style="fill:none;stroke:#1f77b4;"/>
    <path clip-path="url(#p3fd125daae)" d="M 211.387463 187.88 
L 211.387463 179.71 
" style="fill:none;stroke:#1f77b4;"/>
    <path clip-path="url(#p3fd125daae)" d="M 194.527792 187.88 
L 194.527792 179.71 
" style="fill:none;stroke:#1f77b4;"/>
    <path clip-path="url(#p3fd125daae)" d="M 205.150633 187.88 
L 205.150633 179.71 
" style="fill:none;stroke:#1f77b4;"/>
    <path clip-path="url(#p3fd125daae)" d="M 240.14734 187.88 
L 240.14734 179.71 
" style="fill:none;stroke:#1f77b4;"/>
    <path clip-path="url(#p3fd125daae)" d="M 267.442152 187.88 
L 267.442152 179.71 
" style="fill:none;stroke:#1f77b4;"/>
    <path clip-path="url(#p3fd125daae)" d="M 266.726416 187.88 
L 266.726416 179.71 
" style="fill:none;stroke:#1f77b4;"/>
    <path clip-path="url(#p3fd125daae)" d="M 239.584674 187.88 
L 239.584674 179.71 
" style="fill:none;stroke:#1f77b4;"/>
    <path clip-path="url(#p3fd125daae)" d="M 205.567363 187.88 
L 205.567363 179.71 
" style="fill:none;stroke:#1f77b4;"/>
    <path clip-path="url(#p3fd125daae)" d="M 185.406787 187.88 
L 185.406787 179.71 
" style="fill:none;stroke:#1f77b4;"/>
    <path clip-path="url(#p3fd125daae)" d="M 179.62673 187.88 
L 179.62673 179.71 
" style="fill:none;stroke:#1f77b4;"/>
    <path clip-path="url(#p3fd125daae)" d="M 179.695393 187.88 
L 179.695393 179.71 
" style="fill:none;stroke:#1f77b4;"/>
    <path clip-path="url(#p3fd125daae)" d="M 183.641123 187.88 
L 183.641123 179.71 
" style="fill:none;stroke:#1f77b4;"/>
    <path clip-path="url(#p3fd125daae)" d="M 193.492938 187.88 
L 193.492938 179.71 
" style="fill:none;stroke:#1f77b4;"/>
    <path clip-path="url(#p3fd125daae)" d="M 203.899864 187.88 
L 203.899864 179.71 
" style="fill:none;stroke:#1f77b4;"/>
    <path clip-path="url(#p3fd125daae)" d="M 208.379466 187.88 
L 208.379466 179.71 
" style="fill:none;stroke:#1f77b4;"/>
    <path clip-path="url(#p3fd125daae)" d="M 211.283501 187.88 
L 211.283501 179.71 
" style="fill:none;stroke:#1f77b4;"/>
    <path clip-path="url(#p3fd125daae)" d="M 220.935349 187.88 
L 220.935349 179.71 
" style="fill:none;stroke:#1f77b4;"/>
    <path clip-path="url(#p3fd125daae)" d="M 238.655448 187.88 
L 238.655448 179.71 
" style="fill:none;stroke:#1f77b4;"/>
    <path clip-path="url(#p3fd125daae)" d="M 259.934487 187.88 
L 259.934487 179.71 
" style="fill:none;stroke:#1f77b4;"/>
    <path clip-path="url(#p3fd125daae)" d="M 283.46 187.88 
L 283.46 179.71 
" style="fill:none;stroke:#1f77b4;"/>
    <path clip-path="url(#p3fd125daae)" d="M 312.557368 187.88 
L 312.557368 179.71 
" style="fill:none;stroke:#1f77b4;"/>
    <path clip-path="url(#p3fd125daae)" d="M 341.748587 187.88 
L 341.748587 179.71 
" style="fill:none;stroke:#1f77b4;"/>
    <path clip-path="url(#p3fd125daae)" d="M 366.746123 187.88 
L 366.746123 179.71 
" style="fill:none;stroke:#1f77b4;"/>
    <path clip-path="url(#p3fd125daae)" d="M 383.423055 187.88 
L 383.423055 179.71 
" style="fill:none;stroke:#1f77b4;"/>
    <path clip-path="url(#p3fd125daae)" d="M 391.013738 187.88 
L 391.013738 179.71 
" style="fill:none;stroke:#1f77b4;"/>
    <path clip-path="url(#p3fd125daae)" d="M 402.718562 187.88 
L 402.718562 179.71 
" style="fill:none;stroke:#1f77b4;"/>
    <path clip-path="url(#p3fd125daae)" d="M 418.600693 187.88 
L 418.600693 179.71 
" style="fill:none;stroke:#1f77b4;"/>
    <path clip-path="url(#p3fd125daae)" d="M 423.839421 187.88 
L 423.839421 179.71 
" style="fill:none;stroke:#1f77b4;"/>
    <path clip-path="url(#p3fd125daae)" d="M 409.789217 187.88 
L 409.789217 179.71 
" style="fill:none;stroke:#1f77b4;"/>
    <path clip-path="url(#p3fd125daae)" d="M 378.903467 187.88 
L 378.903467 179.71 
" style="fill:none;stroke:#1f77b4;"/>
    <path clip-path="url(#p3fd125daae)" d="M 338.790719 187.88 
L 338.790719 179.71 
" style="fill:none;stroke:#1f77b4;"/>
    <path clip-path="url(#p3fd125daae)" d="M 300.804064 187.88 
L 300.804064 179.71 
" style="fill:none;stroke:#1f77b4;"/>
    <path clip-path="url(#p3fd125daae)" d="M 280.560611 187.88 
L 280.560611 179.71 
" style="fill:none;stroke:#1f77b4;"/>
    <path clip-path="url(#p3fd125daae)" d="M 282.291793 187.88 
L 282.291793 179.71 
" style="fill:none;stroke:#1f77b4;"/>
    <path clip-path="url(#p3fd125daae)" d="M 294.535383 187.88 
L 294.535383 179.71 
" style="fill:none;stroke:#1f77b4;"/>
    <path clip-path="url(#p3fd125daae)" d="M 305.671614 187.88 
L 305.671614 179.71 
" style="fill:none;stroke:#1f77b4;"/>
    <path clip-path="url(#p3fd125daae)" d="M 311.843883 187.88 
L 311.843883 179.71 
" style="fill:none;stroke:#1f77b4;"/>
    <path clip-path="url(#p3fd125daae)" d="M 310.570752 187.88 
L 310.570752 179.71 
" style="fill:none;stroke:#1f77b4;"/>
    <path clip-path="url(#p3fd125daae)" d="M 301.295738 187.88 
L 301.295738 179.71 
" style="fill:none;stroke:#1f77b4;"/>
    <path clip-path="url(#p3fd125daae)" d="M 290.77601 187.88 
L 290.77601 179.71 
" style="fill:none;stroke:#1f77b4;"/>
    <path clip-path="url(#p3fd125daae)" d="M 288.288957 187.88 
L 288.288957 179.71 
" style="fill:none;stroke:#1f77b4;"/>
    <path clip-path="url(#p3fd125daae)" d="M 300.689315 187.88 
L 300.689315 179.71 
" style="fill:none;stroke:#1f77b4;"/>
    <path clip-path="url(#p3fd125daae)" d="M 340.970918 187.88 
L 340.970918 179.71 
" style="fill:none;stroke:#1f77b4;"/>
    <path clip-path="url(#p3fd125daae)" d="M 401.158079 187.88 
L 401.158079 179.71 
" style="fill:none;stroke:#1f77b4;"/>
    <path clip-path="url(#p3fd125daae)" d="M 450.871228 187.88 
L 450.871228 179.71 
" style="fill:none;stroke:#1f77b4;"/>
    <path clip-path="url(#p3fd125daae)" d="M 484.602426 187.88 
L 484.602426 179.71 
" style="fill:none;stroke:#1f77b4;"/>
    <path clip-path="url(#p3fd125daae)" d="M 508.193176 187.88 
L 508.193176 179.71 
" style="fill:none;stroke:#1f77b4;"/>
    <path clip-path="url(#p3fd125daae)" d="M 511.663162 187.88 
L 511.663162 179.71 
" style="fill:none;stroke:#1f77b4;"/>
    <path clip-path="url(#p3fd125daae)" d="M 490.295979 187.88 
L 490.295979 179.71 
" style="fill:none;stroke:#1f77b4;"/>
    <path clip-path="url(#p3fd125daae)" d="M 451.365596 187.88 
L 451.365596 179.71 
" style="fill:none;stroke:#1f77b4;"/>
    <path clip-path="url(#p3fd125daae)" d="M 403.623974 187.88 
L 403.623974 179.71 
" style="fill:none;stroke:#1f77b4;"/>
    <path clip-path="url(#p3fd125daae)" d="M 356.394382 187.88 
L 356.394382 179.71 
" style="fill:none;stroke:#1f77b4;"/>
    <path clip-path="url(#p3fd125daae)" d="M 316.343056 187.88 
L 316.343056 179.71 
" style="fill:none;stroke:#1f77b4;"/>
    <path clip-path="url(#p3fd125daae)" d="M 285.306745 187.88 
L 285.306745 179.71 
" style="fill:none;stroke:#1f77b4;"/>
    <path clip-path="url(#p3fd125daae)" d="M 265.119028 187.88 
L 265.119028 179.71 
" style="fill:none;stroke:#1f77b4;"/>
    <path clip-path="url(#p3fd125daae)" d="M 256.252046 187.88 
L 256.252046 179.71 
" style="fill:none;stroke:#1f77b4;"/>
    <path clip-path="url(#p3fd125daae)" d="M 254.27305 187.88 
L 254.27305 179.71 
" style="fill:none;stroke:#1f77b4;"/>
    <path clip-path="url(#p3fd125daae)" d="M 252.647545 187.88 
L 252.647545 179.71 
" style="fill:none;stroke:#1f77b4;"/>
    <path clip-path="url(#p3fd125daae)" d="M 247.02873 187.88 
L 247.02873 179.71 
" style="fill:none;stroke:#1f77b4;"/>
    <path clip-path="url(#p3fd125daae)" d="M 240.374674 187.88 
L 240.374674 179.71 
" style="fill:none;stroke:#1f77b4;"/>
    <path clip-path="url(#p3fd125daae)" d="M 240.973133 187.88 
L 240.973133 179.71 
" style="fill:none;stroke:#1f77b4;"/>
    <path clip-path="url(#p3fd125daae)" d="M 256.645747 187.88 
L 256.645747 179.71 
" style="fill:none;stroke:#1f77b4;"/>
    <path clip-path="url(#p3fd125daae)" d="M 283.066662 187.88 
L 283.066662 179.71 
" style="fill:none;stroke:#1f77b4;"/>
    <path clip-path="url(#p3fd125daae)" d="M 302.21927 187.88 
L 302.21927 179.71 
" style="fill:none;stroke:#1f77b4;"/>
    <path clip-path="url(#p3fd125daae)" d="M 304.261062 187.88 
L 304.261062 179.71 
" style="fill:none;stroke:#1f77b4;"/>
    <path clip-path="url(#p3fd125daae)" d="M 291.244061 187.88 
L 291.244061 179.71 
" style="fill:none;stroke:#1f77b4;"/>
    <path clip-path="url(#p3fd125daae)" d="M 272.60694 187.88 
L 272.60694 179.71 
" style="fill:none;stroke:#1f77b4;"/>
    <path clip-path="url(#p3fd125daae)" d="M 260.150589 187.88 
L 260.150589 179.71 
" style="fill:none;stroke:#1f77b4;"/>
    <path clip-path="url(#p3fd125daae)" d="M 256.110314 187.88 
L 256.110314 179.71 
" style="fill:none;stroke:#1f77b4;"/>
    <path clip-path="url(#p3fd125daae)" d="M 249.032709 187.88 
L 249.032709 179.71 
" style="fill:none;stroke:#1f77b4;"/>
    <path clip-path="url(#p3fd125daae)" d="M 234.440904 187.88 
L 234.440904 179.71 
" style="fill:none;stroke:#1f77b4;"/>
    <path clip-path="url(#p3fd125daae)" d="M 222.668744 187.88 
L 222.668744 179.71 
" style="fill:none;stroke:#1f77b4;"/>
    <path clip-path="url(#p3fd125daae)" d="M 215.426234 187.88 
L 215.426234 179.71 
" style="fill:none;stroke:#1f77b4;"/>
    <path clip-path="url(#p3fd125daae)" d="M 200.430894 187.88 
L 200.430894 179.71 
" style="fill:none;stroke:#1f77b4;"/>
    <path clip-path="url(#p3fd125daae)" d="M 181.036774 187.88 
L 181.036774 179.71 
" style="fill:none;stroke:#1f77b4;"/>
    <path clip-path="url(#p3fd125daae)" d="M 168.611898 187.88 
L 168.611898 179.71 
" style="fill:none;stroke:#1f77b4;"/>
    <path clip-path="url(#p3fd125daae)" d="M 163.597531 187.88 
L 163.597531 179.71 
" style="fill:none;stroke:#1f77b4;"/>
    <path clip-path="url(#p3fd125daae)" d="M 165.924505 187.88 
L 165.924505 179.71 
" style="fill:none;stroke:#1f77b4;"/>
    <path clip-path="url(#p3fd125daae)" d="M 181.954705 187.88 
L 181.954705 179.71 
" style="fill:none;stroke:#1f77b4;"/>
    <path clip-path="url(#p3fd125daae)" d="M 216.351864 187.88 
L 216.351864 179.71 
" style="fill:none;stroke:#1f77b4;"/>
    <path clip-path="url(#p3fd125daae)" d="M 262.612512 187.88 
L 262.612512 179.71 
" style="fill:none;stroke:#1f77b4;"/>
    <path clip-path="url(#p3fd125daae)" d="M 304.117987 187.88 
L 304.117987 179.71 
" style="fill:none;stroke:#1f77b4;"/>
    <path clip-path="url(#p3fd125daae)" d="M 322.822278 187.88 
L 322.822278 179.71 
" style="fill:none;stroke:#1f77b4;"/>
    <path clip-path="url(#p3fd125daae)" d="M 317.652238 187.88 
L 317.652238 179.71 
" style="fill:none;stroke:#1f77b4;"/>
    <path clip-path="url(#p3fd125daae)" d="M 302.679221 187.88 
L 302.679221 179.71 
" style="fill:none;stroke:#1f77b4;"/>
    <path clip-path="url(#p3fd125daae)" d="M 288.71425 187.88 
L 288.71425 179.71 
" style="fill:none;stroke:#1f77b4;"/>
    <path clip-path="url(#p3fd125daae)" d="M 279.748796 187.88 
L 279.748796 179.71 
" style="fill:none;stroke:#1f77b4;"/>
    <path clip-path="url(#p3fd125daae)" d="M 277.321515 187.88 
L 277.321515 179.71 
" style="fill:none;stroke:#1f77b4;"/>
    <path clip-path="url(#p3fd125daae)" d="M 280.223273 187.88 
L 280.223273 179.71 
" style="fill:none;stroke:#1f77b4;"/>
    <path clip-path="url(#p3fd125daae)" d="M 286.267533 187.88 
L 286.267533 179.71 
" style="fill:none;stroke:#1f77b4;"/>
    <path clip-path="url(#p3fd125daae)" d="M 288.654456 187.88 
L 288.654456 179.71 
" style="fill:none;stroke:#1f77b4;"/>
    <path clip-path="url(#p3fd125daae)" d="M 273.635072 187.88 
L 273.635072 179.71 
" style="fill:none;stroke:#1f77b4;"/>
    <path clip-path="url(#p3fd125daae)" d="M 244.444728 187.88 
L 244.444728 179.71 
" style="fill:none;stroke:#1f77b4;"/>
    <path clip-path="url(#p3fd125daae)" d="M 220.624016 187.88 
L 220.624016 179.71 
" style="fill:none;stroke:#1f77b4;"/>
    <path clip-path="url(#p3fd125daae)" d="M 207.830314 187.88 
L 207.830314 179.71 
" style="fill:none;stroke:#1f77b4;"/>
    <path clip-path="url(#p3fd125daae)" d="M 202.594413 187.88 
L 202.594413 179.71 
" style="fill:none;stroke:#1f77b4;"/>
    <path clip-path="url(#p3fd125daae)" d="M 205.500322 187.88 
L 205.500322 179.71 
" style="fill:none;stroke:#1f77b4;"/>
    <path clip-path="url(#p3fd125daae)" d="M 215.746118 187.88 
L 215.746118 179.71 
" style="fill:none;stroke:#1f77b4;"/>
    <path clip-path="url(#p3fd125daae)" d="M 231.549783 187.88 
L 231.549783 179.71 
" style="fill:none;stroke:#1f77b4;"/>
    <path clip-path="url(#p3fd125daae)" d="M 252.032568 187.88 
L 252.032568 179.71 
" style="fill:none;stroke:#1f77b4;"/>
    <path clip-path="url(#p3fd125daae)" d="M 275.263428 187.88 
L 275.263428 179.71 
" style="fill:none;stroke:#1f77b4;"/>
    <path clip-path="url(#p3fd125daae)" d="M 296.208098 187.88 
L 296.208098 179.71 
" style="fill:none;stroke:#1f77b4;"/>
    <path clip-path="url(#p3fd125daae)" d="M 310.816787 187.88 
L 310.816787 179.71 
" style="fill:none;stroke:#1f77b4;"/>
    <path clip-path="url(#p3fd125daae)" d="M 312.718096 187.88 
L 312.718096 179.71 
" style="fill:none;stroke:#1f77b4;"/>
    <path clip-path="url(#p3fd125daae)" d="M 292.479179 187.88 
L 292.479179 179.71 
" style="fill:none;stroke:#1f77b4;"/>
    <path clip-path="url(#p3fd125daae)" d="M 249.881552 187.88 
L 249.881552 179.71 
" style="fill:none;stroke:#1f77b4;"/>
    <path clip-path="url(#p3fd125daae)" d="M 203.753283 187.88 
L 203.753283 179.71 
" style="fill:none;stroke:#1f77b4;"/>
    <path clip-path="url(#p3fd125daae)" d="M 177.531366 187.88 
L 177.531366 179.71 
" style="fill:none;stroke:#1f77b4;"/>
    <path clip-path="url(#p3fd125daae)" d="M 177.725578 187.88 
L 177.725578 179.71 
" style="fill:none;stroke:#1f77b4;"/>
    <path clip-path="url(#p3fd125daae)" d="M 192.415482 187.88 
L 192.415482 179.71 
" style="fill:none;stroke:#1f77b4;"/>
    <path clip-path="url(#p3fd125daae)" d="M 209.210077 187.88 
L 209.210077 179.71 
" style="fill:none;stroke:#1f77b4;"/>
    <path clip-path="url(#p3fd125daae)" d="M 228.06897 187.88 
L 228.06897 179.71 
" style="fill:none;stroke:#1f77b4;"/>
    <path clip-path="url(#p3fd125daae)" d="M 249.506886 187.88 
L 249.506886 179.71 
" style="fill:none;stroke:#1f77b4;"/>
    <path clip-path="url(#p3fd125daae)" d="M 270.573838 187.88 
L 270.573838 179.71 
" style="fill:none;stroke:#1f77b4;"/>
    <path clip-path="url(#p3fd125daae)" d="M 288.497817 187.88 
L 288.497817 179.71 
" style="fill:none;stroke:#1f77b4;"/>
    <path clip-path="url(#p3fd125daae)" d="M 301.988557 187.88 
L 301.988557 179.71 
" style="fill:none;stroke:#1f77b4;"/>
    <path clip-path="url(#p3fd125daae)" d="M 311.164736 187.88 
L 311.164736 179.71 
" style="fill:none;stroke:#1f77b4;"/>
    <path clip-path="url(#p3fd125daae)" d="M 314.606288 187.88 
L 314.606288 179.71 
" style="fill:none;stroke:#1f77b4;"/>
    <path clip-path="url(#p3fd125daae)" d="M 306.643998 187.88 
L 306.643998 179.71 
" style="fill:none;stroke:#1f77b4;"/>
    <path clip-path="url(#p3fd125daae)" d="M 285.340793 187.88 
L 285.340793 179.71 
" style="fill:none;stroke:#1f77b4;"/>
    <path clip-path="url(#p3fd125daae)" d="M 258.648914 187.88 
L 258.648914 179.71 
" style="fill:none;stroke:#1f77b4;"/>
    <path clip-path="url(#p3fd125daae)" d="M 231.601564 187.88 
L 231.601564 179.71 
" style="fill:none;stroke:#1f77b4;"/>
    <path clip-path="url(#p3fd125daae)" d="M 206.000046 187.88 
L 206.000046 179.71 
" style="fill:none;stroke:#1f77b4;"/>
    <path clip-path="url(#p3fd125daae)" d="M 190.408378 187.88 
L 190.408378 179.71 
" style="fill:none;stroke:#1f77b4;"/>
    <path clip-path="url(#p3fd125daae)" d="M 188.525853 187.88 
L 188.525853 179.71 
" style="fill:none;stroke:#1f77b4;"/>
    <path clip-path="url(#p3fd125daae)" d="M 198.287841 187.88 
L 198.287841 179.71 
" style="fill:none;stroke:#1f77b4;"/>
    <path clip-path="url(#p3fd125daae)" d="M 222.276784 187.88 
L 222.276784 179.71 
" style="fill:none;stroke:#1f77b4;"/>
    <path clip-path="url(#p3fd125daae)" d="M 260.204892 187.88 
L 260.204892 179.71 
" style="fill:none;stroke:#1f77b4;"/>
    <path clip-path="url(#p3fd125daae)" d="M 292.367946 187.88 
L 292.367946 179.71 
" style="fill:none;stroke:#1f77b4;"/>
    <path clip-path="url(#p3fd125daae)" d="M 302.545039 187.88 
L 302.545039 179.71 
" style="fill:none;stroke:#1f77b4;"/>
    <path clip-path="url(#p3fd125daae)" d="M 289.519971 187.88 
L 289.519971 179.71 
" style="fill:none;stroke:#1f77b4;"/>
    <path clip-path="url(#p3fd125daae)" d="M 257.094587 187.88 
L 257.094587 179.71 
" style="fill:none;stroke:#1f77b4;"/>
    <path clip-path="url(#p3fd125daae)" d="M 215.174048 187.88 
L 215.174048 179.71 
" style="fill:none;stroke:#1f77b4;"/>
    <path clip-path="url(#p3fd125daae)" d="M 176.658273 187.88 
L 176.658273 179.71 
" style="fill:none;stroke:#1f77b4;"/>
    <path clip-path="url(#p3fd125daae)" d="M 146.509438 187.88 
L 146.509438 179.71 
" style="fill:none;stroke:#1f77b4;"/>
    <path clip-path="url(#p3fd125daae)" d="M 123.757382 187.88 
L 123.757382 179.71 
" style="fill:none;stroke:#1f77b4;"/>
    <path clip-path="url(#p3fd125daae)" d="M 106.746122 187.88 
L 106.746122 179.71 
" style="fill:none;stroke:#1f77b4;"/>
    <path clip-path="url(#p3fd125daae)" d="M 100.588654 187.88 
L 100.588654 179.71 
" style="fill:none;stroke:#1f77b4;"/>
    <path clip-path="url(#p3fd125daae)" d="M 113.878044 187.88 
L 113.878044 179.71 
" style="fill:none;stroke:#1f77b4;"/>
    <path clip-path="url(#p3fd125daae)" d="M 145.727233 187.88 
L 145.727233 179.71 
" style="fill:none;stroke:#1f77b4;"/>
    <path clip-path="url(#p3fd125daae)" d="M 187.148214 187.88 
L 187.148214 179.71 
" style="fill:none;stroke:#1f77b4;"/>
    <path clip-path="url(#p3fd125daae)" d="M 228.483019 187.88 
L 228.483019 179.71 
" style="fill:none;stroke:#1f77b4;"/>
    <path clip-path="url(#p3fd125daae)" d="M 263.494867 187.88 
L 263.494867 179.71 
" style="fill:none;stroke:#1f77b4;"/>
    <path clip-path="url(#p3fd125daae)" d="M 291.287985 187.88 
L 291.287985 179.71 
" style="fill:none;stroke:#1f77b4;"/>
    <path clip-path="url(#p3fd125daae)" d="M 318.108053 187.88 
L 318.108053 179.71 
" style="fill:none;stroke:#1f77b4;"/>
    <path clip-path="url(#p3fd125daae)" d="M 344.083244 187.88 
L 344.083244 179.71 
" style="fill:none;stroke:#1f77b4;"/>
    <path clip-path="url(#p3fd125daae)" d="M 361.591734 187.88 
L 361.591734 179.71 
" style="fill:none;stroke:#1f77b4;"/>
    <path clip-path="url(#p3fd125daae)" d="M 368.350633 187.88 
L 368.350633 179.71 
" style="fill:none;stroke:#1f77b4;"/>
    <path clip-path="url(#p3fd125daae)" d="M 368.897185 187.88 
L 368.897185 179.71 
" style="fill:none;stroke:#1f77b4;"/>
    <path clip-path="url(#p3fd125daae)" d="M 365.775604 187.88 
L 365.775604 179.71 
" style="fill:none;stroke:#1f77b4;"/>
    <path clip-path="url(#p3fd125daae)" d="M 356.80722 187.88 
L 356.80722 179.71 
" style="fill:none;stroke:#1f77b4;"/>
    <path clip-path="url(#p3fd125daae)" d="M 341.936876 187.88 
L 341.936876 179.71 
" style="fill:none;stroke:#1f77b4;"/>
    <path clip-path="url(#p3fd125daae)" d="M 328.57711 187.88 
L 328.57711 179.71 
" style="fill:none;stroke:#1f77b4;"/>
    <path clip-path="url(#p3fd125daae)" d="M 333.50812 187.88 
L 333.50812 179.71 
" style="fill:none;stroke:#1f77b4;"/>
    <path clip-path="url(#p3fd125daae)" d="M 353.883168 187.88 
L 353.883168 179.71 
" style="fill:none;stroke:#1f77b4;"/>
    <path clip-path="url(#p3fd125daae)" d="M 364.285499 187.88 
L 364.285499 179.71 
" style="fill:none;stroke:#1f77b4;"/>
    <path clip-path="url(#p3fd125daae)" d="M 351.309238 187.88 
L 351.309238 179.71 
" style="fill:none;stroke:#1f77b4;"/>
    <path clip-path="url(#p3fd125daae)" d="M 327.27255 187.88 
L 327.27255 179.71 
" style="fill:none;stroke:#1f77b4;"/>
    <path clip-path="url(#p3fd125daae)" d="M 324.657572 187.88 
L 324.657572 179.71 
" style="fill:none;stroke:#1f77b4;"/>
    <path clip-path="url(#p3fd125daae)" d="M 340.252759 187.88 
L 340.252759 179.71 
" style="fill:none;stroke:#1f77b4;"/>
    <path clip-path="url(#p3fd125daae)" d="M 348.734997 187.88 
L 348.734997 179.71 
" style="fill:none;stroke:#1f77b4;"/>
    <path clip-path="url(#p3fd125daae)" d="M 342.75152 187.88 
L 342.75152 179.71 
" style="fill:none;stroke:#1f77b4;"/>
    <path clip-path="url(#p3fd125daae)" d="M 326.768061 187.88 
L 326.768061 179.71 
" style="fill:none;stroke:#1f77b4;"/>
    <path clip-path="url(#p3fd125daae)" d="M 305.974243 187.88 
L 305.974243 179.71 
" style="fill:none;stroke:#1f77b4;"/>
    <path clip-path="url(#p3fd125daae)" d="M 285.543967 187.88 
L 285.543967 179.71 
" style="fill:none;stroke:#1f77b4;"/>
    <path clip-path="url(#p3fd125daae)" d="M 262.495633 187.88 
L 262.495633 179.71 
" style="fill:none;stroke:#1f77b4;"/>
    <path clip-path="url(#p3fd125daae)" d="M 234.087297 187.88 
L 234.087297 179.71 
" style="fill:none;stroke:#1f77b4;"/>
    <path clip-path="url(#p3fd125daae)" d="M 209.340597 187.88 
L 209.340597 179.71 
" style="fill:none;stroke:#1f77b4;"/>
    <path clip-path="url(#p3fd125daae)" d="M 201.998672 187.88 
L 201.998672 179.71 
" style="fill:none;stroke:#1f77b4;"/>
    <path clip-path="url(#p3fd125daae)" d="M 209.484599 187.88 
L 209.484599 179.71 
" style="fill:none;stroke:#1f77b4;"/>
    <path clip-path="url(#p3fd125daae)" d="M 221.381615 187.88 
L 221.381615 179.71 
" style="fill:none;stroke:#1f77b4;"/>
    <path clip-path="url(#p3fd125daae)" d="M 240.352913 187.88 
L 240.352913 179.71 
" style="fill:none;stroke:#1f77b4;"/>
    <path clip-path="url(#p3fd125daae)" d="M 269.297432 187.88 
L 269.297432 179.71 
" style="fill:none;stroke:#1f77b4;"/>
    <path clip-path="url(#p3fd125daae)" d="M 298.686163 187.88 
L 298.686163 179.71 
" style="fill:none;stroke:#1f77b4;"/>
    <path clip-path="url(#p3fd125daae)" d="M 318.991483 187.88 
L 318.991483 179.71 
" style="fill:none;stroke:#1f77b4;"/>
    <path clip-path="url(#p3fd125daae)" d="M 325.598188 187.88 
L 325.598188 179.71 
" style="fill:none;stroke:#1f77b4;"/>
    <path clip-path="url(#p3fd125daae)" d="M 321.483482 187.88 
L 321.483482 179.71 
" style="fill:none;stroke:#1f77b4;"/>
    <path clip-path="url(#p3fd125daae)" d="M 314.328287 187.88 
L 314.328287 179.71 
" style="fill:none;stroke:#1f77b4;"/>
    <path clip-path="url(#p3fd125daae)" d="M 310.461106 187.88 
L 310.461106 179.71 
" style="fill:none;stroke:#1f77b4;"/>
    <path clip-path="url(#p3fd125daae)" d="M 315.509539 187.88 
L 315.509539 179.71 
" style="fill:none;stroke:#1f77b4;"/>
    <path clip-path="url(#p3fd125daae)" d="M 326.743638 187.88 
L 326.743638 179.71 
" style="fill:none;stroke:#1f77b4;"/>
    <path clip-path="url(#p3fd125daae)" d="M 335.619488 187.88 
L 335.619488 179.71 
" style="fill:none;stroke:#1f77b4;"/>
    <path clip-path="url(#p3fd125daae)" d="M 337.876609 187.88 
L 337.876609 179.71 
" style="fill:none;stroke:#1f77b4;"/>
    <path clip-path="url(#p3fd125daae)" d="M 333.888624 187.88 
L 333.888624 179.71 
" style="fill:none;stroke:#1f77b4;"/>
    <path clip-path="url(#p3fd125daae)" d="M 319.045674 187.88 
L 319.045674 179.71 
" style="fill:none;stroke:#1f77b4;"/>
    <path clip-path="url(#p3fd125daae)" d="M 292.19956 187.88 
L 292.19956 179.71 
" style="fill:none;stroke:#1f77b4;"/>
    <path clip-path="url(#p3fd125daae)" d="M 266.683438 187.88 
L 266.683438 179.71 
" style="fill:none;stroke:#1f77b4;"/>
    <path clip-path="url(#p3fd125daae)" d="M 253.599621 187.88 
L 253.599621 179.71 
" style="fill:none;stroke:#1f77b4;"/>
    <path clip-path="url(#p3fd125daae)" d="M 253.93613 187.88 
L 253.93613 179.71 
" style="fill:none;stroke:#1f77b4;"/>
    <path clip-path="url(#p3fd125daae)" d="M 262.20975 187.88 
L 262.20975 179.71 
" style="fill:none;stroke:#1f77b4;"/>
    <path clip-path="url(#p3fd125daae)" d="M 279.553578 187.88 
L 279.553578 179.71 
" style="fill:none;stroke:#1f77b4;"/>
    <path clip-path="url(#p3fd125daae)" d="M 307.629664 187.88 
L 307.629664 179.71 
" style="fill:none;stroke:#1f77b4;"/>
    <path clip-path="url(#p3fd125daae)" d="M 332.909852 187.88 
L 332.909852 179.71 
" style="fill:none;stroke:#1f77b4;"/>
    <path clip-path="url(#p3fd125daae)" d="M 340.513712 187.88 
L 340.513712 179.71 
" style="fill:none;stroke:#1f77b4;"/>
    <path clip-path="url(#p3fd125daae)" d="M 329.384789 187.88 
L 329.384789 179.71 
" style="fill:none;stroke:#1f77b4;"/>
    <path clip-path="url(#p3fd125daae)" d="M 316.066299 187.88 
L 316.066299 179.71 
" style="fill:none;stroke:#1f77b4;"/>
    <path clip-path="url(#p3fd125daae)" d="M 308.180155 187.88 
L 308.180155 179.71 
" style="fill:none;stroke:#1f77b4;"/>
    <path clip-path="url(#p3fd125daae)" d="M 304.295352 187.88 
L 304.295352 179.71 
" style="fill:none;stroke:#1f77b4;"/>
    <path clip-path="url(#p3fd125daae)" d="M 302.865628 187.88 
L 302.865628 179.71 
" style="fill:none;stroke:#1f77b4;"/>
    <path clip-path="url(#p3fd125daae)" d="M 302.589364 187.88 
L 302.589364 179.71 
" style="fill:none;stroke:#1f77b4;"/>
    <path clip-path="url(#p3fd125daae)" d="M 307.936294 187.88 
L 307.936294 179.71 
" style="fill:none;stroke:#1f77b4;"/>
    <path clip-path="url(#p3fd125daae)" d="M 321.861852 187.88 
L 321.861852 179.71 
" style="fill:none;stroke:#1f77b4;"/>
    <path clip-path="url(#p3fd125daae)" d="M 334.968915 187.88 
L 334.968915 179.71 
" style="fill:none;stroke:#1f77b4;"/>
    <path clip-path="url(#p3fd125daae)" d="M 339.876986 187.88 
L 339.876986 179.71 
" style="fill:none;stroke:#1f77b4;"/>
    <path clip-path="url(#p3fd125daae)" d="M 337.161034 187.88 
L 337.161034 179.71 
" style="fill:none;stroke:#1f77b4;"/>
    <path clip-path="url(#p3fd125daae)" d="M 330.593545 187.88 
L 330.593545 179.71 
" style="fill:none;stroke:#1f77b4;"/>
    <path clip-path="url(#p3fd125daae)" d="M 323.437964 187.88 
L 323.437964 179.71 
" style="fill:none;stroke:#1f77b4;"/>
    <path clip-path="url(#p3fd125daae)" d="M 317.326883 187.88 
L 317.326883 179.71 
" style="fill:none;stroke:#1f77b4;"/>
    <path clip-path="url(#p3fd125daae)" d="M 312.675328 187.88 
L 312.675328 179.71 
" style="fill:none;stroke:#1f77b4;"/>
    <path clip-path="url(#p3fd125daae)" d="M 309.338355 187.88 
L 309.338355 179.71 
" style="fill:none;stroke:#1f77b4;"/>
    <path clip-path="url(#p3fd125daae)" d="M 307.011958 187.88 
L 307.011958 179.71 
" style="fill:none;stroke:#1f77b4;"/>
    <path clip-path="url(#p3fd125daae)" d="M 305.458096 187.88 
L 305.458096 179.71 
" style="fill:none;stroke:#1f77b4;"/>
    <path clip-path="url(#p3fd125daae)" d="M 304.508097 187.88 
L 304.508097 179.71 
" style="fill:none;stroke:#1f77b4;"/>
    <path clip-path="url(#p3fd125daae)" d="M 304.035851 187.88 
L 304.035851 179.71 
" style="fill:none;stroke:#1f77b4;"/>
    <path clip-path="url(#p3fd125daae)" d="M 303.920541 187.88 
L 303.920541 179.71 
" style="fill:none;stroke:#1f77b4;"/>
    <path clip-path="url(#p3fd125daae)" d="M 304.062481 187.88 
L 304.062481 179.71 
" style="fill:none;stroke:#1f77b4;"/>
    <path clip-path="url(#p3fd125daae)" d="M 304.390741 187.88 
L 304.390741 179.71 
" style="fill:none;stroke:#1f77b4;"/>
    <path clip-path="url(#p3fd125daae)" d="M 304.756293 187.88 
L 304.756293 179.71 
" style="fill:none;stroke:#1f77b4;"/>
    <path clip-path="url(#p3fd125daae)" d="M 305.105075 187.88 
L 305.105075 179.71 
" style="fill:none;stroke:#1f77b4;"/>
    <path clip-path="url(#p3fd125daae)" d="M 303.079486 187.88 
L 303.079486 179.71 
" style="fill:none;stroke:#1f77b4;"/>
    <path clip-path="url(#p3fd125daae)" d="M 297.59135 187.88 
L 297.59135 179.71 
" style="fill:none;stroke:#1f77b4;"/>
    <path clip-path="url(#p3fd125daae)" d="M 291.437912 187.88 
L 291.437912 179.71 
" style="fill:none;stroke:#1f77b4;"/>
    <path clip-path="url(#p3fd125daae)" d="M 287.286949 187.88 
L 287.286949 179.71 
" style="fill:none;stroke:#1f77b4;"/>
    <path clip-path="url(#p3fd125daae)" d="M 290.693862 187.88 
L 290.693862 179.71 
" style="fill:none;stroke:#1f77b4;"/>
    <path clip-path="url(#p3fd125daae)" d="M 305.218059 187.88 
L 305.218059 179.71 
" style="fill:none;stroke:#1f77b4;"/>
    <path clip-path="url(#p3fd125daae)" d="M 319.957291 187.88 
L 319.957291 179.71 
" style="fill:none;stroke:#1f77b4;"/>
    <path clip-path="url(#p3fd125daae)" d="M 318.455428 187.88 
L 318.455428 179.71 
" style="fill:none;stroke:#1f77b4;"/>
    <path clip-path="url(#p3fd125daae)" d="M 301.25447 187.88 
L 301.25447 179.71 
" style="fill:none;stroke:#1f77b4;"/>
    <path clip-path="url(#p3fd125daae)" d="M 283.733601 187.88 
L 283.733601 179.71 
" style="fill:none;stroke:#1f77b4;"/>
    <path clip-path="url(#p3fd125daae)" d="M 292.242781 187.88 
L 292.242781 179.71 
" style="fill:none;stroke:#1f77b4;"/>
    <path clip-path="url(#p3fd125daae)" d="M 329.294668 187.88 
L 329.294668 179.71 
" style="fill:none;stroke:#1f77b4;"/>
    <path clip-path="url(#p3fd125daae)" d="M 365.632009 187.88 
L 365.632009 179.71 
" style="fill:none;stroke:#1f77b4;"/>
    <path clip-path="url(#p3fd125daae)" d="M 382.214919 187.88 
L 382.214919 179.71 
" style="fill:none;stroke:#1f77b4;"/>
    <path clip-path="url(#p3fd125daae)" d="M 379.3668 187.88 
L 379.3668 179.71 
" style="fill:none;stroke:#1f77b4;"/>
    <path clip-path="url(#p3fd125daae)" d="M 365.746272 187.88 
L 365.746272 179.71 
" style="fill:none;stroke:#1f77b4;"/>
    <path clip-path="url(#p3fd125daae)" d="M 349.399394 187.88 
L 349.399394 179.71 
" style="fill:none;stroke:#1f77b4;"/>
    <path clip-path="url(#p3fd125daae)" d="M 334.78281 187.88 
L 334.78281 179.71 
" style="fill:none;stroke:#1f77b4;"/>
    <path clip-path="url(#p3fd125daae)" d="M 323.069241 187.88 
L 323.069241 179.71 
" style="fill:none;stroke:#1f77b4;"/>
    <path clip-path="url(#p3fd125daae)" d="M 309.905678 187.88 
L 309.905678 179.71 
" style="fill:none;stroke:#1f77b4;"/>
    <path clip-path="url(#p3fd125daae)" d="M 284.308734 187.88 
L 284.308734 179.71 
" style="fill:none;stroke:#1f77b4;"/>
    <path clip-path="url(#p3fd125daae)" d="M 238.56489 187.88 
L 238.56489 179.71 
" style="fill:none;stroke:#1f77b4;"/>
    <path clip-path="url(#p3fd125daae)" d="M 189.45593 187.88 
L 189.45593 179.71 
" style="fill:none;stroke:#1f77b4;"/>
    <path clip-path="url(#p3fd125daae)" d="M 162.323588 187.88 
L 162.323588 179.71 
" style="fill:none;stroke:#1f77b4;"/>
    <path clip-path="url(#p3fd125daae)" d="M 164.187527 187.88 
L 164.187527 179.71 
" style="fill:none;stroke:#1f77b4;"/>
    <path clip-path="url(#p3fd125daae)" d="M 186.331759 187.88 
L 186.331759 179.71 
" style="fill:none;stroke:#1f77b4;"/>
    <path clip-path="url(#p3fd125daae)" d="M 216.345161 187.88 
L 216.345161 179.71 
" style="fill:none;stroke:#1f77b4;"/>
    <path clip-path="url(#p3fd125daae)" d="M 245.388169 187.88 
L 245.388169 179.71 
" style="fill:none;stroke:#1f77b4;"/>
    <path clip-path="url(#p3fd125daae)" d="M 269.401369 187.88 
L 269.401369 179.71 
" style="fill:none;stroke:#1f77b4;"/>
    <path clip-path="url(#p3fd125daae)" d="M 287.5758 187.88 
L 287.5758 179.71 
" style="fill:none;stroke:#1f77b4;"/>
    <path clip-path="url(#p3fd125daae)" d="M 300.563493 187.88 
L 300.563493 179.71 
" style="fill:none;stroke:#1f77b4;"/>
    <path clip-path="url(#p3fd125daae)" d="M 309.376102 187.88 
L 309.376102 179.71 
" style="fill:none;stroke:#1f77b4;"/>
    <path clip-path="url(#p3fd125daae)" d="M 314.926563 187.88 
L 314.926563 179.71 
" style="fill:none;stroke:#1f77b4;"/>
    <path clip-path="url(#p3fd125daae)" d="M 317.946267 187.88 
L 317.946267 179.71 
" style="fill:none;stroke:#1f77b4;"/>
    <path clip-path="url(#p3fd125daae)" d="M 319.062285 187.88 
L 319.062285 179.71 
" style="fill:none;stroke:#1f77b4;"/>
    <path clip-path="url(#p3fd125daae)" d="M 318.816954 187.88 
L 318.816954 179.71 
" style="fill:none;stroke:#1f77b4;"/>
    <path clip-path="url(#p3fd125daae)" d="M 317.6814 187.88 
L 317.6814 179.71 
" style="fill:none;stroke:#1f77b4;"/>
    <path clip-path="url(#p3fd125daae)" d="M 316.072186 187.88 
L 316.072186 179.71 
" style="fill:none;stroke:#1f77b4;"/>
    <path clip-path="url(#p3fd125daae)" d="M 314.324834 187.88 
L 314.324834 179.71 
" style="fill:none;stroke:#1f77b4;"/>
    <path clip-path="url(#p3fd125daae)" d="M 312.654687 187.88 
L 312.654687 179.71 
" style="fill:none;stroke:#1f77b4;"/>
    <path clip-path="url(#p3fd125daae)" d="M 311.188367 187.88 
L 311.188367 179.71 
" style="fill:none;stroke:#1f77b4;"/>
    <path clip-path="url(#p3fd125daae)" d="M 310.020628 187.88 
L 310.020628 179.71 
" style="fill:none;stroke:#1f77b4;"/>
    <path clip-path="url(#p3fd125daae)" d="M 308.94122 187.88 
L 308.94122 179.71 
" style="fill:none;stroke:#1f77b4;"/>
    <path clip-path="url(#p3fd125daae)" d="M 308.484894 187.88 
L 308.484894 179.71 
" style="fill:none;stroke:#1f77b4;"/>
    <path clip-path="url(#p3fd125daae)" d="M 307.725994 187.88 
L 307.725994 179.71 
" style="fill:none;stroke:#1f77b4;"/>
    <path clip-path="url(#p3fd125daae)" d="M 325.174878 187.88 
L 325.174878 179.71 
" style="fill:none;stroke:#1f77b4;"/>
    <path clip-path="url(#p3fd125daae)" d="M 395.571197 187.88 
L 395.571197 179.71 
" style="fill:none;stroke:#1f77b4;"/>
    <path clip-path="url(#p3fd125daae)" d="M 489.068573 187.88 
L 489.068573 179.71 
" style="fill:none;stroke:#1f77b4;"/>
    <path clip-path="url(#p3fd125daae)" d="M 547.842408 187.88 
L 547.842408 179.71 
" style="fill:none;stroke:#1f77b4;"/>
    <path clip-path="url(#p3fd125daae)" d="M 552.263628 187.88 
L 552.263628 179.71 
" style="fill:none;stroke:#1f77b4;"/>
    <path clip-path="url(#p3fd125daae)" d="M 516.970133 187.88 
L 516.970133 179.71 
" style="fill:none;stroke:#1f77b4;"/>
    <path clip-path="url(#p3fd125daae)" d="M 464.000179 187.88 
L 464.000179 179.71 
" style="fill:none;stroke:#1f77b4;"/>
    <path clip-path="url(#p3fd125daae)" d="M 410.860196 187.88 
L 410.860196 179.71 
" style="fill:none;stroke:#1f77b4;"/>
    <path clip-path="url(#p3fd125daae)" d="M 393.668583 187.88 
L 393.668583 179.71 
" style="fill:none;stroke:#1f77b4;"/>
    <path clip-path="url(#p3fd125daae)" d="M 417.649147 187.88 
L 417.649147 179.71 
" style="fill:none;stroke:#1f77b4;"/>
    <path clip-path="url(#p3fd125daae)" d="M 438.506989 187.88 
L 438.506989 179.71 
" style="fill:none;stroke:#1f77b4;"/>
    <path clip-path="url(#p3fd125daae)" d="M 427.429207 187.88 
L 427.429207 179.71 
" style="fill:none;stroke:#1f77b4;"/>
    <path clip-path="url(#p3fd125daae)" d="M 393.561243 187.88 
L 393.561243 179.71 
" style="fill:none;stroke:#1f77b4;"/>
    <path clip-path="url(#p3fd125daae)" d="M 355.407852 187.88 
L 355.407852 179.71 
" style="fill:none;stroke:#1f77b4;"/>
    <path clip-path="url(#p3fd125daae)" d="M 353.314768 187.88 
L 353.314768 179.71 
" style="fill:none;stroke:#1f77b4;"/>
    <path clip-path="url(#p3fd125daae)" d="M 406.140159 187.88 
L 406.140159 179.71 
" style="fill:none;stroke:#1f77b4;"/>
    <path clip-path="url(#p3fd125daae)" d="M 467.784903 187.88 
L 467.784903 179.71 
" style="fill:none;stroke:#1f77b4;"/>
    <path clip-path="url(#p3fd125daae)" d="M 495.969035 187.88 
L 495.969035 179.71 
" style="fill:none;stroke:#1f77b4;"/>
    <path clip-path="url(#p3fd125daae)" d="M 483.948639 187.88 
L 483.948639 179.71 
" style="fill:none;stroke:#1f77b4;"/>
    <path clip-path="url(#p3fd125daae)" d="M 439.274399 187.88 
L 439.274399 179.71 
" style="fill:none;stroke:#1f77b4;"/>
    <path clip-path="url(#p3fd125daae)" d="M 373.094132 187.88 
L 373.094132 179.71 
" style="fill:none;stroke:#1f77b4;"/>
    <path clip-path="url(#p3fd125daae)" d="M 307.956567 187.88 
L 307.956567 179.71 
" style="fill:none;stroke:#1f77b4;"/>
    <path clip-path="url(#p3fd125daae)" d="M 263.326265 187.88 
L 263.326265 179.71 
" style="fill:none;stroke:#1f77b4;"/>
    <path clip-path="url(#p3fd125daae)" d="M 243.0299 187.88 
L 243.0299 179.71 
" style="fill:none;stroke:#1f77b4;"/>
    <path clip-path="url(#p3fd125daae)" d="M 240.51449 187.88 
L 240.51449 179.71 
" style="fill:none;stroke:#1f77b4;"/>
    <path clip-path="url(#p3fd125daae)" d="M 247.301425 187.88 
L 247.301425 179.71 
" style="fill:none;stroke:#1f77b4;"/>
    <path clip-path="url(#p3fd125daae)" d="M 257.347345 187.88 
L 257.347345 179.71 
" style="fill:none;stroke:#1f77b4;"/>
    <path clip-path="url(#p3fd125daae)" d="M 267.613729 187.88 
L 267.613729 179.71 
" style="fill:none;stroke:#1f77b4;"/>
    <path clip-path="url(#p3fd125daae)" d="M 276.566194 187.88 
L 276.566194 179.71 
" style="fill:none;stroke:#1f77b4;"/>
    <path clip-path="url(#p3fd125daae)" d="M 282.077288 187.88 
L 282.077288 179.71 
" style="fill:none;stroke:#1f77b4;"/>
    <path clip-path="url(#p3fd125daae)" d="M 285.965617 187.88 
L 285.965617 179.71 
" style="fill:none;stroke:#1f77b4;"/>
    <path clip-path="url(#p3fd125daae)" d="M 285.359429 187.88 
L 285.359429 179.71 
" style="fill:none;stroke:#1f77b4;"/>
    <path clip-path="url(#p3fd125daae)" d="M 279.17156 187.88 
L 279.17156 179.71 
" style="fill:none;stroke:#1f77b4;"/>
    <path clip-path="url(#p3fd125daae)" d="M 276.114494 187.88 
L 276.114494 179.71 
" style="fill:none;stroke:#1f77b4;"/>
    <path clip-path="url(#p3fd125daae)" d="M 278.356255 187.88 
L 278.356255 179.71 
" style="fill:none;stroke:#1f77b4;"/>
    <path clip-path="url(#p3fd125daae)" d="M 283.573168 187.88 
L 283.573168 179.71 
" style="fill:none;stroke:#1f77b4;"/>
    <path clip-path="url(#p3fd125daae)" d="M 287.085821 187.88 
L 287.085821 179.71 
" style="fill:none;stroke:#1f77b4;"/>
    <path clip-path="url(#p3fd125daae)" d="M 289.060399 187.88 
L 289.060399 179.71 
" style="fill:none;stroke:#1f77b4;"/>
    <path clip-path="url(#p3fd125daae)" d="M 294.273 187.88 
L 294.273 179.71 
" style="fill:none;stroke:#1f77b4;"/>
    <path clip-path="url(#p3fd125daae)" d="M 308.319878 187.88 
L 308.319878 179.71 
" style="fill:none;stroke:#1f77b4;"/>
    <path clip-path="url(#p3fd125daae)" d="M 321.18758 187.88 
L 321.18758 179.71 
" style="fill:none;stroke:#1f77b4;"/>
    <path clip-path="url(#p3fd125daae)" d="M 320.042715 187.88 
L 320.042715 179.71 
" style="fill:none;stroke:#1f77b4;"/>
    <path clip-path="url(#p3fd125daae)" d="M 304.036136 187.88 
L 304.036136 179.71 
" style="fill:none;stroke:#1f77b4;"/>
    <path clip-path="url(#p3fd125daae)" d="M 277.522609 187.88 
L 277.522609 179.71 
" style="fill:none;stroke:#1f77b4;"/>
    <path clip-path="url(#p3fd125daae)" d="M 245.539154 187.88 
L 245.539154 179.71 
" style="fill:none;stroke:#1f77b4;"/>
    <path clip-path="url(#p3fd125daae)" d="M 213.474168 187.88 
L 213.474168 179.71 
" style="fill:none;stroke:#1f77b4;"/>
    <path clip-path="url(#p3fd125daae)" d="M 185.264907 187.88 
L 185.264907 179.71 
" style="fill:none;stroke:#1f77b4;"/>
    <path clip-path="url(#p3fd125daae)" d="M 160.960881 187.88 
L 160.960881 179.71 
" style="fill:none;stroke:#1f77b4;"/>
    <path clip-path="url(#p3fd125daae)" d="M 146.689725 187.88 
L 146.689725 179.71 
" style="fill:none;stroke:#1f77b4;"/>
    <path clip-path="url(#p3fd125daae)" d="M 151.165365 187.88 
L 151.165365 179.71 
" style="fill:none;stroke:#1f77b4;"/>
    <path clip-path="url(#p3fd125daae)" d="M 173.452406 187.88 
L 173.452406 179.71 
" style="fill:none;stroke:#1f77b4;"/>
    <path clip-path="url(#p3fd125daae)" d="M 205.196688 187.88 
L 205.196688 179.71 
" style="fill:none;stroke:#1f77b4;"/>
    <path clip-path="url(#p3fd125daae)" d="M 234.784175 187.88 
L 234.784175 179.71 
" style="fill:none;stroke:#1f77b4;"/>
    <path clip-path="url(#p3fd125daae)" d="M 268.228341 187.88 
L 268.228341 179.71 
" style="fill:none;stroke:#1f77b4;"/>
    <path clip-path="url(#p3fd125daae)" d="M 313.229323 187.88 
L 313.229323 179.71 
" style="fill:none;stroke:#1f77b4;"/>
    <path clip-path="url(#p3fd125daae)" d="M 369.286458 187.88 
L 369.286458 179.71 
" style="fill:none;stroke:#1f77b4;"/>
    <path clip-path="url(#p3fd125daae)" d="M 424.117096 187.88 
L 424.117096 179.71 
" style="fill:none;stroke:#1f77b4;"/>
    <path clip-path="url(#p3fd125daae)" d="M 447.73068 187.88 
L 447.73068 179.71 
" style="fill:none;stroke:#1f77b4;"/>
    <path clip-path="url(#p3fd125daae)" d="M 434.699014 187.88 
L 434.699014 179.71 
" style="fill:none;stroke:#1f77b4;"/>
    <path clip-path="url(#p3fd125daae)" d="M 407.532801 187.88 
L 407.532801 179.71 
" style="fill:none;stroke:#1f77b4;"/>
    <path clip-path="url(#p3fd125daae)" d="M 395.644334 187.88 
L 395.644334 179.71 
" style="fill:none;stroke:#1f77b4;"/>
    <path clip-path="url(#p3fd125daae)" d="M 401.194596 187.88 
L 401.194596 179.71 
" style="fill:none;stroke:#1f77b4;"/>
    <path clip-path="url(#p3fd125daae)" d="M 404.970608 187.88 
L 404.970608 179.71 
" style="fill:none;stroke:#1f77b4;"/>
    <path clip-path="url(#p3fd125daae)" d="M 408.321959 187.88 
L 408.321959 179.71 
" style="fill:none;stroke:#1f77b4;"/>
    <path clip-path="url(#p3fd125daae)" d="M 425.539039 187.88 
L 425.539039 179.71 
" style="fill:none;stroke:#1f77b4;"/>
    <path clip-path="url(#p3fd125daae)" d="M 455.290759 187.88 
L 455.290759 179.71 
" style="fill:none;stroke:#1f77b4;"/>
    <path clip-path="url(#p3fd125daae)" d="M 471.488647 187.88 
L 471.488647 179.71 
" style="fill:none;stroke:#1f77b4;"/>
    <path clip-path="url(#p3fd125daae)" d="M 472.5943 187.88 
L 472.5943 179.71 
" style="fill:none;stroke:#1f77b4;"/>
    <path clip-path="url(#p3fd125daae)" d="M 477.154973 187.88 
L 477.154973 179.71 
" style="fill:none;stroke:#1f77b4;"/>
    <path clip-path="url(#p3fd125daae)" d="M 474.046744 187.88 
L 474.046744 179.71 
" style="fill:none;stroke:#1f77b4;"/>
    <path clip-path="url(#p3fd125daae)" d="M 449.604377 187.88 
L 449.604377 179.71 
" style="fill:none;stroke:#1f77b4;"/>
    <path clip-path="url(#p3fd125daae)" d="M 399.165672 187.88 
L 399.165672 179.71 
" style="fill:none;stroke:#1f77b4;"/>
    <path clip-path="url(#p3fd125daae)" d="M 324.123433 187.88 
L 324.123433 179.71 
" style="fill:none;stroke:#1f77b4;"/>
    <path clip-path="url(#p3fd125daae)" d="M 252.622995 187.88 
L 252.622995 179.71 
" style="fill:none;stroke:#1f77b4;"/>
    <path clip-path="url(#p3fd125daae)" d="M 208.311489 187.88 
L 208.311489 179.71 
" style="fill:none;stroke:#1f77b4;"/>
    <path clip-path="url(#p3fd125daae)" d="M 185.970778 187.88 
L 185.970778 179.71 
" style="fill:none;stroke:#1f77b4;"/>
    <path clip-path="url(#p3fd125daae)" d="M 165.397648 187.88 
L 165.397648 179.71 
" style="fill:none;stroke:#1f77b4;"/>
    <path clip-path="url(#p3fd125daae)" d="M 138.737535 187.88 
L 138.737535 179.71 
" style="fill:none;stroke:#1f77b4;"/>
    <path clip-path="url(#p3fd125daae)" d="M 122.146401 187.88 
L 122.146401 179.71 
" style="fill:none;stroke:#1f77b4;"/>
    <path clip-path="url(#p3fd125daae)" d="M 128.520056 187.88 
L 128.520056 179.71 
" style="fill:none;stroke:#1f77b4;"/>
    <path clip-path="url(#p3fd125daae)" d="M 156.498104 187.88 
L 156.498104 179.71 
" style="fill:none;stroke:#1f77b4;"/>
    <path clip-path="url(#p3fd125daae)" d="M 196.891782 187.88 
L 196.891782 179.71 
" style="fill:none;stroke:#1f77b4;"/>
    <path clip-path="url(#p3fd125daae)" d="M 236.025874 187.88 
L 236.025874 179.71 
" style="fill:none;stroke:#1f77b4;"/>
    <path clip-path="url(#p3fd125daae)" d="M 269.760567 187.88 
L 269.760567 179.71 
" style="fill:none;stroke:#1f77b4;"/>
    <path clip-path="url(#p3fd125daae)" d="M 294.731224 187.88 
L 294.731224 179.71 
" style="fill:none;stroke:#1f77b4;"/>
    <path clip-path="url(#p3fd125daae)" d="M 302.465948 187.88 
L 302.465948 179.71 
" style="fill:none;stroke:#1f77b4;"/>
    <path clip-path="url(#p3fd125daae)" d="M 300.08051 187.88 
L 300.08051 179.71 
" style="fill:none;stroke:#1f77b4;"/>
    <path clip-path="url(#p3fd125daae)" d="M 297.102018 187.88 
L 297.102018 179.71 
" style="fill:none;stroke:#1f77b4;"/>
    <path clip-path="url(#p3fd125daae)" d="M 292.141059 187.88 
L 292.141059 179.71 
" style="fill:none;stroke:#1f77b4;"/>
    <path clip-path="url(#p3fd125daae)" d="M 286.665123 187.88 
L 286.665123 179.71 
" style="fill:none;stroke:#1f77b4;"/>
    <path clip-path="url(#p3fd125daae)" d="M 281.056924 187.88 
L 281.056924 179.71 
" style="fill:none;stroke:#1f77b4;"/>
    <path clip-path="url(#p3fd125daae)" d="M 271.098806 187.88 
L 271.098806 179.71 
" style="fill:none;stroke:#1f77b4;"/>
    <path clip-path="url(#p3fd125daae)" d="M 260.864891 187.88 
L 260.864891 179.71 
" style="fill:none;stroke:#1f77b4;"/>
    <path clip-path="url(#p3fd125daae)" d="M 257.443967 187.88 
L 257.443967 179.71 
" style="fill:none;stroke:#1f77b4;"/>
    <path clip-path="url(#p3fd125daae)" d="M 266.733745 187.88 
L 266.733745 179.71 
" style="fill:none;stroke:#1f77b4;"/>
    <path clip-path="url(#p3fd125daae)" d="M 291.51126 187.88 
L 291.51126 179.71 
" style="fill:none;stroke:#1f77b4;"/>
    <path clip-path="url(#p3fd125daae)" d="M 320.462517 187.88 
L 320.462517 179.71 
" style="fill:none;stroke:#1f77b4;"/>
    <path clip-path="url(#p3fd125daae)" d="M 340.463524 187.88 
L 340.463524 179.71 
" style="fill:none;stroke:#1f77b4;"/>
    <path clip-path="url(#p3fd125daae)" d="M 347.810442 187.88 
L 347.810442 179.71 
" style="fill:none;stroke:#1f77b4;"/>
    <path clip-path="url(#p3fd125daae)" d="M 345.706361 187.88 
L 345.706361 179.71 
" style="fill:none;stroke:#1f77b4;"/>
    <path clip-path="url(#p3fd125daae)" d="M 339.086723 187.88 
L 339.086723 179.71 
" style="fill:none;stroke:#1f77b4;"/>
    <path clip-path="url(#p3fd125daae)" d="M 331.454511 187.88 
L 331.454511 179.71 
" style="fill:none;stroke:#1f77b4;"/>
    <path clip-path="url(#p3fd125daae)" d="M 324.530176 187.88 
L 324.530176 179.71 
" style="fill:none;stroke:#1f77b4;"/>
    <path clip-path="url(#p3fd125daae)" d="M 318.863076 187.88 
L 318.863076 179.71 
" style="fill:none;stroke:#1f77b4;"/>
    <path clip-path="url(#p3fd125daae)" d="M 314.380984 187.88 
L 314.380984 179.71 
" style="fill:none;stroke:#1f77b4;"/>
    <path clip-path="url(#p3fd125daae)" d="M 310.916712 187.88 
L 310.916712 179.71 
" style="fill:none;stroke:#1f77b4;"/>
    <path clip-path="url(#p3fd125daae)" d="M 308.330903 187.88 
L 308.330903 179.71 
" style="fill:none;stroke:#1f77b4;"/>
    <path clip-path="url(#p3fd125daae)" d="M 306.512051 187.88 
L 306.512051 179.71 
" style="fill:none;stroke:#1f77b4;"/>
    <path clip-path="url(#p3fd125daae)" d="M 305.392709 187.88 
L 305.392709 179.71 
" style="fill:none;stroke:#1f77b4;"/>
    <path clip-path="url(#p3fd125daae)" d="M 304.749894 187.88 
L 304.749894 179.71 
" style="fill:none;stroke:#1f77b4;"/>
   </g>
   <g id="line2d_11">
    <path clip-path="url(#p3fd125daae)" d="M 48.368286 187.854894 
L 61.504877 187.766835 
L 70.262605 187.537232 
L 79.020333 187.031782 
L 87.77806 186.142331 
L 96.535788 184.858107 
L 105.293516 183.278749 
L 118.430107 180.629739 
L 127.187835 178.730347 
L 135.945563 176.613388 
L 140.324427 175.419514 
L 144.703291 174.106562 
L 149.082154 172.656055 
L 153.461018 171.052496 
L 157.839882 169.283914 
L 162.218746 167.344064 
L 166.59761 165.236289 
L 175.355338 160.598557 
L 192.870793 150.864695 
L 197.249657 148.662056 
L 201.628521 146.670959 
L 206.007385 144.939517 
L 210.386249 143.489825 
L 214.765112 142.304097 
L 223.52284 140.434455 
L 227.901704 139.528237 
L 232.280568 138.478903 
L 236.659432 137.177374 
L 241.038296 135.527794 
L 245.417159 133.435725 
L 249.796023 130.789224 
L 254.174887 127.440802 
L 258.553751 123.198932 
L 262.932615 117.837112 
L 267.311479 111.126837 
L 271.690343 102.897188 
L 276.069207 93.117044 
L 280.44807 81.985781 
L 289.205798 58.010771 
L 293.584662 47.09707 
L 297.963526 38.483215 
L 302.34239 33.281548 
L 306.721254 32.259757 
L 311.100117 35.659125 
L 315.478981 43.13342 
L 319.857845 53.830735 
L 324.236709 66.58863 
L 332.994437 93.498387 
L 337.373301 105.742015 
L 341.752165 116.401847 
L 346.131028 125.257662 
L 350.509892 132.307059 
L 354.888756 137.693762 
L 359.26762 141.64593 
L 363.646484 144.428299 
L 368.025348 146.306797 
L 372.404212 147.524646 
L 376.783075 148.290308 
L 381.161939 148.776743 
L 394.298531 149.913019 
L 398.677395 150.548813 
L 403.056259 151.445902 
L 407.435123 152.638388 
L 411.813986 154.12146 
L 416.19285 155.853209 
L 424.950578 159.767615 
L 433.708306 163.730181 
L 438.08717 165.561138 
L 442.466033 167.237704 
L 446.844897 168.738818 
L 451.223761 170.053924 
L 455.602625 171.181224 
L 459.981489 172.129632 
L 464.360353 172.922375 
L 473.118081 174.207523 
L 486.254672 176.095819 
L 499.391264 178.357635 
L 508.148991 179.828785 
L 516.906719 181.0146 
L 525.664447 181.777185 
L 547.558766 183.010267 
L 556.316494 184.068707 
L 569.453086 186.003347 
L 578.210813 186.980519 
L 586.968541 187.535742 
L 595.726269 187.774623 
L 604.483996 187.848837 
L 604.483996 187.848837 
" style="fill:none;stroke:#1f77b4;stroke-linecap:square;stroke-width:1.5;"/>
   </g>
   <g id="patch_3">
    <path d="M 20.5625 187.88 
L 20.5625 24.48 
" style="fill:none;stroke:#000000;stroke-linecap:square;stroke-linejoin:miter;stroke-width:0.8;"/>
   </g>
   <g id="patch_4">
    <path d="M 20.5625 187.88 
L 632.289782 187.88 
" style="fill:none;stroke:#000000;stroke-linecap:square;stroke-linejoin:miter;stroke-width:0.8;"/>
   </g>
  </g>
  <g id="text_12">
   <!-- lancastersensorimotornorms_Torso.mean [model: lancastersensorimotornorms_Torso.mean] -->
   <defs>
    <path d="M 54.890625 33.015625 
L 54.890625 0 
L 45.90625 0 
L 45.90625 32.71875 
Q 45.90625 40.484375 42.875 44.328125 
Q 39.84375 48.1875 33.796875 48.1875 
Q 26.515625 48.1875 22.3125 43.546875 
Q 18.109375 38.921875 18.109375 30.90625 
L 18.109375 0 
L 9.078125 0 
L 9.078125 54.6875 
L 18.109375 54.6875 
L 18.109375 46.1875 
Q 21.34375 51.125 25.703125 53.5625 
Q 30.078125 56 35.796875 56 
Q 45.21875 56 50.046875 50.171875 
Q 54.890625 44.34375 54.890625 33.015625 
z
" id="DejaVuSans-110"/>
    <path d="M 48.78125 52.59375 
L 48.78125 44.1875 
Q 44.96875 46.296875 41.140625 47.34375 
Q 37.3125 48.390625 33.40625 48.390625 
Q 24.65625 48.390625 19.8125 42.84375 
Q 14.984375 37.3125 14.984375 27.296875 
Q 14.984375 17.28125 19.8125 11.734375 
Q 24.65625 6.203125 33.40625 6.203125 
Q 37.3125 6.203125 41.140625 7.25 
Q 44.96875 8.296875 48.78125 10.40625 
L 48.78125 2.09375 
Q 45.015625 0.34375 40.984375 -0.53125 
Q 36.96875 -1.421875 32.421875 -1.421875 
Q 20.0625 -1.421875 12.78125 6.34375 
Q 5.515625 14.109375 5.515625 27.296875 
Q 5.515625 40.671875 12.859375 48.328125 
Q 20.21875 56 33.015625 56 
Q 37.15625 56 41.109375 55.140625 
Q 45.0625 54.296875 48.78125 52.59375 
z
" id="DejaVuSans-99"/>
    <path d="M 18.3125 70.21875 
L 18.3125 54.6875 
L 36.8125 54.6875 
L 36.8125 47.703125 
L 18.3125 47.703125 
L 18.3125 18.015625 
Q 18.3125 11.328125 20.140625 9.421875 
Q 21.96875 7.515625 27.59375 7.515625 
L 36.8125 7.515625 
L 36.8125 0 
L 27.59375 0 
Q 17.1875 0 13.234375 3.875 
Q 9.28125 7.765625 9.28125 18.015625 
L 9.28125 47.703125 
L 2.6875 47.703125 
L 2.6875 54.6875 
L 9.28125 54.6875 
L 9.28125 70.21875 
z
" id="DejaVuSans-116"/>
    <path d="M 41.109375 46.296875 
Q 39.59375 47.171875 37.8125 47.578125 
Q 36.03125 48 33.890625 48 
Q 26.265625 48 22.1875 43.046875 
Q 18.109375 38.09375 18.109375 28.8125 
L 18.109375 0 
L 9.078125 0 
L 9.078125 54.6875 
L 18.109375 54.6875 
L 18.109375 46.1875 
Q 20.953125 51.171875 25.484375 53.578125 
Q 30.03125 56 36.53125 56 
Q 37.453125 56 38.578125 55.875 
Q 39.703125 55.765625 41.0625 55.515625 
z
" id="DejaVuSans-114"/>
    <path d="M 30.609375 48.390625 
Q 23.390625 48.390625 19.1875 42.75 
Q 14.984375 37.109375 14.984375 27.296875 
Q 14.984375 17.484375 19.15625 11.84375 
Q 23.34375 6.203125 30.609375 6.203125 
Q 37.796875 6.203125 41.984375 11.859375 
Q 46.1875 17.53125 46.1875 27.296875 
Q 46.1875 37.015625 41.984375 42.703125 
Q 37.796875 48.390625 30.609375 48.390625 
z
M 30.609375 56 
Q 42.328125 56 49.015625 48.375 
Q 55.71875 40.765625 55.71875 27.296875 
Q 55.71875 13.875 49.015625 6.21875 
Q 42.328125 -1.421875 30.609375 -1.421875 
Q 18.84375 -1.421875 12.171875 6.21875 
Q 5.515625 13.875 5.515625 27.296875 
Q 5.515625 40.765625 12.171875 48.375 
Q 18.84375 56 30.609375 56 
z
" id="DejaVuSans-111"/>
    <path d="M 9.421875 54.6875 
L 18.40625 54.6875 
L 18.40625 0 
L 9.421875 0 
z
M 9.421875 75.984375 
L 18.40625 75.984375 
L 18.40625 64.59375 
L 9.421875 64.59375 
z
" id="DejaVuSans-105"/>
    <path d="M 52 44.1875 
Q 55.375 50.25 60.0625 53.125 
Q 64.75 56 71.09375 56 
Q 79.640625 56 84.28125 50.015625 
Q 88.921875 44.046875 88.921875 33.015625 
L 88.921875 0 
L 79.890625 0 
L 79.890625 32.71875 
Q 79.890625 40.578125 77.09375 44.375 
Q 74.3125 48.1875 68.609375 48.1875 
Q 61.625 48.1875 57.5625 43.546875 
Q 53.515625 38.921875 53.515625 30.90625 
L 53.515625 0 
L 44.484375 0 
L 44.484375 32.71875 
Q 44.484375 40.625 41.703125 44.40625 
Q 38.921875 48.1875 33.109375 48.1875 
Q 26.21875 48.1875 22.15625 43.53125 
Q 18.109375 38.875 18.109375 30.90625 
L 18.109375 0 
L 9.078125 0 
L 9.078125 54.6875 
L 18.109375 54.6875 
L 18.109375 46.1875 
Q 21.1875 51.21875 25.484375 53.609375 
Q 29.78125 56 35.6875 56 
Q 41.65625 56 45.828125 52.96875 
Q 50 49.953125 52 44.1875 
z
" id="DejaVuSans-109"/>
    <path d="M 50.984375 -16.609375 
L 50.984375 -23.578125 
L -0.984375 -23.578125 
L -0.984375 -16.609375 
z
" id="DejaVuSans-95"/>
    <path d="M -0.296875 72.90625 
L 61.375 72.90625 
L 61.375 64.59375 
L 35.5 64.59375 
L 35.5 0 
L 25.59375 0 
L 25.59375 64.59375 
L -0.296875 64.59375 
z
" id="DejaVuSans-84"/>
    <path id="DejaVuSans-32"/>
    <path d="M 8.59375 75.984375 
L 29.296875 75.984375 
L 29.296875 69 
L 17.578125 69 
L 17.578125 -6.203125 
L 29.296875 -6.203125 
L 29.296875 -13.1875 
L 8.59375 -13.1875 
z
" id="DejaVuSans-91"/>
    <path d="M 45.40625 46.390625 
L 45.40625 75.984375 
L 54.390625 75.984375 
L 54.390625 0 
L 45.40625 0 
L 45.40625 8.203125 
Q 42.578125 3.328125 38.25 0.953125 
Q 33.9375 -1.421875 27.875 -1.421875 
Q 17.96875 -1.421875 11.734375 6.484375 
Q 5.515625 14.40625 5.515625 27.296875 
Q 5.515625 40.1875 11.734375 48.09375 
Q 17.96875 56 27.875 56 
Q 33.9375 56 38.25 53.625 
Q 42.578125 51.265625 45.40625 46.390625 
z
M 14.796875 27.296875 
Q 14.796875 17.390625 18.875 11.75 
Q 22.953125 6.109375 30.078125 6.109375 
Q 37.203125 6.109375 41.296875 11.75 
Q 45.40625 17.390625 45.40625 27.296875 
Q 45.40625 37.203125 41.296875 42.84375 
Q 37.203125 48.484375 30.078125 48.484375 
Q 22.953125 48.484375 18.875 42.84375 
Q 14.796875 37.203125 14.796875 27.296875 
z
" id="DejaVuSans-100"/>
    <path d="M 11.71875 12.40625 
L 22.015625 12.40625 
L 22.015625 0 
L 11.71875 0 
z
M 11.71875 51.703125 
L 22.015625 51.703125 
L 22.015625 39.3125 
L 11.71875 39.3125 
z
" id="DejaVuSans-58"/>
    <path d="M 30.421875 75.984375 
L 30.421875 -13.1875 
L 9.71875 -13.1875 
L 9.71875 -6.203125 
L 21.390625 -6.203125 
L 21.390625 69 
L 9.71875 69 
L 9.71875 75.984375 
z
" id="DejaVuSans-93"/>
   </defs>
   <g transform="translate(99.308845 16.318125)scale(0.12 -0.12)">
    <use xlink:href="#DejaVuSans-108"/>
    <use x="27.783203" xlink:href="#DejaVuSans-97"/>
    <use x="89.0625" xlink:href="#DejaVuSans-110"/>
    <use x="152.441406" xlink:href="#DejaVuSans-99"/>
    <use x="207.421875" xlink:href="#DejaVuSans-97"/>
    <use x="268.701172" xlink:href="#DejaVuSans-115"/>
    <use x="320.800781" xlink:href="#DejaVuSans-116"/>
    <use x="360.009766" xlink:href="#DejaVuSans-101"/>
    <use x="421.533203" xlink:href="#DejaVuSans-114"/>
    <use x="462.646484" xlink:href="#DejaVuSans-115"/>
    <use x="514.746094" xlink:href="#DejaVuSans-101"/>
    <use x="576.269531" xlink:href="#DejaVuSans-110"/>
    <use x="639.648438" xlink:href="#DejaVuSans-115"/>
    <use x="691.748047" xlink:href="#DejaVuSans-111"/>
    <use x="752.929688" xlink:href="#DejaVuSans-114"/>
    <use x="794.042969" xlink:href="#DejaVuSans-105"/>
    <use x="821.826172" xlink:href="#DejaVuSans-109"/>
    <use x="919.238281" xlink:href="#DejaVuSans-111"/>
    <use x="980.419922" xlink:href="#DejaVuSans-116"/>
    <use x="1019.628906" xlink:href="#DejaVuSans-111"/>
    <use x="1080.810547" xlink:href="#DejaVuSans-114"/>
    <use x="1120.173828" xlink:href="#DejaVuSans-110"/>
    <use x="1183.552734" xlink:href="#DejaVuSans-111"/>
    <use x="1244.734375" xlink:href="#DejaVuSans-114"/>
    <use x="1284.097656" xlink:href="#DejaVuSans-109"/>
    <use x="1381.509766" xlink:href="#DejaVuSans-115"/>
    <use x="1433.609375" xlink:href="#DejaVuSans-95"/>
    <use x="1483.609375" xlink:href="#DejaVuSans-84"/>
    <use x="1527.693359" xlink:href="#DejaVuSans-111"/>
    <use x="1588.875" xlink:href="#DejaVuSans-114"/>
    <use x="1629.988281" xlink:href="#DejaVuSans-115"/>
    <use x="1682.087891" xlink:href="#DejaVuSans-111"/>
    <use x="1741.519531" xlink:href="#DejaVuSans-46"/>
    <use x="1773.306641" xlink:href="#DejaVuSans-109"/>
    <use x="1870.71875" xlink:href="#DejaVuSans-101"/>
    <use x="1932.242188" xlink:href="#DejaVuSans-97"/>
    <use x="1993.521484" xlink:href="#DejaVuSans-110"/>
    <use x="2056.900391" xlink:href="#DejaVuSans-32"/>
    <use x="2088.6875" xlink:href="#DejaVuSans-91"/>
    <use x="2127.701172" xlink:href="#DejaVuSans-109"/>
    <use x="2225.113281" xlink:href="#DejaVuSans-111"/>
    <use x="2286.294922" xlink:href="#DejaVuSans-100"/>
    <use x="2349.771484" xlink:href="#DejaVuSans-101"/>
    <use x="2411.294922" xlink:href="#DejaVuSans-108"/>
    <use x="2439.078125" xlink:href="#DejaVuSans-58"/>
    <use x="2472.769531" xlink:href="#DejaVuSans-32"/>
    <use x="2504.556641" xlink:href="#DejaVuSans-108"/>
    <use x="2532.339844" xlink:href="#DejaVuSans-97"/>
    <use x="2593.619141" xlink:href="#DejaVuSans-110"/>
    <use x="2656.998047" xlink:href="#DejaVuSans-99"/>
    <use x="2711.978516" xlink:href="#DejaVuSans-97"/>
    <use x="2773.257812" xlink:href="#DejaVuSans-115"/>
    <use x="2825.357422" xlink:href="#DejaVuSans-116"/>
    <use x="2864.566406" xlink:href="#DejaVuSans-101"/>
    <use x="2926.089844" xlink:href="#DejaVuSans-114"/>
    <use x="2967.203125" xlink:href="#DejaVuSans-115"/>
    <use x="3019.302734" xlink:href="#DejaVuSans-101"/>
    <use x="3080.826172" xlink:href="#DejaVuSans-110"/>
    <use x="3144.205078" xlink:href="#DejaVuSans-115"/>
    <use x="3196.304688" xlink:href="#DejaVuSans-111"/>
    <use x="3257.486328" xlink:href="#DejaVuSans-114"/>
    <use x="3298.599609" xlink:href="#DejaVuSans-105"/>
    <use x="3326.382812" xlink:href="#DejaVuSans-109"/>
    <use x="3423.794922" xlink:href="#DejaVuSans-111"/>
    <use x="3484.976562" xlink:href="#DejaVuSans-116"/>
    <use x="3524.185547" xlink:href="#DejaVuSans-111"/>
    <use x="3585.367188" xlink:href="#DejaVuSans-114"/>
    <use x="3624.730469" xlink:href="#DejaVuSans-110"/>
    <use x="3688.109375" xlink:href="#DejaVuSans-111"/>
    <use x="3749.291016" xlink:href="#DejaVuSans-114"/>
    <use x="3788.654297" xlink:href="#DejaVuSans-109"/>
    <use x="3886.066406" xlink:href="#DejaVuSans-115"/>
    <use x="3938.166016" xlink:href="#DejaVuSans-95"/>
    <use x="3988.166016" xlink:href="#DejaVuSans-84"/>
    <use x="4032.25" xlink:href="#DejaVuSans-111"/>
    <use x="4093.431641" xlink:href="#DejaVuSans-114"/>
    <use x="4134.544922" xlink:href="#DejaVuSans-115"/>
    <use x="4186.644531" xlink:href="#DejaVuSans-111"/>
    <use x="4246.076172" xlink:href="#DejaVuSans-46"/>
    <use x="4277.863281" xlink:href="#DejaVuSans-109"/>
    <use x="4375.275391" xlink:href="#DejaVuSans-101"/>
    <use x="4436.798828" xlink:href="#DejaVuSans-97"/>
    <use x="4498.078125" xlink:href="#DejaVuSans-110"/>
    <use x="4561.457031" xlink:href="#DejaVuSans-93"/>
   </g>
  </g>
  <g id="legend_1">
   <g id="text_13">
    <!-- ds_task -->
    <defs>
     <path d="M 9.078125 75.984375 
L 18.109375 75.984375 
L 18.109375 31.109375 
L 44.921875 54.6875 
L 56.390625 54.6875 
L 27.390625 29.109375 
L 57.625 0 
L 45.90625 0 
L 18.109375 26.703125 
L 18.109375 0 
L 9.078125 0 
z
" id="DejaVuSans-107"/>
    </defs>
    <g transform="translate(677.596345 107.860313)scale(0.1 -0.1)">
     <use xlink:href="#DejaVuSans-100"/>
     <use x="63.476562" xlink:href="#DejaVuSans-115"/>
     <use x="115.576172" xlink:href="#DejaVuSans-95"/>
     <use x="165.576172" xlink:href="#DejaVuSans-116"/>
     <use x="204.785156" xlink:href="#DejaVuSans-97"/>
     <use x="266.064453" xlink:href="#DejaVuSans-115"/>
     <use x="318.164062" xlink:href="#DejaVuSans-107"/>
    </g>
   </g>
   <g id="line2d_12">
    <path d="M 640.891657 119.316563 
L 660.891657 119.316563 
" style="fill:none;stroke:#1f77b4;stroke-linecap:square;stroke-width:1.5;"/>
   </g>
   <g id="line2d_13"/>
   <g id="text_14">
    <!-- Budapest_movie -->
    <defs>
     <path d="M 19.671875 34.8125 
L 19.671875 8.109375 
L 35.5 8.109375 
Q 43.453125 8.109375 47.28125 11.40625 
Q 51.125 14.703125 51.125 21.484375 
Q 51.125 28.328125 47.28125 31.5625 
Q 43.453125 34.8125 35.5 34.8125 
z
M 19.671875 64.796875 
L 19.671875 42.828125 
L 34.28125 42.828125 
Q 41.5 42.828125 45.03125 45.53125 
Q 48.578125 48.25 48.578125 53.8125 
Q 48.578125 59.328125 45.03125 62.0625 
Q 41.5 64.796875 34.28125 64.796875 
z
M 9.8125 72.90625 
L 35.015625 72.90625 
Q 46.296875 72.90625 52.390625 68.21875 
Q 58.5 63.53125 58.5 54.890625 
Q 58.5 48.1875 55.375 44.234375 
Q 52.25 40.28125 46.1875 39.3125 
Q 53.46875 37.75 57.5 32.78125 
Q 61.53125 27.828125 61.53125 20.40625 
Q 61.53125 10.640625 54.890625 5.3125 
Q 48.25 0 35.984375 0 
L 9.8125 0 
z
" id="DejaVuSans-66"/>
     <path d="M 18.109375 8.203125 
L 18.109375 -20.796875 
L 9.078125 -20.796875 
L 9.078125 54.6875 
L 18.109375 54.6875 
L 18.109375 46.390625 
Q 20.953125 51.265625 25.265625 53.625 
Q 29.59375 56 35.59375 56 
Q 45.5625 56 51.78125 48.09375 
Q 58.015625 40.1875 58.015625 27.296875 
Q 58.015625 14.40625 51.78125 6.484375 
Q 45.5625 -1.421875 35.59375 -1.421875 
Q 29.59375 -1.421875 25.265625 0.953125 
Q 20.953125 3.328125 18.109375 8.203125 
z
M 48.6875 27.296875 
Q 48.6875 37.203125 44.609375 42.84375 
Q 40.53125 48.484375 33.40625 48.484375 
Q 26.265625 48.484375 22.1875 42.84375 
Q 18.109375 37.203125 18.109375 27.296875 
Q 18.109375 17.390625 22.1875 11.75 
Q 26.265625 6.109375 33.40625 6.109375 
Q 40.53125 6.109375 44.609375 11.75 
Q 48.6875 17.390625 48.6875 27.296875 
z
" id="DejaVuSans-112"/>
    </defs>
    <g transform="translate(668.891657 122.816563)scale(0.1 -0.1)">
     <use xlink:href="#DejaVuSans-66"/>
     <use x="68.603516" xlink:href="#DejaVuSans-117"/>
     <use x="131.982422" xlink:href="#DejaVuSans-100"/>
     <use x="195.458984" xlink:href="#DejaVuSans-97"/>
     <use x="256.738281" xlink:href="#DejaVuSans-112"/>
     <use x="320.214844" xlink:href="#DejaVuSans-101"/>
     <use x="381.738281" xlink:href="#DejaVuSans-115"/>
     <use x="433.837891" xlink:href="#DejaVuSans-116"/>
     <use x="473.046875" xlink:href="#DejaVuSans-95"/>
     <use x="523.046875" xlink:href="#DejaVuSans-109"/>
     <use x="620.458984" xlink:href="#DejaVuSans-111"/>
     <use x="681.640625" xlink:href="#DejaVuSans-118"/>
     <use x="740.820312" xlink:href="#DejaVuSans-105"/>
     <use x="768.603516" xlink:href="#DejaVuSans-101"/>
    </g>
   </g>
  </g>
 </g>
 <defs>
  <clipPath id="p3fd125daae">
   <rect height="163.4" width="611.727282" x="20.5625" y="24.48"/>
  </clipPath>
 </defs>
</svg>
