<?xml version="1.0" encoding="utf-8" standalone="no"?>
<!DOCTYPE svg PUBLIC "-//W3C//DTD SVG 1.1//EN"
  "http://www.w3.org/Graphics/SVG/1.1/DTD/svg11.dtd">
<!-- Created with matplotlib (https://matplotlib.org/) -->
<svg height="92.270125pt" version="1.1" viewBox="0 0 856.832812 92.270125" width="856.832812pt" xmlns="http://www.w3.org/2000/svg" xmlns:xlink="http://www.w3.org/1999/xlink">
 <defs>
  <style type="text/css">
*{stroke-linecap:butt;stroke-linejoin:round;}
  </style>
 </defs>
 <g id="figure_1">
  <g id="patch_1">
   <path d="M -0 92.270125 
L 856.832812 92.270125 
L 856.832812 0 
L -0 0 
z
" style="fill:none;"/>
  </g>
  <g id="axes_1">
   <g id="patch_2">
    <path d="M 38.482813 68.392 
L 849.632812 68.392 
L 849.632812 34.592 
L 38.482813 34.592 
z
" style="fill:#ffffff;"/>
   </g>
   <g id="matplotlib.axis_1">
    <g id="xtick_1">
     <g id="line2d_1">
      <defs>
       <path d="M 0 0 
L 0 3.5 
" id="mea5a77b7d4" style="stroke:#000000;stroke-width:0.8;"/>
      </defs>
      <g>
       <use style="stroke:#000000;stroke-width:0.8;" x="75.353267" xlink:href="#mea5a77b7d4" y="68.392"/>
      </g>
     </g>
     <g id="text_1">
      <!-- 0 -->
      <defs>
       <path d="M 31.78125 66.40625 
Q 24.171875 66.40625 20.328125 58.90625 
Q 16.5 51.421875 16.5 36.375 
Q 16.5 21.390625 20.328125 13.890625 
Q 24.171875 6.390625 31.78125 6.390625 
Q 39.453125 6.390625 43.28125 13.890625 
Q 47.125 21.390625 47.125 36.375 
Q 47.125 51.421875 43.28125 58.90625 
Q 39.453125 66.40625 31.78125 66.40625 
z
M 31.78125 74.21875 
Q 44.046875 74.21875 50.515625 64.515625 
Q 56.984375 54.828125 56.984375 36.375 
Q 56.984375 17.96875 50.515625 8.265625 
Q 44.046875 -1.421875 31.78125 -1.421875 
Q 19.53125 -1.421875 13.0625 8.265625 
Q 6.59375 17.96875 6.59375 36.375 
Q 6.59375 54.828125 13.0625 64.515625 
Q 19.53125 74.21875 31.78125 74.21875 
z
" id="DejaVuSans-48"/>
      </defs>
      <g transform="translate(72.172017 82.990437)scale(0.1 -0.1)">
       <use xlink:href="#DejaVuSans-48"/>
      </g>
     </g>
    </g>
    <g id="xtick_2">
     <g id="line2d_2">
      <g>
       <use style="stroke:#000000;stroke-width:0.8;" x="213.444857" xlink:href="#mea5a77b7d4" y="68.392"/>
      </g>
     </g>
     <g id="text_2">
      <!-- 100 -->
      <defs>
       <path d="M 12.40625 8.296875 
L 28.515625 8.296875 
L 28.515625 63.921875 
L 10.984375 60.40625 
L 10.984375 69.390625 
L 28.421875 72.90625 
L 38.28125 72.90625 
L 38.28125 8.296875 
L 54.390625 8.296875 
L 54.390625 0 
L 12.40625 0 
z
" id="DejaVuSans-49"/>
      </defs>
      <g transform="translate(203.901107 82.990437)scale(0.1 -0.1)">
       <use xlink:href="#DejaVuSans-49"/>
       <use x="63.623047" xlink:href="#DejaVuSans-48"/>
       <use x="127.246094" xlink:href="#DejaVuSans-48"/>
      </g>
     </g>
    </g>
    <g id="xtick_3">
     <g id="line2d_3">
      <g>
       <use style="stroke:#000000;stroke-width:0.8;" x="351.536447" xlink:href="#mea5a77b7d4" y="68.392"/>
      </g>
     </g>
     <g id="text_3">
      <!-- 200 -->
      <defs>
       <path d="M 19.1875 8.296875 
L 53.609375 8.296875 
L 53.609375 0 
L 7.328125 0 
L 7.328125 8.296875 
Q 12.9375 14.109375 22.625 23.890625 
Q 32.328125 33.6875 34.8125 36.53125 
Q 39.546875 41.84375 41.421875 45.53125 
Q 43.3125 49.21875 43.3125 52.78125 
Q 43.3125 58.59375 39.234375 62.25 
Q 35.15625 65.921875 28.609375 65.921875 
Q 23.96875 65.921875 18.8125 64.3125 
Q 13.671875 62.703125 7.8125 59.421875 
L 7.8125 69.390625 
Q 13.765625 71.78125 18.9375 73 
Q 24.125 74.21875 28.421875 74.21875 
Q 39.75 74.21875 46.484375 68.546875 
Q 53.21875 62.890625 53.21875 53.421875 
Q 53.21875 48.921875 51.53125 44.890625 
Q 49.859375 40.875 45.40625 35.40625 
Q 44.1875 33.984375 37.640625 27.21875 
Q 31.109375 20.453125 19.1875 8.296875 
z
" id="DejaVuSans-50"/>
      </defs>
      <g transform="translate(341.992697 82.990437)scale(0.1 -0.1)">
       <use xlink:href="#DejaVuSans-50"/>
       <use x="63.623047" xlink:href="#DejaVuSans-48"/>
       <use x="127.246094" xlink:href="#DejaVuSans-48"/>
      </g>
     </g>
    </g>
    <g id="xtick_4">
     <g id="line2d_4">
      <g>
       <use style="stroke:#000000;stroke-width:0.8;" x="489.628037" xlink:href="#mea5a77b7d4" y="68.392"/>
      </g>
     </g>
     <g id="text_4">
      <!-- 300 -->
      <defs>
       <path d="M 40.578125 39.3125 
Q 47.65625 37.796875 51.625 33 
Q 55.609375 28.21875 55.609375 21.1875 
Q 55.609375 10.40625 48.1875 4.484375 
Q 40.765625 -1.421875 27.09375 -1.421875 
Q 22.515625 -1.421875 17.65625 -0.515625 
Q 12.796875 0.390625 7.625 2.203125 
L 7.625 11.71875 
Q 11.71875 9.328125 16.59375 8.109375 
Q 21.484375 6.890625 26.8125 6.890625 
Q 36.078125 6.890625 40.9375 10.546875 
Q 45.796875 14.203125 45.796875 21.1875 
Q 45.796875 27.640625 41.28125 31.265625 
Q 36.765625 34.90625 28.71875 34.90625 
L 20.21875 34.90625 
L 20.21875 43.015625 
L 29.109375 43.015625 
Q 36.375 43.015625 40.234375 45.921875 
Q 44.09375 48.828125 44.09375 54.296875 
Q 44.09375 59.90625 40.109375 62.90625 
Q 36.140625 65.921875 28.71875 65.921875 
Q 24.65625 65.921875 20.015625 65.03125 
Q 15.375 64.15625 9.8125 62.3125 
L 9.8125 71.09375 
Q 15.4375 72.65625 20.34375 73.4375 
Q 25.25 74.21875 29.59375 74.21875 
Q 40.828125 74.21875 47.359375 69.109375 
Q 53.90625 64.015625 53.90625 55.328125 
Q 53.90625 49.265625 50.4375 45.09375 
Q 46.96875 40.921875 40.578125 39.3125 
z
" id="DejaVuSans-51"/>
      </defs>
      <g transform="translate(480.084287 82.990437)scale(0.1 -0.1)">
       <use xlink:href="#DejaVuSans-51"/>
       <use x="63.623047" xlink:href="#DejaVuSans-48"/>
       <use x="127.246094" xlink:href="#DejaVuSans-48"/>
      </g>
     </g>
    </g>
    <g id="xtick_5">
     <g id="line2d_5">
      <g>
       <use style="stroke:#000000;stroke-width:0.8;" x="627.719627" xlink:href="#mea5a77b7d4" y="68.392"/>
      </g>
     </g>
     <g id="text_5">
      <!-- 400 -->
      <defs>
       <path d="M 37.796875 64.3125 
L 12.890625 25.390625 
L 37.796875 25.390625 
z
M 35.203125 72.90625 
L 47.609375 72.90625 
L 47.609375 25.390625 
L 58.015625 25.390625 
L 58.015625 17.1875 
L 47.609375 17.1875 
L 47.609375 0 
L 37.796875 0 
L 37.796875 17.1875 
L 4.890625 17.1875 
L 4.890625 26.703125 
z
" id="DejaVuSans-52"/>
      </defs>
      <g transform="translate(618.175877 82.990437)scale(0.1 -0.1)">
       <use xlink:href="#DejaVuSans-52"/>
       <use x="63.623047" xlink:href="#DejaVuSans-48"/>
       <use x="127.246094" xlink:href="#DejaVuSans-48"/>
      </g>
     </g>
    </g>
    <g id="xtick_6">
     <g id="line2d_6">
      <g>
       <use style="stroke:#000000;stroke-width:0.8;" x="765.811217" xlink:href="#mea5a77b7d4" y="68.392"/>
      </g>
     </g>
     <g id="text_6">
      <!-- 500 -->
      <defs>
       <path d="M 10.796875 72.90625 
L 49.515625 72.90625 
L 49.515625 64.59375 
L 19.828125 64.59375 
L 19.828125 46.734375 
Q 21.96875 47.46875 24.109375 47.828125 
Q 26.265625 48.1875 28.421875 48.1875 
Q 40.625 48.1875 47.75 41.5 
Q 54.890625 34.8125 54.890625 23.390625 
Q 54.890625 11.625 47.5625 5.09375 
Q 40.234375 -1.421875 26.90625 -1.421875 
Q 22.3125 -1.421875 17.546875 -0.640625 
Q 12.796875 0.140625 7.71875 1.703125 
L 7.71875 11.625 
Q 12.109375 9.234375 16.796875 8.0625 
Q 21.484375 6.890625 26.703125 6.890625 
Q 35.15625 6.890625 40.078125 11.328125 
Q 45.015625 15.765625 45.015625 23.390625 
Q 45.015625 31 40.078125 35.4375 
Q 35.15625 39.890625 26.703125 39.890625 
Q 22.75 39.890625 18.8125 39.015625 
Q 14.890625 38.140625 10.796875 36.28125 
z
" id="DejaVuSans-53"/>
      </defs>
      <g transform="translate(756.267467 82.990437)scale(0.1 -0.1)">
       <use xlink:href="#DejaVuSans-53"/>
       <use x="63.623047" xlink:href="#DejaVuSans-48"/>
       <use x="127.246094" xlink:href="#DejaVuSans-48"/>
      </g>
     </g>
    </g>
   </g>
   <g id="matplotlib.axis_2">
    <g id="ytick_1">
     <g id="line2d_7">
      <defs>
       <path d="M 0 0 
L -3.5 0 
" id="md0c2ef8ba9" style="stroke:#000000;stroke-width:0.8;"/>
      </defs>
      <g>
       <use style="stroke:#000000;stroke-width:0.8;" x="38.482813" xlink:href="#md0c2ef8ba9" y="68.100247"/>
      </g>
     </g>
     <g id="text_7">
      <!-- −0.5 -->
      <defs>
       <path d="M 10.59375 35.5 
L 73.1875 35.5 
L 73.1875 27.203125 
L 10.59375 27.203125 
z
" id="DejaVuSans-8722"/>
       <path d="M 10.6875 12.40625 
L 21 12.40625 
L 21 0 
L 10.6875 0 
z
" id="DejaVuSans-46"/>
      </defs>
      <g transform="translate(7.2 71.899466)scale(0.1 -0.1)">
       <use xlink:href="#DejaVuSans-8722"/>
       <use x="83.789062" xlink:href="#DejaVuSans-48"/>
       <use x="147.412109" xlink:href="#DejaVuSans-46"/>
       <use x="179.199219" xlink:href="#DejaVuSans-53"/>
      </g>
     </g>
    </g>
    <g id="ytick_2">
     <g id="line2d_8">
      <g>
       <use style="stroke:#000000;stroke-width:0.8;" x="38.482813" xlink:href="#md0c2ef8ba9" y="51.600072"/>
      </g>
     </g>
     <g id="text_8">
      <!-- 0.0 -->
      <g transform="translate(15.579688 55.399291)scale(0.1 -0.1)">
       <use xlink:href="#DejaVuSans-48"/>
       <use x="63.623047" xlink:href="#DejaVuSans-46"/>
       <use x="95.410156" xlink:href="#DejaVuSans-48"/>
      </g>
     </g>
    </g>
    <g id="ytick_3">
     <g id="line2d_9">
      <g>
       <use style="stroke:#000000;stroke-width:0.8;" x="38.482813" xlink:href="#md0c2ef8ba9" y="35.099897"/>
      </g>
     </g>
     <g id="text_9">
      <!-- 0.5 -->
      <g transform="translate(15.579688 38.899116)scale(0.1 -0.1)">
       <use xlink:href="#DejaVuSans-48"/>
       <use x="63.623047" xlink:href="#DejaVuSans-46"/>
       <use x="95.410156" xlink:href="#DejaVuSans-53"/>
      </g>
     </g>
    </g>
   </g>
   <g id="line2d_10">
    <path clip-path="url(#p8fc405c6da)" d="M 75.353267 51.600072 
L 93.305174 51.611323 
L 94.68609 51.914097 
L 96.067006 52.835772 
L 97.447921 54.453419 
L 98.828837 56.371587 
L 100.209753 57.929956 
L 101.590669 58.350871 
L 102.971585 57.658522 
L 104.352501 56.188933 
L 105.733417 53.112021 
L 107.114333 48.947022 
L 108.495249 45.267561 
L 109.876165 43.027504 
L 111.25708 42.183397 
L 112.637996 42.127797 
L 114.018912 42.360683 
L 115.399828 43.049255 
L 116.780744 44.347073 
L 120.923492 49.360001 
L 122.304408 50.573756 
L 123.685324 51.439617 
L 125.066239 52.004102 
L 126.447155 52.331676 
L 127.828071 52.484209 
L 130.589903 52.463579 
L 137.494483 51.907183 
L 138.875398 51.74706 
L 140.256314 50.822338 
L 141.63723 49.745914 
L 143.018146 50.073944 
L 144.399062 51.017569 
L 145.779978 52.408638 
L 147.160894 55.054092 
L 148.54181 56.83234 
L 149.922726 56.201504 
L 151.303642 54.533848 
L 152.684557 53.452491 
L 154.065473 53.816808 
L 155.446389 55.184215 
L 156.827305 56.280136 
L 158.208221 56.709522 
L 159.589137 57.339845 
L 160.970053 58.879764 
L 162.350969 60.814632 
L 163.731885 61.363803 
L 165.112801 60.077293 
L 166.493716 58.622858 
L 167.874632 58.00718 
L 169.255548 57.055015 
L 170.636464 54.742869 
L 172.01738 51.973658 
L 173.398296 49.702173 
L 174.779212 48.458218 
L 176.160128 49.074354 
L 177.541044 51.677148 
L 178.92196 55.203828 
L 180.302875 58.165811 
L 181.683791 59.849574 
L 183.064707 60.048815 
L 184.445623 59.261292 
L 185.826539 58.650658 
L 187.207455 58.353587 
L 188.588371 57.559567 
L 189.969287 55.725436 
L 191.350203 53.625405 
L 192.731119 52.105013 
L 194.112034 51.193461 
L 195.49295 51.463615 
L 198.254782 54.233278 
L 199.635698 54.261659 
L 201.016614 53.423445 
L 202.39753 52.722375 
L 203.778446 51.838527 
L 205.159362 51.415803 
L 206.540278 52.548439 
L 207.921194 54.557009 
L 209.302109 56.262351 
L 210.683025 57.1656 
L 212.063941 56.910048 
L 213.444857 55.503015 
L 214.825773 53.750813 
L 216.206689 52.388044 
L 217.587605 51.569307 
L 218.968521 51.270693 
L 220.349437 51.688474 
L 221.730353 52.525632 
L 223.111268 53.155157 
L 224.492184 53.30806 
L 225.8731 53.080825 
L 230.015848 51.96823 
L 232.77768 51.574285 
L 235.539512 51.408218 
L 239.682259 51.381375 
L 243.825007 51.508399 
L 245.205923 51.994756 
L 246.586839 53.170156 
L 249.348671 56.818679 
L 250.729586 57.569341 
L 252.110502 57.165642 
L 253.491418 56.286206 
L 254.872334 55.041438 
L 256.25325 53.092541 
L 257.634166 50.734966 
L 261.776914 42.700217 
L 263.15783 40.791469 
L 264.538745 39.894545 
L 265.919661 40.761325 
L 267.300577 42.922572 
L 268.681493 45.455679 
L 270.062409 47.731795 
L 274.205157 53.81434 
L 278.347904 58.630339 
L 279.72882 60.036258 
L 281.109736 61.230625 
L 282.490652 62.772878 
L 283.871568 64.849437 
L 285.252484 66.615848 
L 286.6334 66.855636 
L 288.014316 65.927484 
L 290.776148 63.736206 
L 292.157063 62.370135 
L 293.537979 60.706343 
L 297.680727 55.138625 
L 300.442559 52.475875 
L 303.204391 48.374966 
L 304.585307 48.061143 
L 305.966222 49.812263 
L 307.347138 52.180669 
L 308.728054 53.753265 
L 310.10897 54.566621 
L 311.489886 55.158299 
L 312.870802 55.943781 
L 314.251718 57.243663 
L 315.632634 57.9918 
L 317.01355 57.329502 
L 321.156297 52.884989 
L 322.537213 51.99163 
L 326.679961 50.209313 
L 329.441793 48.439346 
L 330.822709 47.097107 
L 332.203625 44.765576 
L 333.58454 41.899082 
L 334.965456 40.11209 
L 336.346372 40.370218 
L 337.727288 42.490592 
L 339.108204 45.54622 
L 340.48912 48.874365 
L 341.870036 52.727863 
L 343.250952 56.918962 
L 344.631868 60.072667 
L 346.012784 61.229505 
L 347.393699 60.621358 
L 350.155531 57.898567 
L 351.536447 56.373115 
L 352.917363 52.924973 
L 355.679195 41.424523 
L 357.060111 37.449315 
L 358.441027 36.19211 
L 359.821943 36.128364 
L 361.202858 36.417234 
L 362.583774 37.715117 
L 363.96469 40.162836 
L 365.345606 43.104473 
L 366.726522 45.616685 
L 368.107438 47.314131 
L 372.250186 51.195659 
L 373.631102 52.139848 
L 375.012017 52.396211 
L 376.392933 51.59622 
L 377.773849 49.662526 
L 379.154765 47.401736 
L 380.535681 46.166958 
L 381.916597 46.569972 
L 384.678429 49.835323 
L 386.059345 50.419201 
L 387.440261 50.519935 
L 388.821176 51.142814 
L 391.583008 53.309515 
L 394.34484 56.485913 
L 395.725756 57.394521 
L 397.106672 57.648549 
L 398.487588 58.227323 
L 401.24942 60.277676 
L 402.630335 61.057722 
L 404.011251 61.518614 
L 405.392167 61.536456 
L 406.773083 61.184573 
L 408.153999 60.363831 
L 410.915831 57.849494 
L 412.296747 56.904862 
L 413.677663 55.769702 
L 415.058579 54.156604 
L 416.439494 52.182905 
L 419.201326 47.243088 
L 420.582242 45.574349 
L 421.963158 45.539584 
L 423.344074 47.517193 
L 424.72499 50.429596 
L 426.105906 52.769565 
L 427.486822 54.090434 
L 428.867738 54.608103 
L 430.248653 54.401555 
L 433.010485 52.714578 
L 434.391401 52.186799 
L 435.772317 52.186497 
L 439.915065 52.878126 
L 441.295981 54.147136 
L 442.676897 55.99448 
L 444.057812 57.457854 
L 445.438728 57.882333 
L 446.819644 57.267917 
L 452.343308 52.601449 
L 453.724224 51.770824 
L 455.10514 51.237556 
L 456.486056 50.948986 
L 459.247887 50.735294 
L 460.628803 50.766548 
L 462.009719 51.267362 
L 463.390635 52.253091 
L 464.771551 53.930311 
L 466.152467 56.076202 
L 467.533383 57.562946 
L 468.914299 57.387472 
L 471.676131 53.977267 
L 473.057046 53.001786 
L 474.437962 52.980885 
L 475.818878 52.710973 
L 477.199794 50.397621 
L 478.58071 46.615486 
L 479.961626 43.88705 
L 481.342542 43.526503 
L 482.723458 45.135972 
L 484.104374 47.869021 
L 485.48529 51.039144 
L 486.866205 53.355482 
L 488.247121 54.058977 
L 489.628037 53.708504 
L 492.389869 52.549402 
L 493.770785 52.221475 
L 495.151701 52.071345 
L 496.532617 52.165869 
L 499.294449 52.552917 
L 500.675364 52.602662 
L 502.05628 53.076195 
L 503.437196 54.258401 
L 504.818112 55.872688 
L 506.199028 57.281222 
L 507.579944 57.678062 
L 508.96086 56.279596 
L 510.341776 54.070757 
L 511.722692 53.302458 
L 513.103608 54.481317 
L 514.484523 55.938641 
L 515.865439 55.830257 
L 517.246355 54.796536 
L 518.627271 54.214986 
L 522.770019 53.86505 
L 525.531851 53.081016 
L 526.912767 53.532782 
L 529.674598 56.739834 
L 531.055514 57.763225 
L 532.43643 57.931835 
L 533.817346 57.067408 
L 536.579178 54.161609 
L 537.960094 53.011633 
L 539.34101 52.407434 
L 540.721926 52.275049 
L 543.483757 52.166262 
L 550.388337 51.806452 
L 551.769253 52.289014 
L 554.531085 54.95842 
L 555.912 55.551053 
L 557.292916 55.313805 
L 558.673832 54.578563 
L 560.054748 53.480523 
L 561.435664 52.037767 
L 562.81658 50.784262 
L 564.197496 50.394499 
L 565.578412 50.777927 
L 566.959328 50.86665 
L 568.340244 50.257716 
L 569.721159 49.499936 
L 571.102075 49.126608 
L 572.482991 49.197121 
L 573.863907 49.085866 
L 575.244823 48.359592 
L 576.625739 47.437803 
L 578.006655 46.953192 
L 579.387571 47.178696 
L 580.768487 47.945968 
L 583.530318 49.867488 
L 584.911234 50.635011 
L 586.29215 51.203651 
L 587.673066 51.595651 
L 590.434898 51.993565 
L 593.19673 52.071888 
L 598.720393 51.857954 
L 600.101309 51.690726 
L 602.863141 51.166775 
L 604.244057 51.139972 
L 605.624973 50.901357 
L 607.005889 49.755805 
L 608.386805 48.421415 
L 609.767721 48.048672 
L 611.148636 48.788101 
L 612.529552 50.31338 
L 613.910468 51.036523 
L 615.291384 49.893584 
L 616.6723 47.989538 
L 618.053216 46.780347 
L 619.434132 46.724519 
L 620.815048 47.498903 
L 623.57688 49.643544 
L 624.957795 50.490609 
L 626.338711 51.078471 
L 627.719627 51.471143 
L 629.100543 51.995564 
L 630.481459 52.677787 
L 631.862375 53.193285 
L 633.243291 53.362642 
L 634.624207 53.231213 
L 641.528786 51.868863 
L 644.290618 51.633662 
L 648.433366 51.514997 
L 660.861609 51.586068 
L 662.242525 50.87157 
L 663.623441 48.141999 
L 665.004357 44.579569 
L 666.385272 42.372744 
L 667.766188 42.235587 
L 669.147104 43.605201 
L 670.52802 45.572452 
L 671.908936 47.228693 
L 673.289852 47.959176 
L 676.051684 48.508985 
L 677.4326 48.315279 
L 680.194431 46.896818 
L 681.575347 45.416342 
L 684.337179 38.937403 
L 685.718095 37.787379 
L 687.099011 38.244922 
L 688.479927 39.481728 
L 689.860843 42.212307 
L 692.622675 49.609703 
L 694.003591 52.093633 
L 695.384506 53.448137 
L 696.765422 53.992761 
L 698.146338 54.070014 
L 699.527254 53.905369 
L 700.90817 53.575396 
L 702.289086 52.275468 
L 703.670002 49.772304 
L 705.050918 47.981917 
L 707.81275 47.710959 
L 709.193665 46.416859 
L 710.574581 44.759183 
L 711.955497 43.286991 
L 713.336413 42.146342 
L 714.717329 41.60755 
L 716.098245 41.752273 
L 717.479161 42.951725 
L 718.860077 45.397352 
L 720.240993 48.290227 
L 721.621909 50.137273 
L 723.002824 50.783144 
L 724.38374 50.924319 
L 725.764656 51.190114 
L 727.145572 52.440625 
L 728.526488 54.389265 
L 729.907404 55.897598 
L 731.28832 56.377439 
L 732.669236 56.511553 
L 734.050152 57.151579 
L 735.431068 58.043324 
L 736.811983 58.422174 
L 738.192899 56.722349 
L 739.573815 52.405593 
L 740.954731 47.596885 
L 742.335647 43.99911 
L 743.716563 42.571512 
L 745.097479 44.39748 
L 746.478395 48.757959 
L 747.859311 53.599881 
L 749.240227 57.02677 
L 750.621142 57.950567 
L 752.002058 56.943665 
L 753.382974 55.759289 
L 754.76389 54.943268 
L 756.144806 54.454566 
L 757.525722 54.591174 
L 758.906638 54.403592 
L 760.287554 53.098567 
L 763.049386 49.429609 
L 764.430301 47.518135 
L 765.811217 46.404901 
L 767.192133 46.617991 
L 768.573049 47.179956 
L 771.334881 47.346878 
L 772.715797 47.72875 
L 774.096713 48.471729 
L 775.477629 49.57617 
L 778.23946 52.048253 
L 779.620376 53.123563 
L 781.001292 53.648532 
L 782.382208 53.25038 
L 786.524956 50.724043 
L 789.286788 47.673773 
L 790.667704 46.819108 
L 792.048619 46.743629 
L 793.429535 47.030578 
L 794.810451 47.552193 
L 797.572283 49.1485 
L 800.334115 50.70427 
L 801.715031 51.256331 
L 803.095947 51.645262 
L 805.857778 52.029212 
L 808.61961 52.085005 
L 812.762358 51.920872 
L 812.762358 51.920872 
" style="fill:none;stroke:#1f77b4;stroke-linecap:square;stroke-width:1.5;"/>
   </g>
   <g id="patch_3">
    <path d="M 38.482813 68.392 
L 38.482813 34.592 
" style="fill:none;stroke:#000000;stroke-linecap:square;stroke-linejoin:miter;stroke-width:0.8;"/>
   </g>
   <g id="patch_4">
    <path d="M 38.482813 68.392 
L 849.632812 68.392 
" style="fill:none;stroke:#000000;stroke-linecap:square;stroke-linejoin:miter;stroke-width:0.8;"/>
   </g>
   <g id="text_10">
    <!-- Budapest_movie -->
    <defs>
     <path d="M 19.671875 34.8125 
L 19.671875 8.109375 
L 35.5 8.109375 
Q 43.453125 8.109375 47.28125 11.40625 
Q 51.125 14.703125 51.125 21.484375 
Q 51.125 28.328125 47.28125 31.5625 
Q 43.453125 34.8125 35.5 34.8125 
z
M 19.671875 64.796875 
L 19.671875 42.828125 
L 34.28125 42.828125 
Q 41.5 42.828125 45.03125 45.53125 
Q 48.578125 48.25 48.578125 53.8125 
Q 48.578125 59.328125 45.03125 62.0625 
Q 41.5 64.796875 34.28125 64.796875 
z
M 9.8125 72.90625 
L 35.015625 72.90625 
Q 46.296875 72.90625 52.390625 68.21875 
Q 58.5 63.53125 58.5 54.890625 
Q 58.5 48.1875 55.375 44.234375 
Q 52.25 40.28125 46.1875 39.3125 
Q 53.46875 37.75 57.5 32.78125 
Q 61.53125 27.828125 61.53125 20.40625 
Q 61.53125 10.640625 54.890625 5.3125 
Q 48.25 0 35.984375 0 
L 9.8125 0 
z
" id="DejaVuSans-66"/>
     <path d="M 8.5 21.578125 
L 8.5 54.6875 
L 17.484375 54.6875 
L 17.484375 21.921875 
Q 17.484375 14.15625 20.5 10.265625 
Q 23.53125 6.390625 29.59375 6.390625 
Q 36.859375 6.390625 41.078125 11.03125 
Q 45.3125 15.671875 45.3125 23.6875 
L 45.3125 54.6875 
L 54.296875 54.6875 
L 54.296875 0 
L 45.3125 0 
L 45.3125 8.40625 
Q 42.046875 3.421875 37.71875 1 
Q 33.40625 -1.421875 27.6875 -1.421875 
Q 18.265625 -1.421875 13.375 4.4375 
Q 8.5 10.296875 8.5 21.578125 
z
M 31.109375 56 
z
" id="DejaVuSans-117"/>
     <path d="M 45.40625 46.390625 
L 45.40625 75.984375 
L 54.390625 75.984375 
L 54.390625 0 
L 45.40625 0 
L 45.40625 8.203125 
Q 42.578125 3.328125 38.25 0.953125 
Q 33.9375 -1.421875 27.875 -1.421875 
Q 17.96875 -1.421875 11.734375 6.484375 
Q 5.515625 14.40625 5.515625 27.296875 
Q 5.515625 40.1875 11.734375 48.09375 
Q 17.96875 56 27.875 56 
Q 33.9375 56 38.25 53.625 
Q 42.578125 51.265625 45.40625 46.390625 
z
M 14.796875 27.296875 
Q 14.796875 17.390625 18.875 11.75 
Q 22.953125 6.109375 30.078125 6.109375 
Q 37.203125 6.109375 41.296875 11.75 
Q 45.40625 17.390625 45.40625 27.296875 
Q 45.40625 37.203125 41.296875 42.84375 
Q 37.203125 48.484375 30.078125 48.484375 
Q 22.953125 48.484375 18.875 42.84375 
Q 14.796875 37.203125 14.796875 27.296875 
z
" id="DejaVuSans-100"/>
     <path d="M 34.28125 27.484375 
Q 23.390625 27.484375 19.1875 25 
Q 14.984375 22.515625 14.984375 16.5 
Q 14.984375 11.71875 18.140625 8.90625 
Q 21.296875 6.109375 26.703125 6.109375 
Q 34.1875 6.109375 38.703125 11.40625 
Q 43.21875 16.703125 43.21875 25.484375 
L 43.21875 27.484375 
z
M 52.203125 31.203125 
L 52.203125 0 
L 43.21875 0 
L 43.21875 8.296875 
Q 40.140625 3.328125 35.546875 0.953125 
Q 30.953125 -1.421875 24.3125 -1.421875 
Q 15.921875 -1.421875 10.953125 3.296875 
Q 6 8.015625 6 15.921875 
Q 6 25.140625 12.171875 29.828125 
Q 18.359375 34.515625 30.609375 34.515625 
L 43.21875 34.515625 
L 43.21875 35.40625 
Q 43.21875 41.609375 39.140625 45 
Q 35.0625 48.390625 27.6875 48.390625 
Q 23 48.390625 18.546875 47.265625 
Q 14.109375 46.140625 10.015625 43.890625 
L 10.015625 52.203125 
Q 14.9375 54.109375 19.578125 55.046875 
Q 24.21875 56 28.609375 56 
Q 40.484375 56 46.34375 49.84375 
Q 52.203125 43.703125 52.203125 31.203125 
z
" id="DejaVuSans-97"/>
     <path d="M 18.109375 8.203125 
L 18.109375 -20.796875 
L 9.078125 -20.796875 
L 9.078125 54.6875 
L 18.109375 54.6875 
L 18.109375 46.390625 
Q 20.953125 51.265625 25.265625 53.625 
Q 29.59375 56 35.59375 56 
Q 45.5625 56 51.78125 48.09375 
Q 58.015625 40.1875 58.015625 27.296875 
Q 58.015625 14.40625 51.78125 6.484375 
Q 45.5625 -1.421875 35.59375 -1.421875 
Q 29.59375 -1.421875 25.265625 0.953125 
Q 20.953125 3.328125 18.109375 8.203125 
z
M 48.6875 27.296875 
Q 48.6875 37.203125 44.609375 42.84375 
Q 40.53125 48.484375 33.40625 48.484375 
Q 26.265625 48.484375 22.1875 42.84375 
Q 18.109375 37.203125 18.109375 27.296875 
Q 18.109375 17.390625 22.1875 11.75 
Q 26.265625 6.109375 33.40625 6.109375 
Q 40.53125 6.109375 44.609375 11.75 
Q 48.6875 17.390625 48.6875 27.296875 
z
" id="DejaVuSans-112"/>
     <path d="M 56.203125 29.59375 
L 56.203125 25.203125 
L 14.890625 25.203125 
Q 15.484375 15.921875 20.484375 11.0625 
Q 25.484375 6.203125 34.421875 6.203125 
Q 39.59375 6.203125 44.453125 7.46875 
Q 49.3125 8.734375 54.109375 11.28125 
L 54.109375 2.78125 
Q 49.265625 0.734375 44.1875 -0.34375 
Q 39.109375 -1.421875 33.890625 -1.421875 
Q 20.796875 -1.421875 13.15625 6.1875 
Q 5.515625 13.8125 5.515625 26.8125 
Q 5.515625 40.234375 12.765625 48.109375 
Q 20.015625 56 32.328125 56 
Q 43.359375 56 49.78125 48.890625 
Q 56.203125 41.796875 56.203125 29.59375 
z
M 47.21875 32.234375 
Q 47.125 39.59375 43.09375 43.984375 
Q 39.0625 48.390625 32.421875 48.390625 
Q 24.90625 48.390625 20.390625 44.140625 
Q 15.875 39.890625 15.1875 32.171875 
z
" id="DejaVuSans-101"/>
     <path d="M 44.28125 53.078125 
L 44.28125 44.578125 
Q 40.484375 46.53125 36.375 47.5 
Q 32.28125 48.484375 27.875 48.484375 
Q 21.1875 48.484375 17.84375 46.4375 
Q 14.5 44.390625 14.5 40.28125 
Q 14.5 37.15625 16.890625 35.375 
Q 19.28125 33.59375 26.515625 31.984375 
L 29.59375 31.296875 
Q 39.15625 29.25 43.1875 25.515625 
Q 47.21875 21.78125 47.21875 15.09375 
Q 47.21875 7.46875 41.1875 3.015625 
Q 35.15625 -1.421875 24.609375 -1.421875 
Q 20.21875 -1.421875 15.453125 -0.5625 
Q 10.6875 0.296875 5.421875 2 
L 5.421875 11.28125 
Q 10.40625 8.6875 15.234375 7.390625 
Q 20.0625 6.109375 24.8125 6.109375 
Q 31.15625 6.109375 34.5625 8.28125 
Q 37.984375 10.453125 37.984375 14.40625 
Q 37.984375 18.0625 35.515625 20.015625 
Q 33.0625 21.96875 24.703125 23.78125 
L 21.578125 24.515625 
Q 13.234375 26.265625 9.515625 29.90625 
Q 5.8125 33.546875 5.8125 39.890625 
Q 5.8125 47.609375 11.28125 51.796875 
Q 16.75 56 26.8125 56 
Q 31.78125 56 36.171875 55.265625 
Q 40.578125 54.546875 44.28125 53.078125 
z
" id="DejaVuSans-115"/>
     <path d="M 18.3125 70.21875 
L 18.3125 54.6875 
L 36.8125 54.6875 
L 36.8125 47.703125 
L 18.3125 47.703125 
L 18.3125 18.015625 
Q 18.3125 11.328125 20.140625 9.421875 
Q 21.96875 7.515625 27.59375 7.515625 
L 36.8125 7.515625 
L 36.8125 0 
L 27.59375 0 
Q 17.1875 0 13.234375 3.875 
Q 9.28125 7.765625 9.28125 18.015625 
L 9.28125 47.703125 
L 2.6875 47.703125 
L 2.6875 54.6875 
L 9.28125 54.6875 
L 9.28125 70.21875 
z
" id="DejaVuSans-116"/>
     <path d="M 50.984375 -16.609375 
L 50.984375 -23.578125 
L -0.984375 -23.578125 
L -0.984375 -16.609375 
z
" id="DejaVuSans-95"/>
     <path d="M 52 44.1875 
Q 55.375 50.25 60.0625 53.125 
Q 64.75 56 71.09375 56 
Q 79.640625 56 84.28125 50.015625 
Q 88.921875 44.046875 88.921875 33.015625 
L 88.921875 0 
L 79.890625 0 
L 79.890625 32.71875 
Q 79.890625 40.578125 77.09375 44.375 
Q 74.3125 48.1875 68.609375 48.1875 
Q 61.625 48.1875 57.5625 43.546875 
Q 53.515625 38.921875 53.515625 30.90625 
L 53.515625 0 
L 44.484375 0 
L 44.484375 32.71875 
Q 44.484375 40.625 41.703125 44.40625 
Q 38.921875 48.1875 33.109375 48.1875 
Q 26.21875 48.1875 22.15625 43.53125 
Q 18.109375 38.875 18.109375 30.90625 
L 18.109375 0 
L 9.078125 0 
L 9.078125 54.6875 
L 18.109375 54.6875 
L 18.109375 46.1875 
Q 21.1875 51.21875 25.484375 53.609375 
Q 29.78125 56 35.6875 56 
Q 41.65625 56 45.828125 52.96875 
Q 50 49.953125 52 44.1875 
z
" id="DejaVuSans-109"/>
     <path d="M 30.609375 48.390625 
Q 23.390625 48.390625 19.1875 42.75 
Q 14.984375 37.109375 14.984375 27.296875 
Q 14.984375 17.484375 19.15625 11.84375 
Q 23.34375 6.203125 30.609375 6.203125 
Q 37.796875 6.203125 41.984375 11.859375 
Q 46.1875 17.53125 46.1875 27.296875 
Q 46.1875 37.015625 41.984375 42.703125 
Q 37.796875 48.390625 30.609375 48.390625 
z
M 30.609375 56 
Q 42.328125 56 49.015625 48.375 
Q 55.71875 40.765625 55.71875 27.296875 
Q 55.71875 13.875 49.015625 6.21875 
Q 42.328125 -1.421875 30.609375 -1.421875 
Q 18.84375 -1.421875 12.171875 6.21875 
Q 5.515625 13.875 5.515625 27.296875 
Q 5.515625 40.765625 12.171875 48.375 
Q 18.84375 56 30.609375 56 
z
" id="DejaVuSans-111"/>
     <path d="M 2.984375 54.6875 
L 12.5 54.6875 
L 29.59375 8.796875 
L 46.6875 54.6875 
L 56.203125 54.6875 
L 35.6875 0 
L 23.484375 0 
z
" id="DejaVuSans-118"/>
     <path d="M 9.421875 54.6875 
L 18.40625 54.6875 
L 18.40625 0 
L 9.421875 0 
z
M 9.421875 75.984375 
L 18.40625 75.984375 
L 18.40625 64.59375 
L 9.421875 64.59375 
z
" id="DejaVuSans-105"/>
    </defs>
    <g transform="translate(402.55 28.592)scale(0.1 -0.1)">
     <use xlink:href="#DejaVuSans-66"/>
     <use x="68.603516" xlink:href="#DejaVuSans-117"/>
     <use x="131.982422" xlink:href="#DejaVuSans-100"/>
     <use x="195.458984" xlink:href="#DejaVuSans-97"/>
     <use x="256.738281" xlink:href="#DejaVuSans-112"/>
     <use x="320.214844" xlink:href="#DejaVuSans-101"/>
     <use x="381.738281" xlink:href="#DejaVuSans-115"/>
     <use x="433.837891" xlink:href="#DejaVuSans-116"/>
     <use x="473.046875" xlink:href="#DejaVuSans-95"/>
     <use x="523.046875" xlink:href="#DejaVuSans-109"/>
     <use x="620.458984" xlink:href="#DejaVuSans-111"/>
     <use x="681.640625" xlink:href="#DejaVuSans-118"/>
     <use x="740.820312" xlink:href="#DejaVuSans-105"/>
     <use x="768.603516" xlink:href="#DejaVuSans-101"/>
    </g>
   </g>
  </g>
  <g id="text_11">
   <!-- lancastersensorimotornorms_Interoceptive.mean [model: lancastersensorimotornorms_Interoceptive.mean] -->
   <defs>
    <path d="M 9.421875 75.984375 
L 18.40625 75.984375 
L 18.40625 0 
L 9.421875 0 
z
" id="DejaVuSans-108"/>
    <path d="M 54.890625 33.015625 
L 54.890625 0 
L 45.90625 0 
L 45.90625 32.71875 
Q 45.90625 40.484375 42.875 44.328125 
Q 39.84375 48.1875 33.796875 48.1875 
Q 26.515625 48.1875 22.3125 43.546875 
Q 18.109375 38.921875 18.109375 30.90625 
L 18.109375 0 
L 9.078125 0 
L 9.078125 54.6875 
L 18.109375 54.6875 
L 18.109375 46.1875 
Q 21.34375 51.125 25.703125 53.5625 
Q 30.078125 56 35.796875 56 
Q 45.21875 56 50.046875 50.171875 
Q 54.890625 44.34375 54.890625 33.015625 
z
" id="DejaVuSans-110"/>
    <path d="M 48.78125 52.59375 
L 48.78125 44.1875 
Q 44.96875 46.296875 41.140625 47.34375 
Q 37.3125 48.390625 33.40625 48.390625 
Q 24.65625 48.390625 19.8125 42.84375 
Q 14.984375 37.3125 14.984375 27.296875 
Q 14.984375 17.28125 19.8125 11.734375 
Q 24.65625 6.203125 33.40625 6.203125 
Q 37.3125 6.203125 41.140625 7.25 
Q 44.96875 8.296875 48.78125 10.40625 
L 48.78125 2.09375 
Q 45.015625 0.34375 40.984375 -0.53125 
Q 36.96875 -1.421875 32.421875 -1.421875 
Q 20.0625 -1.421875 12.78125 6.34375 
Q 5.515625 14.109375 5.515625 27.296875 
Q 5.515625 40.671875 12.859375 48.328125 
Q 20.21875 56 33.015625 56 
Q 37.15625 56 41.109375 55.140625 
Q 45.0625 54.296875 48.78125 52.59375 
z
" id="DejaVuSans-99"/>
    <path d="M 41.109375 46.296875 
Q 39.59375 47.171875 37.8125 47.578125 
Q 36.03125 48 33.890625 48 
Q 26.265625 48 22.1875 43.046875 
Q 18.109375 38.09375 18.109375 28.8125 
L 18.109375 0 
L 9.078125 0 
L 9.078125 54.6875 
L 18.109375 54.6875 
L 18.109375 46.1875 
Q 20.953125 51.171875 25.484375 53.578125 
Q 30.03125 56 36.53125 56 
Q 37.453125 56 38.578125 55.875 
Q 39.703125 55.765625 41.0625 55.515625 
z
" id="DejaVuSans-114"/>
    <path d="M 9.8125 72.90625 
L 19.671875 72.90625 
L 19.671875 0 
L 9.8125 0 
z
" id="DejaVuSans-73"/>
    <path id="DejaVuSans-32"/>
    <path d="M 8.59375 75.984375 
L 29.296875 75.984375 
L 29.296875 69 
L 17.578125 69 
L 17.578125 -6.203125 
L 29.296875 -6.203125 
L 29.296875 -13.1875 
L 8.59375 -13.1875 
z
" id="DejaVuSans-91"/>
    <path d="M 11.71875 12.40625 
L 22.015625 12.40625 
L 22.015625 0 
L 11.71875 0 
z
M 11.71875 51.703125 
L 22.015625 51.703125 
L 22.015625 39.3125 
L 11.71875 39.3125 
z
" id="DejaVuSans-58"/>
    <path d="M 30.421875 75.984375 
L 30.421875 -13.1875 
L 9.71875 -13.1875 
L 9.71875 -6.203125 
L 21.390625 -6.203125 
L 21.390625 69 
L 9.71875 69 
L 9.71875 75.984375 
z
" id="DejaVuSans-93"/>
   </defs>
   <g transform="translate(103.995 16.318125)scale(0.12 -0.12)">
    <use xlink:href="#DejaVuSans-108"/>
    <use x="27.783203" xlink:href="#DejaVuSans-97"/>
    <use x="89.0625" xlink:href="#DejaVuSans-110"/>
    <use x="152.441406" xlink:href="#DejaVuSans-99"/>
    <use x="207.421875" xlink:href="#DejaVuSans-97"/>
    <use x="268.701172" xlink:href="#DejaVuSans-115"/>
    <use x="320.800781" xlink:href="#DejaVuSans-116"/>
    <use x="360.009766" xlink:href="#DejaVuSans-101"/>
    <use x="421.533203" xlink:href="#DejaVuSans-114"/>
    <use x="462.646484" xlink:href="#DejaVuSans-115"/>
    <use x="514.746094" xlink:href="#DejaVuSans-101"/>
    <use x="576.269531" xlink:href="#DejaVuSans-110"/>
    <use x="639.648438" xlink:href="#DejaVuSans-115"/>
    <use x="691.748047" xlink:href="#DejaVuSans-111"/>
    <use x="752.929688" xlink:href="#DejaVuSans-114"/>
    <use x="794.042969" xlink:href="#DejaVuSans-105"/>
    <use x="821.826172" xlink:href="#DejaVuSans-109"/>
    <use x="919.238281" xlink:href="#DejaVuSans-111"/>
    <use x="980.419922" xlink:href="#DejaVuSans-116"/>
    <use x="1019.628906" xlink:href="#DejaVuSans-111"/>
    <use x="1080.810547" xlink:href="#DejaVuSans-114"/>
    <use x="1120.173828" xlink:href="#DejaVuSans-110"/>
    <use x="1183.552734" xlink:href="#DejaVuSans-111"/>
    <use x="1244.734375" xlink:href="#DejaVuSans-114"/>
    <use x="1284.097656" xlink:href="#DejaVuSans-109"/>
    <use x="1381.509766" xlink:href="#DejaVuSans-115"/>
    <use x="1433.609375" xlink:href="#DejaVuSans-95"/>
    <use x="1483.609375" xlink:href="#DejaVuSans-73"/>
    <use x="1513.101562" xlink:href="#DejaVuSans-110"/>
    <use x="1576.480469" xlink:href="#DejaVuSans-116"/>
    <use x="1615.689453" xlink:href="#DejaVuSans-101"/>
    <use x="1677.212891" xlink:href="#DejaVuSans-114"/>
    <use x="1716.076172" xlink:href="#DejaVuSans-111"/>
    <use x="1777.257812" xlink:href="#DejaVuSans-99"/>
    <use x="1832.238281" xlink:href="#DejaVuSans-101"/>
    <use x="1893.761719" xlink:href="#DejaVuSans-112"/>
    <use x="1957.238281" xlink:href="#DejaVuSans-116"/>
    <use x="1996.447266" xlink:href="#DejaVuSans-105"/>
    <use x="2024.230469" xlink:href="#DejaVuSans-118"/>
    <use x="2083.410156" xlink:href="#DejaVuSans-101"/>
    <use x="2144.933594" xlink:href="#DejaVuSans-46"/>
    <use x="2176.720703" xlink:href="#DejaVuSans-109"/>
    <use x="2274.132812" xlink:href="#DejaVuSans-101"/>
    <use x="2335.65625" xlink:href="#DejaVuSans-97"/>
    <use x="2396.935547" xlink:href="#DejaVuSans-110"/>
    <use x="2460.314453" xlink:href="#DejaVuSans-32"/>
    <use x="2492.101562" xlink:href="#DejaVuSans-91"/>
    <use x="2531.115234" xlink:href="#DejaVuSans-109"/>
    <use x="2628.527344" xlink:href="#DejaVuSans-111"/>
    <use x="2689.708984" xlink:href="#DejaVuSans-100"/>
    <use x="2753.185547" xlink:href="#DejaVuSans-101"/>
    <use x="2814.708984" xlink:href="#DejaVuSans-108"/>
    <use x="2842.492188" xlink:href="#DejaVuSans-58"/>
    <use x="2876.183594" xlink:href="#DejaVuSans-32"/>
    <use x="2907.970703" xlink:href="#DejaVuSans-108"/>
    <use x="2935.753906" xlink:href="#DejaVuSans-97"/>
    <use x="2997.033203" xlink:href="#DejaVuSans-110"/>
    <use x="3060.412109" xlink:href="#DejaVuSans-99"/>
    <use x="3115.392578" xlink:href="#DejaVuSans-97"/>
    <use x="3176.671875" xlink:href="#DejaVuSans-115"/>
    <use x="3228.771484" xlink:href="#DejaVuSans-116"/>
    <use x="3267.980469" xlink:href="#DejaVuSans-101"/>
    <use x="3329.503906" xlink:href="#DejaVuSans-114"/>
    <use x="3370.617188" xlink:href="#DejaVuSans-115"/>
    <use x="3422.716797" xlink:href="#DejaVuSans-101"/>
    <use x="3484.240234" xlink:href="#DejaVuSans-110"/>
    <use x="3547.619141" xlink:href="#DejaVuSans-115"/>
    <use x="3599.71875" xlink:href="#DejaVuSans-111"/>
    <use x="3660.900391" xlink:href="#DejaVuSans-114"/>
    <use x="3702.013672" xlink:href="#DejaVuSans-105"/>
    <use x="3729.796875" xlink:href="#DejaVuSans-109"/>
    <use x="3827.208984" xlink:href="#DejaVuSans-111"/>
    <use x="3888.390625" xlink:href="#DejaVuSans-116"/>
    <use x="3927.599609" xlink:href="#DejaVuSans-111"/>
    <use x="3988.78125" xlink:href="#DejaVuSans-114"/>
    <use x="4028.144531" xlink:href="#DejaVuSans-110"/>
    <use x="4091.523438" xlink:href="#DejaVuSans-111"/>
    <use x="4152.705078" xlink:href="#DejaVuSans-114"/>
    <use x="4192.068359" xlink:href="#DejaVuSans-109"/>
    <use x="4289.480469" xlink:href="#DejaVuSans-115"/>
    <use x="4341.580078" xlink:href="#DejaVuSans-95"/>
    <use x="4391.580078" xlink:href="#DejaVuSans-73"/>
    <use x="4421.072266" xlink:href="#DejaVuSans-110"/>
    <use x="4484.451172" xlink:href="#DejaVuSans-116"/>
    <use x="4523.660156" xlink:href="#DejaVuSans-101"/>
    <use x="4585.183594" xlink:href="#DejaVuSans-114"/>
    <use x="4624.046875" xlink:href="#DejaVuSans-111"/>
    <use x="4685.228516" xlink:href="#DejaVuSans-99"/>
    <use x="4740.208984" xlink:href="#DejaVuSans-101"/>
    <use x="4801.732422" xlink:href="#DejaVuSans-112"/>
    <use x="4865.208984" xlink:href="#DejaVuSans-116"/>
    <use x="4904.417969" xlink:href="#DejaVuSans-105"/>
    <use x="4932.201172" xlink:href="#DejaVuSans-118"/>
    <use x="4991.380859" xlink:href="#DejaVuSans-101"/>
    <use x="5052.904297" xlink:href="#DejaVuSans-46"/>
    <use x="5084.691406" xlink:href="#DejaVuSans-109"/>
    <use x="5182.103516" xlink:href="#DejaVuSans-101"/>
    <use x="5243.626953" xlink:href="#DejaVuSans-97"/>
    <use x="5304.90625" xlink:href="#DejaVuSans-110"/>
    <use x="5368.285156" xlink:href="#DejaVuSans-93"/>
   </g>
  </g>
 </g>
 <defs>
  <clipPath id="p8fc405c6da">
   <rect height="33.8" width="811.15" x="38.482813" y="34.592"/>
  </clipPath>
 </defs>
</svg>
