<?xml version="1.0" encoding="utf-8" standalone="no"?>
<!DOCTYPE svg PUBLIC "-//W3C//DTD SVG 1.1//EN"
  "http://www.w3.org/Graphics/SVG/1.1/DTD/svg11.dtd">
<!-- Created with matplotlib (https://matplotlib.org/) -->
<svg height="92.270125pt" version="1.1" viewBox="0 0 856.820312 92.270125" width="856.820312pt" xmlns="http://www.w3.org/2000/svg" xmlns:xlink="http://www.w3.org/1999/xlink">
 <defs>
  <style type="text/css">
*{stroke-linecap:butt;stroke-linejoin:round;}
  </style>
 </defs>
 <g id="figure_1">
  <g id="patch_1">
   <path d="M 0 92.270125 
L 856.820312 92.270125 
L 856.820312 0 
L 0 0 
z
" style="fill:none;"/>
  </g>
  <g id="axes_1">
   <g id="patch_2">
    <path d="M 44.845313 68.392 
L 849.620313 68.392 
L 849.620313 34.592 
L 44.845313 34.592 
z
" style="fill:#ffffff;"/>
   </g>
   <g id="matplotlib.axis_1">
    <g id="xtick_1">
     <g id="line2d_1">
      <defs>
       <path d="M 0 0 
L 0 3.5 
" id="m04deed05f8" style="stroke:#000000;stroke-width:0.8;"/>
      </defs>
      <g>
       <use style="stroke:#000000;stroke-width:0.8;" x="81.425994" xlink:href="#m04deed05f8" y="68.392"/>
      </g>
     </g>
     <g id="text_1">
      <!-- 0 -->
      <defs>
       <path d="M 31.78125 66.40625 
Q 24.171875 66.40625 20.328125 58.90625 
Q 16.5 51.421875 16.5 36.375 
Q 16.5 21.390625 20.328125 13.890625 
Q 24.171875 6.390625 31.78125 6.390625 
Q 39.453125 6.390625 43.28125 13.890625 
Q 47.125 21.390625 47.125 36.375 
Q 47.125 51.421875 43.28125 58.90625 
Q 39.453125 66.40625 31.78125 66.40625 
z
M 31.78125 74.21875 
Q 44.046875 74.21875 50.515625 64.515625 
Q 56.984375 54.828125 56.984375 36.375 
Q 56.984375 17.96875 50.515625 8.265625 
Q 44.046875 -1.421875 31.78125 -1.421875 
Q 19.53125 -1.421875 13.0625 8.265625 
Q 6.59375 17.96875 6.59375 36.375 
Q 6.59375 54.828125 13.0625 64.515625 
Q 19.53125 74.21875 31.78125 74.21875 
z
" id="DejaVuSans-48"/>
      </defs>
      <g transform="translate(78.244744 82.990437)scale(0.1 -0.1)">
       <use xlink:href="#DejaVuSans-48"/>
      </g>
     </g>
    </g>
    <g id="xtick_2">
     <g id="line2d_2">
      <g>
       <use style="stroke:#000000;stroke-width:0.8;" x="218.432293" xlink:href="#m04deed05f8" y="68.392"/>
      </g>
     </g>
     <g id="text_2">
      <!-- 100 -->
      <defs>
       <path d="M 12.40625 8.296875 
L 28.515625 8.296875 
L 28.515625 63.921875 
L 10.984375 60.40625 
L 10.984375 69.390625 
L 28.421875 72.90625 
L 38.28125 72.90625 
L 38.28125 8.296875 
L 54.390625 8.296875 
L 54.390625 0 
L 12.40625 0 
z
" id="DejaVuSans-49"/>
      </defs>
      <g transform="translate(208.888543 82.990437)scale(0.1 -0.1)">
       <use xlink:href="#DejaVuSans-49"/>
       <use x="63.623047" xlink:href="#DejaVuSans-48"/>
       <use x="127.246094" xlink:href="#DejaVuSans-48"/>
      </g>
     </g>
    </g>
    <g id="xtick_3">
     <g id="line2d_3">
      <g>
       <use style="stroke:#000000;stroke-width:0.8;" x="355.438592" xlink:href="#m04deed05f8" y="68.392"/>
      </g>
     </g>
     <g id="text_3">
      <!-- 200 -->
      <defs>
       <path d="M 19.1875 8.296875 
L 53.609375 8.296875 
L 53.609375 0 
L 7.328125 0 
L 7.328125 8.296875 
Q 12.9375 14.109375 22.625 23.890625 
Q 32.328125 33.6875 34.8125 36.53125 
Q 39.546875 41.84375 41.421875 45.53125 
Q 43.3125 49.21875 43.3125 52.78125 
Q 43.3125 58.59375 39.234375 62.25 
Q 35.15625 65.921875 28.609375 65.921875 
Q 23.96875 65.921875 18.8125 64.3125 
Q 13.671875 62.703125 7.8125 59.421875 
L 7.8125 69.390625 
Q 13.765625 71.78125 18.9375 73 
Q 24.125 74.21875 28.421875 74.21875 
Q 39.75 74.21875 46.484375 68.546875 
Q 53.21875 62.890625 53.21875 53.421875 
Q 53.21875 48.921875 51.53125 44.890625 
Q 49.859375 40.875 45.40625 35.40625 
Q 44.1875 33.984375 37.640625 27.21875 
Q 31.109375 20.453125 19.1875 8.296875 
z
" id="DejaVuSans-50"/>
      </defs>
      <g transform="translate(345.894842 82.990437)scale(0.1 -0.1)">
       <use xlink:href="#DejaVuSans-50"/>
       <use x="63.623047" xlink:href="#DejaVuSans-48"/>
       <use x="127.246094" xlink:href="#DejaVuSans-48"/>
      </g>
     </g>
    </g>
    <g id="xtick_4">
     <g id="line2d_4">
      <g>
       <use style="stroke:#000000;stroke-width:0.8;" x="492.444891" xlink:href="#m04deed05f8" y="68.392"/>
      </g>
     </g>
     <g id="text_4">
      <!-- 300 -->
      <defs>
       <path d="M 40.578125 39.3125 
Q 47.65625 37.796875 51.625 33 
Q 55.609375 28.21875 55.609375 21.1875 
Q 55.609375 10.40625 48.1875 4.484375 
Q 40.765625 -1.421875 27.09375 -1.421875 
Q 22.515625 -1.421875 17.65625 -0.515625 
Q 12.796875 0.390625 7.625 2.203125 
L 7.625 11.71875 
Q 11.71875 9.328125 16.59375 8.109375 
Q 21.484375 6.890625 26.8125 6.890625 
Q 36.078125 6.890625 40.9375 10.546875 
Q 45.796875 14.203125 45.796875 21.1875 
Q 45.796875 27.640625 41.28125 31.265625 
Q 36.765625 34.90625 28.71875 34.90625 
L 20.21875 34.90625 
L 20.21875 43.015625 
L 29.109375 43.015625 
Q 36.375 43.015625 40.234375 45.921875 
Q 44.09375 48.828125 44.09375 54.296875 
Q 44.09375 59.90625 40.109375 62.90625 
Q 36.140625 65.921875 28.71875 65.921875 
Q 24.65625 65.921875 20.015625 65.03125 
Q 15.375 64.15625 9.8125 62.3125 
L 9.8125 71.09375 
Q 15.4375 72.65625 20.34375 73.4375 
Q 25.25 74.21875 29.59375 74.21875 
Q 40.828125 74.21875 47.359375 69.109375 
Q 53.90625 64.015625 53.90625 55.328125 
Q 53.90625 49.265625 50.4375 45.09375 
Q 46.96875 40.921875 40.578125 39.3125 
z
" id="DejaVuSans-51"/>
      </defs>
      <g transform="translate(482.901141 82.990437)scale(0.1 -0.1)">
       <use xlink:href="#DejaVuSans-51"/>
       <use x="63.623047" xlink:href="#DejaVuSans-48"/>
       <use x="127.246094" xlink:href="#DejaVuSans-48"/>
      </g>
     </g>
    </g>
    <g id="xtick_5">
     <g id="line2d_5">
      <g>
       <use style="stroke:#000000;stroke-width:0.8;" x="629.45119" xlink:href="#m04deed05f8" y="68.392"/>
      </g>
     </g>
     <g id="text_5">
      <!-- 400 -->
      <defs>
       <path d="M 37.796875 64.3125 
L 12.890625 25.390625 
L 37.796875 25.390625 
z
M 35.203125 72.90625 
L 47.609375 72.90625 
L 47.609375 25.390625 
L 58.015625 25.390625 
L 58.015625 17.1875 
L 47.609375 17.1875 
L 47.609375 0 
L 37.796875 0 
L 37.796875 17.1875 
L 4.890625 17.1875 
L 4.890625 26.703125 
z
" id="DejaVuSans-52"/>
      </defs>
      <g transform="translate(619.90744 82.990437)scale(0.1 -0.1)">
       <use xlink:href="#DejaVuSans-52"/>
       <use x="63.623047" xlink:href="#DejaVuSans-48"/>
       <use x="127.246094" xlink:href="#DejaVuSans-48"/>
      </g>
     </g>
    </g>
    <g id="xtick_6">
     <g id="line2d_6">
      <g>
       <use style="stroke:#000000;stroke-width:0.8;" x="766.457489" xlink:href="#m04deed05f8" y="68.392"/>
      </g>
     </g>
     <g id="text_6">
      <!-- 500 -->
      <defs>
       <path d="M 10.796875 72.90625 
L 49.515625 72.90625 
L 49.515625 64.59375 
L 19.828125 64.59375 
L 19.828125 46.734375 
Q 21.96875 47.46875 24.109375 47.828125 
Q 26.265625 48.1875 28.421875 48.1875 
Q 40.625 48.1875 47.75 41.5 
Q 54.890625 34.8125 54.890625 23.390625 
Q 54.890625 11.625 47.5625 5.09375 
Q 40.234375 -1.421875 26.90625 -1.421875 
Q 22.3125 -1.421875 17.546875 -0.640625 
Q 12.796875 0.140625 7.71875 1.703125 
L 7.71875 11.625 
Q 12.109375 9.234375 16.796875 8.0625 
Q 21.484375 6.890625 26.703125 6.890625 
Q 35.15625 6.890625 40.078125 11.328125 
Q 45.015625 15.765625 45.015625 23.390625 
Q 45.015625 31 40.078125 35.4375 
Q 35.15625 39.890625 26.703125 39.890625 
Q 22.75 39.890625 18.8125 39.015625 
Q 14.890625 38.140625 10.796875 36.28125 
z
" id="DejaVuSans-53"/>
      </defs>
      <g transform="translate(756.913739 82.990437)scale(0.1 -0.1)">
       <use xlink:href="#DejaVuSans-53"/>
       <use x="63.623047" xlink:href="#DejaVuSans-48"/>
       <use x="127.246094" xlink:href="#DejaVuSans-48"/>
      </g>
     </g>
    </g>
   </g>
   <g id="matplotlib.axis_2">
    <g id="ytick_1">
     <g id="line2d_7">
      <defs>
       <path d="M 0 0 
L -3.5 0 
" id="md59d6a5767" style="stroke:#000000;stroke-width:0.8;"/>
      </defs>
      <g>
       <use style="stroke:#000000;stroke-width:0.8;" x="44.845313" xlink:href="#md59d6a5767" y="63.165635"/>
      </g>
     </g>
     <g id="text_7">
      <!-- −0.25 -->
      <defs>
       <path d="M 10.59375 35.5 
L 73.1875 35.5 
L 73.1875 27.203125 
L 10.59375 27.203125 
z
" id="DejaVuSans-8722"/>
       <path d="M 10.6875 12.40625 
L 21 12.40625 
L 21 0 
L 10.6875 0 
z
" id="DejaVuSans-46"/>
      </defs>
      <g transform="translate(7.2 66.964854)scale(0.1 -0.1)">
       <use xlink:href="#DejaVuSans-8722"/>
       <use x="83.789062" xlink:href="#DejaVuSans-48"/>
       <use x="147.412109" xlink:href="#DejaVuSans-46"/>
       <use x="179.199219" xlink:href="#DejaVuSans-50"/>
       <use x="242.822266" xlink:href="#DejaVuSans-53"/>
      </g>
     </g>
    </g>
    <g id="ytick_2">
     <g id="line2d_8">
      <g>
       <use style="stroke:#000000;stroke-width:0.8;" x="44.845313" xlink:href="#md59d6a5767" y="53.588862"/>
      </g>
     </g>
     <g id="text_8">
      <!-- 0.00 -->
      <g transform="translate(15.579688 57.388081)scale(0.1 -0.1)">
       <use xlink:href="#DejaVuSans-48"/>
       <use x="63.623047" xlink:href="#DejaVuSans-46"/>
       <use x="95.410156" xlink:href="#DejaVuSans-48"/>
       <use x="159.033203" xlink:href="#DejaVuSans-48"/>
      </g>
     </g>
    </g>
    <g id="ytick_3">
     <g id="line2d_9">
      <g>
       <use style="stroke:#000000;stroke-width:0.8;" x="44.845313" xlink:href="#md59d6a5767" y="44.012089"/>
      </g>
     </g>
     <g id="text_9">
      <!-- 0.25 -->
      <g transform="translate(15.579688 47.811307)scale(0.1 -0.1)">
       <use xlink:href="#DejaVuSans-48"/>
       <use x="63.623047" xlink:href="#DejaVuSans-46"/>
       <use x="95.410156" xlink:href="#DejaVuSans-50"/>
       <use x="159.033203" xlink:href="#DejaVuSans-53"/>
      </g>
     </g>
    </g>
   </g>
   <g id="line2d_10">
    <path clip-path="url(#pf4defc5036)" d="M 81.425994 53.588862 
L 99.236813 53.623947 
L 100.606876 53.320544 
L 101.976939 51.723962 
L 103.347002 49.221746 
L 104.717065 48.356086 
L 106.087128 50.565923 
L 107.457191 53.73834 
L 108.827254 55.410957 
L 110.197317 55.915699 
L 111.56738 56.88835 
L 112.937443 58.210813 
L 114.307506 58.198102 
L 115.677569 55.572297 
L 118.417695 45.732536 
L 119.787758 42.091813 
L 121.157821 40.896568 
L 122.527884 41.905411 
L 123.897947 44.160172 
L 125.26801 46.735526 
L 126.638073 49.069708 
L 128.008136 50.946689 
L 129.378199 52.352622 
L 130.748262 53.352247 
L 132.118325 54.022586 
L 133.488388 54.431264 
L 134.858451 54.635828 
L 137.598577 54.633154 
L 143.078829 54.064458 
L 144.448892 53.900142 
L 147.189018 52.75182 
L 148.559081 53.032102 
L 149.929144 53.464981 
L 152.66927 53.160316 
L 154.039333 52.33396 
L 156.779459 48.447838 
L 158.149522 48.218781 
L 159.519585 49.798709 
L 160.889648 52.3171 
L 162.259711 55.570341 
L 163.629774 59.722257 
L 164.999837 62.819979 
L 166.3699 63.282574 
L 167.739963 61.891311 
L 169.110026 58.900558 
L 170.480089 54.97517 
L 171.850152 52.56565 
L 173.220215 52.934518 
L 174.590278 53.819141 
L 175.960341 53.039807 
L 178.700467 49.581033 
L 181.440593 45.542007 
L 182.810656 44.572207 
L 184.180719 44.535307 
L 185.550782 45.356873 
L 188.290907 48.863483 
L 189.66097 50.788936 
L 192.401096 56.407968 
L 193.771159 58.142584 
L 195.141222 57.561691 
L 196.511285 55.017891 
L 199.251411 49.28774 
L 200.621474 47.311855 
L 201.991537 47.045538 
L 204.731663 49.861386 
L 206.101726 50.301976 
L 207.471789 49.828006 
L 208.841852 48.777188 
L 210.211915 48.248977 
L 211.581978 49.715085 
L 212.952041 52.644718 
L 214.322104 55.285013 
L 215.692167 56.879936 
L 217.06223 57.038738 
L 218.432293 55.724886 
L 219.802356 53.945474 
L 221.172419 52.591248 
L 222.542482 51.990175 
L 223.912545 52.186952 
L 226.652671 53.36377 
L 228.022734 53.66423 
L 230.76286 53.780585 
L 248.573679 53.548166 
L 249.943742 53.049507 
L 251.313805 51.984001 
L 252.683868 51.153965 
L 254.053931 51.169038 
L 255.423994 50.987755 
L 258.16412 48.538823 
L 259.534183 47.991371 
L 260.904246 48.20172 
L 262.274309 49.089792 
L 263.644372 49.490545 
L 266.384498 49.526237 
L 267.754561 48.949583 
L 270.494687 46.114044 
L 271.86475 45.232321 
L 273.234813 45.532644 
L 274.604876 46.855413 
L 275.974939 48.748822 
L 280.085128 55.516324 
L 281.455191 56.773818 
L 282.825254 56.014477 
L 284.195317 52.550547 
L 286.935443 43.232962 
L 288.305506 40.165345 
L 289.675569 38.57869 
L 291.045632 38.700127 
L 292.415695 40.965606 
L 293.785758 45.312152 
L 296.525884 58.646363 
L 297.895947 63.470742 
L 299.26601 65.782066 
L 300.636073 66.627589 
L 302.006136 66.855636 
L 303.376199 66.708894 
L 304.746262 65.141103 
L 306.116325 61.154334 
L 307.486388 56.744144 
L 308.856451 54.157642 
L 310.226514 52.58517 
L 311.596577 50.210662 
L 312.96664 48.3405 
L 314.336703 49.116887 
L 317.076829 55.216668 
L 318.446891 57.270351 
L 319.816954 58.013476 
L 322.55708 59.0912 
L 323.927143 59.237347 
L 325.297206 58.696405 
L 326.667269 57.66213 
L 328.037332 56.303302 
L 329.407395 54.627561 
L 330.777458 53.249312 
L 332.147521 53.335361 
L 334.887647 56.019322 
L 336.25771 56.238978 
L 340.367899 55.169372 
L 343.108025 54.330135 
L 344.478088 53.080471 
L 345.848151 51.275459 
L 347.218214 50.350732 
L 348.588277 50.631998 
L 349.95834 51.491046 
L 351.328403 52.496685 
L 352.698466 53.659504 
L 354.068529 54.60302 
L 355.438592 54.825979 
L 356.808655 53.346677 
L 358.178718 49.928281 
L 359.548781 45.601708 
L 360.918844 41.899829 
L 362.288907 40.320733 
L 363.65897 39.388878 
L 365.029033 37.461928 
L 366.399096 36.128364 
L 367.769159 36.932667 
L 369.139222 39.945014 
L 370.509285 44.846923 
L 371.879348 50.284491 
L 373.249411 54.793 
L 374.619474 57.687256 
L 375.989537 58.780769 
L 377.3596 58.606093 
L 378.729663 57.98675 
L 380.099726 57.54407 
L 381.469789 57.54169 
L 382.839852 57.73064 
L 385.579978 57.825266 
L 386.950041 58.23529 
L 388.320104 58.920923 
L 389.690167 59.06828 
L 391.06023 57.255949 
L 392.430293 53.981923 
L 393.800356 51.075866 
L 395.170419 49.608109 
L 396.540482 49.417009 
L 397.910545 49.381559 
L 399.280608 49.119452 
L 400.650671 49.464325 
L 402.020734 51.208098 
L 403.390797 53.836469 
L 404.76086 56.183363 
L 406.130923 57.584194 
L 407.500986 57.936412 
L 410.241112 57.228334 
L 411.611175 57.222563 
L 414.351301 57.408968 
L 415.721364 57.21567 
L 417.091427 56.666051 
L 419.831553 54.931538 
L 422.571679 52.731879 
L 423.941742 51.923571 
L 425.311805 52.296021 
L 428.051931 56.808162 
L 429.421994 57.848919 
L 430.792057 58.013974 
L 432.16212 58.047695 
L 433.532183 57.623626 
L 434.902246 56.280414 
L 436.272309 54.550829 
L 437.642372 53.309642 
L 439.012435 52.903495 
L 443.122624 53.362915 
L 444.492687 54.175495 
L 445.86275 56.442694 
L 447.232812 59.318612 
L 448.602875 61.230273 
L 449.972938 61.389002 
L 451.343001 59.898706 
L 454.083127 55.297077 
L 455.45319 53.61883 
L 456.823253 52.663824 
L 458.193316 52.266782 
L 459.563379 52.193389 
L 460.933442 52.281546 
L 462.303505 52.133995 
L 463.673568 51.239343 
L 465.043631 49.854091 
L 466.413694 48.860482 
L 467.783757 49.497468 
L 469.15382 52.078185 
L 470.523883 55.187789 
L 471.893946 56.836439 
L 473.264009 56.564311 
L 474.634072 55.294656 
L 476.004135 53.667107 
L 477.374198 52.303226 
L 478.744261 50.77246 
L 480.114324 47.807879 
L 481.484387 44.35101 
L 482.85445 42.511778 
L 484.224513 43.1581 
L 485.594576 46.115992 
L 486.964639 50.386769 
L 488.334702 54.062474 
L 489.704765 55.212321 
L 491.074828 54.086264 
L 492.444891 52.485638 
L 493.814954 51.581262 
L 495.185017 51.521322 
L 496.55508 51.957604 
L 499.295206 53.135261 
L 500.665269 53.502518 
L 502.035332 53.689098 
L 503.405395 53.644014 
L 504.775458 53.021003 
L 506.145521 52.181282 
L 507.515584 52.126746 
L 510.25571 53.640879 
L 511.625773 52.665441 
L 512.995836 49.41155 
L 514.365899 45.597878 
L 515.735962 43.165994 
L 517.106025 42.01322 
L 518.476088 41.07949 
L 519.846151 41.064551 
L 521.216214 42.969399 
L 523.95634 49.509343 
L 525.326403 51.623673 
L 526.696466 52.269564 
L 528.066529 53.100792 
L 529.436592 54.761538 
L 530.806655 56.139977 
L 532.176718 56.618482 
L 534.916844 56.840875 
L 536.286907 56.074931 
L 539.027033 52.286756 
L 540.397096 51.175801 
L 541.767159 51.192323 
L 543.137222 52.114986 
L 544.507285 53.232457 
L 545.877348 53.982867 
L 547.247411 54.133086 
L 551.3576 53.334163 
L 552.727663 53.349152 
L 554.097726 54.221763 
L 556.837852 58.318694 
L 558.207915 59.260456 
L 559.577978 58.99533 
L 560.948041 58.024816 
L 562.318104 56.689746 
L 565.05823 52.993008 
L 566.428293 52.179257 
L 567.798356 52.980004 
L 569.168419 53.975567 
L 570.538482 54.262284 
L 571.908545 54.014367 
L 576.018734 52.923962 
L 577.388796 51.743204 
L 580.128922 47.649103 
L 581.498985 46.746979 
L 582.869048 47.121181 
L 584.239111 48.302352 
L 586.979237 51.057561 
L 588.3493 52.120964 
L 589.719363 52.910271 
L 591.089426 53.464534 
L 592.459489 53.832472 
L 595.199615 54.168686 
L 597.939741 54.169252 
L 600.679867 54.044284 
L 602.04993 54.423008 
L 603.419993 55.474422 
L 604.790056 56.200705 
L 606.160119 55.511517 
L 607.530182 53.58563 
L 608.900245 51.222315 
L 610.270308 49.685936 
L 611.640371 50.298786 
L 613.010434 53.356356 
L 614.380497 57.19 
L 615.75056 58.50956 
L 617.120623 55.657043 
L 618.490686 50.797711 
L 619.860749 47.068421 
L 621.230812 45.712125 
L 622.600875 46.272266 
L 626.711064 50.877663 
L 628.081127 52.481162 
L 629.45119 55.280474 
L 632.191316 64.124314 
L 633.561379 66.343287 
L 634.931442 66.009759 
L 636.301505 63.989213 
L 639.041631 58.858573 
L 640.411694 56.800347 
L 641.781757 55.242368 
L 643.15182 54.126055 
L 644.521883 53.366332 
L 645.891946 52.886636 
L 647.262009 52.625655 
L 648.632072 52.531343 
L 651.372198 52.654231 
L 659.592576 53.396413 
L 662.332702 53.505564 
L 663.702765 53.438804 
L 665.072828 52.966377 
L 666.442891 52.271528 
L 667.812954 51.80678 
L 669.183017 51.745168 
L 670.55308 51.997227 
L 673.293206 52.769824 
L 674.663269 53.533085 
L 676.033332 54.652719 
L 677.403395 55.210313 
L 678.773458 54.473078 
L 680.143521 53.315346 
L 682.883647 53.020712 
L 684.25371 50.964989 
L 685.623773 47.819863 
L 686.993836 45.641771 
L 688.363899 44.81793 
L 689.733962 44.983519 
L 691.104025 46.616574 
L 693.844151 51.860849 
L 695.214214 53.649604 
L 696.584277 54.612584 
L 697.95434 54.99585 
L 699.324403 55.057707 
L 702.064529 54.78361 
L 703.434592 54.200486 
L 704.804655 52.911283 
L 706.174718 51.436102 
L 707.54478 50.867792 
L 708.914843 50.815246 
L 710.284906 49.584343 
L 713.025032 44.74296 
L 714.395095 43.035408 
L 715.765158 43.039778 
L 717.135221 44.447041 
L 719.875347 48.012277 
L 721.24541 49.285424 
L 723.985536 51.04017 
L 725.355599 52.337742 
L 726.725662 54.818012 
L 728.095725 58.421638 
L 729.465788 61.438692 
L 730.835851 62.635234 
L 732.205914 62.152776 
L 733.575977 60.651689 
L 737.686166 55.235457 
L 739.056229 52.717041 
L 740.426292 49.84272 
L 741.796355 48.078436 
L 743.166418 47.210761 
L 745.906544 46.092854 
L 747.276607 45.912137 
L 748.64667 45.990975 
L 750.016733 45.88173 
L 751.386796 46.158022 
L 752.756859 47.109502 
L 754.126922 47.634515 
L 756.867048 46.788519 
L 759.607174 47.538615 
L 760.977237 48.517284 
L 762.3473 51.191096 
L 763.717363 53.342649 
L 765.087426 53.48453 
L 766.457489 53.104684 
L 767.827552 53.843855 
L 769.197615 55.669718 
L 770.567678 57.298268 
L 771.937741 57.971184 
L 773.307804 57.662061 
L 774.677867 56.821486 
L 777.417993 55.532949 
L 778.788056 54.996446 
L 780.158119 54.937257 
L 781.528182 54.376759 
L 784.268308 50.062015 
L 785.638371 48.905328 
L 789.74856 48.0777 
L 791.118623 48.237971 
L 792.488686 48.905482 
L 796.598875 51.269957 
L 799.339001 52.69143 
L 800.709064 53.235375 
L 802.079127 53.633072 
L 803.44919 53.891693 
L 806.189316 54.08889 
L 810.299505 53.995275 
L 813.039631 53.861823 
L 813.039631 53.861823 
" style="fill:none;stroke:#1f77b4;stroke-linecap:square;stroke-width:1.5;"/>
   </g>
   <g id="patch_3">
    <path d="M 44.845313 68.392 
L 44.845313 34.592 
" style="fill:none;stroke:#000000;stroke-linecap:square;stroke-linejoin:miter;stroke-width:0.8;"/>
   </g>
   <g id="patch_4">
    <path d="M 44.845313 68.392 
L 849.620312 68.392 
" style="fill:none;stroke:#000000;stroke-linecap:square;stroke-linejoin:miter;stroke-width:0.8;"/>
   </g>
   <g id="text_10">
    <!-- Budapest_movie -->
    <defs>
     <path d="M 19.671875 34.8125 
L 19.671875 8.109375 
L 35.5 8.109375 
Q 43.453125 8.109375 47.28125 11.40625 
Q 51.125 14.703125 51.125 21.484375 
Q 51.125 28.328125 47.28125 31.5625 
Q 43.453125 34.8125 35.5 34.8125 
z
M 19.671875 64.796875 
L 19.671875 42.828125 
L 34.28125 42.828125 
Q 41.5 42.828125 45.03125 45.53125 
Q 48.578125 48.25 48.578125 53.8125 
Q 48.578125 59.328125 45.03125 62.0625 
Q 41.5 64.796875 34.28125 64.796875 
z
M 9.8125 72.90625 
L 35.015625 72.90625 
Q 46.296875 72.90625 52.390625 68.21875 
Q 58.5 63.53125 58.5 54.890625 
Q 58.5 48.1875 55.375 44.234375 
Q 52.25 40.28125 46.1875 39.3125 
Q 53.46875 37.75 57.5 32.78125 
Q 61.53125 27.828125 61.53125 20.40625 
Q 61.53125 10.640625 54.890625 5.3125 
Q 48.25 0 35.984375 0 
L 9.8125 0 
z
" id="DejaVuSans-66"/>
     <path d="M 8.5 21.578125 
L 8.5 54.6875 
L 17.484375 54.6875 
L 17.484375 21.921875 
Q 17.484375 14.15625 20.5 10.265625 
Q 23.53125 6.390625 29.59375 6.390625 
Q 36.859375 6.390625 41.078125 11.03125 
Q 45.3125 15.671875 45.3125 23.6875 
L 45.3125 54.6875 
L 54.296875 54.6875 
L 54.296875 0 
L 45.3125 0 
L 45.3125 8.40625 
Q 42.046875 3.421875 37.71875 1 
Q 33.40625 -1.421875 27.6875 -1.421875 
Q 18.265625 -1.421875 13.375 4.4375 
Q 8.5 10.296875 8.5 21.578125 
z
M 31.109375 56 
z
" id="DejaVuSans-117"/>
     <path d="M 45.40625 46.390625 
L 45.40625 75.984375 
L 54.390625 75.984375 
L 54.390625 0 
L 45.40625 0 
L 45.40625 8.203125 
Q 42.578125 3.328125 38.25 0.953125 
Q 33.9375 -1.421875 27.875 -1.421875 
Q 17.96875 -1.421875 11.734375 6.484375 
Q 5.515625 14.40625 5.515625 27.296875 
Q 5.515625 40.1875 11.734375 48.09375 
Q 17.96875 56 27.875 56 
Q 33.9375 56 38.25 53.625 
Q 42.578125 51.265625 45.40625 46.390625 
z
M 14.796875 27.296875 
Q 14.796875 17.390625 18.875 11.75 
Q 22.953125 6.109375 30.078125 6.109375 
Q 37.203125 6.109375 41.296875 11.75 
Q 45.40625 17.390625 45.40625 27.296875 
Q 45.40625 37.203125 41.296875 42.84375 
Q 37.203125 48.484375 30.078125 48.484375 
Q 22.953125 48.484375 18.875 42.84375 
Q 14.796875 37.203125 14.796875 27.296875 
z
" id="DejaVuSans-100"/>
     <path d="M 34.28125 27.484375 
Q 23.390625 27.484375 19.1875 25 
Q 14.984375 22.515625 14.984375 16.5 
Q 14.984375 11.71875 18.140625 8.90625 
Q 21.296875 6.109375 26.703125 6.109375 
Q 34.1875 6.109375 38.703125 11.40625 
Q 43.21875 16.703125 43.21875 25.484375 
L 43.21875 27.484375 
z
M 52.203125 31.203125 
L 52.203125 0 
L 43.21875 0 
L 43.21875 8.296875 
Q 40.140625 3.328125 35.546875 0.953125 
Q 30.953125 -1.421875 24.3125 -1.421875 
Q 15.921875 -1.421875 10.953125 3.296875 
Q 6 8.015625 6 15.921875 
Q 6 25.140625 12.171875 29.828125 
Q 18.359375 34.515625 30.609375 34.515625 
L 43.21875 34.515625 
L 43.21875 35.40625 
Q 43.21875 41.609375 39.140625 45 
Q 35.0625 48.390625 27.6875 48.390625 
Q 23 48.390625 18.546875 47.265625 
Q 14.109375 46.140625 10.015625 43.890625 
L 10.015625 52.203125 
Q 14.9375 54.109375 19.578125 55.046875 
Q 24.21875 56 28.609375 56 
Q 40.484375 56 46.34375 49.84375 
Q 52.203125 43.703125 52.203125 31.203125 
z
" id="DejaVuSans-97"/>
     <path d="M 18.109375 8.203125 
L 18.109375 -20.796875 
L 9.078125 -20.796875 
L 9.078125 54.6875 
L 18.109375 54.6875 
L 18.109375 46.390625 
Q 20.953125 51.265625 25.265625 53.625 
Q 29.59375 56 35.59375 56 
Q 45.5625 56 51.78125 48.09375 
Q 58.015625 40.1875 58.015625 27.296875 
Q 58.015625 14.40625 51.78125 6.484375 
Q 45.5625 -1.421875 35.59375 -1.421875 
Q 29.59375 -1.421875 25.265625 0.953125 
Q 20.953125 3.328125 18.109375 8.203125 
z
M 48.6875 27.296875 
Q 48.6875 37.203125 44.609375 42.84375 
Q 40.53125 48.484375 33.40625 48.484375 
Q 26.265625 48.484375 22.1875 42.84375 
Q 18.109375 37.203125 18.109375 27.296875 
Q 18.109375 17.390625 22.1875 11.75 
Q 26.265625 6.109375 33.40625 6.109375 
Q 40.53125 6.109375 44.609375 11.75 
Q 48.6875 17.390625 48.6875 27.296875 
z
" id="DejaVuSans-112"/>
     <path d="M 56.203125 29.59375 
L 56.203125 25.203125 
L 14.890625 25.203125 
Q 15.484375 15.921875 20.484375 11.0625 
Q 25.484375 6.203125 34.421875 6.203125 
Q 39.59375 6.203125 44.453125 7.46875 
Q 49.3125 8.734375 54.109375 11.28125 
L 54.109375 2.78125 
Q 49.265625 0.734375 44.1875 -0.34375 
Q 39.109375 -1.421875 33.890625 -1.421875 
Q 20.796875 -1.421875 13.15625 6.1875 
Q 5.515625 13.8125 5.515625 26.8125 
Q 5.515625 40.234375 12.765625 48.109375 
Q 20.015625 56 32.328125 56 
Q 43.359375 56 49.78125 48.890625 
Q 56.203125 41.796875 56.203125 29.59375 
z
M 47.21875 32.234375 
Q 47.125 39.59375 43.09375 43.984375 
Q 39.0625 48.390625 32.421875 48.390625 
Q 24.90625 48.390625 20.390625 44.140625 
Q 15.875 39.890625 15.1875 32.171875 
z
" id="DejaVuSans-101"/>
     <path d="M 44.28125 53.078125 
L 44.28125 44.578125 
Q 40.484375 46.53125 36.375 47.5 
Q 32.28125 48.484375 27.875 48.484375 
Q 21.1875 48.484375 17.84375 46.4375 
Q 14.5 44.390625 14.5 40.28125 
Q 14.5 37.15625 16.890625 35.375 
Q 19.28125 33.59375 26.515625 31.984375 
L 29.59375 31.296875 
Q 39.15625 29.25 43.1875 25.515625 
Q 47.21875 21.78125 47.21875 15.09375 
Q 47.21875 7.46875 41.1875 3.015625 
Q 35.15625 -1.421875 24.609375 -1.421875 
Q 20.21875 -1.421875 15.453125 -0.5625 
Q 10.6875 0.296875 5.421875 2 
L 5.421875 11.28125 
Q 10.40625 8.6875 15.234375 7.390625 
Q 20.0625 6.109375 24.8125 6.109375 
Q 31.15625 6.109375 34.5625 8.28125 
Q 37.984375 10.453125 37.984375 14.40625 
Q 37.984375 18.0625 35.515625 20.015625 
Q 33.0625 21.96875 24.703125 23.78125 
L 21.578125 24.515625 
Q 13.234375 26.265625 9.515625 29.90625 
Q 5.8125 33.546875 5.8125 39.890625 
Q 5.8125 47.609375 11.28125 51.796875 
Q 16.75 56 26.8125 56 
Q 31.78125 56 36.171875 55.265625 
Q 40.578125 54.546875 44.28125 53.078125 
z
" id="DejaVuSans-115"/>
     <path d="M 18.3125 70.21875 
L 18.3125 54.6875 
L 36.8125 54.6875 
L 36.8125 47.703125 
L 18.3125 47.703125 
L 18.3125 18.015625 
Q 18.3125 11.328125 20.140625 9.421875 
Q 21.96875 7.515625 27.59375 7.515625 
L 36.8125 7.515625 
L 36.8125 0 
L 27.59375 0 
Q 17.1875 0 13.234375 3.875 
Q 9.28125 7.765625 9.28125 18.015625 
L 9.28125 47.703125 
L 2.6875 47.703125 
L 2.6875 54.6875 
L 9.28125 54.6875 
L 9.28125 70.21875 
z
" id="DejaVuSans-116"/>
     <path d="M 50.984375 -16.609375 
L 50.984375 -23.578125 
L -0.984375 -23.578125 
L -0.984375 -16.609375 
z
" id="DejaVuSans-95"/>
     <path d="M 52 44.1875 
Q 55.375 50.25 60.0625 53.125 
Q 64.75 56 71.09375 56 
Q 79.640625 56 84.28125 50.015625 
Q 88.921875 44.046875 88.921875 33.015625 
L 88.921875 0 
L 79.890625 0 
L 79.890625 32.71875 
Q 79.890625 40.578125 77.09375 44.375 
Q 74.3125 48.1875 68.609375 48.1875 
Q 61.625 48.1875 57.5625 43.546875 
Q 53.515625 38.921875 53.515625 30.90625 
L 53.515625 0 
L 44.484375 0 
L 44.484375 32.71875 
Q 44.484375 40.625 41.703125 44.40625 
Q 38.921875 48.1875 33.109375 48.1875 
Q 26.21875 48.1875 22.15625 43.53125 
Q 18.109375 38.875 18.109375 30.90625 
L 18.109375 0 
L 9.078125 0 
L 9.078125 54.6875 
L 18.109375 54.6875 
L 18.109375 46.1875 
Q 21.1875 51.21875 25.484375 53.609375 
Q 29.78125 56 35.6875 56 
Q 41.65625 56 45.828125 52.96875 
Q 50 49.953125 52 44.1875 
z
" id="DejaVuSans-109"/>
     <path d="M 30.609375 48.390625 
Q 23.390625 48.390625 19.1875 42.75 
Q 14.984375 37.109375 14.984375 27.296875 
Q 14.984375 17.484375 19.15625 11.84375 
Q 23.34375 6.203125 30.609375 6.203125 
Q 37.796875 6.203125 41.984375 11.859375 
Q 46.1875 17.53125 46.1875 27.296875 
Q 46.1875 37.015625 41.984375 42.703125 
Q 37.796875 48.390625 30.609375 48.390625 
z
M 30.609375 56 
Q 42.328125 56 49.015625 48.375 
Q 55.71875 40.765625 55.71875 27.296875 
Q 55.71875 13.875 49.015625 6.21875 
Q 42.328125 -1.421875 30.609375 -1.421875 
Q 18.84375 -1.421875 12.171875 6.21875 
Q 5.515625 13.875 5.515625 27.296875 
Q 5.515625 40.765625 12.171875 48.375 
Q 18.84375 56 30.609375 56 
z
" id="DejaVuSans-111"/>
     <path d="M 2.984375 54.6875 
L 12.5 54.6875 
L 29.59375 8.796875 
L 46.6875 54.6875 
L 56.203125 54.6875 
L 35.6875 0 
L 23.484375 0 
z
" id="DejaVuSans-118"/>
     <path d="M 9.421875 54.6875 
L 18.40625 54.6875 
L 18.40625 0 
L 9.421875 0 
z
M 9.421875 75.984375 
L 18.40625 75.984375 
L 18.40625 64.59375 
L 9.421875 64.59375 
z
" id="DejaVuSans-105"/>
    </defs>
    <g transform="translate(405.725 28.592)scale(0.1 -0.1)">
     <use xlink:href="#DejaVuSans-66"/>
     <use x="68.603516" xlink:href="#DejaVuSans-117"/>
     <use x="131.982422" xlink:href="#DejaVuSans-100"/>
     <use x="195.458984" xlink:href="#DejaVuSans-97"/>
     <use x="256.738281" xlink:href="#DejaVuSans-112"/>
     <use x="320.214844" xlink:href="#DejaVuSans-101"/>
     <use x="381.738281" xlink:href="#DejaVuSans-115"/>
     <use x="433.837891" xlink:href="#DejaVuSans-116"/>
     <use x="473.046875" xlink:href="#DejaVuSans-95"/>
     <use x="523.046875" xlink:href="#DejaVuSans-109"/>
     <use x="620.458984" xlink:href="#DejaVuSans-111"/>
     <use x="681.640625" xlink:href="#DejaVuSans-118"/>
     <use x="740.820312" xlink:href="#DejaVuSans-105"/>
     <use x="768.603516" xlink:href="#DejaVuSans-101"/>
    </g>
   </g>
  </g>
  <g id="text_11">
   <!-- lancastersensorimotornorms_Head.mean [model: lancastersensorimotornorms_Head.mean] -->
   <defs>
    <path d="M 9.421875 75.984375 
L 18.40625 75.984375 
L 18.40625 0 
L 9.421875 0 
z
" id="DejaVuSans-108"/>
    <path d="M 54.890625 33.015625 
L 54.890625 0 
L 45.90625 0 
L 45.90625 32.71875 
Q 45.90625 40.484375 42.875 44.328125 
Q 39.84375 48.1875 33.796875 48.1875 
Q 26.515625 48.1875 22.3125 43.546875 
Q 18.109375 38.921875 18.109375 30.90625 
L 18.109375 0 
L 9.078125 0 
L 9.078125 54.6875 
L 18.109375 54.6875 
L 18.109375 46.1875 
Q 21.34375 51.125 25.703125 53.5625 
Q 30.078125 56 35.796875 56 
Q 45.21875 56 50.046875 50.171875 
Q 54.890625 44.34375 54.890625 33.015625 
z
" id="DejaVuSans-110"/>
    <path d="M 48.78125 52.59375 
L 48.78125 44.1875 
Q 44.96875 46.296875 41.140625 47.34375 
Q 37.3125 48.390625 33.40625 48.390625 
Q 24.65625 48.390625 19.8125 42.84375 
Q 14.984375 37.3125 14.984375 27.296875 
Q 14.984375 17.28125 19.8125 11.734375 
Q 24.65625 6.203125 33.40625 6.203125 
Q 37.3125 6.203125 41.140625 7.25 
Q 44.96875 8.296875 48.78125 10.40625 
L 48.78125 2.09375 
Q 45.015625 0.34375 40.984375 -0.53125 
Q 36.96875 -1.421875 32.421875 -1.421875 
Q 20.0625 -1.421875 12.78125 6.34375 
Q 5.515625 14.109375 5.515625 27.296875 
Q 5.515625 40.671875 12.859375 48.328125 
Q 20.21875 56 33.015625 56 
Q 37.15625 56 41.109375 55.140625 
Q 45.0625 54.296875 48.78125 52.59375 
z
" id="DejaVuSans-99"/>
    <path d="M 41.109375 46.296875 
Q 39.59375 47.171875 37.8125 47.578125 
Q 36.03125 48 33.890625 48 
Q 26.265625 48 22.1875 43.046875 
Q 18.109375 38.09375 18.109375 28.8125 
L 18.109375 0 
L 9.078125 0 
L 9.078125 54.6875 
L 18.109375 54.6875 
L 18.109375 46.1875 
Q 20.953125 51.171875 25.484375 53.578125 
Q 30.03125 56 36.53125 56 
Q 37.453125 56 38.578125 55.875 
Q 39.703125 55.765625 41.0625 55.515625 
z
" id="DejaVuSans-114"/>
    <path d="M 9.8125 72.90625 
L 19.671875 72.90625 
L 19.671875 43.015625 
L 55.515625 43.015625 
L 55.515625 72.90625 
L 65.375 72.90625 
L 65.375 0 
L 55.515625 0 
L 55.515625 34.71875 
L 19.671875 34.71875 
L 19.671875 0 
L 9.8125 0 
z
" id="DejaVuSans-72"/>
    <path id="DejaVuSans-32"/>
    <path d="M 8.59375 75.984375 
L 29.296875 75.984375 
L 29.296875 69 
L 17.578125 69 
L 17.578125 -6.203125 
L 29.296875 -6.203125 
L 29.296875 -13.1875 
L 8.59375 -13.1875 
z
" id="DejaVuSans-91"/>
    <path d="M 11.71875 12.40625 
L 22.015625 12.40625 
L 22.015625 0 
L 11.71875 0 
z
M 11.71875 51.703125 
L 22.015625 51.703125 
L 22.015625 39.3125 
L 11.71875 39.3125 
z
" id="DejaVuSans-58"/>
    <path d="M 30.421875 75.984375 
L 30.421875 -13.1875 
L 9.71875 -13.1875 
L 9.71875 -6.203125 
L 21.390625 -6.203125 
L 21.390625 69 
L 9.71875 69 
L 9.71875 75.984375 
z
" id="DejaVuSans-93"/>
   </defs>
   <g transform="translate(151.965625 16.318125)scale(0.12 -0.12)">
    <use xlink:href="#DejaVuSans-108"/>
    <use x="27.783203" xlink:href="#DejaVuSans-97"/>
    <use x="89.0625" xlink:href="#DejaVuSans-110"/>
    <use x="152.441406" xlink:href="#DejaVuSans-99"/>
    <use x="207.421875" xlink:href="#DejaVuSans-97"/>
    <use x="268.701172" xlink:href="#DejaVuSans-115"/>
    <use x="320.800781" xlink:href="#DejaVuSans-116"/>
    <use x="360.009766" xlink:href="#DejaVuSans-101"/>
    <use x="421.533203" xlink:href="#DejaVuSans-114"/>
    <use x="462.646484" xlink:href="#DejaVuSans-115"/>
    <use x="514.746094" xlink:href="#DejaVuSans-101"/>
    <use x="576.269531" xlink:href="#DejaVuSans-110"/>
    <use x="639.648438" xlink:href="#DejaVuSans-115"/>
    <use x="691.748047" xlink:href="#DejaVuSans-111"/>
    <use x="752.929688" xlink:href="#DejaVuSans-114"/>
    <use x="794.042969" xlink:href="#DejaVuSans-105"/>
    <use x="821.826172" xlink:href="#DejaVuSans-109"/>
    <use x="919.238281" xlink:href="#DejaVuSans-111"/>
    <use x="980.419922" xlink:href="#DejaVuSans-116"/>
    <use x="1019.628906" xlink:href="#DejaVuSans-111"/>
    <use x="1080.810547" xlink:href="#DejaVuSans-114"/>
    <use x="1120.173828" xlink:href="#DejaVuSans-110"/>
    <use x="1183.552734" xlink:href="#DejaVuSans-111"/>
    <use x="1244.734375" xlink:href="#DejaVuSans-114"/>
    <use x="1284.097656" xlink:href="#DejaVuSans-109"/>
    <use x="1381.509766" xlink:href="#DejaVuSans-115"/>
    <use x="1433.609375" xlink:href="#DejaVuSans-95"/>
    <use x="1483.609375" xlink:href="#DejaVuSans-72"/>
    <use x="1558.804688" xlink:href="#DejaVuSans-101"/>
    <use x="1620.328125" xlink:href="#DejaVuSans-97"/>
    <use x="1681.607422" xlink:href="#DejaVuSans-100"/>
    <use x="1745.083984" xlink:href="#DejaVuSans-46"/>
    <use x="1776.871094" xlink:href="#DejaVuSans-109"/>
    <use x="1874.283203" xlink:href="#DejaVuSans-101"/>
    <use x="1935.806641" xlink:href="#DejaVuSans-97"/>
    <use x="1997.085938" xlink:href="#DejaVuSans-110"/>
    <use x="2060.464844" xlink:href="#DejaVuSans-32"/>
    <use x="2092.251953" xlink:href="#DejaVuSans-91"/>
    <use x="2131.265625" xlink:href="#DejaVuSans-109"/>
    <use x="2228.677734" xlink:href="#DejaVuSans-111"/>
    <use x="2289.859375" xlink:href="#DejaVuSans-100"/>
    <use x="2353.335938" xlink:href="#DejaVuSans-101"/>
    <use x="2414.859375" xlink:href="#DejaVuSans-108"/>
    <use x="2442.642578" xlink:href="#DejaVuSans-58"/>
    <use x="2476.333984" xlink:href="#DejaVuSans-32"/>
    <use x="2508.121094" xlink:href="#DejaVuSans-108"/>
    <use x="2535.904297" xlink:href="#DejaVuSans-97"/>
    <use x="2597.183594" xlink:href="#DejaVuSans-110"/>
    <use x="2660.5625" xlink:href="#DejaVuSans-99"/>
    <use x="2715.542969" xlink:href="#DejaVuSans-97"/>
    <use x="2776.822266" xlink:href="#DejaVuSans-115"/>
    <use x="2828.921875" xlink:href="#DejaVuSans-116"/>
    <use x="2868.130859" xlink:href="#DejaVuSans-101"/>
    <use x="2929.654297" xlink:href="#DejaVuSans-114"/>
    <use x="2970.767578" xlink:href="#DejaVuSans-115"/>
    <use x="3022.867188" xlink:href="#DejaVuSans-101"/>
    <use x="3084.390625" xlink:href="#DejaVuSans-110"/>
    <use x="3147.769531" xlink:href="#DejaVuSans-115"/>
    <use x="3199.869141" xlink:href="#DejaVuSans-111"/>
    <use x="3261.050781" xlink:href="#DejaVuSans-114"/>
    <use x="3302.164062" xlink:href="#DejaVuSans-105"/>
    <use x="3329.947266" xlink:href="#DejaVuSans-109"/>
    <use x="3427.359375" xlink:href="#DejaVuSans-111"/>
    <use x="3488.541016" xlink:href="#DejaVuSans-116"/>
    <use x="3527.75" xlink:href="#DejaVuSans-111"/>
    <use x="3588.931641" xlink:href="#DejaVuSans-114"/>
    <use x="3628.294922" xlink:href="#DejaVuSans-110"/>
    <use x="3691.673828" xlink:href="#DejaVuSans-111"/>
    <use x="3752.855469" xlink:href="#DejaVuSans-114"/>
    <use x="3792.21875" xlink:href="#DejaVuSans-109"/>
    <use x="3889.630859" xlink:href="#DejaVuSans-115"/>
    <use x="3941.730469" xlink:href="#DejaVuSans-95"/>
    <use x="3991.730469" xlink:href="#DejaVuSans-72"/>
    <use x="4066.925781" xlink:href="#DejaVuSans-101"/>
    <use x="4128.449219" xlink:href="#DejaVuSans-97"/>
    <use x="4189.728516" xlink:href="#DejaVuSans-100"/>
    <use x="4253.205078" xlink:href="#DejaVuSans-46"/>
    <use x="4284.992188" xlink:href="#DejaVuSans-109"/>
    <use x="4382.404297" xlink:href="#DejaVuSans-101"/>
    <use x="4443.927734" xlink:href="#DejaVuSans-97"/>
    <use x="4505.207031" xlink:href="#DejaVuSans-110"/>
    <use x="4568.585938" xlink:href="#DejaVuSans-93"/>
   </g>
  </g>
 </g>
 <defs>
  <clipPath id="pf4defc5036">
   <rect height="33.8" width="804.775" x="44.845313" y="34.592"/>
  </clipPath>
 </defs>
</svg>
