<?xml version="1.0" encoding="utf-8" standalone="no"?>
<!DOCTYPE svg PUBLIC "-//W3C//DTD SVG 1.1//EN"
  "http://www.w3.org/Graphics/SVG/1.1/DTD/svg11.dtd">
<!-- Created with matplotlib (https://matplotlib.org/) -->
<svg height="92.270125pt" version="1.1" viewBox="0 0 856.828125 92.270125" width="856.828125pt" xmlns="http://www.w3.org/2000/svg" xmlns:xlink="http://www.w3.org/1999/xlink">
 <defs>
  <style type="text/css">
*{stroke-linecap:butt;stroke-linejoin:round;}
  </style>
 </defs>
 <g id="figure_1">
  <g id="patch_1">
   <path d="M 0 92.270125 
L 856.828125 92.270125 
L 856.828125 0 
L 0 0 
z
" style="fill:none;"/>
  </g>
  <g id="axes_1">
   <g id="patch_2">
    <path d="M 30.103125 68.392 
L 849.628125 68.392 
L 849.628125 34.592 
L 30.103125 34.592 
z
" style="fill:#ffffff;"/>
   </g>
   <g id="matplotlib.axis_1">
    <g id="xtick_1">
     <g id="line2d_1">
      <defs>
       <path d="M 0 0 
L 0 3.5 
" id="m77318d5870" style="stroke:#000000;stroke-width:0.8;"/>
      </defs>
      <g>
       <use style="stroke:#000000;stroke-width:0.8;" x="67.354261" xlink:href="#m77318d5870" y="68.392"/>
      </g>
     </g>
     <g id="text_1">
      <!-- 0 -->
      <defs>
       <path d="M 31.78125 66.40625 
Q 24.171875 66.40625 20.328125 58.90625 
Q 16.5 51.421875 16.5 36.375 
Q 16.5 21.390625 20.328125 13.890625 
Q 24.171875 6.390625 31.78125 6.390625 
Q 39.453125 6.390625 43.28125 13.890625 
Q 47.125 21.390625 47.125 36.375 
Q 47.125 51.421875 43.28125 58.90625 
Q 39.453125 66.40625 31.78125 66.40625 
z
M 31.78125 74.21875 
Q 44.046875 74.21875 50.515625 64.515625 
Q 56.984375 54.828125 56.984375 36.375 
Q 56.984375 17.96875 50.515625 8.265625 
Q 44.046875 -1.421875 31.78125 -1.421875 
Q 19.53125 -1.421875 13.0625 8.265625 
Q 6.59375 17.96875 6.59375 36.375 
Q 6.59375 54.828125 13.0625 64.515625 
Q 19.53125 74.21875 31.78125 74.21875 
z
" id="DejaVuSans-48"/>
      </defs>
      <g transform="translate(64.173011 82.990437)scale(0.1 -0.1)">
       <use xlink:href="#DejaVuSans-48"/>
      </g>
     </g>
    </g>
    <g id="xtick_2">
     <g id="line2d_2">
      <g>
       <use style="stroke:#000000;stroke-width:0.8;" x="206.871626" xlink:href="#m77318d5870" y="68.392"/>
      </g>
     </g>
     <g id="text_2">
      <!-- 100 -->
      <defs>
       <path d="M 12.40625 8.296875 
L 28.515625 8.296875 
L 28.515625 63.921875 
L 10.984375 60.40625 
L 10.984375 69.390625 
L 28.421875 72.90625 
L 38.28125 72.90625 
L 38.28125 8.296875 
L 54.390625 8.296875 
L 54.390625 0 
L 12.40625 0 
z
" id="DejaVuSans-49"/>
      </defs>
      <g transform="translate(197.327876 82.990437)scale(0.1 -0.1)">
       <use xlink:href="#DejaVuSans-49"/>
       <use x="63.623047" xlink:href="#DejaVuSans-48"/>
       <use x="127.246094" xlink:href="#DejaVuSans-48"/>
      </g>
     </g>
    </g>
    <g id="xtick_3">
     <g id="line2d_3">
      <g>
       <use style="stroke:#000000;stroke-width:0.8;" x="346.388991" xlink:href="#m77318d5870" y="68.392"/>
      </g>
     </g>
     <g id="text_3">
      <!-- 200 -->
      <defs>
       <path d="M 19.1875 8.296875 
L 53.609375 8.296875 
L 53.609375 0 
L 7.328125 0 
L 7.328125 8.296875 
Q 12.9375 14.109375 22.625 23.890625 
Q 32.328125 33.6875 34.8125 36.53125 
Q 39.546875 41.84375 41.421875 45.53125 
Q 43.3125 49.21875 43.3125 52.78125 
Q 43.3125 58.59375 39.234375 62.25 
Q 35.15625 65.921875 28.609375 65.921875 
Q 23.96875 65.921875 18.8125 64.3125 
Q 13.671875 62.703125 7.8125 59.421875 
L 7.8125 69.390625 
Q 13.765625 71.78125 18.9375 73 
Q 24.125 74.21875 28.421875 74.21875 
Q 39.75 74.21875 46.484375 68.546875 
Q 53.21875 62.890625 53.21875 53.421875 
Q 53.21875 48.921875 51.53125 44.890625 
Q 49.859375 40.875 45.40625 35.40625 
Q 44.1875 33.984375 37.640625 27.21875 
Q 31.109375 20.453125 19.1875 8.296875 
z
" id="DejaVuSans-50"/>
      </defs>
      <g transform="translate(336.845241 82.990437)scale(0.1 -0.1)">
       <use xlink:href="#DejaVuSans-50"/>
       <use x="63.623047" xlink:href="#DejaVuSans-48"/>
       <use x="127.246094" xlink:href="#DejaVuSans-48"/>
      </g>
     </g>
    </g>
    <g id="xtick_4">
     <g id="line2d_4">
      <g>
       <use style="stroke:#000000;stroke-width:0.8;" x="485.906355" xlink:href="#m77318d5870" y="68.392"/>
      </g>
     </g>
     <g id="text_4">
      <!-- 300 -->
      <defs>
       <path d="M 40.578125 39.3125 
Q 47.65625 37.796875 51.625 33 
Q 55.609375 28.21875 55.609375 21.1875 
Q 55.609375 10.40625 48.1875 4.484375 
Q 40.765625 -1.421875 27.09375 -1.421875 
Q 22.515625 -1.421875 17.65625 -0.515625 
Q 12.796875 0.390625 7.625 2.203125 
L 7.625 11.71875 
Q 11.71875 9.328125 16.59375 8.109375 
Q 21.484375 6.890625 26.8125 6.890625 
Q 36.078125 6.890625 40.9375 10.546875 
Q 45.796875 14.203125 45.796875 21.1875 
Q 45.796875 27.640625 41.28125 31.265625 
Q 36.765625 34.90625 28.71875 34.90625 
L 20.21875 34.90625 
L 20.21875 43.015625 
L 29.109375 43.015625 
Q 36.375 43.015625 40.234375 45.921875 
Q 44.09375 48.828125 44.09375 54.296875 
Q 44.09375 59.90625 40.109375 62.90625 
Q 36.140625 65.921875 28.71875 65.921875 
Q 24.65625 65.921875 20.015625 65.03125 
Q 15.375 64.15625 9.8125 62.3125 
L 9.8125 71.09375 
Q 15.4375 72.65625 20.34375 73.4375 
Q 25.25 74.21875 29.59375 74.21875 
Q 40.828125 74.21875 47.359375 69.109375 
Q 53.90625 64.015625 53.90625 55.328125 
Q 53.90625 49.265625 50.4375 45.09375 
Q 46.96875 40.921875 40.578125 39.3125 
z
" id="DejaVuSans-51"/>
      </defs>
      <g transform="translate(476.362605 82.990437)scale(0.1 -0.1)">
       <use xlink:href="#DejaVuSans-51"/>
       <use x="63.623047" xlink:href="#DejaVuSans-48"/>
       <use x="127.246094" xlink:href="#DejaVuSans-48"/>
      </g>
     </g>
    </g>
    <g id="xtick_5">
     <g id="line2d_5">
      <g>
       <use style="stroke:#000000;stroke-width:0.8;" x="625.42372" xlink:href="#m77318d5870" y="68.392"/>
      </g>
     </g>
     <g id="text_5">
      <!-- 400 -->
      <defs>
       <path d="M 37.796875 64.3125 
L 12.890625 25.390625 
L 37.796875 25.390625 
z
M 35.203125 72.90625 
L 47.609375 72.90625 
L 47.609375 25.390625 
L 58.015625 25.390625 
L 58.015625 17.1875 
L 47.609375 17.1875 
L 47.609375 0 
L 37.796875 0 
L 37.796875 17.1875 
L 4.890625 17.1875 
L 4.890625 26.703125 
z
" id="DejaVuSans-52"/>
      </defs>
      <g transform="translate(615.87997 82.990437)scale(0.1 -0.1)">
       <use xlink:href="#DejaVuSans-52"/>
       <use x="63.623047" xlink:href="#DejaVuSans-48"/>
       <use x="127.246094" xlink:href="#DejaVuSans-48"/>
      </g>
     </g>
    </g>
    <g id="xtick_6">
     <g id="line2d_6">
      <g>
       <use style="stroke:#000000;stroke-width:0.8;" x="764.941085" xlink:href="#m77318d5870" y="68.392"/>
      </g>
     </g>
     <g id="text_6">
      <!-- 500 -->
      <defs>
       <path d="M 10.796875 72.90625 
L 49.515625 72.90625 
L 49.515625 64.59375 
L 19.828125 64.59375 
L 19.828125 46.734375 
Q 21.96875 47.46875 24.109375 47.828125 
Q 26.265625 48.1875 28.421875 48.1875 
Q 40.625 48.1875 47.75 41.5 
Q 54.890625 34.8125 54.890625 23.390625 
Q 54.890625 11.625 47.5625 5.09375 
Q 40.234375 -1.421875 26.90625 -1.421875 
Q 22.3125 -1.421875 17.546875 -0.640625 
Q 12.796875 0.140625 7.71875 1.703125 
L 7.71875 11.625 
Q 12.109375 9.234375 16.796875 8.0625 
Q 21.484375 6.890625 26.703125 6.890625 
Q 35.15625 6.890625 40.078125 11.328125 
Q 45.015625 15.765625 45.015625 23.390625 
Q 45.015625 31 40.078125 35.4375 
Q 35.15625 39.890625 26.703125 39.890625 
Q 22.75 39.890625 18.8125 39.015625 
Q 14.890625 38.140625 10.796875 36.28125 
z
" id="DejaVuSans-53"/>
      </defs>
      <g transform="translate(755.397335 82.990437)scale(0.1 -0.1)">
       <use xlink:href="#DejaVuSans-53"/>
       <use x="63.623047" xlink:href="#DejaVuSans-48"/>
       <use x="127.246094" xlink:href="#DejaVuSans-48"/>
      </g>
     </g>
    </g>
   </g>
   <g id="matplotlib.axis_2">
    <g id="ytick_1">
     <g id="line2d_7">
      <defs>
       <path d="M 0 0 
L -3.5 0 
" id="m8c5f7b703c" style="stroke:#000000;stroke-width:0.8;"/>
      </defs>
      <g>
       <use style="stroke:#000000;stroke-width:0.8;" x="30.103125" xlink:href="#m8c5f7b703c" y="56.701842"/>
      </g>
     </g>
     <g id="text_7">
      <!-- 0.0 -->
      <defs>
       <path d="M 10.6875 12.40625 
L 21 12.40625 
L 21 0 
L 10.6875 0 
z
" id="DejaVuSans-46"/>
      </defs>
      <g transform="translate(7.2 60.501061)scale(0.1 -0.1)">
       <use xlink:href="#DejaVuSans-48"/>
       <use x="63.623047" xlink:href="#DejaVuSans-46"/>
       <use x="95.410156" xlink:href="#DejaVuSans-48"/>
      </g>
     </g>
    </g>
    <g id="ytick_2">
     <g id="line2d_8">
      <g>
       <use style="stroke:#000000;stroke-width:0.8;" x="30.103125" xlink:href="#m8c5f7b703c" y="44.685961"/>
      </g>
     </g>
     <g id="text_8">
      <!-- 0.5 -->
      <g transform="translate(7.2 48.48518)scale(0.1 -0.1)">
       <use xlink:href="#DejaVuSans-48"/>
       <use x="63.623047" xlink:href="#DejaVuSans-46"/>
       <use x="95.410156" xlink:href="#DejaVuSans-53"/>
      </g>
     </g>
    </g>
   </g>
   <g id="line2d_9">
    <path clip-path="url(#pe7fecce49f)" d="M 67.354261 56.701842 
L 85.491519 56.736061 
L 86.886692 57.14281 
L 89.67704 59.030039 
L 92.467387 61.055881 
L 93.862561 61.742894 
L 95.257734 59.497641 
L 96.652908 52.515695 
L 98.048082 44.728023 
L 99.443255 40.270135 
L 100.838429 39.904725 
L 102.233603 42.702797 
L 105.02395 51.301961 
L 106.419123 54.99021 
L 107.814297 57.556816 
L 109.209471 58.968971 
L 110.604644 59.504701 
L 111.999818 59.509236 
L 113.394992 59.245043 
L 120.37086 57.362286 
L 123.161207 56.916724 
L 125.951555 56.703984 
L 132.927423 56.38781 
L 134.322596 56.328322 
L 135.71777 57.035243 
L 139.903291 59.911069 
L 141.298465 60.416131 
L 142.693638 59.85441 
L 144.088812 58.876831 
L 145.483986 58.257677 
L 146.879159 58.148272 
L 148.274333 58.278226 
L 149.669507 58.702882 
L 151.06468 59.800742 
L 152.459854 61.211233 
L 153.855027 62.339899 
L 155.250201 62.902449 
L 156.645375 62.712993 
L 159.435722 61.527073 
L 160.830896 61.091177 
L 162.226069 60.318355 
L 166.41159 56.287316 
L 167.806764 55.969308 
L 169.201938 56.876095 
L 171.992285 61.021292 
L 173.387459 62.227276 
L 174.782632 61.872788 
L 176.177806 60.181527 
L 177.572979 58.199757 
L 178.968153 57.132084 
L 180.363327 57.138109 
L 181.7585 57.622878 
L 183.153674 57.793321 
L 184.548848 57.163311 
L 185.944021 55.965881 
L 187.339195 55.101532 
L 188.734369 55.405425 
L 190.129542 56.052043 
L 191.524716 55.895799 
L 192.91989 55.014496 
L 194.315063 54.666456 
L 197.10541 56.052759 
L 199.895758 55.399396 
L 201.290931 56.048763 
L 204.081279 58.975986 
L 205.476452 59.761079 
L 206.871626 59.773767 
L 212.452321 58.206904 
L 213.847494 58.061638 
L 216.637842 58.337505 
L 218.033015 58.222248 
L 225.008883 56.708258 
L 227.799231 56.518616 
L 231.984752 56.490198 
L 237.565446 56.615549 
L 241.750967 57.127027 
L 243.146141 57.606857 
L 244.541314 58.24889 
L 245.936488 59.137333 
L 248.726835 61.467639 
L 250.122009 62.23556 
L 251.517183 62.373267 
L 252.912356 60.86561 
L 254.30753 58.330742 
L 255.702704 56.361862 
L 257.097877 55.368782 
L 258.493051 55.185217 
L 262.678572 55.897794 
L 264.073746 56.03457 
L 265.468919 56.290054 
L 266.864093 56.937288 
L 268.259266 57.910218 
L 269.65444 59.182068 
L 271.049614 60.623833 
L 272.444787 61.729705 
L 275.235135 63.061306 
L 276.630308 64.076324 
L 278.025482 65.359449 
L 279.420656 66.3569 
L 280.815829 66.763853 
L 282.211003 66.855636 
L 286.396524 66.639001 
L 287.791698 66.288988 
L 290.582045 65.166901 
L 291.977218 64.645988 
L 294.767566 63.107881 
L 296.162739 62.255706 
L 297.557913 59.815525 
L 300.34826 49.771319 
L 301.743434 47.078972 
L 303.138608 47.445214 
L 304.533781 50.093946 
L 307.324129 56.994509 
L 308.719302 59.806406 
L 310.114476 61.815977 
L 311.50965 62.557933 
L 312.904823 62.161821 
L 314.299997 61.139758 
L 317.090344 58.895548 
L 318.485518 58.06289 
L 319.880691 57.514252 
L 321.275865 57.313723 
L 322.671039 57.576349 
L 326.85656 58.930296 
L 329.646907 60.115438 
L 332.437254 60.906004 
L 335.227602 62.05932 
L 336.622775 61.651207 
L 338.017949 60.019243 
L 339.413122 57.949711 
L 340.808296 56.295802 
L 342.20347 55.220854 
L 343.598643 54.741572 
L 344.993817 54.923776 
L 347.784164 55.901863 
L 349.179338 56.077341 
L 350.574512 55.838918 
L 351.969685 55.291745 
L 353.364859 55.097687 
L 354.760033 55.448073 
L 358.945553 57.146258 
L 360.340727 57.400303 
L 361.735901 57.465815 
L 363.131074 56.986224 
L 365.921422 54.576703 
L 367.316595 54.099847 
L 368.711769 54.285082 
L 370.106943 54.940053 
L 371.502116 55.974897 
L 374.292464 58.661687 
L 375.687637 59.570498 
L 378.477985 61.118812 
L 379.873158 61.955636 
L 381.268332 62.528557 
L 382.663505 62.688216 
L 384.058679 62.57652 
L 385.453853 62.129195 
L 388.2442 60.461541 
L 389.639374 60.053985 
L 391.034547 59.79675 
L 395.220068 58.719718 
L 396.615242 58.682179 
L 398.010416 58.973297 
L 402.195937 60.551629 
L 403.59111 61.11481 
L 404.986284 61.364044 
L 406.381457 61.136513 
L 410.566978 59.88314 
L 411.962152 59.567862 
L 413.357326 58.992195 
L 417.542847 56.444326 
L 418.93802 56.412614 
L 421.728368 57.989382 
L 423.123541 58.306388 
L 424.518715 57.986424 
L 425.913889 56.704977 
L 428.704236 51.257551 
L 430.099409 49.930477 
L 431.494583 50.37562 
L 432.889757 51.834481 
L 435.680104 54.98615 
L 437.075278 56.456581 
L 438.470451 57.511036 
L 439.865625 57.98321 
L 441.260799 58.067099 
L 442.655972 57.967964 
L 444.051146 58.021987 
L 445.44632 58.404135 
L 446.841493 58.554098 
L 448.236667 58.211224 
L 451.027014 57.148131 
L 452.422188 56.811711 
L 455.212535 56.517112 
L 456.607709 56.598917 
L 459.398056 57.540471 
L 460.79323 56.844715 
L 462.188403 55.462422 
L 463.583577 54.662394 
L 464.978751 55.275062 
L 469.164272 60.078262 
L 470.559445 61.087339 
L 474.744966 63.463166 
L 476.14014 64.044927 
L 477.535313 64.268162 
L 478.930487 64.015254 
L 480.325661 62.480149 
L 481.720834 58.877099 
L 483.116008 54.816275 
L 484.511182 52.181306 
L 485.906355 51.339126 
L 487.301529 51.72293 
L 492.882224 55.276184 
L 494.277397 55.919756 
L 495.672571 56.413784 
L 498.462918 57.192506 
L 502.648439 58.613751 
L 505.438786 59.174305 
L 506.83396 59.820348 
L 508.229134 60.977583 
L 509.624307 62.329419 
L 511.019481 62.715965 
L 512.414655 60.784814 
L 513.809828 57.764604 
L 515.205002 55.666245 
L 516.600176 54.97389 
L 517.995349 55.243668 
L 519.390523 55.822763 
L 523.576044 57.002659 
L 524.971217 57.785128 
L 526.366391 58.344421 
L 527.761565 58.442106 
L 529.156738 58.007852 
L 530.551912 55.945987 
L 531.947086 52.541436 
L 533.342259 49.800311 
L 534.737433 48.862983 
L 536.132607 49.417217 
L 543.108475 54.883911 
L 544.503648 55.703431 
L 545.898822 56.344328 
L 547.293996 56.837094 
L 548.689169 57.553222 
L 551.479517 59.70836 
L 552.87469 60.124518 
L 554.269864 59.910945 
L 555.665038 59.344431 
L 557.060211 58.367793 
L 559.850559 55.304455 
L 561.245732 54.268018 
L 562.640906 54.104036 
L 564.03608 54.458581 
L 568.2216 56.17079 
L 571.011948 56.846617 
L 575.197469 57.366445 
L 577.987816 57.370095 
L 586.358858 56.734803 
L 591.939552 56.655769 
L 597.520247 56.635269 
L 598.915421 56.205467 
L 600.310594 55.393605 
L 601.705768 54.818094 
L 603.100942 54.896786 
L 604.496115 55.453339 
L 605.891289 56.344569 
L 607.286463 57.530457 
L 608.681636 58.526461 
L 610.07681 59.306985 
L 611.471984 59.616449 
L 612.867157 58.91872 
L 614.262331 57.635521 
L 615.657504 56.508023 
L 617.052678 55.872455 
L 618.447852 55.68116 
L 621.238199 55.912878 
L 622.633373 56.10776 
L 624.028546 56.683532 
L 625.42372 57.901195 
L 626.818894 59.288703 
L 628.214067 60.282994 
L 629.609241 60.566392 
L 631.004415 60.208578 
L 636.585109 57.427029 
L 637.980283 57.00923 
L 640.77063 56.524775 
L 643.560977 56.359883 
L 647.746498 56.415577 
L 657.512714 56.662932 
L 658.907888 56.68569 
L 660.303061 56.542455 
L 661.698235 55.763961 
L 663.093408 54.637019 
L 664.488582 53.877245 
L 665.883756 53.774638 
L 667.278929 54.154888 
L 668.674103 54.783929 
L 670.069277 54.738412 
L 671.46445 51.480887 
L 674.254798 39.810013 
L 675.649971 36.345001 
L 677.045145 36.128364 
L 678.440319 38.672138 
L 679.835492 42.209781 
L 681.230666 45.213976 
L 684.021013 50.076138 
L 685.416187 52.132734 
L 688.206534 55.750071 
L 689.601708 57.678812 
L 690.996881 59.095017 
L 692.392055 59.767282 
L 693.787229 59.817887 
L 695.182402 59.500437 
L 699.367923 58.115863 
L 704.948618 56.993402 
L 706.343791 57.170426 
L 707.738965 58.143334 
L 709.134139 59.528678 
L 710.529312 60.278072 
L 711.924486 60.102962 
L 713.31966 59.123441 
L 714.714833 57.039087 
L 716.110007 54.575275 
L 717.505181 52.858036 
L 718.900354 52.422828 
L 720.295528 53.411122 
L 721.690702 55.138206 
L 723.085875 56.546844 
L 724.481049 56.938348 
L 725.876223 55.367785 
L 727.271396 52.607774 
L 728.66657 50.569875 
L 730.061743 50.05185 
L 731.456917 51.081918 
L 734.247264 55.362255 
L 735.642438 56.653679 
L 737.037612 56.477005 
L 738.432785 54.886259 
L 741.223133 50.645908 
L 742.618306 49.063748 
L 744.01348 49.427754 
L 745.408654 51.92634 
L 746.803827 55.252091 
L 748.199001 57.839306 
L 749.594175 59.216533 
L 752.384522 60.10983 
L 753.779695 60.415478 
L 756.570043 60.341871 
L 757.965216 61.137999 
L 759.36039 62.834794 
L 760.755564 64.88447 
L 762.150737 66.251793 
L 763.545911 66.117751 
L 766.336258 63.370415 
L 767.731432 62.424275 
L 769.126606 61.618591 
L 770.521779 60.637539 
L 773.312127 58.091261 
L 774.7073 57.216911 
L 777.497647 56.365753 
L 778.892821 56.004454 
L 781.683168 54.94899 
L 783.078342 54.352227 
L 784.473516 53.509131 
L 785.868689 52.817277 
L 787.263863 52.803727 
L 788.659037 53.423983 
L 790.05421 54.311586 
L 791.449384 55.050784 
L 792.844558 55.331344 
L 795.634905 55.356492 
L 797.030079 55.555959 
L 801.215599 56.483021 
L 804.005947 56.811318 
L 808.191468 56.920041 
L 812.376989 56.862848 
L 812.376989 56.862848 
" style="fill:none;stroke:#1f77b4;stroke-linecap:square;stroke-width:1.5;"/>
   </g>
   <g id="patch_3">
    <path d="M 30.103125 68.392 
L 30.103125 34.592 
" style="fill:none;stroke:#000000;stroke-linecap:square;stroke-linejoin:miter;stroke-width:0.8;"/>
   </g>
   <g id="patch_4">
    <path d="M 30.103125 68.392 
L 849.628125 68.392 
" style="fill:none;stroke:#000000;stroke-linecap:square;stroke-linejoin:miter;stroke-width:0.8;"/>
   </g>
   <g id="text_9">
    <!-- Budapest_movie -->
    <defs>
     <path d="M 19.671875 34.8125 
L 19.671875 8.109375 
L 35.5 8.109375 
Q 43.453125 8.109375 47.28125 11.40625 
Q 51.125 14.703125 51.125 21.484375 
Q 51.125 28.328125 47.28125 31.5625 
Q 43.453125 34.8125 35.5 34.8125 
z
M 19.671875 64.796875 
L 19.671875 42.828125 
L 34.28125 42.828125 
Q 41.5 42.828125 45.03125 45.53125 
Q 48.578125 48.25 48.578125 53.8125 
Q 48.578125 59.328125 45.03125 62.0625 
Q 41.5 64.796875 34.28125 64.796875 
z
M 9.8125 72.90625 
L 35.015625 72.90625 
Q 46.296875 72.90625 52.390625 68.21875 
Q 58.5 63.53125 58.5 54.890625 
Q 58.5 48.1875 55.375 44.234375 
Q 52.25 40.28125 46.1875 39.3125 
Q 53.46875 37.75 57.5 32.78125 
Q 61.53125 27.828125 61.53125 20.40625 
Q 61.53125 10.640625 54.890625 5.3125 
Q 48.25 0 35.984375 0 
L 9.8125 0 
z
" id="DejaVuSans-66"/>
     <path d="M 8.5 21.578125 
L 8.5 54.6875 
L 17.484375 54.6875 
L 17.484375 21.921875 
Q 17.484375 14.15625 20.5 10.265625 
Q 23.53125 6.390625 29.59375 6.390625 
Q 36.859375 6.390625 41.078125 11.03125 
Q 45.3125 15.671875 45.3125 23.6875 
L 45.3125 54.6875 
L 54.296875 54.6875 
L 54.296875 0 
L 45.3125 0 
L 45.3125 8.40625 
Q 42.046875 3.421875 37.71875 1 
Q 33.40625 -1.421875 27.6875 -1.421875 
Q 18.265625 -1.421875 13.375 4.4375 
Q 8.5 10.296875 8.5 21.578125 
z
M 31.109375 56 
z
" id="DejaVuSans-117"/>
     <path d="M 45.40625 46.390625 
L 45.40625 75.984375 
L 54.390625 75.984375 
L 54.390625 0 
L 45.40625 0 
L 45.40625 8.203125 
Q 42.578125 3.328125 38.25 0.953125 
Q 33.9375 -1.421875 27.875 -1.421875 
Q 17.96875 -1.421875 11.734375 6.484375 
Q 5.515625 14.40625 5.515625 27.296875 
Q 5.515625 40.1875 11.734375 48.09375 
Q 17.96875 56 27.875 56 
Q 33.9375 56 38.25 53.625 
Q 42.578125 51.265625 45.40625 46.390625 
z
M 14.796875 27.296875 
Q 14.796875 17.390625 18.875 11.75 
Q 22.953125 6.109375 30.078125 6.109375 
Q 37.203125 6.109375 41.296875 11.75 
Q 45.40625 17.390625 45.40625 27.296875 
Q 45.40625 37.203125 41.296875 42.84375 
Q 37.203125 48.484375 30.078125 48.484375 
Q 22.953125 48.484375 18.875 42.84375 
Q 14.796875 37.203125 14.796875 27.296875 
z
" id="DejaVuSans-100"/>
     <path d="M 34.28125 27.484375 
Q 23.390625 27.484375 19.1875 25 
Q 14.984375 22.515625 14.984375 16.5 
Q 14.984375 11.71875 18.140625 8.90625 
Q 21.296875 6.109375 26.703125 6.109375 
Q 34.1875 6.109375 38.703125 11.40625 
Q 43.21875 16.703125 43.21875 25.484375 
L 43.21875 27.484375 
z
M 52.203125 31.203125 
L 52.203125 0 
L 43.21875 0 
L 43.21875 8.296875 
Q 40.140625 3.328125 35.546875 0.953125 
Q 30.953125 -1.421875 24.3125 -1.421875 
Q 15.921875 -1.421875 10.953125 3.296875 
Q 6 8.015625 6 15.921875 
Q 6 25.140625 12.171875 29.828125 
Q 18.359375 34.515625 30.609375 34.515625 
L 43.21875 34.515625 
L 43.21875 35.40625 
Q 43.21875 41.609375 39.140625 45 
Q 35.0625 48.390625 27.6875 48.390625 
Q 23 48.390625 18.546875 47.265625 
Q 14.109375 46.140625 10.015625 43.890625 
L 10.015625 52.203125 
Q 14.9375 54.109375 19.578125 55.046875 
Q 24.21875 56 28.609375 56 
Q 40.484375 56 46.34375 49.84375 
Q 52.203125 43.703125 52.203125 31.203125 
z
" id="DejaVuSans-97"/>
     <path d="M 18.109375 8.203125 
L 18.109375 -20.796875 
L 9.078125 -20.796875 
L 9.078125 54.6875 
L 18.109375 54.6875 
L 18.109375 46.390625 
Q 20.953125 51.265625 25.265625 53.625 
Q 29.59375 56 35.59375 56 
Q 45.5625 56 51.78125 48.09375 
Q 58.015625 40.1875 58.015625 27.296875 
Q 58.015625 14.40625 51.78125 6.484375 
Q 45.5625 -1.421875 35.59375 -1.421875 
Q 29.59375 -1.421875 25.265625 0.953125 
Q 20.953125 3.328125 18.109375 8.203125 
z
M 48.6875 27.296875 
Q 48.6875 37.203125 44.609375 42.84375 
Q 40.53125 48.484375 33.40625 48.484375 
Q 26.265625 48.484375 22.1875 42.84375 
Q 18.109375 37.203125 18.109375 27.296875 
Q 18.109375 17.390625 22.1875 11.75 
Q 26.265625 6.109375 33.40625 6.109375 
Q 40.53125 6.109375 44.609375 11.75 
Q 48.6875 17.390625 48.6875 27.296875 
z
" id="DejaVuSans-112"/>
     <path d="M 56.203125 29.59375 
L 56.203125 25.203125 
L 14.890625 25.203125 
Q 15.484375 15.921875 20.484375 11.0625 
Q 25.484375 6.203125 34.421875 6.203125 
Q 39.59375 6.203125 44.453125 7.46875 
Q 49.3125 8.734375 54.109375 11.28125 
L 54.109375 2.78125 
Q 49.265625 0.734375 44.1875 -0.34375 
Q 39.109375 -1.421875 33.890625 -1.421875 
Q 20.796875 -1.421875 13.15625 6.1875 
Q 5.515625 13.8125 5.515625 26.8125 
Q 5.515625 40.234375 12.765625 48.109375 
Q 20.015625 56 32.328125 56 
Q 43.359375 56 49.78125 48.890625 
Q 56.203125 41.796875 56.203125 29.59375 
z
M 47.21875 32.234375 
Q 47.125 39.59375 43.09375 43.984375 
Q 39.0625 48.390625 32.421875 48.390625 
Q 24.90625 48.390625 20.390625 44.140625 
Q 15.875 39.890625 15.1875 32.171875 
z
" id="DejaVuSans-101"/>
     <path d="M 44.28125 53.078125 
L 44.28125 44.578125 
Q 40.484375 46.53125 36.375 47.5 
Q 32.28125 48.484375 27.875 48.484375 
Q 21.1875 48.484375 17.84375 46.4375 
Q 14.5 44.390625 14.5 40.28125 
Q 14.5 37.15625 16.890625 35.375 
Q 19.28125 33.59375 26.515625 31.984375 
L 29.59375 31.296875 
Q 39.15625 29.25 43.1875 25.515625 
Q 47.21875 21.78125 47.21875 15.09375 
Q 47.21875 7.46875 41.1875 3.015625 
Q 35.15625 -1.421875 24.609375 -1.421875 
Q 20.21875 -1.421875 15.453125 -0.5625 
Q 10.6875 0.296875 5.421875 2 
L 5.421875 11.28125 
Q 10.40625 8.6875 15.234375 7.390625 
Q 20.0625 6.109375 24.8125 6.109375 
Q 31.15625 6.109375 34.5625 8.28125 
Q 37.984375 10.453125 37.984375 14.40625 
Q 37.984375 18.0625 35.515625 20.015625 
Q 33.0625 21.96875 24.703125 23.78125 
L 21.578125 24.515625 
Q 13.234375 26.265625 9.515625 29.90625 
Q 5.8125 33.546875 5.8125 39.890625 
Q 5.8125 47.609375 11.28125 51.796875 
Q 16.75 56 26.8125 56 
Q 31.78125 56 36.171875 55.265625 
Q 40.578125 54.546875 44.28125 53.078125 
z
" id="DejaVuSans-115"/>
     <path d="M 18.3125 70.21875 
L 18.3125 54.6875 
L 36.8125 54.6875 
L 36.8125 47.703125 
L 18.3125 47.703125 
L 18.3125 18.015625 
Q 18.3125 11.328125 20.140625 9.421875 
Q 21.96875 7.515625 27.59375 7.515625 
L 36.8125 7.515625 
L 36.8125 0 
L 27.59375 0 
Q 17.1875 0 13.234375 3.875 
Q 9.28125 7.765625 9.28125 18.015625 
L 9.28125 47.703125 
L 2.6875 47.703125 
L 2.6875 54.6875 
L 9.28125 54.6875 
L 9.28125 70.21875 
z
" id="DejaVuSans-116"/>
     <path d="M 50.984375 -16.609375 
L 50.984375 -23.578125 
L -0.984375 -23.578125 
L -0.984375 -16.609375 
z
" id="DejaVuSans-95"/>
     <path d="M 52 44.1875 
Q 55.375 50.25 60.0625 53.125 
Q 64.75 56 71.09375 56 
Q 79.640625 56 84.28125 50.015625 
Q 88.921875 44.046875 88.921875 33.015625 
L 88.921875 0 
L 79.890625 0 
L 79.890625 32.71875 
Q 79.890625 40.578125 77.09375 44.375 
Q 74.3125 48.1875 68.609375 48.1875 
Q 61.625 48.1875 57.5625 43.546875 
Q 53.515625 38.921875 53.515625 30.90625 
L 53.515625 0 
L 44.484375 0 
L 44.484375 32.71875 
Q 44.484375 40.625 41.703125 44.40625 
Q 38.921875 48.1875 33.109375 48.1875 
Q 26.21875 48.1875 22.15625 43.53125 
Q 18.109375 38.875 18.109375 30.90625 
L 18.109375 0 
L 9.078125 0 
L 9.078125 54.6875 
L 18.109375 54.6875 
L 18.109375 46.1875 
Q 21.1875 51.21875 25.484375 53.609375 
Q 29.78125 56 35.6875 56 
Q 41.65625 56 45.828125 52.96875 
Q 50 49.953125 52 44.1875 
z
" id="DejaVuSans-109"/>
     <path d="M 30.609375 48.390625 
Q 23.390625 48.390625 19.1875 42.75 
Q 14.984375 37.109375 14.984375 27.296875 
Q 14.984375 17.484375 19.15625 11.84375 
Q 23.34375 6.203125 30.609375 6.203125 
Q 37.796875 6.203125 41.984375 11.859375 
Q 46.1875 17.53125 46.1875 27.296875 
Q 46.1875 37.015625 41.984375 42.703125 
Q 37.796875 48.390625 30.609375 48.390625 
z
M 30.609375 56 
Q 42.328125 56 49.015625 48.375 
Q 55.71875 40.765625 55.71875 27.296875 
Q 55.71875 13.875 49.015625 6.21875 
Q 42.328125 -1.421875 30.609375 -1.421875 
Q 18.84375 -1.421875 12.171875 6.21875 
Q 5.515625 13.875 5.515625 27.296875 
Q 5.515625 40.765625 12.171875 48.375 
Q 18.84375 56 30.609375 56 
z
" id="DejaVuSans-111"/>
     <path d="M 2.984375 54.6875 
L 12.5 54.6875 
L 29.59375 8.796875 
L 46.6875 54.6875 
L 56.203125 54.6875 
L 35.6875 0 
L 23.484375 0 
z
" id="DejaVuSans-118"/>
     <path d="M 9.421875 54.6875 
L 18.40625 54.6875 
L 18.40625 0 
L 9.421875 0 
z
M 9.421875 75.984375 
L 18.40625 75.984375 
L 18.40625 64.59375 
L 9.421875 64.59375 
z
" id="DejaVuSans-105"/>
    </defs>
    <g transform="translate(398.357813 28.592)scale(0.1 -0.1)">
     <use xlink:href="#DejaVuSans-66"/>
     <use x="68.603516" xlink:href="#DejaVuSans-117"/>
     <use x="131.982422" xlink:href="#DejaVuSans-100"/>
     <use x="195.458984" xlink:href="#DejaVuSans-97"/>
     <use x="256.738281" xlink:href="#DejaVuSans-112"/>
     <use x="320.214844" xlink:href="#DejaVuSans-101"/>
     <use x="381.738281" xlink:href="#DejaVuSans-115"/>
     <use x="433.837891" xlink:href="#DejaVuSans-116"/>
     <use x="473.046875" xlink:href="#DejaVuSans-95"/>
     <use x="523.046875" xlink:href="#DejaVuSans-109"/>
     <use x="620.458984" xlink:href="#DejaVuSans-111"/>
     <use x="681.640625" xlink:href="#DejaVuSans-118"/>
     <use x="740.820312" xlink:href="#DejaVuSans-105"/>
     <use x="768.603516" xlink:href="#DejaVuSans-101"/>
    </g>
   </g>
  </g>
  <g id="text_10">
   <!-- lancastersensorimotornorms_Olfactory.mean [model: lancastersensorimotornorms_Olfactory.mean] -->
   <defs>
    <path d="M 9.421875 75.984375 
L 18.40625 75.984375 
L 18.40625 0 
L 9.421875 0 
z
" id="DejaVuSans-108"/>
    <path d="M 54.890625 33.015625 
L 54.890625 0 
L 45.90625 0 
L 45.90625 32.71875 
Q 45.90625 40.484375 42.875 44.328125 
Q 39.84375 48.1875 33.796875 48.1875 
Q 26.515625 48.1875 22.3125 43.546875 
Q 18.109375 38.921875 18.109375 30.90625 
L 18.109375 0 
L 9.078125 0 
L 9.078125 54.6875 
L 18.109375 54.6875 
L 18.109375 46.1875 
Q 21.34375 51.125 25.703125 53.5625 
Q 30.078125 56 35.796875 56 
Q 45.21875 56 50.046875 50.171875 
Q 54.890625 44.34375 54.890625 33.015625 
z
" id="DejaVuSans-110"/>
    <path d="M 48.78125 52.59375 
L 48.78125 44.1875 
Q 44.96875 46.296875 41.140625 47.34375 
Q 37.3125 48.390625 33.40625 48.390625 
Q 24.65625 48.390625 19.8125 42.84375 
Q 14.984375 37.3125 14.984375 27.296875 
Q 14.984375 17.28125 19.8125 11.734375 
Q 24.65625 6.203125 33.40625 6.203125 
Q 37.3125 6.203125 41.140625 7.25 
Q 44.96875 8.296875 48.78125 10.40625 
L 48.78125 2.09375 
Q 45.015625 0.34375 40.984375 -0.53125 
Q 36.96875 -1.421875 32.421875 -1.421875 
Q 20.0625 -1.421875 12.78125 6.34375 
Q 5.515625 14.109375 5.515625 27.296875 
Q 5.515625 40.671875 12.859375 48.328125 
Q 20.21875 56 33.015625 56 
Q 37.15625 56 41.109375 55.140625 
Q 45.0625 54.296875 48.78125 52.59375 
z
" id="DejaVuSans-99"/>
    <path d="M 41.109375 46.296875 
Q 39.59375 47.171875 37.8125 47.578125 
Q 36.03125 48 33.890625 48 
Q 26.265625 48 22.1875 43.046875 
Q 18.109375 38.09375 18.109375 28.8125 
L 18.109375 0 
L 9.078125 0 
L 9.078125 54.6875 
L 18.109375 54.6875 
L 18.109375 46.1875 
Q 20.953125 51.171875 25.484375 53.578125 
Q 30.03125 56 36.53125 56 
Q 37.453125 56 38.578125 55.875 
Q 39.703125 55.765625 41.0625 55.515625 
z
" id="DejaVuSans-114"/>
    <path d="M 39.40625 66.21875 
Q 28.65625 66.21875 22.328125 58.203125 
Q 16.015625 50.203125 16.015625 36.375 
Q 16.015625 22.609375 22.328125 14.59375 
Q 28.65625 6.59375 39.40625 6.59375 
Q 50.140625 6.59375 56.421875 14.59375 
Q 62.703125 22.609375 62.703125 36.375 
Q 62.703125 50.203125 56.421875 58.203125 
Q 50.140625 66.21875 39.40625 66.21875 
z
M 39.40625 74.21875 
Q 54.734375 74.21875 63.90625 63.9375 
Q 73.09375 53.65625 73.09375 36.375 
Q 73.09375 19.140625 63.90625 8.859375 
Q 54.734375 -1.421875 39.40625 -1.421875 
Q 24.03125 -1.421875 14.8125 8.828125 
Q 5.609375 19.09375 5.609375 36.375 
Q 5.609375 53.65625 14.8125 63.9375 
Q 24.03125 74.21875 39.40625 74.21875 
z
" id="DejaVuSans-79"/>
    <path d="M 37.109375 75.984375 
L 37.109375 68.5 
L 28.515625 68.5 
Q 23.6875 68.5 21.796875 66.546875 
Q 19.921875 64.59375 19.921875 59.515625 
L 19.921875 54.6875 
L 34.71875 54.6875 
L 34.71875 47.703125 
L 19.921875 47.703125 
L 19.921875 0 
L 10.890625 0 
L 10.890625 47.703125 
L 2.296875 47.703125 
L 2.296875 54.6875 
L 10.890625 54.6875 
L 10.890625 58.5 
Q 10.890625 67.625 15.140625 71.796875 
Q 19.390625 75.984375 28.609375 75.984375 
z
" id="DejaVuSans-102"/>
    <path d="M 32.171875 -5.078125 
Q 28.375 -14.84375 24.75 -17.8125 
Q 21.140625 -20.796875 15.09375 -20.796875 
L 7.90625 -20.796875 
L 7.90625 -13.28125 
L 13.1875 -13.28125 
Q 16.890625 -13.28125 18.9375 -11.515625 
Q 21 -9.765625 23.484375 -3.21875 
L 25.09375 0.875 
L 2.984375 54.6875 
L 12.5 54.6875 
L 29.59375 11.921875 
L 46.6875 54.6875 
L 56.203125 54.6875 
z
" id="DejaVuSans-121"/>
    <path id="DejaVuSans-32"/>
    <path d="M 8.59375 75.984375 
L 29.296875 75.984375 
L 29.296875 69 
L 17.578125 69 
L 17.578125 -6.203125 
L 29.296875 -6.203125 
L 29.296875 -13.1875 
L 8.59375 -13.1875 
z
" id="DejaVuSans-91"/>
    <path d="M 11.71875 12.40625 
L 22.015625 12.40625 
L 22.015625 0 
L 11.71875 0 
z
M 11.71875 51.703125 
L 22.015625 51.703125 
L 22.015625 39.3125 
L 11.71875 39.3125 
z
" id="DejaVuSans-58"/>
    <path d="M 30.421875 75.984375 
L 30.421875 -13.1875 
L 9.71875 -13.1875 
L 9.71875 -6.203125 
L 21.390625 -6.203125 
L 21.390625 69 
L 9.71875 69 
L 9.71875 75.984375 
z
" id="DejaVuSans-93"/>
   </defs>
   <g transform="translate(130.024688 16.318125)scale(0.12 -0.12)">
    <use xlink:href="#DejaVuSans-108"/>
    <use x="27.783203" xlink:href="#DejaVuSans-97"/>
    <use x="89.0625" xlink:href="#DejaVuSans-110"/>
    <use x="152.441406" xlink:href="#DejaVuSans-99"/>
    <use x="207.421875" xlink:href="#DejaVuSans-97"/>
    <use x="268.701172" xlink:href="#DejaVuSans-115"/>
    <use x="320.800781" xlink:href="#DejaVuSans-116"/>
    <use x="360.009766" xlink:href="#DejaVuSans-101"/>
    <use x="421.533203" xlink:href="#DejaVuSans-114"/>
    <use x="462.646484" xlink:href="#DejaVuSans-115"/>
    <use x="514.746094" xlink:href="#DejaVuSans-101"/>
    <use x="576.269531" xlink:href="#DejaVuSans-110"/>
    <use x="639.648438" xlink:href="#DejaVuSans-115"/>
    <use x="691.748047" xlink:href="#DejaVuSans-111"/>
    <use x="752.929688" xlink:href="#DejaVuSans-114"/>
    <use x="794.042969" xlink:href="#DejaVuSans-105"/>
    <use x="821.826172" xlink:href="#DejaVuSans-109"/>
    <use x="919.238281" xlink:href="#DejaVuSans-111"/>
    <use x="980.419922" xlink:href="#DejaVuSans-116"/>
    <use x="1019.628906" xlink:href="#DejaVuSans-111"/>
    <use x="1080.810547" xlink:href="#DejaVuSans-114"/>
    <use x="1120.173828" xlink:href="#DejaVuSans-110"/>
    <use x="1183.552734" xlink:href="#DejaVuSans-111"/>
    <use x="1244.734375" xlink:href="#DejaVuSans-114"/>
    <use x="1284.097656" xlink:href="#DejaVuSans-109"/>
    <use x="1381.509766" xlink:href="#DejaVuSans-115"/>
    <use x="1433.609375" xlink:href="#DejaVuSans-95"/>
    <use x="1483.609375" xlink:href="#DejaVuSans-79"/>
    <use x="1562.320312" xlink:href="#DejaVuSans-108"/>
    <use x="1590.103516" xlink:href="#DejaVuSans-102"/>
    <use x="1625.308594" xlink:href="#DejaVuSans-97"/>
    <use x="1686.587891" xlink:href="#DejaVuSans-99"/>
    <use x="1741.568359" xlink:href="#DejaVuSans-116"/>
    <use x="1780.777344" xlink:href="#DejaVuSans-111"/>
    <use x="1841.958984" xlink:href="#DejaVuSans-114"/>
    <use x="1883.072266" xlink:href="#DejaVuSans-121"/>
    <use x="1928.001953" xlink:href="#DejaVuSans-46"/>
    <use x="1959.789062" xlink:href="#DejaVuSans-109"/>
    <use x="2057.201172" xlink:href="#DejaVuSans-101"/>
    <use x="2118.724609" xlink:href="#DejaVuSans-97"/>
    <use x="2180.003906" xlink:href="#DejaVuSans-110"/>
    <use x="2243.382812" xlink:href="#DejaVuSans-32"/>
    <use x="2275.169922" xlink:href="#DejaVuSans-91"/>
    <use x="2314.183594" xlink:href="#DejaVuSans-109"/>
    <use x="2411.595703" xlink:href="#DejaVuSans-111"/>
    <use x="2472.777344" xlink:href="#DejaVuSans-100"/>
    <use x="2536.253906" xlink:href="#DejaVuSans-101"/>
    <use x="2597.777344" xlink:href="#DejaVuSans-108"/>
    <use x="2625.560547" xlink:href="#DejaVuSans-58"/>
    <use x="2659.251953" xlink:href="#DejaVuSans-32"/>
    <use x="2691.039062" xlink:href="#DejaVuSans-108"/>
    <use x="2718.822266" xlink:href="#DejaVuSans-97"/>
    <use x="2780.101562" xlink:href="#DejaVuSans-110"/>
    <use x="2843.480469" xlink:href="#DejaVuSans-99"/>
    <use x="2898.460938" xlink:href="#DejaVuSans-97"/>
    <use x="2959.740234" xlink:href="#DejaVuSans-115"/>
    <use x="3011.839844" xlink:href="#DejaVuSans-116"/>
    <use x="3051.048828" xlink:href="#DejaVuSans-101"/>
    <use x="3112.572266" xlink:href="#DejaVuSans-114"/>
    <use x="3153.685547" xlink:href="#DejaVuSans-115"/>
    <use x="3205.785156" xlink:href="#DejaVuSans-101"/>
    <use x="3267.308594" xlink:href="#DejaVuSans-110"/>
    <use x="3330.6875" xlink:href="#DejaVuSans-115"/>
    <use x="3382.787109" xlink:href="#DejaVuSans-111"/>
    <use x="3443.96875" xlink:href="#DejaVuSans-114"/>
    <use x="3485.082031" xlink:href="#DejaVuSans-105"/>
    <use x="3512.865234" xlink:href="#DejaVuSans-109"/>
    <use x="3610.277344" xlink:href="#DejaVuSans-111"/>
    <use x="3671.458984" xlink:href="#DejaVuSans-116"/>
    <use x="3710.667969" xlink:href="#DejaVuSans-111"/>
    <use x="3771.849609" xlink:href="#DejaVuSans-114"/>
    <use x="3811.212891" xlink:href="#DejaVuSans-110"/>
    <use x="3874.591797" xlink:href="#DejaVuSans-111"/>
    <use x="3935.773438" xlink:href="#DejaVuSans-114"/>
    <use x="3975.136719" xlink:href="#DejaVuSans-109"/>
    <use x="4072.548828" xlink:href="#DejaVuSans-115"/>
    <use x="4124.648438" xlink:href="#DejaVuSans-95"/>
    <use x="4174.648438" xlink:href="#DejaVuSans-79"/>
    <use x="4253.359375" xlink:href="#DejaVuSans-108"/>
    <use x="4281.142578" xlink:href="#DejaVuSans-102"/>
    <use x="4316.347656" xlink:href="#DejaVuSans-97"/>
    <use x="4377.626953" xlink:href="#DejaVuSans-99"/>
    <use x="4432.607422" xlink:href="#DejaVuSans-116"/>
    <use x="4471.816406" xlink:href="#DejaVuSans-111"/>
    <use x="4532.998047" xlink:href="#DejaVuSans-114"/>
    <use x="4574.111328" xlink:href="#DejaVuSans-121"/>
    <use x="4619.041016" xlink:href="#DejaVuSans-46"/>
    <use x="4650.828125" xlink:href="#DejaVuSans-109"/>
    <use x="4748.240234" xlink:href="#DejaVuSans-101"/>
    <use x="4809.763672" xlink:href="#DejaVuSans-97"/>
    <use x="4871.042969" xlink:href="#DejaVuSans-110"/>
    <use x="4934.421875" xlink:href="#DejaVuSans-93"/>
   </g>
  </g>
 </g>
 <defs>
  <clipPath id="pe7fecce49f">
   <rect height="33.8" width="819.525" x="30.103125" y="34.592"/>
  </clipPath>
 </defs>
</svg>
