<?xml version="1.0" encoding="utf-8" standalone="no"?>
<!DOCTYPE svg PUBLIC "-//W3C//DTD SVG 1.1//EN"
  "http://www.w3.org/Graphics/SVG/1.1/DTD/svg11.dtd">
<!-- Created with matplotlib (https://matplotlib.org/) -->
<svg height="225.43625pt" version="1.1" viewBox="0 0 760.907282 225.43625" width="760.907282pt" xmlns="http://www.w3.org/2000/svg" xmlns:xlink="http://www.w3.org/1999/xlink">
 <defs>
  <style type="text/css">
*{stroke-linecap:butt;stroke-linejoin:round;}
  </style>
 </defs>
 <g id="figure_1">
  <g id="patch_1">
   <path d="M 0 225.43625 
L 760.907282 225.43625 
L 760.907282 0 
L 0 0 
z
" style="fill:none;"/>
  </g>
  <g id="axes_1">
   <g id="patch_2">
    <path d="M 20.5625 187.88 
L 632.289782 187.88 
L 632.289782 25.547505 
L 20.5625 25.547505 
z
" style="fill:#ffffff;"/>
   </g>
   <g id="matplotlib.axis_1">
    <g id="xtick_1">
     <g id="line2d_1">
      <defs>
       <path d="M 0 0 
L 0 3.5 
" id="m56a226bffd" style="stroke:#000000;stroke-width:0.8;"/>
      </defs>
      <g>
       <use style="stroke:#000000;stroke-width:0.8;" x="68.459941" xlink:href="#m56a226bffd" y="187.88"/>
      </g>
     </g>
     <g id="text_1">
      <!-- −0.4 -->
      <defs>
       <path d="M 10.59375 35.5 
L 73.1875 35.5 
L 73.1875 27.203125 
L 10.59375 27.203125 
z
" id="DejaVuSans-8722"/>
       <path d="M 31.78125 66.40625 
Q 24.171875 66.40625 20.328125 58.90625 
Q 16.5 51.421875 16.5 36.375 
Q 16.5 21.390625 20.328125 13.890625 
Q 24.171875 6.390625 31.78125 6.390625 
Q 39.453125 6.390625 43.28125 13.890625 
Q 47.125 21.390625 47.125 36.375 
Q 47.125 51.421875 43.28125 58.90625 
Q 39.453125 66.40625 31.78125 66.40625 
z
M 31.78125 74.21875 
Q 44.046875 74.21875 50.515625 64.515625 
Q 56.984375 54.828125 56.984375 36.375 
Q 56.984375 17.96875 50.515625 8.265625 
Q 44.046875 -1.421875 31.78125 -1.421875 
Q 19.53125 -1.421875 13.0625 8.265625 
Q 6.59375 17.96875 6.59375 36.375 
Q 6.59375 54.828125 13.0625 64.515625 
Q 19.53125 74.21875 31.78125 74.21875 
z
" id="DejaVuSans-48"/>
       <path d="M 10.6875 12.40625 
L 21 12.40625 
L 21 0 
L 10.6875 0 
z
" id="DejaVuSans-46"/>
       <path d="M 37.796875 64.3125 
L 12.890625 25.390625 
L 37.796875 25.390625 
z
M 35.203125 72.90625 
L 47.609375 72.90625 
L 47.609375 25.390625 
L 58.015625 25.390625 
L 58.015625 17.1875 
L 47.609375 17.1875 
L 47.609375 0 
L 37.796875 0 
L 37.796875 17.1875 
L 4.890625 17.1875 
L 4.890625 26.703125 
z
" id="DejaVuSans-52"/>
      </defs>
      <g transform="translate(56.318535 202.478438)scale(0.1 -0.1)">
       <use xlink:href="#DejaVuSans-8722"/>
       <use x="83.789062" xlink:href="#DejaVuSans-48"/>
       <use x="147.412109" xlink:href="#DejaVuSans-46"/>
       <use x="179.199219" xlink:href="#DejaVuSans-52"/>
      </g>
     </g>
    </g>
    <g id="xtick_2">
     <g id="line2d_2">
      <g>
       <use style="stroke:#000000;stroke-width:0.8;" x="181.916954" xlink:href="#m56a226bffd" y="187.88"/>
      </g>
     </g>
     <g id="text_2">
      <!-- −0.2 -->
      <defs>
       <path d="M 19.1875 8.296875 
L 53.609375 8.296875 
L 53.609375 0 
L 7.328125 0 
L 7.328125 8.296875 
Q 12.9375 14.109375 22.625 23.890625 
Q 32.328125 33.6875 34.8125 36.53125 
Q 39.546875 41.84375 41.421875 45.53125 
Q 43.3125 49.21875 43.3125 52.78125 
Q 43.3125 58.59375 39.234375 62.25 
Q 35.15625 65.921875 28.609375 65.921875 
Q 23.96875 65.921875 18.8125 64.3125 
Q 13.671875 62.703125 7.8125 59.421875 
L 7.8125 69.390625 
Q 13.765625 71.78125 18.9375 73 
Q 24.125 74.21875 28.421875 74.21875 
Q 39.75 74.21875 46.484375 68.546875 
Q 53.21875 62.890625 53.21875 53.421875 
Q 53.21875 48.921875 51.53125 44.890625 
Q 49.859375 40.875 45.40625 35.40625 
Q 44.1875 33.984375 37.640625 27.21875 
Q 31.109375 20.453125 19.1875 8.296875 
z
" id="DejaVuSans-50"/>
      </defs>
      <g transform="translate(169.775548 202.478438)scale(0.1 -0.1)">
       <use xlink:href="#DejaVuSans-8722"/>
       <use x="83.789062" xlink:href="#DejaVuSans-48"/>
       <use x="147.412109" xlink:href="#DejaVuSans-46"/>
       <use x="179.199219" xlink:href="#DejaVuSans-50"/>
      </g>
     </g>
    </g>
    <g id="xtick_3">
     <g id="line2d_3">
      <g>
       <use style="stroke:#000000;stroke-width:0.8;" x="295.373967" xlink:href="#m56a226bffd" y="187.88"/>
      </g>
     </g>
     <g id="text_3">
      <!-- 0.0 -->
      <g transform="translate(287.422404 202.478438)scale(0.1 -0.1)">
       <use xlink:href="#DejaVuSans-48"/>
       <use x="63.623047" xlink:href="#DejaVuSans-46"/>
       <use x="95.410156" xlink:href="#DejaVuSans-48"/>
      </g>
     </g>
    </g>
    <g id="xtick_4">
     <g id="line2d_4">
      <g>
       <use style="stroke:#000000;stroke-width:0.8;" x="408.83098" xlink:href="#m56a226bffd" y="187.88"/>
      </g>
     </g>
     <g id="text_4">
      <!-- 0.2 -->
      <g transform="translate(400.879418 202.478438)scale(0.1 -0.1)">
       <use xlink:href="#DejaVuSans-48"/>
       <use x="63.623047" xlink:href="#DejaVuSans-46"/>
       <use x="95.410156" xlink:href="#DejaVuSans-50"/>
      </g>
     </g>
    </g>
    <g id="xtick_5">
     <g id="line2d_5">
      <g>
       <use style="stroke:#000000;stroke-width:0.8;" x="522.287993" xlink:href="#m56a226bffd" y="187.88"/>
      </g>
     </g>
     <g id="text_5">
      <!-- 0.4 -->
      <g transform="translate(514.336431 202.478438)scale(0.1 -0.1)">
       <use xlink:href="#DejaVuSans-48"/>
       <use x="63.623047" xlink:href="#DejaVuSans-46"/>
       <use x="95.410156" xlink:href="#DejaVuSans-52"/>
      </g>
     </g>
    </g>
    <g id="text_6">
     <!-- values -->
     <defs>
      <path d="M 2.984375 54.6875 
L 12.5 54.6875 
L 29.59375 8.796875 
L 46.6875 54.6875 
L 56.203125 54.6875 
L 35.6875 0 
L 23.484375 0 
z
" id="DejaVuSans-118"/>
      <path d="M 34.28125 27.484375 
Q 23.390625 27.484375 19.1875 25 
Q 14.984375 22.515625 14.984375 16.5 
Q 14.984375 11.71875 18.140625 8.90625 
Q 21.296875 6.109375 26.703125 6.109375 
Q 34.1875 6.109375 38.703125 11.40625 
Q 43.21875 16.703125 43.21875 25.484375 
L 43.21875 27.484375 
z
M 52.203125 31.203125 
L 52.203125 0 
L 43.21875 0 
L 43.21875 8.296875 
Q 40.140625 3.328125 35.546875 0.953125 
Q 30.953125 -1.421875 24.3125 -1.421875 
Q 15.921875 -1.421875 10.953125 3.296875 
Q 6 8.015625 6 15.921875 
Q 6 25.140625 12.171875 29.828125 
Q 18.359375 34.515625 30.609375 34.515625 
L 43.21875 34.515625 
L 43.21875 35.40625 
Q 43.21875 41.609375 39.140625 45 
Q 35.0625 48.390625 27.6875 48.390625 
Q 23 48.390625 18.546875 47.265625 
Q 14.109375 46.140625 10.015625 43.890625 
L 10.015625 52.203125 
Q 14.9375 54.109375 19.578125 55.046875 
Q 24.21875 56 28.609375 56 
Q 40.484375 56 46.34375 49.84375 
Q 52.203125 43.703125 52.203125 31.203125 
z
" id="DejaVuSans-97"/>
      <path d="M 9.421875 75.984375 
L 18.40625 75.984375 
L 18.40625 0 
L 9.421875 0 
z
" id="DejaVuSans-108"/>
      <path d="M 8.5 21.578125 
L 8.5 54.6875 
L 17.484375 54.6875 
L 17.484375 21.921875 
Q 17.484375 14.15625 20.5 10.265625 
Q 23.53125 6.390625 29.59375 6.390625 
Q 36.859375 6.390625 41.078125 11.03125 
Q 45.3125 15.671875 45.3125 23.6875 
L 45.3125 54.6875 
L 54.296875 54.6875 
L 54.296875 0 
L 45.3125 0 
L 45.3125 8.40625 
Q 42.046875 3.421875 37.71875 1 
Q 33.40625 -1.421875 27.6875 -1.421875 
Q 18.265625 -1.421875 13.375 4.4375 
Q 8.5 10.296875 8.5 21.578125 
z
M 31.109375 56 
z
" id="DejaVuSans-117"/>
      <path d="M 56.203125 29.59375 
L 56.203125 25.203125 
L 14.890625 25.203125 
Q 15.484375 15.921875 20.484375 11.0625 
Q 25.484375 6.203125 34.421875 6.203125 
Q 39.59375 6.203125 44.453125 7.46875 
Q 49.3125 8.734375 54.109375 11.28125 
L 54.109375 2.78125 
Q 49.265625 0.734375 44.1875 -0.34375 
Q 39.109375 -1.421875 33.890625 -1.421875 
Q 20.796875 -1.421875 13.15625 6.1875 
Q 5.515625 13.8125 5.515625 26.8125 
Q 5.515625 40.234375 12.765625 48.109375 
Q 20.015625 56 32.328125 56 
Q 43.359375 56 49.78125 48.890625 
Q 56.203125 41.796875 56.203125 29.59375 
z
M 47.21875 32.234375 
Q 47.125 39.59375 43.09375 43.984375 
Q 39.0625 48.390625 32.421875 48.390625 
Q 24.90625 48.390625 20.390625 44.140625 
Q 15.875 39.890625 15.1875 32.171875 
z
" id="DejaVuSans-101"/>
      <path d="M 44.28125 53.078125 
L 44.28125 44.578125 
Q 40.484375 46.53125 36.375 47.5 
Q 32.28125 48.484375 27.875 48.484375 
Q 21.1875 48.484375 17.84375 46.4375 
Q 14.5 44.390625 14.5 40.28125 
Q 14.5 37.15625 16.890625 35.375 
Q 19.28125 33.59375 26.515625 31.984375 
L 29.59375 31.296875 
Q 39.15625 29.25 43.1875 25.515625 
Q 47.21875 21.78125 47.21875 15.09375 
Q 47.21875 7.46875 41.1875 3.015625 
Q 35.15625 -1.421875 24.609375 -1.421875 
Q 20.21875 -1.421875 15.453125 -0.5625 
Q 10.6875 0.296875 5.421875 2 
L 5.421875 11.28125 
Q 10.40625 8.6875 15.234375 7.390625 
Q 20.0625 6.109375 24.8125 6.109375 
Q 31.15625 6.109375 34.5625 8.28125 
Q 37.984375 10.453125 37.984375 14.40625 
Q 37.984375 18.0625 35.515625 20.015625 
Q 33.0625 21.96875 24.703125 23.78125 
L 21.578125 24.515625 
Q 13.234375 26.265625 9.515625 29.90625 
Q 5.8125 33.546875 5.8125 39.890625 
Q 5.8125 47.609375 11.28125 51.796875 
Q 16.75 56 26.8125 56 
Q 31.78125 56 36.171875 55.265625 
Q 40.578125 54.546875 44.28125 53.078125 
z
" id="DejaVuSans-115"/>
     </defs>
     <g transform="translate(310.163641 216.156563)scale(0.1 -0.1)">
      <use xlink:href="#DejaVuSans-118"/>
      <use x="59.179688" xlink:href="#DejaVuSans-97"/>
      <use x="120.458984" xlink:href="#DejaVuSans-108"/>
      <use x="148.242188" xlink:href="#DejaVuSans-117"/>
      <use x="211.621094" xlink:href="#DejaVuSans-101"/>
      <use x="273.144531" xlink:href="#DejaVuSans-115"/>
     </g>
    </g>
   </g>
   <g id="matplotlib.axis_2">
    <g id="ytick_1">
     <g id="line2d_6">
      <defs>
       <path d="M 0 0 
L -3.5 0 
" id="mcd09e979c7" style="stroke:#000000;stroke-width:0.8;"/>
      </defs>
      <g>
       <use style="stroke:#000000;stroke-width:0.8;" x="20.5625" xlink:href="#mcd09e979c7" y="187.88"/>
      </g>
     </g>
     <g id="text_7">
      <!-- 0 -->
      <g transform="translate(7.2 191.679219)scale(0.1 -0.1)">
       <use xlink:href="#DejaVuSans-48"/>
      </g>
     </g>
    </g>
    <g id="ytick_2">
     <g id="line2d_7">
      <g>
       <use style="stroke:#000000;stroke-width:0.8;" x="20.5625" xlink:href="#mcd09e979c7" y="155.962566"/>
      </g>
     </g>
     <g id="text_8">
      <!-- 1 -->
      <defs>
       <path d="M 12.40625 8.296875 
L 28.515625 8.296875 
L 28.515625 63.921875 
L 10.984375 60.40625 
L 10.984375 69.390625 
L 28.421875 72.90625 
L 38.28125 72.90625 
L 38.28125 8.296875 
L 54.390625 8.296875 
L 54.390625 0 
L 12.40625 0 
z
" id="DejaVuSans-49"/>
      </defs>
      <g transform="translate(7.2 159.761785)scale(0.1 -0.1)">
       <use xlink:href="#DejaVuSans-49"/>
      </g>
     </g>
    </g>
    <g id="ytick_3">
     <g id="line2d_8">
      <g>
       <use style="stroke:#000000;stroke-width:0.8;" x="20.5625" xlink:href="#mcd09e979c7" y="124.045132"/>
      </g>
     </g>
     <g id="text_9">
      <!-- 2 -->
      <g transform="translate(7.2 127.84435)scale(0.1 -0.1)">
       <use xlink:href="#DejaVuSans-50"/>
      </g>
     </g>
    </g>
    <g id="ytick_4">
     <g id="line2d_9">
      <g>
       <use style="stroke:#000000;stroke-width:0.8;" x="20.5625" xlink:href="#mcd09e979c7" y="92.127698"/>
      </g>
     </g>
     <g id="text_10">
      <!-- 3 -->
      <defs>
       <path d="M 40.578125 39.3125 
Q 47.65625 37.796875 51.625 33 
Q 55.609375 28.21875 55.609375 21.1875 
Q 55.609375 10.40625 48.1875 4.484375 
Q 40.765625 -1.421875 27.09375 -1.421875 
Q 22.515625 -1.421875 17.65625 -0.515625 
Q 12.796875 0.390625 7.625 2.203125 
L 7.625 11.71875 
Q 11.71875 9.328125 16.59375 8.109375 
Q 21.484375 6.890625 26.8125 6.890625 
Q 36.078125 6.890625 40.9375 10.546875 
Q 45.796875 14.203125 45.796875 21.1875 
Q 45.796875 27.640625 41.28125 31.265625 
Q 36.765625 34.90625 28.71875 34.90625 
L 20.21875 34.90625 
L 20.21875 43.015625 
L 29.109375 43.015625 
Q 36.375 43.015625 40.234375 45.921875 
Q 44.09375 48.828125 44.09375 54.296875 
Q 44.09375 59.90625 40.109375 62.90625 
Q 36.140625 65.921875 28.71875 65.921875 
Q 24.65625 65.921875 20.015625 65.03125 
Q 15.375 64.15625 9.8125 62.3125 
L 9.8125 71.09375 
Q 15.4375 72.65625 20.34375 73.4375 
Q 25.25 74.21875 29.59375 74.21875 
Q 40.828125 74.21875 47.359375 69.109375 
Q 53.90625 64.015625 53.90625 55.328125 
Q 53.90625 49.265625 50.4375 45.09375 
Q 46.96875 40.921875 40.578125 39.3125 
z
" id="DejaVuSans-51"/>
      </defs>
      <g transform="translate(7.2 95.926916)scale(0.1 -0.1)">
       <use xlink:href="#DejaVuSans-51"/>
      </g>
     </g>
    </g>
    <g id="ytick_5">
     <g id="line2d_10">
      <g>
       <use style="stroke:#000000;stroke-width:0.8;" x="20.5625" xlink:href="#mcd09e979c7" y="60.210263"/>
      </g>
     </g>
     <g id="text_11">
      <!-- 4 -->
      <g transform="translate(7.2 64.009482)scale(0.1 -0.1)">
       <use xlink:href="#DejaVuSans-52"/>
      </g>
     </g>
    </g>
    <g id="ytick_6">
     <g id="line2d_11">
      <g>
       <use style="stroke:#000000;stroke-width:0.8;" x="20.5625" xlink:href="#mcd09e979c7" y="28.292829"/>
      </g>
     </g>
     <g id="text_12">
      <!-- 5 -->
      <defs>
       <path d="M 10.796875 72.90625 
L 49.515625 72.90625 
L 49.515625 64.59375 
L 19.828125 64.59375 
L 19.828125 46.734375 
Q 21.96875 47.46875 24.109375 47.828125 
Q 26.265625 48.1875 28.421875 48.1875 
Q 40.625 48.1875 47.75 41.5 
Q 54.890625 34.8125 54.890625 23.390625 
Q 54.890625 11.625 47.5625 5.09375 
Q 40.234375 -1.421875 26.90625 -1.421875 
Q 22.3125 -1.421875 17.546875 -0.640625 
Q 12.796875 0.140625 7.71875 1.703125 
L 7.71875 11.625 
Q 12.109375 9.234375 16.796875 8.0625 
Q 21.484375 6.890625 26.703125 6.890625 
Q 35.15625 6.890625 40.078125 11.328125 
Q 45.015625 15.765625 45.015625 23.390625 
Q 45.015625 31 40.078125 35.4375 
Q 35.15625 39.890625 26.703125 39.890625 
Q 22.75 39.890625 18.8125 39.015625 
Q 14.890625 38.140625 10.796875 36.28125 
z
" id="DejaVuSans-53"/>
      </defs>
      <g transform="translate(7.2 32.092048)scale(0.1 -0.1)">
       <use xlink:href="#DejaVuSans-53"/>
      </g>
     </g>
    </g>
   </g>
   <g id="LineCollection_1">
    <path clip-path="url(#pb7633d1cf7)" d="M 295.373967 187.88 
L 295.373967 179.763375 
" style="fill:none;stroke:#1f77b4;"/>
    <path clip-path="url(#pb7633d1cf7)" d="M 295.373968 187.88 
L 295.373968 179.763375 
" style="fill:none;stroke:#1f77b4;"/>
    <path clip-path="url(#pb7633d1cf7)" d="M 295.373966 187.88 
L 295.373966 179.763375 
" style="fill:none;stroke:#1f77b4;"/>
    <path clip-path="url(#pb7633d1cf7)" d="M 295.373968 187.88 
L 295.373968 179.763375 
" style="fill:none;stroke:#1f77b4;"/>
    <path clip-path="url(#pb7633d1cf7)" d="M 295.37397 187.88 
L 295.37397 179.763375 
" style="fill:none;stroke:#1f77b4;"/>
    <path clip-path="url(#pb7633d1cf7)" d="M 295.373945 187.88 
L 295.373945 179.763375 
" style="fill:none;stroke:#1f77b4;"/>
    <path clip-path="url(#pb7633d1cf7)" d="M 295.374059 187.88 
L 295.374059 179.763375 
" style="fill:none;stroke:#1f77b4;"/>
    <path clip-path="url(#pb7633d1cf7)" d="M 295.373642 187.88 
L 295.373642 179.763375 
" style="fill:none;stroke:#1f77b4;"/>
    <path clip-path="url(#pb7633d1cf7)" d="M 295.375018 187.88 
L 295.375018 179.763375 
" style="fill:none;stroke:#1f77b4;"/>
    <path clip-path="url(#pb7633d1cf7)" d="M 295.370737 187.88 
L 295.370737 179.763375 
" style="fill:none;stroke:#1f77b4;"/>
    <path clip-path="url(#pb7633d1cf7)" d="M 295.383451 187.88 
L 295.383451 179.763375 
" style="fill:none;stroke:#1f77b4;"/>
    <path clip-path="url(#pb7633d1cf7)" d="M 295.349004 187.88 
L 295.349004 179.763375 
" style="fill:none;stroke:#1f77b4;"/>
    <path clip-path="url(#pb7633d1cf7)" d="M 295.421184 187.88 
L 295.421184 179.763375 
" style="fill:none;stroke:#1f77b4;"/>
    <path clip-path="url(#pb7633d1cf7)" d="M 294.854392 187.88 
L 294.854392 179.763375 
" style="fill:none;stroke:#1f77b4;"/>
    <path clip-path="url(#pb7633d1cf7)" d="M 299.347462 187.88 
L 299.347462 179.763375 
" style="fill:none;stroke:#1f77b4;"/>
    <path clip-path="url(#pb7633d1cf7)" d="M 322.991047 187.88 
L 322.991047 179.763375 
" style="fill:none;stroke:#1f77b4;"/>
    <path clip-path="url(#pb7633d1cf7)" d="M 360.046059 187.88 
L 360.046059 179.763375 
" style="fill:none;stroke:#1f77b4;"/>
    <path clip-path="url(#pb7633d1cf7)" d="M 372.865512 187.88 
L 372.865512 179.763375 
" style="fill:none;stroke:#1f77b4;"/>
    <path clip-path="url(#pb7633d1cf7)" d="M 340.140306 187.88 
L 340.140306 179.763375 
" style="fill:none;stroke:#1f77b4;"/>
    <path clip-path="url(#pb7633d1cf7)" d="M 293.160365 187.88 
L 293.160365 179.763375 
" style="fill:none;stroke:#1f77b4;"/>
    <path clip-path="url(#pb7633d1cf7)" d="M 268.390791 187.88 
L 268.390791 179.763375 
" style="fill:none;stroke:#1f77b4;"/>
    <path clip-path="url(#pb7633d1cf7)" d="M 260.91613 187.88 
L 260.91613 179.763375 
" style="fill:none;stroke:#1f77b4;"/>
    <path clip-path="url(#pb7633d1cf7)" d="M 246.512258 187.88 
L 246.512258 179.763375 
" style="fill:none;stroke:#1f77b4;"/>
    <path clip-path="url(#pb7633d1cf7)" d="M 226.92806 187.88 
L 226.92806 179.763375 
" style="fill:none;stroke:#1f77b4;"/>
    <path clip-path="url(#pb7633d1cf7)" d="M 227.116301 187.88 
L 227.116301 179.763375 
" style="fill:none;stroke:#1f77b4;"/>
    <path clip-path="url(#pb7633d1cf7)" d="M 266.001519 187.88 
L 266.001519 179.763375 
" style="fill:none;stroke:#1f77b4;"/>
    <path clip-path="url(#pb7633d1cf7)" d="M 336.510463 187.88 
L 336.510463 179.763375 
" style="fill:none;stroke:#1f77b4;"/>
    <path clip-path="url(#pb7633d1cf7)" d="M 411.717336 187.88 
L 411.717336 179.763375 
" style="fill:none;stroke:#1f77b4;"/>
    <path clip-path="url(#pb7633d1cf7)" d="M 465.632367 187.88 
L 465.632367 179.763375 
" style="fill:none;stroke:#1f77b4;"/>
    <path clip-path="url(#pb7633d1cf7)" d="M 483.332592 187.88 
L 483.332592 179.763375 
" style="fill:none;stroke:#1f77b4;"/>
    <path clip-path="url(#pb7633d1cf7)" d="M 468.392764 187.88 
L 468.392764 179.763375 
" style="fill:none;stroke:#1f77b4;"/>
    <path clip-path="url(#pb7633d1cf7)" d="M 435.002286 187.88 
L 435.002286 179.763375 
" style="fill:none;stroke:#1f77b4;"/>
    <path clip-path="url(#pb7633d1cf7)" d="M 396.864176 187.88 
L 396.864176 179.763375 
" style="fill:none;stroke:#1f77b4;"/>
    <path clip-path="url(#pb7633d1cf7)" d="M 362.29756 187.88 
L 362.29756 179.763375 
" style="fill:none;stroke:#1f77b4;"/>
    <path clip-path="url(#pb7633d1cf7)" d="M 334.50159 187.88 
L 334.50159 179.763375 
" style="fill:none;stroke:#1f77b4;"/>
    <path clip-path="url(#pb7633d1cf7)" d="M 313.681291 187.88 
L 313.681291 179.763375 
" style="fill:none;stroke:#1f77b4;"/>
    <path clip-path="url(#pb7633d1cf7)" d="M 298.877976 187.88 
L 298.877976 179.763375 
" style="fill:none;stroke:#1f77b4;"/>
    <path clip-path="url(#pb7633d1cf7)" d="M 288.951001 187.88 
L 288.951001 179.763375 
" style="fill:none;stroke:#1f77b4;"/>
    <path clip-path="url(#pb7633d1cf7)" d="M 282.898934 187.88 
L 282.898934 179.763375 
" style="fill:none;stroke:#1f77b4;"/>
    <path clip-path="url(#pb7633d1cf7)" d="M 279.869573 187.88 
L 279.869573 179.763375 
" style="fill:none;stroke:#1f77b4;"/>
    <path clip-path="url(#pb7633d1cf7)" d="M 279.104977 187.88 
L 279.104977 179.763375 
" style="fill:none;stroke:#1f77b4;"/>
    <path clip-path="url(#pb7633d1cf7)" d="M 279.909176 187.88 
L 279.909176 179.763375 
" style="fill:none;stroke:#1f77b4;"/>
    <path clip-path="url(#pb7633d1cf7)" d="M 281.674569 187.88 
L 281.674569 179.763375 
" style="fill:none;stroke:#1f77b4;"/>
    <path clip-path="url(#pb7633d1cf7)" d="M 283.886557 187.88 
L 283.886557 179.763375 
" style="fill:none;stroke:#1f77b4;"/>
    <path clip-path="url(#pb7633d1cf7)" d="M 286.181833 187.88 
L 286.181833 179.763375 
" style="fill:none;stroke:#1f77b4;"/>
    <path clip-path="url(#pb7633d1cf7)" d="M 288.330922 187.88 
L 288.330922 179.763375 
" style="fill:none;stroke:#1f77b4;"/>
    <path clip-path="url(#pb7633d1cf7)" d="M 290.764265 187.88 
L 290.764265 179.763375 
" style="fill:none;stroke:#1f77b4;"/>
    <path clip-path="url(#pb7633d1cf7)" d="M 299.182788 187.88 
L 299.182788 179.763375 
" style="fill:none;stroke:#1f77b4;"/>
    <path clip-path="url(#pb7633d1cf7)" d="M 307.76962 187.88 
L 307.76962 179.763375 
" style="fill:none;stroke:#1f77b4;"/>
    <path clip-path="url(#pb7633d1cf7)" d="M 303.618962 187.88 
L 303.618962 179.763375 
" style="fill:none;stroke:#1f77b4;"/>
    <path clip-path="url(#pb7633d1cf7)" d="M 297.208511 187.88 
L 297.208511 179.763375 
" style="fill:none;stroke:#1f77b4;"/>
    <path clip-path="url(#pb7633d1cf7)" d="M 299.10455 187.88 
L 299.10455 179.763375 
" style="fill:none;stroke:#1f77b4;"/>
    <path clip-path="url(#pb7633d1cf7)" d="M 301.720252 187.88 
L 301.720252 179.763375 
" style="fill:none;stroke:#1f77b4;"/>
    <path clip-path="url(#pb7633d1cf7)" d="M 313.957661 187.88 
L 313.957661 179.763375 
" style="fill:none;stroke:#1f77b4;"/>
    <path clip-path="url(#pb7633d1cf7)" d="M 343.981188 187.88 
L 343.981188 179.763375 
" style="fill:none;stroke:#1f77b4;"/>
    <path clip-path="url(#pb7633d1cf7)" d="M 371.506757 187.88 
L 371.506757 179.763375 
" style="fill:none;stroke:#1f77b4;"/>
    <path clip-path="url(#pb7633d1cf7)" d="M 374.898838 187.88 
L 374.898838 179.763375 
" style="fill:none;stroke:#1f77b4;"/>
    <path clip-path="url(#pb7633d1cf7)" d="M 351.501882 187.88 
L 351.501882 179.763375 
" style="fill:none;stroke:#1f77b4;"/>
    <path clip-path="url(#pb7633d1cf7)" d="M 314.207341 187.88 
L 314.207341 179.763375 
" style="fill:none;stroke:#1f77b4;"/>
    <path clip-path="url(#pb7633d1cf7)" d="M 266.030486 187.88 
L 266.030486 179.763375 
" style="fill:none;stroke:#1f77b4;"/>
    <path clip-path="url(#pb7633d1cf7)" d="M 204.545276 187.88 
L 204.545276 179.763375 
" style="fill:none;stroke:#1f77b4;"/>
    <path clip-path="url(#pb7633d1cf7)" d="M 158.671483 187.88 
L 158.671483 179.763375 
" style="fill:none;stroke:#1f77b4;"/>
    <path clip-path="url(#pb7633d1cf7)" d="M 151.820975 187.88 
L 151.820975 179.763375 
" style="fill:none;stroke:#1f77b4;"/>
    <path clip-path="url(#pb7633d1cf7)" d="M 172.424019 187.88 
L 172.424019 179.763375 
" style="fill:none;stroke:#1f77b4;"/>
    <path clip-path="url(#pb7633d1cf7)" d="M 216.713709 187.88 
L 216.713709 179.763375 
" style="fill:none;stroke:#1f77b4;"/>
    <path clip-path="url(#pb7633d1cf7)" d="M 274.844306 187.88 
L 274.844306 179.763375 
" style="fill:none;stroke:#1f77b4;"/>
    <path clip-path="url(#pb7633d1cf7)" d="M 310.526582 187.88 
L 310.526582 179.763375 
" style="fill:none;stroke:#1f77b4;"/>
    <path clip-path="url(#pb7633d1cf7)" d="M 305.064071 187.88 
L 305.064071 179.763375 
" style="fill:none;stroke:#1f77b4;"/>
    <path clip-path="url(#pb7633d1cf7)" d="M 291.963802 187.88 
L 291.963802 179.763375 
" style="fill:none;stroke:#1f77b4;"/>
    <path clip-path="url(#pb7633d1cf7)" d="M 303.504859 187.88 
L 303.504859 179.763375 
" style="fill:none;stroke:#1f77b4;"/>
    <path clip-path="url(#pb7633d1cf7)" d="M 328.936715 187.88 
L 328.936715 179.763375 
" style="fill:none;stroke:#1f77b4;"/>
    <path clip-path="url(#pb7633d1cf7)" d="M 354.725415 187.88 
L 354.725415 179.763375 
" style="fill:none;stroke:#1f77b4;"/>
    <path clip-path="url(#pb7633d1cf7)" d="M 385.427011 187.88 
L 385.427011 179.763375 
" style="fill:none;stroke:#1f77b4;"/>
    <path clip-path="url(#pb7633d1cf7)" d="M 414.538861 187.88 
L 414.538861 179.763375 
" style="fill:none;stroke:#1f77b4;"/>
    <path clip-path="url(#pb7633d1cf7)" d="M 428.900502 187.88 
L 428.900502 179.763375 
" style="fill:none;stroke:#1f77b4;"/>
    <path clip-path="url(#pb7633d1cf7)" d="M 429.446963 187.88 
L 429.446963 179.763375 
" style="fill:none;stroke:#1f77b4;"/>
    <path clip-path="url(#pb7633d1cf7)" d="M 417.28049 187.88 
L 417.28049 179.763375 
" style="fill:none;stroke:#1f77b4;"/>
    <path clip-path="url(#pb7633d1cf7)" d="M 392.35843 187.88 
L 392.35843 179.763375 
" style="fill:none;stroke:#1f77b4;"/>
    <path clip-path="url(#pb7633d1cf7)" d="M 365.351529 187.88 
L 365.351529 179.763375 
" style="fill:none;stroke:#1f77b4;"/>
    <path clip-path="url(#pb7633d1cf7)" d="M 336.837735 187.88 
L 336.837735 179.763375 
" style="fill:none;stroke:#1f77b4;"/>
    <path clip-path="url(#pb7633d1cf7)" d="M 296.752515 187.88 
L 296.752515 179.763375 
" style="fill:none;stroke:#1f77b4;"/>
    <path clip-path="url(#pb7633d1cf7)" d="M 253.626166 187.88 
L 253.626166 179.763375 
" style="fill:none;stroke:#1f77b4;"/>
    <path clip-path="url(#pb7633d1cf7)" d="M 227.938461 187.88 
L 227.938461 179.763375 
" style="fill:none;stroke:#1f77b4;"/>
    <path clip-path="url(#pb7633d1cf7)" d="M 236.540827 187.88 
L 236.540827 179.763375 
" style="fill:none;stroke:#1f77b4;"/>
    <path clip-path="url(#pb7633d1cf7)" d="M 274.211654 187.88 
L 274.211654 179.763375 
" style="fill:none;stroke:#1f77b4;"/>
    <path clip-path="url(#pb7633d1cf7)" d="M 318.39966 187.88 
L 318.39966 179.763375 
" style="fill:none;stroke:#1f77b4;"/>
    <path clip-path="url(#pb7633d1cf7)" d="M 359.068755 187.88 
L 359.068755 179.763375 
" style="fill:none;stroke:#1f77b4;"/>
    <path clip-path="url(#pb7633d1cf7)" d="M 388.329393 187.88 
L 388.329393 179.763375 
" style="fill:none;stroke:#1f77b4;"/>
    <path clip-path="url(#pb7633d1cf7)" d="M 392.273248 187.88 
L 392.273248 179.763375 
" style="fill:none;stroke:#1f77b4;"/>
    <path clip-path="url(#pb7633d1cf7)" d="M 371.572565 187.88 
L 371.572565 179.763375 
" style="fill:none;stroke:#1f77b4;"/>
    <path clip-path="url(#pb7633d1cf7)" d="M 350.573706 187.88 
L 350.573706 179.763375 
" style="fill:none;stroke:#1f77b4;"/>
    <path clip-path="url(#pb7633d1cf7)" d="M 344.049067 187.88 
L 344.049067 179.763375 
" style="fill:none;stroke:#1f77b4;"/>
    <path clip-path="url(#pb7633d1cf7)" d="M 351.06802 187.88 
L 351.06802 179.763375 
" style="fill:none;stroke:#1f77b4;"/>
    <path clip-path="url(#pb7633d1cf7)" d="M 366.629453 187.88 
L 366.629453 179.763375 
" style="fill:none;stroke:#1f77b4;"/>
    <path clip-path="url(#pb7633d1cf7)" d="M 374.451668 187.88 
L 374.451668 179.763375 
" style="fill:none;stroke:#1f77b4;"/>
    <path clip-path="url(#pb7633d1cf7)" d="M 352.740265 187.88 
L 352.740265 179.763375 
" style="fill:none;stroke:#1f77b4;"/>
    <path clip-path="url(#pb7633d1cf7)" d="M 309.355682 187.88 
L 309.355682 179.763375 
" style="fill:none;stroke:#1f77b4;"/>
    <path clip-path="url(#pb7633d1cf7)" d="M 270.255872 187.88 
L 270.255872 179.763375 
" style="fill:none;stroke:#1f77b4;"/>
    <path clip-path="url(#pb7633d1cf7)" d="M 246.63686 187.88 
L 246.63686 179.763375 
" style="fill:none;stroke:#1f77b4;"/>
    <path clip-path="url(#pb7633d1cf7)" d="M 244.285174 187.88 
L 244.285174 179.763375 
" style="fill:none;stroke:#1f77b4;"/>
    <path clip-path="url(#pb7633d1cf7)" d="M 263.741851 187.88 
L 263.741851 179.763375 
" style="fill:none;stroke:#1f77b4;"/>
    <path clip-path="url(#pb7633d1cf7)" d="M 290.092942 187.88 
L 290.092942 179.763375 
" style="fill:none;stroke:#1f77b4;"/>
    <path clip-path="url(#pb7633d1cf7)" d="M 310.147515 187.88 
L 310.147515 179.763375 
" style="fill:none;stroke:#1f77b4;"/>
    <path clip-path="url(#pb7633d1cf7)" d="M 319.048727 187.88 
L 319.048727 179.763375 
" style="fill:none;stroke:#1f77b4;"/>
    <path clip-path="url(#pb7633d1cf7)" d="M 316.134675 187.88 
L 316.134675 179.763375 
" style="fill:none;stroke:#1f77b4;"/>
    <path clip-path="url(#pb7633d1cf7)" d="M 306.871851 187.88 
L 306.871851 179.763375 
" style="fill:none;stroke:#1f77b4;"/>
    <path clip-path="url(#pb7633d1cf7)" d="M 298.707327 187.88 
L 298.707327 179.763375 
" style="fill:none;stroke:#1f77b4;"/>
    <path clip-path="url(#pb7633d1cf7)" d="M 294.257853 187.88 
L 294.257853 179.763375 
" style="fill:none;stroke:#1f77b4;"/>
    <path clip-path="url(#pb7633d1cf7)" d="M 292.71897 187.88 
L 292.71897 179.763375 
" style="fill:none;stroke:#1f77b4;"/>
    <path clip-path="url(#pb7633d1cf7)" d="M 292.534767 187.88 
L 292.534767 179.763375 
" style="fill:none;stroke:#1f77b4;"/>
    <path clip-path="url(#pb7633d1cf7)" d="M 292.709955 187.88 
L 292.709955 179.763375 
" style="fill:none;stroke:#1f77b4;"/>
    <path clip-path="url(#pb7633d1cf7)" d="M 292.894947 187.88 
L 292.894947 179.763375 
" style="fill:none;stroke:#1f77b4;"/>
    <path clip-path="url(#pb7633d1cf7)" d="M 293.041941 187.88 
L 293.041941 179.763375 
" style="fill:none;stroke:#1f77b4;"/>
    <path clip-path="url(#pb7633d1cf7)" d="M 293.231745 187.88 
L 293.231745 179.763375 
" style="fill:none;stroke:#1f77b4;"/>
    <path clip-path="url(#pb7633d1cf7)" d="M 293.491768 187.88 
L 293.491768 179.763375 
" style="fill:none;stroke:#1f77b4;"/>
    <path clip-path="url(#pb7633d1cf7)" d="M 293.812608 187.88 
L 293.812608 179.763375 
" style="fill:none;stroke:#1f77b4;"/>
    <path clip-path="url(#pb7633d1cf7)" d="M 294.182539 187.88 
L 294.182539 179.763375 
" style="fill:none;stroke:#1f77b4;"/>
    <path clip-path="url(#pb7633d1cf7)" d="M 294.523089 187.88 
L 294.523089 179.763375 
" style="fill:none;stroke:#1f77b4;"/>
    <path clip-path="url(#pb7633d1cf7)" d="M 294.806579 187.88 
L 294.806579 179.763375 
" style="fill:none;stroke:#1f77b4;"/>
    <path clip-path="url(#pb7633d1cf7)" d="M 295.024608 187.88 
L 295.024608 179.763375 
" style="fill:none;stroke:#1f77b4;"/>
    <path clip-path="url(#pb7633d1cf7)" d="M 295.201118 187.88 
L 295.201118 179.763375 
" style="fill:none;stroke:#1f77b4;"/>
    <path clip-path="url(#pb7633d1cf7)" d="M 295.301978 187.88 
L 295.301978 179.763375 
" style="fill:none;stroke:#1f77b4;"/>
    <path clip-path="url(#pb7633d1cf7)" d="M 295.976627 187.88 
L 295.976627 179.763375 
" style="fill:none;stroke:#1f77b4;"/>
    <path clip-path="url(#pb7633d1cf7)" d="M 303.361215 187.88 
L 303.361215 179.763375 
" style="fill:none;stroke:#1f77b4;"/>
    <path clip-path="url(#pb7633d1cf7)" d="M 319.140155 187.88 
L 319.140155 179.763375 
" style="fill:none;stroke:#1f77b4;"/>
    <path clip-path="url(#pb7633d1cf7)" d="M 331.432054 187.88 
L 331.432054 179.763375 
" style="fill:none;stroke:#1f77b4;"/>
    <path clip-path="url(#pb7633d1cf7)" d="M 331.208843 187.88 
L 331.208843 179.763375 
" style="fill:none;stroke:#1f77b4;"/>
    <path clip-path="url(#pb7633d1cf7)" d="M 333.893437 187.88 
L 333.893437 179.763375 
" style="fill:none;stroke:#1f77b4;"/>
    <path clip-path="url(#pb7633d1cf7)" d="M 352.088219 187.88 
L 352.088219 179.763375 
" style="fill:none;stroke:#1f77b4;"/>
    <path clip-path="url(#pb7633d1cf7)" d="M 370.159372 187.88 
L 370.159372 179.763375 
" style="fill:none;stroke:#1f77b4;"/>
    <path clip-path="url(#pb7633d1cf7)" d="M 378.266527 187.88 
L 378.266527 179.763375 
" style="fill:none;stroke:#1f77b4;"/>
    <path clip-path="url(#pb7633d1cf7)" d="M 375.151491 187.88 
L 375.151491 179.763375 
" style="fill:none;stroke:#1f77b4;"/>
    <path clip-path="url(#pb7633d1cf7)" d="M 362.000143 187.88 
L 362.000143 179.763375 
" style="fill:none;stroke:#1f77b4;"/>
    <path clip-path="url(#pb7633d1cf7)" d="M 356.065438 187.88 
L 356.065438 179.763375 
" style="fill:none;stroke:#1f77b4;"/>
    <path clip-path="url(#pb7633d1cf7)" d="M 356.395323 187.88 
L 356.395323 179.763375 
" style="fill:none;stroke:#1f77b4;"/>
    <path clip-path="url(#pb7633d1cf7)" d="M 355.536885 187.88 
L 355.536885 179.763375 
" style="fill:none;stroke:#1f77b4;"/>
    <path clip-path="url(#pb7633d1cf7)" d="M 364.076491 187.88 
L 364.076491 179.763375 
" style="fill:none;stroke:#1f77b4;"/>
    <path clip-path="url(#pb7633d1cf7)" d="M 383.974536 187.88 
L 383.974536 179.763375 
" style="fill:none;stroke:#1f77b4;"/>
    <path clip-path="url(#pb7633d1cf7)" d="M 406.06764 187.88 
L 406.06764 179.763375 
" style="fill:none;stroke:#1f77b4;"/>
    <path clip-path="url(#pb7633d1cf7)" d="M 419.124965 187.88 
L 419.124965 179.763375 
" style="fill:none;stroke:#1f77b4;"/>
    <path clip-path="url(#pb7633d1cf7)" d="M 414.677519 187.88 
L 414.677519 179.763375 
" style="fill:none;stroke:#1f77b4;"/>
    <path clip-path="url(#pb7633d1cf7)" d="M 395.088785 187.88 
L 395.088785 179.763375 
" style="fill:none;stroke:#1f77b4;"/>
    <path clip-path="url(#pb7633d1cf7)" d="M 367.049527 187.88 
L 367.049527 179.763375 
" style="fill:none;stroke:#1f77b4;"/>
    <path clip-path="url(#pb7633d1cf7)" d="M 332.804648 187.88 
L 332.804648 179.763375 
" style="fill:none;stroke:#1f77b4;"/>
    <path clip-path="url(#pb7633d1cf7)" d="M 296.642718 187.88 
L 296.642718 179.763375 
" style="fill:none;stroke:#1f77b4;"/>
    <path clip-path="url(#pb7633d1cf7)" d="M 266.830412 187.88 
L 266.830412 179.763375 
" style="fill:none;stroke:#1f77b4;"/>
    <path clip-path="url(#pb7633d1cf7)" d="M 248.208347 187.88 
L 248.208347 179.763375 
" style="fill:none;stroke:#1f77b4;"/>
    <path clip-path="url(#pb7633d1cf7)" d="M 259.453339 187.88 
L 259.453339 179.763375 
" style="fill:none;stroke:#1f77b4;"/>
    <path clip-path="url(#pb7633d1cf7)" d="M 310.750247 187.88 
L 310.750247 179.763375 
" style="fill:none;stroke:#1f77b4;"/>
    <path clip-path="url(#pb7633d1cf7)" d="M 382.587367 187.88 
L 382.587367 179.763375 
" style="fill:none;stroke:#1f77b4;"/>
    <path clip-path="url(#pb7633d1cf7)" d="M 448.733221 187.88 
L 448.733221 179.763375 
" style="fill:none;stroke:#1f77b4;"/>
    <path clip-path="url(#pb7633d1cf7)" d="M 494.161193 187.88 
L 494.161193 179.763375 
" style="fill:none;stroke:#1f77b4;"/>
    <path clip-path="url(#pb7633d1cf7)" d="M 517.65777 187.88 
L 517.65777 179.763375 
" style="fill:none;stroke:#1f77b4;"/>
    <path clip-path="url(#pb7633d1cf7)" d="M 515.859428 187.88 
L 515.859428 179.763375 
" style="fill:none;stroke:#1f77b4;"/>
    <path clip-path="url(#pb7633d1cf7)" d="M 482.310223 187.88 
L 482.310223 179.763375 
" style="fill:none;stroke:#1f77b4;"/>
    <path clip-path="url(#pb7633d1cf7)" d="M 417.942748 187.88 
L 417.942748 179.763375 
" style="fill:none;stroke:#1f77b4;"/>
    <path clip-path="url(#pb7633d1cf7)" d="M 322.224799 187.88 
L 322.224799 179.763375 
" style="fill:none;stroke:#1f77b4;"/>
    <path clip-path="url(#pb7633d1cf7)" d="M 220.478055 187.88 
L 220.478055 179.763375 
" style="fill:none;stroke:#1f77b4;"/>
    <path clip-path="url(#pb7633d1cf7)" d="M 149.034415 187.88 
L 149.034415 179.763375 
" style="fill:none;stroke:#1f77b4;"/>
    <path clip-path="url(#pb7633d1cf7)" d="M 114.806299 187.88 
L 114.806299 179.763375 
" style="fill:none;stroke:#1f77b4;"/>
    <path clip-path="url(#pb7633d1cf7)" d="M 102.285053 187.88 
L 102.285053 179.763375 
" style="fill:none;stroke:#1f77b4;"/>
    <path clip-path="url(#pb7633d1cf7)" d="M 98.907929 187.88 
L 98.907929 179.763375 
" style="fill:none;stroke:#1f77b4;"/>
    <path clip-path="url(#pb7633d1cf7)" d="M 101.081018 187.88 
L 101.081018 179.763375 
" style="fill:none;stroke:#1f77b4;"/>
    <path clip-path="url(#pb7633d1cf7)" d="M 124.298241 187.88 
L 124.298241 179.763375 
" style="fill:none;stroke:#1f77b4;"/>
    <path clip-path="url(#pb7633d1cf7)" d="M 183.337824 187.88 
L 183.337824 179.763375 
" style="fill:none;stroke:#1f77b4;"/>
    <path clip-path="url(#pb7633d1cf7)" d="M 248.647781 187.88 
L 248.647781 179.763375 
" style="fill:none;stroke:#1f77b4;"/>
    <path clip-path="url(#pb7633d1cf7)" d="M 286.950971 187.88 
L 286.950971 179.763375 
" style="fill:none;stroke:#1f77b4;"/>
    <path clip-path="url(#pb7633d1cf7)" d="M 310.237518 187.88 
L 310.237518 179.763375 
" style="fill:none;stroke:#1f77b4;"/>
    <path clip-path="url(#pb7633d1cf7)" d="M 345.401323 187.88 
L 345.401323 179.763375 
" style="fill:none;stroke:#1f77b4;"/>
    <path clip-path="url(#pb7633d1cf7)" d="M 373.096323 187.88 
L 373.096323 179.763375 
" style="fill:none;stroke:#1f77b4;"/>
    <path clip-path="url(#pb7633d1cf7)" d="M 361.598892 187.88 
L 361.598892 179.763375 
" style="fill:none;stroke:#1f77b4;"/>
    <path clip-path="url(#pb7633d1cf7)" d="M 318.288923 187.88 
L 318.288923 179.763375 
" style="fill:none;stroke:#1f77b4;"/>
    <path clip-path="url(#pb7633d1cf7)" d="M 271.267994 187.88 
L 271.267994 179.763375 
" style="fill:none;stroke:#1f77b4;"/>
    <path clip-path="url(#pb7633d1cf7)" d="M 240.855241 187.88 
L 240.855241 179.763375 
" style="fill:none;stroke:#1f77b4;"/>
    <path clip-path="url(#pb7633d1cf7)" d="M 229.850403 187.88 
L 229.850403 179.763375 
" style="fill:none;stroke:#1f77b4;"/>
    <path clip-path="url(#pb7633d1cf7)" d="M 222.609774 187.88 
L 222.609774 179.763375 
" style="fill:none;stroke:#1f77b4;"/>
    <path clip-path="url(#pb7633d1cf7)" d="M 213.890517 187.88 
L 213.890517 179.763375 
" style="fill:none;stroke:#1f77b4;"/>
    <path clip-path="url(#pb7633d1cf7)" d="M 211.726237 187.88 
L 211.726237 179.763375 
" style="fill:none;stroke:#1f77b4;"/>
    <path clip-path="url(#pb7633d1cf7)" d="M 219.736993 187.88 
L 219.736993 179.763375 
" style="fill:none;stroke:#1f77b4;"/>
    <path clip-path="url(#pb7633d1cf7)" d="M 235.053447 187.88 
L 235.053447 179.763375 
" style="fill:none;stroke:#1f77b4;"/>
    <path clip-path="url(#pb7633d1cf7)" d="M 255.176154 187.88 
L 255.176154 179.763375 
" style="fill:none;stroke:#1f77b4;"/>
    <path clip-path="url(#pb7633d1cf7)" d="M 279.992001 187.88 
L 279.992001 179.763375 
" style="fill:none;stroke:#1f77b4;"/>
    <path clip-path="url(#pb7633d1cf7)" d="M 300.402318 187.88 
L 300.402318 179.763375 
" style="fill:none;stroke:#1f77b4;"/>
    <path clip-path="url(#pb7633d1cf7)" d="M 299.128032 187.88 
L 299.128032 179.763375 
" style="fill:none;stroke:#1f77b4;"/>
    <path clip-path="url(#pb7633d1cf7)" d="M 278.518605 187.88 
L 278.518605 179.763375 
" style="fill:none;stroke:#1f77b4;"/>
    <path clip-path="url(#pb7633d1cf7)" d="M 259.381589 187.88 
L 259.381589 179.763375 
" style="fill:none;stroke:#1f77b4;"/>
    <path clip-path="url(#pb7633d1cf7)" d="M 256.128726 187.88 
L 256.128726 179.763375 
" style="fill:none;stroke:#1f77b4;"/>
    <path clip-path="url(#pb7633d1cf7)" d="M 261.018747 187.88 
L 261.018747 179.763375 
" style="fill:none;stroke:#1f77b4;"/>
    <path clip-path="url(#pb7633d1cf7)" d="M 266.544374 187.88 
L 266.544374 179.763375 
" style="fill:none;stroke:#1f77b4;"/>
    <path clip-path="url(#pb7633d1cf7)" d="M 271.968386 187.88 
L 271.968386 179.763375 
" style="fill:none;stroke:#1f77b4;"/>
    <path clip-path="url(#pb7633d1cf7)" d="M 277.545772 187.88 
L 277.545772 179.763375 
" style="fill:none;stroke:#1f77b4;"/>
    <path clip-path="url(#pb7633d1cf7)" d="M 284.396544 187.88 
L 284.396544 179.763375 
" style="fill:none;stroke:#1f77b4;"/>
    <path clip-path="url(#pb7633d1cf7)" d="M 302.902667 187.88 
L 302.902667 179.763375 
" style="fill:none;stroke:#1f77b4;"/>
    <path clip-path="url(#pb7633d1cf7)" d="M 329.632864 187.88 
L 329.632864 179.763375 
" style="fill:none;stroke:#1f77b4;"/>
    <path clip-path="url(#pb7633d1cf7)" d="M 343.327043 187.88 
L 343.327043 179.763375 
" style="fill:none;stroke:#1f77b4;"/>
    <path clip-path="url(#pb7633d1cf7)" d="M 339.161806 187.88 
L 339.161806 179.763375 
" style="fill:none;stroke:#1f77b4;"/>
    <path clip-path="url(#pb7633d1cf7)" d="M 326.440272 187.88 
L 326.440272 179.763375 
" style="fill:none;stroke:#1f77b4;"/>
    <path clip-path="url(#pb7633d1cf7)" d="M 311.547886 187.88 
L 311.547886 179.763375 
" style="fill:none;stroke:#1f77b4;"/>
    <path clip-path="url(#pb7633d1cf7)" d="M 294.327844 187.88 
L 294.327844 179.763375 
" style="fill:none;stroke:#1f77b4;"/>
    <path clip-path="url(#pb7633d1cf7)" d="M 280.355434 187.88 
L 280.355434 179.763375 
" style="fill:none;stroke:#1f77b4;"/>
    <path clip-path="url(#pb7633d1cf7)" d="M 277.053656 187.88 
L 277.053656 179.763375 
" style="fill:none;stroke:#1f77b4;"/>
    <path clip-path="url(#pb7633d1cf7)" d="M 298.96045 187.88 
L 298.96045 179.763375 
" style="fill:none;stroke:#1f77b4;"/>
    <path clip-path="url(#pb7633d1cf7)" d="M 349.583068 187.88 
L 349.583068 179.763375 
" style="fill:none;stroke:#1f77b4;"/>
    <path clip-path="url(#pb7633d1cf7)" d="M 413.654756 187.88 
L 413.654756 179.763375 
" style="fill:none;stroke:#1f77b4;"/>
    <path clip-path="url(#pb7633d1cf7)" d="M 468.47543 187.88 
L 468.47543 179.763375 
" style="fill:none;stroke:#1f77b4;"/>
    <path clip-path="url(#pb7633d1cf7)" d="M 491.860068 187.88 
L 491.860068 179.763375 
" style="fill:none;stroke:#1f77b4;"/>
    <path clip-path="url(#pb7633d1cf7)" d="M 505.659797 187.88 
L 505.659797 179.763375 
" style="fill:none;stroke:#1f77b4;"/>
    <path clip-path="url(#pb7633d1cf7)" d="M 534.195755 187.88 
L 534.195755 179.763375 
" style="fill:none;stroke:#1f77b4;"/>
    <path clip-path="url(#pb7633d1cf7)" d="M 553.944353 187.88 
L 553.944353 179.763375 
" style="fill:none;stroke:#1f77b4;"/>
    <path clip-path="url(#pb7633d1cf7)" d="M 542.033523 187.88 
L 542.033523 179.763375 
" style="fill:none;stroke:#1f77b4;"/>
    <path clip-path="url(#pb7633d1cf7)" d="M 497.424044 187.88 
L 497.424044 179.763375 
" style="fill:none;stroke:#1f77b4;"/>
    <path clip-path="url(#pb7633d1cf7)" d="M 424.832269 187.88 
L 424.832269 179.763375 
" style="fill:none;stroke:#1f77b4;"/>
    <path clip-path="url(#pb7633d1cf7)" d="M 344.307993 187.88 
L 344.307993 179.763375 
" style="fill:none;stroke:#1f77b4;"/>
    <path clip-path="url(#pb7633d1cf7)" d="M 277.542031 187.88 
L 277.542031 179.763375 
" style="fill:none;stroke:#1f77b4;"/>
    <path clip-path="url(#pb7633d1cf7)" d="M 234.681352 187.88 
L 234.681352 179.763375 
" style="fill:none;stroke:#1f77b4;"/>
    <path clip-path="url(#pb7633d1cf7)" d="M 218.487645 187.88 
L 218.487645 179.763375 
" style="fill:none;stroke:#1f77b4;"/>
    <path clip-path="url(#pb7633d1cf7)" d="M 221.074402 187.88 
L 221.074402 179.763375 
" style="fill:none;stroke:#1f77b4;"/>
    <path clip-path="url(#pb7633d1cf7)" d="M 230.246189 187.88 
L 230.246189 179.763375 
" style="fill:none;stroke:#1f77b4;"/>
    <path clip-path="url(#pb7633d1cf7)" d="M 236.801769 187.88 
L 236.801769 179.763375 
" style="fill:none;stroke:#1f77b4;"/>
    <path clip-path="url(#pb7633d1cf7)" d="M 236.837028 187.88 
L 236.837028 179.763375 
" style="fill:none;stroke:#1f77b4;"/>
    <path clip-path="url(#pb7633d1cf7)" d="M 234.038884 187.88 
L 234.038884 179.763375 
" style="fill:none;stroke:#1f77b4;"/>
    <path clip-path="url(#pb7633d1cf7)" d="M 233.721244 187.88 
L 233.721244 179.763375 
" style="fill:none;stroke:#1f77b4;"/>
    <path clip-path="url(#pb7633d1cf7)" d="M 232.637587 187.88 
L 232.637587 179.763375 
" style="fill:none;stroke:#1f77b4;"/>
    <path clip-path="url(#pb7633d1cf7)" d="M 226.565578 187.88 
L 226.565578 179.763375 
" style="fill:none;stroke:#1f77b4;"/>
    <path clip-path="url(#pb7633d1cf7)" d="M 216.41213 187.88 
L 216.41213 179.763375 
" style="fill:none;stroke:#1f77b4;"/>
    <path clip-path="url(#pb7633d1cf7)" d="M 214.229936 187.88 
L 214.229936 179.763375 
" style="fill:none;stroke:#1f77b4;"/>
    <path clip-path="url(#pb7633d1cf7)" d="M 241.068532 187.88 
L 241.068532 179.763375 
" style="fill:none;stroke:#1f77b4;"/>
    <path clip-path="url(#pb7633d1cf7)" d="M 289.553176 187.88 
L 289.553176 179.763375 
" style="fill:none;stroke:#1f77b4;"/>
    <path clip-path="url(#pb7633d1cf7)" d="M 332.588617 187.88 
L 332.588617 179.763375 
" style="fill:none;stroke:#1f77b4;"/>
    <path clip-path="url(#pb7633d1cf7)" d="M 354.324457 187.88 
L 354.324457 179.763375 
" style="fill:none;stroke:#1f77b4;"/>
    <path clip-path="url(#pb7633d1cf7)" d="M 357.154433 187.88 
L 357.154433 179.763375 
" style="fill:none;stroke:#1f77b4;"/>
    <path clip-path="url(#pb7633d1cf7)" d="M 357.679404 187.88 
L 357.679404 179.763375 
" style="fill:none;stroke:#1f77b4;"/>
    <path clip-path="url(#pb7633d1cf7)" d="M 361.560911 187.88 
L 361.560911 179.763375 
" style="fill:none;stroke:#1f77b4;"/>
    <path clip-path="url(#pb7633d1cf7)" d="M 356.453725 187.88 
L 356.453725 179.763375 
" style="fill:none;stroke:#1f77b4;"/>
    <path clip-path="url(#pb7633d1cf7)" d="M 330.630415 187.88 
L 330.630415 179.763375 
" style="fill:none;stroke:#1f77b4;"/>
    <path clip-path="url(#pb7633d1cf7)" d="M 291.707183 187.88 
L 291.707183 179.763375 
" style="fill:none;stroke:#1f77b4;"/>
    <path clip-path="url(#pb7633d1cf7)" d="M 256.952321 187.88 
L 256.952321 179.763375 
" style="fill:none;stroke:#1f77b4;"/>
    <path clip-path="url(#pb7633d1cf7)" d="M 236.207579 187.88 
L 236.207579 179.763375 
" style="fill:none;stroke:#1f77b4;"/>
    <path clip-path="url(#pb7633d1cf7)" d="M 230.991637 187.88 
L 230.991637 179.763375 
" style="fill:none;stroke:#1f77b4;"/>
    <path clip-path="url(#pb7633d1cf7)" d="M 236.010721 187.88 
L 236.010721 179.763375 
" style="fill:none;stroke:#1f77b4;"/>
    <path clip-path="url(#pb7633d1cf7)" d="M 241.477469 187.88 
L 241.477469 179.763375 
" style="fill:none;stroke:#1f77b4;"/>
    <path clip-path="url(#pb7633d1cf7)" d="M 241.562932 187.88 
L 241.562932 179.763375 
" style="fill:none;stroke:#1f77b4;"/>
    <path clip-path="url(#pb7633d1cf7)" d="M 239.560648 187.88 
L 239.560648 179.763375 
" style="fill:none;stroke:#1f77b4;"/>
    <path clip-path="url(#pb7633d1cf7)" d="M 238.802481 187.88 
L 238.802481 179.763375 
" style="fill:none;stroke:#1f77b4;"/>
    <path clip-path="url(#pb7633d1cf7)" d="M 241.665013 187.88 
L 241.665013 179.763375 
" style="fill:none;stroke:#1f77b4;"/>
    <path clip-path="url(#pb7633d1cf7)" d="M 249.804248 187.88 
L 249.804248 179.763375 
" style="fill:none;stroke:#1f77b4;"/>
    <path clip-path="url(#pb7633d1cf7)" d="M 261.882106 187.88 
L 261.882106 179.763375 
" style="fill:none;stroke:#1f77b4;"/>
    <path clip-path="url(#pb7633d1cf7)" d="M 275.49045 187.88 
L 275.49045 179.763375 
" style="fill:none;stroke:#1f77b4;"/>
    <path clip-path="url(#pb7633d1cf7)" d="M 291.404405 187.88 
L 291.404405 179.763375 
" style="fill:none;stroke:#1f77b4;"/>
    <path clip-path="url(#pb7633d1cf7)" d="M 308.064924 187.88 
L 308.064924 179.763375 
" style="fill:none;stroke:#1f77b4;"/>
    <path clip-path="url(#pb7633d1cf7)" d="M 320.035054 187.88 
L 320.035054 179.763375 
" style="fill:none;stroke:#1f77b4;"/>
    <path clip-path="url(#pb7633d1cf7)" d="M 314.519487 187.88 
L 314.519487 179.763375 
" style="fill:none;stroke:#1f77b4;"/>
    <path clip-path="url(#pb7633d1cf7)" d="M 282.363615 187.88 
L 282.363615 179.763375 
" style="fill:none;stroke:#1f77b4;"/>
    <path clip-path="url(#pb7633d1cf7)" d="M 247.699748 187.88 
L 247.699748 179.763375 
" style="fill:none;stroke:#1f77b4;"/>
    <path clip-path="url(#pb7633d1cf7)" d="M 232.287305 187.88 
L 232.287305 179.763375 
" style="fill:none;stroke:#1f77b4;"/>
    <path clip-path="url(#pb7633d1cf7)" d="M 229.843031 187.88 
L 229.843031 179.763375 
" style="fill:none;stroke:#1f77b4;"/>
    <path clip-path="url(#pb7633d1cf7)" d="M 229.343649 187.88 
L 229.343649 179.763375 
" style="fill:none;stroke:#1f77b4;"/>
    <path clip-path="url(#pb7633d1cf7)" d="M 235.623649 187.88 
L 235.623649 179.763375 
" style="fill:none;stroke:#1f77b4;"/>
    <path clip-path="url(#pb7633d1cf7)" d="M 255.5151 187.88 
L 255.5151 179.763375 
" style="fill:none;stroke:#1f77b4;"/>
    <path clip-path="url(#pb7633d1cf7)" d="M 281.128321 187.88 
L 281.128321 179.763375 
" style="fill:none;stroke:#1f77b4;"/>
    <path clip-path="url(#pb7633d1cf7)" d="M 299.508909 187.88 
L 299.508909 179.763375 
" style="fill:none;stroke:#1f77b4;"/>
    <path clip-path="url(#pb7633d1cf7)" d="M 305.523481 187.88 
L 305.523481 179.763375 
" style="fill:none;stroke:#1f77b4;"/>
    <path clip-path="url(#pb7633d1cf7)" d="M 303.799263 187.88 
L 303.799263 179.763375 
" style="fill:none;stroke:#1f77b4;"/>
    <path clip-path="url(#pb7633d1cf7)" d="M 300.689463 187.88 
L 300.689463 179.763375 
" style="fill:none;stroke:#1f77b4;"/>
    <path clip-path="url(#pb7633d1cf7)" d="M 298.719985 187.88 
L 298.719985 179.763375 
" style="fill:none;stroke:#1f77b4;"/>
    <path clip-path="url(#pb7633d1cf7)" d="M 286.686596 187.88 
L 286.686596 179.763375 
" style="fill:none;stroke:#1f77b4;"/>
    <path clip-path="url(#pb7633d1cf7)" d="M 253.111926 187.88 
L 253.111926 179.763375 
" style="fill:none;stroke:#1f77b4;"/>
    <path clip-path="url(#pb7633d1cf7)" d="M 210.522797 187.88 
L 210.522797 179.763375 
" style="fill:none;stroke:#1f77b4;"/>
    <path clip-path="url(#pb7633d1cf7)" d="M 182.213242 187.88 
L 182.213242 179.763375 
" style="fill:none;stroke:#1f77b4;"/>
    <path clip-path="url(#pb7633d1cf7)" d="M 179.862652 187.88 
L 179.862652 179.763375 
" style="fill:none;stroke:#1f77b4;"/>
    <path clip-path="url(#pb7633d1cf7)" d="M 201.932263 187.88 
L 201.932263 179.763375 
" style="fill:none;stroke:#1f77b4;"/>
    <path clip-path="url(#pb7633d1cf7)" d="M 236.329458 187.88 
L 236.329458 179.763375 
" style="fill:none;stroke:#1f77b4;"/>
    <path clip-path="url(#pb7633d1cf7)" d="M 270.077219 187.88 
L 270.077219 179.763375 
" style="fill:none;stroke:#1f77b4;"/>
    <path clip-path="url(#pb7633d1cf7)" d="M 294.930174 187.88 
L 294.930174 179.763375 
" style="fill:none;stroke:#1f77b4;"/>
    <path clip-path="url(#pb7633d1cf7)" d="M 309.072736 187.88 
L 309.072736 179.763375 
" style="fill:none;stroke:#1f77b4;"/>
    <path clip-path="url(#pb7633d1cf7)" d="M 314.952493 187.88 
L 314.952493 179.763375 
" style="fill:none;stroke:#1f77b4;"/>
    <path clip-path="url(#pb7633d1cf7)" d="M 316.03936 187.88 
L 316.03936 179.763375 
" style="fill:none;stroke:#1f77b4;"/>
    <path clip-path="url(#pb7633d1cf7)" d="M 314.733848 187.88 
L 314.733848 179.763375 
" style="fill:none;stroke:#1f77b4;"/>
    <path clip-path="url(#pb7633d1cf7)" d="M 316.91891 187.88 
L 316.91891 179.763375 
" style="fill:none;stroke:#1f77b4;"/>
    <path clip-path="url(#pb7633d1cf7)" d="M 330.167714 187.88 
L 330.167714 179.763375 
" style="fill:none;stroke:#1f77b4;"/>
    <path clip-path="url(#pb7633d1cf7)" d="M 350.681732 187.88 
L 350.681732 179.763375 
" style="fill:none;stroke:#1f77b4;"/>
    <path clip-path="url(#pb7633d1cf7)" d="M 365.395972 187.88 
L 365.395972 179.763375 
" style="fill:none;stroke:#1f77b4;"/>
    <path clip-path="url(#pb7633d1cf7)" d="M 355.962918 187.88 
L 355.962918 179.763375 
" style="fill:none;stroke:#1f77b4;"/>
    <path clip-path="url(#pb7633d1cf7)" d="M 317.745396 187.88 
L 317.745396 179.763375 
" style="fill:none;stroke:#1f77b4;"/>
    <path clip-path="url(#pb7633d1cf7)" d="M 271.695651 187.88 
L 271.695651 179.763375 
" style="fill:none;stroke:#1f77b4;"/>
    <path clip-path="url(#pb7633d1cf7)" d="M 247.281004 187.88 
L 247.281004 179.763375 
" style="fill:none;stroke:#1f77b4;"/>
    <path clip-path="url(#pb7633d1cf7)" d="M 251.310902 187.88 
L 251.310902 179.763375 
" style="fill:none;stroke:#1f77b4;"/>
    <path clip-path="url(#pb7633d1cf7)" d="M 270.113078 187.88 
L 270.113078 179.763375 
" style="fill:none;stroke:#1f77b4;"/>
    <path clip-path="url(#pb7633d1cf7)" d="M 294.215242 187.88 
L 294.215242 179.763375 
" style="fill:none;stroke:#1f77b4;"/>
    <path clip-path="url(#pb7633d1cf7)" d="M 314.412789 187.88 
L 314.412789 179.763375 
" style="fill:none;stroke:#1f77b4;"/>
    <path clip-path="url(#pb7633d1cf7)" d="M 337.081728 187.88 
L 337.081728 179.763375 
" style="fill:none;stroke:#1f77b4;"/>
    <path clip-path="url(#pb7633d1cf7)" d="M 380.983839 187.88 
L 380.983839 179.763375 
" style="fill:none;stroke:#1f77b4;"/>
    <path clip-path="url(#pb7633d1cf7)" d="M 432.176187 187.88 
L 432.176187 179.763375 
" style="fill:none;stroke:#1f77b4;"/>
    <path clip-path="url(#pb7633d1cf7)" d="M 459.413156 187.88 
L 459.413156 179.763375 
" style="fill:none;stroke:#1f77b4;"/>
    <path clip-path="url(#pb7633d1cf7)" d="M 449.841852 187.88 
L 449.841852 179.763375 
" style="fill:none;stroke:#1f77b4;"/>
    <path clip-path="url(#pb7633d1cf7)" d="M 406.038789 187.88 
L 406.038789 179.763375 
" style="fill:none;stroke:#1f77b4;"/>
    <path clip-path="url(#pb7633d1cf7)" d="M 342.79337 187.88 
L 342.79337 179.763375 
" style="fill:none;stroke:#1f77b4;"/>
    <path clip-path="url(#pb7633d1cf7)" d="M 288.360313 187.88 
L 288.360313 179.763375 
" style="fill:none;stroke:#1f77b4;"/>
    <path clip-path="url(#pb7633d1cf7)" d="M 271.332356 187.88 
L 271.332356 179.763375 
" style="fill:none;stroke:#1f77b4;"/>
    <path clip-path="url(#pb7633d1cf7)" d="M 288.007997 187.88 
L 288.007997 179.763375 
" style="fill:none;stroke:#1f77b4;"/>
    <path clip-path="url(#pb7633d1cf7)" d="M 311.711476 187.88 
L 311.711476 179.763375 
" style="fill:none;stroke:#1f77b4;"/>
    <path clip-path="url(#pb7633d1cf7)" d="M 325.104268 187.88 
L 325.104268 179.763375 
" style="fill:none;stroke:#1f77b4;"/>
    <path clip-path="url(#pb7633d1cf7)" d="M 325.991918 187.88 
L 325.991918 179.763375 
" style="fill:none;stroke:#1f77b4;"/>
    <path clip-path="url(#pb7633d1cf7)" d="M 319.531069 187.88 
L 319.531069 179.763375 
" style="fill:none;stroke:#1f77b4;"/>
    <path clip-path="url(#pb7633d1cf7)" d="M 310.50464 187.88 
L 310.50464 179.763375 
" style="fill:none;stroke:#1f77b4;"/>
    <path clip-path="url(#pb7633d1cf7)" d="M 302.091285 187.88 
L 302.091285 179.763375 
" style="fill:none;stroke:#1f77b4;"/>
    <path clip-path="url(#pb7633d1cf7)" d="M 296.65263 187.88 
L 296.65263 179.763375 
" style="fill:none;stroke:#1f77b4;"/>
    <path clip-path="url(#pb7633d1cf7)" d="M 293.889583 187.88 
L 293.889583 179.763375 
" style="fill:none;stroke:#1f77b4;"/>
    <path clip-path="url(#pb7633d1cf7)" d="M 294.557229 187.88 
L 294.557229 179.763375 
" style="fill:none;stroke:#1f77b4;"/>
    <path clip-path="url(#pb7633d1cf7)" d="M 303.783327 187.88 
L 303.783327 179.763375 
" style="fill:none;stroke:#1f77b4;"/>
    <path clip-path="url(#pb7633d1cf7)" d="M 316.218643 187.88 
L 316.218643 179.763375 
" style="fill:none;stroke:#1f77b4;"/>
    <path clip-path="url(#pb7633d1cf7)" d="M 317.026271 187.88 
L 317.026271 179.763375 
" style="fill:none;stroke:#1f77b4;"/>
    <path clip-path="url(#pb7633d1cf7)" d="M 305.396309 187.88 
L 305.396309 179.763375 
" style="fill:none;stroke:#1f77b4;"/>
    <path clip-path="url(#pb7633d1cf7)" d="M 294.603648 187.88 
L 294.603648 179.763375 
" style="fill:none;stroke:#1f77b4;"/>
    <path clip-path="url(#pb7633d1cf7)" d="M 309.048798 187.88 
L 309.048798 179.763375 
" style="fill:none;stroke:#1f77b4;"/>
    <path clip-path="url(#pb7633d1cf7)" d="M 357.235267 187.88 
L 357.235267 179.763375 
" style="fill:none;stroke:#1f77b4;"/>
    <path clip-path="url(#pb7633d1cf7)" d="M 413.711475 187.88 
L 413.711475 179.763375 
" style="fill:none;stroke:#1f77b4;"/>
    <path clip-path="url(#pb7633d1cf7)" d="M 449.72495 187.88 
L 449.72495 179.763375 
" style="fill:none;stroke:#1f77b4;"/>
    <path clip-path="url(#pb7633d1cf7)" d="M 466.796241 187.88 
L 466.796241 179.763375 
" style="fill:none;stroke:#1f77b4;"/>
    <path clip-path="url(#pb7633d1cf7)" d="M 480.623729 187.88 
L 480.623729 179.763375 
" style="fill:none;stroke:#1f77b4;"/>
    <path clip-path="url(#pb7633d1cf7)" d="M 480.844959 187.88 
L 480.844959 179.763375 
" style="fill:none;stroke:#1f77b4;"/>
    <path clip-path="url(#pb7633d1cf7)" d="M 452.636291 187.88 
L 452.636291 179.763375 
" style="fill:none;stroke:#1f77b4;"/>
    <path clip-path="url(#pb7633d1cf7)" d="M 404.904317 187.88 
L 404.904317 179.763375 
" style="fill:none;stroke:#1f77b4;"/>
    <path clip-path="url(#pb7633d1cf7)" d="M 355.787063 187.88 
L 355.787063 179.763375 
" style="fill:none;stroke:#1f77b4;"/>
    <path clip-path="url(#pb7633d1cf7)" d="M 324.476206 187.88 
L 324.476206 179.763375 
" style="fill:none;stroke:#1f77b4;"/>
    <path clip-path="url(#pb7633d1cf7)" d="M 314.911295 187.88 
L 314.911295 179.763375 
" style="fill:none;stroke:#1f77b4;"/>
    <path clip-path="url(#pb7633d1cf7)" d="M 302.601743 187.88 
L 302.601743 179.763375 
" style="fill:none;stroke:#1f77b4;"/>
    <path clip-path="url(#pb7633d1cf7)" d="M 278.007955 187.88 
L 278.007955 179.763375 
" style="fill:none;stroke:#1f77b4;"/>
    <path clip-path="url(#pb7633d1cf7)" d="M 257.594816 187.88 
L 257.594816 179.763375 
" style="fill:none;stroke:#1f77b4;"/>
    <path clip-path="url(#pb7633d1cf7)" d="M 250.508693 187.88 
L 250.508693 179.763375 
" style="fill:none;stroke:#1f77b4;"/>
    <path clip-path="url(#pb7633d1cf7)" d="M 248.85345 187.88 
L 248.85345 179.763375 
" style="fill:none;stroke:#1f77b4;"/>
    <path clip-path="url(#pb7633d1cf7)" d="M 247.215301 187.88 
L 247.215301 179.763375 
" style="fill:none;stroke:#1f77b4;"/>
    <path clip-path="url(#pb7633d1cf7)" d="M 258.558078 187.88 
L 258.558078 179.763375 
" style="fill:none;stroke:#1f77b4;"/>
    <path clip-path="url(#pb7633d1cf7)" d="M 286.266449 187.88 
L 286.266449 179.763375 
" style="fill:none;stroke:#1f77b4;"/>
    <path clip-path="url(#pb7633d1cf7)" d="M 314.656692 187.88 
L 314.656692 179.763375 
" style="fill:none;stroke:#1f77b4;"/>
    <path clip-path="url(#pb7633d1cf7)" d="M 331.108697 187.88 
L 331.108697 179.763375 
" style="fill:none;stroke:#1f77b4;"/>
    <path clip-path="url(#pb7633d1cf7)" d="M 330.864024 187.88 
L 330.864024 179.763375 
" style="fill:none;stroke:#1f77b4;"/>
    <path clip-path="url(#pb7633d1cf7)" d="M 317.200424 187.88 
L 317.200424 179.763375 
" style="fill:none;stroke:#1f77b4;"/>
    <path clip-path="url(#pb7633d1cf7)" d="M 300.651923 187.88 
L 300.651923 179.763375 
" style="fill:none;stroke:#1f77b4;"/>
    <path clip-path="url(#pb7633d1cf7)" d="M 289.539199 187.88 
L 289.539199 179.763375 
" style="fill:none;stroke:#1f77b4;"/>
    <path clip-path="url(#pb7633d1cf7)" d="M 287.314628 187.88 
L 287.314628 179.763375 
" style="fill:none;stroke:#1f77b4;"/>
    <path clip-path="url(#pb7633d1cf7)" d="M 291.377369 187.88 
L 291.377369 179.763375 
" style="fill:none;stroke:#1f77b4;"/>
    <path clip-path="url(#pb7633d1cf7)" d="M 296.358032 187.88 
L 296.358032 179.763375 
" style="fill:none;stroke:#1f77b4;"/>
    <path clip-path="url(#pb7633d1cf7)" d="M 299.145776 187.88 
L 299.145776 179.763375 
" style="fill:none;stroke:#1f77b4;"/>
    <path clip-path="url(#pb7633d1cf7)" d="M 298.923797 187.88 
L 298.923797 179.763375 
" style="fill:none;stroke:#1f77b4;"/>
    <path clip-path="url(#pb7633d1cf7)" d="M 286.00141 187.88 
L 286.00141 179.763375 
" style="fill:none;stroke:#1f77b4;"/>
    <path clip-path="url(#pb7633d1cf7)" d="M 255.565682 187.88 
L 255.565682 179.763375 
" style="fill:none;stroke:#1f77b4;"/>
    <path clip-path="url(#pb7633d1cf7)" d="M 225.330459 187.88 
L 225.330459 179.763375 
" style="fill:none;stroke:#1f77b4;"/>
    <path clip-path="url(#pb7633d1cf7)" d="M 211.384024 187.88 
L 211.384024 179.763375 
" style="fill:none;stroke:#1f77b4;"/>
    <path clip-path="url(#pb7633d1cf7)" d="M 215.31025 187.88 
L 215.31025 179.763375 
" style="fill:none;stroke:#1f77b4;"/>
    <path clip-path="url(#pb7633d1cf7)" d="M 229.682468 187.88 
L 229.682468 179.763375 
" style="fill:none;stroke:#1f77b4;"/>
    <path clip-path="url(#pb7633d1cf7)" d="M 249.453351 187.88 
L 249.453351 179.763375 
" style="fill:none;stroke:#1f77b4;"/>
    <path clip-path="url(#pb7633d1cf7)" d="M 275.702991 187.88 
L 275.702991 179.763375 
" style="fill:none;stroke:#1f77b4;"/>
    <path clip-path="url(#pb7633d1cf7)" d="M 304.197893 187.88 
L 304.197893 179.763375 
" style="fill:none;stroke:#1f77b4;"/>
    <path clip-path="url(#pb7633d1cf7)" d="M 316.24863 187.88 
L 316.24863 179.763375 
" style="fill:none;stroke:#1f77b4;"/>
    <path clip-path="url(#pb7633d1cf7)" d="M 304.390476 187.88 
L 304.390476 179.763375 
" style="fill:none;stroke:#1f77b4;"/>
    <path clip-path="url(#pb7633d1cf7)" d="M 289.647294 187.88 
L 289.647294 179.763375 
" style="fill:none;stroke:#1f77b4;"/>
    <path clip-path="url(#pb7633d1cf7)" d="M 285.401343 187.88 
L 285.401343 179.763375 
" style="fill:none;stroke:#1f77b4;"/>
    <path clip-path="url(#pb7633d1cf7)" d="M 289.072723 187.88 
L 289.072723 179.763375 
" style="fill:none;stroke:#1f77b4;"/>
    <path clip-path="url(#pb7633d1cf7)" d="M 294.564762 187.88 
L 294.564762 179.763375 
" style="fill:none;stroke:#1f77b4;"/>
    <path clip-path="url(#pb7633d1cf7)" d="M 298.619142 187.88 
L 298.619142 179.763375 
" style="fill:none;stroke:#1f77b4;"/>
    <path clip-path="url(#pb7633d1cf7)" d="M 305.22039 187.88 
L 305.22039 179.763375 
" style="fill:none;stroke:#1f77b4;"/>
    <path clip-path="url(#pb7633d1cf7)" d="M 322.70609 187.88 
L 322.70609 179.763375 
" style="fill:none;stroke:#1f77b4;"/>
    <path clip-path="url(#pb7633d1cf7)" d="M 353.415797 187.88 
L 353.415797 179.763375 
" style="fill:none;stroke:#1f77b4;"/>
    <path clip-path="url(#pb7633d1cf7)" d="M 383.33513 187.88 
L 383.33513 179.763375 
" style="fill:none;stroke:#1f77b4;"/>
    <path clip-path="url(#pb7633d1cf7)" d="M 396.694583 187.88 
L 396.694583 179.763375 
" style="fill:none;stroke:#1f77b4;"/>
    <path clip-path="url(#pb7633d1cf7)" d="M 391.153071 187.88 
L 391.153071 179.763375 
" style="fill:none;stroke:#1f77b4;"/>
    <path clip-path="url(#pb7633d1cf7)" d="M 373.661248 187.88 
L 373.661248 179.763375 
" style="fill:none;stroke:#1f77b4;"/>
    <path clip-path="url(#pb7633d1cf7)" d="M 352.445614 187.88 
L 352.445614 179.763375 
" style="fill:none;stroke:#1f77b4;"/>
    <path clip-path="url(#pb7633d1cf7)" d="M 332.85969 187.88 
L 332.85969 179.763375 
" style="fill:none;stroke:#1f77b4;"/>
    <path clip-path="url(#pb7633d1cf7)" d="M 317.111884 187.88 
L 317.111884 179.763375 
" style="fill:none;stroke:#1f77b4;"/>
    <path clip-path="url(#pb7633d1cf7)" d="M 305.423132 187.88 
L 305.423132 179.763375 
" style="fill:none;stroke:#1f77b4;"/>
    <path clip-path="url(#pb7633d1cf7)" d="M 297.215133 187.88 
L 297.215133 179.763375 
" style="fill:none;stroke:#1f77b4;"/>
    <path clip-path="url(#pb7633d1cf7)" d="M 291.76638 187.88 
L 291.76638 179.763375 
" style="fill:none;stroke:#1f77b4;"/>
    <path clip-path="url(#pb7633d1cf7)" d="M 288.461508 187.88 
L 288.461508 179.763375 
" style="fill:none;stroke:#1f77b4;"/>
    <path clip-path="url(#pb7633d1cf7)" d="M 286.787418 187.88 
L 286.787418 179.763375 
" style="fill:none;stroke:#1f77b4;"/>
    <path clip-path="url(#pb7633d1cf7)" d="M 286.335213 187.88 
L 286.335213 179.763375 
" style="fill:none;stroke:#1f77b4;"/>
    <path clip-path="url(#pb7633d1cf7)" d="M 286.779049 187.88 
L 286.779049 179.763375 
" style="fill:none;stroke:#1f77b4;"/>
    <path clip-path="url(#pb7633d1cf7)" d="M 287.693333 187.88 
L 287.693333 179.763375 
" style="fill:none;stroke:#1f77b4;"/>
    <path clip-path="url(#pb7633d1cf7)" d="M 288.629687 187.88 
L 288.629687 179.763375 
" style="fill:none;stroke:#1f77b4;"/>
    <path clip-path="url(#pb7633d1cf7)" d="M 283.021203 187.88 
L 283.021203 179.763375 
" style="fill:none;stroke:#1f77b4;"/>
    <path clip-path="url(#pb7633d1cf7)" d="M 267.450946 187.88 
L 267.450946 179.763375 
" style="fill:none;stroke:#1f77b4;"/>
    <path clip-path="url(#pb7633d1cf7)" d="M 256.695507 187.88 
L 256.695507 179.763375 
" style="fill:none;stroke:#1f77b4;"/>
    <path clip-path="url(#pb7633d1cf7)" d="M 266.901608 187.88 
L 266.901608 179.763375 
" style="fill:none;stroke:#1f77b4;"/>
    <path clip-path="url(#pb7633d1cf7)" d="M 295.42183 187.88 
L 295.42183 179.763375 
" style="fill:none;stroke:#1f77b4;"/>
    <path clip-path="url(#pb7633d1cf7)" d="M 330.419866 187.88 
L 330.419866 179.763375 
" style="fill:none;stroke:#1f77b4;"/>
    <path clip-path="url(#pb7633d1cf7)" d="M 353.171924 187.88 
L 353.171924 179.763375 
" style="fill:none;stroke:#1f77b4;"/>
    <path clip-path="url(#pb7633d1cf7)" d="M 344.096305 187.88 
L 344.096305 179.763375 
" style="fill:none;stroke:#1f77b4;"/>
    <path clip-path="url(#pb7633d1cf7)" d="M 298.817125 187.88 
L 298.817125 179.763375 
" style="fill:none;stroke:#1f77b4;"/>
    <path clip-path="url(#pb7633d1cf7)" d="M 242.045154 187.88 
L 242.045154 179.763375 
" style="fill:none;stroke:#1f77b4;"/>
    <path clip-path="url(#pb7633d1cf7)" d="M 222.50396 187.88 
L 222.50396 179.763375 
" style="fill:none;stroke:#1f77b4;"/>
    <path clip-path="url(#pb7633d1cf7)" d="M 264.74653 187.88 
L 264.74653 179.763375 
" style="fill:none;stroke:#1f77b4;"/>
    <path clip-path="url(#pb7633d1cf7)" d="M 336.707784 187.88 
L 336.707784 179.763375 
" style="fill:none;stroke:#1f77b4;"/>
    <path clip-path="url(#pb7633d1cf7)" d="M 391.934378 187.88 
L 391.934378 179.763375 
" style="fill:none;stroke:#1f77b4;"/>
    <path clip-path="url(#pb7633d1cf7)" d="M 412.019608 187.88 
L 412.019608 179.763375 
" style="fill:none;stroke:#1f77b4;"/>
    <path clip-path="url(#pb7633d1cf7)" d="M 403.72454 187.88 
L 403.72454 179.763375 
" style="fill:none;stroke:#1f77b4;"/>
    <path clip-path="url(#pb7633d1cf7)" d="M 381.633966 187.88 
L 381.633966 179.763375 
" style="fill:none;stroke:#1f77b4;"/>
    <path clip-path="url(#pb7633d1cf7)" d="M 357.145334 187.88 
L 357.145334 179.763375 
" style="fill:none;stroke:#1f77b4;"/>
    <path clip-path="url(#pb7633d1cf7)" d="M 335.523779 187.88 
L 335.523779 179.763375 
" style="fill:none;stroke:#1f77b4;"/>
    <path clip-path="url(#pb7633d1cf7)" d="M 311.777758 187.88 
L 311.777758 179.763375 
" style="fill:none;stroke:#1f77b4;"/>
    <path clip-path="url(#pb7633d1cf7)" d="M 270.323086 187.88 
L 270.323086 179.763375 
" style="fill:none;stroke:#1f77b4;"/>
    <path clip-path="url(#pb7633d1cf7)" d="M 204.274473 187.88 
L 204.274473 179.763375 
" style="fill:none;stroke:#1f77b4;"/>
    <path clip-path="url(#pb7633d1cf7)" d="M 139.355741 187.88 
L 139.355741 179.763375 
" style="fill:none;stroke:#1f77b4;"/>
    <path clip-path="url(#pb7633d1cf7)" d="M 106.495254 187.88 
L 106.495254 179.763375 
" style="fill:none;stroke:#1f77b4;"/>
    <path clip-path="url(#pb7633d1cf7)" d="M 111.434425 187.88 
L 111.434425 179.763375 
" style="fill:none;stroke:#1f77b4;"/>
    <path clip-path="url(#pb7633d1cf7)" d="M 141.356439 187.88 
L 141.356439 179.763375 
" style="fill:none;stroke:#1f77b4;"/>
    <path clip-path="url(#pb7633d1cf7)" d="M 180.264903 187.88 
L 180.264903 179.763375 
" style="fill:none;stroke:#1f77b4;"/>
    <path clip-path="url(#pb7633d1cf7)" d="M 217.33546 187.88 
L 217.33546 179.763375 
" style="fill:none;stroke:#1f77b4;"/>
    <path clip-path="url(#pb7633d1cf7)" d="M 247.815484 187.88 
L 247.815484 179.763375 
" style="fill:none;stroke:#1f77b4;"/>
    <path clip-path="url(#pb7633d1cf7)" d="M 270.887399 187.88 
L 270.887399 179.763375 
" style="fill:none;stroke:#1f77b4;"/>
    <path clip-path="url(#pb7633d1cf7)" d="M 287.418736 187.88 
L 287.418736 179.763375 
" style="fill:none;stroke:#1f77b4;"/>
    <path clip-path="url(#pb7633d1cf7)" d="M 298.669389 187.88 
L 298.669389 179.763375 
" style="fill:none;stroke:#1f77b4;"/>
    <path clip-path="url(#pb7633d1cf7)" d="M 305.773153 187.88 
L 305.773153 179.763375 
" style="fill:none;stroke:#1f77b4;"/>
    <path clip-path="url(#pb7633d1cf7)" d="M 309.637988 187.88 
L 309.637988 179.763375 
" style="fill:none;stroke:#1f77b4;"/>
    <path clip-path="url(#pb7633d1cf7)" d="M 311.034631 187.88 
L 311.034631 179.763375 
" style="fill:none;stroke:#1f77b4;"/>
    <path clip-path="url(#pb7633d1cf7)" d="M 310.690138 187.88 
L 310.690138 179.763375 
" style="fill:none;stroke:#1f77b4;"/>
    <path clip-path="url(#pb7633d1cf7)" d="M 309.214809 187.88 
L 309.214809 179.763375 
" style="fill:none;stroke:#1f77b4;"/>
    <path clip-path="url(#pb7633d1cf7)" d="M 307.147809 187.88 
L 307.147809 179.763375 
" style="fill:none;stroke:#1f77b4;"/>
    <path clip-path="url(#pb7633d1cf7)" d="M 304.904361 187.88 
L 304.904361 179.763375 
" style="fill:none;stroke:#1f77b4;"/>
    <path clip-path="url(#pb7633d1cf7)" d="M 302.779003 187.88 
L 302.779003 179.763375 
" style="fill:none;stroke:#1f77b4;"/>
    <path clip-path="url(#pb7633d1cf7)" d="M 300.942562 187.88 
L 300.942562 179.763375 
" style="fill:none;stroke:#1f77b4;"/>
    <path clip-path="url(#pb7633d1cf7)" d="M 299.442351 187.88 
L 299.442351 179.763375 
" style="fill:none;stroke:#1f77b4;"/>
    <path clip-path="url(#pb7633d1cf7)" d="M 298.223928 187.88 
L 298.223928 179.763375 
" style="fill:none;stroke:#1f77b4;"/>
    <path clip-path="url(#pb7633d1cf7)" d="M 297.351366 187.88 
L 297.351366 179.763375 
" style="fill:none;stroke:#1f77b4;"/>
    <path clip-path="url(#pb7633d1cf7)" d="M 296.607524 187.88 
L 296.607524 179.763375 
" style="fill:none;stroke:#1f77b4;"/>
    <path clip-path="url(#pb7633d1cf7)" d="M 297.596151 187.88 
L 297.596151 179.763375 
" style="fill:none;stroke:#1f77b4;"/>
    <path clip-path="url(#pb7633d1cf7)" d="M 304.592268 187.88 
L 304.592268 179.763375 
" style="fill:none;stroke:#1f77b4;"/>
    <path clip-path="url(#pb7633d1cf7)" d="M 314.882209 187.88 
L 314.882209 179.763375 
" style="fill:none;stroke:#1f77b4;"/>
    <path clip-path="url(#pb7633d1cf7)" d="M 321.764602 187.88 
L 321.764602 179.763375 
" style="fill:none;stroke:#1f77b4;"/>
    <path clip-path="url(#pb7633d1cf7)" d="M 322.677006 187.88 
L 322.677006 179.763375 
" style="fill:none;stroke:#1f77b4;"/>
    <path clip-path="url(#pb7633d1cf7)" d="M 318.944293 187.88 
L 318.944293 179.763375 
" style="fill:none;stroke:#1f77b4;"/>
    <path clip-path="url(#pb7633d1cf7)" d="M 313.376159 187.88 
L 313.376159 179.763375 
" style="fill:none;stroke:#1f77b4;"/>
    <path clip-path="url(#pb7633d1cf7)" d="M 307.503 187.88 
L 307.503 179.763375 
" style="fill:none;stroke:#1f77b4;"/>
    <path clip-path="url(#pb7633d1cf7)" d="M 296.199957 187.88 
L 296.199957 179.763375 
" style="fill:none;stroke:#1f77b4;"/>
    <path clip-path="url(#pb7633d1cf7)" d="M 279.619446 187.88 
L 279.619446 179.763375 
" style="fill:none;stroke:#1f77b4;"/>
    <path clip-path="url(#pb7633d1cf7)" d="M 271.362099 187.88 
L 271.362099 179.763375 
" style="fill:none;stroke:#1f77b4;"/>
    <path clip-path="url(#pb7633d1cf7)" d="M 282.279721 187.88 
L 282.279721 179.763375 
" style="fill:none;stroke:#1f77b4;"/>
    <path clip-path="url(#pb7633d1cf7)" d="M 299.424433 187.88 
L 299.424433 179.763375 
" style="fill:none;stroke:#1f77b4;"/>
    <path clip-path="url(#pb7633d1cf7)" d="M 301.982786 187.88 
L 301.982786 179.763375 
" style="fill:none;stroke:#1f77b4;"/>
    <path clip-path="url(#pb7633d1cf7)" d="M 303.787629 187.88 
L 303.787629 179.763375 
" style="fill:none;stroke:#1f77b4;"/>
    <path clip-path="url(#pb7633d1cf7)" d="M 334.230589 187.88 
L 334.230589 179.763375 
" style="fill:none;stroke:#1f77b4;"/>
    <path clip-path="url(#pb7633d1cf7)" d="M 380.806376 187.88 
L 380.806376 179.763375 
" style="fill:none;stroke:#1f77b4;"/>
    <path clip-path="url(#pb7633d1cf7)" d="M 413.061463 187.88 
L 413.061463 179.763375 
" style="fill:none;stroke:#1f77b4;"/>
    <path clip-path="url(#pb7633d1cf7)" d="M 425.261632 187.88 
L 425.261632 179.763375 
" style="fill:none;stroke:#1f77b4;"/>
    <path clip-path="url(#pb7633d1cf7)" d="M 422.809439 187.88 
L 422.809439 179.763375 
" style="fill:none;stroke:#1f77b4;"/>
    <path clip-path="url(#pb7633d1cf7)" d="M 398.625728 187.88 
L 398.625728 179.763375 
" style="fill:none;stroke:#1f77b4;"/>
    <path clip-path="url(#pb7633d1cf7)" d="M 358.980852 187.88 
L 358.980852 179.763375 
" style="fill:none;stroke:#1f77b4;"/>
    <path clip-path="url(#pb7633d1cf7)" d="M 320.963907 187.88 
L 320.963907 179.763375 
" style="fill:none;stroke:#1f77b4;"/>
    <path clip-path="url(#pb7633d1cf7)" d="M 294.474452 187.88 
L 294.474452 179.763375 
" style="fill:none;stroke:#1f77b4;"/>
    <path clip-path="url(#pb7633d1cf7)" d="M 280.213792 187.88 
L 280.213792 179.763375 
" style="fill:none;stroke:#1f77b4;"/>
    <path clip-path="url(#pb7633d1cf7)" d="M 274.538049 187.88 
L 274.538049 179.763375 
" style="fill:none;stroke:#1f77b4;"/>
    <path clip-path="url(#pb7633d1cf7)" d="M 273.622024 187.88 
L 273.622024 179.763375 
" style="fill:none;stroke:#1f77b4;"/>
    <path clip-path="url(#pb7633d1cf7)" d="M 274.979416 187.88 
L 274.979416 179.763375 
" style="fill:none;stroke:#1f77b4;"/>
    <path clip-path="url(#pb7633d1cf7)" d="M 277.681098 187.88 
L 277.681098 179.763375 
" style="fill:none;stroke:#1f77b4;"/>
    <path clip-path="url(#pb7633d1cf7)" d="M 286.316499 187.88 
L 286.316499 179.763375 
" style="fill:none;stroke:#1f77b4;"/>
    <path clip-path="url(#pb7633d1cf7)" d="M 305.408149 187.88 
L 305.408149 179.763375 
" style="fill:none;stroke:#1f77b4;"/>
    <path clip-path="url(#pb7633d1cf7)" d="M 327.253929 187.88 
L 327.253929 179.763375 
" style="fill:none;stroke:#1f77b4;"/>
    <path clip-path="url(#pb7633d1cf7)" d="M 335.669967 187.88 
L 335.669967 179.763375 
" style="fill:none;stroke:#1f77b4;"/>
    <path clip-path="url(#pb7633d1cf7)" d="M 336.448112 187.88 
L 336.448112 179.763375 
" style="fill:none;stroke:#1f77b4;"/>
    <path clip-path="url(#pb7633d1cf7)" d="M 354.676393 187.88 
L 354.676393 179.763375 
" style="fill:none;stroke:#1f77b4;"/>
    <path clip-path="url(#pb7633d1cf7)" d="M 389.600601 187.88 
L 389.600601 179.763375 
" style="fill:none;stroke:#1f77b4;"/>
    <path clip-path="url(#pb7633d1cf7)" d="M 426.371856 187.88 
L 426.371856 179.763375 
" style="fill:none;stroke:#1f77b4;"/>
    <path clip-path="url(#pb7633d1cf7)" d="M 451.658776 187.88 
L 451.658776 179.763375 
" style="fill:none;stroke:#1f77b4;"/>
    <path clip-path="url(#pb7633d1cf7)" d="M 451.594067 187.88 
L 451.594067 179.763375 
" style="fill:none;stroke:#1f77b4;"/>
    <path clip-path="url(#pb7633d1cf7)" d="M 430.754076 187.88 
L 430.754076 179.763375 
" style="fill:none;stroke:#1f77b4;"/>
    <path clip-path="url(#pb7633d1cf7)" d="M 403.217363 187.88 
L 403.217363 179.763375 
" style="fill:none;stroke:#1f77b4;"/>
    <path clip-path="url(#pb7633d1cf7)" d="M 377.956927 187.88 
L 377.956927 179.763375 
" style="fill:none;stroke:#1f77b4;"/>
    <path clip-path="url(#pb7633d1cf7)" d="M 359.103049 187.88 
L 359.103049 179.763375 
" style="fill:none;stroke:#1f77b4;"/>
    <path clip-path="url(#pb7633d1cf7)" d="M 345.936134 187.88 
L 345.936134 179.763375 
" style="fill:none;stroke:#1f77b4;"/>
    <path clip-path="url(#pb7633d1cf7)" d="M 333.117235 187.88 
L 333.117235 179.763375 
" style="fill:none;stroke:#1f77b4;"/>
    <path clip-path="url(#pb7633d1cf7)" d="M 313.901646 187.88 
L 313.901646 179.763375 
" style="fill:none;stroke:#1f77b4;"/>
    <path clip-path="url(#pb7633d1cf7)" d="M 277.171641 187.88 
L 277.171641 179.763375 
" style="fill:none;stroke:#1f77b4;"/>
    <path clip-path="url(#pb7633d1cf7)" d="M 223.805977 187.88 
L 223.805977 179.763375 
" style="fill:none;stroke:#1f77b4;"/>
    <path clip-path="url(#pb7633d1cf7)" d="M 179.126793 187.88 
L 179.126793 179.763375 
" style="fill:none;stroke:#1f77b4;"/>
    <path clip-path="url(#pb7633d1cf7)" d="M 161.407357 187.88 
L 161.407357 179.763375 
" style="fill:none;stroke:#1f77b4;"/>
    <path clip-path="url(#pb7633d1cf7)" d="M 168.55202 187.88 
L 168.55202 179.763375 
" style="fill:none;stroke:#1f77b4;"/>
    <path clip-path="url(#pb7633d1cf7)" d="M 190.781427 187.88 
L 190.781427 179.763375 
" style="fill:none;stroke:#1f77b4;"/>
    <path clip-path="url(#pb7633d1cf7)" d="M 216.899059 187.88 
L 216.899059 179.763375 
" style="fill:none;stroke:#1f77b4;"/>
    <path clip-path="url(#pb7633d1cf7)" d="M 242.931069 187.88 
L 242.931069 179.763375 
" style="fill:none;stroke:#1f77b4;"/>
    <path clip-path="url(#pb7633d1cf7)" d="M 270.989747 187.88 
L 270.989747 179.763375 
" style="fill:none;stroke:#1f77b4;"/>
    <path clip-path="url(#pb7633d1cf7)" d="M 308.284651 187.88 
L 308.284651 179.763375 
" style="fill:none;stroke:#1f77b4;"/>
    <path clip-path="url(#pb7633d1cf7)" d="M 350.850129 187.88 
L 350.850129 179.763375 
" style="fill:none;stroke:#1f77b4;"/>
    <path clip-path="url(#pb7633d1cf7)" d="M 376.977191 187.88 
L 376.977191 179.763375 
" style="fill:none;stroke:#1f77b4;"/>
    <path clip-path="url(#pb7633d1cf7)" d="M 389.826483 187.88 
L 389.826483 179.763375 
" style="fill:none;stroke:#1f77b4;"/>
    <path clip-path="url(#pb7633d1cf7)" d="M 398.939961 187.88 
L 398.939961 179.763375 
" style="fill:none;stroke:#1f77b4;"/>
    <path clip-path="url(#pb7633d1cf7)" d="M 406.381436 187.88 
L 406.381436 179.763375 
" style="fill:none;stroke:#1f77b4;"/>
    <path clip-path="url(#pb7633d1cf7)" d="M 409.057643 187.88 
L 409.057643 179.763375 
" style="fill:none;stroke:#1f77b4;"/>
    <path clip-path="url(#pb7633d1cf7)" d="M 407.89014 187.88 
L 407.89014 179.763375 
" style="fill:none;stroke:#1f77b4;"/>
    <path clip-path="url(#pb7633d1cf7)" d="M 409.507949 187.88 
L 409.507949 179.763375 
" style="fill:none;stroke:#1f77b4;"/>
    <path clip-path="url(#pb7633d1cf7)" d="M 405.416367 187.88 
L 405.416367 179.763375 
" style="fill:none;stroke:#1f77b4;"/>
    <path clip-path="url(#pb7633d1cf7)" d="M 391.326021 187.88 
L 391.326021 179.763375 
" style="fill:none;stroke:#1f77b4;"/>
    <path clip-path="url(#pb7633d1cf7)" d="M 383.551168 187.88 
L 383.551168 179.763375 
" style="fill:none;stroke:#1f77b4;"/>
    <path clip-path="url(#pb7633d1cf7)" d="M 390.597431 187.88 
L 390.597431 179.763375 
" style="fill:none;stroke:#1f77b4;"/>
    <path clip-path="url(#pb7633d1cf7)" d="M 396.079415 187.88 
L 396.079415 179.763375 
" style="fill:none;stroke:#1f77b4;"/>
    <path clip-path="url(#pb7633d1cf7)" d="M 390.217732 187.88 
L 390.217732 179.763375 
" style="fill:none;stroke:#1f77b4;"/>
    <path clip-path="url(#pb7633d1cf7)" d="M 384.971336 187.88 
L 384.971336 179.763375 
" style="fill:none;stroke:#1f77b4;"/>
    <path clip-path="url(#pb7633d1cf7)" d="M 370.478348 187.88 
L 370.478348 179.763375 
" style="fill:none;stroke:#1f77b4;"/>
    <path clip-path="url(#pb7633d1cf7)" d="M 330.882191 187.88 
L 330.882191 179.763375 
" style="fill:none;stroke:#1f77b4;"/>
    <path clip-path="url(#pb7633d1cf7)" d="M 299.020101 187.88 
L 299.020101 179.763375 
" style="fill:none;stroke:#1f77b4;"/>
    <path clip-path="url(#pb7633d1cf7)" d="M 296.919004 187.88 
L 296.919004 179.763375 
" style="fill:none;stroke:#1f77b4;"/>
    <path clip-path="url(#pb7633d1cf7)" d="M 302.544106 187.88 
L 302.544106 179.763375 
" style="fill:none;stroke:#1f77b4;"/>
    <path clip-path="url(#pb7633d1cf7)" d="M 291.597805 187.88 
L 291.597805 179.763375 
" style="fill:none;stroke:#1f77b4;"/>
    <path clip-path="url(#pb7633d1cf7)" d="M 264.558825 187.88 
L 264.558825 179.763375 
" style="fill:none;stroke:#1f77b4;"/>
    <path clip-path="url(#pb7633d1cf7)" d="M 240.441834 187.88 
L 240.441834 179.763375 
" style="fill:none;stroke:#1f77b4;"/>
    <path clip-path="url(#pb7633d1cf7)" d="M 230.476694 187.88 
L 230.476694 179.763375 
" style="fill:none;stroke:#1f77b4;"/>
    <path clip-path="url(#pb7633d1cf7)" d="M 235.054457 187.88 
L 235.054457 179.763375 
" style="fill:none;stroke:#1f77b4;"/>
    <path clip-path="url(#pb7633d1cf7)" d="M 247.502428 187.88 
L 247.502428 179.763375 
" style="fill:none;stroke:#1f77b4;"/>
    <path clip-path="url(#pb7633d1cf7)" d="M 257.829725 187.88 
L 257.829725 179.763375 
" style="fill:none;stroke:#1f77b4;"/>
    <path clip-path="url(#pb7633d1cf7)" d="M 266.584229 187.88 
L 266.584229 179.763375 
" style="fill:none;stroke:#1f77b4;"/>
    <path clip-path="url(#pb7633d1cf7)" d="M 274.529231 187.88 
L 274.529231 179.763375 
" style="fill:none;stroke:#1f77b4;"/>
    <path clip-path="url(#pb7633d1cf7)" d="M 275.405757 187.88 
L 275.405757 179.763375 
" style="fill:none;stroke:#1f77b4;"/>
    <path clip-path="url(#pb7633d1cf7)" d="M 283.706101 187.88 
L 283.706101 179.763375 
" style="fill:none;stroke:#1f77b4;"/>
    <path clip-path="url(#pb7633d1cf7)" d="M 314.425435 187.88 
L 314.425435 179.763375 
" style="fill:none;stroke:#1f77b4;"/>
    <path clip-path="url(#pb7633d1cf7)" d="M 347.602614 187.88 
L 347.602614 179.763375 
" style="fill:none;stroke:#1f77b4;"/>
    <path clip-path="url(#pb7633d1cf7)" d="M 364.731846 187.88 
L 364.731846 179.763375 
" style="fill:none;stroke:#1f77b4;"/>
    <path clip-path="url(#pb7633d1cf7)" d="M 368.625317 187.88 
L 368.625317 179.763375 
" style="fill:none;stroke:#1f77b4;"/>
    <path clip-path="url(#pb7633d1cf7)" d="M 372.579056 187.88 
L 372.579056 179.763375 
" style="fill:none;stroke:#1f77b4;"/>
    <path clip-path="url(#pb7633d1cf7)" d="M 376.988088 187.88 
L 376.988088 179.763375 
" style="fill:none;stroke:#1f77b4;"/>
    <path clip-path="url(#pb7633d1cf7)" d="M 374.614653 187.88 
L 374.614653 179.763375 
" style="fill:none;stroke:#1f77b4;"/>
    <path clip-path="url(#pb7633d1cf7)" d="M 364.729566 187.88 
L 364.729566 179.763375 
" style="fill:none;stroke:#1f77b4;"/>
    <path clip-path="url(#pb7633d1cf7)" d="M 352.664963 187.88 
L 352.664963 179.763375 
" style="fill:none;stroke:#1f77b4;"/>
    <path clip-path="url(#pb7633d1cf7)" d="M 341.098939 187.88 
L 341.098939 179.763375 
" style="fill:none;stroke:#1f77b4;"/>
    <path clip-path="url(#pb7633d1cf7)" d="M 329.714348 187.88 
L 329.714348 179.763375 
" style="fill:none;stroke:#1f77b4;"/>
    <path clip-path="url(#pb7633d1cf7)" d="M 318.628126 187.88 
L 318.628126 179.763375 
" style="fill:none;stroke:#1f77b4;"/>
    <path clip-path="url(#pb7633d1cf7)" d="M 308.663923 187.88 
L 308.663923 179.763375 
" style="fill:none;stroke:#1f77b4;"/>
    <path clip-path="url(#pb7633d1cf7)" d="M 300.608716 187.88 
L 300.608716 179.763375 
" style="fill:none;stroke:#1f77b4;"/>
    <path clip-path="url(#pb7633d1cf7)" d="M 294.71927 187.88 
L 294.71927 179.763375 
" style="fill:none;stroke:#1f77b4;"/>
    <path clip-path="url(#pb7633d1cf7)" d="M 290.889377 187.88 
L 290.889377 179.763375 
" style="fill:none;stroke:#1f77b4;"/>
    <path clip-path="url(#pb7633d1cf7)" d="M 288.813419 187.88 
L 288.813419 179.763375 
" style="fill:none;stroke:#1f77b4;"/>
    <path clip-path="url(#pb7633d1cf7)" d="M 287.969109 187.88 
L 287.969109 179.763375 
" style="fill:none;stroke:#1f77b4;"/>
    <path clip-path="url(#pb7633d1cf7)" d="M 287.968894 187.88 
L 287.968894 179.763375 
" style="fill:none;stroke:#1f77b4;"/>
    <path clip-path="url(#pb7633d1cf7)" d="M 288.504763 187.88 
L 288.504763 179.763375 
" style="fill:none;stroke:#1f77b4;"/>
    <path clip-path="url(#pb7633d1cf7)" d="M 289.355443 187.88 
L 289.355443 179.763375 
" style="fill:none;stroke:#1f77b4;"/>
    <path clip-path="url(#pb7633d1cf7)" d="M 290.300549 187.88 
L 290.300549 179.763375 
" style="fill:none;stroke:#1f77b4;"/>
    <path clip-path="url(#pb7633d1cf7)" d="M 291.33172 187.88 
L 291.33172 179.763375 
" style="fill:none;stroke:#1f77b4;"/>
   </g>
   <g id="line2d_12">
    <path clip-path="url(#pb7633d1cf7)" d="M 48.368286 187.850683 
L 61.504877 187.671291 
L 70.262605 187.245936 
L 74.641469 186.871687 
L 79.020333 186.370689 
L 87.77806 185.047737 
L 96.535788 183.638875 
L 100.914652 183.080728 
L 105.293516 182.696483 
L 109.67238 182.502495 
L 118.430107 182.553966 
L 127.187835 182.739758 
L 131.566699 182.722616 
L 140.324427 182.349672 
L 149.082154 181.623218 
L 170.976474 179.355782 
L 175.355338 178.841961 
L 179.734202 178.211008 
L 184.113065 177.346376 
L 188.491929 176.095012 
L 192.870793 174.29213 
L 197.249657 171.798641 
L 201.628521 168.540737 
L 206.007385 164.539328 
L 210.386249 159.92012 
L 223.52284 144.786432 
L 227.901704 140.229083 
L 232.280568 136.240003 
L 236.659432 132.830267 
L 245.417159 126.952697 
L 249.796023 123.697062 
L 254.174887 119.538772 
L 258.553751 113.95525 
L 262.932615 106.547051 
L 267.311479 97.153594 
L 271.690343 85.957358 
L 280.44807 60.914646 
L 284.826934 49.333511 
L 289.205798 40.162091 
L 293.584662 34.568603 
L 297.963526 33.276607 
L 302.34239 36.403332 
L 306.721254 43.444851 
L 311.100117 53.408907 
L 315.478981 65.045263 
L 319.857845 77.097648 
L 324.236709 88.508902 
L 328.615573 98.541949 
L 332.994437 106.814206 
L 337.373301 113.265972 
L 341.752165 118.089388 
L 346.131028 121.63933 
L 350.509892 124.340442 
L 359.26762 128.74747 
L 363.646484 130.983028 
L 368.025348 133.387366 
L 376.783075 138.568362 
L 385.540803 143.712592 
L 394.298531 148.446868 
L 407.435123 155.287032 
L 416.19285 160.2698 
L 424.950578 165.491977 
L 429.329442 167.962623 
L 433.708306 170.18556 
L 438.08717 172.073042 
L 442.466033 173.585507 
L 446.844897 174.737202 
L 451.223761 175.586323 
L 455.602625 176.214841 
L 464.360353 177.131387 
L 477.496944 178.414567 
L 486.254672 179.453868 
L 512.527855 182.957757 
L 521.285583 183.793778 
L 530.043311 184.399326 
L 551.93763 185.745498 
L 569.453086 187.035382 
L 578.210813 187.481081 
L 586.968541 187.728453 
L 600.105133 187.852892 
L 604.483996 187.858646 
L 604.483996 187.858646 
" style="fill:none;stroke:#1f77b4;stroke-linecap:square;stroke-width:1.5;"/>
   </g>
   <g id="patch_3">
    <path d="M 20.5625 187.88 
L 20.5625 25.547505 
" style="fill:none;stroke:#000000;stroke-linecap:square;stroke-linejoin:miter;stroke-width:0.8;"/>
   </g>
   <g id="patch_4">
    <path d="M 20.5625 187.88 
L 632.289782 187.88 
" style="fill:none;stroke:#000000;stroke-linecap:square;stroke-linejoin:miter;stroke-width:0.8;"/>
   </g>
  </g>
  <g id="text_13">
   <!-- lancastersensorimotornorms_Head.mean [model: lancastersensorimotornorms_Head.mean] -->
   <defs>
    <path d="M 54.890625 33.015625 
L 54.890625 0 
L 45.90625 0 
L 45.90625 32.71875 
Q 45.90625 40.484375 42.875 44.328125 
Q 39.84375 48.1875 33.796875 48.1875 
Q 26.515625 48.1875 22.3125 43.546875 
Q 18.109375 38.921875 18.109375 30.90625 
L 18.109375 0 
L 9.078125 0 
L 9.078125 54.6875 
L 18.109375 54.6875 
L 18.109375 46.1875 
Q 21.34375 51.125 25.703125 53.5625 
Q 30.078125 56 35.796875 56 
Q 45.21875 56 50.046875 50.171875 
Q 54.890625 44.34375 54.890625 33.015625 
z
" id="DejaVuSans-110"/>
    <path d="M 48.78125 52.59375 
L 48.78125 44.1875 
Q 44.96875 46.296875 41.140625 47.34375 
Q 37.3125 48.390625 33.40625 48.390625 
Q 24.65625 48.390625 19.8125 42.84375 
Q 14.984375 37.3125 14.984375 27.296875 
Q 14.984375 17.28125 19.8125 11.734375 
Q 24.65625 6.203125 33.40625 6.203125 
Q 37.3125 6.203125 41.140625 7.25 
Q 44.96875 8.296875 48.78125 10.40625 
L 48.78125 2.09375 
Q 45.015625 0.34375 40.984375 -0.53125 
Q 36.96875 -1.421875 32.421875 -1.421875 
Q 20.0625 -1.421875 12.78125 6.34375 
Q 5.515625 14.109375 5.515625 27.296875 
Q 5.515625 40.671875 12.859375 48.328125 
Q 20.21875 56 33.015625 56 
Q 37.15625 56 41.109375 55.140625 
Q 45.0625 54.296875 48.78125 52.59375 
z
" id="DejaVuSans-99"/>
    <path d="M 18.3125 70.21875 
L 18.3125 54.6875 
L 36.8125 54.6875 
L 36.8125 47.703125 
L 18.3125 47.703125 
L 18.3125 18.015625 
Q 18.3125 11.328125 20.140625 9.421875 
Q 21.96875 7.515625 27.59375 7.515625 
L 36.8125 7.515625 
L 36.8125 0 
L 27.59375 0 
Q 17.1875 0 13.234375 3.875 
Q 9.28125 7.765625 9.28125 18.015625 
L 9.28125 47.703125 
L 2.6875 47.703125 
L 2.6875 54.6875 
L 9.28125 54.6875 
L 9.28125 70.21875 
z
" id="DejaVuSans-116"/>
    <path d="M 41.109375 46.296875 
Q 39.59375 47.171875 37.8125 47.578125 
Q 36.03125 48 33.890625 48 
Q 26.265625 48 22.1875 43.046875 
Q 18.109375 38.09375 18.109375 28.8125 
L 18.109375 0 
L 9.078125 0 
L 9.078125 54.6875 
L 18.109375 54.6875 
L 18.109375 46.1875 
Q 20.953125 51.171875 25.484375 53.578125 
Q 30.03125 56 36.53125 56 
Q 37.453125 56 38.578125 55.875 
Q 39.703125 55.765625 41.0625 55.515625 
z
" id="DejaVuSans-114"/>
    <path d="M 30.609375 48.390625 
Q 23.390625 48.390625 19.1875 42.75 
Q 14.984375 37.109375 14.984375 27.296875 
Q 14.984375 17.484375 19.15625 11.84375 
Q 23.34375 6.203125 30.609375 6.203125 
Q 37.796875 6.203125 41.984375 11.859375 
Q 46.1875 17.53125 46.1875 27.296875 
Q 46.1875 37.015625 41.984375 42.703125 
Q 37.796875 48.390625 30.609375 48.390625 
z
M 30.609375 56 
Q 42.328125 56 49.015625 48.375 
Q 55.71875 40.765625 55.71875 27.296875 
Q 55.71875 13.875 49.015625 6.21875 
Q 42.328125 -1.421875 30.609375 -1.421875 
Q 18.84375 -1.421875 12.171875 6.21875 
Q 5.515625 13.875 5.515625 27.296875 
Q 5.515625 40.765625 12.171875 48.375 
Q 18.84375 56 30.609375 56 
z
" id="DejaVuSans-111"/>
    <path d="M 9.421875 54.6875 
L 18.40625 54.6875 
L 18.40625 0 
L 9.421875 0 
z
M 9.421875 75.984375 
L 18.40625 75.984375 
L 18.40625 64.59375 
L 9.421875 64.59375 
z
" id="DejaVuSans-105"/>
    <path d="M 52 44.1875 
Q 55.375 50.25 60.0625 53.125 
Q 64.75 56 71.09375 56 
Q 79.640625 56 84.28125 50.015625 
Q 88.921875 44.046875 88.921875 33.015625 
L 88.921875 0 
L 79.890625 0 
L 79.890625 32.71875 
Q 79.890625 40.578125 77.09375 44.375 
Q 74.3125 48.1875 68.609375 48.1875 
Q 61.625 48.1875 57.5625 43.546875 
Q 53.515625 38.921875 53.515625 30.90625 
L 53.515625 0 
L 44.484375 0 
L 44.484375 32.71875 
Q 44.484375 40.625 41.703125 44.40625 
Q 38.921875 48.1875 33.109375 48.1875 
Q 26.21875 48.1875 22.15625 43.53125 
Q 18.109375 38.875 18.109375 30.90625 
L 18.109375 0 
L 9.078125 0 
L 9.078125 54.6875 
L 18.109375 54.6875 
L 18.109375 46.1875 
Q 21.1875 51.21875 25.484375 53.609375 
Q 29.78125 56 35.6875 56 
Q 41.65625 56 45.828125 52.96875 
Q 50 49.953125 52 44.1875 
z
" id="DejaVuSans-109"/>
    <path d="M 50.984375 -16.609375 
L 50.984375 -23.578125 
L -0.984375 -23.578125 
L -0.984375 -16.609375 
z
" id="DejaVuSans-95"/>
    <path d="M 9.8125 72.90625 
L 19.671875 72.90625 
L 19.671875 43.015625 
L 55.515625 43.015625 
L 55.515625 72.90625 
L 65.375 72.90625 
L 65.375 0 
L 55.515625 0 
L 55.515625 34.71875 
L 19.671875 34.71875 
L 19.671875 0 
L 9.8125 0 
z
" id="DejaVuSans-72"/>
    <path d="M 45.40625 46.390625 
L 45.40625 75.984375 
L 54.390625 75.984375 
L 54.390625 0 
L 45.40625 0 
L 45.40625 8.203125 
Q 42.578125 3.328125 38.25 0.953125 
Q 33.9375 -1.421875 27.875 -1.421875 
Q 17.96875 -1.421875 11.734375 6.484375 
Q 5.515625 14.40625 5.515625 27.296875 
Q 5.515625 40.1875 11.734375 48.09375 
Q 17.96875 56 27.875 56 
Q 33.9375 56 38.25 53.625 
Q 42.578125 51.265625 45.40625 46.390625 
z
M 14.796875 27.296875 
Q 14.796875 17.390625 18.875 11.75 
Q 22.953125 6.109375 30.078125 6.109375 
Q 37.203125 6.109375 41.296875 11.75 
Q 45.40625 17.390625 45.40625 27.296875 
Q 45.40625 37.203125 41.296875 42.84375 
Q 37.203125 48.484375 30.078125 48.484375 
Q 22.953125 48.484375 18.875 42.84375 
Q 14.796875 37.203125 14.796875 27.296875 
z
" id="DejaVuSans-100"/>
    <path id="DejaVuSans-32"/>
    <path d="M 8.59375 75.984375 
L 29.296875 75.984375 
L 29.296875 69 
L 17.578125 69 
L 17.578125 -6.203125 
L 29.296875 -6.203125 
L 29.296875 -13.1875 
L 8.59375 -13.1875 
z
" id="DejaVuSans-91"/>
    <path d="M 11.71875 12.40625 
L 22.015625 12.40625 
L 22.015625 0 
L 11.71875 0 
z
M 11.71875 51.703125 
L 22.015625 51.703125 
L 22.015625 39.3125 
L 11.71875 39.3125 
z
" id="DejaVuSans-58"/>
    <path d="M 30.421875 75.984375 
L 30.421875 -13.1875 
L 9.71875 -13.1875 
L 9.71875 -6.203125 
L 21.390625 -6.203125 
L 21.390625 69 
L 9.71875 69 
L 9.71875 75.984375 
z
" id="DejaVuSans-93"/>
   </defs>
   <g transform="translate(98.877595 16.318125)scale(0.12 -0.12)">
    <use xlink:href="#DejaVuSans-108"/>
    <use x="27.783203" xlink:href="#DejaVuSans-97"/>
    <use x="89.0625" xlink:href="#DejaVuSans-110"/>
    <use x="152.441406" xlink:href="#DejaVuSans-99"/>
    <use x="207.421875" xlink:href="#DejaVuSans-97"/>
    <use x="268.701172" xlink:href="#DejaVuSans-115"/>
    <use x="320.800781" xlink:href="#DejaVuSans-116"/>
    <use x="360.009766" xlink:href="#DejaVuSans-101"/>
    <use x="421.533203" xlink:href="#DejaVuSans-114"/>
    <use x="462.646484" xlink:href="#DejaVuSans-115"/>
    <use x="514.746094" xlink:href="#DejaVuSans-101"/>
    <use x="576.269531" xlink:href="#DejaVuSans-110"/>
    <use x="639.648438" xlink:href="#DejaVuSans-115"/>
    <use x="691.748047" xlink:href="#DejaVuSans-111"/>
    <use x="752.929688" xlink:href="#DejaVuSans-114"/>
    <use x="794.042969" xlink:href="#DejaVuSans-105"/>
    <use x="821.826172" xlink:href="#DejaVuSans-109"/>
    <use x="919.238281" xlink:href="#DejaVuSans-111"/>
    <use x="980.419922" xlink:href="#DejaVuSans-116"/>
    <use x="1019.628906" xlink:href="#DejaVuSans-111"/>
    <use x="1080.810547" xlink:href="#DejaVuSans-114"/>
    <use x="1120.173828" xlink:href="#DejaVuSans-110"/>
    <use x="1183.552734" xlink:href="#DejaVuSans-111"/>
    <use x="1244.734375" xlink:href="#DejaVuSans-114"/>
    <use x="1284.097656" xlink:href="#DejaVuSans-109"/>
    <use x="1381.509766" xlink:href="#DejaVuSans-115"/>
    <use x="1433.609375" xlink:href="#DejaVuSans-95"/>
    <use x="1483.609375" xlink:href="#DejaVuSans-72"/>
    <use x="1558.804688" xlink:href="#DejaVuSans-101"/>
    <use x="1620.328125" xlink:href="#DejaVuSans-97"/>
    <use x="1681.607422" xlink:href="#DejaVuSans-100"/>
    <use x="1745.083984" xlink:href="#DejaVuSans-46"/>
    <use x="1776.871094" xlink:href="#DejaVuSans-109"/>
    <use x="1874.283203" xlink:href="#DejaVuSans-101"/>
    <use x="1935.806641" xlink:href="#DejaVuSans-97"/>
    <use x="1997.085938" xlink:href="#DejaVuSans-110"/>
    <use x="2060.464844" xlink:href="#DejaVuSans-32"/>
    <use x="2092.251953" xlink:href="#DejaVuSans-91"/>
    <use x="2131.265625" xlink:href="#DejaVuSans-109"/>
    <use x="2228.677734" xlink:href="#DejaVuSans-111"/>
    <use x="2289.859375" xlink:href="#DejaVuSans-100"/>
    <use x="2353.335938" xlink:href="#DejaVuSans-101"/>
    <use x="2414.859375" xlink:href="#DejaVuSans-108"/>
    <use x="2442.642578" xlink:href="#DejaVuSans-58"/>
    <use x="2476.333984" xlink:href="#DejaVuSans-32"/>
    <use x="2508.121094" xlink:href="#DejaVuSans-108"/>
    <use x="2535.904297" xlink:href="#DejaVuSans-97"/>
    <use x="2597.183594" xlink:href="#DejaVuSans-110"/>
    <use x="2660.5625" xlink:href="#DejaVuSans-99"/>
    <use x="2715.542969" xlink:href="#DejaVuSans-97"/>
    <use x="2776.822266" xlink:href="#DejaVuSans-115"/>
    <use x="2828.921875" xlink:href="#DejaVuSans-116"/>
    <use x="2868.130859" xlink:href="#DejaVuSans-101"/>
    <use x="2929.654297" xlink:href="#DejaVuSans-114"/>
    <use x="2970.767578" xlink:href="#DejaVuSans-115"/>
    <use x="3022.867188" xlink:href="#DejaVuSans-101"/>
    <use x="3084.390625" xlink:href="#DejaVuSans-110"/>
    <use x="3147.769531" xlink:href="#DejaVuSans-115"/>
    <use x="3199.869141" xlink:href="#DejaVuSans-111"/>
    <use x="3261.050781" xlink:href="#DejaVuSans-114"/>
    <use x="3302.164062" xlink:href="#DejaVuSans-105"/>
    <use x="3329.947266" xlink:href="#DejaVuSans-109"/>
    <use x="3427.359375" xlink:href="#DejaVuSans-111"/>
    <use x="3488.541016" xlink:href="#DejaVuSans-116"/>
    <use x="3527.75" xlink:href="#DejaVuSans-111"/>
    <use x="3588.931641" xlink:href="#DejaVuSans-114"/>
    <use x="3628.294922" xlink:href="#DejaVuSans-110"/>
    <use x="3691.673828" xlink:href="#DejaVuSans-111"/>
    <use x="3752.855469" xlink:href="#DejaVuSans-114"/>
    <use x="3792.21875" xlink:href="#DejaVuSans-109"/>
    <use x="3889.630859" xlink:href="#DejaVuSans-115"/>
    <use x="3941.730469" xlink:href="#DejaVuSans-95"/>
    <use x="3991.730469" xlink:href="#DejaVuSans-72"/>
    <use x="4066.925781" xlink:href="#DejaVuSans-101"/>
    <use x="4128.449219" xlink:href="#DejaVuSans-97"/>
    <use x="4189.728516" xlink:href="#DejaVuSans-100"/>
    <use x="4253.205078" xlink:href="#DejaVuSans-46"/>
    <use x="4284.992188" xlink:href="#DejaVuSans-109"/>
    <use x="4382.404297" xlink:href="#DejaVuSans-101"/>
    <use x="4443.927734" xlink:href="#DejaVuSans-97"/>
    <use x="4505.207031" xlink:href="#DejaVuSans-110"/>
    <use x="4568.585938" xlink:href="#DejaVuSans-93"/>
   </g>
  </g>
  <g id="legend_1">
   <g id="text_14">
    <!-- ds_task -->
    <defs>
     <path d="M 9.078125 75.984375 
L 18.109375 75.984375 
L 18.109375 31.109375 
L 44.921875 54.6875 
L 56.390625 54.6875 
L 27.390625 29.109375 
L 57.625 0 
L 45.90625 0 
L 18.109375 26.703125 
L 18.109375 0 
L 9.078125 0 
z
" id="DejaVuSans-107"/>
    </defs>
    <g transform="translate(677.596345 107.860313)scale(0.1 -0.1)">
     <use xlink:href="#DejaVuSans-100"/>
     <use x="63.476562" xlink:href="#DejaVuSans-115"/>
     <use x="115.576172" xlink:href="#DejaVuSans-95"/>
     <use x="165.576172" xlink:href="#DejaVuSans-116"/>
     <use x="204.785156" xlink:href="#DejaVuSans-97"/>
     <use x="266.064453" xlink:href="#DejaVuSans-115"/>
     <use x="318.164062" xlink:href="#DejaVuSans-107"/>
    </g>
   </g>
   <g id="line2d_13">
    <path d="M 640.891657 119.316563 
L 660.891657 119.316563 
" style="fill:none;stroke:#1f77b4;stroke-linecap:square;stroke-width:1.5;"/>
   </g>
   <g id="line2d_14"/>
   <g id="text_15">
    <!-- Budapest_movie -->
    <defs>
     <path d="M 19.671875 34.8125 
L 19.671875 8.109375 
L 35.5 8.109375 
Q 43.453125 8.109375 47.28125 11.40625 
Q 51.125 14.703125 51.125 21.484375 
Q 51.125 28.328125 47.28125 31.5625 
Q 43.453125 34.8125 35.5 34.8125 
z
M 19.671875 64.796875 
L 19.671875 42.828125 
L 34.28125 42.828125 
Q 41.5 42.828125 45.03125 45.53125 
Q 48.578125 48.25 48.578125 53.8125 
Q 48.578125 59.328125 45.03125 62.0625 
Q 41.5 64.796875 34.28125 64.796875 
z
M 9.8125 72.90625 
L 35.015625 72.90625 
Q 46.296875 72.90625 52.390625 68.21875 
Q 58.5 63.53125 58.5 54.890625 
Q 58.5 48.1875 55.375 44.234375 
Q 52.25 40.28125 46.1875 39.3125 
Q 53.46875 37.75 57.5 32.78125 
Q 61.53125 27.828125 61.53125 20.40625 
Q 61.53125 10.640625 54.890625 5.3125 
Q 48.25 0 35.984375 0 
L 9.8125 0 
z
" id="DejaVuSans-66"/>
     <path d="M 18.109375 8.203125 
L 18.109375 -20.796875 
L 9.078125 -20.796875 
L 9.078125 54.6875 
L 18.109375 54.6875 
L 18.109375 46.390625 
Q 20.953125 51.265625 25.265625 53.625 
Q 29.59375 56 35.59375 56 
Q 45.5625 56 51.78125 48.09375 
Q 58.015625 40.1875 58.015625 27.296875 
Q 58.015625 14.40625 51.78125 6.484375 
Q 45.5625 -1.421875 35.59375 -1.421875 
Q 29.59375 -1.421875 25.265625 0.953125 
Q 20.953125 3.328125 18.109375 8.203125 
z
M 48.6875 27.296875 
Q 48.6875 37.203125 44.609375 42.84375 
Q 40.53125 48.484375 33.40625 48.484375 
Q 26.265625 48.484375 22.1875 42.84375 
Q 18.109375 37.203125 18.109375 27.296875 
Q 18.109375 17.390625 22.1875 11.75 
Q 26.265625 6.109375 33.40625 6.109375 
Q 40.53125 6.109375 44.609375 11.75 
Q 48.6875 17.390625 48.6875 27.296875 
z
" id="DejaVuSans-112"/>
    </defs>
    <g transform="translate(668.891657 122.816563)scale(0.1 -0.1)">
     <use xlink:href="#DejaVuSans-66"/>
     <use x="68.603516" xlink:href="#DejaVuSans-117"/>
     <use x="131.982422" xlink:href="#DejaVuSans-100"/>
     <use x="195.458984" xlink:href="#DejaVuSans-97"/>
     <use x="256.738281" xlink:href="#DejaVuSans-112"/>
     <use x="320.214844" xlink:href="#DejaVuSans-101"/>
     <use x="381.738281" xlink:href="#DejaVuSans-115"/>
     <use x="433.837891" xlink:href="#DejaVuSans-116"/>
     <use x="473.046875" xlink:href="#DejaVuSans-95"/>
     <use x="523.046875" xlink:href="#DejaVuSans-109"/>
     <use x="620.458984" xlink:href="#DejaVuSans-111"/>
     <use x="681.640625" xlink:href="#DejaVuSans-118"/>
     <use x="740.820312" xlink:href="#DejaVuSans-105"/>
     <use x="768.603516" xlink:href="#DejaVuSans-101"/>
    </g>
   </g>
  </g>
 </g>
 <defs>
  <clipPath id="pb7633d1cf7">
   <rect height="162.332495" width="611.727282" x="20.5625" y="25.547505"/>
  </clipPath>
 </defs>
</svg>
