<?xml version="1.0" encoding="utf-8" standalone="no"?>
<!DOCTYPE svg PUBLIC "-//W3C//DTD SVG 1.1//EN"
  "http://www.w3.org/Graphics/SVG/1.1/DTD/svg11.dtd">
<!-- Created with matplotlib (https://matplotlib.org/) -->
<svg height="92.270125pt" version="1.1" viewBox="0 0 856.820312 92.270125" width="856.820312pt" xmlns="http://www.w3.org/2000/svg" xmlns:xlink="http://www.w3.org/1999/xlink">
 <defs>
  <style type="text/css">
*{stroke-linecap:butt;stroke-linejoin:round;}
  </style>
 </defs>
 <g id="figure_1">
  <g id="patch_1">
   <path d="M 0 92.270125 
L 856.820312 92.270125 
L 856.820312 0 
L 0 0 
z
" style="fill:none;"/>
  </g>
  <g id="axes_1">
   <g id="patch_2">
    <path d="M 44.845313 68.392 
L 849.620313 68.392 
L 849.620313 34.592 
L 44.845313 34.592 
z
" style="fill:#ffffff;"/>
   </g>
   <g id="matplotlib.axis_1">
    <g id="xtick_1">
     <g id="line2d_1">
      <defs>
       <path d="M 0 0 
L 0 3.5 
" id="ma73fec5a1e" style="stroke:#000000;stroke-width:0.8;"/>
      </defs>
      <g>
       <use style="stroke:#000000;stroke-width:0.8;" x="81.425994" xlink:href="#ma73fec5a1e" y="68.392"/>
      </g>
     </g>
     <g id="text_1">
      <!-- 0 -->
      <defs>
       <path d="M 31.78125 66.40625 
Q 24.171875 66.40625 20.328125 58.90625 
Q 16.5 51.421875 16.5 36.375 
Q 16.5 21.390625 20.328125 13.890625 
Q 24.171875 6.390625 31.78125 6.390625 
Q 39.453125 6.390625 43.28125 13.890625 
Q 47.125 21.390625 47.125 36.375 
Q 47.125 51.421875 43.28125 58.90625 
Q 39.453125 66.40625 31.78125 66.40625 
z
M 31.78125 74.21875 
Q 44.046875 74.21875 50.515625 64.515625 
Q 56.984375 54.828125 56.984375 36.375 
Q 56.984375 17.96875 50.515625 8.265625 
Q 44.046875 -1.421875 31.78125 -1.421875 
Q 19.53125 -1.421875 13.0625 8.265625 
Q 6.59375 17.96875 6.59375 36.375 
Q 6.59375 54.828125 13.0625 64.515625 
Q 19.53125 74.21875 31.78125 74.21875 
z
" id="DejaVuSans-48"/>
      </defs>
      <g transform="translate(78.244744 82.990437)scale(0.1 -0.1)">
       <use xlink:href="#DejaVuSans-48"/>
      </g>
     </g>
    </g>
    <g id="xtick_2">
     <g id="line2d_2">
      <g>
       <use style="stroke:#000000;stroke-width:0.8;" x="218.432293" xlink:href="#ma73fec5a1e" y="68.392"/>
      </g>
     </g>
     <g id="text_2">
      <!-- 100 -->
      <defs>
       <path d="M 12.40625 8.296875 
L 28.515625 8.296875 
L 28.515625 63.921875 
L 10.984375 60.40625 
L 10.984375 69.390625 
L 28.421875 72.90625 
L 38.28125 72.90625 
L 38.28125 8.296875 
L 54.390625 8.296875 
L 54.390625 0 
L 12.40625 0 
z
" id="DejaVuSans-49"/>
      </defs>
      <g transform="translate(208.888543 82.990437)scale(0.1 -0.1)">
       <use xlink:href="#DejaVuSans-49"/>
       <use x="63.623047" xlink:href="#DejaVuSans-48"/>
       <use x="127.246094" xlink:href="#DejaVuSans-48"/>
      </g>
     </g>
    </g>
    <g id="xtick_3">
     <g id="line2d_3">
      <g>
       <use style="stroke:#000000;stroke-width:0.8;" x="355.438592" xlink:href="#ma73fec5a1e" y="68.392"/>
      </g>
     </g>
     <g id="text_3">
      <!-- 200 -->
      <defs>
       <path d="M 19.1875 8.296875 
L 53.609375 8.296875 
L 53.609375 0 
L 7.328125 0 
L 7.328125 8.296875 
Q 12.9375 14.109375 22.625 23.890625 
Q 32.328125 33.6875 34.8125 36.53125 
Q 39.546875 41.84375 41.421875 45.53125 
Q 43.3125 49.21875 43.3125 52.78125 
Q 43.3125 58.59375 39.234375 62.25 
Q 35.15625 65.921875 28.609375 65.921875 
Q 23.96875 65.921875 18.8125 64.3125 
Q 13.671875 62.703125 7.8125 59.421875 
L 7.8125 69.390625 
Q 13.765625 71.78125 18.9375 73 
Q 24.125 74.21875 28.421875 74.21875 
Q 39.75 74.21875 46.484375 68.546875 
Q 53.21875 62.890625 53.21875 53.421875 
Q 53.21875 48.921875 51.53125 44.890625 
Q 49.859375 40.875 45.40625 35.40625 
Q 44.1875 33.984375 37.640625 27.21875 
Q 31.109375 20.453125 19.1875 8.296875 
z
" id="DejaVuSans-50"/>
      </defs>
      <g transform="translate(345.894842 82.990437)scale(0.1 -0.1)">
       <use xlink:href="#DejaVuSans-50"/>
       <use x="63.623047" xlink:href="#DejaVuSans-48"/>
       <use x="127.246094" xlink:href="#DejaVuSans-48"/>
      </g>
     </g>
    </g>
    <g id="xtick_4">
     <g id="line2d_4">
      <g>
       <use style="stroke:#000000;stroke-width:0.8;" x="492.444891" xlink:href="#ma73fec5a1e" y="68.392"/>
      </g>
     </g>
     <g id="text_4">
      <!-- 300 -->
      <defs>
       <path d="M 40.578125 39.3125 
Q 47.65625 37.796875 51.625 33 
Q 55.609375 28.21875 55.609375 21.1875 
Q 55.609375 10.40625 48.1875 4.484375 
Q 40.765625 -1.421875 27.09375 -1.421875 
Q 22.515625 -1.421875 17.65625 -0.515625 
Q 12.796875 0.390625 7.625 2.203125 
L 7.625 11.71875 
Q 11.71875 9.328125 16.59375 8.109375 
Q 21.484375 6.890625 26.8125 6.890625 
Q 36.078125 6.890625 40.9375 10.546875 
Q 45.796875 14.203125 45.796875 21.1875 
Q 45.796875 27.640625 41.28125 31.265625 
Q 36.765625 34.90625 28.71875 34.90625 
L 20.21875 34.90625 
L 20.21875 43.015625 
L 29.109375 43.015625 
Q 36.375 43.015625 40.234375 45.921875 
Q 44.09375 48.828125 44.09375 54.296875 
Q 44.09375 59.90625 40.109375 62.90625 
Q 36.140625 65.921875 28.71875 65.921875 
Q 24.65625 65.921875 20.015625 65.03125 
Q 15.375 64.15625 9.8125 62.3125 
L 9.8125 71.09375 
Q 15.4375 72.65625 20.34375 73.4375 
Q 25.25 74.21875 29.59375 74.21875 
Q 40.828125 74.21875 47.359375 69.109375 
Q 53.90625 64.015625 53.90625 55.328125 
Q 53.90625 49.265625 50.4375 45.09375 
Q 46.96875 40.921875 40.578125 39.3125 
z
" id="DejaVuSans-51"/>
      </defs>
      <g transform="translate(482.901141 82.990437)scale(0.1 -0.1)">
       <use xlink:href="#DejaVuSans-51"/>
       <use x="63.623047" xlink:href="#DejaVuSans-48"/>
       <use x="127.246094" xlink:href="#DejaVuSans-48"/>
      </g>
     </g>
    </g>
    <g id="xtick_5">
     <g id="line2d_5">
      <g>
       <use style="stroke:#000000;stroke-width:0.8;" x="629.45119" xlink:href="#ma73fec5a1e" y="68.392"/>
      </g>
     </g>
     <g id="text_5">
      <!-- 400 -->
      <defs>
       <path d="M 37.796875 64.3125 
L 12.890625 25.390625 
L 37.796875 25.390625 
z
M 35.203125 72.90625 
L 47.609375 72.90625 
L 47.609375 25.390625 
L 58.015625 25.390625 
L 58.015625 17.1875 
L 47.609375 17.1875 
L 47.609375 0 
L 37.796875 0 
L 37.796875 17.1875 
L 4.890625 17.1875 
L 4.890625 26.703125 
z
" id="DejaVuSans-52"/>
      </defs>
      <g transform="translate(619.90744 82.990437)scale(0.1 -0.1)">
       <use xlink:href="#DejaVuSans-52"/>
       <use x="63.623047" xlink:href="#DejaVuSans-48"/>
       <use x="127.246094" xlink:href="#DejaVuSans-48"/>
      </g>
     </g>
    </g>
    <g id="xtick_6">
     <g id="line2d_6">
      <g>
       <use style="stroke:#000000;stroke-width:0.8;" x="766.457489" xlink:href="#ma73fec5a1e" y="68.392"/>
      </g>
     </g>
     <g id="text_6">
      <!-- 500 -->
      <defs>
       <path d="M 10.796875 72.90625 
L 49.515625 72.90625 
L 49.515625 64.59375 
L 19.828125 64.59375 
L 19.828125 46.734375 
Q 21.96875 47.46875 24.109375 47.828125 
Q 26.265625 48.1875 28.421875 48.1875 
Q 40.625 48.1875 47.75 41.5 
Q 54.890625 34.8125 54.890625 23.390625 
Q 54.890625 11.625 47.5625 5.09375 
Q 40.234375 -1.421875 26.90625 -1.421875 
Q 22.3125 -1.421875 17.546875 -0.640625 
Q 12.796875 0.140625 7.71875 1.703125 
L 7.71875 11.625 
Q 12.109375 9.234375 16.796875 8.0625 
Q 21.484375 6.890625 26.703125 6.890625 
Q 35.15625 6.890625 40.078125 11.328125 
Q 45.015625 15.765625 45.015625 23.390625 
Q 45.015625 31 40.078125 35.4375 
Q 35.15625 39.890625 26.703125 39.890625 
Q 22.75 39.890625 18.8125 39.015625 
Q 14.890625 38.140625 10.796875 36.28125 
z
" id="DejaVuSans-53"/>
      </defs>
      <g transform="translate(756.913739 82.990437)scale(0.1 -0.1)">
       <use xlink:href="#DejaVuSans-53"/>
       <use x="63.623047" xlink:href="#DejaVuSans-48"/>
       <use x="127.246094" xlink:href="#DejaVuSans-48"/>
      </g>
     </g>
    </g>
   </g>
   <g id="matplotlib.axis_2">
    <g id="ytick_1">
     <g id="line2d_7">
      <defs>
       <path d="M 0 0 
L -3.5 0 
" id="m2b05b8338a" style="stroke:#000000;stroke-width:0.8;"/>
      </defs>
      <g>
       <use style="stroke:#000000;stroke-width:0.8;" x="44.845313" xlink:href="#m2b05b8338a" y="62.623116"/>
      </g>
     </g>
     <g id="text_7">
      <!-- −0.25 -->
      <defs>
       <path d="M 10.59375 35.5 
L 73.1875 35.5 
L 73.1875 27.203125 
L 10.59375 27.203125 
z
" id="DejaVuSans-8722"/>
       <path d="M 10.6875 12.40625 
L 21 12.40625 
L 21 0 
L 10.6875 0 
z
" id="DejaVuSans-46"/>
      </defs>
      <g transform="translate(7.2 66.422335)scale(0.1 -0.1)">
       <use xlink:href="#DejaVuSans-8722"/>
       <use x="83.789062" xlink:href="#DejaVuSans-48"/>
       <use x="147.412109" xlink:href="#DejaVuSans-46"/>
       <use x="179.199219" xlink:href="#DejaVuSans-50"/>
       <use x="242.822266" xlink:href="#DejaVuSans-53"/>
      </g>
     </g>
    </g>
    <g id="ytick_2">
     <g id="line2d_8">
      <g>
       <use style="stroke:#000000;stroke-width:0.8;" x="44.845313" xlink:href="#m2b05b8338a" y="52.831817"/>
      </g>
     </g>
     <g id="text_8">
      <!-- 0.00 -->
      <g transform="translate(15.579688 56.631035)scale(0.1 -0.1)">
       <use xlink:href="#DejaVuSans-48"/>
       <use x="63.623047" xlink:href="#DejaVuSans-46"/>
       <use x="95.410156" xlink:href="#DejaVuSans-48"/>
       <use x="159.033203" xlink:href="#DejaVuSans-48"/>
      </g>
     </g>
    </g>
    <g id="ytick_3">
     <g id="line2d_9">
      <g>
       <use style="stroke:#000000;stroke-width:0.8;" x="44.845313" xlink:href="#m2b05b8338a" y="43.040517"/>
      </g>
     </g>
     <g id="text_9">
      <!-- 0.25 -->
      <g transform="translate(15.579688 46.839736)scale(0.1 -0.1)">
       <use xlink:href="#DejaVuSans-48"/>
       <use x="63.623047" xlink:href="#DejaVuSans-46"/>
       <use x="95.410156" xlink:href="#DejaVuSans-50"/>
       <use x="159.033203" xlink:href="#DejaVuSans-53"/>
      </g>
     </g>
    </g>
   </g>
   <g id="line2d_10">
    <path clip-path="url(#pa54e1ea4ec)" d="M 81.425994 52.831817 
L 99.236813 52.850708 
L 100.606876 53.291691 
L 103.347002 55.513915 
L 106.087128 58.101851 
L 107.457191 58.59397 
L 108.827254 58.630296 
L 110.197317 57.697879 
L 111.56738 54.175254 
L 112.937443 49.531589 
L 114.307506 45.657701 
L 115.677569 43.601273 
L 117.047632 44.330946 
L 118.417695 46.917395 
L 119.787758 49.231027 
L 121.157821 50.552172 
L 122.527884 51.244114 
L 126.638073 52.586989 
L 129.378199 53.151496 
L 132.118325 53.306286 
L 136.228514 53.163902 
L 145.818955 52.675182 
L 147.189018 52.416529 
L 148.559081 52.573037 
L 151.299207 53.246915 
L 154.039333 54.635069 
L 155.409396 54.230725 
L 156.779459 53.126554 
L 158.149522 50.726116 
L 159.519585 45.412964 
L 160.889648 39.292427 
L 162.259711 36.157689 
L 163.629774 37.627973 
L 164.999837 41.19589 
L 166.3699 44.288683 
L 167.739963 46.534881 
L 169.110026 46.928714 
L 170.480089 45.709442 
L 171.850152 45.357638 
L 174.590278 48.996507 
L 175.960341 48.662259 
L 178.700467 46.238406 
L 180.07053 44.721139 
L 181.440593 43.477386 
L 182.810656 42.770737 
L 184.180719 43.009121 
L 185.550782 44.877835 
L 186.920845 48.181224 
L 189.66097 55.654775 
L 191.031033 58.228727 
L 192.401096 59.096012 
L 193.771159 58.094743 
L 195.141222 55.196712 
L 197.881348 47.444618 
L 199.251411 45.030546 
L 200.621474 44.685994 
L 201.991537 46.163576 
L 204.731663 50.738086 
L 206.101726 52.141983 
L 207.471789 51.368448 
L 208.841852 47.260747 
L 210.211915 41.263036 
L 211.581978 37.153717 
L 212.952041 36.833203 
L 214.322104 39.569391 
L 215.692167 43.699724 
L 217.06223 47.409872 
L 218.432293 49.888636 
L 219.802356 51.547649 
L 221.172419 52.777083 
L 222.542482 53.588991 
L 223.912545 53.645984 
L 225.282608 52.845147 
L 226.652671 51.757213 
L 228.022734 51.061652 
L 229.392797 50.956728 
L 230.76286 51.268312 
L 233.502986 52.189926 
L 236.243112 52.807136 
L 238.983238 53.091091 
L 243.093427 53.170413 
L 248.573679 53.002839 
L 249.943742 52.787347 
L 251.313805 51.818315 
L 254.053931 47.415941 
L 255.423994 46.718756 
L 258.16412 48.424093 
L 260.904246 48.008014 
L 262.274309 48.736491 
L 263.644372 48.888983 
L 266.384498 47.086539 
L 267.754561 45.929458 
L 269.124624 45.023742 
L 270.494687 45.767221 
L 271.86475 47.986346 
L 273.234813 50.515988 
L 274.604876 52.493296 
L 275.974939 53.66452 
L 277.345002 54.219567 
L 278.715065 54.41017 
L 280.085128 54.159207 
L 281.455191 54.073768 
L 282.825254 55.274838 
L 288.305506 63.166496 
L 289.675569 64.645091 
L 291.045632 64.74857 
L 292.415695 63.226535 
L 293.785758 60.846724 
L 295.155821 59.390276 
L 296.525884 58.934527 
L 299.26601 57.542686 
L 300.636073 57.914883 
L 302.006136 59.318036 
L 303.376199 60.464993 
L 304.746262 59.742326 
L 306.116325 57.361513 
L 307.486388 55.504658 
L 308.856451 55.553349 
L 310.226514 57.399791 
L 311.596577 59.713976 
L 312.96664 61.085492 
L 314.336703 61.478707 
L 315.706766 61.474036 
L 317.076829 61.205609 
L 319.816954 59.827415 
L 322.55708 59.325109 
L 323.927143 58.668497 
L 325.297206 57.463006 
L 328.037332 54.41497 
L 330.777458 50.44962 
L 332.147521 48.749047 
L 333.517584 47.614522 
L 334.887647 47.098131 
L 336.25771 46.301856 
L 337.627773 45.221401 
L 338.997836 44.865012 
L 340.367899 45.820842 
L 341.737962 47.921988 
L 344.478088 53.23506 
L 345.848151 54.612214 
L 347.218214 54.494442 
L 349.95834 52.903922 
L 351.328403 52.484025 
L 352.698466 52.570636 
L 355.438592 53.917265 
L 356.808655 54.086458 
L 358.178718 53.242866 
L 359.548781 50.502524 
L 360.918844 46.408015 
L 362.288907 43.026049 
L 363.65897 40.731329 
L 365.029033 39.126459 
L 366.399096 38.890398 
L 367.769159 40.343999 
L 369.139222 42.992417 
L 371.879348 49.453272 
L 373.249411 52.177948 
L 374.619474 54.289336 
L 375.989537 55.662699 
L 377.3596 56.265916 
L 380.099726 56.511129 
L 382.839852 57.346048 
L 384.209915 57.305335 
L 385.579978 56.239133 
L 386.950041 54.441728 
L 388.320104 53.138784 
L 389.690167 52.999882 
L 391.06023 53.885423 
L 392.430293 55.153299 
L 393.800356 56.0007 
L 395.170419 56.275558 
L 396.540482 56.757045 
L 397.910545 57.74972 
L 399.280608 58.550575 
L 400.650671 59.04328 
L 402.020734 60.063408 
L 403.390797 61.382782 
L 404.76086 62.228042 
L 406.130923 62.569167 
L 407.500986 62.410864 
L 408.871049 61.320336 
L 410.241112 58.98031 
L 411.611175 55.833216 
L 412.981238 53.009615 
L 414.351301 51.737169 
L 415.721364 52.088885 
L 418.46149 54.057525 
L 419.831553 54.667442 
L 421.201616 54.832569 
L 422.571679 54.635163 
L 423.941742 54.223974 
L 425.311805 54.061593 
L 426.681868 55.083356 
L 428.051931 57.069164 
L 429.421994 58.689677 
L 430.792057 59.560028 
L 432.16212 59.916224 
L 433.532183 59.718536 
L 434.902246 59.021519 
L 436.272309 57.946402 
L 437.642372 56.552966 
L 440.382498 53.547722 
L 441.752561 52.553898 
L 443.122624 52.424553 
L 444.492687 53.801399 
L 447.232812 59.837387 
L 448.602875 61.621254 
L 449.972938 61.608041 
L 451.343001 60.608693 
L 454.083127 58.1832 
L 456.823253 55.29161 
L 458.193316 54.072249 
L 459.563379 53.154479 
L 460.933442 52.530227 
L 462.303505 52.2961 
L 463.673568 52.837771 
L 465.043631 54.28702 
L 469.15382 59.68454 
L 470.523883 60.745235 
L 471.893946 60.873303 
L 473.264009 60.209199 
L 474.634072 58.57724 
L 476.004135 55.997006 
L 477.374198 53.808966 
L 478.744261 53.116622 
L 480.114324 54.002712 
L 481.484387 56.208599 
L 484.224513 61.68065 
L 485.594576 63.731663 
L 486.964639 65.279477 
L 488.334702 66.436746 
L 489.704765 66.855636 
L 491.074828 65.951564 
L 492.444891 63.784876 
L 495.185017 58.155032 
L 496.55508 55.77319 
L 499.295206 52.057876 
L 500.665269 50.290794 
L 502.035332 49.099698 
L 503.405395 48.639893 
L 504.775458 48.602711 
L 506.145521 48.815071 
L 507.515584 49.425187 
L 510.25571 51.34567 
L 511.625773 51.010216 
L 512.995836 49.624109 
L 514.365899 48.916443 
L 515.735962 49.799213 
L 517.106025 51.434419 
L 518.476088 51.612315 
L 519.846151 50.551381 
L 521.216214 49.974337 
L 522.586277 50.381391 
L 523.95634 51.468739 
L 528.066529 55.841168 
L 529.436592 57.773776 
L 530.806655 59.457284 
L 532.176718 59.956752 
L 533.546781 59.447488 
L 534.916844 58.638138 
L 536.286907 57.347528 
L 539.027033 53.37914 
L 540.397096 51.997777 
L 541.767159 51.548325 
L 543.137222 51.828247 
L 544.507285 52.315012 
L 545.877348 52.578095 
L 547.247411 52.234652 
L 548.617474 51.470401 
L 549.987537 50.86658 
L 551.3576 50.713029 
L 552.727663 50.98433 
L 554.097726 51.99409 
L 556.837852 55.556273 
L 558.207915 56.44636 
L 559.577978 56.423467 
L 560.948041 55.860616 
L 562.318104 54.680722 
L 565.05823 51.050916 
L 566.428293 50.533628 
L 567.798356 51.290724 
L 569.168419 52.196776 
L 570.538482 52.733267 
L 571.908545 52.997549 
L 574.648671 53.113607 
L 576.018734 52.749857 
L 578.758859 50.910838 
L 580.128922 50.576944 
L 581.498985 50.761709 
L 585.609174 52.111019 
L 588.3493 52.654475 
L 591.089426 52.918448 
L 595.199615 53.023047 
L 602.04993 53.080264 
L 606.160119 54.154624 
L 607.530182 53.922853 
L 610.270308 51.932073 
L 611.640371 52.034245 
L 614.380497 54.396357 
L 615.75056 53.817481 
L 618.490686 48.82484 
L 619.860749 47.696711 
L 621.230812 47.890468 
L 622.600875 48.817067 
L 625.341001 50.923499 
L 628.081127 52.615881 
L 629.45119 54.357231 
L 632.191316 60.81003 
L 633.561379 62.655833 
L 634.931442 62.52903 
L 636.301505 61.022566 
L 639.041631 57.004982 
L 640.411694 55.371373 
L 641.781757 54.134974 
L 643.15182 53.251426 
L 644.521883 52.651908 
L 645.891946 52.274312 
L 647.262009 52.068883 
L 650.002135 52.00965 
L 655.482387 52.428867 
L 659.592576 52.681492 
L 662.332702 52.764164 
L 663.702765 51.577123 
L 665.072828 46.788089 
L 666.442891 40.427499 
L 667.812954 36.429138 
L 669.183017 36.128364 
L 670.55308 38.529366 
L 673.293206 45.747984 
L 674.663269 46.917523 
L 676.033332 45.286134 
L 677.403395 43.867184 
L 678.773458 44.620801 
L 680.143521 46.924825 
L 681.513584 49.520386 
L 682.883647 49.662777 
L 684.25371 46.069086 
L 685.623773 41.875418 
L 686.993836 39.958063 
L 688.363899 40.775806 
L 689.733962 43.814977 
L 692.474088 52.748478 
L 693.844151 55.78466 
L 695.214214 57.165414 
L 696.584277 57.336536 
L 697.95434 56.874824 
L 702.064529 54.883953 
L 704.804655 54.244514 
L 706.174718 54.285752 
L 707.54478 54.706711 
L 708.914843 54.914682 
L 710.284906 54.762176 
L 711.654969 54.407271 
L 715.765158 53.679366 
L 718.505284 51.848377 
L 719.875347 51.926262 
L 721.24541 53.015183 
L 722.615473 54.818888 
L 725.355599 59.176079 
L 726.725662 61.095144 
L 728.095725 62.748537 
L 729.465788 63.719398 
L 730.835851 63.414922 
L 732.205914 61.898744 
L 736.316103 55.451174 
L 737.686166 52.389774 
L 740.426292 44.846122 
L 741.796355 43.239699 
L 743.166418 44.126239 
L 744.536481 45.974345 
L 745.906544 46.783113 
L 747.276607 46.405531 
L 750.016733 45.920659 
L 751.386796 44.749388 
L 752.756859 42.72539 
L 754.126922 41.623454 
L 755.496985 41.548237 
L 756.867048 41.237976 
L 758.237111 41.449428 
L 759.607174 43.112233 
L 760.977237 46.543558 
L 763.717363 56.512799 
L 765.087426 59.527294 
L 767.827552 62.446706 
L 769.197615 64.260383 
L 770.567678 65.389071 
L 771.937741 64.955474 
L 773.307804 63.052138 
L 776.04793 57.641895 
L 777.417993 55.346937 
L 778.788056 53.648193 
L 780.158119 53.122003 
L 782.898245 53.486909 
L 787.008434 54.57845 
L 789.74856 55.952106 
L 791.118623 56.18483 
L 792.488686 55.55285 
L 793.858749 53.867246 
L 795.228812 51.897703 
L 796.598875 50.537042 
L 797.968938 50.037234 
L 799.339001 50.180374 
L 804.819253 52.006512 
L 807.559379 52.5471 
L 810.299505 52.846748 
L 813.039631 52.966627 
L 813.039631 52.966627 
" style="fill:none;stroke:#1f77b4;stroke-linecap:square;stroke-width:1.5;"/>
   </g>
   <g id="patch_3">
    <path d="M 44.845313 68.392 
L 44.845313 34.592 
" style="fill:none;stroke:#000000;stroke-linecap:square;stroke-linejoin:miter;stroke-width:0.8;"/>
   </g>
   <g id="patch_4">
    <path d="M 44.845313 68.392 
L 849.620312 68.392 
" style="fill:none;stroke:#000000;stroke-linecap:square;stroke-linejoin:miter;stroke-width:0.8;"/>
   </g>
   <g id="text_10">
    <!-- Budapest_movie -->
    <defs>
     <path d="M 19.671875 34.8125 
L 19.671875 8.109375 
L 35.5 8.109375 
Q 43.453125 8.109375 47.28125 11.40625 
Q 51.125 14.703125 51.125 21.484375 
Q 51.125 28.328125 47.28125 31.5625 
Q 43.453125 34.8125 35.5 34.8125 
z
M 19.671875 64.796875 
L 19.671875 42.828125 
L 34.28125 42.828125 
Q 41.5 42.828125 45.03125 45.53125 
Q 48.578125 48.25 48.578125 53.8125 
Q 48.578125 59.328125 45.03125 62.0625 
Q 41.5 64.796875 34.28125 64.796875 
z
M 9.8125 72.90625 
L 35.015625 72.90625 
Q 46.296875 72.90625 52.390625 68.21875 
Q 58.5 63.53125 58.5 54.890625 
Q 58.5 48.1875 55.375 44.234375 
Q 52.25 40.28125 46.1875 39.3125 
Q 53.46875 37.75 57.5 32.78125 
Q 61.53125 27.828125 61.53125 20.40625 
Q 61.53125 10.640625 54.890625 5.3125 
Q 48.25 0 35.984375 0 
L 9.8125 0 
z
" id="DejaVuSans-66"/>
     <path d="M 8.5 21.578125 
L 8.5 54.6875 
L 17.484375 54.6875 
L 17.484375 21.921875 
Q 17.484375 14.15625 20.5 10.265625 
Q 23.53125 6.390625 29.59375 6.390625 
Q 36.859375 6.390625 41.078125 11.03125 
Q 45.3125 15.671875 45.3125 23.6875 
L 45.3125 54.6875 
L 54.296875 54.6875 
L 54.296875 0 
L 45.3125 0 
L 45.3125 8.40625 
Q 42.046875 3.421875 37.71875 1 
Q 33.40625 -1.421875 27.6875 -1.421875 
Q 18.265625 -1.421875 13.375 4.4375 
Q 8.5 10.296875 8.5 21.578125 
z
M 31.109375 56 
z
" id="DejaVuSans-117"/>
     <path d="M 45.40625 46.390625 
L 45.40625 75.984375 
L 54.390625 75.984375 
L 54.390625 0 
L 45.40625 0 
L 45.40625 8.203125 
Q 42.578125 3.328125 38.25 0.953125 
Q 33.9375 -1.421875 27.875 -1.421875 
Q 17.96875 -1.421875 11.734375 6.484375 
Q 5.515625 14.40625 5.515625 27.296875 
Q 5.515625 40.1875 11.734375 48.09375 
Q 17.96875 56 27.875 56 
Q 33.9375 56 38.25 53.625 
Q 42.578125 51.265625 45.40625 46.390625 
z
M 14.796875 27.296875 
Q 14.796875 17.390625 18.875 11.75 
Q 22.953125 6.109375 30.078125 6.109375 
Q 37.203125 6.109375 41.296875 11.75 
Q 45.40625 17.390625 45.40625 27.296875 
Q 45.40625 37.203125 41.296875 42.84375 
Q 37.203125 48.484375 30.078125 48.484375 
Q 22.953125 48.484375 18.875 42.84375 
Q 14.796875 37.203125 14.796875 27.296875 
z
" id="DejaVuSans-100"/>
     <path d="M 34.28125 27.484375 
Q 23.390625 27.484375 19.1875 25 
Q 14.984375 22.515625 14.984375 16.5 
Q 14.984375 11.71875 18.140625 8.90625 
Q 21.296875 6.109375 26.703125 6.109375 
Q 34.1875 6.109375 38.703125 11.40625 
Q 43.21875 16.703125 43.21875 25.484375 
L 43.21875 27.484375 
z
M 52.203125 31.203125 
L 52.203125 0 
L 43.21875 0 
L 43.21875 8.296875 
Q 40.140625 3.328125 35.546875 0.953125 
Q 30.953125 -1.421875 24.3125 -1.421875 
Q 15.921875 -1.421875 10.953125 3.296875 
Q 6 8.015625 6 15.921875 
Q 6 25.140625 12.171875 29.828125 
Q 18.359375 34.515625 30.609375 34.515625 
L 43.21875 34.515625 
L 43.21875 35.40625 
Q 43.21875 41.609375 39.140625 45 
Q 35.0625 48.390625 27.6875 48.390625 
Q 23 48.390625 18.546875 47.265625 
Q 14.109375 46.140625 10.015625 43.890625 
L 10.015625 52.203125 
Q 14.9375 54.109375 19.578125 55.046875 
Q 24.21875 56 28.609375 56 
Q 40.484375 56 46.34375 49.84375 
Q 52.203125 43.703125 52.203125 31.203125 
z
" id="DejaVuSans-97"/>
     <path d="M 18.109375 8.203125 
L 18.109375 -20.796875 
L 9.078125 -20.796875 
L 9.078125 54.6875 
L 18.109375 54.6875 
L 18.109375 46.390625 
Q 20.953125 51.265625 25.265625 53.625 
Q 29.59375 56 35.59375 56 
Q 45.5625 56 51.78125 48.09375 
Q 58.015625 40.1875 58.015625 27.296875 
Q 58.015625 14.40625 51.78125 6.484375 
Q 45.5625 -1.421875 35.59375 -1.421875 
Q 29.59375 -1.421875 25.265625 0.953125 
Q 20.953125 3.328125 18.109375 8.203125 
z
M 48.6875 27.296875 
Q 48.6875 37.203125 44.609375 42.84375 
Q 40.53125 48.484375 33.40625 48.484375 
Q 26.265625 48.484375 22.1875 42.84375 
Q 18.109375 37.203125 18.109375 27.296875 
Q 18.109375 17.390625 22.1875 11.75 
Q 26.265625 6.109375 33.40625 6.109375 
Q 40.53125 6.109375 44.609375 11.75 
Q 48.6875 17.390625 48.6875 27.296875 
z
" id="DejaVuSans-112"/>
     <path d="M 56.203125 29.59375 
L 56.203125 25.203125 
L 14.890625 25.203125 
Q 15.484375 15.921875 20.484375 11.0625 
Q 25.484375 6.203125 34.421875 6.203125 
Q 39.59375 6.203125 44.453125 7.46875 
Q 49.3125 8.734375 54.109375 11.28125 
L 54.109375 2.78125 
Q 49.265625 0.734375 44.1875 -0.34375 
Q 39.109375 -1.421875 33.890625 -1.421875 
Q 20.796875 -1.421875 13.15625 6.1875 
Q 5.515625 13.8125 5.515625 26.8125 
Q 5.515625 40.234375 12.765625 48.109375 
Q 20.015625 56 32.328125 56 
Q 43.359375 56 49.78125 48.890625 
Q 56.203125 41.796875 56.203125 29.59375 
z
M 47.21875 32.234375 
Q 47.125 39.59375 43.09375 43.984375 
Q 39.0625 48.390625 32.421875 48.390625 
Q 24.90625 48.390625 20.390625 44.140625 
Q 15.875 39.890625 15.1875 32.171875 
z
" id="DejaVuSans-101"/>
     <path d="M 44.28125 53.078125 
L 44.28125 44.578125 
Q 40.484375 46.53125 36.375 47.5 
Q 32.28125 48.484375 27.875 48.484375 
Q 21.1875 48.484375 17.84375 46.4375 
Q 14.5 44.390625 14.5 40.28125 
Q 14.5 37.15625 16.890625 35.375 
Q 19.28125 33.59375 26.515625 31.984375 
L 29.59375 31.296875 
Q 39.15625 29.25 43.1875 25.515625 
Q 47.21875 21.78125 47.21875 15.09375 
Q 47.21875 7.46875 41.1875 3.015625 
Q 35.15625 -1.421875 24.609375 -1.421875 
Q 20.21875 -1.421875 15.453125 -0.5625 
Q 10.6875 0.296875 5.421875 2 
L 5.421875 11.28125 
Q 10.40625 8.6875 15.234375 7.390625 
Q 20.0625 6.109375 24.8125 6.109375 
Q 31.15625 6.109375 34.5625 8.28125 
Q 37.984375 10.453125 37.984375 14.40625 
Q 37.984375 18.0625 35.515625 20.015625 
Q 33.0625 21.96875 24.703125 23.78125 
L 21.578125 24.515625 
Q 13.234375 26.265625 9.515625 29.90625 
Q 5.8125 33.546875 5.8125 39.890625 
Q 5.8125 47.609375 11.28125 51.796875 
Q 16.75 56 26.8125 56 
Q 31.78125 56 36.171875 55.265625 
Q 40.578125 54.546875 44.28125 53.078125 
z
" id="DejaVuSans-115"/>
     <path d="M 18.3125 70.21875 
L 18.3125 54.6875 
L 36.8125 54.6875 
L 36.8125 47.703125 
L 18.3125 47.703125 
L 18.3125 18.015625 
Q 18.3125 11.328125 20.140625 9.421875 
Q 21.96875 7.515625 27.59375 7.515625 
L 36.8125 7.515625 
L 36.8125 0 
L 27.59375 0 
Q 17.1875 0 13.234375 3.875 
Q 9.28125 7.765625 9.28125 18.015625 
L 9.28125 47.703125 
L 2.6875 47.703125 
L 2.6875 54.6875 
L 9.28125 54.6875 
L 9.28125 70.21875 
z
" id="DejaVuSans-116"/>
     <path d="M 50.984375 -16.609375 
L 50.984375 -23.578125 
L -0.984375 -23.578125 
L -0.984375 -16.609375 
z
" id="DejaVuSans-95"/>
     <path d="M 52 44.1875 
Q 55.375 50.25 60.0625 53.125 
Q 64.75 56 71.09375 56 
Q 79.640625 56 84.28125 50.015625 
Q 88.921875 44.046875 88.921875 33.015625 
L 88.921875 0 
L 79.890625 0 
L 79.890625 32.71875 
Q 79.890625 40.578125 77.09375 44.375 
Q 74.3125 48.1875 68.609375 48.1875 
Q 61.625 48.1875 57.5625 43.546875 
Q 53.515625 38.921875 53.515625 30.90625 
L 53.515625 0 
L 44.484375 0 
L 44.484375 32.71875 
Q 44.484375 40.625 41.703125 44.40625 
Q 38.921875 48.1875 33.109375 48.1875 
Q 26.21875 48.1875 22.15625 43.53125 
Q 18.109375 38.875 18.109375 30.90625 
L 18.109375 0 
L 9.078125 0 
L 9.078125 54.6875 
L 18.109375 54.6875 
L 18.109375 46.1875 
Q 21.1875 51.21875 25.484375 53.609375 
Q 29.78125 56 35.6875 56 
Q 41.65625 56 45.828125 52.96875 
Q 50 49.953125 52 44.1875 
z
" id="DejaVuSans-109"/>
     <path d="M 30.609375 48.390625 
Q 23.390625 48.390625 19.1875 42.75 
Q 14.984375 37.109375 14.984375 27.296875 
Q 14.984375 17.484375 19.15625 11.84375 
Q 23.34375 6.203125 30.609375 6.203125 
Q 37.796875 6.203125 41.984375 11.859375 
Q 46.1875 17.53125 46.1875 27.296875 
Q 46.1875 37.015625 41.984375 42.703125 
Q 37.796875 48.390625 30.609375 48.390625 
z
M 30.609375 56 
Q 42.328125 56 49.015625 48.375 
Q 55.71875 40.765625 55.71875 27.296875 
Q 55.71875 13.875 49.015625 6.21875 
Q 42.328125 -1.421875 30.609375 -1.421875 
Q 18.84375 -1.421875 12.171875 6.21875 
Q 5.515625 13.875 5.515625 27.296875 
Q 5.515625 40.765625 12.171875 48.375 
Q 18.84375 56 30.609375 56 
z
" id="DejaVuSans-111"/>
     <path d="M 2.984375 54.6875 
L 12.5 54.6875 
L 29.59375 8.796875 
L 46.6875 54.6875 
L 56.203125 54.6875 
L 35.6875 0 
L 23.484375 0 
z
" id="DejaVuSans-118"/>
     <path d="M 9.421875 54.6875 
L 18.40625 54.6875 
L 18.40625 0 
L 9.421875 0 
z
M 9.421875 75.984375 
L 18.40625 75.984375 
L 18.40625 64.59375 
L 9.421875 64.59375 
z
" id="DejaVuSans-105"/>
    </defs>
    <g transform="translate(405.725 28.592)scale(0.1 -0.1)">
     <use xlink:href="#DejaVuSans-66"/>
     <use x="68.603516" xlink:href="#DejaVuSans-117"/>
     <use x="131.982422" xlink:href="#DejaVuSans-100"/>
     <use x="195.458984" xlink:href="#DejaVuSans-97"/>
     <use x="256.738281" xlink:href="#DejaVuSans-112"/>
     <use x="320.214844" xlink:href="#DejaVuSans-101"/>
     <use x="381.738281" xlink:href="#DejaVuSans-115"/>
     <use x="433.837891" xlink:href="#DejaVuSans-116"/>
     <use x="473.046875" xlink:href="#DejaVuSans-95"/>
     <use x="523.046875" xlink:href="#DejaVuSans-109"/>
     <use x="620.458984" xlink:href="#DejaVuSans-111"/>
     <use x="681.640625" xlink:href="#DejaVuSans-118"/>
     <use x="740.820312" xlink:href="#DejaVuSans-105"/>
     <use x="768.603516" xlink:href="#DejaVuSans-101"/>
    </g>
   </g>
  </g>
  <g id="text_11">
   <!-- lancastersensorimotornorms_Torso.mean [model: lancastersensorimotornorms_Torso.mean] -->
   <defs>
    <path d="M 9.421875 75.984375 
L 18.40625 75.984375 
L 18.40625 0 
L 9.421875 0 
z
" id="DejaVuSans-108"/>
    <path d="M 54.890625 33.015625 
L 54.890625 0 
L 45.90625 0 
L 45.90625 32.71875 
Q 45.90625 40.484375 42.875 44.328125 
Q 39.84375 48.1875 33.796875 48.1875 
Q 26.515625 48.1875 22.3125 43.546875 
Q 18.109375 38.921875 18.109375 30.90625 
L 18.109375 0 
L 9.078125 0 
L 9.078125 54.6875 
L 18.109375 54.6875 
L 18.109375 46.1875 
Q 21.34375 51.125 25.703125 53.5625 
Q 30.078125 56 35.796875 56 
Q 45.21875 56 50.046875 50.171875 
Q 54.890625 44.34375 54.890625 33.015625 
z
" id="DejaVuSans-110"/>
    <path d="M 48.78125 52.59375 
L 48.78125 44.1875 
Q 44.96875 46.296875 41.140625 47.34375 
Q 37.3125 48.390625 33.40625 48.390625 
Q 24.65625 48.390625 19.8125 42.84375 
Q 14.984375 37.3125 14.984375 27.296875 
Q 14.984375 17.28125 19.8125 11.734375 
Q 24.65625 6.203125 33.40625 6.203125 
Q 37.3125 6.203125 41.140625 7.25 
Q 44.96875 8.296875 48.78125 10.40625 
L 48.78125 2.09375 
Q 45.015625 0.34375 40.984375 -0.53125 
Q 36.96875 -1.421875 32.421875 -1.421875 
Q 20.0625 -1.421875 12.78125 6.34375 
Q 5.515625 14.109375 5.515625 27.296875 
Q 5.515625 40.671875 12.859375 48.328125 
Q 20.21875 56 33.015625 56 
Q 37.15625 56 41.109375 55.140625 
Q 45.0625 54.296875 48.78125 52.59375 
z
" id="DejaVuSans-99"/>
    <path d="M 41.109375 46.296875 
Q 39.59375 47.171875 37.8125 47.578125 
Q 36.03125 48 33.890625 48 
Q 26.265625 48 22.1875 43.046875 
Q 18.109375 38.09375 18.109375 28.8125 
L 18.109375 0 
L 9.078125 0 
L 9.078125 54.6875 
L 18.109375 54.6875 
L 18.109375 46.1875 
Q 20.953125 51.171875 25.484375 53.578125 
Q 30.03125 56 36.53125 56 
Q 37.453125 56 38.578125 55.875 
Q 39.703125 55.765625 41.0625 55.515625 
z
" id="DejaVuSans-114"/>
    <path d="M -0.296875 72.90625 
L 61.375 72.90625 
L 61.375 64.59375 
L 35.5 64.59375 
L 35.5 0 
L 25.59375 0 
L 25.59375 64.59375 
L -0.296875 64.59375 
z
" id="DejaVuSans-84"/>
    <path id="DejaVuSans-32"/>
    <path d="M 8.59375 75.984375 
L 29.296875 75.984375 
L 29.296875 69 
L 17.578125 69 
L 17.578125 -6.203125 
L 29.296875 -6.203125 
L 29.296875 -13.1875 
L 8.59375 -13.1875 
z
" id="DejaVuSans-91"/>
    <path d="M 11.71875 12.40625 
L 22.015625 12.40625 
L 22.015625 0 
L 11.71875 0 
z
M 11.71875 51.703125 
L 22.015625 51.703125 
L 22.015625 39.3125 
L 11.71875 39.3125 
z
" id="DejaVuSans-58"/>
    <path d="M 30.421875 75.984375 
L 30.421875 -13.1875 
L 9.71875 -13.1875 
L 9.71875 -6.203125 
L 21.390625 -6.203125 
L 21.390625 69 
L 9.71875 69 
L 9.71875 75.984375 
z
" id="DejaVuSans-93"/>
   </defs>
   <g transform="translate(152.396875 16.318125)scale(0.12 -0.12)">
    <use xlink:href="#DejaVuSans-108"/>
    <use x="27.783203" xlink:href="#DejaVuSans-97"/>
    <use x="89.0625" xlink:href="#DejaVuSans-110"/>
    <use x="152.441406" xlink:href="#DejaVuSans-99"/>
    <use x="207.421875" xlink:href="#DejaVuSans-97"/>
    <use x="268.701172" xlink:href="#DejaVuSans-115"/>
    <use x="320.800781" xlink:href="#DejaVuSans-116"/>
    <use x="360.009766" xlink:href="#DejaVuSans-101"/>
    <use x="421.533203" xlink:href="#DejaVuSans-114"/>
    <use x="462.646484" xlink:href="#DejaVuSans-115"/>
    <use x="514.746094" xlink:href="#DejaVuSans-101"/>
    <use x="576.269531" xlink:href="#DejaVuSans-110"/>
    <use x="639.648438" xlink:href="#DejaVuSans-115"/>
    <use x="691.748047" xlink:href="#DejaVuSans-111"/>
    <use x="752.929688" xlink:href="#DejaVuSans-114"/>
    <use x="794.042969" xlink:href="#DejaVuSans-105"/>
    <use x="821.826172" xlink:href="#DejaVuSans-109"/>
    <use x="919.238281" xlink:href="#DejaVuSans-111"/>
    <use x="980.419922" xlink:href="#DejaVuSans-116"/>
    <use x="1019.628906" xlink:href="#DejaVuSans-111"/>
    <use x="1080.810547" xlink:href="#DejaVuSans-114"/>
    <use x="1120.173828" xlink:href="#DejaVuSans-110"/>
    <use x="1183.552734" xlink:href="#DejaVuSans-111"/>
    <use x="1244.734375" xlink:href="#DejaVuSans-114"/>
    <use x="1284.097656" xlink:href="#DejaVuSans-109"/>
    <use x="1381.509766" xlink:href="#DejaVuSans-115"/>
    <use x="1433.609375" xlink:href="#DejaVuSans-95"/>
    <use x="1483.609375" xlink:href="#DejaVuSans-84"/>
    <use x="1527.693359" xlink:href="#DejaVuSans-111"/>
    <use x="1588.875" xlink:href="#DejaVuSans-114"/>
    <use x="1629.988281" xlink:href="#DejaVuSans-115"/>
    <use x="1682.087891" xlink:href="#DejaVuSans-111"/>
    <use x="1741.519531" xlink:href="#DejaVuSans-46"/>
    <use x="1773.306641" xlink:href="#DejaVuSans-109"/>
    <use x="1870.71875" xlink:href="#DejaVuSans-101"/>
    <use x="1932.242188" xlink:href="#DejaVuSans-97"/>
    <use x="1993.521484" xlink:href="#DejaVuSans-110"/>
    <use x="2056.900391" xlink:href="#DejaVuSans-32"/>
    <use x="2088.6875" xlink:href="#DejaVuSans-91"/>
    <use x="2127.701172" xlink:href="#DejaVuSans-109"/>
    <use x="2225.113281" xlink:href="#DejaVuSans-111"/>
    <use x="2286.294922" xlink:href="#DejaVuSans-100"/>
    <use x="2349.771484" xlink:href="#DejaVuSans-101"/>
    <use x="2411.294922" xlink:href="#DejaVuSans-108"/>
    <use x="2439.078125" xlink:href="#DejaVuSans-58"/>
    <use x="2472.769531" xlink:href="#DejaVuSans-32"/>
    <use x="2504.556641" xlink:href="#DejaVuSans-108"/>
    <use x="2532.339844" xlink:href="#DejaVuSans-97"/>
    <use x="2593.619141" xlink:href="#DejaVuSans-110"/>
    <use x="2656.998047" xlink:href="#DejaVuSans-99"/>
    <use x="2711.978516" xlink:href="#DejaVuSans-97"/>
    <use x="2773.257812" xlink:href="#DejaVuSans-115"/>
    <use x="2825.357422" xlink:href="#DejaVuSans-116"/>
    <use x="2864.566406" xlink:href="#DejaVuSans-101"/>
    <use x="2926.089844" xlink:href="#DejaVuSans-114"/>
    <use x="2967.203125" xlink:href="#DejaVuSans-115"/>
    <use x="3019.302734" xlink:href="#DejaVuSans-101"/>
    <use x="3080.826172" xlink:href="#DejaVuSans-110"/>
    <use x="3144.205078" xlink:href="#DejaVuSans-115"/>
    <use x="3196.304688" xlink:href="#DejaVuSans-111"/>
    <use x="3257.486328" xlink:href="#DejaVuSans-114"/>
    <use x="3298.599609" xlink:href="#DejaVuSans-105"/>
    <use x="3326.382812" xlink:href="#DejaVuSans-109"/>
    <use x="3423.794922" xlink:href="#DejaVuSans-111"/>
    <use x="3484.976562" xlink:href="#DejaVuSans-116"/>
    <use x="3524.185547" xlink:href="#DejaVuSans-111"/>
    <use x="3585.367188" xlink:href="#DejaVuSans-114"/>
    <use x="3624.730469" xlink:href="#DejaVuSans-110"/>
    <use x="3688.109375" xlink:href="#DejaVuSans-111"/>
    <use x="3749.291016" xlink:href="#DejaVuSans-114"/>
    <use x="3788.654297" xlink:href="#DejaVuSans-109"/>
    <use x="3886.066406" xlink:href="#DejaVuSans-115"/>
    <use x="3938.166016" xlink:href="#DejaVuSans-95"/>
    <use x="3988.166016" xlink:href="#DejaVuSans-84"/>
    <use x="4032.25" xlink:href="#DejaVuSans-111"/>
    <use x="4093.431641" xlink:href="#DejaVuSans-114"/>
    <use x="4134.544922" xlink:href="#DejaVuSans-115"/>
    <use x="4186.644531" xlink:href="#DejaVuSans-111"/>
    <use x="4246.076172" xlink:href="#DejaVuSans-46"/>
    <use x="4277.863281" xlink:href="#DejaVuSans-109"/>
    <use x="4375.275391" xlink:href="#DejaVuSans-101"/>
    <use x="4436.798828" xlink:href="#DejaVuSans-97"/>
    <use x="4498.078125" xlink:href="#DejaVuSans-110"/>
    <use x="4561.457031" xlink:href="#DejaVuSans-93"/>
   </g>
  </g>
 </g>
 <defs>
  <clipPath id="pa54e1ea4ec">
   <rect height="33.8" width="804.775" x="44.845313" y="34.592"/>
  </clipPath>
 </defs>
</svg>
