<?xml version="1.0" encoding="utf-8" standalone="no"?>
<!DOCTYPE svg PUBLIC "-//W3C//DTD SVG 1.1//EN"
  "http://www.w3.org/Graphics/SVG/1.1/DTD/svg11.dtd">
<!-- Created with matplotlib (https://matplotlib.org/) -->
<svg height="92.270125pt" version="1.1" viewBox="0 0 856.832812 92.270125" width="856.832812pt" xmlns="http://www.w3.org/2000/svg" xmlns:xlink="http://www.w3.org/1999/xlink">
 <defs>
  <style type="text/css">
*{stroke-linecap:butt;stroke-linejoin:round;}
  </style>
 </defs>
 <g id="figure_1">
  <g id="patch_1">
   <path d="M -0 92.270125 
L 856.832812 92.270125 
L 856.832812 0 
L -0 0 
z
" style="fill:none;"/>
  </g>
  <g id="axes_1">
   <g id="patch_2">
    <path d="M 38.482813 68.392 
L 849.632812 68.392 
L 849.632812 34.592 
L 38.482813 34.592 
z
" style="fill:#ffffff;"/>
   </g>
   <g id="matplotlib.axis_1">
    <g id="xtick_1">
     <g id="line2d_1">
      <defs>
       <path d="M 0 0 
L 0 3.5 
" id="m5a0214befd" style="stroke:#000000;stroke-width:0.8;"/>
      </defs>
      <g>
       <use style="stroke:#000000;stroke-width:0.8;" x="75.353267" xlink:href="#m5a0214befd" y="68.392"/>
      </g>
     </g>
     <g id="text_1">
      <!-- 0 -->
      <defs>
       <path d="M 31.78125 66.40625 
Q 24.171875 66.40625 20.328125 58.90625 
Q 16.5 51.421875 16.5 36.375 
Q 16.5 21.390625 20.328125 13.890625 
Q 24.171875 6.390625 31.78125 6.390625 
Q 39.453125 6.390625 43.28125 13.890625 
Q 47.125 21.390625 47.125 36.375 
Q 47.125 51.421875 43.28125 58.90625 
Q 39.453125 66.40625 31.78125 66.40625 
z
M 31.78125 74.21875 
Q 44.046875 74.21875 50.515625 64.515625 
Q 56.984375 54.828125 56.984375 36.375 
Q 56.984375 17.96875 50.515625 8.265625 
Q 44.046875 -1.421875 31.78125 -1.421875 
Q 19.53125 -1.421875 13.0625 8.265625 
Q 6.59375 17.96875 6.59375 36.375 
Q 6.59375 54.828125 13.0625 64.515625 
Q 19.53125 74.21875 31.78125 74.21875 
z
" id="DejaVuSans-48"/>
      </defs>
      <g transform="translate(72.172017 82.990437)scale(0.1 -0.1)">
       <use xlink:href="#DejaVuSans-48"/>
      </g>
     </g>
    </g>
    <g id="xtick_2">
     <g id="line2d_2">
      <g>
       <use style="stroke:#000000;stroke-width:0.8;" x="213.444857" xlink:href="#m5a0214befd" y="68.392"/>
      </g>
     </g>
     <g id="text_2">
      <!-- 100 -->
      <defs>
       <path d="M 12.40625 8.296875 
L 28.515625 8.296875 
L 28.515625 63.921875 
L 10.984375 60.40625 
L 10.984375 69.390625 
L 28.421875 72.90625 
L 38.28125 72.90625 
L 38.28125 8.296875 
L 54.390625 8.296875 
L 54.390625 0 
L 12.40625 0 
z
" id="DejaVuSans-49"/>
      </defs>
      <g transform="translate(203.901107 82.990437)scale(0.1 -0.1)">
       <use xlink:href="#DejaVuSans-49"/>
       <use x="63.623047" xlink:href="#DejaVuSans-48"/>
       <use x="127.246094" xlink:href="#DejaVuSans-48"/>
      </g>
     </g>
    </g>
    <g id="xtick_3">
     <g id="line2d_3">
      <g>
       <use style="stroke:#000000;stroke-width:0.8;" x="351.536447" xlink:href="#m5a0214befd" y="68.392"/>
      </g>
     </g>
     <g id="text_3">
      <!-- 200 -->
      <defs>
       <path d="M 19.1875 8.296875 
L 53.609375 8.296875 
L 53.609375 0 
L 7.328125 0 
L 7.328125 8.296875 
Q 12.9375 14.109375 22.625 23.890625 
Q 32.328125 33.6875 34.8125 36.53125 
Q 39.546875 41.84375 41.421875 45.53125 
Q 43.3125 49.21875 43.3125 52.78125 
Q 43.3125 58.59375 39.234375 62.25 
Q 35.15625 65.921875 28.609375 65.921875 
Q 23.96875 65.921875 18.8125 64.3125 
Q 13.671875 62.703125 7.8125 59.421875 
L 7.8125 69.390625 
Q 13.765625 71.78125 18.9375 73 
Q 24.125 74.21875 28.421875 74.21875 
Q 39.75 74.21875 46.484375 68.546875 
Q 53.21875 62.890625 53.21875 53.421875 
Q 53.21875 48.921875 51.53125 44.890625 
Q 49.859375 40.875 45.40625 35.40625 
Q 44.1875 33.984375 37.640625 27.21875 
Q 31.109375 20.453125 19.1875 8.296875 
z
" id="DejaVuSans-50"/>
      </defs>
      <g transform="translate(341.992697 82.990437)scale(0.1 -0.1)">
       <use xlink:href="#DejaVuSans-50"/>
       <use x="63.623047" xlink:href="#DejaVuSans-48"/>
       <use x="127.246094" xlink:href="#DejaVuSans-48"/>
      </g>
     </g>
    </g>
    <g id="xtick_4">
     <g id="line2d_4">
      <g>
       <use style="stroke:#000000;stroke-width:0.8;" x="489.628037" xlink:href="#m5a0214befd" y="68.392"/>
      </g>
     </g>
     <g id="text_4">
      <!-- 300 -->
      <defs>
       <path d="M 40.578125 39.3125 
Q 47.65625 37.796875 51.625 33 
Q 55.609375 28.21875 55.609375 21.1875 
Q 55.609375 10.40625 48.1875 4.484375 
Q 40.765625 -1.421875 27.09375 -1.421875 
Q 22.515625 -1.421875 17.65625 -0.515625 
Q 12.796875 0.390625 7.625 2.203125 
L 7.625 11.71875 
Q 11.71875 9.328125 16.59375 8.109375 
Q 21.484375 6.890625 26.8125 6.890625 
Q 36.078125 6.890625 40.9375 10.546875 
Q 45.796875 14.203125 45.796875 21.1875 
Q 45.796875 27.640625 41.28125 31.265625 
Q 36.765625 34.90625 28.71875 34.90625 
L 20.21875 34.90625 
L 20.21875 43.015625 
L 29.109375 43.015625 
Q 36.375 43.015625 40.234375 45.921875 
Q 44.09375 48.828125 44.09375 54.296875 
Q 44.09375 59.90625 40.109375 62.90625 
Q 36.140625 65.921875 28.71875 65.921875 
Q 24.65625 65.921875 20.015625 65.03125 
Q 15.375 64.15625 9.8125 62.3125 
L 9.8125 71.09375 
Q 15.4375 72.65625 20.34375 73.4375 
Q 25.25 74.21875 29.59375 74.21875 
Q 40.828125 74.21875 47.359375 69.109375 
Q 53.90625 64.015625 53.90625 55.328125 
Q 53.90625 49.265625 50.4375 45.09375 
Q 46.96875 40.921875 40.578125 39.3125 
z
" id="DejaVuSans-51"/>
      </defs>
      <g transform="translate(480.084287 82.990437)scale(0.1 -0.1)">
       <use xlink:href="#DejaVuSans-51"/>
       <use x="63.623047" xlink:href="#DejaVuSans-48"/>
       <use x="127.246094" xlink:href="#DejaVuSans-48"/>
      </g>
     </g>
    </g>
    <g id="xtick_5">
     <g id="line2d_5">
      <g>
       <use style="stroke:#000000;stroke-width:0.8;" x="627.719627" xlink:href="#m5a0214befd" y="68.392"/>
      </g>
     </g>
     <g id="text_5">
      <!-- 400 -->
      <defs>
       <path d="M 37.796875 64.3125 
L 12.890625 25.390625 
L 37.796875 25.390625 
z
M 35.203125 72.90625 
L 47.609375 72.90625 
L 47.609375 25.390625 
L 58.015625 25.390625 
L 58.015625 17.1875 
L 47.609375 17.1875 
L 47.609375 0 
L 37.796875 0 
L 37.796875 17.1875 
L 4.890625 17.1875 
L 4.890625 26.703125 
z
" id="DejaVuSans-52"/>
      </defs>
      <g transform="translate(618.175877 82.990437)scale(0.1 -0.1)">
       <use xlink:href="#DejaVuSans-52"/>
       <use x="63.623047" xlink:href="#DejaVuSans-48"/>
       <use x="127.246094" xlink:href="#DejaVuSans-48"/>
      </g>
     </g>
    </g>
    <g id="xtick_6">
     <g id="line2d_6">
      <g>
       <use style="stroke:#000000;stroke-width:0.8;" x="765.811217" xlink:href="#m5a0214befd" y="68.392"/>
      </g>
     </g>
     <g id="text_6">
      <!-- 500 -->
      <defs>
       <path d="M 10.796875 72.90625 
L 49.515625 72.90625 
L 49.515625 64.59375 
L 19.828125 64.59375 
L 19.828125 46.734375 
Q 21.96875 47.46875 24.109375 47.828125 
Q 26.265625 48.1875 28.421875 48.1875 
Q 40.625 48.1875 47.75 41.5 
Q 54.890625 34.8125 54.890625 23.390625 
Q 54.890625 11.625 47.5625 5.09375 
Q 40.234375 -1.421875 26.90625 -1.421875 
Q 22.3125 -1.421875 17.546875 -0.640625 
Q 12.796875 0.140625 7.71875 1.703125 
L 7.71875 11.625 
Q 12.109375 9.234375 16.796875 8.0625 
Q 21.484375 6.890625 26.703125 6.890625 
Q 35.15625 6.890625 40.078125 11.328125 
Q 45.015625 15.765625 45.015625 23.390625 
Q 45.015625 31 40.078125 35.4375 
Q 35.15625 39.890625 26.703125 39.890625 
Q 22.75 39.890625 18.8125 39.015625 
Q 14.890625 38.140625 10.796875 36.28125 
z
" id="DejaVuSans-53"/>
      </defs>
      <g transform="translate(756.267467 82.990437)scale(0.1 -0.1)">
       <use xlink:href="#DejaVuSans-53"/>
       <use x="63.623047" xlink:href="#DejaVuSans-48"/>
       <use x="127.246094" xlink:href="#DejaVuSans-48"/>
      </g>
     </g>
    </g>
   </g>
   <g id="matplotlib.axis_2">
    <g id="ytick_1">
     <g id="line2d_7">
      <defs>
       <path d="M 0 0 
L -3.5 0 
" id="m0bbd20d0f8" style="stroke:#000000;stroke-width:0.8;"/>
      </defs>
      <g>
       <use style="stroke:#000000;stroke-width:0.8;" x="38.482813" xlink:href="#m0bbd20d0f8" y="66.162645"/>
      </g>
     </g>
     <g id="text_7">
      <!-- −0.5 -->
      <defs>
       <path d="M 10.59375 35.5 
L 73.1875 35.5 
L 73.1875 27.203125 
L 10.59375 27.203125 
z
" id="DejaVuSans-8722"/>
       <path d="M 10.6875 12.40625 
L 21 12.40625 
L 21 0 
L 10.6875 0 
z
" id="DejaVuSans-46"/>
      </defs>
      <g transform="translate(7.2 69.961864)scale(0.1 -0.1)">
       <use xlink:href="#DejaVuSans-8722"/>
       <use x="83.789062" xlink:href="#DejaVuSans-48"/>
       <use x="147.412109" xlink:href="#DejaVuSans-46"/>
       <use x="179.199219" xlink:href="#DejaVuSans-53"/>
      </g>
     </g>
    </g>
    <g id="ytick_2">
     <g id="line2d_8">
      <g>
       <use style="stroke:#000000;stroke-width:0.8;" x="38.482813" xlink:href="#m0bbd20d0f8" y="52.843342"/>
      </g>
     </g>
     <g id="text_8">
      <!-- 0.0 -->
      <g transform="translate(15.579688 56.642561)scale(0.1 -0.1)">
       <use xlink:href="#DejaVuSans-48"/>
       <use x="63.623047" xlink:href="#DejaVuSans-46"/>
       <use x="95.410156" xlink:href="#DejaVuSans-48"/>
      </g>
     </g>
    </g>
    <g id="ytick_3">
     <g id="line2d_9">
      <g>
       <use style="stroke:#000000;stroke-width:0.8;" x="38.482813" xlink:href="#m0bbd20d0f8" y="39.524038"/>
      </g>
     </g>
     <g id="text_9">
      <!-- 0.5 -->
      <g transform="translate(15.579688 43.323257)scale(0.1 -0.1)">
       <use xlink:href="#DejaVuSans-48"/>
       <use x="63.623047" xlink:href="#DejaVuSans-46"/>
       <use x="95.410156" xlink:href="#DejaVuSans-53"/>
      </g>
     </g>
    </g>
   </g>
   <g id="line2d_10">
    <path clip-path="url(#p49399d8e3b)" d="M 75.353267 52.843342 
L 93.305174 52.894646 
L 94.68609 53.553952 
L 97.447921 56.525687 
L 98.828837 57.295993 
L 100.209753 57.820209 
L 101.590669 58.507904 
L 102.971585 58.311598 
L 105.733417 54.649838 
L 107.114333 53.927759 
L 108.495249 53.701494 
L 109.876165 53.273473 
L 111.25708 53.034382 
L 112.637996 52.513148 
L 115.399828 49.756969 
L 116.780744 49.073917 
L 118.16166 49.192725 
L 119.542576 49.808421 
L 122.304408 51.305074 
L 123.685324 51.889504 
L 125.066239 52.328178 
L 127.828071 52.8584 
L 130.589903 53.075556 
L 134.732651 53.084469 
L 140.256314 52.846627 
L 141.63723 53.079402 
L 143.018146 53.960665 
L 144.399062 55.052065 
L 145.779978 56.39373 
L 147.160894 57.993282 
L 148.54181 58.856211 
L 149.922726 58.288047 
L 151.303642 56.828742 
L 152.684557 55.959942 
L 154.065473 56.967137 
L 155.446389 58.974608 
L 156.827305 60.49993 
L 159.589137 62.872266 
L 160.970053 63.408165 
L 162.350969 62.532395 
L 163.731885 59.853481 
L 165.112801 56.202006 
L 166.493716 53.448406 
L 167.874632 52.395537 
L 169.255548 51.746785 
L 173.398296 47.718376 
L 174.779212 46.61204 
L 176.160128 45.721866 
L 177.541044 45.784523 
L 178.92196 47.01498 
L 181.683791 50.846519 
L 183.064707 52.423527 
L 184.445623 53.661638 
L 185.826539 54.571639 
L 187.207455 55.024562 
L 188.588371 54.943122 
L 189.969287 54.094003 
L 191.350203 52.840232 
L 192.731119 51.937573 
L 194.112034 51.590461 
L 195.49295 51.777705 
L 196.873866 52.562565 
L 199.635698 54.971253 
L 201.016614 55.795545 
L 202.39753 55.850567 
L 203.778446 55.070528 
L 205.159362 54.76792 
L 206.540278 56.235442 
L 207.921194 58.875534 
L 209.302109 61.253876 
L 210.683025 62.416742 
L 212.063941 61.942841 
L 214.825773 58.610984 
L 216.206689 57.438239 
L 218.968521 55.871653 
L 224.492184 52.947588 
L 225.8731 52.521951 
L 227.254016 52.270065 
L 230.015848 52.133741 
L 234.158596 52.327655 
L 241.063175 52.694924 
L 243.825007 52.750308 
L 245.205923 52.530561 
L 246.586839 52.108702 
L 247.967755 51.988331 
L 249.348671 52.081348 
L 250.729586 51.489383 
L 252.110502 50.49272 
L 254.872334 49.420527 
L 256.25325 48.743669 
L 257.634166 47.893398 
L 259.015082 46.300068 
L 260.395998 44.057675 
L 263.15783 37.995151 
L 264.538745 36.128364 
L 265.919661 36.289204 
L 267.300577 38.190906 
L 270.062409 44.013706 
L 274.205157 52.770672 
L 276.966989 58.251093 
L 278.347904 60.238006 
L 279.72882 60.753737 
L 281.109736 60.348668 
L 282.490652 60.483994 
L 283.871568 61.488758 
L 285.252484 62.699835 
L 289.395232 65.476711 
L 290.776148 66.49505 
L 292.157063 66.855636 
L 293.537979 64.95131 
L 296.299811 57.103672 
L 297.680727 55.187967 
L 299.061643 54.896439 
L 300.442559 55.008469 
L 303.204391 53.769968 
L 304.585307 53.93005 
L 305.966222 54.691874 
L 307.347138 55.126158 
L 308.728054 54.681617 
L 310.10897 54.061827 
L 311.489886 53.050592 
L 312.870802 51.115764 
L 314.251718 48.672681 
L 315.632634 46.936869 
L 317.01355 47.012959 
L 318.394466 48.492124 
L 319.775381 50.272572 
L 321.156297 51.659129 
L 322.537213 52.513667 
L 323.918129 52.727605 
L 326.679961 51.516508 
L 328.060877 51.883807 
L 329.441793 52.85321 
L 330.822709 52.510407 
L 333.58454 48.502174 
L 334.965456 47.969705 
L 336.346372 48.971663 
L 337.727288 51.075939 
L 339.108204 53.881008 
L 340.48912 56.36675 
L 341.870036 57.317365 
L 343.250952 56.808534 
L 346.012784 54.654491 
L 347.393699 53.956167 
L 348.774615 53.455183 
L 350.155531 52.475101 
L 351.536447 51.068791 
L 352.917363 49.236738 
L 354.298279 46.863067 
L 355.679195 44.112032 
L 357.060111 41.80047 
L 358.441027 41.121354 
L 359.821943 41.302524 
L 361.202858 40.698044 
L 362.583774 39.658431 
L 363.96469 39.645875 
L 365.345606 41.261709 
L 366.726522 44.177283 
L 369.488354 50.799179 
L 370.86927 52.976066 
L 372.250186 53.769437 
L 375.012017 53.792588 
L 376.392933 54.441608 
L 379.154765 57.371794 
L 380.535681 58.295859 
L 383.297513 59.290342 
L 386.059345 60.544137 
L 388.821176 61.390361 
L 390.202092 61.22687 
L 391.583008 60.503195 
L 394.34484 59.656146 
L 395.725756 58.619485 
L 397.106672 57.429423 
L 398.487588 57.233466 
L 401.24942 58.468618 
L 402.630335 58.795094 
L 404.011251 58.47982 
L 405.392167 57.418042 
L 406.773083 56.198907 
L 408.153999 55.555186 
L 409.534915 55.48795 
L 412.296747 56.005143 
L 413.677663 55.590479 
L 415.058579 54.473361 
L 417.82041 51.608165 
L 419.201326 50.627518 
L 420.582242 50.203312 
L 421.963158 50.648005 
L 424.72499 53.551133 
L 426.105906 53.908743 
L 427.486822 53.15037 
L 428.867738 51.573182 
L 430.248653 49.527625 
L 431.629569 47.114483 
L 433.010485 45.307025 
L 434.391401 44.993761 
L 435.772317 46.115083 
L 439.915065 51.654792 
L 441.295981 53.91671 
L 442.676897 55.065376 
L 444.057812 54.503215 
L 445.438728 53.307954 
L 446.819644 52.374478 
L 448.20056 51.738726 
L 450.962392 50.056946 
L 452.343308 49.577454 
L 453.724224 49.694339 
L 455.10514 50.23541 
L 463.390635 54.341464 
L 464.771551 54.546152 
L 466.152467 54.508713 
L 467.533383 54.270915 
L 468.914299 53.207654 
L 470.295215 51.441136 
L 471.676131 50.114414 
L 473.057046 49.834502 
L 474.437962 50.363574 
L 475.818878 51.479199 
L 478.58071 54.535824 
L 479.961626 55.395889 
L 481.342542 54.366435 
L 482.723458 52.332554 
L 484.104374 50.67155 
L 485.48529 48.386529 
L 486.866205 45.763911 
L 488.247121 44.340384 
L 489.628037 44.580154 
L 491.008953 45.968497 
L 493.770785 49.478745 
L 495.151701 50.888772 
L 496.532617 51.949095 
L 497.913533 52.659203 
L 499.294449 53.101553 
L 500.675364 53.317079 
L 502.05628 53.152014 
L 503.437196 52.756871 
L 504.818112 52.742507 
L 507.579944 53.949148 
L 508.96086 53.368754 
L 510.341776 52.075746 
L 511.722692 51.898859 
L 513.103608 51.958784 
L 514.484523 49.944594 
L 515.865439 45.879554 
L 517.246355 42.57702 
L 518.627271 41.988491 
L 520.008187 43.631733 
L 522.770019 48.689071 
L 524.150935 50.457362 
L 528.293682 54.259444 
L 529.674598 55.696751 
L 531.055514 56.920544 
L 532.43643 57.731375 
L 533.817346 57.490961 
L 535.198262 56.309336 
L 536.579178 54.928616 
L 537.960094 53.855757 
L 539.34101 53.459036 
L 540.721926 53.76158 
L 542.102841 54.23692 
L 543.483757 54.37271 
L 544.864673 53.848831 
L 547.626505 52.064691 
L 549.007421 51.64289 
L 550.388337 51.604182 
L 551.769253 52.153393 
L 554.531085 54.691972 
L 555.912 55.390302 
L 557.292916 55.415367 
L 558.673832 55.011819 
L 560.054748 54.1983 
L 562.81658 52.103847 
L 564.197496 51.761661 
L 565.578412 52.097133 
L 566.959328 52.228985 
L 568.340244 51.772799 
L 569.721159 51.153351 
L 571.102075 50.838001 
L 572.482991 50.836946 
L 573.863907 50.405977 
L 575.244823 48.79104 
L 578.006655 43.260344 
L 579.387571 42.250215 
L 580.768487 43.081233 
L 582.149403 45.033093 
L 583.530318 47.284938 
L 584.911234 49.315191 
L 586.29215 50.919012 
L 587.673066 52.088275 
L 589.053982 52.891458 
L 590.434898 53.408422 
L 591.815814 53.706776 
L 593.19673 53.840744 
L 595.958562 53.785555 
L 600.101309 53.534066 
L 601.482225 53.766903 
L 602.863141 54.130445 
L 605.624973 55.311204 
L 607.005889 55.123782 
L 608.386805 53.899113 
L 609.767721 51.784261 
L 611.148636 50.223431 
L 612.529552 50.169291 
L 613.910468 51.147441 
L 615.291384 51.772811 
L 616.6723 51.535567 
L 618.053216 51.034205 
L 619.434132 50.814008 
L 620.815048 50.980175 
L 624.957795 52.229014 
L 626.338711 51.949293 
L 627.719627 50.779925 
L 629.100543 49.937328 
L 630.481459 50.033861 
L 634.624207 52.133233 
L 636.005123 52.571365 
L 638.766954 53.007466 
L 641.528786 53.144283 
L 645.671534 53.111446 
L 656.718861 52.86546 
L 660.861609 52.850885 
L 662.242525 52.667736 
L 663.623441 51.908739 
L 665.004357 50.882707 
L 666.385272 50.227686 
L 667.766188 50.164546 
L 669.147104 50.543659 
L 671.908936 51.768474 
L 674.670768 53.775168 
L 676.051684 53.716837 
L 678.813516 51.056348 
L 680.194431 50.643729 
L 681.575347 49.948993 
L 682.956263 46.758181 
L 684.337179 42.329623 
L 685.718095 39.53327 
L 687.099011 39.530738 
L 688.479927 42.141386 
L 691.241759 50.559448 
L 692.622675 53.532604 
L 694.003591 55.09609 
L 695.384506 55.625576 
L 696.765422 55.583901 
L 699.527254 54.922492 
L 700.90817 54.516504 
L 702.289086 53.98945 
L 705.050918 52.305044 
L 706.431834 51.911191 
L 707.81275 52.10039 
L 710.574581 53.788896 
L 711.955497 54.243123 
L 713.336413 54.065855 
L 714.717329 52.928834 
L 716.098245 51.512364 
L 717.479161 51.007987 
L 718.860077 51.931668 
L 720.240993 53.518057 
L 721.621909 54.397106 
L 724.38374 54.899836 
L 725.764656 55.669321 
L 728.526488 59.24193 
L 729.907404 60.025335 
L 731.28832 59.356729 
L 732.669236 56.629552 
L 734.050152 52.647844 
L 735.431068 49.275064 
L 736.811983 47.327292 
L 739.573815 45.477825 
L 740.954731 44.796936 
L 742.335647 44.319816 
L 743.716563 44.546187 
L 745.097479 46.405727 
L 747.859311 53.074195 
L 749.240227 55.227195 
L 750.621142 56.478241 
L 752.002058 57.443708 
L 753.382974 57.869198 
L 754.76389 57.355695 
L 758.906638 54.362127 
L 760.287554 54.187457 
L 761.66847 55.111134 
L 763.049386 56.261462 
L 764.430301 56.639019 
L 767.192133 55.863263 
L 768.573049 55.91894 
L 769.953965 56.164045 
L 771.334881 56.124599 
L 772.715797 55.658077 
L 775.477629 54.250504 
L 776.858545 53.704811 
L 778.23946 53.473473 
L 779.620376 53.904193 
L 781.001292 54.617915 
L 782.382208 55.132157 
L 783.763124 55.404002 
L 785.14404 55.476704 
L 786.524956 55.175603 
L 787.905872 54.284871 
L 789.286788 53.126097 
L 790.667704 52.202249 
L 792.048619 51.435307 
L 794.810451 49.702449 
L 796.191367 49.42257 
L 797.572283 49.68858 
L 800.334115 50.967816 
L 803.095947 52.100546 
L 805.857778 52.746771 
L 808.61961 53.035378 
L 812.762358 53.094538 
L 812.762358 53.094538 
" style="fill:none;stroke:#1f77b4;stroke-linecap:square;stroke-width:1.5;"/>
   </g>
   <g id="patch_3">
    <path d="M 38.482813 68.392 
L 38.482813 34.592 
" style="fill:none;stroke:#000000;stroke-linecap:square;stroke-linejoin:miter;stroke-width:0.8;"/>
   </g>
   <g id="patch_4">
    <path d="M 38.482813 68.392 
L 849.632812 68.392 
" style="fill:none;stroke:#000000;stroke-linecap:square;stroke-linejoin:miter;stroke-width:0.8;"/>
   </g>
   <g id="text_10">
    <!-- Budapest_movie -->
    <defs>
     <path d="M 19.671875 34.8125 
L 19.671875 8.109375 
L 35.5 8.109375 
Q 43.453125 8.109375 47.28125 11.40625 
Q 51.125 14.703125 51.125 21.484375 
Q 51.125 28.328125 47.28125 31.5625 
Q 43.453125 34.8125 35.5 34.8125 
z
M 19.671875 64.796875 
L 19.671875 42.828125 
L 34.28125 42.828125 
Q 41.5 42.828125 45.03125 45.53125 
Q 48.578125 48.25 48.578125 53.8125 
Q 48.578125 59.328125 45.03125 62.0625 
Q 41.5 64.796875 34.28125 64.796875 
z
M 9.8125 72.90625 
L 35.015625 72.90625 
Q 46.296875 72.90625 52.390625 68.21875 
Q 58.5 63.53125 58.5 54.890625 
Q 58.5 48.1875 55.375 44.234375 
Q 52.25 40.28125 46.1875 39.3125 
Q 53.46875 37.75 57.5 32.78125 
Q 61.53125 27.828125 61.53125 20.40625 
Q 61.53125 10.640625 54.890625 5.3125 
Q 48.25 0 35.984375 0 
L 9.8125 0 
z
" id="DejaVuSans-66"/>
     <path d="M 8.5 21.578125 
L 8.5 54.6875 
L 17.484375 54.6875 
L 17.484375 21.921875 
Q 17.484375 14.15625 20.5 10.265625 
Q 23.53125 6.390625 29.59375 6.390625 
Q 36.859375 6.390625 41.078125 11.03125 
Q 45.3125 15.671875 45.3125 23.6875 
L 45.3125 54.6875 
L 54.296875 54.6875 
L 54.296875 0 
L 45.3125 0 
L 45.3125 8.40625 
Q 42.046875 3.421875 37.71875 1 
Q 33.40625 -1.421875 27.6875 -1.421875 
Q 18.265625 -1.421875 13.375 4.4375 
Q 8.5 10.296875 8.5 21.578125 
z
M 31.109375 56 
z
" id="DejaVuSans-117"/>
     <path d="M 45.40625 46.390625 
L 45.40625 75.984375 
L 54.390625 75.984375 
L 54.390625 0 
L 45.40625 0 
L 45.40625 8.203125 
Q 42.578125 3.328125 38.25 0.953125 
Q 33.9375 -1.421875 27.875 -1.421875 
Q 17.96875 -1.421875 11.734375 6.484375 
Q 5.515625 14.40625 5.515625 27.296875 
Q 5.515625 40.1875 11.734375 48.09375 
Q 17.96875 56 27.875 56 
Q 33.9375 56 38.25 53.625 
Q 42.578125 51.265625 45.40625 46.390625 
z
M 14.796875 27.296875 
Q 14.796875 17.390625 18.875 11.75 
Q 22.953125 6.109375 30.078125 6.109375 
Q 37.203125 6.109375 41.296875 11.75 
Q 45.40625 17.390625 45.40625 27.296875 
Q 45.40625 37.203125 41.296875 42.84375 
Q 37.203125 48.484375 30.078125 48.484375 
Q 22.953125 48.484375 18.875 42.84375 
Q 14.796875 37.203125 14.796875 27.296875 
z
" id="DejaVuSans-100"/>
     <path d="M 34.28125 27.484375 
Q 23.390625 27.484375 19.1875 25 
Q 14.984375 22.515625 14.984375 16.5 
Q 14.984375 11.71875 18.140625 8.90625 
Q 21.296875 6.109375 26.703125 6.109375 
Q 34.1875 6.109375 38.703125 11.40625 
Q 43.21875 16.703125 43.21875 25.484375 
L 43.21875 27.484375 
z
M 52.203125 31.203125 
L 52.203125 0 
L 43.21875 0 
L 43.21875 8.296875 
Q 40.140625 3.328125 35.546875 0.953125 
Q 30.953125 -1.421875 24.3125 -1.421875 
Q 15.921875 -1.421875 10.953125 3.296875 
Q 6 8.015625 6 15.921875 
Q 6 25.140625 12.171875 29.828125 
Q 18.359375 34.515625 30.609375 34.515625 
L 43.21875 34.515625 
L 43.21875 35.40625 
Q 43.21875 41.609375 39.140625 45 
Q 35.0625 48.390625 27.6875 48.390625 
Q 23 48.390625 18.546875 47.265625 
Q 14.109375 46.140625 10.015625 43.890625 
L 10.015625 52.203125 
Q 14.9375 54.109375 19.578125 55.046875 
Q 24.21875 56 28.609375 56 
Q 40.484375 56 46.34375 49.84375 
Q 52.203125 43.703125 52.203125 31.203125 
z
" id="DejaVuSans-97"/>
     <path d="M 18.109375 8.203125 
L 18.109375 -20.796875 
L 9.078125 -20.796875 
L 9.078125 54.6875 
L 18.109375 54.6875 
L 18.109375 46.390625 
Q 20.953125 51.265625 25.265625 53.625 
Q 29.59375 56 35.59375 56 
Q 45.5625 56 51.78125 48.09375 
Q 58.015625 40.1875 58.015625 27.296875 
Q 58.015625 14.40625 51.78125 6.484375 
Q 45.5625 -1.421875 35.59375 -1.421875 
Q 29.59375 -1.421875 25.265625 0.953125 
Q 20.953125 3.328125 18.109375 8.203125 
z
M 48.6875 27.296875 
Q 48.6875 37.203125 44.609375 42.84375 
Q 40.53125 48.484375 33.40625 48.484375 
Q 26.265625 48.484375 22.1875 42.84375 
Q 18.109375 37.203125 18.109375 27.296875 
Q 18.109375 17.390625 22.1875 11.75 
Q 26.265625 6.109375 33.40625 6.109375 
Q 40.53125 6.109375 44.609375 11.75 
Q 48.6875 17.390625 48.6875 27.296875 
z
" id="DejaVuSans-112"/>
     <path d="M 56.203125 29.59375 
L 56.203125 25.203125 
L 14.890625 25.203125 
Q 15.484375 15.921875 20.484375 11.0625 
Q 25.484375 6.203125 34.421875 6.203125 
Q 39.59375 6.203125 44.453125 7.46875 
Q 49.3125 8.734375 54.109375 11.28125 
L 54.109375 2.78125 
Q 49.265625 0.734375 44.1875 -0.34375 
Q 39.109375 -1.421875 33.890625 -1.421875 
Q 20.796875 -1.421875 13.15625 6.1875 
Q 5.515625 13.8125 5.515625 26.8125 
Q 5.515625 40.234375 12.765625 48.109375 
Q 20.015625 56 32.328125 56 
Q 43.359375 56 49.78125 48.890625 
Q 56.203125 41.796875 56.203125 29.59375 
z
M 47.21875 32.234375 
Q 47.125 39.59375 43.09375 43.984375 
Q 39.0625 48.390625 32.421875 48.390625 
Q 24.90625 48.390625 20.390625 44.140625 
Q 15.875 39.890625 15.1875 32.171875 
z
" id="DejaVuSans-101"/>
     <path d="M 44.28125 53.078125 
L 44.28125 44.578125 
Q 40.484375 46.53125 36.375 47.5 
Q 32.28125 48.484375 27.875 48.484375 
Q 21.1875 48.484375 17.84375 46.4375 
Q 14.5 44.390625 14.5 40.28125 
Q 14.5 37.15625 16.890625 35.375 
Q 19.28125 33.59375 26.515625 31.984375 
L 29.59375 31.296875 
Q 39.15625 29.25 43.1875 25.515625 
Q 47.21875 21.78125 47.21875 15.09375 
Q 47.21875 7.46875 41.1875 3.015625 
Q 35.15625 -1.421875 24.609375 -1.421875 
Q 20.21875 -1.421875 15.453125 -0.5625 
Q 10.6875 0.296875 5.421875 2 
L 5.421875 11.28125 
Q 10.40625 8.6875 15.234375 7.390625 
Q 20.0625 6.109375 24.8125 6.109375 
Q 31.15625 6.109375 34.5625 8.28125 
Q 37.984375 10.453125 37.984375 14.40625 
Q 37.984375 18.0625 35.515625 20.015625 
Q 33.0625 21.96875 24.703125 23.78125 
L 21.578125 24.515625 
Q 13.234375 26.265625 9.515625 29.90625 
Q 5.8125 33.546875 5.8125 39.890625 
Q 5.8125 47.609375 11.28125 51.796875 
Q 16.75 56 26.8125 56 
Q 31.78125 56 36.171875 55.265625 
Q 40.578125 54.546875 44.28125 53.078125 
z
" id="DejaVuSans-115"/>
     <path d="M 18.3125 70.21875 
L 18.3125 54.6875 
L 36.8125 54.6875 
L 36.8125 47.703125 
L 18.3125 47.703125 
L 18.3125 18.015625 
Q 18.3125 11.328125 20.140625 9.421875 
Q 21.96875 7.515625 27.59375 7.515625 
L 36.8125 7.515625 
L 36.8125 0 
L 27.59375 0 
Q 17.1875 0 13.234375 3.875 
Q 9.28125 7.765625 9.28125 18.015625 
L 9.28125 47.703125 
L 2.6875 47.703125 
L 2.6875 54.6875 
L 9.28125 54.6875 
L 9.28125 70.21875 
z
" id="DejaVuSans-116"/>
     <path d="M 50.984375 -16.609375 
L 50.984375 -23.578125 
L -0.984375 -23.578125 
L -0.984375 -16.609375 
z
" id="DejaVuSans-95"/>
     <path d="M 52 44.1875 
Q 55.375 50.25 60.0625 53.125 
Q 64.75 56 71.09375 56 
Q 79.640625 56 84.28125 50.015625 
Q 88.921875 44.046875 88.921875 33.015625 
L 88.921875 0 
L 79.890625 0 
L 79.890625 32.71875 
Q 79.890625 40.578125 77.09375 44.375 
Q 74.3125 48.1875 68.609375 48.1875 
Q 61.625 48.1875 57.5625 43.546875 
Q 53.515625 38.921875 53.515625 30.90625 
L 53.515625 0 
L 44.484375 0 
L 44.484375 32.71875 
Q 44.484375 40.625 41.703125 44.40625 
Q 38.921875 48.1875 33.109375 48.1875 
Q 26.21875 48.1875 22.15625 43.53125 
Q 18.109375 38.875 18.109375 30.90625 
L 18.109375 0 
L 9.078125 0 
L 9.078125 54.6875 
L 18.109375 54.6875 
L 18.109375 46.1875 
Q 21.1875 51.21875 25.484375 53.609375 
Q 29.78125 56 35.6875 56 
Q 41.65625 56 45.828125 52.96875 
Q 50 49.953125 52 44.1875 
z
" id="DejaVuSans-109"/>
     <path d="M 30.609375 48.390625 
Q 23.390625 48.390625 19.1875 42.75 
Q 14.984375 37.109375 14.984375 27.296875 
Q 14.984375 17.484375 19.15625 11.84375 
Q 23.34375 6.203125 30.609375 6.203125 
Q 37.796875 6.203125 41.984375 11.859375 
Q 46.1875 17.53125 46.1875 27.296875 
Q 46.1875 37.015625 41.984375 42.703125 
Q 37.796875 48.390625 30.609375 48.390625 
z
M 30.609375 56 
Q 42.328125 56 49.015625 48.375 
Q 55.71875 40.765625 55.71875 27.296875 
Q 55.71875 13.875 49.015625 6.21875 
Q 42.328125 -1.421875 30.609375 -1.421875 
Q 18.84375 -1.421875 12.171875 6.21875 
Q 5.515625 13.875 5.515625 27.296875 
Q 5.515625 40.765625 12.171875 48.375 
Q 18.84375 56 30.609375 56 
z
" id="DejaVuSans-111"/>
     <path d="M 2.984375 54.6875 
L 12.5 54.6875 
L 29.59375 8.796875 
L 46.6875 54.6875 
L 56.203125 54.6875 
L 35.6875 0 
L 23.484375 0 
z
" id="DejaVuSans-118"/>
     <path d="M 9.421875 54.6875 
L 18.40625 54.6875 
L 18.40625 0 
L 9.421875 0 
z
M 9.421875 75.984375 
L 18.40625 75.984375 
L 18.40625 64.59375 
L 9.421875 64.59375 
z
" id="DejaVuSans-105"/>
    </defs>
    <g transform="translate(402.55 28.592)scale(0.1 -0.1)">
     <use xlink:href="#DejaVuSans-66"/>
     <use x="68.603516" xlink:href="#DejaVuSans-117"/>
     <use x="131.982422" xlink:href="#DejaVuSans-100"/>
     <use x="195.458984" xlink:href="#DejaVuSans-97"/>
     <use x="256.738281" xlink:href="#DejaVuSans-112"/>
     <use x="320.214844" xlink:href="#DejaVuSans-101"/>
     <use x="381.738281" xlink:href="#DejaVuSans-115"/>
     <use x="433.837891" xlink:href="#DejaVuSans-116"/>
     <use x="473.046875" xlink:href="#DejaVuSans-95"/>
     <use x="523.046875" xlink:href="#DejaVuSans-109"/>
     <use x="620.458984" xlink:href="#DejaVuSans-111"/>
     <use x="681.640625" xlink:href="#DejaVuSans-118"/>
     <use x="740.820312" xlink:href="#DejaVuSans-105"/>
     <use x="768.603516" xlink:href="#DejaVuSans-101"/>
    </g>
   </g>
  </g>
  <g id="text_11">
   <!-- lancastersensorimotornorms_Mouth.mean [model: lancastersensorimotornorms_Mouth.mean] -->
   <defs>
    <path d="M 9.421875 75.984375 
L 18.40625 75.984375 
L 18.40625 0 
L 9.421875 0 
z
" id="DejaVuSans-108"/>
    <path d="M 54.890625 33.015625 
L 54.890625 0 
L 45.90625 0 
L 45.90625 32.71875 
Q 45.90625 40.484375 42.875 44.328125 
Q 39.84375 48.1875 33.796875 48.1875 
Q 26.515625 48.1875 22.3125 43.546875 
Q 18.109375 38.921875 18.109375 30.90625 
L 18.109375 0 
L 9.078125 0 
L 9.078125 54.6875 
L 18.109375 54.6875 
L 18.109375 46.1875 
Q 21.34375 51.125 25.703125 53.5625 
Q 30.078125 56 35.796875 56 
Q 45.21875 56 50.046875 50.171875 
Q 54.890625 44.34375 54.890625 33.015625 
z
" id="DejaVuSans-110"/>
    <path d="M 48.78125 52.59375 
L 48.78125 44.1875 
Q 44.96875 46.296875 41.140625 47.34375 
Q 37.3125 48.390625 33.40625 48.390625 
Q 24.65625 48.390625 19.8125 42.84375 
Q 14.984375 37.3125 14.984375 27.296875 
Q 14.984375 17.28125 19.8125 11.734375 
Q 24.65625 6.203125 33.40625 6.203125 
Q 37.3125 6.203125 41.140625 7.25 
Q 44.96875 8.296875 48.78125 10.40625 
L 48.78125 2.09375 
Q 45.015625 0.34375 40.984375 -0.53125 
Q 36.96875 -1.421875 32.421875 -1.421875 
Q 20.0625 -1.421875 12.78125 6.34375 
Q 5.515625 14.109375 5.515625 27.296875 
Q 5.515625 40.671875 12.859375 48.328125 
Q 20.21875 56 33.015625 56 
Q 37.15625 56 41.109375 55.140625 
Q 45.0625 54.296875 48.78125 52.59375 
z
" id="DejaVuSans-99"/>
    <path d="M 41.109375 46.296875 
Q 39.59375 47.171875 37.8125 47.578125 
Q 36.03125 48 33.890625 48 
Q 26.265625 48 22.1875 43.046875 
Q 18.109375 38.09375 18.109375 28.8125 
L 18.109375 0 
L 9.078125 0 
L 9.078125 54.6875 
L 18.109375 54.6875 
L 18.109375 46.1875 
Q 20.953125 51.171875 25.484375 53.578125 
Q 30.03125 56 36.53125 56 
Q 37.453125 56 38.578125 55.875 
Q 39.703125 55.765625 41.0625 55.515625 
z
" id="DejaVuSans-114"/>
    <path d="M 9.8125 72.90625 
L 24.515625 72.90625 
L 43.109375 23.296875 
L 61.8125 72.90625 
L 76.515625 72.90625 
L 76.515625 0 
L 66.890625 0 
L 66.890625 64.015625 
L 48.09375 14.015625 
L 38.1875 14.015625 
L 19.390625 64.015625 
L 19.390625 0 
L 9.8125 0 
z
" id="DejaVuSans-77"/>
    <path d="M 54.890625 33.015625 
L 54.890625 0 
L 45.90625 0 
L 45.90625 32.71875 
Q 45.90625 40.484375 42.875 44.328125 
Q 39.84375 48.1875 33.796875 48.1875 
Q 26.515625 48.1875 22.3125 43.546875 
Q 18.109375 38.921875 18.109375 30.90625 
L 18.109375 0 
L 9.078125 0 
L 9.078125 75.984375 
L 18.109375 75.984375 
L 18.109375 46.1875 
Q 21.34375 51.125 25.703125 53.5625 
Q 30.078125 56 35.796875 56 
Q 45.21875 56 50.046875 50.171875 
Q 54.890625 44.34375 54.890625 33.015625 
z
" id="DejaVuSans-104"/>
    <path id="DejaVuSans-32"/>
    <path d="M 8.59375 75.984375 
L 29.296875 75.984375 
L 29.296875 69 
L 17.578125 69 
L 17.578125 -6.203125 
L 29.296875 -6.203125 
L 29.296875 -13.1875 
L 8.59375 -13.1875 
z
" id="DejaVuSans-91"/>
    <path d="M 11.71875 12.40625 
L 22.015625 12.40625 
L 22.015625 0 
L 11.71875 0 
z
M 11.71875 51.703125 
L 22.015625 51.703125 
L 22.015625 39.3125 
L 11.71875 39.3125 
z
" id="DejaVuSans-58"/>
    <path d="M 30.421875 75.984375 
L 30.421875 -13.1875 
L 9.71875 -13.1875 
L 9.71875 -6.203125 
L 21.390625 -6.203125 
L 21.390625 69 
L 9.71875 69 
L 9.71875 75.984375 
z
" id="DejaVuSans-93"/>
   </defs>
   <g transform="translate(145.7475 16.318125)scale(0.12 -0.12)">
    <use xlink:href="#DejaVuSans-108"/>
    <use x="27.783203" xlink:href="#DejaVuSans-97"/>
    <use x="89.0625" xlink:href="#DejaVuSans-110"/>
    <use x="152.441406" xlink:href="#DejaVuSans-99"/>
    <use x="207.421875" xlink:href="#DejaVuSans-97"/>
    <use x="268.701172" xlink:href="#DejaVuSans-115"/>
    <use x="320.800781" xlink:href="#DejaVuSans-116"/>
    <use x="360.009766" xlink:href="#DejaVuSans-101"/>
    <use x="421.533203" xlink:href="#DejaVuSans-114"/>
    <use x="462.646484" xlink:href="#DejaVuSans-115"/>
    <use x="514.746094" xlink:href="#DejaVuSans-101"/>
    <use x="576.269531" xlink:href="#DejaVuSans-110"/>
    <use x="639.648438" xlink:href="#DejaVuSans-115"/>
    <use x="691.748047" xlink:href="#DejaVuSans-111"/>
    <use x="752.929688" xlink:href="#DejaVuSans-114"/>
    <use x="794.042969" xlink:href="#DejaVuSans-105"/>
    <use x="821.826172" xlink:href="#DejaVuSans-109"/>
    <use x="919.238281" xlink:href="#DejaVuSans-111"/>
    <use x="980.419922" xlink:href="#DejaVuSans-116"/>
    <use x="1019.628906" xlink:href="#DejaVuSans-111"/>
    <use x="1080.810547" xlink:href="#DejaVuSans-114"/>
    <use x="1120.173828" xlink:href="#DejaVuSans-110"/>
    <use x="1183.552734" xlink:href="#DejaVuSans-111"/>
    <use x="1244.734375" xlink:href="#DejaVuSans-114"/>
    <use x="1284.097656" xlink:href="#DejaVuSans-109"/>
    <use x="1381.509766" xlink:href="#DejaVuSans-115"/>
    <use x="1433.609375" xlink:href="#DejaVuSans-95"/>
    <use x="1483.609375" xlink:href="#DejaVuSans-77"/>
    <use x="1569.888672" xlink:href="#DejaVuSans-111"/>
    <use x="1631.070312" xlink:href="#DejaVuSans-117"/>
    <use x="1694.449219" xlink:href="#DejaVuSans-116"/>
    <use x="1733.658203" xlink:href="#DejaVuSans-104"/>
    <use x="1797.037109" xlink:href="#DejaVuSans-46"/>
    <use x="1828.824219" xlink:href="#DejaVuSans-109"/>
    <use x="1926.236328" xlink:href="#DejaVuSans-101"/>
    <use x="1987.759766" xlink:href="#DejaVuSans-97"/>
    <use x="2049.039062" xlink:href="#DejaVuSans-110"/>
    <use x="2112.417969" xlink:href="#DejaVuSans-32"/>
    <use x="2144.205078" xlink:href="#DejaVuSans-91"/>
    <use x="2183.21875" xlink:href="#DejaVuSans-109"/>
    <use x="2280.630859" xlink:href="#DejaVuSans-111"/>
    <use x="2341.8125" xlink:href="#DejaVuSans-100"/>
    <use x="2405.289062" xlink:href="#DejaVuSans-101"/>
    <use x="2466.8125" xlink:href="#DejaVuSans-108"/>
    <use x="2494.595703" xlink:href="#DejaVuSans-58"/>
    <use x="2528.287109" xlink:href="#DejaVuSans-32"/>
    <use x="2560.074219" xlink:href="#DejaVuSans-108"/>
    <use x="2587.857422" xlink:href="#DejaVuSans-97"/>
    <use x="2649.136719" xlink:href="#DejaVuSans-110"/>
    <use x="2712.515625" xlink:href="#DejaVuSans-99"/>
    <use x="2767.496094" xlink:href="#DejaVuSans-97"/>
    <use x="2828.775391" xlink:href="#DejaVuSans-115"/>
    <use x="2880.875" xlink:href="#DejaVuSans-116"/>
    <use x="2920.083984" xlink:href="#DejaVuSans-101"/>
    <use x="2981.607422" xlink:href="#DejaVuSans-114"/>
    <use x="3022.720703" xlink:href="#DejaVuSans-115"/>
    <use x="3074.820312" xlink:href="#DejaVuSans-101"/>
    <use x="3136.34375" xlink:href="#DejaVuSans-110"/>
    <use x="3199.722656" xlink:href="#DejaVuSans-115"/>
    <use x="3251.822266" xlink:href="#DejaVuSans-111"/>
    <use x="3313.003906" xlink:href="#DejaVuSans-114"/>
    <use x="3354.117188" xlink:href="#DejaVuSans-105"/>
    <use x="3381.900391" xlink:href="#DejaVuSans-109"/>
    <use x="3479.3125" xlink:href="#DejaVuSans-111"/>
    <use x="3540.494141" xlink:href="#DejaVuSans-116"/>
    <use x="3579.703125" xlink:href="#DejaVuSans-111"/>
    <use x="3640.884766" xlink:href="#DejaVuSans-114"/>
    <use x="3680.248047" xlink:href="#DejaVuSans-110"/>
    <use x="3743.626953" xlink:href="#DejaVuSans-111"/>
    <use x="3804.808594" xlink:href="#DejaVuSans-114"/>
    <use x="3844.171875" xlink:href="#DejaVuSans-109"/>
    <use x="3941.583984" xlink:href="#DejaVuSans-115"/>
    <use x="3993.683594" xlink:href="#DejaVuSans-95"/>
    <use x="4043.683594" xlink:href="#DejaVuSans-77"/>
    <use x="4129.962891" xlink:href="#DejaVuSans-111"/>
    <use x="4191.144531" xlink:href="#DejaVuSans-117"/>
    <use x="4254.523438" xlink:href="#DejaVuSans-116"/>
    <use x="4293.732422" xlink:href="#DejaVuSans-104"/>
    <use x="4357.111328" xlink:href="#DejaVuSans-46"/>
    <use x="4388.898438" xlink:href="#DejaVuSans-109"/>
    <use x="4486.310547" xlink:href="#DejaVuSans-101"/>
    <use x="4547.833984" xlink:href="#DejaVuSans-97"/>
    <use x="4609.113281" xlink:href="#DejaVuSans-110"/>
    <use x="4672.492188" xlink:href="#DejaVuSans-93"/>
   </g>
  </g>
 </g>
 <defs>
  <clipPath id="p49399d8e3b">
   <rect height="33.8" width="811.15" x="38.482813" y="34.592"/>
  </clipPath>
 </defs>
</svg>
