<?xml version="1.0" encoding="utf-8" standalone="no"?>
<!DOCTYPE svg PUBLIC "-//W3C//DTD SVG 1.1//EN"
  "http://www.w3.org/Graphics/SVG/1.1/DTD/svg11.dtd">
<!-- Created with matplotlib (https://matplotlib.org/) -->
<svg height="92.270125pt" version="1.1" viewBox="0 0 856.832812 92.270125" width="856.832812pt" xmlns="http://www.w3.org/2000/svg" xmlns:xlink="http://www.w3.org/1999/xlink">
 <defs>
  <style type="text/css">
*{stroke-linecap:butt;stroke-linejoin:round;}
  </style>
 </defs>
 <g id="figure_1">
  <g id="patch_1">
   <path d="M -0 92.270125 
L 856.832812 92.270125 
L 856.832812 0 
L -0 0 
z
" style="fill:none;"/>
  </g>
  <g id="axes_1">
   <g id="patch_2">
    <path d="M 38.482813 68.392 
L 849.632812 68.392 
L 849.632812 34.592 
L 38.482813 34.592 
z
" style="fill:#ffffff;"/>
   </g>
   <g id="matplotlib.axis_1">
    <g id="xtick_1">
     <g id="line2d_1">
      <defs>
       <path d="M 0 0 
L 0 3.5 
" id="mafe6cfe6f2" style="stroke:#000000;stroke-width:0.8;"/>
      </defs>
      <g>
       <use style="stroke:#000000;stroke-width:0.8;" x="75.353267" xlink:href="#mafe6cfe6f2" y="68.392"/>
      </g>
     </g>
     <g id="text_1">
      <!-- 0 -->
      <defs>
       <path d="M 31.78125 66.40625 
Q 24.171875 66.40625 20.328125 58.90625 
Q 16.5 51.421875 16.5 36.375 
Q 16.5 21.390625 20.328125 13.890625 
Q 24.171875 6.390625 31.78125 6.390625 
Q 39.453125 6.390625 43.28125 13.890625 
Q 47.125 21.390625 47.125 36.375 
Q 47.125 51.421875 43.28125 58.90625 
Q 39.453125 66.40625 31.78125 66.40625 
z
M 31.78125 74.21875 
Q 44.046875 74.21875 50.515625 64.515625 
Q 56.984375 54.828125 56.984375 36.375 
Q 56.984375 17.96875 50.515625 8.265625 
Q 44.046875 -1.421875 31.78125 -1.421875 
Q 19.53125 -1.421875 13.0625 8.265625 
Q 6.59375 17.96875 6.59375 36.375 
Q 6.59375 54.828125 13.0625 64.515625 
Q 19.53125 74.21875 31.78125 74.21875 
z
" id="DejaVuSans-48"/>
      </defs>
      <g transform="translate(72.172017 82.990437)scale(0.1 -0.1)">
       <use xlink:href="#DejaVuSans-48"/>
      </g>
     </g>
    </g>
    <g id="xtick_2">
     <g id="line2d_2">
      <g>
       <use style="stroke:#000000;stroke-width:0.8;" x="213.444857" xlink:href="#mafe6cfe6f2" y="68.392"/>
      </g>
     </g>
     <g id="text_2">
      <!-- 100 -->
      <defs>
       <path d="M 12.40625 8.296875 
L 28.515625 8.296875 
L 28.515625 63.921875 
L 10.984375 60.40625 
L 10.984375 69.390625 
L 28.421875 72.90625 
L 38.28125 72.90625 
L 38.28125 8.296875 
L 54.390625 8.296875 
L 54.390625 0 
L 12.40625 0 
z
" id="DejaVuSans-49"/>
      </defs>
      <g transform="translate(203.901107 82.990437)scale(0.1 -0.1)">
       <use xlink:href="#DejaVuSans-49"/>
       <use x="63.623047" xlink:href="#DejaVuSans-48"/>
       <use x="127.246094" xlink:href="#DejaVuSans-48"/>
      </g>
     </g>
    </g>
    <g id="xtick_3">
     <g id="line2d_3">
      <g>
       <use style="stroke:#000000;stroke-width:0.8;" x="351.536447" xlink:href="#mafe6cfe6f2" y="68.392"/>
      </g>
     </g>
     <g id="text_3">
      <!-- 200 -->
      <defs>
       <path d="M 19.1875 8.296875 
L 53.609375 8.296875 
L 53.609375 0 
L 7.328125 0 
L 7.328125 8.296875 
Q 12.9375 14.109375 22.625 23.890625 
Q 32.328125 33.6875 34.8125 36.53125 
Q 39.546875 41.84375 41.421875 45.53125 
Q 43.3125 49.21875 43.3125 52.78125 
Q 43.3125 58.59375 39.234375 62.25 
Q 35.15625 65.921875 28.609375 65.921875 
Q 23.96875 65.921875 18.8125 64.3125 
Q 13.671875 62.703125 7.8125 59.421875 
L 7.8125 69.390625 
Q 13.765625 71.78125 18.9375 73 
Q 24.125 74.21875 28.421875 74.21875 
Q 39.75 74.21875 46.484375 68.546875 
Q 53.21875 62.890625 53.21875 53.421875 
Q 53.21875 48.921875 51.53125 44.890625 
Q 49.859375 40.875 45.40625 35.40625 
Q 44.1875 33.984375 37.640625 27.21875 
Q 31.109375 20.453125 19.1875 8.296875 
z
" id="DejaVuSans-50"/>
      </defs>
      <g transform="translate(341.992697 82.990437)scale(0.1 -0.1)">
       <use xlink:href="#DejaVuSans-50"/>
       <use x="63.623047" xlink:href="#DejaVuSans-48"/>
       <use x="127.246094" xlink:href="#DejaVuSans-48"/>
      </g>
     </g>
    </g>
    <g id="xtick_4">
     <g id="line2d_4">
      <g>
       <use style="stroke:#000000;stroke-width:0.8;" x="489.628037" xlink:href="#mafe6cfe6f2" y="68.392"/>
      </g>
     </g>
     <g id="text_4">
      <!-- 300 -->
      <defs>
       <path d="M 40.578125 39.3125 
Q 47.65625 37.796875 51.625 33 
Q 55.609375 28.21875 55.609375 21.1875 
Q 55.609375 10.40625 48.1875 4.484375 
Q 40.765625 -1.421875 27.09375 -1.421875 
Q 22.515625 -1.421875 17.65625 -0.515625 
Q 12.796875 0.390625 7.625 2.203125 
L 7.625 11.71875 
Q 11.71875 9.328125 16.59375 8.109375 
Q 21.484375 6.890625 26.8125 6.890625 
Q 36.078125 6.890625 40.9375 10.546875 
Q 45.796875 14.203125 45.796875 21.1875 
Q 45.796875 27.640625 41.28125 31.265625 
Q 36.765625 34.90625 28.71875 34.90625 
L 20.21875 34.90625 
L 20.21875 43.015625 
L 29.109375 43.015625 
Q 36.375 43.015625 40.234375 45.921875 
Q 44.09375 48.828125 44.09375 54.296875 
Q 44.09375 59.90625 40.109375 62.90625 
Q 36.140625 65.921875 28.71875 65.921875 
Q 24.65625 65.921875 20.015625 65.03125 
Q 15.375 64.15625 9.8125 62.3125 
L 9.8125 71.09375 
Q 15.4375 72.65625 20.34375 73.4375 
Q 25.25 74.21875 29.59375 74.21875 
Q 40.828125 74.21875 47.359375 69.109375 
Q 53.90625 64.015625 53.90625 55.328125 
Q 53.90625 49.265625 50.4375 45.09375 
Q 46.96875 40.921875 40.578125 39.3125 
z
" id="DejaVuSans-51"/>
      </defs>
      <g transform="translate(480.084287 82.990437)scale(0.1 -0.1)">
       <use xlink:href="#DejaVuSans-51"/>
       <use x="63.623047" xlink:href="#DejaVuSans-48"/>
       <use x="127.246094" xlink:href="#DejaVuSans-48"/>
      </g>
     </g>
    </g>
    <g id="xtick_5">
     <g id="line2d_5">
      <g>
       <use style="stroke:#000000;stroke-width:0.8;" x="627.719627" xlink:href="#mafe6cfe6f2" y="68.392"/>
      </g>
     </g>
     <g id="text_5">
      <!-- 400 -->
      <defs>
       <path d="M 37.796875 64.3125 
L 12.890625 25.390625 
L 37.796875 25.390625 
z
M 35.203125 72.90625 
L 47.609375 72.90625 
L 47.609375 25.390625 
L 58.015625 25.390625 
L 58.015625 17.1875 
L 47.609375 17.1875 
L 47.609375 0 
L 37.796875 0 
L 37.796875 17.1875 
L 4.890625 17.1875 
L 4.890625 26.703125 
z
" id="DejaVuSans-52"/>
      </defs>
      <g transform="translate(618.175877 82.990437)scale(0.1 -0.1)">
       <use xlink:href="#DejaVuSans-52"/>
       <use x="63.623047" xlink:href="#DejaVuSans-48"/>
       <use x="127.246094" xlink:href="#DejaVuSans-48"/>
      </g>
     </g>
    </g>
    <g id="xtick_6">
     <g id="line2d_6">
      <g>
       <use style="stroke:#000000;stroke-width:0.8;" x="765.811217" xlink:href="#mafe6cfe6f2" y="68.392"/>
      </g>
     </g>
     <g id="text_6">
      <!-- 500 -->
      <defs>
       <path d="M 10.796875 72.90625 
L 49.515625 72.90625 
L 49.515625 64.59375 
L 19.828125 64.59375 
L 19.828125 46.734375 
Q 21.96875 47.46875 24.109375 47.828125 
Q 26.265625 48.1875 28.421875 48.1875 
Q 40.625 48.1875 47.75 41.5 
Q 54.890625 34.8125 54.890625 23.390625 
Q 54.890625 11.625 47.5625 5.09375 
Q 40.234375 -1.421875 26.90625 -1.421875 
Q 22.3125 -1.421875 17.546875 -0.640625 
Q 12.796875 0.140625 7.71875 1.703125 
L 7.71875 11.625 
Q 12.109375 9.234375 16.796875 8.0625 
Q 21.484375 6.890625 26.703125 6.890625 
Q 35.15625 6.890625 40.078125 11.328125 
Q 45.015625 15.765625 45.015625 23.390625 
Q 45.015625 31 40.078125 35.4375 
Q 35.15625 39.890625 26.703125 39.890625 
Q 22.75 39.890625 18.8125 39.015625 
Q 14.890625 38.140625 10.796875 36.28125 
z
" id="DejaVuSans-53"/>
      </defs>
      <g transform="translate(756.267467 82.990437)scale(0.1 -0.1)">
       <use xlink:href="#DejaVuSans-53"/>
       <use x="63.623047" xlink:href="#DejaVuSans-48"/>
       <use x="127.246094" xlink:href="#DejaVuSans-48"/>
      </g>
     </g>
    </g>
   </g>
   <g id="matplotlib.axis_2">
    <g id="ytick_1">
     <g id="line2d_7">
      <defs>
       <path d="M 0 0 
L -3.5 0 
" id="mc718f93758" style="stroke:#000000;stroke-width:0.8;"/>
      </defs>
      <g>
       <use style="stroke:#000000;stroke-width:0.8;" x="38.482813" xlink:href="#mc718f93758" y="60.618569"/>
      </g>
     </g>
     <g id="text_7">
      <!-- −0.5 -->
      <defs>
       <path d="M 10.59375 35.5 
L 73.1875 35.5 
L 73.1875 27.203125 
L 10.59375 27.203125 
z
" id="DejaVuSans-8722"/>
       <path d="M 10.6875 12.40625 
L 21 12.40625 
L 21 0 
L 10.6875 0 
z
" id="DejaVuSans-46"/>
      </defs>
      <g transform="translate(7.2 64.417788)scale(0.1 -0.1)">
       <use xlink:href="#DejaVuSans-8722"/>
       <use x="83.789062" xlink:href="#DejaVuSans-48"/>
       <use x="147.412109" xlink:href="#DejaVuSans-46"/>
       <use x="179.199219" xlink:href="#DejaVuSans-53"/>
      </g>
     </g>
    </g>
    <g id="ytick_2">
     <g id="line2d_8">
      <g>
       <use style="stroke:#000000;stroke-width:0.8;" x="38.482813" xlink:href="#mc718f93758" y="48.837562"/>
      </g>
     </g>
     <g id="text_8">
      <!-- 0.0 -->
      <g transform="translate(15.579688 52.636781)scale(0.1 -0.1)">
       <use xlink:href="#DejaVuSans-48"/>
       <use x="63.623047" xlink:href="#DejaVuSans-46"/>
       <use x="95.410156" xlink:href="#DejaVuSans-48"/>
      </g>
     </g>
    </g>
    <g id="ytick_3">
     <g id="line2d_9">
      <g>
       <use style="stroke:#000000;stroke-width:0.8;" x="38.482813" xlink:href="#mc718f93758" y="37.056555"/>
      </g>
     </g>
     <g id="text_9">
      <!-- 0.5 -->
      <g transform="translate(15.579688 40.855774)scale(0.1 -0.1)">
       <use xlink:href="#DejaVuSans-48"/>
       <use x="63.623047" xlink:href="#DejaVuSans-46"/>
       <use x="95.410156" xlink:href="#DejaVuSans-53"/>
      </g>
     </g>
    </g>
   </g>
   <g id="line2d_10">
    <path clip-path="url(#p86978d0896)" d="M 75.353267 48.837562 
L 93.305174 48.886882 
L 94.68609 49.602816 
L 96.067006 51.34463 
L 97.447921 53.521834 
L 98.828837 55.370815 
L 100.209753 56.567883 
L 101.590669 57.044152 
L 102.971585 57.188359 
L 105.733417 58.146817 
L 107.114333 57.69086 
L 108.495249 55.998975 
L 111.25708 50.525135 
L 112.637996 48.65138 
L 114.018912 47.478135 
L 115.399828 46.859302 
L 116.780744 46.669677 
L 118.16166 46.766925 
L 120.923492 47.336049 
L 125.066239 48.210334 
L 127.828071 48.58274 
L 131.970819 48.83117 
L 140.256314 49.029113 
L 141.63723 49.887349 
L 144.399062 53.179998 
L 145.779978 53.856615 
L 147.160894 53.75817 
L 148.54181 53.521319 
L 149.922726 52.884067 
L 151.303642 51.883107 
L 152.684557 51.387319 
L 154.065473 52.332309 
L 156.827305 55.926444 
L 158.208221 57.407056 
L 159.589137 58.58769 
L 160.970053 59.067734 
L 162.350969 58.602515 
L 163.731885 56.727755 
L 166.493716 50.537487 
L 167.874632 48.232346 
L 169.255548 46.740852 
L 170.636464 45.748104 
L 172.01738 45.244616 
L 173.398296 45.343645 
L 174.779212 46.020266 
L 177.541044 48.35334 
L 178.92196 47.759042 
L 181.683791 43.645272 
L 183.064707 42.671997 
L 184.445623 42.768485 
L 185.826539 43.448287 
L 187.207455 44.360362 
L 188.588371 45.556556 
L 189.969287 46.384363 
L 191.350203 46.126595 
L 192.731119 45.295004 
L 194.112034 44.634982 
L 195.49295 44.594888 
L 196.873866 45.247338 
L 199.635698 47.180414 
L 201.016614 48.013328 
L 202.39753 49.160405 
L 203.778446 51.387783 
L 205.159362 55.384343 
L 206.540278 60.228913 
L 207.921194 63.796409 
L 209.302109 64.965619 
L 210.683025 64.043169 
L 212.063941 61.733234 
L 213.444857 58.917009 
L 214.825773 56.459383 
L 216.206689 54.790353 
L 218.968521 52.243155 
L 220.349437 51.31334 
L 223.111268 50.517979 
L 225.8731 49.532791 
L 228.634932 48.627215 
L 230.015848 48.36858 
L 232.77768 48.18177 
L 236.920427 48.305652 
L 243.825007 48.613439 
L 245.205923 48.047776 
L 246.586839 47.054495 
L 247.967755 47.172523 
L 249.348671 48.258429 
L 250.729586 48.902767 
L 252.110502 49.239219 
L 254.872334 51.140638 
L 256.25325 51.254048 
L 257.634166 49.675563 
L 259.015082 46.464318 
L 261.776914 39.296704 
L 263.15783 36.963749 
L 264.538745 36.128364 
L 265.919661 36.775514 
L 267.300577 38.455218 
L 272.824241 46.724668 
L 275.586073 50.440795 
L 276.966989 51.512579 
L 278.347904 51.074801 
L 279.72882 49.907826 
L 281.109736 49.514812 
L 282.490652 50.946529 
L 283.871568 53.940681 
L 285.252484 57.248149 
L 286.6334 59.882206 
L 288.014316 61.849289 
L 289.395232 62.996147 
L 290.776148 63.170469 
L 292.157063 62.553845 
L 293.537979 60.81008 
L 296.299811 55.1644 
L 297.680727 53.355651 
L 299.061643 52.733209 
L 301.823475 53.258978 
L 304.585307 53.091478 
L 305.966222 52.080016 
L 307.347138 49.798954 
L 308.728054 48.009348 
L 310.10897 48.041941 
L 311.489886 48.228091 
L 312.870802 46.940079 
L 314.251718 44.733962 
L 315.632634 43.082746 
L 317.01355 42.880446 
L 318.394466 43.814206 
L 321.156297 46.428568 
L 322.537213 47.407938 
L 323.918129 47.963147 
L 326.679961 48.001858 
L 328.060877 48.718188 
L 329.441793 49.698615 
L 330.822709 49.586326 
L 332.203625 48.841312 
L 333.58454 48.766518 
L 336.346372 50.231094 
L 337.727288 51.001937 
L 340.48912 53.644584 
L 341.870036 54.362774 
L 343.250952 54.441548 
L 344.631868 54.031553 
L 346.012784 53.205679 
L 347.393699 51.964494 
L 351.536447 47.332521 
L 352.917363 45.599681 
L 354.298279 43.487346 
L 355.679195 41.894024 
L 357.060111 41.421708 
L 359.821943 42.523947 
L 361.202858 42.016609 
L 362.583774 41.008665 
L 363.96469 40.658762 
L 365.345606 41.449298 
L 368.107438 44.989036 
L 369.488354 46.144434 
L 370.86927 46.481344 
L 372.250186 46.406535 
L 373.631102 46.457844 
L 375.012017 47.083694 
L 376.392933 48.527046 
L 379.154765 53.027288 
L 380.535681 54.449721 
L 381.916597 54.913662 
L 383.297513 54.652242 
L 384.678429 54.158663 
L 386.059345 54.013606 
L 387.440261 54.477066 
L 388.821176 55.368331 
L 390.202092 55.900801 
L 391.583008 55.211837 
L 392.963924 53.184732 
L 394.34484 50.726099 
L 395.725756 48.679952 
L 397.106672 47.356669 
L 398.487588 46.557245 
L 402.630335 44.935123 
L 404.011251 44.075681 
L 405.392167 43.627866 
L 406.773083 44.202585 
L 409.534915 47.15745 
L 410.915831 48.138717 
L 412.296747 47.955708 
L 413.677663 46.71851 
L 416.439494 42.86773 
L 417.82041 41.817136 
L 419.201326 42.004642 
L 423.344074 45.196488 
L 424.72499 45.773522 
L 426.105906 46.177488 
L 427.486822 46.971162 
L 428.867738 48.363786 
L 431.629569 51.794037 
L 433.010485 53.02492 
L 434.391401 53.485986 
L 435.772317 53.345949 
L 437.153233 52.794607 
L 438.534149 52.004455 
L 439.915065 50.847224 
L 441.295981 49.415602 
L 442.676897 48.814628 
L 444.057812 49.346373 
L 445.438728 50.168173 
L 446.819644 50.582224 
L 452.343308 50.499246 
L 455.10514 49.882507 
L 459.247887 48.718034 
L 462.009719 47.017307 
L 463.390635 46.83977 
L 464.771551 47.703322 
L 466.152467 49.498916 
L 467.533383 51.107576 
L 468.914299 51.135872 
L 470.295215 49.651495 
L 471.676131 48.335894 
L 473.057046 48.316149 
L 474.437962 49.069566 
L 477.199794 51.018572 
L 478.58071 51.638927 
L 479.961626 51.158204 
L 481.342542 48.990348 
L 482.723458 46.156304 
L 484.104374 44.497698 
L 485.48529 44.332252 
L 486.866205 44.911005 
L 491.008953 47.374097 
L 492.389869 47.968925 
L 495.151701 48.823766 
L 496.532617 49.566227 
L 497.913533 50.529307 
L 499.294449 51.200226 
L 500.675364 51.316189 
L 502.05628 50.714217 
L 503.437196 49.781276 
L 504.818112 49.540345 
L 506.199028 50.197096 
L 507.579944 51.029847 
L 510.341776 51.012868 
L 511.722692 52.432549 
L 513.103608 54.157578 
L 514.484523 53.266422 
L 515.865439 48.948578 
L 517.246355 43.839592 
L 518.627271 40.832405 
L 520.008187 40.536171 
L 521.389103 41.996315 
L 522.770019 43.876728 
L 524.150935 45.351689 
L 525.531851 46.530567 
L 526.912767 47.30031 
L 528.293682 47.475148 
L 529.674598 47.525289 
L 531.055514 47.788152 
L 532.43643 48.308135 
L 533.817346 48.422526 
L 535.198262 47.776023 
L 536.579178 46.985714 
L 537.960094 46.608685 
L 539.34101 46.633369 
L 542.102841 47.059033 
L 544.864673 47.670928 
L 550.388337 48.58807 
L 551.769253 49.402407 
L 554.531085 52.927545 
L 555.912 53.77835 
L 557.292916 53.593919 
L 558.673832 52.775814 
L 560.054748 51.575153 
L 561.435664 50.092065 
L 562.81658 48.897514 
L 564.197496 48.984706 
L 565.578412 50.518562 
L 566.959328 51.714932 
L 568.340244 51.164656 
L 571.102075 47.931928 
L 572.482991 47.07541 
L 575.244823 46.279789 
L 576.625739 45.152235 
L 578.006655 43.846024 
L 579.387571 43.24599 
L 580.768487 43.584035 
L 582.149403 44.553632 
L 584.911234 46.822111 
L 586.29215 47.699191 
L 587.673066 48.345393 
L 589.053982 48.792298 
L 590.434898 49.082142 
L 593.19673 49.332847 
L 595.958562 49.318115 
L 602.863141 49.1091 
L 604.244057 49.180378 
L 605.624973 49.578566 
L 607.005889 50.165148 
L 608.386805 50.07159 
L 609.767721 48.049657 
L 611.148636 44.272125 
L 612.529552 41.328903 
L 613.910468 40.825515 
L 615.291384 41.2884 
L 618.053216 41.678313 
L 619.434132 42.475207 
L 620.815048 43.786585 
L 623.57688 46.674597 
L 624.957795 47.772134 
L 626.338711 48.123212 
L 627.719627 46.747296 
L 630.481459 40.935722 
L 631.862375 39.76296 
L 633.243291 40.377574 
L 634.624207 42.066183 
L 636.005123 44.046737 
L 637.386039 45.83184 
L 638.766954 47.236512 
L 640.14787 48.256234 
L 641.528786 48.95545 
L 642.909702 49.405318 
L 644.290618 49.664665 
L 647.05245 49.787105 
L 651.195198 49.480107 
L 656.718861 49.04602 
L 660.861609 48.900747 
L 662.242525 48.608251 
L 663.623441 47.611738 
L 665.004357 46.344609 
L 666.385272 45.572333 
L 667.766188 45.53266 
L 669.147104 46.022174 
L 670.52802 46.687338 
L 671.908936 47.001882 
L 673.289852 47.012659 
L 674.670768 47.136486 
L 676.051684 47.584682 
L 678.813516 49.261051 
L 680.194431 49.896005 
L 681.575347 49.39082 
L 682.956263 46.62871 
L 684.337179 42.857494 
L 685.718095 40.30912 
L 687.099011 39.820769 
L 688.479927 41.063076 
L 691.241759 44.776793 
L 692.622675 46.156496 
L 694.003591 47.215184 
L 695.384506 48.037526 
L 696.765422 48.664798 
L 698.146338 49.113437 
L 699.527254 49.401815 
L 700.90817 49.540882 
L 702.289086 49.418488 
L 703.670002 48.479292 
L 705.050918 46.379086 
L 706.431834 44.52067 
L 707.81275 44.335857 
L 709.193665 45.889763 
L 710.574581 48.141268 
L 711.955497 49.877502 
L 713.336413 50.621229 
L 714.717329 50.097581 
L 717.479161 46.901574 
L 718.860077 46.334719 
L 720.240993 46.27335 
L 721.621909 45.358996 
L 723.002824 44.074022 
L 724.38374 43.426577 
L 725.764656 43.358386 
L 727.145572 43.693769 
L 728.526488 44.396381 
L 731.28832 46.366667 
L 732.669236 46.907719 
L 734.050152 46.932691 
L 735.431068 46.282877 
L 738.192899 43.712756 
L 739.573815 42.958374 
L 740.954731 42.565248 
L 742.335647 42.663817 
L 743.716563 43.887789 
L 745.097479 47.197343 
L 747.859311 57.302718 
L 749.240227 61.545208 
L 750.621142 64.432782 
L 752.002058 66.288467 
L 753.382974 66.855636 
L 754.76389 65.446347 
L 756.144806 62.404187 
L 758.906638 53.778885 
L 760.287554 50.610298 
L 761.66847 49.433288 
L 763.049386 49.812415 
L 764.430301 50.477035 
L 765.811217 50.472786 
L 767.192133 50.107976 
L 768.573049 49.958506 
L 771.334881 50.005828 
L 772.715797 49.764878 
L 776.858545 48.26553 
L 778.23946 48.006886 
L 779.620376 47.918941 
L 781.001292 48.0934 
L 782.382208 48.852889 
L 783.763124 49.868108 
L 785.14404 50.403202 
L 786.524956 50.070056 
L 787.905872 48.764809 
L 789.286788 47.180887 
L 790.667704 46.152588 
L 794.810451 44.364096 
L 796.191367 44.362985 
L 797.572283 44.930902 
L 801.715031 47.567149 
L 803.095947 48.201084 
L 804.476863 48.656594 
L 805.857778 48.960865 
L 808.61961 49.245981 
L 811.381442 49.267384 
L 812.762358 49.223617 
L 812.762358 49.223617 
" style="fill:none;stroke:#1f77b4;stroke-linecap:square;stroke-width:1.5;"/>
   </g>
   <g id="patch_3">
    <path d="M 38.482813 68.392 
L 38.482813 34.592 
" style="fill:none;stroke:#000000;stroke-linecap:square;stroke-linejoin:miter;stroke-width:0.8;"/>
   </g>
   <g id="patch_4">
    <path d="M 38.482813 68.392 
L 849.632812 68.392 
" style="fill:none;stroke:#000000;stroke-linecap:square;stroke-linejoin:miter;stroke-width:0.8;"/>
   </g>
   <g id="text_10">
    <!-- Budapest_movie -->
    <defs>
     <path d="M 19.671875 34.8125 
L 19.671875 8.109375 
L 35.5 8.109375 
Q 43.453125 8.109375 47.28125 11.40625 
Q 51.125 14.703125 51.125 21.484375 
Q 51.125 28.328125 47.28125 31.5625 
Q 43.453125 34.8125 35.5 34.8125 
z
M 19.671875 64.796875 
L 19.671875 42.828125 
L 34.28125 42.828125 
Q 41.5 42.828125 45.03125 45.53125 
Q 48.578125 48.25 48.578125 53.8125 
Q 48.578125 59.328125 45.03125 62.0625 
Q 41.5 64.796875 34.28125 64.796875 
z
M 9.8125 72.90625 
L 35.015625 72.90625 
Q 46.296875 72.90625 52.390625 68.21875 
Q 58.5 63.53125 58.5 54.890625 
Q 58.5 48.1875 55.375 44.234375 
Q 52.25 40.28125 46.1875 39.3125 
Q 53.46875 37.75 57.5 32.78125 
Q 61.53125 27.828125 61.53125 20.40625 
Q 61.53125 10.640625 54.890625 5.3125 
Q 48.25 0 35.984375 0 
L 9.8125 0 
z
" id="DejaVuSans-66"/>
     <path d="M 8.5 21.578125 
L 8.5 54.6875 
L 17.484375 54.6875 
L 17.484375 21.921875 
Q 17.484375 14.15625 20.5 10.265625 
Q 23.53125 6.390625 29.59375 6.390625 
Q 36.859375 6.390625 41.078125 11.03125 
Q 45.3125 15.671875 45.3125 23.6875 
L 45.3125 54.6875 
L 54.296875 54.6875 
L 54.296875 0 
L 45.3125 0 
L 45.3125 8.40625 
Q 42.046875 3.421875 37.71875 1 
Q 33.40625 -1.421875 27.6875 -1.421875 
Q 18.265625 -1.421875 13.375 4.4375 
Q 8.5 10.296875 8.5 21.578125 
z
M 31.109375 56 
z
" id="DejaVuSans-117"/>
     <path d="M 45.40625 46.390625 
L 45.40625 75.984375 
L 54.390625 75.984375 
L 54.390625 0 
L 45.40625 0 
L 45.40625 8.203125 
Q 42.578125 3.328125 38.25 0.953125 
Q 33.9375 -1.421875 27.875 -1.421875 
Q 17.96875 -1.421875 11.734375 6.484375 
Q 5.515625 14.40625 5.515625 27.296875 
Q 5.515625 40.1875 11.734375 48.09375 
Q 17.96875 56 27.875 56 
Q 33.9375 56 38.25 53.625 
Q 42.578125 51.265625 45.40625 46.390625 
z
M 14.796875 27.296875 
Q 14.796875 17.390625 18.875 11.75 
Q 22.953125 6.109375 30.078125 6.109375 
Q 37.203125 6.109375 41.296875 11.75 
Q 45.40625 17.390625 45.40625 27.296875 
Q 45.40625 37.203125 41.296875 42.84375 
Q 37.203125 48.484375 30.078125 48.484375 
Q 22.953125 48.484375 18.875 42.84375 
Q 14.796875 37.203125 14.796875 27.296875 
z
" id="DejaVuSans-100"/>
     <path d="M 34.28125 27.484375 
Q 23.390625 27.484375 19.1875 25 
Q 14.984375 22.515625 14.984375 16.5 
Q 14.984375 11.71875 18.140625 8.90625 
Q 21.296875 6.109375 26.703125 6.109375 
Q 34.1875 6.109375 38.703125 11.40625 
Q 43.21875 16.703125 43.21875 25.484375 
L 43.21875 27.484375 
z
M 52.203125 31.203125 
L 52.203125 0 
L 43.21875 0 
L 43.21875 8.296875 
Q 40.140625 3.328125 35.546875 0.953125 
Q 30.953125 -1.421875 24.3125 -1.421875 
Q 15.921875 -1.421875 10.953125 3.296875 
Q 6 8.015625 6 15.921875 
Q 6 25.140625 12.171875 29.828125 
Q 18.359375 34.515625 30.609375 34.515625 
L 43.21875 34.515625 
L 43.21875 35.40625 
Q 43.21875 41.609375 39.140625 45 
Q 35.0625 48.390625 27.6875 48.390625 
Q 23 48.390625 18.546875 47.265625 
Q 14.109375 46.140625 10.015625 43.890625 
L 10.015625 52.203125 
Q 14.9375 54.109375 19.578125 55.046875 
Q 24.21875 56 28.609375 56 
Q 40.484375 56 46.34375 49.84375 
Q 52.203125 43.703125 52.203125 31.203125 
z
" id="DejaVuSans-97"/>
     <path d="M 18.109375 8.203125 
L 18.109375 -20.796875 
L 9.078125 -20.796875 
L 9.078125 54.6875 
L 18.109375 54.6875 
L 18.109375 46.390625 
Q 20.953125 51.265625 25.265625 53.625 
Q 29.59375 56 35.59375 56 
Q 45.5625 56 51.78125 48.09375 
Q 58.015625 40.1875 58.015625 27.296875 
Q 58.015625 14.40625 51.78125 6.484375 
Q 45.5625 -1.421875 35.59375 -1.421875 
Q 29.59375 -1.421875 25.265625 0.953125 
Q 20.953125 3.328125 18.109375 8.203125 
z
M 48.6875 27.296875 
Q 48.6875 37.203125 44.609375 42.84375 
Q 40.53125 48.484375 33.40625 48.484375 
Q 26.265625 48.484375 22.1875 42.84375 
Q 18.109375 37.203125 18.109375 27.296875 
Q 18.109375 17.390625 22.1875 11.75 
Q 26.265625 6.109375 33.40625 6.109375 
Q 40.53125 6.109375 44.609375 11.75 
Q 48.6875 17.390625 48.6875 27.296875 
z
" id="DejaVuSans-112"/>
     <path d="M 56.203125 29.59375 
L 56.203125 25.203125 
L 14.890625 25.203125 
Q 15.484375 15.921875 20.484375 11.0625 
Q 25.484375 6.203125 34.421875 6.203125 
Q 39.59375 6.203125 44.453125 7.46875 
Q 49.3125 8.734375 54.109375 11.28125 
L 54.109375 2.78125 
Q 49.265625 0.734375 44.1875 -0.34375 
Q 39.109375 -1.421875 33.890625 -1.421875 
Q 20.796875 -1.421875 13.15625 6.1875 
Q 5.515625 13.8125 5.515625 26.8125 
Q 5.515625 40.234375 12.765625 48.109375 
Q 20.015625 56 32.328125 56 
Q 43.359375 56 49.78125 48.890625 
Q 56.203125 41.796875 56.203125 29.59375 
z
M 47.21875 32.234375 
Q 47.125 39.59375 43.09375 43.984375 
Q 39.0625 48.390625 32.421875 48.390625 
Q 24.90625 48.390625 20.390625 44.140625 
Q 15.875 39.890625 15.1875 32.171875 
z
" id="DejaVuSans-101"/>
     <path d="M 44.28125 53.078125 
L 44.28125 44.578125 
Q 40.484375 46.53125 36.375 47.5 
Q 32.28125 48.484375 27.875 48.484375 
Q 21.1875 48.484375 17.84375 46.4375 
Q 14.5 44.390625 14.5 40.28125 
Q 14.5 37.15625 16.890625 35.375 
Q 19.28125 33.59375 26.515625 31.984375 
L 29.59375 31.296875 
Q 39.15625 29.25 43.1875 25.515625 
Q 47.21875 21.78125 47.21875 15.09375 
Q 47.21875 7.46875 41.1875 3.015625 
Q 35.15625 -1.421875 24.609375 -1.421875 
Q 20.21875 -1.421875 15.453125 -0.5625 
Q 10.6875 0.296875 5.421875 2 
L 5.421875 11.28125 
Q 10.40625 8.6875 15.234375 7.390625 
Q 20.0625 6.109375 24.8125 6.109375 
Q 31.15625 6.109375 34.5625 8.28125 
Q 37.984375 10.453125 37.984375 14.40625 
Q 37.984375 18.0625 35.515625 20.015625 
Q 33.0625 21.96875 24.703125 23.78125 
L 21.578125 24.515625 
Q 13.234375 26.265625 9.515625 29.90625 
Q 5.8125 33.546875 5.8125 39.890625 
Q 5.8125 47.609375 11.28125 51.796875 
Q 16.75 56 26.8125 56 
Q 31.78125 56 36.171875 55.265625 
Q 40.578125 54.546875 44.28125 53.078125 
z
" id="DejaVuSans-115"/>
     <path d="M 18.3125 70.21875 
L 18.3125 54.6875 
L 36.8125 54.6875 
L 36.8125 47.703125 
L 18.3125 47.703125 
L 18.3125 18.015625 
Q 18.3125 11.328125 20.140625 9.421875 
Q 21.96875 7.515625 27.59375 7.515625 
L 36.8125 7.515625 
L 36.8125 0 
L 27.59375 0 
Q 17.1875 0 13.234375 3.875 
Q 9.28125 7.765625 9.28125 18.015625 
L 9.28125 47.703125 
L 2.6875 47.703125 
L 2.6875 54.6875 
L 9.28125 54.6875 
L 9.28125 70.21875 
z
" id="DejaVuSans-116"/>
     <path d="M 50.984375 -16.609375 
L 50.984375 -23.578125 
L -0.984375 -23.578125 
L -0.984375 -16.609375 
z
" id="DejaVuSans-95"/>
     <path d="M 52 44.1875 
Q 55.375 50.25 60.0625 53.125 
Q 64.75 56 71.09375 56 
Q 79.640625 56 84.28125 50.015625 
Q 88.921875 44.046875 88.921875 33.015625 
L 88.921875 0 
L 79.890625 0 
L 79.890625 32.71875 
Q 79.890625 40.578125 77.09375 44.375 
Q 74.3125 48.1875 68.609375 48.1875 
Q 61.625 48.1875 57.5625 43.546875 
Q 53.515625 38.921875 53.515625 30.90625 
L 53.515625 0 
L 44.484375 0 
L 44.484375 32.71875 
Q 44.484375 40.625 41.703125 44.40625 
Q 38.921875 48.1875 33.109375 48.1875 
Q 26.21875 48.1875 22.15625 43.53125 
Q 18.109375 38.875 18.109375 30.90625 
L 18.109375 0 
L 9.078125 0 
L 9.078125 54.6875 
L 18.109375 54.6875 
L 18.109375 46.1875 
Q 21.1875 51.21875 25.484375 53.609375 
Q 29.78125 56 35.6875 56 
Q 41.65625 56 45.828125 52.96875 
Q 50 49.953125 52 44.1875 
z
" id="DejaVuSans-109"/>
     <path d="M 30.609375 48.390625 
Q 23.390625 48.390625 19.1875 42.75 
Q 14.984375 37.109375 14.984375 27.296875 
Q 14.984375 17.484375 19.15625 11.84375 
Q 23.34375 6.203125 30.609375 6.203125 
Q 37.796875 6.203125 41.984375 11.859375 
Q 46.1875 17.53125 46.1875 27.296875 
Q 46.1875 37.015625 41.984375 42.703125 
Q 37.796875 48.390625 30.609375 48.390625 
z
M 30.609375 56 
Q 42.328125 56 49.015625 48.375 
Q 55.71875 40.765625 55.71875 27.296875 
Q 55.71875 13.875 49.015625 6.21875 
Q 42.328125 -1.421875 30.609375 -1.421875 
Q 18.84375 -1.421875 12.171875 6.21875 
Q 5.515625 13.875 5.515625 27.296875 
Q 5.515625 40.765625 12.171875 48.375 
Q 18.84375 56 30.609375 56 
z
" id="DejaVuSans-111"/>
     <path d="M 2.984375 54.6875 
L 12.5 54.6875 
L 29.59375 8.796875 
L 46.6875 54.6875 
L 56.203125 54.6875 
L 35.6875 0 
L 23.484375 0 
z
" id="DejaVuSans-118"/>
     <path d="M 9.421875 54.6875 
L 18.40625 54.6875 
L 18.40625 0 
L 9.421875 0 
z
M 9.421875 75.984375 
L 18.40625 75.984375 
L 18.40625 64.59375 
L 9.421875 64.59375 
z
" id="DejaVuSans-105"/>
    </defs>
    <g transform="translate(402.55 28.592)scale(0.1 -0.1)">
     <use xlink:href="#DejaVuSans-66"/>
     <use x="68.603516" xlink:href="#DejaVuSans-117"/>
     <use x="131.982422" xlink:href="#DejaVuSans-100"/>
     <use x="195.458984" xlink:href="#DejaVuSans-97"/>
     <use x="256.738281" xlink:href="#DejaVuSans-112"/>
     <use x="320.214844" xlink:href="#DejaVuSans-101"/>
     <use x="381.738281" xlink:href="#DejaVuSans-115"/>
     <use x="433.837891" xlink:href="#DejaVuSans-116"/>
     <use x="473.046875" xlink:href="#DejaVuSans-95"/>
     <use x="523.046875" xlink:href="#DejaVuSans-109"/>
     <use x="620.458984" xlink:href="#DejaVuSans-111"/>
     <use x="681.640625" xlink:href="#DejaVuSans-118"/>
     <use x="740.820312" xlink:href="#DejaVuSans-105"/>
     <use x="768.603516" xlink:href="#DejaVuSans-101"/>
    </g>
   </g>
  </g>
  <g id="text_11">
   <!-- lancastersensorimotornorms_Auditory.mean [model: lancastersensorimotornorms_Auditory.mean] -->
   <defs>
    <path d="M 9.421875 75.984375 
L 18.40625 75.984375 
L 18.40625 0 
L 9.421875 0 
z
" id="DejaVuSans-108"/>
    <path d="M 54.890625 33.015625 
L 54.890625 0 
L 45.90625 0 
L 45.90625 32.71875 
Q 45.90625 40.484375 42.875 44.328125 
Q 39.84375 48.1875 33.796875 48.1875 
Q 26.515625 48.1875 22.3125 43.546875 
Q 18.109375 38.921875 18.109375 30.90625 
L 18.109375 0 
L 9.078125 0 
L 9.078125 54.6875 
L 18.109375 54.6875 
L 18.109375 46.1875 
Q 21.34375 51.125 25.703125 53.5625 
Q 30.078125 56 35.796875 56 
Q 45.21875 56 50.046875 50.171875 
Q 54.890625 44.34375 54.890625 33.015625 
z
" id="DejaVuSans-110"/>
    <path d="M 48.78125 52.59375 
L 48.78125 44.1875 
Q 44.96875 46.296875 41.140625 47.34375 
Q 37.3125 48.390625 33.40625 48.390625 
Q 24.65625 48.390625 19.8125 42.84375 
Q 14.984375 37.3125 14.984375 27.296875 
Q 14.984375 17.28125 19.8125 11.734375 
Q 24.65625 6.203125 33.40625 6.203125 
Q 37.3125 6.203125 41.140625 7.25 
Q 44.96875 8.296875 48.78125 10.40625 
L 48.78125 2.09375 
Q 45.015625 0.34375 40.984375 -0.53125 
Q 36.96875 -1.421875 32.421875 -1.421875 
Q 20.0625 -1.421875 12.78125 6.34375 
Q 5.515625 14.109375 5.515625 27.296875 
Q 5.515625 40.671875 12.859375 48.328125 
Q 20.21875 56 33.015625 56 
Q 37.15625 56 41.109375 55.140625 
Q 45.0625 54.296875 48.78125 52.59375 
z
" id="DejaVuSans-99"/>
    <path d="M 41.109375 46.296875 
Q 39.59375 47.171875 37.8125 47.578125 
Q 36.03125 48 33.890625 48 
Q 26.265625 48 22.1875 43.046875 
Q 18.109375 38.09375 18.109375 28.8125 
L 18.109375 0 
L 9.078125 0 
L 9.078125 54.6875 
L 18.109375 54.6875 
L 18.109375 46.1875 
Q 20.953125 51.171875 25.484375 53.578125 
Q 30.03125 56 36.53125 56 
Q 37.453125 56 38.578125 55.875 
Q 39.703125 55.765625 41.0625 55.515625 
z
" id="DejaVuSans-114"/>
    <path d="M 34.1875 63.1875 
L 20.796875 26.90625 
L 47.609375 26.90625 
z
M 28.609375 72.90625 
L 39.796875 72.90625 
L 67.578125 0 
L 57.328125 0 
L 50.6875 18.703125 
L 17.828125 18.703125 
L 11.1875 0 
L 0.78125 0 
z
" id="DejaVuSans-65"/>
    <path d="M 32.171875 -5.078125 
Q 28.375 -14.84375 24.75 -17.8125 
Q 21.140625 -20.796875 15.09375 -20.796875 
L 7.90625 -20.796875 
L 7.90625 -13.28125 
L 13.1875 -13.28125 
Q 16.890625 -13.28125 18.9375 -11.515625 
Q 21 -9.765625 23.484375 -3.21875 
L 25.09375 0.875 
L 2.984375 54.6875 
L 12.5 54.6875 
L 29.59375 11.921875 
L 46.6875 54.6875 
L 56.203125 54.6875 
z
" id="DejaVuSans-121"/>
    <path id="DejaVuSans-32"/>
    <path d="M 8.59375 75.984375 
L 29.296875 75.984375 
L 29.296875 69 
L 17.578125 69 
L 17.578125 -6.203125 
L 29.296875 -6.203125 
L 29.296875 -13.1875 
L 8.59375 -13.1875 
z
" id="DejaVuSans-91"/>
    <path d="M 11.71875 12.40625 
L 22.015625 12.40625 
L 22.015625 0 
L 11.71875 0 
z
M 11.71875 51.703125 
L 22.015625 51.703125 
L 22.015625 39.3125 
L 11.71875 39.3125 
z
" id="DejaVuSans-58"/>
    <path d="M 30.421875 75.984375 
L 30.421875 -13.1875 
L 9.71875 -13.1875 
L 9.71875 -6.203125 
L 21.390625 -6.203125 
L 21.390625 69 
L 9.71875 69 
L 9.71875 75.984375 
z
" id="DejaVuSans-93"/>
   </defs>
   <g transform="translate(134.22 16.318125)scale(0.12 -0.12)">
    <use xlink:href="#DejaVuSans-108"/>
    <use x="27.783203" xlink:href="#DejaVuSans-97"/>
    <use x="89.0625" xlink:href="#DejaVuSans-110"/>
    <use x="152.441406" xlink:href="#DejaVuSans-99"/>
    <use x="207.421875" xlink:href="#DejaVuSans-97"/>
    <use x="268.701172" xlink:href="#DejaVuSans-115"/>
    <use x="320.800781" xlink:href="#DejaVuSans-116"/>
    <use x="360.009766" xlink:href="#DejaVuSans-101"/>
    <use x="421.533203" xlink:href="#DejaVuSans-114"/>
    <use x="462.646484" xlink:href="#DejaVuSans-115"/>
    <use x="514.746094" xlink:href="#DejaVuSans-101"/>
    <use x="576.269531" xlink:href="#DejaVuSans-110"/>
    <use x="639.648438" xlink:href="#DejaVuSans-115"/>
    <use x="691.748047" xlink:href="#DejaVuSans-111"/>
    <use x="752.929688" xlink:href="#DejaVuSans-114"/>
    <use x="794.042969" xlink:href="#DejaVuSans-105"/>
    <use x="821.826172" xlink:href="#DejaVuSans-109"/>
    <use x="919.238281" xlink:href="#DejaVuSans-111"/>
    <use x="980.419922" xlink:href="#DejaVuSans-116"/>
    <use x="1019.628906" xlink:href="#DejaVuSans-111"/>
    <use x="1080.810547" xlink:href="#DejaVuSans-114"/>
    <use x="1120.173828" xlink:href="#DejaVuSans-110"/>
    <use x="1183.552734" xlink:href="#DejaVuSans-111"/>
    <use x="1244.734375" xlink:href="#DejaVuSans-114"/>
    <use x="1284.097656" xlink:href="#DejaVuSans-109"/>
    <use x="1381.509766" xlink:href="#DejaVuSans-115"/>
    <use x="1433.609375" xlink:href="#DejaVuSans-95"/>
    <use x="1483.609375" xlink:href="#DejaVuSans-65"/>
    <use x="1552.017578" xlink:href="#DejaVuSans-117"/>
    <use x="1615.396484" xlink:href="#DejaVuSans-100"/>
    <use x="1678.873047" xlink:href="#DejaVuSans-105"/>
    <use x="1706.65625" xlink:href="#DejaVuSans-116"/>
    <use x="1745.865234" xlink:href="#DejaVuSans-111"/>
    <use x="1807.046875" xlink:href="#DejaVuSans-114"/>
    <use x="1848.160156" xlink:href="#DejaVuSans-121"/>
    <use x="1893.089844" xlink:href="#DejaVuSans-46"/>
    <use x="1924.876953" xlink:href="#DejaVuSans-109"/>
    <use x="2022.289062" xlink:href="#DejaVuSans-101"/>
    <use x="2083.8125" xlink:href="#DejaVuSans-97"/>
    <use x="2145.091797" xlink:href="#DejaVuSans-110"/>
    <use x="2208.470703" xlink:href="#DejaVuSans-32"/>
    <use x="2240.257812" xlink:href="#DejaVuSans-91"/>
    <use x="2279.271484" xlink:href="#DejaVuSans-109"/>
    <use x="2376.683594" xlink:href="#DejaVuSans-111"/>
    <use x="2437.865234" xlink:href="#DejaVuSans-100"/>
    <use x="2501.341797" xlink:href="#DejaVuSans-101"/>
    <use x="2562.865234" xlink:href="#DejaVuSans-108"/>
    <use x="2590.648438" xlink:href="#DejaVuSans-58"/>
    <use x="2624.339844" xlink:href="#DejaVuSans-32"/>
    <use x="2656.126953" xlink:href="#DejaVuSans-108"/>
    <use x="2683.910156" xlink:href="#DejaVuSans-97"/>
    <use x="2745.189453" xlink:href="#DejaVuSans-110"/>
    <use x="2808.568359" xlink:href="#DejaVuSans-99"/>
    <use x="2863.548828" xlink:href="#DejaVuSans-97"/>
    <use x="2924.828125" xlink:href="#DejaVuSans-115"/>
    <use x="2976.927734" xlink:href="#DejaVuSans-116"/>
    <use x="3016.136719" xlink:href="#DejaVuSans-101"/>
    <use x="3077.660156" xlink:href="#DejaVuSans-114"/>
    <use x="3118.773438" xlink:href="#DejaVuSans-115"/>
    <use x="3170.873047" xlink:href="#DejaVuSans-101"/>
    <use x="3232.396484" xlink:href="#DejaVuSans-110"/>
    <use x="3295.775391" xlink:href="#DejaVuSans-115"/>
    <use x="3347.875" xlink:href="#DejaVuSans-111"/>
    <use x="3409.056641" xlink:href="#DejaVuSans-114"/>
    <use x="3450.169922" xlink:href="#DejaVuSans-105"/>
    <use x="3477.953125" xlink:href="#DejaVuSans-109"/>
    <use x="3575.365234" xlink:href="#DejaVuSans-111"/>
    <use x="3636.546875" xlink:href="#DejaVuSans-116"/>
    <use x="3675.755859" xlink:href="#DejaVuSans-111"/>
    <use x="3736.9375" xlink:href="#DejaVuSans-114"/>
    <use x="3776.300781" xlink:href="#DejaVuSans-110"/>
    <use x="3839.679688" xlink:href="#DejaVuSans-111"/>
    <use x="3900.861328" xlink:href="#DejaVuSans-114"/>
    <use x="3940.224609" xlink:href="#DejaVuSans-109"/>
    <use x="4037.636719" xlink:href="#DejaVuSans-115"/>
    <use x="4089.736328" xlink:href="#DejaVuSans-95"/>
    <use x="4139.736328" xlink:href="#DejaVuSans-65"/>
    <use x="4208.144531" xlink:href="#DejaVuSans-117"/>
    <use x="4271.523438" xlink:href="#DejaVuSans-100"/>
    <use x="4335" xlink:href="#DejaVuSans-105"/>
    <use x="4362.783203" xlink:href="#DejaVuSans-116"/>
    <use x="4401.992188" xlink:href="#DejaVuSans-111"/>
    <use x="4463.173828" xlink:href="#DejaVuSans-114"/>
    <use x="4504.287109" xlink:href="#DejaVuSans-121"/>
    <use x="4549.216797" xlink:href="#DejaVuSans-46"/>
    <use x="4581.003906" xlink:href="#DejaVuSans-109"/>
    <use x="4678.416016" xlink:href="#DejaVuSans-101"/>
    <use x="4739.939453" xlink:href="#DejaVuSans-97"/>
    <use x="4801.21875" xlink:href="#DejaVuSans-110"/>
    <use x="4864.597656" xlink:href="#DejaVuSans-93"/>
   </g>
  </g>
 </g>
 <defs>
  <clipPath id="p86978d0896">
   <rect height="33.8" width="811.15" x="38.482813" y="34.592"/>
  </clipPath>
 </defs>
</svg>
