<?xml version="1.0" encoding="utf-8" standalone="no"?>
<!DOCTYPE svg PUBLIC "-//W3C//DTD SVG 1.1//EN"
  "http://www.w3.org/Graphics/SVG/1.1/DTD/svg11.dtd">
<!-- Created with matplotlib (https://matplotlib.org/) -->
<svg height="92.270125pt" version="1.1" viewBox="0 0 856.828125 92.270125" width="856.828125pt" xmlns="http://www.w3.org/2000/svg" xmlns:xlink="http://www.w3.org/1999/xlink">
 <defs>
  <style type="text/css">
*{stroke-linecap:butt;stroke-linejoin:round;}
  </style>
 </defs>
 <g id="figure_1">
  <g id="patch_1">
   <path d="M 0 92.270125 
L 856.828125 92.270125 
L 856.828125 0 
L 0 0 
z
" style="fill:none;"/>
  </g>
  <g id="axes_1">
   <g id="patch_2">
    <path d="M 30.103125 68.392 
L 849.628125 68.392 
L 849.628125 34.592 
L 30.103125 34.592 
z
" style="fill:#ffffff;"/>
   </g>
   <g id="matplotlib.axis_1">
    <g id="xtick_1">
     <g id="line2d_1">
      <defs>
       <path d="M 0 0 
L 0 3.5 
" id="meae1d19a99" style="stroke:#000000;stroke-width:0.8;"/>
      </defs>
      <g>
       <use style="stroke:#000000;stroke-width:0.8;" x="67.354261" xlink:href="#meae1d19a99" y="68.392"/>
      </g>
     </g>
     <g id="text_1">
      <!-- 0 -->
      <defs>
       <path d="M 31.78125 66.40625 
Q 24.171875 66.40625 20.328125 58.90625 
Q 16.5 51.421875 16.5 36.375 
Q 16.5 21.390625 20.328125 13.890625 
Q 24.171875 6.390625 31.78125 6.390625 
Q 39.453125 6.390625 43.28125 13.890625 
Q 47.125 21.390625 47.125 36.375 
Q 47.125 51.421875 43.28125 58.90625 
Q 39.453125 66.40625 31.78125 66.40625 
z
M 31.78125 74.21875 
Q 44.046875 74.21875 50.515625 64.515625 
Q 56.984375 54.828125 56.984375 36.375 
Q 56.984375 17.96875 50.515625 8.265625 
Q 44.046875 -1.421875 31.78125 -1.421875 
Q 19.53125 -1.421875 13.0625 8.265625 
Q 6.59375 17.96875 6.59375 36.375 
Q 6.59375 54.828125 13.0625 64.515625 
Q 19.53125 74.21875 31.78125 74.21875 
z
" id="DejaVuSans-48"/>
      </defs>
      <g transform="translate(64.173011 82.990437)scale(0.1 -0.1)">
       <use xlink:href="#DejaVuSans-48"/>
      </g>
     </g>
    </g>
    <g id="xtick_2">
     <g id="line2d_2">
      <g>
       <use style="stroke:#000000;stroke-width:0.8;" x="206.871626" xlink:href="#meae1d19a99" y="68.392"/>
      </g>
     </g>
     <g id="text_2">
      <!-- 100 -->
      <defs>
       <path d="M 12.40625 8.296875 
L 28.515625 8.296875 
L 28.515625 63.921875 
L 10.984375 60.40625 
L 10.984375 69.390625 
L 28.421875 72.90625 
L 38.28125 72.90625 
L 38.28125 8.296875 
L 54.390625 8.296875 
L 54.390625 0 
L 12.40625 0 
z
" id="DejaVuSans-49"/>
      </defs>
      <g transform="translate(197.327876 82.990437)scale(0.1 -0.1)">
       <use xlink:href="#DejaVuSans-49"/>
       <use x="63.623047" xlink:href="#DejaVuSans-48"/>
       <use x="127.246094" xlink:href="#DejaVuSans-48"/>
      </g>
     </g>
    </g>
    <g id="xtick_3">
     <g id="line2d_3">
      <g>
       <use style="stroke:#000000;stroke-width:0.8;" x="346.388991" xlink:href="#meae1d19a99" y="68.392"/>
      </g>
     </g>
     <g id="text_3">
      <!-- 200 -->
      <defs>
       <path d="M 19.1875 8.296875 
L 53.609375 8.296875 
L 53.609375 0 
L 7.328125 0 
L 7.328125 8.296875 
Q 12.9375 14.109375 22.625 23.890625 
Q 32.328125 33.6875 34.8125 36.53125 
Q 39.546875 41.84375 41.421875 45.53125 
Q 43.3125 49.21875 43.3125 52.78125 
Q 43.3125 58.59375 39.234375 62.25 
Q 35.15625 65.921875 28.609375 65.921875 
Q 23.96875 65.921875 18.8125 64.3125 
Q 13.671875 62.703125 7.8125 59.421875 
L 7.8125 69.390625 
Q 13.765625 71.78125 18.9375 73 
Q 24.125 74.21875 28.421875 74.21875 
Q 39.75 74.21875 46.484375 68.546875 
Q 53.21875 62.890625 53.21875 53.421875 
Q 53.21875 48.921875 51.53125 44.890625 
Q 49.859375 40.875 45.40625 35.40625 
Q 44.1875 33.984375 37.640625 27.21875 
Q 31.109375 20.453125 19.1875 8.296875 
z
" id="DejaVuSans-50"/>
      </defs>
      <g transform="translate(336.845241 82.990437)scale(0.1 -0.1)">
       <use xlink:href="#DejaVuSans-50"/>
       <use x="63.623047" xlink:href="#DejaVuSans-48"/>
       <use x="127.246094" xlink:href="#DejaVuSans-48"/>
      </g>
     </g>
    </g>
    <g id="xtick_4">
     <g id="line2d_4">
      <g>
       <use style="stroke:#000000;stroke-width:0.8;" x="485.906355" xlink:href="#meae1d19a99" y="68.392"/>
      </g>
     </g>
     <g id="text_4">
      <!-- 300 -->
      <defs>
       <path d="M 40.578125 39.3125 
Q 47.65625 37.796875 51.625 33 
Q 55.609375 28.21875 55.609375 21.1875 
Q 55.609375 10.40625 48.1875 4.484375 
Q 40.765625 -1.421875 27.09375 -1.421875 
Q 22.515625 -1.421875 17.65625 -0.515625 
Q 12.796875 0.390625 7.625 2.203125 
L 7.625 11.71875 
Q 11.71875 9.328125 16.59375 8.109375 
Q 21.484375 6.890625 26.8125 6.890625 
Q 36.078125 6.890625 40.9375 10.546875 
Q 45.796875 14.203125 45.796875 21.1875 
Q 45.796875 27.640625 41.28125 31.265625 
Q 36.765625 34.90625 28.71875 34.90625 
L 20.21875 34.90625 
L 20.21875 43.015625 
L 29.109375 43.015625 
Q 36.375 43.015625 40.234375 45.921875 
Q 44.09375 48.828125 44.09375 54.296875 
Q 44.09375 59.90625 40.109375 62.90625 
Q 36.140625 65.921875 28.71875 65.921875 
Q 24.65625 65.921875 20.015625 65.03125 
Q 15.375 64.15625 9.8125 62.3125 
L 9.8125 71.09375 
Q 15.4375 72.65625 20.34375 73.4375 
Q 25.25 74.21875 29.59375 74.21875 
Q 40.828125 74.21875 47.359375 69.109375 
Q 53.90625 64.015625 53.90625 55.328125 
Q 53.90625 49.265625 50.4375 45.09375 
Q 46.96875 40.921875 40.578125 39.3125 
z
" id="DejaVuSans-51"/>
      </defs>
      <g transform="translate(476.362605 82.990437)scale(0.1 -0.1)">
       <use xlink:href="#DejaVuSans-51"/>
       <use x="63.623047" xlink:href="#DejaVuSans-48"/>
       <use x="127.246094" xlink:href="#DejaVuSans-48"/>
      </g>
     </g>
    </g>
    <g id="xtick_5">
     <g id="line2d_5">
      <g>
       <use style="stroke:#000000;stroke-width:0.8;" x="625.42372" xlink:href="#meae1d19a99" y="68.392"/>
      </g>
     </g>
     <g id="text_5">
      <!-- 400 -->
      <defs>
       <path d="M 37.796875 64.3125 
L 12.890625 25.390625 
L 37.796875 25.390625 
z
M 35.203125 72.90625 
L 47.609375 72.90625 
L 47.609375 25.390625 
L 58.015625 25.390625 
L 58.015625 17.1875 
L 47.609375 17.1875 
L 47.609375 0 
L 37.796875 0 
L 37.796875 17.1875 
L 4.890625 17.1875 
L 4.890625 26.703125 
z
" id="DejaVuSans-52"/>
      </defs>
      <g transform="translate(615.87997 82.990437)scale(0.1 -0.1)">
       <use xlink:href="#DejaVuSans-52"/>
       <use x="63.623047" xlink:href="#DejaVuSans-48"/>
       <use x="127.246094" xlink:href="#DejaVuSans-48"/>
      </g>
     </g>
    </g>
    <g id="xtick_6">
     <g id="line2d_6">
      <g>
       <use style="stroke:#000000;stroke-width:0.8;" x="764.941085" xlink:href="#meae1d19a99" y="68.392"/>
      </g>
     </g>
     <g id="text_6">
      <!-- 500 -->
      <defs>
       <path d="M 10.796875 72.90625 
L 49.515625 72.90625 
L 49.515625 64.59375 
L 19.828125 64.59375 
L 19.828125 46.734375 
Q 21.96875 47.46875 24.109375 47.828125 
Q 26.265625 48.1875 28.421875 48.1875 
Q 40.625 48.1875 47.75 41.5 
Q 54.890625 34.8125 54.890625 23.390625 
Q 54.890625 11.625 47.5625 5.09375 
Q 40.234375 -1.421875 26.90625 -1.421875 
Q 22.3125 -1.421875 17.546875 -0.640625 
Q 12.796875 0.140625 7.71875 1.703125 
L 7.71875 11.625 
Q 12.109375 9.234375 16.796875 8.0625 
Q 21.484375 6.890625 26.703125 6.890625 
Q 35.15625 6.890625 40.078125 11.328125 
Q 45.015625 15.765625 45.015625 23.390625 
Q 45.015625 31 40.078125 35.4375 
Q 35.15625 39.890625 26.703125 39.890625 
Q 22.75 39.890625 18.8125 39.015625 
Q 14.890625 38.140625 10.796875 36.28125 
z
" id="DejaVuSans-53"/>
      </defs>
      <g transform="translate(755.397335 82.990437)scale(0.1 -0.1)">
       <use xlink:href="#DejaVuSans-53"/>
       <use x="63.623047" xlink:href="#DejaVuSans-48"/>
       <use x="127.246094" xlink:href="#DejaVuSans-48"/>
      </g>
     </g>
    </g>
   </g>
   <g id="matplotlib.axis_2">
    <g id="ytick_1">
     <g id="line2d_7">
      <defs>
       <path d="M 0 0 
L -3.5 0 
" id="md2e9fb3621" style="stroke:#000000;stroke-width:0.8;"/>
      </defs>
      <g>
       <use style="stroke:#000000;stroke-width:0.8;" x="30.103125" xlink:href="#md2e9fb3621" y="55.490559"/>
      </g>
     </g>
     <g id="text_7">
      <!-- 0.0 -->
      <defs>
       <path d="M 10.6875 12.40625 
L 21 12.40625 
L 21 0 
L 10.6875 0 
z
" id="DejaVuSans-46"/>
      </defs>
      <g transform="translate(7.2 59.289778)scale(0.1 -0.1)">
       <use xlink:href="#DejaVuSans-48"/>
       <use x="63.623047" xlink:href="#DejaVuSans-46"/>
       <use x="95.410156" xlink:href="#DejaVuSans-48"/>
      </g>
     </g>
    </g>
    <g id="ytick_2">
     <g id="line2d_8">
      <g>
       <use style="stroke:#000000;stroke-width:0.8;" x="30.103125" xlink:href="#md2e9fb3621" y="41.465099"/>
      </g>
     </g>
     <g id="text_8">
      <!-- 0.5 -->
      <g transform="translate(7.2 45.264318)scale(0.1 -0.1)">
       <use xlink:href="#DejaVuSans-48"/>
       <use x="63.623047" xlink:href="#DejaVuSans-46"/>
       <use x="95.410156" xlink:href="#DejaVuSans-53"/>
      </g>
     </g>
    </g>
   </g>
   <g id="line2d_9">
    <path clip-path="url(#p7e3acbd8b6)" d="M 67.354261 55.490559 
L 85.491519 55.518953 
L 86.886692 55.949345 
L 91.072213 59.09836 
L 92.467387 59.384927 
L 95.257734 58.148764 
L 96.652908 58.440079 
L 99.443255 60.947117 
L 100.838429 60.417457 
L 103.628776 55.676785 
L 105.02395 54.110828 
L 106.419123 52.934188 
L 107.814297 52.130367 
L 109.209471 51.892982 
L 110.604644 52.176506 
L 113.394992 53.443413 
L 116.185339 54.593056 
L 118.975686 55.292133 
L 121.766034 55.627209 
L 124.556381 55.725909 
L 131.532249 55.598288 
L 134.322596 55.616228 
L 137.112944 56.050021 
L 138.508117 55.752782 
L 139.903291 55.297703 
L 141.298465 55.282111 
L 142.693638 55.631669 
L 144.088812 55.739522 
L 145.483986 54.397376 
L 146.879159 50.656962 
L 148.274333 46.298116 
L 149.669507 44.291171 
L 151.06468 45.851477 
L 152.459854 48.778602 
L 153.855027 50.48539 
L 155.250201 50.43775 
L 158.040548 47.403633 
L 159.435722 47.442685 
L 162.226069 51.83083 
L 163.621243 52.58246 
L 165.016417 52.41522 
L 166.41159 51.881527 
L 167.806764 50.54436 
L 169.201938 49.013517 
L 170.597111 47.839809 
L 171.992285 47.377437 
L 173.387459 48.154657 
L 174.782632 50.197226 
L 176.177806 53.191835 
L 177.572979 56.585152 
L 178.968153 59.262539 
L 180.363327 60.387748 
L 181.7585 59.776771 
L 183.153674 57.698478 
L 184.548848 54.997489 
L 185.944021 52.635207 
L 187.339195 51.11872 
L 188.734369 50.863462 
L 190.129542 51.723282 
L 192.91989 54.469163 
L 194.315063 55.112665 
L 195.710237 54.331682 
L 198.500584 50.695236 
L 199.895758 49.598211 
L 201.290931 49.731418 
L 202.686105 50.884282 
L 204.081279 52.480969 
L 205.476452 53.810707 
L 206.871626 54.612423 
L 209.661973 55.699835 
L 211.057147 56.05511 
L 212.452321 55.896012 
L 213.847494 54.972927 
L 215.242668 53.7574 
L 216.637842 52.968025 
L 218.033015 52.846267 
L 219.428189 53.21611 
L 223.61371 54.834362 
L 226.404057 55.438742 
L 229.194404 55.712307 
L 233.379925 55.776127 
L 237.565446 55.646105 
L 238.96062 55.292984 
L 240.355794 54.17985 
L 241.750967 52.023453 
L 243.146141 49.645082 
L 244.541314 48.486634 
L 245.936488 48.647401 
L 247.331662 49.036363 
L 248.726835 49.224652 
L 250.122009 50.021006 
L 251.517183 51.967394 
L 252.912356 53.478843 
L 254.30753 53.959894 
L 255.702704 54.801283 
L 257.097877 55.949697 
L 258.493051 56.587318 
L 262.678572 57.626028 
L 264.073746 57.723001 
L 265.468919 57.488081 
L 266.864093 56.835652 
L 268.259266 56.039976 
L 269.65444 55.520587 
L 271.049614 55.819293 
L 272.444787 57.358004 
L 273.839961 59.268876 
L 276.630308 62.017396 
L 278.025482 63.381979 
L 279.420656 64.057339 
L 280.815829 63.588506 
L 282.211003 61.913231 
L 283.606177 59.688972 
L 285.00135 58.45747 
L 286.396524 58.644855 
L 290.582045 61.577522 
L 291.977218 62.198714 
L 293.372392 61.886661 
L 294.767566 59.32412 
L 296.162739 55.080061 
L 297.557913 51.733856 
L 298.953087 50.825364 
L 300.34826 52.361515 
L 301.743434 54.991924 
L 303.138608 57.00309 
L 304.533781 58.031985 
L 307.324129 59.29633 
L 311.50965 60.690212 
L 312.904823 60.901206 
L 314.299997 60.527342 
L 315.69517 59.624073 
L 321.275865 55.013034 
L 322.671039 52.304048 
L 324.066212 48.832946 
L 326.85656 43.536093 
L 328.251733 39.591182 
L 329.646907 36.441393 
L 331.042081 36.128364 
L 332.437254 38.576669 
L 335.227602 45.62871 
L 336.622775 48.189755 
L 338.017949 49.153257 
L 339.413122 49.408134 
L 340.808296 50.012029 
L 342.20347 51.198764 
L 343.598643 52.872957 
L 344.993817 54.823262 
L 346.388991 56.521989 
L 347.784164 57.564335 
L 349.179338 57.632644 
L 350.574512 55.934777 
L 353.364859 49.959365 
L 354.760033 47.57604 
L 356.155206 46.325503 
L 357.55038 46.668531 
L 358.945553 48.233446 
L 361.735901 52.206252 
L 364.526248 55.461689 
L 365.921422 56.87417 
L 367.316595 57.909183 
L 368.711769 58.367332 
L 370.106943 58.061072 
L 371.502116 56.83786 
L 374.292464 52.472412 
L 377.082811 49.233896 
L 378.477985 47.057458 
L 379.873158 45.187273 
L 381.268332 44.434575 
L 382.663505 45.307245 
L 384.058679 47.378484 
L 391.034547 59.11238 
L 392.429721 59.731038 
L 393.824895 58.479061 
L 395.220068 56.272337 
L 396.615242 54.753023 
L 398.010416 54.78003 
L 399.405589 55.858708 
L 400.800763 56.784306 
L 402.195937 56.366151 
L 403.59111 54.19045 
L 404.986284 51.482238 
L 406.381457 49.669491 
L 407.776631 49.268707 
L 409.171805 50.105172 
L 410.566978 51.666509 
L 411.962152 53.409107 
L 413.357326 54.925587 
L 414.752499 56.033635 
L 416.147673 56.659466 
L 417.542847 57.08165 
L 418.93802 58.062703 
L 420.333194 59.62418 
L 421.728368 60.869937 
L 423.123541 61.517251 
L 424.518715 61.750053 
L 427.309062 61.839653 
L 428.704236 61.614468 
L 430.099409 60.637599 
L 434.28493 55.481777 
L 435.680104 54.973599 
L 437.075278 55.830154 
L 438.470451 57.972656 
L 439.865625 60.388076 
L 441.260799 61.81519 
L 442.655972 61.878346 
L 444.051146 61.105565 
L 446.841493 58.942392 
L 449.631841 56.857572 
L 451.027014 56.084456 
L 452.422188 55.525262 
L 453.817361 55.154266 
L 455.212535 55.130235 
L 456.607709 55.868244 
L 458.002882 57.402353 
L 459.398056 59.207597 
L 460.79323 60.786801 
L 462.188403 61.854267 
L 463.583577 62.220762 
L 464.978751 62.099201 
L 466.373924 61.665145 
L 467.769098 60.577898 
L 470.559445 57.021325 
L 471.954619 56.475535 
L 473.349793 57.455627 
L 474.744966 59.701227 
L 476.14014 62.312894 
L 477.535313 64.510305 
L 478.930487 65.876459 
L 480.325661 66.430321 
L 481.720834 66.762463 
L 483.116008 66.855636 
L 484.511182 66.125616 
L 485.906355 64.430959 
L 488.696703 59.86063 
L 490.091876 57.88205 
L 494.277397 53.050493 
L 495.672571 51.992647 
L 497.067745 51.568046 
L 499.858092 51.065115 
L 501.253265 51.083464 
L 504.043613 52.094642 
L 505.438786 51.740435 
L 506.83396 50.758041 
L 508.229134 49.963255 
L 509.624307 50.038057 
L 511.019481 51.070733 
L 512.414655 51.726073 
L 513.809828 51.744228 
L 515.205002 51.981424 
L 516.600176 52.722924 
L 517.995349 53.83384 
L 523.576044 59.377912 
L 524.971217 60.068187 
L 526.366391 59.921349 
L 527.761565 59.43637 
L 530.551912 58.971275 
L 531.947086 57.942976 
L 533.342259 56.519474 
L 534.737433 55.368695 
L 536.132607 54.94143 
L 537.52778 55.151338 
L 538.922954 55.529969 
L 540.318128 55.782891 
L 543.108475 55.986974 
L 545.898822 55.919835 
L 547.293996 55.851795 
L 548.689169 56.242592 
L 551.479517 58.396554 
L 552.87469 58.857409 
L 554.269864 58.631983 
L 555.665038 58.015504 
L 557.060211 56.988663 
L 558.455385 55.520331 
L 559.850559 54.356494 
L 561.245732 54.261241 
L 564.03608 56.309366 
L 565.431253 56.943537 
L 566.826427 57.119979 
L 568.2216 56.967847 
L 569.616774 56.66685 
L 571.011948 56.152648 
L 572.407121 55.395043 
L 573.802295 54.842944 
L 575.197469 54.714153 
L 583.568511 55.395581 
L 591.939552 55.507433 
L 597.520247 55.542573 
L 600.310594 55.979478 
L 601.705768 55.446308 
L 603.100942 53.798967 
L 604.496115 51.88984 
L 605.891289 50.925527 
L 607.286463 51.841751 
L 610.07681 56.407886 
L 611.471984 57.178092 
L 612.867157 56.464393 
L 614.262331 55.431691 
L 615.657504 54.809549 
L 617.052678 54.666882 
L 619.843025 55.015045 
L 622.633373 55.362653 
L 624.028546 55.957849 
L 625.42372 57.779784 
L 628.214067 63.632818 
L 629.609241 64.89525 
L 631.004415 64.391938 
L 632.399588 62.773201 
L 635.189936 58.979662 
L 636.585109 57.511572 
L 637.980283 56.421027 
L 639.375456 55.65493 
L 640.77063 55.146543 
L 642.165804 54.838301 
L 643.560977 54.682708 
L 646.351325 54.682282 
L 658.907888 55.43182 
L 660.303061 54.965338 
L 661.698235 52.942988 
L 663.093408 50.201351 
L 664.488582 48.451979 
L 665.883756 48.293494 
L 667.278929 49.314886 
L 668.674103 50.876804 
L 671.46445 54.919781 
L 672.859624 56.450006 
L 675.649971 58.636607 
L 677.045145 59.414574 
L 678.440319 59.558291 
L 679.835492 58.43665 
L 681.230666 56.317978 
L 682.62584 54.554928 
L 684.021013 53.700002 
L 685.416187 53.723534 
L 686.81136 54.820436 
L 689.601708 58.831649 
L 690.996881 59.860868 
L 692.392055 59.838006 
L 693.787229 59.148014 
L 696.577576 57.351551 
L 697.97275 56.636174 
L 699.367923 56.129865 
L 700.763097 56.073135 
L 702.158271 56.444475 
L 703.553444 57.27363 
L 704.948618 58.977893 
L 706.343791 61.136223 
L 707.738965 62.748521 
L 709.134139 63.230429 
L 710.529312 62.808978 
L 711.924486 61.869522 
L 713.31966 60.604107 
L 714.714833 58.817627 
L 717.505181 54.7979 
L 718.900354 53.478488 
L 720.295528 53.251338 
L 721.690702 53.92211 
L 723.085875 54.931356 
L 724.481049 55.249146 
L 725.876223 54.208546 
L 727.271396 52.60431 
L 728.66657 51.555833 
L 730.061743 51.469488 
L 731.456917 52.206741 
L 732.852091 53.376925 
L 734.247264 54.025752 
L 735.642438 53.609477 
L 737.037612 52.220826 
L 738.432785 50.572393 
L 739.827959 50.098553 
L 741.223133 51.195699 
L 742.618306 52.738795 
L 744.01348 53.117837 
L 746.803827 51.560588 
L 748.199001 51.284507 
L 749.594175 50.888105 
L 750.989348 50.086985 
L 752.384522 49.780634 
L 753.779695 50.072883 
L 755.174869 50.620239 
L 756.570043 52.132838 
L 757.965216 54.859844 
L 760.755564 61.653313 
L 762.150737 63.892429 
L 763.545911 64.389584 
L 764.941085 63.949667 
L 766.336258 63.840959 
L 767.731432 64.542307 
L 769.126606 65.095524 
L 770.521779 64.613147 
L 771.916953 63.135802 
L 773.312127 61.280458 
L 774.7073 59.649126 
L 776.102474 58.287772 
L 777.497647 57.322888 
L 778.892821 57.073152 
L 780.287995 57.305784 
L 781.683168 57.866041 
L 784.473516 59.59573 
L 785.868689 60.026574 
L 787.263863 60.26853 
L 788.659037 60.262081 
L 790.05421 59.804446 
L 791.449384 58.844561 
L 794.239731 55.969385 
L 795.634905 54.881373 
L 797.030079 54.294807 
L 798.425252 54.108748 
L 801.215599 54.314847 
L 808.191468 55.177195 
L 812.376989 55.433183 
L 812.376989 55.433183 
" style="fill:none;stroke:#1f77b4;stroke-linecap:square;stroke-width:1.5;"/>
   </g>
   <g id="patch_3">
    <path d="M 30.103125 68.392 
L 30.103125 34.592 
" style="fill:none;stroke:#000000;stroke-linecap:square;stroke-linejoin:miter;stroke-width:0.8;"/>
   </g>
   <g id="patch_4">
    <path d="M 30.103125 68.392 
L 849.628125 68.392 
" style="fill:none;stroke:#000000;stroke-linecap:square;stroke-linejoin:miter;stroke-width:0.8;"/>
   </g>
   <g id="text_9">
    <!-- Budapest_movie -->
    <defs>
     <path d="M 19.671875 34.8125 
L 19.671875 8.109375 
L 35.5 8.109375 
Q 43.453125 8.109375 47.28125 11.40625 
Q 51.125 14.703125 51.125 21.484375 
Q 51.125 28.328125 47.28125 31.5625 
Q 43.453125 34.8125 35.5 34.8125 
z
M 19.671875 64.796875 
L 19.671875 42.828125 
L 34.28125 42.828125 
Q 41.5 42.828125 45.03125 45.53125 
Q 48.578125 48.25 48.578125 53.8125 
Q 48.578125 59.328125 45.03125 62.0625 
Q 41.5 64.796875 34.28125 64.796875 
z
M 9.8125 72.90625 
L 35.015625 72.90625 
Q 46.296875 72.90625 52.390625 68.21875 
Q 58.5 63.53125 58.5 54.890625 
Q 58.5 48.1875 55.375 44.234375 
Q 52.25 40.28125 46.1875 39.3125 
Q 53.46875 37.75 57.5 32.78125 
Q 61.53125 27.828125 61.53125 20.40625 
Q 61.53125 10.640625 54.890625 5.3125 
Q 48.25 0 35.984375 0 
L 9.8125 0 
z
" id="DejaVuSans-66"/>
     <path d="M 8.5 21.578125 
L 8.5 54.6875 
L 17.484375 54.6875 
L 17.484375 21.921875 
Q 17.484375 14.15625 20.5 10.265625 
Q 23.53125 6.390625 29.59375 6.390625 
Q 36.859375 6.390625 41.078125 11.03125 
Q 45.3125 15.671875 45.3125 23.6875 
L 45.3125 54.6875 
L 54.296875 54.6875 
L 54.296875 0 
L 45.3125 0 
L 45.3125 8.40625 
Q 42.046875 3.421875 37.71875 1 
Q 33.40625 -1.421875 27.6875 -1.421875 
Q 18.265625 -1.421875 13.375 4.4375 
Q 8.5 10.296875 8.5 21.578125 
z
M 31.109375 56 
z
" id="DejaVuSans-117"/>
     <path d="M 45.40625 46.390625 
L 45.40625 75.984375 
L 54.390625 75.984375 
L 54.390625 0 
L 45.40625 0 
L 45.40625 8.203125 
Q 42.578125 3.328125 38.25 0.953125 
Q 33.9375 -1.421875 27.875 -1.421875 
Q 17.96875 -1.421875 11.734375 6.484375 
Q 5.515625 14.40625 5.515625 27.296875 
Q 5.515625 40.1875 11.734375 48.09375 
Q 17.96875 56 27.875 56 
Q 33.9375 56 38.25 53.625 
Q 42.578125 51.265625 45.40625 46.390625 
z
M 14.796875 27.296875 
Q 14.796875 17.390625 18.875 11.75 
Q 22.953125 6.109375 30.078125 6.109375 
Q 37.203125 6.109375 41.296875 11.75 
Q 45.40625 17.390625 45.40625 27.296875 
Q 45.40625 37.203125 41.296875 42.84375 
Q 37.203125 48.484375 30.078125 48.484375 
Q 22.953125 48.484375 18.875 42.84375 
Q 14.796875 37.203125 14.796875 27.296875 
z
" id="DejaVuSans-100"/>
     <path d="M 34.28125 27.484375 
Q 23.390625 27.484375 19.1875 25 
Q 14.984375 22.515625 14.984375 16.5 
Q 14.984375 11.71875 18.140625 8.90625 
Q 21.296875 6.109375 26.703125 6.109375 
Q 34.1875 6.109375 38.703125 11.40625 
Q 43.21875 16.703125 43.21875 25.484375 
L 43.21875 27.484375 
z
M 52.203125 31.203125 
L 52.203125 0 
L 43.21875 0 
L 43.21875 8.296875 
Q 40.140625 3.328125 35.546875 0.953125 
Q 30.953125 -1.421875 24.3125 -1.421875 
Q 15.921875 -1.421875 10.953125 3.296875 
Q 6 8.015625 6 15.921875 
Q 6 25.140625 12.171875 29.828125 
Q 18.359375 34.515625 30.609375 34.515625 
L 43.21875 34.515625 
L 43.21875 35.40625 
Q 43.21875 41.609375 39.140625 45 
Q 35.0625 48.390625 27.6875 48.390625 
Q 23 48.390625 18.546875 47.265625 
Q 14.109375 46.140625 10.015625 43.890625 
L 10.015625 52.203125 
Q 14.9375 54.109375 19.578125 55.046875 
Q 24.21875 56 28.609375 56 
Q 40.484375 56 46.34375 49.84375 
Q 52.203125 43.703125 52.203125 31.203125 
z
" id="DejaVuSans-97"/>
     <path d="M 18.109375 8.203125 
L 18.109375 -20.796875 
L 9.078125 -20.796875 
L 9.078125 54.6875 
L 18.109375 54.6875 
L 18.109375 46.390625 
Q 20.953125 51.265625 25.265625 53.625 
Q 29.59375 56 35.59375 56 
Q 45.5625 56 51.78125 48.09375 
Q 58.015625 40.1875 58.015625 27.296875 
Q 58.015625 14.40625 51.78125 6.484375 
Q 45.5625 -1.421875 35.59375 -1.421875 
Q 29.59375 -1.421875 25.265625 0.953125 
Q 20.953125 3.328125 18.109375 8.203125 
z
M 48.6875 27.296875 
Q 48.6875 37.203125 44.609375 42.84375 
Q 40.53125 48.484375 33.40625 48.484375 
Q 26.265625 48.484375 22.1875 42.84375 
Q 18.109375 37.203125 18.109375 27.296875 
Q 18.109375 17.390625 22.1875 11.75 
Q 26.265625 6.109375 33.40625 6.109375 
Q 40.53125 6.109375 44.609375 11.75 
Q 48.6875 17.390625 48.6875 27.296875 
z
" id="DejaVuSans-112"/>
     <path d="M 56.203125 29.59375 
L 56.203125 25.203125 
L 14.890625 25.203125 
Q 15.484375 15.921875 20.484375 11.0625 
Q 25.484375 6.203125 34.421875 6.203125 
Q 39.59375 6.203125 44.453125 7.46875 
Q 49.3125 8.734375 54.109375 11.28125 
L 54.109375 2.78125 
Q 49.265625 0.734375 44.1875 -0.34375 
Q 39.109375 -1.421875 33.890625 -1.421875 
Q 20.796875 -1.421875 13.15625 6.1875 
Q 5.515625 13.8125 5.515625 26.8125 
Q 5.515625 40.234375 12.765625 48.109375 
Q 20.015625 56 32.328125 56 
Q 43.359375 56 49.78125 48.890625 
Q 56.203125 41.796875 56.203125 29.59375 
z
M 47.21875 32.234375 
Q 47.125 39.59375 43.09375 43.984375 
Q 39.0625 48.390625 32.421875 48.390625 
Q 24.90625 48.390625 20.390625 44.140625 
Q 15.875 39.890625 15.1875 32.171875 
z
" id="DejaVuSans-101"/>
     <path d="M 44.28125 53.078125 
L 44.28125 44.578125 
Q 40.484375 46.53125 36.375 47.5 
Q 32.28125 48.484375 27.875 48.484375 
Q 21.1875 48.484375 17.84375 46.4375 
Q 14.5 44.390625 14.5 40.28125 
Q 14.5 37.15625 16.890625 35.375 
Q 19.28125 33.59375 26.515625 31.984375 
L 29.59375 31.296875 
Q 39.15625 29.25 43.1875 25.515625 
Q 47.21875 21.78125 47.21875 15.09375 
Q 47.21875 7.46875 41.1875 3.015625 
Q 35.15625 -1.421875 24.609375 -1.421875 
Q 20.21875 -1.421875 15.453125 -0.5625 
Q 10.6875 0.296875 5.421875 2 
L 5.421875 11.28125 
Q 10.40625 8.6875 15.234375 7.390625 
Q 20.0625 6.109375 24.8125 6.109375 
Q 31.15625 6.109375 34.5625 8.28125 
Q 37.984375 10.453125 37.984375 14.40625 
Q 37.984375 18.0625 35.515625 20.015625 
Q 33.0625 21.96875 24.703125 23.78125 
L 21.578125 24.515625 
Q 13.234375 26.265625 9.515625 29.90625 
Q 5.8125 33.546875 5.8125 39.890625 
Q 5.8125 47.609375 11.28125 51.796875 
Q 16.75 56 26.8125 56 
Q 31.78125 56 36.171875 55.265625 
Q 40.578125 54.546875 44.28125 53.078125 
z
" id="DejaVuSans-115"/>
     <path d="M 18.3125 70.21875 
L 18.3125 54.6875 
L 36.8125 54.6875 
L 36.8125 47.703125 
L 18.3125 47.703125 
L 18.3125 18.015625 
Q 18.3125 11.328125 20.140625 9.421875 
Q 21.96875 7.515625 27.59375 7.515625 
L 36.8125 7.515625 
L 36.8125 0 
L 27.59375 0 
Q 17.1875 0 13.234375 3.875 
Q 9.28125 7.765625 9.28125 18.015625 
L 9.28125 47.703125 
L 2.6875 47.703125 
L 2.6875 54.6875 
L 9.28125 54.6875 
L 9.28125 70.21875 
z
" id="DejaVuSans-116"/>
     <path d="M 50.984375 -16.609375 
L 50.984375 -23.578125 
L -0.984375 -23.578125 
L -0.984375 -16.609375 
z
" id="DejaVuSans-95"/>
     <path d="M 52 44.1875 
Q 55.375 50.25 60.0625 53.125 
Q 64.75 56 71.09375 56 
Q 79.640625 56 84.28125 50.015625 
Q 88.921875 44.046875 88.921875 33.015625 
L 88.921875 0 
L 79.890625 0 
L 79.890625 32.71875 
Q 79.890625 40.578125 77.09375 44.375 
Q 74.3125 48.1875 68.609375 48.1875 
Q 61.625 48.1875 57.5625 43.546875 
Q 53.515625 38.921875 53.515625 30.90625 
L 53.515625 0 
L 44.484375 0 
L 44.484375 32.71875 
Q 44.484375 40.625 41.703125 44.40625 
Q 38.921875 48.1875 33.109375 48.1875 
Q 26.21875 48.1875 22.15625 43.53125 
Q 18.109375 38.875 18.109375 30.90625 
L 18.109375 0 
L 9.078125 0 
L 9.078125 54.6875 
L 18.109375 54.6875 
L 18.109375 46.1875 
Q 21.1875 51.21875 25.484375 53.609375 
Q 29.78125 56 35.6875 56 
Q 41.65625 56 45.828125 52.96875 
Q 50 49.953125 52 44.1875 
z
" id="DejaVuSans-109"/>
     <path d="M 30.609375 48.390625 
Q 23.390625 48.390625 19.1875 42.75 
Q 14.984375 37.109375 14.984375 27.296875 
Q 14.984375 17.484375 19.15625 11.84375 
Q 23.34375 6.203125 30.609375 6.203125 
Q 37.796875 6.203125 41.984375 11.859375 
Q 46.1875 17.53125 46.1875 27.296875 
Q 46.1875 37.015625 41.984375 42.703125 
Q 37.796875 48.390625 30.609375 48.390625 
z
M 30.609375 56 
Q 42.328125 56 49.015625 48.375 
Q 55.71875 40.765625 55.71875 27.296875 
Q 55.71875 13.875 49.015625 6.21875 
Q 42.328125 -1.421875 30.609375 -1.421875 
Q 18.84375 -1.421875 12.171875 6.21875 
Q 5.515625 13.875 5.515625 27.296875 
Q 5.515625 40.765625 12.171875 48.375 
Q 18.84375 56 30.609375 56 
z
" id="DejaVuSans-111"/>
     <path d="M 2.984375 54.6875 
L 12.5 54.6875 
L 29.59375 8.796875 
L 46.6875 54.6875 
L 56.203125 54.6875 
L 35.6875 0 
L 23.484375 0 
z
" id="DejaVuSans-118"/>
     <path d="M 9.421875 54.6875 
L 18.40625 54.6875 
L 18.40625 0 
L 9.421875 0 
z
M 9.421875 75.984375 
L 18.40625 75.984375 
L 18.40625 64.59375 
L 9.421875 64.59375 
z
" id="DejaVuSans-105"/>
    </defs>
    <g transform="translate(398.357813 28.592)scale(0.1 -0.1)">
     <use xlink:href="#DejaVuSans-66"/>
     <use x="68.603516" xlink:href="#DejaVuSans-117"/>
     <use x="131.982422" xlink:href="#DejaVuSans-100"/>
     <use x="195.458984" xlink:href="#DejaVuSans-97"/>
     <use x="256.738281" xlink:href="#DejaVuSans-112"/>
     <use x="320.214844" xlink:href="#DejaVuSans-101"/>
     <use x="381.738281" xlink:href="#DejaVuSans-115"/>
     <use x="433.837891" xlink:href="#DejaVuSans-116"/>
     <use x="473.046875" xlink:href="#DejaVuSans-95"/>
     <use x="523.046875" xlink:href="#DejaVuSans-109"/>
     <use x="620.458984" xlink:href="#DejaVuSans-111"/>
     <use x="681.640625" xlink:href="#DejaVuSans-118"/>
     <use x="740.820312" xlink:href="#DejaVuSans-105"/>
     <use x="768.603516" xlink:href="#DejaVuSans-101"/>
    </g>
   </g>
  </g>
  <g id="text_10">
   <!-- lancastersensorimotornorms_Foot_leg.mean [model: lancastersensorimotornorms_Foot_leg.mean] -->
   <defs>
    <path d="M 9.421875 75.984375 
L 18.40625 75.984375 
L 18.40625 0 
L 9.421875 0 
z
" id="DejaVuSans-108"/>
    <path d="M 54.890625 33.015625 
L 54.890625 0 
L 45.90625 0 
L 45.90625 32.71875 
Q 45.90625 40.484375 42.875 44.328125 
Q 39.84375 48.1875 33.796875 48.1875 
Q 26.515625 48.1875 22.3125 43.546875 
Q 18.109375 38.921875 18.109375 30.90625 
L 18.109375 0 
L 9.078125 0 
L 9.078125 54.6875 
L 18.109375 54.6875 
L 18.109375 46.1875 
Q 21.34375 51.125 25.703125 53.5625 
Q 30.078125 56 35.796875 56 
Q 45.21875 56 50.046875 50.171875 
Q 54.890625 44.34375 54.890625 33.015625 
z
" id="DejaVuSans-110"/>
    <path d="M 48.78125 52.59375 
L 48.78125 44.1875 
Q 44.96875 46.296875 41.140625 47.34375 
Q 37.3125 48.390625 33.40625 48.390625 
Q 24.65625 48.390625 19.8125 42.84375 
Q 14.984375 37.3125 14.984375 27.296875 
Q 14.984375 17.28125 19.8125 11.734375 
Q 24.65625 6.203125 33.40625 6.203125 
Q 37.3125 6.203125 41.140625 7.25 
Q 44.96875 8.296875 48.78125 10.40625 
L 48.78125 2.09375 
Q 45.015625 0.34375 40.984375 -0.53125 
Q 36.96875 -1.421875 32.421875 -1.421875 
Q 20.0625 -1.421875 12.78125 6.34375 
Q 5.515625 14.109375 5.515625 27.296875 
Q 5.515625 40.671875 12.859375 48.328125 
Q 20.21875 56 33.015625 56 
Q 37.15625 56 41.109375 55.140625 
Q 45.0625 54.296875 48.78125 52.59375 
z
" id="DejaVuSans-99"/>
    <path d="M 41.109375 46.296875 
Q 39.59375 47.171875 37.8125 47.578125 
Q 36.03125 48 33.890625 48 
Q 26.265625 48 22.1875 43.046875 
Q 18.109375 38.09375 18.109375 28.8125 
L 18.109375 0 
L 9.078125 0 
L 9.078125 54.6875 
L 18.109375 54.6875 
L 18.109375 46.1875 
Q 20.953125 51.171875 25.484375 53.578125 
Q 30.03125 56 36.53125 56 
Q 37.453125 56 38.578125 55.875 
Q 39.703125 55.765625 41.0625 55.515625 
z
" id="DejaVuSans-114"/>
    <path d="M 9.8125 72.90625 
L 51.703125 72.90625 
L 51.703125 64.59375 
L 19.671875 64.59375 
L 19.671875 43.109375 
L 48.578125 43.109375 
L 48.578125 34.8125 
L 19.671875 34.8125 
L 19.671875 0 
L 9.8125 0 
z
" id="DejaVuSans-70"/>
    <path d="M 45.40625 27.984375 
Q 45.40625 37.75 41.375 43.109375 
Q 37.359375 48.484375 30.078125 48.484375 
Q 22.859375 48.484375 18.828125 43.109375 
Q 14.796875 37.75 14.796875 27.984375 
Q 14.796875 18.265625 18.828125 12.890625 
Q 22.859375 7.515625 30.078125 7.515625 
Q 37.359375 7.515625 41.375 12.890625 
Q 45.40625 18.265625 45.40625 27.984375 
z
M 54.390625 6.78125 
Q 54.390625 -7.171875 48.1875 -13.984375 
Q 42 -20.796875 29.203125 -20.796875 
Q 24.46875 -20.796875 20.265625 -20.09375 
Q 16.0625 -19.390625 12.109375 -17.921875 
L 12.109375 -9.1875 
Q 16.0625 -11.328125 19.921875 -12.34375 
Q 23.78125 -13.375 27.78125 -13.375 
Q 36.625 -13.375 41.015625 -8.765625 
Q 45.40625 -4.15625 45.40625 5.171875 
L 45.40625 9.625 
Q 42.625 4.78125 38.28125 2.390625 
Q 33.9375 0 27.875 0 
Q 17.828125 0 11.671875 7.65625 
Q 5.515625 15.328125 5.515625 27.984375 
Q 5.515625 40.671875 11.671875 48.328125 
Q 17.828125 56 27.875 56 
Q 33.9375 56 38.28125 53.609375 
Q 42.625 51.21875 45.40625 46.390625 
L 45.40625 54.6875 
L 54.390625 54.6875 
z
" id="DejaVuSans-103"/>
    <path id="DejaVuSans-32"/>
    <path d="M 8.59375 75.984375 
L 29.296875 75.984375 
L 29.296875 69 
L 17.578125 69 
L 17.578125 -6.203125 
L 29.296875 -6.203125 
L 29.296875 -13.1875 
L 8.59375 -13.1875 
z
" id="DejaVuSans-91"/>
    <path d="M 11.71875 12.40625 
L 22.015625 12.40625 
L 22.015625 0 
L 11.71875 0 
z
M 11.71875 51.703125 
L 22.015625 51.703125 
L 22.015625 39.3125 
L 11.71875 39.3125 
z
" id="DejaVuSans-58"/>
    <path d="M 30.421875 75.984375 
L 30.421875 -13.1875 
L 9.71875 -13.1875 
L 9.71875 -6.203125 
L 21.390625 -6.203125 
L 21.390625 69 
L 9.71875 69 
L 9.71875 75.984375 
z
" id="DejaVuSans-93"/>
   </defs>
   <g transform="translate(133.161563 16.318125)scale(0.12 -0.12)">
    <use xlink:href="#DejaVuSans-108"/>
    <use x="27.783203" xlink:href="#DejaVuSans-97"/>
    <use x="89.0625" xlink:href="#DejaVuSans-110"/>
    <use x="152.441406" xlink:href="#DejaVuSans-99"/>
    <use x="207.421875" xlink:href="#DejaVuSans-97"/>
    <use x="268.701172" xlink:href="#DejaVuSans-115"/>
    <use x="320.800781" xlink:href="#DejaVuSans-116"/>
    <use x="360.009766" xlink:href="#DejaVuSans-101"/>
    <use x="421.533203" xlink:href="#DejaVuSans-114"/>
    <use x="462.646484" xlink:href="#DejaVuSans-115"/>
    <use x="514.746094" xlink:href="#DejaVuSans-101"/>
    <use x="576.269531" xlink:href="#DejaVuSans-110"/>
    <use x="639.648438" xlink:href="#DejaVuSans-115"/>
    <use x="691.748047" xlink:href="#DejaVuSans-111"/>
    <use x="752.929688" xlink:href="#DejaVuSans-114"/>
    <use x="794.042969" xlink:href="#DejaVuSans-105"/>
    <use x="821.826172" xlink:href="#DejaVuSans-109"/>
    <use x="919.238281" xlink:href="#DejaVuSans-111"/>
    <use x="980.419922" xlink:href="#DejaVuSans-116"/>
    <use x="1019.628906" xlink:href="#DejaVuSans-111"/>
    <use x="1080.810547" xlink:href="#DejaVuSans-114"/>
    <use x="1120.173828" xlink:href="#DejaVuSans-110"/>
    <use x="1183.552734" xlink:href="#DejaVuSans-111"/>
    <use x="1244.734375" xlink:href="#DejaVuSans-114"/>
    <use x="1284.097656" xlink:href="#DejaVuSans-109"/>
    <use x="1381.509766" xlink:href="#DejaVuSans-115"/>
    <use x="1433.609375" xlink:href="#DejaVuSans-95"/>
    <use x="1483.609375" xlink:href="#DejaVuSans-70"/>
    <use x="1537.503906" xlink:href="#DejaVuSans-111"/>
    <use x="1598.685547" xlink:href="#DejaVuSans-111"/>
    <use x="1659.867188" xlink:href="#DejaVuSans-116"/>
    <use x="1699.076172" xlink:href="#DejaVuSans-95"/>
    <use x="1749.076172" xlink:href="#DejaVuSans-108"/>
    <use x="1776.859375" xlink:href="#DejaVuSans-101"/>
    <use x="1838.382812" xlink:href="#DejaVuSans-103"/>
    <use x="1901.859375" xlink:href="#DejaVuSans-46"/>
    <use x="1933.646484" xlink:href="#DejaVuSans-109"/>
    <use x="2031.058594" xlink:href="#DejaVuSans-101"/>
    <use x="2092.582031" xlink:href="#DejaVuSans-97"/>
    <use x="2153.861328" xlink:href="#DejaVuSans-110"/>
    <use x="2217.240234" xlink:href="#DejaVuSans-32"/>
    <use x="2249.027344" xlink:href="#DejaVuSans-91"/>
    <use x="2288.041016" xlink:href="#DejaVuSans-109"/>
    <use x="2385.453125" xlink:href="#DejaVuSans-111"/>
    <use x="2446.634766" xlink:href="#DejaVuSans-100"/>
    <use x="2510.111328" xlink:href="#DejaVuSans-101"/>
    <use x="2571.634766" xlink:href="#DejaVuSans-108"/>
    <use x="2599.417969" xlink:href="#DejaVuSans-58"/>
    <use x="2633.109375" xlink:href="#DejaVuSans-32"/>
    <use x="2664.896484" xlink:href="#DejaVuSans-108"/>
    <use x="2692.679688" xlink:href="#DejaVuSans-97"/>
    <use x="2753.958984" xlink:href="#DejaVuSans-110"/>
    <use x="2817.337891" xlink:href="#DejaVuSans-99"/>
    <use x="2872.318359" xlink:href="#DejaVuSans-97"/>
    <use x="2933.597656" xlink:href="#DejaVuSans-115"/>
    <use x="2985.697266" xlink:href="#DejaVuSans-116"/>
    <use x="3024.90625" xlink:href="#DejaVuSans-101"/>
    <use x="3086.429688" xlink:href="#DejaVuSans-114"/>
    <use x="3127.542969" xlink:href="#DejaVuSans-115"/>
    <use x="3179.642578" xlink:href="#DejaVuSans-101"/>
    <use x="3241.166016" xlink:href="#DejaVuSans-110"/>
    <use x="3304.544922" xlink:href="#DejaVuSans-115"/>
    <use x="3356.644531" xlink:href="#DejaVuSans-111"/>
    <use x="3417.826172" xlink:href="#DejaVuSans-114"/>
    <use x="3458.939453" xlink:href="#DejaVuSans-105"/>
    <use x="3486.722656" xlink:href="#DejaVuSans-109"/>
    <use x="3584.134766" xlink:href="#DejaVuSans-111"/>
    <use x="3645.316406" xlink:href="#DejaVuSans-116"/>
    <use x="3684.525391" xlink:href="#DejaVuSans-111"/>
    <use x="3745.707031" xlink:href="#DejaVuSans-114"/>
    <use x="3785.070312" xlink:href="#DejaVuSans-110"/>
    <use x="3848.449219" xlink:href="#DejaVuSans-111"/>
    <use x="3909.630859" xlink:href="#DejaVuSans-114"/>
    <use x="3948.994141" xlink:href="#DejaVuSans-109"/>
    <use x="4046.40625" xlink:href="#DejaVuSans-115"/>
    <use x="4098.505859" xlink:href="#DejaVuSans-95"/>
    <use x="4148.505859" xlink:href="#DejaVuSans-70"/>
    <use x="4202.400391" xlink:href="#DejaVuSans-111"/>
    <use x="4263.582031" xlink:href="#DejaVuSans-111"/>
    <use x="4324.763672" xlink:href="#DejaVuSans-116"/>
    <use x="4363.972656" xlink:href="#DejaVuSans-95"/>
    <use x="4413.972656" xlink:href="#DejaVuSans-108"/>
    <use x="4441.755859" xlink:href="#DejaVuSans-101"/>
    <use x="4503.279297" xlink:href="#DejaVuSans-103"/>
    <use x="4566.755859" xlink:href="#DejaVuSans-46"/>
    <use x="4598.542969" xlink:href="#DejaVuSans-109"/>
    <use x="4695.955078" xlink:href="#DejaVuSans-101"/>
    <use x="4757.478516" xlink:href="#DejaVuSans-97"/>
    <use x="4818.757812" xlink:href="#DejaVuSans-110"/>
    <use x="4882.136719" xlink:href="#DejaVuSans-93"/>
   </g>
  </g>
 </g>
 <defs>
  <clipPath id="p7e3acbd8b6">
   <rect height="33.8" width="819.525" x="30.103125" y="34.592"/>
  </clipPath>
 </defs>
</svg>
