<?xml version="1.0" encoding="utf-8" standalone="no"?>
<!DOCTYPE svg PUBLIC "-//W3C//DTD SVG 1.1//EN"
  "http://www.w3.org/Graphics/SVG/1.1/DTD/svg11.dtd">
<!-- Created with matplotlib (https://matplotlib.org/) -->
<svg height="92.270125pt" version="1.1" viewBox="0 0 856.828125 92.270125" width="856.828125pt" xmlns="http://www.w3.org/2000/svg" xmlns:xlink="http://www.w3.org/1999/xlink">
 <defs>
  <style type="text/css">
*{stroke-linecap:butt;stroke-linejoin:round;}
  </style>
 </defs>
 <g id="figure_1">
  <g id="patch_1">
   <path d="M 0 92.270125 
L 856.828125 92.270125 
L 856.828125 0 
L 0 0 
z
" style="fill:none;"/>
  </g>
  <g id="axes_1">
   <g id="patch_2">
    <path d="M 30.103125 68.392 
L 849.628125 68.392 
L 849.628125 34.592 
L 30.103125 34.592 
z
" style="fill:#ffffff;"/>
   </g>
   <g id="matplotlib.axis_1">
    <g id="xtick_1">
     <g id="line2d_1">
      <defs>
       <path d="M 0 0 
L 0 3.5 
" id="m05943cba88" style="stroke:#000000;stroke-width:0.8;"/>
      </defs>
      <g>
       <use style="stroke:#000000;stroke-width:0.8;" x="67.354261" xlink:href="#m05943cba88" y="68.392"/>
      </g>
     </g>
     <g id="text_1">
      <!-- 0 -->
      <defs>
       <path d="M 31.78125 66.40625 
Q 24.171875 66.40625 20.328125 58.90625 
Q 16.5 51.421875 16.5 36.375 
Q 16.5 21.390625 20.328125 13.890625 
Q 24.171875 6.390625 31.78125 6.390625 
Q 39.453125 6.390625 43.28125 13.890625 
Q 47.125 21.390625 47.125 36.375 
Q 47.125 51.421875 43.28125 58.90625 
Q 39.453125 66.40625 31.78125 66.40625 
z
M 31.78125 74.21875 
Q 44.046875 74.21875 50.515625 64.515625 
Q 56.984375 54.828125 56.984375 36.375 
Q 56.984375 17.96875 50.515625 8.265625 
Q 44.046875 -1.421875 31.78125 -1.421875 
Q 19.53125 -1.421875 13.0625 8.265625 
Q 6.59375 17.96875 6.59375 36.375 
Q 6.59375 54.828125 13.0625 64.515625 
Q 19.53125 74.21875 31.78125 74.21875 
z
" id="DejaVuSans-48"/>
      </defs>
      <g transform="translate(64.173011 82.990437)scale(0.1 -0.1)">
       <use xlink:href="#DejaVuSans-48"/>
      </g>
     </g>
    </g>
    <g id="xtick_2">
     <g id="line2d_2">
      <g>
       <use style="stroke:#000000;stroke-width:0.8;" x="206.871626" xlink:href="#m05943cba88" y="68.392"/>
      </g>
     </g>
     <g id="text_2">
      <!-- 100 -->
      <defs>
       <path d="M 12.40625 8.296875 
L 28.515625 8.296875 
L 28.515625 63.921875 
L 10.984375 60.40625 
L 10.984375 69.390625 
L 28.421875 72.90625 
L 38.28125 72.90625 
L 38.28125 8.296875 
L 54.390625 8.296875 
L 54.390625 0 
L 12.40625 0 
z
" id="DejaVuSans-49"/>
      </defs>
      <g transform="translate(197.327876 82.990437)scale(0.1 -0.1)">
       <use xlink:href="#DejaVuSans-49"/>
       <use x="63.623047" xlink:href="#DejaVuSans-48"/>
       <use x="127.246094" xlink:href="#DejaVuSans-48"/>
      </g>
     </g>
    </g>
    <g id="xtick_3">
     <g id="line2d_3">
      <g>
       <use style="stroke:#000000;stroke-width:0.8;" x="346.388991" xlink:href="#m05943cba88" y="68.392"/>
      </g>
     </g>
     <g id="text_3">
      <!-- 200 -->
      <defs>
       <path d="M 19.1875 8.296875 
L 53.609375 8.296875 
L 53.609375 0 
L 7.328125 0 
L 7.328125 8.296875 
Q 12.9375 14.109375 22.625 23.890625 
Q 32.328125 33.6875 34.8125 36.53125 
Q 39.546875 41.84375 41.421875 45.53125 
Q 43.3125 49.21875 43.3125 52.78125 
Q 43.3125 58.59375 39.234375 62.25 
Q 35.15625 65.921875 28.609375 65.921875 
Q 23.96875 65.921875 18.8125 64.3125 
Q 13.671875 62.703125 7.8125 59.421875 
L 7.8125 69.390625 
Q 13.765625 71.78125 18.9375 73 
Q 24.125 74.21875 28.421875 74.21875 
Q 39.75 74.21875 46.484375 68.546875 
Q 53.21875 62.890625 53.21875 53.421875 
Q 53.21875 48.921875 51.53125 44.890625 
Q 49.859375 40.875 45.40625 35.40625 
Q 44.1875 33.984375 37.640625 27.21875 
Q 31.109375 20.453125 19.1875 8.296875 
z
" id="DejaVuSans-50"/>
      </defs>
      <g transform="translate(336.845241 82.990437)scale(0.1 -0.1)">
       <use xlink:href="#DejaVuSans-50"/>
       <use x="63.623047" xlink:href="#DejaVuSans-48"/>
       <use x="127.246094" xlink:href="#DejaVuSans-48"/>
      </g>
     </g>
    </g>
    <g id="xtick_4">
     <g id="line2d_4">
      <g>
       <use style="stroke:#000000;stroke-width:0.8;" x="485.906355" xlink:href="#m05943cba88" y="68.392"/>
      </g>
     </g>
     <g id="text_4">
      <!-- 300 -->
      <defs>
       <path d="M 40.578125 39.3125 
Q 47.65625 37.796875 51.625 33 
Q 55.609375 28.21875 55.609375 21.1875 
Q 55.609375 10.40625 48.1875 4.484375 
Q 40.765625 -1.421875 27.09375 -1.421875 
Q 22.515625 -1.421875 17.65625 -0.515625 
Q 12.796875 0.390625 7.625 2.203125 
L 7.625 11.71875 
Q 11.71875 9.328125 16.59375 8.109375 
Q 21.484375 6.890625 26.8125 6.890625 
Q 36.078125 6.890625 40.9375 10.546875 
Q 45.796875 14.203125 45.796875 21.1875 
Q 45.796875 27.640625 41.28125 31.265625 
Q 36.765625 34.90625 28.71875 34.90625 
L 20.21875 34.90625 
L 20.21875 43.015625 
L 29.109375 43.015625 
Q 36.375 43.015625 40.234375 45.921875 
Q 44.09375 48.828125 44.09375 54.296875 
Q 44.09375 59.90625 40.109375 62.90625 
Q 36.140625 65.921875 28.71875 65.921875 
Q 24.65625 65.921875 20.015625 65.03125 
Q 15.375 64.15625 9.8125 62.3125 
L 9.8125 71.09375 
Q 15.4375 72.65625 20.34375 73.4375 
Q 25.25 74.21875 29.59375 74.21875 
Q 40.828125 74.21875 47.359375 69.109375 
Q 53.90625 64.015625 53.90625 55.328125 
Q 53.90625 49.265625 50.4375 45.09375 
Q 46.96875 40.921875 40.578125 39.3125 
z
" id="DejaVuSans-51"/>
      </defs>
      <g transform="translate(476.362605 82.990437)scale(0.1 -0.1)">
       <use xlink:href="#DejaVuSans-51"/>
       <use x="63.623047" xlink:href="#DejaVuSans-48"/>
       <use x="127.246094" xlink:href="#DejaVuSans-48"/>
      </g>
     </g>
    </g>
    <g id="xtick_5">
     <g id="line2d_5">
      <g>
       <use style="stroke:#000000;stroke-width:0.8;" x="625.42372" xlink:href="#m05943cba88" y="68.392"/>
      </g>
     </g>
     <g id="text_5">
      <!-- 400 -->
      <defs>
       <path d="M 37.796875 64.3125 
L 12.890625 25.390625 
L 37.796875 25.390625 
z
M 35.203125 72.90625 
L 47.609375 72.90625 
L 47.609375 25.390625 
L 58.015625 25.390625 
L 58.015625 17.1875 
L 47.609375 17.1875 
L 47.609375 0 
L 37.796875 0 
L 37.796875 17.1875 
L 4.890625 17.1875 
L 4.890625 26.703125 
z
" id="DejaVuSans-52"/>
      </defs>
      <g transform="translate(615.87997 82.990437)scale(0.1 -0.1)">
       <use xlink:href="#DejaVuSans-52"/>
       <use x="63.623047" xlink:href="#DejaVuSans-48"/>
       <use x="127.246094" xlink:href="#DejaVuSans-48"/>
      </g>
     </g>
    </g>
    <g id="xtick_6">
     <g id="line2d_6">
      <g>
       <use style="stroke:#000000;stroke-width:0.8;" x="764.941085" xlink:href="#m05943cba88" y="68.392"/>
      </g>
     </g>
     <g id="text_6">
      <!-- 500 -->
      <defs>
       <path d="M 10.796875 72.90625 
L 49.515625 72.90625 
L 49.515625 64.59375 
L 19.828125 64.59375 
L 19.828125 46.734375 
Q 21.96875 47.46875 24.109375 47.828125 
Q 26.265625 48.1875 28.421875 48.1875 
Q 40.625 48.1875 47.75 41.5 
Q 54.890625 34.8125 54.890625 23.390625 
Q 54.890625 11.625 47.5625 5.09375 
Q 40.234375 -1.421875 26.90625 -1.421875 
Q 22.3125 -1.421875 17.546875 -0.640625 
Q 12.796875 0.140625 7.71875 1.703125 
L 7.71875 11.625 
Q 12.109375 9.234375 16.796875 8.0625 
Q 21.484375 6.890625 26.703125 6.890625 
Q 35.15625 6.890625 40.078125 11.328125 
Q 45.015625 15.765625 45.015625 23.390625 
Q 45.015625 31 40.078125 35.4375 
Q 35.15625 39.890625 26.703125 39.890625 
Q 22.75 39.890625 18.8125 39.015625 
Q 14.890625 38.140625 10.796875 36.28125 
z
" id="DejaVuSans-53"/>
      </defs>
      <g transform="translate(755.397335 82.990437)scale(0.1 -0.1)">
       <use xlink:href="#DejaVuSans-53"/>
       <use x="63.623047" xlink:href="#DejaVuSans-48"/>
       <use x="127.246094" xlink:href="#DejaVuSans-48"/>
      </g>
     </g>
    </g>
   </g>
   <g id="matplotlib.axis_2">
    <g id="ytick_1">
     <g id="line2d_7">
      <defs>
       <path d="M 0 0 
L -3.5 0 
" id="m33bc779ced" style="stroke:#000000;stroke-width:0.8;"/>
      </defs>
      <g>
       <use style="stroke:#000000;stroke-width:0.8;" x="30.103125" xlink:href="#m33bc779ced" y="52.970356"/>
      </g>
     </g>
     <g id="text_7">
      <!-- 0.0 -->
      <defs>
       <path d="M 10.6875 12.40625 
L 21 12.40625 
L 21 0 
L 10.6875 0 
z
" id="DejaVuSans-46"/>
      </defs>
      <g transform="translate(7.2 56.769575)scale(0.1 -0.1)">
       <use xlink:href="#DejaVuSans-48"/>
       <use x="63.623047" xlink:href="#DejaVuSans-46"/>
       <use x="95.410156" xlink:href="#DejaVuSans-48"/>
      </g>
     </g>
    </g>
    <g id="ytick_2">
     <g id="line2d_8">
      <g>
       <use style="stroke:#000000;stroke-width:0.8;" x="30.103125" xlink:href="#m33bc779ced" y="36.691446"/>
      </g>
     </g>
     <g id="text_8">
      <!-- 0.5 -->
      <g transform="translate(7.2 40.490664)scale(0.1 -0.1)">
       <use xlink:href="#DejaVuSans-48"/>
       <use x="63.623047" xlink:href="#DejaVuSans-46"/>
       <use x="95.410156" xlink:href="#DejaVuSans-53"/>
      </g>
     </g>
    </g>
   </g>
   <g id="line2d_9">
    <path clip-path="url(#pd4fd0f4e9b)" d="M 67.354261 52.970356 
L 85.491519 53.00774 
L 86.886692 53.435478 
L 88.281866 54.04878 
L 89.67704 54.257435 
L 91.072213 54.647161 
L 92.467387 55.534239 
L 93.862561 56.645355 
L 95.257734 57.601208 
L 96.652908 58.011941 
L 98.048082 58.237652 
L 99.443255 58.748622 
L 100.838429 58.832541 
L 102.233603 58.024553 
L 103.628776 56.996805 
L 105.02395 55.805949 
L 107.814297 52.782088 
L 109.209471 51.790694 
L 110.604644 51.352417 
L 111.999818 51.312985 
L 114.790165 51.732011 
L 118.975686 52.42695 
L 123.161207 52.840037 
L 127.346728 52.989885 
L 132.927423 53.057783 
L 134.322596 53.538815 
L 135.71777 54.715205 
L 137.112944 55.676162 
L 139.903291 55.824453 
L 141.298465 56.298183 
L 142.693638 56.450078 
L 144.088812 55.635292 
L 145.483986 52.743982 
L 146.879159 46.593007 
L 148.274333 39.736293 
L 149.669507 36.128364 
L 151.06468 37.457861 
L 153.855027 46.152098 
L 155.250201 49.031079 
L 156.645375 49.620137 
L 158.040548 48.685306 
L 159.435722 48.31097 
L 160.830896 49.582236 
L 162.226069 51.113615 
L 163.621243 51.386251 
L 165.016417 50.90243 
L 166.41159 50.086834 
L 167.806764 48.398489 
L 170.597111 44.356277 
L 171.992285 43.146942 
L 173.387459 43.557757 
L 174.782632 45.599437 
L 176.177806 48.354375 
L 177.572979 50.720468 
L 178.968153 50.949752 
L 180.363327 49.051181 
L 181.7585 46.671117 
L 183.153674 44.621438 
L 184.548848 42.937136 
L 185.944021 41.847987 
L 187.339195 41.589306 
L 188.734369 42.408647 
L 190.129542 44.36896 
L 191.524716 47.127748 
L 192.91989 50.215896 
L 194.315063 52.858439 
L 195.710237 53.907304 
L 197.10541 52.597432 
L 198.500584 49.598743 
L 199.895758 47.245424 
L 201.290931 47.447049 
L 202.686105 49.755098 
L 204.081279 52.573717 
L 205.476452 54.557953 
L 206.871626 55.579841 
L 208.2668 56.159057 
L 209.661973 56.458047 
L 211.057147 56.356827 
L 212.452321 55.595463 
L 215.242668 52.923243 
L 216.637842 52.043413 
L 218.033015 51.695108 
L 219.428189 51.716813 
L 227.799231 52.843862 
L 231.984752 53.042006 
L 236.170273 53.056953 
L 237.565446 52.99808 
L 238.96062 52.142768 
L 240.355794 49.905898 
L 241.750967 47.298778 
L 243.146141 45.74634 
L 244.541314 45.739029 
L 245.936488 46.773465 
L 247.331662 46.928305 
L 250.122009 42.619432 
L 251.517183 43.116146 
L 252.912356 45.303103 
L 254.30753 48.215967 
L 257.097877 56.805143 
L 258.493051 59.385195 
L 259.888225 60.401475 
L 261.283398 60.515003 
L 262.678572 60.0287 
L 264.073746 59.080353 
L 266.864093 56.669745 
L 268.259266 55.849217 
L 269.65444 55.87562 
L 271.049614 57.235628 
L 272.444787 59.442353 
L 273.839961 60.454859 
L 275.235135 59.22677 
L 278.025482 53.313363 
L 279.420656 51.553365 
L 280.815829 50.665245 
L 283.606177 48.106443 
L 285.00135 48.702385 
L 287.791698 53.476269 
L 289.186871 54.790184 
L 291.977218 56.991051 
L 293.372392 57.138971 
L 294.767566 55.842198 
L 296.162739 54.034924 
L 297.557913 53.460938 
L 298.953087 54.490928 
L 300.34826 56.157888 
L 301.743434 57.638832 
L 303.138608 57.94684 
L 304.533781 56.792728 
L 305.928955 55.454253 
L 307.324129 54.874931 
L 308.719302 54.677661 
L 310.114476 54.835647 
L 311.50965 55.714238 
L 312.904823 56.789849 
L 314.299997 57.270982 
L 315.69517 56.960064 
L 317.090344 56.139926 
L 318.485518 55.014202 
L 321.275865 51.961809 
L 322.671039 50.874834 
L 324.066212 50.663437 
L 325.461386 50.664763 
L 326.85656 50.156294 
L 329.646907 48.309694 
L 331.042081 47.962429 
L 332.437254 48.493011 
L 333.832428 49.253854 
L 335.227602 49.737157 
L 336.622775 49.451772 
L 338.017949 48.578624 
L 339.413122 47.98799 
L 340.808296 48.113237 
L 342.20347 48.586452 
L 343.598643 49.384346 
L 347.784164 53.158676 
L 349.179338 53.671342 
L 350.574512 52.707918 
L 351.969685 50.325634 
L 354.760033 43.672113 
L 356.155206 41.183952 
L 357.55038 40.507386 
L 358.945553 41.653015 
L 361.735901 46.125789 
L 363.131074 47.759926 
L 367.316595 50.731914 
L 368.711769 51.822732 
L 370.106943 52.545492 
L 371.502116 52.56814 
L 372.89729 51.786174 
L 375.687637 49.506484 
L 377.082811 47.135418 
L 378.477985 43.886387 
L 379.873158 41.56564 
L 381.268332 41.168779 
L 382.663505 42.922689 
L 385.453853 48.941552 
L 388.2442 53.411178 
L 389.639374 55.450458 
L 391.034547 56.79023 
L 392.429721 56.920504 
L 393.824895 55.473721 
L 395.220068 53.154698 
L 396.615242 51.60054 
L 398.010416 51.744889 
L 399.405589 52.962912 
L 400.800763 53.383697 
L 402.195937 50.910172 
L 403.59111 46.260871 
L 404.986284 42.211974 
L 406.381457 40.355958 
L 407.776631 40.605192 
L 409.171805 42.34346 
L 413.357326 49.811618 
L 414.752499 51.660235 
L 416.147673 52.889605 
L 417.542847 53.621319 
L 418.93802 54.884504 
L 420.333194 56.802782 
L 421.728368 58.299456 
L 423.123541 58.739869 
L 424.518715 58.242689 
L 425.913889 57.289933 
L 428.704236 55.113591 
L 430.099409 53.511455 
L 431.494583 51.106407 
L 432.889757 48.941143 
L 434.28493 47.915909 
L 435.680104 48.457473 
L 437.075278 50.562287 
L 438.470451 53.243309 
L 439.865625 55.451146 
L 441.260799 56.661635 
L 442.655972 56.889598 
L 444.051146 56.579539 
L 445.44632 55.896602 
L 446.841493 54.542246 
L 448.236667 52.896098 
L 449.631841 51.661613 
L 451.027014 51.096347 
L 452.422188 51.073815 
L 453.817361 51.337453 
L 455.212535 52.042611 
L 456.607709 53.774766 
L 459.398056 59.552368 
L 460.79323 60.949835 
L 462.188403 60.014196 
L 464.978751 55.956069 
L 466.373924 54.631662 
L 469.164272 52.784317 
L 470.559445 52.419466 
L 471.954619 53.208283 
L 473.349793 55.427062 
L 476.14014 62.202962 
L 477.535313 64.72028 
L 478.930487 66.253036 
L 480.325661 66.855636 
L 481.720834 66.390106 
L 483.116008 65.102124 
L 484.511182 63.18099 
L 488.696703 56.19429 
L 490.091876 54.428752 
L 491.48705 52.91097 
L 494.277397 49.082472 
L 495.672571 47.886841 
L 497.067745 47.560534 
L 499.858092 47.364149 
L 501.253265 47.048194 
L 504.043613 46.757436 
L 506.83396 44.24049 
L 508.229134 44.677575 
L 509.624307 46.968054 
L 511.019481 49.676939 
L 512.414655 50.944512 
L 515.205002 50.86699 
L 516.600176 51.293823 
L 517.995349 52.187068 
L 520.785697 54.674047 
L 523.576044 57.870234 
L 524.971217 58.306809 
L 526.366391 57.448838 
L 527.761565 55.62049 
L 529.156738 52.993891 
L 531.947086 45.959046 
L 533.342259 43.599678 
L 534.737433 43.243865 
L 536.132607 44.606315 
L 538.922954 49.103563 
L 540.318128 50.829551 
L 541.713301 51.726395 
L 543.108475 51.976186 
L 545.898822 52.252901 
L 548.689169 52.80215 
L 550.084343 52.852443 
L 552.87469 52.67104 
L 555.665038 52.741819 
L 557.060211 52.201837 
L 558.455385 50.047347 
L 559.850559 46.947943 
L 561.245732 44.201549 
L 564.03608 39.472941 
L 565.431253 38.580183 
L 566.826427 39.650237 
L 568.2216 42.152645 
L 569.616774 45.102176 
L 571.011948 47.239432 
L 572.407121 48.047033 
L 573.802295 48.214983 
L 575.197469 48.556642 
L 576.592642 49.370759 
L 579.38299 51.618285 
L 580.778163 52.545166 
L 582.173337 53.199436 
L 583.568511 53.601397 
L 584.963684 53.810044 
L 587.754032 53.873471 
L 591.939552 53.603303 
L 596.125073 53.288192 
L 597.520247 52.914288 
L 598.915421 51.745285 
L 600.310594 50.41081 
L 601.705768 50.067189 
L 603.100942 50.678788 
L 605.891289 52.274957 
L 607.286463 54.111112 
L 608.681636 56.856779 
L 610.07681 59.085418 
L 611.471984 59.39664 
L 612.867157 58.139337 
L 614.262331 56.603108 
L 615.657504 55.38891 
L 617.052678 54.525307 
L 618.447852 53.895437 
L 621.238199 53.048589 
L 622.633373 52.81123 
L 624.028546 53.110868 
L 625.42372 54.865895 
L 628.214067 61.911174 
L 629.609241 63.700131 
L 631.004415 63.325372 
L 632.399588 61.52535 
L 635.189936 57.086755 
L 636.585109 55.347487 
L 637.980283 54.054594 
L 639.375456 53.146467 
L 640.77063 52.542818 
L 642.165804 52.176739 
L 643.560977 51.992628 
L 646.351325 51.990367 
L 658.907888 52.89842 
L 660.303061 52.517651 
L 661.698235 50.769252 
L 663.093408 48.363727 
L 664.488582 46.812356 
L 665.883756 46.65619 
L 667.278929 47.542263 
L 668.674103 48.928098 
L 670.069277 50.874332 
L 671.46445 53.297857 
L 672.859624 55.228453 
L 674.254798 55.777144 
L 675.649971 55.206511 
L 677.045145 54.398375 
L 678.440319 54.11815 
L 679.835492 53.613553 
L 682.62584 50.712775 
L 684.021013 49.982481 
L 685.416187 50.213602 
L 686.81136 51.341457 
L 689.601708 55.071204 
L 690.996881 56.250947 
L 692.392055 56.516171 
L 693.787229 56.1306 
L 697.97275 54.163411 
L 699.367923 53.729381 
L 700.763097 53.760745 
L 702.158271 54.326079 
L 703.553444 55.516115 
L 704.948618 57.485134 
L 706.343791 59.769406 
L 707.738965 61.779446 
L 709.134139 62.890546 
L 710.529312 62.871659 
L 711.924486 61.790415 
L 713.31966 60.095033 
L 714.714833 57.921887 
L 716.110007 55.536744 
L 717.505181 53.439578 
L 718.900354 52.010045 
L 720.295528 51.576722 
L 721.690702 51.900214 
L 723.085875 52.848389 
L 724.481049 54.333878 
L 725.876223 55.982848 
L 727.271396 57.156213 
L 728.66657 57.445661 
L 730.061743 56.967541 
L 734.247264 53.664077 
L 735.642438 52.273931 
L 738.432785 48.646335 
L 739.827959 48.27132 
L 741.223133 49.5738 
L 742.618306 51.104367 
L 744.01348 50.894087 
L 745.408654 48.885806 
L 746.803827 46.645442 
L 748.199001 45.199587 
L 749.594175 44.490232 
L 750.989348 44.449265 
L 752.384522 45.690301 
L 753.779695 47.540975 
L 755.174869 48.966043 
L 756.570043 50.784483 
L 757.965216 53.812361 
L 760.755564 61.874688 
L 762.150737 65.050024 
L 763.545911 66.268563 
L 766.336258 65.476645 
L 767.731432 65.736077 
L 769.126606 65.771096 
L 770.521779 64.650476 
L 774.7073 58.297388 
L 776.102474 56.875918 
L 777.497647 55.828622 
L 778.892821 55.355769 
L 780.287995 54.251354 
L 783.078342 49.319018 
L 784.473516 48.121015 
L 785.868689 48.189069 
L 787.263863 49.339411 
L 788.659037 50.905722 
L 790.05421 52.206274 
L 791.449384 52.845882 
L 792.844558 52.700581 
L 794.239731 52.189236 
L 795.634905 51.817027 
L 797.030079 51.761282 
L 799.820426 52.220125 
L 802.610773 52.688998 
L 805.40112 52.933128 
L 809.586641 53.066585 
L 812.376989 53.076335 
L 812.376989 53.076335 
" style="fill:none;stroke:#1f77b4;stroke-linecap:square;stroke-width:1.5;"/>
   </g>
   <g id="patch_3">
    <path d="M 30.103125 68.392 
L 30.103125 34.592 
" style="fill:none;stroke:#000000;stroke-linecap:square;stroke-linejoin:miter;stroke-width:0.8;"/>
   </g>
   <g id="patch_4">
    <path d="M 30.103125 68.392 
L 849.628125 68.392 
" style="fill:none;stroke:#000000;stroke-linecap:square;stroke-linejoin:miter;stroke-width:0.8;"/>
   </g>
   <g id="text_9">
    <!-- Budapest_movie -->
    <defs>
     <path d="M 19.671875 34.8125 
L 19.671875 8.109375 
L 35.5 8.109375 
Q 43.453125 8.109375 47.28125 11.40625 
Q 51.125 14.703125 51.125 21.484375 
Q 51.125 28.328125 47.28125 31.5625 
Q 43.453125 34.8125 35.5 34.8125 
z
M 19.671875 64.796875 
L 19.671875 42.828125 
L 34.28125 42.828125 
Q 41.5 42.828125 45.03125 45.53125 
Q 48.578125 48.25 48.578125 53.8125 
Q 48.578125 59.328125 45.03125 62.0625 
Q 41.5 64.796875 34.28125 64.796875 
z
M 9.8125 72.90625 
L 35.015625 72.90625 
Q 46.296875 72.90625 52.390625 68.21875 
Q 58.5 63.53125 58.5 54.890625 
Q 58.5 48.1875 55.375 44.234375 
Q 52.25 40.28125 46.1875 39.3125 
Q 53.46875 37.75 57.5 32.78125 
Q 61.53125 27.828125 61.53125 20.40625 
Q 61.53125 10.640625 54.890625 5.3125 
Q 48.25 0 35.984375 0 
L 9.8125 0 
z
" id="DejaVuSans-66"/>
     <path d="M 8.5 21.578125 
L 8.5 54.6875 
L 17.484375 54.6875 
L 17.484375 21.921875 
Q 17.484375 14.15625 20.5 10.265625 
Q 23.53125 6.390625 29.59375 6.390625 
Q 36.859375 6.390625 41.078125 11.03125 
Q 45.3125 15.671875 45.3125 23.6875 
L 45.3125 54.6875 
L 54.296875 54.6875 
L 54.296875 0 
L 45.3125 0 
L 45.3125 8.40625 
Q 42.046875 3.421875 37.71875 1 
Q 33.40625 -1.421875 27.6875 -1.421875 
Q 18.265625 -1.421875 13.375 4.4375 
Q 8.5 10.296875 8.5 21.578125 
z
M 31.109375 56 
z
" id="DejaVuSans-117"/>
     <path d="M 45.40625 46.390625 
L 45.40625 75.984375 
L 54.390625 75.984375 
L 54.390625 0 
L 45.40625 0 
L 45.40625 8.203125 
Q 42.578125 3.328125 38.25 0.953125 
Q 33.9375 -1.421875 27.875 -1.421875 
Q 17.96875 -1.421875 11.734375 6.484375 
Q 5.515625 14.40625 5.515625 27.296875 
Q 5.515625 40.1875 11.734375 48.09375 
Q 17.96875 56 27.875 56 
Q 33.9375 56 38.25 53.625 
Q 42.578125 51.265625 45.40625 46.390625 
z
M 14.796875 27.296875 
Q 14.796875 17.390625 18.875 11.75 
Q 22.953125 6.109375 30.078125 6.109375 
Q 37.203125 6.109375 41.296875 11.75 
Q 45.40625 17.390625 45.40625 27.296875 
Q 45.40625 37.203125 41.296875 42.84375 
Q 37.203125 48.484375 30.078125 48.484375 
Q 22.953125 48.484375 18.875 42.84375 
Q 14.796875 37.203125 14.796875 27.296875 
z
" id="DejaVuSans-100"/>
     <path d="M 34.28125 27.484375 
Q 23.390625 27.484375 19.1875 25 
Q 14.984375 22.515625 14.984375 16.5 
Q 14.984375 11.71875 18.140625 8.90625 
Q 21.296875 6.109375 26.703125 6.109375 
Q 34.1875 6.109375 38.703125 11.40625 
Q 43.21875 16.703125 43.21875 25.484375 
L 43.21875 27.484375 
z
M 52.203125 31.203125 
L 52.203125 0 
L 43.21875 0 
L 43.21875 8.296875 
Q 40.140625 3.328125 35.546875 0.953125 
Q 30.953125 -1.421875 24.3125 -1.421875 
Q 15.921875 -1.421875 10.953125 3.296875 
Q 6 8.015625 6 15.921875 
Q 6 25.140625 12.171875 29.828125 
Q 18.359375 34.515625 30.609375 34.515625 
L 43.21875 34.515625 
L 43.21875 35.40625 
Q 43.21875 41.609375 39.140625 45 
Q 35.0625 48.390625 27.6875 48.390625 
Q 23 48.390625 18.546875 47.265625 
Q 14.109375 46.140625 10.015625 43.890625 
L 10.015625 52.203125 
Q 14.9375 54.109375 19.578125 55.046875 
Q 24.21875 56 28.609375 56 
Q 40.484375 56 46.34375 49.84375 
Q 52.203125 43.703125 52.203125 31.203125 
z
" id="DejaVuSans-97"/>
     <path d="M 18.109375 8.203125 
L 18.109375 -20.796875 
L 9.078125 -20.796875 
L 9.078125 54.6875 
L 18.109375 54.6875 
L 18.109375 46.390625 
Q 20.953125 51.265625 25.265625 53.625 
Q 29.59375 56 35.59375 56 
Q 45.5625 56 51.78125 48.09375 
Q 58.015625 40.1875 58.015625 27.296875 
Q 58.015625 14.40625 51.78125 6.484375 
Q 45.5625 -1.421875 35.59375 -1.421875 
Q 29.59375 -1.421875 25.265625 0.953125 
Q 20.953125 3.328125 18.109375 8.203125 
z
M 48.6875 27.296875 
Q 48.6875 37.203125 44.609375 42.84375 
Q 40.53125 48.484375 33.40625 48.484375 
Q 26.265625 48.484375 22.1875 42.84375 
Q 18.109375 37.203125 18.109375 27.296875 
Q 18.109375 17.390625 22.1875 11.75 
Q 26.265625 6.109375 33.40625 6.109375 
Q 40.53125 6.109375 44.609375 11.75 
Q 48.6875 17.390625 48.6875 27.296875 
z
" id="DejaVuSans-112"/>
     <path d="M 56.203125 29.59375 
L 56.203125 25.203125 
L 14.890625 25.203125 
Q 15.484375 15.921875 20.484375 11.0625 
Q 25.484375 6.203125 34.421875 6.203125 
Q 39.59375 6.203125 44.453125 7.46875 
Q 49.3125 8.734375 54.109375 11.28125 
L 54.109375 2.78125 
Q 49.265625 0.734375 44.1875 -0.34375 
Q 39.109375 -1.421875 33.890625 -1.421875 
Q 20.796875 -1.421875 13.15625 6.1875 
Q 5.515625 13.8125 5.515625 26.8125 
Q 5.515625 40.234375 12.765625 48.109375 
Q 20.015625 56 32.328125 56 
Q 43.359375 56 49.78125 48.890625 
Q 56.203125 41.796875 56.203125 29.59375 
z
M 47.21875 32.234375 
Q 47.125 39.59375 43.09375 43.984375 
Q 39.0625 48.390625 32.421875 48.390625 
Q 24.90625 48.390625 20.390625 44.140625 
Q 15.875 39.890625 15.1875 32.171875 
z
" id="DejaVuSans-101"/>
     <path d="M 44.28125 53.078125 
L 44.28125 44.578125 
Q 40.484375 46.53125 36.375 47.5 
Q 32.28125 48.484375 27.875 48.484375 
Q 21.1875 48.484375 17.84375 46.4375 
Q 14.5 44.390625 14.5 40.28125 
Q 14.5 37.15625 16.890625 35.375 
Q 19.28125 33.59375 26.515625 31.984375 
L 29.59375 31.296875 
Q 39.15625 29.25 43.1875 25.515625 
Q 47.21875 21.78125 47.21875 15.09375 
Q 47.21875 7.46875 41.1875 3.015625 
Q 35.15625 -1.421875 24.609375 -1.421875 
Q 20.21875 -1.421875 15.453125 -0.5625 
Q 10.6875 0.296875 5.421875 2 
L 5.421875 11.28125 
Q 10.40625 8.6875 15.234375 7.390625 
Q 20.0625 6.109375 24.8125 6.109375 
Q 31.15625 6.109375 34.5625 8.28125 
Q 37.984375 10.453125 37.984375 14.40625 
Q 37.984375 18.0625 35.515625 20.015625 
Q 33.0625 21.96875 24.703125 23.78125 
L 21.578125 24.515625 
Q 13.234375 26.265625 9.515625 29.90625 
Q 5.8125 33.546875 5.8125 39.890625 
Q 5.8125 47.609375 11.28125 51.796875 
Q 16.75 56 26.8125 56 
Q 31.78125 56 36.171875 55.265625 
Q 40.578125 54.546875 44.28125 53.078125 
z
" id="DejaVuSans-115"/>
     <path d="M 18.3125 70.21875 
L 18.3125 54.6875 
L 36.8125 54.6875 
L 36.8125 47.703125 
L 18.3125 47.703125 
L 18.3125 18.015625 
Q 18.3125 11.328125 20.140625 9.421875 
Q 21.96875 7.515625 27.59375 7.515625 
L 36.8125 7.515625 
L 36.8125 0 
L 27.59375 0 
Q 17.1875 0 13.234375 3.875 
Q 9.28125 7.765625 9.28125 18.015625 
L 9.28125 47.703125 
L 2.6875 47.703125 
L 2.6875 54.6875 
L 9.28125 54.6875 
L 9.28125 70.21875 
z
" id="DejaVuSans-116"/>
     <path d="M 50.984375 -16.609375 
L 50.984375 -23.578125 
L -0.984375 -23.578125 
L -0.984375 -16.609375 
z
" id="DejaVuSans-95"/>
     <path d="M 52 44.1875 
Q 55.375 50.25 60.0625 53.125 
Q 64.75 56 71.09375 56 
Q 79.640625 56 84.28125 50.015625 
Q 88.921875 44.046875 88.921875 33.015625 
L 88.921875 0 
L 79.890625 0 
L 79.890625 32.71875 
Q 79.890625 40.578125 77.09375 44.375 
Q 74.3125 48.1875 68.609375 48.1875 
Q 61.625 48.1875 57.5625 43.546875 
Q 53.515625 38.921875 53.515625 30.90625 
L 53.515625 0 
L 44.484375 0 
L 44.484375 32.71875 
Q 44.484375 40.625 41.703125 44.40625 
Q 38.921875 48.1875 33.109375 48.1875 
Q 26.21875 48.1875 22.15625 43.53125 
Q 18.109375 38.875 18.109375 30.90625 
L 18.109375 0 
L 9.078125 0 
L 9.078125 54.6875 
L 18.109375 54.6875 
L 18.109375 46.1875 
Q 21.1875 51.21875 25.484375 53.609375 
Q 29.78125 56 35.6875 56 
Q 41.65625 56 45.828125 52.96875 
Q 50 49.953125 52 44.1875 
z
" id="DejaVuSans-109"/>
     <path d="M 30.609375 48.390625 
Q 23.390625 48.390625 19.1875 42.75 
Q 14.984375 37.109375 14.984375 27.296875 
Q 14.984375 17.484375 19.15625 11.84375 
Q 23.34375 6.203125 30.609375 6.203125 
Q 37.796875 6.203125 41.984375 11.859375 
Q 46.1875 17.53125 46.1875 27.296875 
Q 46.1875 37.015625 41.984375 42.703125 
Q 37.796875 48.390625 30.609375 48.390625 
z
M 30.609375 56 
Q 42.328125 56 49.015625 48.375 
Q 55.71875 40.765625 55.71875 27.296875 
Q 55.71875 13.875 49.015625 6.21875 
Q 42.328125 -1.421875 30.609375 -1.421875 
Q 18.84375 -1.421875 12.171875 6.21875 
Q 5.515625 13.875 5.515625 27.296875 
Q 5.515625 40.765625 12.171875 48.375 
Q 18.84375 56 30.609375 56 
z
" id="DejaVuSans-111"/>
     <path d="M 2.984375 54.6875 
L 12.5 54.6875 
L 29.59375 8.796875 
L 46.6875 54.6875 
L 56.203125 54.6875 
L 35.6875 0 
L 23.484375 0 
z
" id="DejaVuSans-118"/>
     <path d="M 9.421875 54.6875 
L 18.40625 54.6875 
L 18.40625 0 
L 9.421875 0 
z
M 9.421875 75.984375 
L 18.40625 75.984375 
L 18.40625 64.59375 
L 9.421875 64.59375 
z
" id="DejaVuSans-105"/>
    </defs>
    <g transform="translate(398.357813 28.592)scale(0.1 -0.1)">
     <use xlink:href="#DejaVuSans-66"/>
     <use x="68.603516" xlink:href="#DejaVuSans-117"/>
     <use x="131.982422" xlink:href="#DejaVuSans-100"/>
     <use x="195.458984" xlink:href="#DejaVuSans-97"/>
     <use x="256.738281" xlink:href="#DejaVuSans-112"/>
     <use x="320.214844" xlink:href="#DejaVuSans-101"/>
     <use x="381.738281" xlink:href="#DejaVuSans-115"/>
     <use x="433.837891" xlink:href="#DejaVuSans-116"/>
     <use x="473.046875" xlink:href="#DejaVuSans-95"/>
     <use x="523.046875" xlink:href="#DejaVuSans-109"/>
     <use x="620.458984" xlink:href="#DejaVuSans-111"/>
     <use x="681.640625" xlink:href="#DejaVuSans-118"/>
     <use x="740.820312" xlink:href="#DejaVuSans-105"/>
     <use x="768.603516" xlink:href="#DejaVuSans-101"/>
    </g>
   </g>
  </g>
  <g id="text_10">
   <!-- lancastersensorimotornorms_Hand_arm.mean [model: lancastersensorimotornorms_Hand_arm.mean] -->
   <defs>
    <path d="M 9.421875 75.984375 
L 18.40625 75.984375 
L 18.40625 0 
L 9.421875 0 
z
" id="DejaVuSans-108"/>
    <path d="M 54.890625 33.015625 
L 54.890625 0 
L 45.90625 0 
L 45.90625 32.71875 
Q 45.90625 40.484375 42.875 44.328125 
Q 39.84375 48.1875 33.796875 48.1875 
Q 26.515625 48.1875 22.3125 43.546875 
Q 18.109375 38.921875 18.109375 30.90625 
L 18.109375 0 
L 9.078125 0 
L 9.078125 54.6875 
L 18.109375 54.6875 
L 18.109375 46.1875 
Q 21.34375 51.125 25.703125 53.5625 
Q 30.078125 56 35.796875 56 
Q 45.21875 56 50.046875 50.171875 
Q 54.890625 44.34375 54.890625 33.015625 
z
" id="DejaVuSans-110"/>
    <path d="M 48.78125 52.59375 
L 48.78125 44.1875 
Q 44.96875 46.296875 41.140625 47.34375 
Q 37.3125 48.390625 33.40625 48.390625 
Q 24.65625 48.390625 19.8125 42.84375 
Q 14.984375 37.3125 14.984375 27.296875 
Q 14.984375 17.28125 19.8125 11.734375 
Q 24.65625 6.203125 33.40625 6.203125 
Q 37.3125 6.203125 41.140625 7.25 
Q 44.96875 8.296875 48.78125 10.40625 
L 48.78125 2.09375 
Q 45.015625 0.34375 40.984375 -0.53125 
Q 36.96875 -1.421875 32.421875 -1.421875 
Q 20.0625 -1.421875 12.78125 6.34375 
Q 5.515625 14.109375 5.515625 27.296875 
Q 5.515625 40.671875 12.859375 48.328125 
Q 20.21875 56 33.015625 56 
Q 37.15625 56 41.109375 55.140625 
Q 45.0625 54.296875 48.78125 52.59375 
z
" id="DejaVuSans-99"/>
    <path d="M 41.109375 46.296875 
Q 39.59375 47.171875 37.8125 47.578125 
Q 36.03125 48 33.890625 48 
Q 26.265625 48 22.1875 43.046875 
Q 18.109375 38.09375 18.109375 28.8125 
L 18.109375 0 
L 9.078125 0 
L 9.078125 54.6875 
L 18.109375 54.6875 
L 18.109375 46.1875 
Q 20.953125 51.171875 25.484375 53.578125 
Q 30.03125 56 36.53125 56 
Q 37.453125 56 38.578125 55.875 
Q 39.703125 55.765625 41.0625 55.515625 
z
" id="DejaVuSans-114"/>
    <path d="M 9.8125 72.90625 
L 19.671875 72.90625 
L 19.671875 43.015625 
L 55.515625 43.015625 
L 55.515625 72.90625 
L 65.375 72.90625 
L 65.375 0 
L 55.515625 0 
L 55.515625 34.71875 
L 19.671875 34.71875 
L 19.671875 0 
L 9.8125 0 
z
" id="DejaVuSans-72"/>
    <path id="DejaVuSans-32"/>
    <path d="M 8.59375 75.984375 
L 29.296875 75.984375 
L 29.296875 69 
L 17.578125 69 
L 17.578125 -6.203125 
L 29.296875 -6.203125 
L 29.296875 -13.1875 
L 8.59375 -13.1875 
z
" id="DejaVuSans-91"/>
    <path d="M 11.71875 12.40625 
L 22.015625 12.40625 
L 22.015625 0 
L 11.71875 0 
z
M 11.71875 51.703125 
L 22.015625 51.703125 
L 22.015625 39.3125 
L 11.71875 39.3125 
z
" id="DejaVuSans-58"/>
    <path d="M 30.421875 75.984375 
L 30.421875 -13.1875 
L 9.71875 -13.1875 
L 9.71875 -6.203125 
L 21.390625 -6.203125 
L 21.390625 69 
L 9.71875 69 
L 9.71875 75.984375 
z
" id="DejaVuSans-93"/>
   </defs>
   <g transform="translate(121.986563 16.318125)scale(0.12 -0.12)">
    <use xlink:href="#DejaVuSans-108"/>
    <use x="27.783203" xlink:href="#DejaVuSans-97"/>
    <use x="89.0625" xlink:href="#DejaVuSans-110"/>
    <use x="152.441406" xlink:href="#DejaVuSans-99"/>
    <use x="207.421875" xlink:href="#DejaVuSans-97"/>
    <use x="268.701172" xlink:href="#DejaVuSans-115"/>
    <use x="320.800781" xlink:href="#DejaVuSans-116"/>
    <use x="360.009766" xlink:href="#DejaVuSans-101"/>
    <use x="421.533203" xlink:href="#DejaVuSans-114"/>
    <use x="462.646484" xlink:href="#DejaVuSans-115"/>
    <use x="514.746094" xlink:href="#DejaVuSans-101"/>
    <use x="576.269531" xlink:href="#DejaVuSans-110"/>
    <use x="639.648438" xlink:href="#DejaVuSans-115"/>
    <use x="691.748047" xlink:href="#DejaVuSans-111"/>
    <use x="752.929688" xlink:href="#DejaVuSans-114"/>
    <use x="794.042969" xlink:href="#DejaVuSans-105"/>
    <use x="821.826172" xlink:href="#DejaVuSans-109"/>
    <use x="919.238281" xlink:href="#DejaVuSans-111"/>
    <use x="980.419922" xlink:href="#DejaVuSans-116"/>
    <use x="1019.628906" xlink:href="#DejaVuSans-111"/>
    <use x="1080.810547" xlink:href="#DejaVuSans-114"/>
    <use x="1120.173828" xlink:href="#DejaVuSans-110"/>
    <use x="1183.552734" xlink:href="#DejaVuSans-111"/>
    <use x="1244.734375" xlink:href="#DejaVuSans-114"/>
    <use x="1284.097656" xlink:href="#DejaVuSans-109"/>
    <use x="1381.509766" xlink:href="#DejaVuSans-115"/>
    <use x="1433.609375" xlink:href="#DejaVuSans-95"/>
    <use x="1483.609375" xlink:href="#DejaVuSans-72"/>
    <use x="1558.804688" xlink:href="#DejaVuSans-97"/>
    <use x="1620.083984" xlink:href="#DejaVuSans-110"/>
    <use x="1683.462891" xlink:href="#DejaVuSans-100"/>
    <use x="1746.939453" xlink:href="#DejaVuSans-95"/>
    <use x="1796.939453" xlink:href="#DejaVuSans-97"/>
    <use x="1858.21875" xlink:href="#DejaVuSans-114"/>
    <use x="1897.582031" xlink:href="#DejaVuSans-109"/>
    <use x="1994.994141" xlink:href="#DejaVuSans-46"/>
    <use x="2026.78125" xlink:href="#DejaVuSans-109"/>
    <use x="2124.193359" xlink:href="#DejaVuSans-101"/>
    <use x="2185.716797" xlink:href="#DejaVuSans-97"/>
    <use x="2246.996094" xlink:href="#DejaVuSans-110"/>
    <use x="2310.375" xlink:href="#DejaVuSans-32"/>
    <use x="2342.162109" xlink:href="#DejaVuSans-91"/>
    <use x="2381.175781" xlink:href="#DejaVuSans-109"/>
    <use x="2478.587891" xlink:href="#DejaVuSans-111"/>
    <use x="2539.769531" xlink:href="#DejaVuSans-100"/>
    <use x="2603.246094" xlink:href="#DejaVuSans-101"/>
    <use x="2664.769531" xlink:href="#DejaVuSans-108"/>
    <use x="2692.552734" xlink:href="#DejaVuSans-58"/>
    <use x="2726.244141" xlink:href="#DejaVuSans-32"/>
    <use x="2758.03125" xlink:href="#DejaVuSans-108"/>
    <use x="2785.814453" xlink:href="#DejaVuSans-97"/>
    <use x="2847.09375" xlink:href="#DejaVuSans-110"/>
    <use x="2910.472656" xlink:href="#DejaVuSans-99"/>
    <use x="2965.453125" xlink:href="#DejaVuSans-97"/>
    <use x="3026.732422" xlink:href="#DejaVuSans-115"/>
    <use x="3078.832031" xlink:href="#DejaVuSans-116"/>
    <use x="3118.041016" xlink:href="#DejaVuSans-101"/>
    <use x="3179.564453" xlink:href="#DejaVuSans-114"/>
    <use x="3220.677734" xlink:href="#DejaVuSans-115"/>
    <use x="3272.777344" xlink:href="#DejaVuSans-101"/>
    <use x="3334.300781" xlink:href="#DejaVuSans-110"/>
    <use x="3397.679688" xlink:href="#DejaVuSans-115"/>
    <use x="3449.779297" xlink:href="#DejaVuSans-111"/>
    <use x="3510.960938" xlink:href="#DejaVuSans-114"/>
    <use x="3552.074219" xlink:href="#DejaVuSans-105"/>
    <use x="3579.857422" xlink:href="#DejaVuSans-109"/>
    <use x="3677.269531" xlink:href="#DejaVuSans-111"/>
    <use x="3738.451172" xlink:href="#DejaVuSans-116"/>
    <use x="3777.660156" xlink:href="#DejaVuSans-111"/>
    <use x="3838.841797" xlink:href="#DejaVuSans-114"/>
    <use x="3878.205078" xlink:href="#DejaVuSans-110"/>
    <use x="3941.583984" xlink:href="#DejaVuSans-111"/>
    <use x="4002.765625" xlink:href="#DejaVuSans-114"/>
    <use x="4042.128906" xlink:href="#DejaVuSans-109"/>
    <use x="4139.541016" xlink:href="#DejaVuSans-115"/>
    <use x="4191.640625" xlink:href="#DejaVuSans-95"/>
    <use x="4241.640625" xlink:href="#DejaVuSans-72"/>
    <use x="4316.835938" xlink:href="#DejaVuSans-97"/>
    <use x="4378.115234" xlink:href="#DejaVuSans-110"/>
    <use x="4441.494141" xlink:href="#DejaVuSans-100"/>
    <use x="4504.970703" xlink:href="#DejaVuSans-95"/>
    <use x="4554.970703" xlink:href="#DejaVuSans-97"/>
    <use x="4616.25" xlink:href="#DejaVuSans-114"/>
    <use x="4655.613281" xlink:href="#DejaVuSans-109"/>
    <use x="4753.025391" xlink:href="#DejaVuSans-46"/>
    <use x="4784.8125" xlink:href="#DejaVuSans-109"/>
    <use x="4882.224609" xlink:href="#DejaVuSans-101"/>
    <use x="4943.748047" xlink:href="#DejaVuSans-97"/>
    <use x="5005.027344" xlink:href="#DejaVuSans-110"/>
    <use x="5068.40625" xlink:href="#DejaVuSans-93"/>
   </g>
  </g>
 </g>
 <defs>
  <clipPath id="pd4fd0f4e9b">
   <rect height="33.8" width="819.525" x="30.103125" y="34.592"/>
  </clipPath>
 </defs>
</svg>
