<?xml version="1.0" encoding="utf-8" standalone="no"?>
<!DOCTYPE svg PUBLIC "-//W3C//DTD SVG 1.1//EN"
  "http://www.w3.org/Graphics/SVG/1.1/DTD/svg11.dtd">
<!-- Created with matplotlib (https://matplotlib.org/) -->
<svg height="92.270125pt" version="1.1" viewBox="0 0 856.828125 92.270125" width="856.828125pt" xmlns="http://www.w3.org/2000/svg" xmlns:xlink="http://www.w3.org/1999/xlink">
 <defs>
  <style type="text/css">
*{stroke-linecap:butt;stroke-linejoin:round;}
  </style>
 </defs>
 <g id="figure_1">
  <g id="patch_1">
   <path d="M 0 92.270125 
L 856.828125 92.270125 
L 856.828125 0 
L 0 0 
z
" style="fill:none;"/>
  </g>
  <g id="axes_1">
   <g id="patch_2">
    <path d="M 30.103125 68.392 
L 849.628125 68.392 
L 849.628125 34.592 
L 30.103125 34.592 
z
" style="fill:#ffffff;"/>
   </g>
   <g id="matplotlib.axis_1">
    <g id="xtick_1">
     <g id="line2d_1">
      <defs>
       <path d="M 0 0 
L 0 3.5 
" id="mf9cdeabb27" style="stroke:#000000;stroke-width:0.8;"/>
      </defs>
      <g>
       <use style="stroke:#000000;stroke-width:0.8;" x="67.354261" xlink:href="#mf9cdeabb27" y="68.392"/>
      </g>
     </g>
     <g id="text_1">
      <!-- 0 -->
      <defs>
       <path d="M 31.78125 66.40625 
Q 24.171875 66.40625 20.328125 58.90625 
Q 16.5 51.421875 16.5 36.375 
Q 16.5 21.390625 20.328125 13.890625 
Q 24.171875 6.390625 31.78125 6.390625 
Q 39.453125 6.390625 43.28125 13.890625 
Q 47.125 21.390625 47.125 36.375 
Q 47.125 51.421875 43.28125 58.90625 
Q 39.453125 66.40625 31.78125 66.40625 
z
M 31.78125 74.21875 
Q 44.046875 74.21875 50.515625 64.515625 
Q 56.984375 54.828125 56.984375 36.375 
Q 56.984375 17.96875 50.515625 8.265625 
Q 44.046875 -1.421875 31.78125 -1.421875 
Q 19.53125 -1.421875 13.0625 8.265625 
Q 6.59375 17.96875 6.59375 36.375 
Q 6.59375 54.828125 13.0625 64.515625 
Q 19.53125 74.21875 31.78125 74.21875 
z
" id="DejaVuSans-48"/>
      </defs>
      <g transform="translate(64.173011 82.990437)scale(0.1 -0.1)">
       <use xlink:href="#DejaVuSans-48"/>
      </g>
     </g>
    </g>
    <g id="xtick_2">
     <g id="line2d_2">
      <g>
       <use style="stroke:#000000;stroke-width:0.8;" x="206.871626" xlink:href="#mf9cdeabb27" y="68.392"/>
      </g>
     </g>
     <g id="text_2">
      <!-- 100 -->
      <defs>
       <path d="M 12.40625 8.296875 
L 28.515625 8.296875 
L 28.515625 63.921875 
L 10.984375 60.40625 
L 10.984375 69.390625 
L 28.421875 72.90625 
L 38.28125 72.90625 
L 38.28125 8.296875 
L 54.390625 8.296875 
L 54.390625 0 
L 12.40625 0 
z
" id="DejaVuSans-49"/>
      </defs>
      <g transform="translate(197.327876 82.990437)scale(0.1 -0.1)">
       <use xlink:href="#DejaVuSans-49"/>
       <use x="63.623047" xlink:href="#DejaVuSans-48"/>
       <use x="127.246094" xlink:href="#DejaVuSans-48"/>
      </g>
     </g>
    </g>
    <g id="xtick_3">
     <g id="line2d_3">
      <g>
       <use style="stroke:#000000;stroke-width:0.8;" x="346.388991" xlink:href="#mf9cdeabb27" y="68.392"/>
      </g>
     </g>
     <g id="text_3">
      <!-- 200 -->
      <defs>
       <path d="M 19.1875 8.296875 
L 53.609375 8.296875 
L 53.609375 0 
L 7.328125 0 
L 7.328125 8.296875 
Q 12.9375 14.109375 22.625 23.890625 
Q 32.328125 33.6875 34.8125 36.53125 
Q 39.546875 41.84375 41.421875 45.53125 
Q 43.3125 49.21875 43.3125 52.78125 
Q 43.3125 58.59375 39.234375 62.25 
Q 35.15625 65.921875 28.609375 65.921875 
Q 23.96875 65.921875 18.8125 64.3125 
Q 13.671875 62.703125 7.8125 59.421875 
L 7.8125 69.390625 
Q 13.765625 71.78125 18.9375 73 
Q 24.125 74.21875 28.421875 74.21875 
Q 39.75 74.21875 46.484375 68.546875 
Q 53.21875 62.890625 53.21875 53.421875 
Q 53.21875 48.921875 51.53125 44.890625 
Q 49.859375 40.875 45.40625 35.40625 
Q 44.1875 33.984375 37.640625 27.21875 
Q 31.109375 20.453125 19.1875 8.296875 
z
" id="DejaVuSans-50"/>
      </defs>
      <g transform="translate(336.845241 82.990437)scale(0.1 -0.1)">
       <use xlink:href="#DejaVuSans-50"/>
       <use x="63.623047" xlink:href="#DejaVuSans-48"/>
       <use x="127.246094" xlink:href="#DejaVuSans-48"/>
      </g>
     </g>
    </g>
    <g id="xtick_4">
     <g id="line2d_4">
      <g>
       <use style="stroke:#000000;stroke-width:0.8;" x="485.906355" xlink:href="#mf9cdeabb27" y="68.392"/>
      </g>
     </g>
     <g id="text_4">
      <!-- 300 -->
      <defs>
       <path d="M 40.578125 39.3125 
Q 47.65625 37.796875 51.625 33 
Q 55.609375 28.21875 55.609375 21.1875 
Q 55.609375 10.40625 48.1875 4.484375 
Q 40.765625 -1.421875 27.09375 -1.421875 
Q 22.515625 -1.421875 17.65625 -0.515625 
Q 12.796875 0.390625 7.625 2.203125 
L 7.625 11.71875 
Q 11.71875 9.328125 16.59375 8.109375 
Q 21.484375 6.890625 26.8125 6.890625 
Q 36.078125 6.890625 40.9375 10.546875 
Q 45.796875 14.203125 45.796875 21.1875 
Q 45.796875 27.640625 41.28125 31.265625 
Q 36.765625 34.90625 28.71875 34.90625 
L 20.21875 34.90625 
L 20.21875 43.015625 
L 29.109375 43.015625 
Q 36.375 43.015625 40.234375 45.921875 
Q 44.09375 48.828125 44.09375 54.296875 
Q 44.09375 59.90625 40.109375 62.90625 
Q 36.140625 65.921875 28.71875 65.921875 
Q 24.65625 65.921875 20.015625 65.03125 
Q 15.375 64.15625 9.8125 62.3125 
L 9.8125 71.09375 
Q 15.4375 72.65625 20.34375 73.4375 
Q 25.25 74.21875 29.59375 74.21875 
Q 40.828125 74.21875 47.359375 69.109375 
Q 53.90625 64.015625 53.90625 55.328125 
Q 53.90625 49.265625 50.4375 45.09375 
Q 46.96875 40.921875 40.578125 39.3125 
z
" id="DejaVuSans-51"/>
      </defs>
      <g transform="translate(476.362605 82.990437)scale(0.1 -0.1)">
       <use xlink:href="#DejaVuSans-51"/>
       <use x="63.623047" xlink:href="#DejaVuSans-48"/>
       <use x="127.246094" xlink:href="#DejaVuSans-48"/>
      </g>
     </g>
    </g>
    <g id="xtick_5">
     <g id="line2d_5">
      <g>
       <use style="stroke:#000000;stroke-width:0.8;" x="625.42372" xlink:href="#mf9cdeabb27" y="68.392"/>
      </g>
     </g>
     <g id="text_5">
      <!-- 400 -->
      <defs>
       <path d="M 37.796875 64.3125 
L 12.890625 25.390625 
L 37.796875 25.390625 
z
M 35.203125 72.90625 
L 47.609375 72.90625 
L 47.609375 25.390625 
L 58.015625 25.390625 
L 58.015625 17.1875 
L 47.609375 17.1875 
L 47.609375 0 
L 37.796875 0 
L 37.796875 17.1875 
L 4.890625 17.1875 
L 4.890625 26.703125 
z
" id="DejaVuSans-52"/>
      </defs>
      <g transform="translate(615.87997 82.990437)scale(0.1 -0.1)">
       <use xlink:href="#DejaVuSans-52"/>
       <use x="63.623047" xlink:href="#DejaVuSans-48"/>
       <use x="127.246094" xlink:href="#DejaVuSans-48"/>
      </g>
     </g>
    </g>
    <g id="xtick_6">
     <g id="line2d_6">
      <g>
       <use style="stroke:#000000;stroke-width:0.8;" x="764.941085" xlink:href="#mf9cdeabb27" y="68.392"/>
      </g>
     </g>
     <g id="text_6">
      <!-- 500 -->
      <defs>
       <path d="M 10.796875 72.90625 
L 49.515625 72.90625 
L 49.515625 64.59375 
L 19.828125 64.59375 
L 19.828125 46.734375 
Q 21.96875 47.46875 24.109375 47.828125 
Q 26.265625 48.1875 28.421875 48.1875 
Q 40.625 48.1875 47.75 41.5 
Q 54.890625 34.8125 54.890625 23.390625 
Q 54.890625 11.625 47.5625 5.09375 
Q 40.234375 -1.421875 26.90625 -1.421875 
Q 22.3125 -1.421875 17.546875 -0.640625 
Q 12.796875 0.140625 7.71875 1.703125 
L 7.71875 11.625 
Q 12.109375 9.234375 16.796875 8.0625 
Q 21.484375 6.890625 26.703125 6.890625 
Q 35.15625 6.890625 40.078125 11.328125 
Q 45.015625 15.765625 45.015625 23.390625 
Q 45.015625 31 40.078125 35.4375 
Q 35.15625 39.890625 26.703125 39.890625 
Q 22.75 39.890625 18.8125 39.015625 
Q 14.890625 38.140625 10.796875 36.28125 
z
" id="DejaVuSans-53"/>
      </defs>
      <g transform="translate(755.397335 82.990437)scale(0.1 -0.1)">
       <use xlink:href="#DejaVuSans-53"/>
       <use x="63.623047" xlink:href="#DejaVuSans-48"/>
       <use x="127.246094" xlink:href="#DejaVuSans-48"/>
      </g>
     </g>
    </g>
   </g>
   <g id="matplotlib.axis_2">
    <g id="ytick_1">
     <g id="line2d_7">
      <defs>
       <path d="M 0 0 
L -3.5 0 
" id="me378b13845" style="stroke:#000000;stroke-width:0.8;"/>
      </defs>
      <g>
       <use style="stroke:#000000;stroke-width:0.8;" x="30.103125" xlink:href="#me378b13845" y="55.033033"/>
      </g>
     </g>
     <g id="text_7">
      <!-- 0.0 -->
      <defs>
       <path d="M 10.6875 12.40625 
L 21 12.40625 
L 21 0 
L 10.6875 0 
z
" id="DejaVuSans-46"/>
      </defs>
      <g transform="translate(7.2 58.832252)scale(0.1 -0.1)">
       <use xlink:href="#DejaVuSans-48"/>
       <use x="63.623047" xlink:href="#DejaVuSans-46"/>
       <use x="95.410156" xlink:href="#DejaVuSans-48"/>
      </g>
     </g>
    </g>
    <g id="ytick_2">
     <g id="line2d_8">
      <g>
       <use style="stroke:#000000;stroke-width:0.8;" x="30.103125" xlink:href="#me378b13845" y="39.93926"/>
      </g>
     </g>
     <g id="text_8">
      <!-- 0.5 -->
      <g transform="translate(7.2 43.738479)scale(0.1 -0.1)">
       <use xlink:href="#DejaVuSans-48"/>
       <use x="63.623047" xlink:href="#DejaVuSans-46"/>
       <use x="95.410156" xlink:href="#DejaVuSans-53"/>
      </g>
     </g>
    </g>
   </g>
   <g id="line2d_9">
    <path clip-path="url(#pcc1d97eb71)" d="M 67.354261 55.033033 
L 85.491519 54.940094 
L 86.886692 53.809322 
L 88.281866 50.808223 
L 89.67704 47.021457 
L 91.072213 45.118313 
L 92.467387 45.870634 
L 93.862561 47.265464 
L 95.257734 47.938007 
L 96.652908 48.210448 
L 98.048082 49.494994 
L 99.443255 52.408672 
L 102.233603 59.083616 
L 103.628776 62.005828 
L 105.02395 64.561068 
L 106.419123 66.264935 
L 107.814297 66.487253 
L 109.209471 65.263425 
L 110.604644 63.177876 
L 111.999818 60.884698 
L 113.394992 58.817907 
L 114.790165 57.161336 
L 116.185339 55.934345 
L 117.580513 55.082424 
L 118.975686 54.53271 
L 120.37086 54.216959 
L 121.766034 54.076559 
L 124.556381 54.129181 
L 132.927423 54.898054 
L 134.322596 55.230012 
L 137.112944 56.825211 
L 138.508117 56.319488 
L 139.903291 55.365261 
L 142.693638 54.901905 
L 144.088812 54.076765 
L 145.483986 52.416906 
L 146.879159 49.999007 
L 148.274333 48.089734 
L 149.669507 48.389592 
L 151.06468 51.759723 
L 152.459854 55.732565 
L 153.855027 58.269382 
L 155.250201 59.975784 
L 156.645375 60.164072 
L 158.040548 58.316727 
L 159.435722 56.120921 
L 160.830896 55.353308 
L 162.226069 55.61484 
L 163.621243 55.739213 
L 166.41159 55.184751 
L 167.806764 54.793774 
L 169.201938 53.98329 
L 170.597111 52.492459 
L 173.387459 46.882045 
L 174.782632 45.717235 
L 176.177806 46.230935 
L 177.572979 47.808865 
L 178.968153 49.201527 
L 180.363327 49.744184 
L 181.7585 49.742045 
L 183.153674 49.261526 
L 184.548848 47.504768 
L 185.944021 44.964746 
L 187.339195 43.029231 
L 188.734369 41.872937 
L 190.129542 41.622895 
L 191.524716 42.576565 
L 192.91989 44.667819 
L 195.710237 50.252104 
L 197.10541 51.530627 
L 198.500584 50.385589 
L 201.290931 45.084016 
L 202.686105 43.226607 
L 204.081279 42.601265 
L 205.476452 43.670873 
L 206.871626 46.592143 
L 209.661973 55.127957 
L 211.057147 58.356756 
L 212.452321 59.462053 
L 213.847494 58.575373 
L 215.242668 56.859867 
L 216.637842 55.43356 
L 218.033015 54.692552 
L 219.428189 54.504425 
L 222.218536 54.743893 
L 226.404057 55.035496 
L 233.379925 55.186925 
L 237.565446 55.130656 
L 238.96062 54.866312 
L 240.355794 54.199446 
L 241.750967 53.256858 
L 243.146141 52.460192 
L 244.541314 52.477709 
L 245.936488 53.287427 
L 247.331662 53.774874 
L 250.122009 52.954203 
L 251.517183 53.393773 
L 252.912356 54.088159 
L 254.30753 55.147214 
L 255.702704 57.459039 
L 258.493051 63.973329 
L 259.888225 66.170778 
L 261.283398 66.664206 
L 262.678572 65.624523 
L 264.073746 63.668464 
L 266.864093 59.399397 
L 268.259266 57.445991 
L 269.65444 54.843918 
L 271.049614 51.541215 
L 272.444787 47.881966 
L 273.839961 44.68265 
L 278.025482 37.984515 
L 279.420656 36.260303 
L 280.815829 36.128364 
L 283.606177 36.819379 
L 285.00135 38.418591 
L 286.396524 41.863873 
L 287.791698 46.662997 
L 290.582045 57.291291 
L 291.977218 61.127916 
L 293.372392 62.846857 
L 294.767566 62.213618 
L 296.162739 59.784533 
L 297.557913 56.752309 
L 298.953087 54.165013 
L 300.34826 53.059974 
L 301.743434 53.979844 
L 304.533781 58.291377 
L 305.928955 59.619505 
L 308.719302 60.400465 
L 310.114476 61.548943 
L 311.50965 63.24281 
L 312.904823 64.384593 
L 314.299997 64.19445 
L 315.69517 62.819617 
L 318.485518 58.927766 
L 319.880691 57.301391 
L 321.275865 55.860093 
L 324.066212 52.617662 
L 325.461386 51.711124 
L 326.85656 51.733053 
L 328.251733 52.253966 
L 329.646907 52.583265 
L 331.042081 52.543171 
L 333.832428 51.771377 
L 335.227602 51.082282 
L 336.622775 48.874285 
L 338.017949 45.606141 
L 339.413122 43.277579 
L 340.808296 43.063195 
L 342.20347 44.522155 
L 343.598643 47.055834 
L 346.388991 53.801434 
L 347.784164 55.582147 
L 349.179338 55.610152 
L 351.969685 54.434093 
L 353.364859 54.056815 
L 354.760033 53.396516 
L 356.155206 52.536204 
L 357.55038 52.184396 
L 358.945553 52.496092 
L 361.735901 53.679948 
L 363.131074 53.894213 
L 364.526248 53.776801 
L 365.921422 53.867143 
L 367.316595 54.43601 
L 368.711769 55.140956 
L 370.106943 55.384552 
L 371.502116 54.699117 
L 372.89729 52.994035 
L 374.292464 51.002355 
L 375.687637 49.794812 
L 377.082811 49.77152 
L 379.873158 51.436525 
L 381.268332 51.334645 
L 382.663505 50.2246 
L 384.058679 48.941149 
L 385.453853 48.494393 
L 386.849026 48.773516 
L 388.2442 48.791346 
L 389.639374 48.480537 
L 391.034547 48.608908 
L 392.429721 48.928261 
L 393.824895 48.105188 
L 395.220068 46.485563 
L 396.615242 45.430573 
L 398.010416 45.39419 
L 399.405589 46.519884 
L 400.800763 48.587709 
L 402.195937 50.872014 
L 403.59111 52.887256 
L 404.986284 54.315129 
L 406.381457 54.512577 
L 409.171805 52.950791 
L 410.566978 52.973146 
L 411.962152 53.697517 
L 414.752499 55.869258 
L 416.147673 56.574302 
L 417.542847 56.700879 
L 418.93802 56.630413 
L 420.333194 56.953288 
L 421.728368 57.489583 
L 423.123541 57.547753 
L 424.518715 56.890014 
L 425.913889 55.871249 
L 427.309062 54.694 
L 428.704236 53.683736 
L 430.099409 53.122385 
L 431.494583 53.013897 
L 432.889757 53.221002 
L 434.28493 53.548958 
L 435.680104 53.496094 
L 437.075278 52.777384 
L 438.470451 51.793694 
L 439.865625 51.324569 
L 441.260799 51.664033 
L 442.655972 52.556422 
L 444.051146 54.135976 
L 445.44632 56.571808 
L 446.841493 58.738859 
L 448.236667 59.604806 
L 449.631841 59.306836 
L 453.817361 56.659671 
L 455.212535 55.659963 
L 456.607709 53.770623 
L 458.002882 51.586566 
L 459.398056 49.726529 
L 462.188403 45.666507 
L 463.583577 44.841041 
L 464.978751 44.62653 
L 466.373924 44.570955 
L 467.769098 44.891974 
L 469.164272 45.52272 
L 470.559445 46.72104 
L 471.954619 48.732024 
L 473.349793 51.763201 
L 476.14014 59.695499 
L 477.535313 62.92389 
L 478.930487 64.990573 
L 480.325661 65.048149 
L 481.720834 63.311453 
L 483.116008 61.311482 
L 484.511182 59.869743 
L 487.301529 57.871106 
L 490.091876 56.111281 
L 491.48705 55.428672 
L 492.882224 54.905417 
L 494.277397 54.52887 
L 497.067745 54.043909 
L 498.462918 52.960004 
L 501.253265 49.427093 
L 502.648439 48.412349 
L 504.043613 48.127899 
L 505.438786 48.378674 
L 508.229134 49.983059 
L 511.019481 51.156471 
L 512.414655 51.412371 
L 515.205002 50.671584 
L 516.600176 50.956744 
L 517.995349 51.876628 
L 519.390523 52.42444 
L 520.785697 52.508888 
L 522.18087 53.47032 
L 523.576044 55.174463 
L 524.971217 56.085499 
L 526.366391 56.039523 
L 527.761565 55.311201 
L 529.156738 54.14035 
L 530.551912 52.439521 
L 531.947086 50.417651 
L 533.342259 49.075303 
L 534.737433 48.90429 
L 536.132607 49.295475 
L 538.922954 49.886094 
L 543.108475 51.854256 
L 548.689169 54.505458 
L 550.084343 54.573888 
L 552.87469 54.181462 
L 554.269864 54.227423 
L 555.665038 54.424169 
L 557.060211 54.400735 
L 558.455385 53.379599 
L 559.850559 51.60813 
L 561.245732 49.621062 
L 562.640906 47.289099 
L 564.03608 45.189025 
L 565.431253 44.481613 
L 566.826427 45.448551 
L 568.2216 47.452127 
L 571.011948 51.962082 
L 575.197469 57.89646 
L 576.592642 58.948651 
L 577.987816 59.1385 
L 579.38299 58.722352 
L 583.568511 56.628712 
L 584.963684 56.085218 
L 587.754032 55.344377 
L 590.544379 54.972832 
L 593.334726 54.849777 
L 597.520247 54.768732 
L 598.915421 54.275638 
L 600.310594 53.355342 
L 601.705768 51.990542 
L 603.100942 50.784538 
L 604.496115 50.375017 
L 605.891289 50.850705 
L 607.286463 51.865722 
L 608.681636 52.640914 
L 610.07681 53.74049 
L 611.471984 56.031973 
L 612.867157 59.388248 
L 614.262331 62.404042 
L 615.657504 63.793334 
L 617.052678 63.445322 
L 618.447852 62.011381 
L 621.238199 58.540606 
L 622.633373 57.208703 
L 624.028546 57.001952 
L 626.818894 59.402164 
L 628.214067 59.638034 
L 629.609241 58.941903 
L 632.399588 56.743914 
L 633.794762 55.883824 
L 635.189936 55.28167 
L 636.585109 54.891453 
L 639.375456 54.523658 
L 642.165804 54.467744 
L 647.746498 54.717502 
L 654.722367 54.970304 
L 658.907888 55.021063 
L 660.303061 54.806729 
L 661.698235 53.820083 
L 663.093408 52.451306 
L 664.488582 51.558934 
L 665.883756 51.461809 
L 667.278929 51.952663 
L 670.069277 53.464935 
L 671.46445 53.175487 
L 672.859624 51.509124 
L 674.254798 49.079359 
L 675.649971 47.499687 
L 677.045145 47.942213 
L 678.440319 49.826096 
L 679.835492 51.420506 
L 681.230666 52.143112 
L 682.62584 52.675118 
L 684.021013 53.333633 
L 685.416187 54.234063 
L 688.206534 56.590134 
L 689.601708 57.181935 
L 690.996881 57.231614 
L 692.392055 56.952687 
L 696.577576 55.834873 
L 699.367923 55.388223 
L 700.763097 55.328227 
L 702.158271 55.139819 
L 706.343791 53.6669 
L 707.738965 52.141355 
L 709.134139 50.396685 
L 710.529312 49.875682 
L 711.924486 50.852487 
L 713.31966 52.663455 
L 714.714833 54.14497 
L 716.110007 54.638955 
L 717.505181 54.248546 
L 718.900354 53.601653 
L 720.295528 53.806834 
L 721.690702 54.908085 
L 723.085875 56.186732 
L 724.481049 56.663888 
L 725.876223 54.913692 
L 727.271396 51.622497 
L 728.66657 48.978703 
L 730.061743 48.043073 
L 731.456917 48.186701 
L 732.852091 48.444248 
L 734.247264 48.394661 
L 735.642438 48.110384 
L 737.037612 48.054357 
L 738.432785 48.863526 
L 739.827959 50.74861 
L 741.223133 53.069457 
L 742.618306 54.164552 
L 744.01348 51.785596 
L 746.803827 41.59286 
L 748.199001 37.947493 
L 749.594175 37.41382 
L 750.989348 40.766797 
L 753.779695 52.743849 
L 755.174869 55.721618 
L 757.965216 57.415904 
L 759.36039 58.966448 
L 760.755564 61.041176 
L 762.150737 62.800286 
L 763.545911 63.700079 
L 764.941085 64.035994 
L 766.336258 64.990122 
L 767.731432 66.437447 
L 769.126606 66.855636 
L 770.521779 65.688885 
L 771.916953 63.323714 
L 773.312127 60.521639 
L 774.7073 58.078962 
L 776.102474 56.214644 
L 777.497647 54.892921 
L 778.892821 54.031178 
L 781.683168 51.912685 
L 783.078342 51.642058 
L 787.263863 52.620057 
L 791.449384 53.038105 
L 792.844558 52.505731 
L 794.239731 51.778083 
L 795.634905 51.487365 
L 797.030079 51.783161 
L 802.610773 54.466521 
L 804.005947 54.853056 
L 806.796294 55.273852 
L 809.586641 55.399611 
L 812.376989 55.366201 
L 812.376989 55.366201 
" style="fill:none;stroke:#1f77b4;stroke-linecap:square;stroke-width:1.5;"/>
   </g>
   <g id="patch_3">
    <path d="M 30.103125 68.392 
L 30.103125 34.592 
" style="fill:none;stroke:#000000;stroke-linecap:square;stroke-linejoin:miter;stroke-width:0.8;"/>
   </g>
   <g id="patch_4">
    <path d="M 30.103125 68.392 
L 849.628125 68.392 
" style="fill:none;stroke:#000000;stroke-linecap:square;stroke-linejoin:miter;stroke-width:0.8;"/>
   </g>
   <g id="text_9">
    <!-- Budapest_movie -->
    <defs>
     <path d="M 19.671875 34.8125 
L 19.671875 8.109375 
L 35.5 8.109375 
Q 43.453125 8.109375 47.28125 11.40625 
Q 51.125 14.703125 51.125 21.484375 
Q 51.125 28.328125 47.28125 31.5625 
Q 43.453125 34.8125 35.5 34.8125 
z
M 19.671875 64.796875 
L 19.671875 42.828125 
L 34.28125 42.828125 
Q 41.5 42.828125 45.03125 45.53125 
Q 48.578125 48.25 48.578125 53.8125 
Q 48.578125 59.328125 45.03125 62.0625 
Q 41.5 64.796875 34.28125 64.796875 
z
M 9.8125 72.90625 
L 35.015625 72.90625 
Q 46.296875 72.90625 52.390625 68.21875 
Q 58.5 63.53125 58.5 54.890625 
Q 58.5 48.1875 55.375 44.234375 
Q 52.25 40.28125 46.1875 39.3125 
Q 53.46875 37.75 57.5 32.78125 
Q 61.53125 27.828125 61.53125 20.40625 
Q 61.53125 10.640625 54.890625 5.3125 
Q 48.25 0 35.984375 0 
L 9.8125 0 
z
" id="DejaVuSans-66"/>
     <path d="M 8.5 21.578125 
L 8.5 54.6875 
L 17.484375 54.6875 
L 17.484375 21.921875 
Q 17.484375 14.15625 20.5 10.265625 
Q 23.53125 6.390625 29.59375 6.390625 
Q 36.859375 6.390625 41.078125 11.03125 
Q 45.3125 15.671875 45.3125 23.6875 
L 45.3125 54.6875 
L 54.296875 54.6875 
L 54.296875 0 
L 45.3125 0 
L 45.3125 8.40625 
Q 42.046875 3.421875 37.71875 1 
Q 33.40625 -1.421875 27.6875 -1.421875 
Q 18.265625 -1.421875 13.375 4.4375 
Q 8.5 10.296875 8.5 21.578125 
z
M 31.109375 56 
z
" id="DejaVuSans-117"/>
     <path d="M 45.40625 46.390625 
L 45.40625 75.984375 
L 54.390625 75.984375 
L 54.390625 0 
L 45.40625 0 
L 45.40625 8.203125 
Q 42.578125 3.328125 38.25 0.953125 
Q 33.9375 -1.421875 27.875 -1.421875 
Q 17.96875 -1.421875 11.734375 6.484375 
Q 5.515625 14.40625 5.515625 27.296875 
Q 5.515625 40.1875 11.734375 48.09375 
Q 17.96875 56 27.875 56 
Q 33.9375 56 38.25 53.625 
Q 42.578125 51.265625 45.40625 46.390625 
z
M 14.796875 27.296875 
Q 14.796875 17.390625 18.875 11.75 
Q 22.953125 6.109375 30.078125 6.109375 
Q 37.203125 6.109375 41.296875 11.75 
Q 45.40625 17.390625 45.40625 27.296875 
Q 45.40625 37.203125 41.296875 42.84375 
Q 37.203125 48.484375 30.078125 48.484375 
Q 22.953125 48.484375 18.875 42.84375 
Q 14.796875 37.203125 14.796875 27.296875 
z
" id="DejaVuSans-100"/>
     <path d="M 34.28125 27.484375 
Q 23.390625 27.484375 19.1875 25 
Q 14.984375 22.515625 14.984375 16.5 
Q 14.984375 11.71875 18.140625 8.90625 
Q 21.296875 6.109375 26.703125 6.109375 
Q 34.1875 6.109375 38.703125 11.40625 
Q 43.21875 16.703125 43.21875 25.484375 
L 43.21875 27.484375 
z
M 52.203125 31.203125 
L 52.203125 0 
L 43.21875 0 
L 43.21875 8.296875 
Q 40.140625 3.328125 35.546875 0.953125 
Q 30.953125 -1.421875 24.3125 -1.421875 
Q 15.921875 -1.421875 10.953125 3.296875 
Q 6 8.015625 6 15.921875 
Q 6 25.140625 12.171875 29.828125 
Q 18.359375 34.515625 30.609375 34.515625 
L 43.21875 34.515625 
L 43.21875 35.40625 
Q 43.21875 41.609375 39.140625 45 
Q 35.0625 48.390625 27.6875 48.390625 
Q 23 48.390625 18.546875 47.265625 
Q 14.109375 46.140625 10.015625 43.890625 
L 10.015625 52.203125 
Q 14.9375 54.109375 19.578125 55.046875 
Q 24.21875 56 28.609375 56 
Q 40.484375 56 46.34375 49.84375 
Q 52.203125 43.703125 52.203125 31.203125 
z
" id="DejaVuSans-97"/>
     <path d="M 18.109375 8.203125 
L 18.109375 -20.796875 
L 9.078125 -20.796875 
L 9.078125 54.6875 
L 18.109375 54.6875 
L 18.109375 46.390625 
Q 20.953125 51.265625 25.265625 53.625 
Q 29.59375 56 35.59375 56 
Q 45.5625 56 51.78125 48.09375 
Q 58.015625 40.1875 58.015625 27.296875 
Q 58.015625 14.40625 51.78125 6.484375 
Q 45.5625 -1.421875 35.59375 -1.421875 
Q 29.59375 -1.421875 25.265625 0.953125 
Q 20.953125 3.328125 18.109375 8.203125 
z
M 48.6875 27.296875 
Q 48.6875 37.203125 44.609375 42.84375 
Q 40.53125 48.484375 33.40625 48.484375 
Q 26.265625 48.484375 22.1875 42.84375 
Q 18.109375 37.203125 18.109375 27.296875 
Q 18.109375 17.390625 22.1875 11.75 
Q 26.265625 6.109375 33.40625 6.109375 
Q 40.53125 6.109375 44.609375 11.75 
Q 48.6875 17.390625 48.6875 27.296875 
z
" id="DejaVuSans-112"/>
     <path d="M 56.203125 29.59375 
L 56.203125 25.203125 
L 14.890625 25.203125 
Q 15.484375 15.921875 20.484375 11.0625 
Q 25.484375 6.203125 34.421875 6.203125 
Q 39.59375 6.203125 44.453125 7.46875 
Q 49.3125 8.734375 54.109375 11.28125 
L 54.109375 2.78125 
Q 49.265625 0.734375 44.1875 -0.34375 
Q 39.109375 -1.421875 33.890625 -1.421875 
Q 20.796875 -1.421875 13.15625 6.1875 
Q 5.515625 13.8125 5.515625 26.8125 
Q 5.515625 40.234375 12.765625 48.109375 
Q 20.015625 56 32.328125 56 
Q 43.359375 56 49.78125 48.890625 
Q 56.203125 41.796875 56.203125 29.59375 
z
M 47.21875 32.234375 
Q 47.125 39.59375 43.09375 43.984375 
Q 39.0625 48.390625 32.421875 48.390625 
Q 24.90625 48.390625 20.390625 44.140625 
Q 15.875 39.890625 15.1875 32.171875 
z
" id="DejaVuSans-101"/>
     <path d="M 44.28125 53.078125 
L 44.28125 44.578125 
Q 40.484375 46.53125 36.375 47.5 
Q 32.28125 48.484375 27.875 48.484375 
Q 21.1875 48.484375 17.84375 46.4375 
Q 14.5 44.390625 14.5 40.28125 
Q 14.5 37.15625 16.890625 35.375 
Q 19.28125 33.59375 26.515625 31.984375 
L 29.59375 31.296875 
Q 39.15625 29.25 43.1875 25.515625 
Q 47.21875 21.78125 47.21875 15.09375 
Q 47.21875 7.46875 41.1875 3.015625 
Q 35.15625 -1.421875 24.609375 -1.421875 
Q 20.21875 -1.421875 15.453125 -0.5625 
Q 10.6875 0.296875 5.421875 2 
L 5.421875 11.28125 
Q 10.40625 8.6875 15.234375 7.390625 
Q 20.0625 6.109375 24.8125 6.109375 
Q 31.15625 6.109375 34.5625 8.28125 
Q 37.984375 10.453125 37.984375 14.40625 
Q 37.984375 18.0625 35.515625 20.015625 
Q 33.0625 21.96875 24.703125 23.78125 
L 21.578125 24.515625 
Q 13.234375 26.265625 9.515625 29.90625 
Q 5.8125 33.546875 5.8125 39.890625 
Q 5.8125 47.609375 11.28125 51.796875 
Q 16.75 56 26.8125 56 
Q 31.78125 56 36.171875 55.265625 
Q 40.578125 54.546875 44.28125 53.078125 
z
" id="DejaVuSans-115"/>
     <path d="M 18.3125 70.21875 
L 18.3125 54.6875 
L 36.8125 54.6875 
L 36.8125 47.703125 
L 18.3125 47.703125 
L 18.3125 18.015625 
Q 18.3125 11.328125 20.140625 9.421875 
Q 21.96875 7.515625 27.59375 7.515625 
L 36.8125 7.515625 
L 36.8125 0 
L 27.59375 0 
Q 17.1875 0 13.234375 3.875 
Q 9.28125 7.765625 9.28125 18.015625 
L 9.28125 47.703125 
L 2.6875 47.703125 
L 2.6875 54.6875 
L 9.28125 54.6875 
L 9.28125 70.21875 
z
" id="DejaVuSans-116"/>
     <path d="M 50.984375 -16.609375 
L 50.984375 -23.578125 
L -0.984375 -23.578125 
L -0.984375 -16.609375 
z
" id="DejaVuSans-95"/>
     <path d="M 52 44.1875 
Q 55.375 50.25 60.0625 53.125 
Q 64.75 56 71.09375 56 
Q 79.640625 56 84.28125 50.015625 
Q 88.921875 44.046875 88.921875 33.015625 
L 88.921875 0 
L 79.890625 0 
L 79.890625 32.71875 
Q 79.890625 40.578125 77.09375 44.375 
Q 74.3125 48.1875 68.609375 48.1875 
Q 61.625 48.1875 57.5625 43.546875 
Q 53.515625 38.921875 53.515625 30.90625 
L 53.515625 0 
L 44.484375 0 
L 44.484375 32.71875 
Q 44.484375 40.625 41.703125 44.40625 
Q 38.921875 48.1875 33.109375 48.1875 
Q 26.21875 48.1875 22.15625 43.53125 
Q 18.109375 38.875 18.109375 30.90625 
L 18.109375 0 
L 9.078125 0 
L 9.078125 54.6875 
L 18.109375 54.6875 
L 18.109375 46.1875 
Q 21.1875 51.21875 25.484375 53.609375 
Q 29.78125 56 35.6875 56 
Q 41.65625 56 45.828125 52.96875 
Q 50 49.953125 52 44.1875 
z
" id="DejaVuSans-109"/>
     <path d="M 30.609375 48.390625 
Q 23.390625 48.390625 19.1875 42.75 
Q 14.984375 37.109375 14.984375 27.296875 
Q 14.984375 17.484375 19.15625 11.84375 
Q 23.34375 6.203125 30.609375 6.203125 
Q 37.796875 6.203125 41.984375 11.859375 
Q 46.1875 17.53125 46.1875 27.296875 
Q 46.1875 37.015625 41.984375 42.703125 
Q 37.796875 48.390625 30.609375 48.390625 
z
M 30.609375 56 
Q 42.328125 56 49.015625 48.375 
Q 55.71875 40.765625 55.71875 27.296875 
Q 55.71875 13.875 49.015625 6.21875 
Q 42.328125 -1.421875 30.609375 -1.421875 
Q 18.84375 -1.421875 12.171875 6.21875 
Q 5.515625 13.875 5.515625 27.296875 
Q 5.515625 40.765625 12.171875 48.375 
Q 18.84375 56 30.609375 56 
z
" id="DejaVuSans-111"/>
     <path d="M 2.984375 54.6875 
L 12.5 54.6875 
L 29.59375 8.796875 
L 46.6875 54.6875 
L 56.203125 54.6875 
L 35.6875 0 
L 23.484375 0 
z
" id="DejaVuSans-118"/>
     <path d="M 9.421875 54.6875 
L 18.40625 54.6875 
L 18.40625 0 
L 9.421875 0 
z
M 9.421875 75.984375 
L 18.40625 75.984375 
L 18.40625 64.59375 
L 9.421875 64.59375 
z
" id="DejaVuSans-105"/>
    </defs>
    <g transform="translate(398.357813 28.592)scale(0.1 -0.1)">
     <use xlink:href="#DejaVuSans-66"/>
     <use x="68.603516" xlink:href="#DejaVuSans-117"/>
     <use x="131.982422" xlink:href="#DejaVuSans-100"/>
     <use x="195.458984" xlink:href="#DejaVuSans-97"/>
     <use x="256.738281" xlink:href="#DejaVuSans-112"/>
     <use x="320.214844" xlink:href="#DejaVuSans-101"/>
     <use x="381.738281" xlink:href="#DejaVuSans-115"/>
     <use x="433.837891" xlink:href="#DejaVuSans-116"/>
     <use x="473.046875" xlink:href="#DejaVuSans-95"/>
     <use x="523.046875" xlink:href="#DejaVuSans-109"/>
     <use x="620.458984" xlink:href="#DejaVuSans-111"/>
     <use x="681.640625" xlink:href="#DejaVuSans-118"/>
     <use x="740.820312" xlink:href="#DejaVuSans-105"/>
     <use x="768.603516" xlink:href="#DejaVuSans-101"/>
    </g>
   </g>
  </g>
  <g id="text_10">
   <!-- lancastersensorimotornorms_Visual.mean [model: lancastersensorimotornorms_Visual.mean] -->
   <defs>
    <path d="M 9.421875 75.984375 
L 18.40625 75.984375 
L 18.40625 0 
L 9.421875 0 
z
" id="DejaVuSans-108"/>
    <path d="M 54.890625 33.015625 
L 54.890625 0 
L 45.90625 0 
L 45.90625 32.71875 
Q 45.90625 40.484375 42.875 44.328125 
Q 39.84375 48.1875 33.796875 48.1875 
Q 26.515625 48.1875 22.3125 43.546875 
Q 18.109375 38.921875 18.109375 30.90625 
L 18.109375 0 
L 9.078125 0 
L 9.078125 54.6875 
L 18.109375 54.6875 
L 18.109375 46.1875 
Q 21.34375 51.125 25.703125 53.5625 
Q 30.078125 56 35.796875 56 
Q 45.21875 56 50.046875 50.171875 
Q 54.890625 44.34375 54.890625 33.015625 
z
" id="DejaVuSans-110"/>
    <path d="M 48.78125 52.59375 
L 48.78125 44.1875 
Q 44.96875 46.296875 41.140625 47.34375 
Q 37.3125 48.390625 33.40625 48.390625 
Q 24.65625 48.390625 19.8125 42.84375 
Q 14.984375 37.3125 14.984375 27.296875 
Q 14.984375 17.28125 19.8125 11.734375 
Q 24.65625 6.203125 33.40625 6.203125 
Q 37.3125 6.203125 41.140625 7.25 
Q 44.96875 8.296875 48.78125 10.40625 
L 48.78125 2.09375 
Q 45.015625 0.34375 40.984375 -0.53125 
Q 36.96875 -1.421875 32.421875 -1.421875 
Q 20.0625 -1.421875 12.78125 6.34375 
Q 5.515625 14.109375 5.515625 27.296875 
Q 5.515625 40.671875 12.859375 48.328125 
Q 20.21875 56 33.015625 56 
Q 37.15625 56 41.109375 55.140625 
Q 45.0625 54.296875 48.78125 52.59375 
z
" id="DejaVuSans-99"/>
    <path d="M 41.109375 46.296875 
Q 39.59375 47.171875 37.8125 47.578125 
Q 36.03125 48 33.890625 48 
Q 26.265625 48 22.1875 43.046875 
Q 18.109375 38.09375 18.109375 28.8125 
L 18.109375 0 
L 9.078125 0 
L 9.078125 54.6875 
L 18.109375 54.6875 
L 18.109375 46.1875 
Q 20.953125 51.171875 25.484375 53.578125 
Q 30.03125 56 36.53125 56 
Q 37.453125 56 38.578125 55.875 
Q 39.703125 55.765625 41.0625 55.515625 
z
" id="DejaVuSans-114"/>
    <path d="M 28.609375 0 
L 0.78125 72.90625 
L 11.078125 72.90625 
L 34.1875 11.53125 
L 57.328125 72.90625 
L 67.578125 72.90625 
L 39.796875 0 
z
" id="DejaVuSans-86"/>
    <path id="DejaVuSans-32"/>
    <path d="M 8.59375 75.984375 
L 29.296875 75.984375 
L 29.296875 69 
L 17.578125 69 
L 17.578125 -6.203125 
L 29.296875 -6.203125 
L 29.296875 -13.1875 
L 8.59375 -13.1875 
z
" id="DejaVuSans-91"/>
    <path d="M 11.71875 12.40625 
L 22.015625 12.40625 
L 22.015625 0 
L 11.71875 0 
z
M 11.71875 51.703125 
L 22.015625 51.703125 
L 22.015625 39.3125 
L 11.71875 39.3125 
z
" id="DejaVuSans-58"/>
    <path d="M 30.421875 75.984375 
L 30.421875 -13.1875 
L 9.71875 -13.1875 
L 9.71875 -6.203125 
L 21.390625 -6.203125 
L 21.390625 69 
L 9.71875 69 
L 9.71875 75.984375 
z
" id="DejaVuSans-93"/>
   </defs>
   <g transform="translate(147.537188 16.318125)scale(0.12 -0.12)">
    <use xlink:href="#DejaVuSans-108"/>
    <use x="27.783203" xlink:href="#DejaVuSans-97"/>
    <use x="89.0625" xlink:href="#DejaVuSans-110"/>
    <use x="152.441406" xlink:href="#DejaVuSans-99"/>
    <use x="207.421875" xlink:href="#DejaVuSans-97"/>
    <use x="268.701172" xlink:href="#DejaVuSans-115"/>
    <use x="320.800781" xlink:href="#DejaVuSans-116"/>
    <use x="360.009766" xlink:href="#DejaVuSans-101"/>
    <use x="421.533203" xlink:href="#DejaVuSans-114"/>
    <use x="462.646484" xlink:href="#DejaVuSans-115"/>
    <use x="514.746094" xlink:href="#DejaVuSans-101"/>
    <use x="576.269531" xlink:href="#DejaVuSans-110"/>
    <use x="639.648438" xlink:href="#DejaVuSans-115"/>
    <use x="691.748047" xlink:href="#DejaVuSans-111"/>
    <use x="752.929688" xlink:href="#DejaVuSans-114"/>
    <use x="794.042969" xlink:href="#DejaVuSans-105"/>
    <use x="821.826172" xlink:href="#DejaVuSans-109"/>
    <use x="919.238281" xlink:href="#DejaVuSans-111"/>
    <use x="980.419922" xlink:href="#DejaVuSans-116"/>
    <use x="1019.628906" xlink:href="#DejaVuSans-111"/>
    <use x="1080.810547" xlink:href="#DejaVuSans-114"/>
    <use x="1120.173828" xlink:href="#DejaVuSans-110"/>
    <use x="1183.552734" xlink:href="#DejaVuSans-111"/>
    <use x="1244.734375" xlink:href="#DejaVuSans-114"/>
    <use x="1284.097656" xlink:href="#DejaVuSans-109"/>
    <use x="1381.509766" xlink:href="#DejaVuSans-115"/>
    <use x="1433.609375" xlink:href="#DejaVuSans-95"/>
    <use x="1483.609375" xlink:href="#DejaVuSans-86"/>
    <use x="1549.767578" xlink:href="#DejaVuSans-105"/>
    <use x="1577.550781" xlink:href="#DejaVuSans-115"/>
    <use x="1629.650391" xlink:href="#DejaVuSans-117"/>
    <use x="1693.029297" xlink:href="#DejaVuSans-97"/>
    <use x="1754.308594" xlink:href="#DejaVuSans-108"/>
    <use x="1782.091797" xlink:href="#DejaVuSans-46"/>
    <use x="1813.878906" xlink:href="#DejaVuSans-109"/>
    <use x="1911.291016" xlink:href="#DejaVuSans-101"/>
    <use x="1972.814453" xlink:href="#DejaVuSans-97"/>
    <use x="2034.09375" xlink:href="#DejaVuSans-110"/>
    <use x="2097.472656" xlink:href="#DejaVuSans-32"/>
    <use x="2129.259766" xlink:href="#DejaVuSans-91"/>
    <use x="2168.273438" xlink:href="#DejaVuSans-109"/>
    <use x="2265.685547" xlink:href="#DejaVuSans-111"/>
    <use x="2326.867188" xlink:href="#DejaVuSans-100"/>
    <use x="2390.34375" xlink:href="#DejaVuSans-101"/>
    <use x="2451.867188" xlink:href="#DejaVuSans-108"/>
    <use x="2479.650391" xlink:href="#DejaVuSans-58"/>
    <use x="2513.341797" xlink:href="#DejaVuSans-32"/>
    <use x="2545.128906" xlink:href="#DejaVuSans-108"/>
    <use x="2572.912109" xlink:href="#DejaVuSans-97"/>
    <use x="2634.191406" xlink:href="#DejaVuSans-110"/>
    <use x="2697.570312" xlink:href="#DejaVuSans-99"/>
    <use x="2752.550781" xlink:href="#DejaVuSans-97"/>
    <use x="2813.830078" xlink:href="#DejaVuSans-115"/>
    <use x="2865.929688" xlink:href="#DejaVuSans-116"/>
    <use x="2905.138672" xlink:href="#DejaVuSans-101"/>
    <use x="2966.662109" xlink:href="#DejaVuSans-114"/>
    <use x="3007.775391" xlink:href="#DejaVuSans-115"/>
    <use x="3059.875" xlink:href="#DejaVuSans-101"/>
    <use x="3121.398438" xlink:href="#DejaVuSans-110"/>
    <use x="3184.777344" xlink:href="#DejaVuSans-115"/>
    <use x="3236.876953" xlink:href="#DejaVuSans-111"/>
    <use x="3298.058594" xlink:href="#DejaVuSans-114"/>
    <use x="3339.171875" xlink:href="#DejaVuSans-105"/>
    <use x="3366.955078" xlink:href="#DejaVuSans-109"/>
    <use x="3464.367188" xlink:href="#DejaVuSans-111"/>
    <use x="3525.548828" xlink:href="#DejaVuSans-116"/>
    <use x="3564.757812" xlink:href="#DejaVuSans-111"/>
    <use x="3625.939453" xlink:href="#DejaVuSans-114"/>
    <use x="3665.302734" xlink:href="#DejaVuSans-110"/>
    <use x="3728.681641" xlink:href="#DejaVuSans-111"/>
    <use x="3789.863281" xlink:href="#DejaVuSans-114"/>
    <use x="3829.226562" xlink:href="#DejaVuSans-109"/>
    <use x="3926.638672" xlink:href="#DejaVuSans-115"/>
    <use x="3978.738281" xlink:href="#DejaVuSans-95"/>
    <use x="4028.738281" xlink:href="#DejaVuSans-86"/>
    <use x="4094.896484" xlink:href="#DejaVuSans-105"/>
    <use x="4122.679688" xlink:href="#DejaVuSans-115"/>
    <use x="4174.779297" xlink:href="#DejaVuSans-117"/>
    <use x="4238.158203" xlink:href="#DejaVuSans-97"/>
    <use x="4299.4375" xlink:href="#DejaVuSans-108"/>
    <use x="4327.220703" xlink:href="#DejaVuSans-46"/>
    <use x="4359.007812" xlink:href="#DejaVuSans-109"/>
    <use x="4456.419922" xlink:href="#DejaVuSans-101"/>
    <use x="4517.943359" xlink:href="#DejaVuSans-97"/>
    <use x="4579.222656" xlink:href="#DejaVuSans-110"/>
    <use x="4642.601562" xlink:href="#DejaVuSans-93"/>
   </g>
  </g>
 </g>
 <defs>
  <clipPath id="pcc1d97eb71">
   <rect height="33.8" width="819.525" x="30.103125" y="34.592"/>
  </clipPath>
 </defs>
</svg>
