<?xml version="1.0" encoding="utf-8" standalone="no"?>
<!DOCTYPE svg PUBLIC "-//W3C//DTD SVG 1.1//EN"
  "http://www.w3.org/Graphics/SVG/1.1/DTD/svg11.dtd">
<!-- Created with matplotlib (https://matplotlib.org/) -->
<svg height="225.43625pt" version="1.1" viewBox="0 0 760.907282 225.43625" width="760.907282pt" xmlns="http://www.w3.org/2000/svg" xmlns:xlink="http://www.w3.org/1999/xlink">
 <defs>
  <style type="text/css">
*{stroke-linecap:butt;stroke-linejoin:round;}
  </style>
 </defs>
 <g id="figure_1">
  <g id="patch_1">
   <path d="M 0 225.43625 
L 760.907282 225.43625 
L 760.907282 0 
L 0 0 
z
" style="fill:none;"/>
  </g>
  <g id="axes_1">
   <g id="patch_2">
    <path d="M 20.5625 187.88 
L 632.289782 187.88 
L 632.289782 24.48 
L 20.5625 24.48 
z
" style="fill:#ffffff;"/>
   </g>
   <g id="matplotlib.axis_1">
    <g id="xtick_1">
     <g id="line2d_1">
      <defs>
       <path d="M 0 0 
L 0 3.5 
" id="meba10c22ee" style="stroke:#000000;stroke-width:0.8;"/>
      </defs>
      <g>
       <use style="stroke:#000000;stroke-width:0.8;" x="28.179098" xlink:href="#meba10c22ee" y="187.88"/>
      </g>
     </g>
     <g id="text_1">
      <!-- −0.6 -->
      <defs>
       <path d="M 10.59375 35.5 
L 73.1875 35.5 
L 73.1875 27.203125 
L 10.59375 27.203125 
z
" id="DejaVuSans-8722"/>
       <path d="M 31.78125 66.40625 
Q 24.171875 66.40625 20.328125 58.90625 
Q 16.5 51.421875 16.5 36.375 
Q 16.5 21.390625 20.328125 13.890625 
Q 24.171875 6.390625 31.78125 6.390625 
Q 39.453125 6.390625 43.28125 13.890625 
Q 47.125 21.390625 47.125 36.375 
Q 47.125 51.421875 43.28125 58.90625 
Q 39.453125 66.40625 31.78125 66.40625 
z
M 31.78125 74.21875 
Q 44.046875 74.21875 50.515625 64.515625 
Q 56.984375 54.828125 56.984375 36.375 
Q 56.984375 17.96875 50.515625 8.265625 
Q 44.046875 -1.421875 31.78125 -1.421875 
Q 19.53125 -1.421875 13.0625 8.265625 
Q 6.59375 17.96875 6.59375 36.375 
Q 6.59375 54.828125 13.0625 64.515625 
Q 19.53125 74.21875 31.78125 74.21875 
z
" id="DejaVuSans-48"/>
       <path d="M 10.6875 12.40625 
L 21 12.40625 
L 21 0 
L 10.6875 0 
z
" id="DejaVuSans-46"/>
       <path d="M 33.015625 40.375 
Q 26.375 40.375 22.484375 35.828125 
Q 18.609375 31.296875 18.609375 23.390625 
Q 18.609375 15.53125 22.484375 10.953125 
Q 26.375 6.390625 33.015625 6.390625 
Q 39.65625 6.390625 43.53125 10.953125 
Q 47.40625 15.53125 47.40625 23.390625 
Q 47.40625 31.296875 43.53125 35.828125 
Q 39.65625 40.375 33.015625 40.375 
z
M 52.59375 71.296875 
L 52.59375 62.3125 
Q 48.875 64.0625 45.09375 64.984375 
Q 41.3125 65.921875 37.59375 65.921875 
Q 27.828125 65.921875 22.671875 59.328125 
Q 17.53125 52.734375 16.796875 39.40625 
Q 19.671875 43.65625 24.015625 45.921875 
Q 28.375 48.1875 33.59375 48.1875 
Q 44.578125 48.1875 50.953125 41.515625 
Q 57.328125 34.859375 57.328125 23.390625 
Q 57.328125 12.15625 50.6875 5.359375 
Q 44.046875 -1.421875 33.015625 -1.421875 
Q 20.359375 -1.421875 13.671875 8.265625 
Q 6.984375 17.96875 6.984375 36.375 
Q 6.984375 53.65625 15.1875 63.9375 
Q 23.390625 74.21875 37.203125 74.21875 
Q 40.921875 74.21875 44.703125 73.484375 
Q 48.484375 72.75 52.59375 71.296875 
z
" id="DejaVuSans-54"/>
      </defs>
      <g transform="translate(16.037692 202.478438)scale(0.1 -0.1)">
       <use xlink:href="#DejaVuSans-8722"/>
       <use x="83.789062" xlink:href="#DejaVuSans-48"/>
       <use x="147.412109" xlink:href="#DejaVuSans-46"/>
       <use x="179.199219" xlink:href="#DejaVuSans-54"/>
      </g>
     </g>
    </g>
    <g id="xtick_2">
     <g id="line2d_2">
      <g>
       <use style="stroke:#000000;stroke-width:0.8;" x="127.055101" xlink:href="#meba10c22ee" y="187.88"/>
      </g>
     </g>
     <g id="text_2">
      <!-- −0.4 -->
      <defs>
       <path d="M 37.796875 64.3125 
L 12.890625 25.390625 
L 37.796875 25.390625 
z
M 35.203125 72.90625 
L 47.609375 72.90625 
L 47.609375 25.390625 
L 58.015625 25.390625 
L 58.015625 17.1875 
L 47.609375 17.1875 
L 47.609375 0 
L 37.796875 0 
L 37.796875 17.1875 
L 4.890625 17.1875 
L 4.890625 26.703125 
z
" id="DejaVuSans-52"/>
      </defs>
      <g transform="translate(114.913695 202.478438)scale(0.1 -0.1)">
       <use xlink:href="#DejaVuSans-8722"/>
       <use x="83.789062" xlink:href="#DejaVuSans-48"/>
       <use x="147.412109" xlink:href="#DejaVuSans-46"/>
       <use x="179.199219" xlink:href="#DejaVuSans-52"/>
      </g>
     </g>
    </g>
    <g id="xtick_3">
     <g id="line2d_3">
      <g>
       <use style="stroke:#000000;stroke-width:0.8;" x="225.931103" xlink:href="#meba10c22ee" y="187.88"/>
      </g>
     </g>
     <g id="text_3">
      <!-- −0.2 -->
      <defs>
       <path d="M 19.1875 8.296875 
L 53.609375 8.296875 
L 53.609375 0 
L 7.328125 0 
L 7.328125 8.296875 
Q 12.9375 14.109375 22.625 23.890625 
Q 32.328125 33.6875 34.8125 36.53125 
Q 39.546875 41.84375 41.421875 45.53125 
Q 43.3125 49.21875 43.3125 52.78125 
Q 43.3125 58.59375 39.234375 62.25 
Q 35.15625 65.921875 28.609375 65.921875 
Q 23.96875 65.921875 18.8125 64.3125 
Q 13.671875 62.703125 7.8125 59.421875 
L 7.8125 69.390625 
Q 13.765625 71.78125 18.9375 73 
Q 24.125 74.21875 28.421875 74.21875 
Q 39.75 74.21875 46.484375 68.546875 
Q 53.21875 62.890625 53.21875 53.421875 
Q 53.21875 48.921875 51.53125 44.890625 
Q 49.859375 40.875 45.40625 35.40625 
Q 44.1875 33.984375 37.640625 27.21875 
Q 31.109375 20.453125 19.1875 8.296875 
z
" id="DejaVuSans-50"/>
      </defs>
      <g transform="translate(213.789697 202.478438)scale(0.1 -0.1)">
       <use xlink:href="#DejaVuSans-8722"/>
       <use x="83.789062" xlink:href="#DejaVuSans-48"/>
       <use x="147.412109" xlink:href="#DejaVuSans-46"/>
       <use x="179.199219" xlink:href="#DejaVuSans-50"/>
      </g>
     </g>
    </g>
    <g id="xtick_4">
     <g id="line2d_4">
      <g>
       <use style="stroke:#000000;stroke-width:0.8;" x="324.807106" xlink:href="#meba10c22ee" y="187.88"/>
      </g>
     </g>
     <g id="text_4">
      <!-- 0.0 -->
      <g transform="translate(316.855543 202.478438)scale(0.1 -0.1)">
       <use xlink:href="#DejaVuSans-48"/>
       <use x="63.623047" xlink:href="#DejaVuSans-46"/>
       <use x="95.410156" xlink:href="#DejaVuSans-48"/>
      </g>
     </g>
    </g>
    <g id="xtick_5">
     <g id="line2d_5">
      <g>
       <use style="stroke:#000000;stroke-width:0.8;" x="423.683108" xlink:href="#meba10c22ee" y="187.88"/>
      </g>
     </g>
     <g id="text_5">
      <!-- 0.2 -->
      <g transform="translate(415.731546 202.478438)scale(0.1 -0.1)">
       <use xlink:href="#DejaVuSans-48"/>
       <use x="63.623047" xlink:href="#DejaVuSans-46"/>
       <use x="95.410156" xlink:href="#DejaVuSans-50"/>
      </g>
     </g>
    </g>
    <g id="xtick_6">
     <g id="line2d_6">
      <g>
       <use style="stroke:#000000;stroke-width:0.8;" x="522.559111" xlink:href="#meba10c22ee" y="187.88"/>
      </g>
     </g>
     <g id="text_6">
      <!-- 0.4 -->
      <g transform="translate(514.607548 202.478438)scale(0.1 -0.1)">
       <use xlink:href="#DejaVuSans-48"/>
       <use x="63.623047" xlink:href="#DejaVuSans-46"/>
       <use x="95.410156" xlink:href="#DejaVuSans-52"/>
      </g>
     </g>
    </g>
    <g id="xtick_7">
     <g id="line2d_7">
      <g>
       <use style="stroke:#000000;stroke-width:0.8;" x="621.435113" xlink:href="#meba10c22ee" y="187.88"/>
      </g>
     </g>
     <g id="text_7">
      <!-- 0.6 -->
      <g transform="translate(613.483551 202.478438)scale(0.1 -0.1)">
       <use xlink:href="#DejaVuSans-48"/>
       <use x="63.623047" xlink:href="#DejaVuSans-46"/>
       <use x="95.410156" xlink:href="#DejaVuSans-54"/>
      </g>
     </g>
    </g>
    <g id="text_8">
     <!-- values -->
     <defs>
      <path d="M 2.984375 54.6875 
L 12.5 54.6875 
L 29.59375 8.796875 
L 46.6875 54.6875 
L 56.203125 54.6875 
L 35.6875 0 
L 23.484375 0 
z
" id="DejaVuSans-118"/>
      <path d="M 34.28125 27.484375 
Q 23.390625 27.484375 19.1875 25 
Q 14.984375 22.515625 14.984375 16.5 
Q 14.984375 11.71875 18.140625 8.90625 
Q 21.296875 6.109375 26.703125 6.109375 
Q 34.1875 6.109375 38.703125 11.40625 
Q 43.21875 16.703125 43.21875 25.484375 
L 43.21875 27.484375 
z
M 52.203125 31.203125 
L 52.203125 0 
L 43.21875 0 
L 43.21875 8.296875 
Q 40.140625 3.328125 35.546875 0.953125 
Q 30.953125 -1.421875 24.3125 -1.421875 
Q 15.921875 -1.421875 10.953125 3.296875 
Q 6 8.015625 6 15.921875 
Q 6 25.140625 12.171875 29.828125 
Q 18.359375 34.515625 30.609375 34.515625 
L 43.21875 34.515625 
L 43.21875 35.40625 
Q 43.21875 41.609375 39.140625 45 
Q 35.0625 48.390625 27.6875 48.390625 
Q 23 48.390625 18.546875 47.265625 
Q 14.109375 46.140625 10.015625 43.890625 
L 10.015625 52.203125 
Q 14.9375 54.109375 19.578125 55.046875 
Q 24.21875 56 28.609375 56 
Q 40.484375 56 46.34375 49.84375 
Q 52.203125 43.703125 52.203125 31.203125 
z
" id="DejaVuSans-97"/>
      <path d="M 9.421875 75.984375 
L 18.40625 75.984375 
L 18.40625 0 
L 9.421875 0 
z
" id="DejaVuSans-108"/>
      <path d="M 8.5 21.578125 
L 8.5 54.6875 
L 17.484375 54.6875 
L 17.484375 21.921875 
Q 17.484375 14.15625 20.5 10.265625 
Q 23.53125 6.390625 29.59375 6.390625 
Q 36.859375 6.390625 41.078125 11.03125 
Q 45.3125 15.671875 45.3125 23.6875 
L 45.3125 54.6875 
L 54.296875 54.6875 
L 54.296875 0 
L 45.3125 0 
L 45.3125 8.40625 
Q 42.046875 3.421875 37.71875 1 
Q 33.40625 -1.421875 27.6875 -1.421875 
Q 18.265625 -1.421875 13.375 4.4375 
Q 8.5 10.296875 8.5 21.578125 
z
M 31.109375 56 
z
" id="DejaVuSans-117"/>
      <path d="M 56.203125 29.59375 
L 56.203125 25.203125 
L 14.890625 25.203125 
Q 15.484375 15.921875 20.484375 11.0625 
Q 25.484375 6.203125 34.421875 6.203125 
Q 39.59375 6.203125 44.453125 7.46875 
Q 49.3125 8.734375 54.109375 11.28125 
L 54.109375 2.78125 
Q 49.265625 0.734375 44.1875 -0.34375 
Q 39.109375 -1.421875 33.890625 -1.421875 
Q 20.796875 -1.421875 13.15625 6.1875 
Q 5.515625 13.8125 5.515625 26.8125 
Q 5.515625 40.234375 12.765625 48.109375 
Q 20.015625 56 32.328125 56 
Q 43.359375 56 49.78125 48.890625 
Q 56.203125 41.796875 56.203125 29.59375 
z
M 47.21875 32.234375 
Q 47.125 39.59375 43.09375 43.984375 
Q 39.0625 48.390625 32.421875 48.390625 
Q 24.90625 48.390625 20.390625 44.140625 
Q 15.875 39.890625 15.1875 32.171875 
z
" id="DejaVuSans-101"/>
      <path d="M 44.28125 53.078125 
L 44.28125 44.578125 
Q 40.484375 46.53125 36.375 47.5 
Q 32.28125 48.484375 27.875 48.484375 
Q 21.1875 48.484375 17.84375 46.4375 
Q 14.5 44.390625 14.5 40.28125 
Q 14.5 37.15625 16.890625 35.375 
Q 19.28125 33.59375 26.515625 31.984375 
L 29.59375 31.296875 
Q 39.15625 29.25 43.1875 25.515625 
Q 47.21875 21.78125 47.21875 15.09375 
Q 47.21875 7.46875 41.1875 3.015625 
Q 35.15625 -1.421875 24.609375 -1.421875 
Q 20.21875 -1.421875 15.453125 -0.5625 
Q 10.6875 0.296875 5.421875 2 
L 5.421875 11.28125 
Q 10.40625 8.6875 15.234375 7.390625 
Q 20.0625 6.109375 24.8125 6.109375 
Q 31.15625 6.109375 34.5625 8.28125 
Q 37.984375 10.453125 37.984375 14.40625 
Q 37.984375 18.0625 35.515625 20.015625 
Q 33.0625 21.96875 24.703125 23.78125 
L 21.578125 24.515625 
Q 13.234375 26.265625 9.515625 29.90625 
Q 5.8125 33.546875 5.8125 39.890625 
Q 5.8125 47.609375 11.28125 51.796875 
Q 16.75 56 26.8125 56 
Q 31.78125 56 36.171875 55.265625 
Q 40.578125 54.546875 44.28125 53.078125 
z
" id="DejaVuSans-115"/>
     </defs>
     <g transform="translate(310.163641 216.156563)scale(0.1 -0.1)">
      <use xlink:href="#DejaVuSans-118"/>
      <use x="59.179688" xlink:href="#DejaVuSans-97"/>
      <use x="120.458984" xlink:href="#DejaVuSans-108"/>
      <use x="148.242188" xlink:href="#DejaVuSans-117"/>
      <use x="211.621094" xlink:href="#DejaVuSans-101"/>
      <use x="273.144531" xlink:href="#DejaVuSans-115"/>
     </g>
    </g>
   </g>
   <g id="matplotlib.axis_2">
    <g id="ytick_1">
     <g id="line2d_8">
      <defs>
       <path d="M 0 0 
L -3.5 0 
" id="me6f1577ab3" style="stroke:#000000;stroke-width:0.8;"/>
      </defs>
      <g>
       <use style="stroke:#000000;stroke-width:0.8;" x="20.5625" xlink:href="#me6f1577ab3" y="187.88"/>
      </g>
     </g>
     <g id="text_9">
      <!-- 0 -->
      <g transform="translate(7.2 191.679219)scale(0.1 -0.1)">
       <use xlink:href="#DejaVuSans-48"/>
      </g>
     </g>
    </g>
    <g id="ytick_2">
     <g id="line2d_9">
      <g>
       <use style="stroke:#000000;stroke-width:0.8;" x="20.5625" xlink:href="#me6f1577ab3" y="151.30011"/>
      </g>
     </g>
     <g id="text_10">
      <!-- 1 -->
      <defs>
       <path d="M 12.40625 8.296875 
L 28.515625 8.296875 
L 28.515625 63.921875 
L 10.984375 60.40625 
L 10.984375 69.390625 
L 28.421875 72.90625 
L 38.28125 72.90625 
L 38.28125 8.296875 
L 54.390625 8.296875 
L 54.390625 0 
L 12.40625 0 
z
" id="DejaVuSans-49"/>
      </defs>
      <g transform="translate(7.2 155.099329)scale(0.1 -0.1)">
       <use xlink:href="#DejaVuSans-49"/>
      </g>
     </g>
    </g>
    <g id="ytick_3">
     <g id="line2d_10">
      <g>
       <use style="stroke:#000000;stroke-width:0.8;" x="20.5625" xlink:href="#me6f1577ab3" y="114.720221"/>
      </g>
     </g>
     <g id="text_11">
      <!-- 2 -->
      <g transform="translate(7.2 118.519439)scale(0.1 -0.1)">
       <use xlink:href="#DejaVuSans-50"/>
      </g>
     </g>
    </g>
    <g id="ytick_4">
     <g id="line2d_11">
      <g>
       <use style="stroke:#000000;stroke-width:0.8;" x="20.5625" xlink:href="#me6f1577ab3" y="78.140331"/>
      </g>
     </g>
     <g id="text_12">
      <!-- 3 -->
      <defs>
       <path d="M 40.578125 39.3125 
Q 47.65625 37.796875 51.625 33 
Q 55.609375 28.21875 55.609375 21.1875 
Q 55.609375 10.40625 48.1875 4.484375 
Q 40.765625 -1.421875 27.09375 -1.421875 
Q 22.515625 -1.421875 17.65625 -0.515625 
Q 12.796875 0.390625 7.625 2.203125 
L 7.625 11.71875 
Q 11.71875 9.328125 16.59375 8.109375 
Q 21.484375 6.890625 26.8125 6.890625 
Q 36.078125 6.890625 40.9375 10.546875 
Q 45.796875 14.203125 45.796875 21.1875 
Q 45.796875 27.640625 41.28125 31.265625 
Q 36.765625 34.90625 28.71875 34.90625 
L 20.21875 34.90625 
L 20.21875 43.015625 
L 29.109375 43.015625 
Q 36.375 43.015625 40.234375 45.921875 
Q 44.09375 48.828125 44.09375 54.296875 
Q 44.09375 59.90625 40.109375 62.90625 
Q 36.140625 65.921875 28.71875 65.921875 
Q 24.65625 65.921875 20.015625 65.03125 
Q 15.375 64.15625 9.8125 62.3125 
L 9.8125 71.09375 
Q 15.4375 72.65625 20.34375 73.4375 
Q 25.25 74.21875 29.59375 74.21875 
Q 40.828125 74.21875 47.359375 69.109375 
Q 53.90625 64.015625 53.90625 55.328125 
Q 53.90625 49.265625 50.4375 45.09375 
Q 46.96875 40.921875 40.578125 39.3125 
z
" id="DejaVuSans-51"/>
      </defs>
      <g transform="translate(7.2 81.93955)scale(0.1 -0.1)">
       <use xlink:href="#DejaVuSans-51"/>
      </g>
     </g>
    </g>
    <g id="ytick_5">
     <g id="line2d_12">
      <g>
       <use style="stroke:#000000;stroke-width:0.8;" x="20.5625" xlink:href="#me6f1577ab3" y="41.560441"/>
      </g>
     </g>
     <g id="text_13">
      <!-- 4 -->
      <g transform="translate(7.2 45.35966)scale(0.1 -0.1)">
       <use xlink:href="#DejaVuSans-52"/>
      </g>
     </g>
    </g>
   </g>
   <g id="LineCollection_1">
    <path clip-path="url(#pb61eb27222)" d="M 324.807106 187.88 
L 324.807106 179.71 
" style="fill:none;stroke:#1f77b4;"/>
    <path clip-path="url(#pb61eb27222)" d="M 324.807105 187.88 
L 324.807105 179.71 
" style="fill:none;stroke:#1f77b4;"/>
    <path clip-path="url(#pb61eb27222)" d="M 324.807109 187.88 
L 324.807109 179.71 
" style="fill:none;stroke:#1f77b4;"/>
    <path clip-path="url(#pb61eb27222)" d="M 324.8071 187.88 
L 324.8071 179.71 
" style="fill:none;stroke:#1f77b4;"/>
    <path clip-path="url(#pb61eb27222)" d="M 324.80712 187.88 
L 324.80712 179.71 
" style="fill:none;stroke:#1f77b4;"/>
    <path clip-path="url(#pb61eb27222)" d="M 324.807077 187.88 
L 324.807077 179.71 
" style="fill:none;stroke:#1f77b4;"/>
    <path clip-path="url(#pb61eb27222)" d="M 324.807161 187.88 
L 324.807161 179.71 
" style="fill:none;stroke:#1f77b4;"/>
    <path clip-path="url(#pb61eb27222)" d="M 324.807016 187.88 
L 324.807016 179.71 
" style="fill:none;stroke:#1f77b4;"/>
    <path clip-path="url(#pb61eb27222)" d="M 324.807194 187.88 
L 324.807194 179.71 
" style="fill:none;stroke:#1f77b4;"/>
    <path clip-path="url(#pb61eb27222)" d="M 324.807268 187.88 
L 324.807268 179.71 
" style="fill:none;stroke:#1f77b4;"/>
    <path clip-path="url(#pb61eb27222)" d="M 324.80559 187.88 
L 324.80559 179.71 
" style="fill:none;stroke:#1f77b4;"/>
    <path clip-path="url(#pb61eb27222)" d="M 324.813165 187.88 
L 324.813165 179.71 
" style="fill:none;stroke:#1f77b4;"/>
    <path clip-path="url(#pb61eb27222)" d="M 324.794282 187.88 
L 324.794282 179.71 
" style="fill:none;stroke:#1f77b4;"/>
    <path clip-path="url(#pb61eb27222)" d="M 324.638552 187.88 
L 324.638552 179.71 
" style="fill:none;stroke:#1f77b4;"/>
    <path clip-path="url(#pb61eb27222)" d="M 320.102683 187.88 
L 320.102683 179.71 
" style="fill:none;stroke:#1f77b4;"/>
    <path clip-path="url(#pb61eb27222)" d="M 306.295023 187.88 
L 306.295023 179.71 
" style="fill:none;stroke:#1f77b4;"/>
    <path clip-path="url(#pb61eb27222)" d="M 282.060967 187.88 
L 282.060967 179.71 
" style="fill:none;stroke:#1f77b4;"/>
    <path clip-path="url(#pb61eb27222)" d="M 253.324781 187.88 
L 253.324781 179.71 
" style="fill:none;stroke:#1f77b4;"/>
    <path clip-path="url(#pb61eb27222)" d="M 229.978774 187.88 
L 229.978774 179.71 
" style="fill:none;stroke:#1f77b4;"/>
    <path clip-path="url(#pb61eb27222)" d="M 223.673022 187.88 
L 223.673022 179.71 
" style="fill:none;stroke:#1f77b4;"/>
    <path clip-path="url(#pb61eb27222)" d="M 234.045142 187.88 
L 234.045142 179.71 
" style="fill:none;stroke:#1f77b4;"/>
    <path clip-path="url(#pb61eb27222)" d="M 256.061137 187.88 
L 256.061137 179.71 
" style="fill:none;stroke:#1f77b4;"/>
    <path clip-path="url(#pb61eb27222)" d="M 302.156514 187.88 
L 302.156514 179.71 
" style="fill:none;stroke:#1f77b4;"/>
    <path clip-path="url(#pb61eb27222)" d="M 364.552586 187.88 
L 364.552586 179.71 
" style="fill:none;stroke:#1f77b4;"/>
    <path clip-path="url(#pb61eb27222)" d="M 419.674802 187.88 
L 419.674802 179.71 
" style="fill:none;stroke:#1f77b4;"/>
    <path clip-path="url(#pb61eb27222)" d="M 453.233207 187.88 
L 453.233207 179.71 
" style="fill:none;stroke:#1f77b4;"/>
    <path clip-path="url(#pb61eb27222)" d="M 465.878821 187.88 
L 465.878821 179.71 
" style="fill:none;stroke:#1f77b4;"/>
    <path clip-path="url(#pb61eb27222)" d="M 466.711771 187.88 
L 466.711771 179.71 
" style="fill:none;stroke:#1f77b4;"/>
    <path clip-path="url(#pb61eb27222)" d="M 463.222886 187.88 
L 463.222886 179.71 
" style="fill:none;stroke:#1f77b4;"/>
    <path clip-path="url(#pb61eb27222)" d="M 452.907352 187.88 
L 452.907352 179.71 
" style="fill:none;stroke:#1f77b4;"/>
    <path clip-path="url(#pb61eb27222)" d="M 433.46467 187.88 
L 433.46467 179.71 
" style="fill:none;stroke:#1f77b4;"/>
    <path clip-path="url(#pb61eb27222)" d="M 407.962238 187.88 
L 407.962238 179.71 
" style="fill:none;stroke:#1f77b4;"/>
    <path clip-path="url(#pb61eb27222)" d="M 381.581686 187.88 
L 381.581686 179.71 
" style="fill:none;stroke:#1f77b4;"/>
    <path clip-path="url(#pb61eb27222)" d="M 358.365737 187.88 
L 358.365737 179.71 
" style="fill:none;stroke:#1f77b4;"/>
    <path clip-path="url(#pb61eb27222)" d="M 340.182406 187.88 
L 340.182406 179.71 
" style="fill:none;stroke:#1f77b4;"/>
    <path clip-path="url(#pb61eb27222)" d="M 327.2109 187.88 
L 327.2109 179.71 
" style="fill:none;stroke:#1f77b4;"/>
    <path clip-path="url(#pb61eb27222)" d="M 318.754315 187.88 
L 318.754315 179.71 
" style="fill:none;stroke:#1f77b4;"/>
    <path clip-path="url(#pb61eb27222)" d="M 313.846916 187.88 
L 313.846916 179.71 
" style="fill:none;stroke:#1f77b4;"/>
    <path clip-path="url(#pb61eb27222)" d="M 311.561801 187.88 
L 311.561801 179.71 
" style="fill:none;stroke:#1f77b4;"/>
    <path clip-path="url(#pb61eb27222)" d="M 311.113388 187.88 
L 311.113388 179.71 
" style="fill:none;stroke:#1f77b4;"/>
    <path clip-path="url(#pb61eb27222)" d="M 311.870865 187.88 
L 311.870865 179.71 
" style="fill:none;stroke:#1f77b4;"/>
    <path clip-path="url(#pb61eb27222)" d="M 313.333349 187.88 
L 313.333349 179.71 
" style="fill:none;stroke:#1f77b4;"/>
    <path clip-path="url(#pb61eb27222)" d="M 315.128998 187.88 
L 315.128998 179.71 
" style="fill:none;stroke:#1f77b4;"/>
    <path clip-path="url(#pb61eb27222)" d="M 316.975614 187.88 
L 316.975614 179.71 
" style="fill:none;stroke:#1f77b4;"/>
    <path clip-path="url(#pb61eb27222)" d="M 318.694343 187.88 
L 318.694343 179.71 
" style="fill:none;stroke:#1f77b4;"/>
    <path clip-path="url(#pb61eb27222)" d="M 320.206255 187.88 
L 320.206255 179.71 
" style="fill:none;stroke:#1f77b4;"/>
    <path clip-path="url(#pb61eb27222)" d="M 322.605068 187.88 
L 322.605068 179.71 
" style="fill:none;stroke:#1f77b4;"/>
    <path clip-path="url(#pb61eb27222)" d="M 336.45838 187.88 
L 336.45838 179.71 
" style="fill:none;stroke:#1f77b4;"/>
    <path clip-path="url(#pb61eb27222)" d="M 352.584353 187.88 
L 352.584353 179.71 
" style="fill:none;stroke:#1f77b4;"/>
    <path clip-path="url(#pb61eb27222)" d="M 347.670112 187.88 
L 347.670112 179.71 
" style="fill:none;stroke:#1f77b4;"/>
    <path clip-path="url(#pb61eb27222)" d="M 333.533625 187.88 
L 333.533625 179.71 
" style="fill:none;stroke:#1f77b4;"/>
    <path clip-path="url(#pb61eb27222)" d="M 312.693932 187.88 
L 312.693932 179.71 
" style="fill:none;stroke:#1f77b4;"/>
    <path clip-path="url(#pb61eb27222)" d="M 273.062249 187.88 
L 273.062249 179.71 
" style="fill:none;stroke:#1f77b4;"/>
    <path clip-path="url(#pb61eb27222)" d="M 246.422228 187.88 
L 246.422228 179.71 
" style="fill:none;stroke:#1f77b4;"/>
    <path clip-path="url(#pb61eb27222)" d="M 255.872815 187.88 
L 255.872815 179.71 
" style="fill:none;stroke:#1f77b4;"/>
    <path clip-path="url(#pb61eb27222)" d="M 280.856056 187.88 
L 280.856056 179.71 
" style="fill:none;stroke:#1f77b4;"/>
    <path clip-path="url(#pb61eb27222)" d="M 297.05592 187.88 
L 297.05592 179.71 
" style="fill:none;stroke:#1f77b4;"/>
    <path clip-path="url(#pb61eb27222)" d="M 291.598074 187.88 
L 291.598074 179.71 
" style="fill:none;stroke:#1f77b4;"/>
    <path clip-path="url(#pb61eb27222)" d="M 271.112875 187.88 
L 271.112875 179.71 
" style="fill:none;stroke:#1f77b4;"/>
    <path clip-path="url(#pb61eb27222)" d="M 254.694823 187.88 
L 254.694823 179.71 
" style="fill:none;stroke:#1f77b4;"/>
    <path clip-path="url(#pb61eb27222)" d="M 248.262162 187.88 
L 248.262162 179.71 
" style="fill:none;stroke:#1f77b4;"/>
    <path clip-path="url(#pb61eb27222)" d="M 238.819263 187.88 
L 238.819263 179.71 
" style="fill:none;stroke:#1f77b4;"/>
    <path clip-path="url(#pb61eb27222)" d="M 215.749655 187.88 
L 215.749655 179.71 
" style="fill:none;stroke:#1f77b4;"/>
    <path clip-path="url(#pb61eb27222)" d="M 186.763288 187.88 
L 186.763288 179.71 
" style="fill:none;stroke:#1f77b4;"/>
    <path clip-path="url(#pb61eb27222)" d="M 178.53613 187.88 
L 178.53613 179.71 
" style="fill:none;stroke:#1f77b4;"/>
    <path clip-path="url(#pb61eb27222)" d="M 197.809405 187.88 
L 197.809405 179.71 
" style="fill:none;stroke:#1f77b4;"/>
    <path clip-path="url(#pb61eb27222)" d="M 219.598377 187.88 
L 219.598377 179.71 
" style="fill:none;stroke:#1f77b4;"/>
    <path clip-path="url(#pb61eb27222)" d="M 228.821884 187.88 
L 228.821884 179.71 
" style="fill:none;stroke:#1f77b4;"/>
    <path clip-path="url(#pb61eb27222)" d="M 243.08631 187.88 
L 243.08631 179.71 
" style="fill:none;stroke:#1f77b4;"/>
    <path clip-path="url(#pb61eb27222)" d="M 277.724692 187.88 
L 277.724692 179.71 
" style="fill:none;stroke:#1f77b4;"/>
    <path clip-path="url(#pb61eb27222)" d="M 319.210398 187.88 
L 319.210398 179.71 
" style="fill:none;stroke:#1f77b4;"/>
    <path clip-path="url(#pb61eb27222)" d="M 353.239635 187.88 
L 353.239635 179.71 
" style="fill:none;stroke:#1f77b4;"/>
    <path clip-path="url(#pb61eb27222)" d="M 371.875385 187.88 
L 371.875385 179.71 
" style="fill:none;stroke:#1f77b4;"/>
    <path clip-path="url(#pb61eb27222)" d="M 362.645027 187.88 
L 362.645027 179.71 
" style="fill:none;stroke:#1f77b4;"/>
    <path clip-path="url(#pb61eb27222)" d="M 323.652424 187.88 
L 323.652424 179.71 
" style="fill:none;stroke:#1f77b4;"/>
    <path clip-path="url(#pb61eb27222)" d="M 270.819054 187.88 
L 270.819054 179.71 
" style="fill:none;stroke:#1f77b4;"/>
    <path clip-path="url(#pb61eb27222)" d="M 226.445421 187.88 
L 226.445421 179.71 
" style="fill:none;stroke:#1f77b4;"/>
    <path clip-path="url(#pb61eb27222)" d="M 201.220871 187.88 
L 201.220871 179.71 
" style="fill:none;stroke:#1f77b4;"/>
    <path clip-path="url(#pb61eb27222)" d="M 198.23604 187.88 
L 198.23604 179.71 
" style="fill:none;stroke:#1f77b4;"/>
    <path clip-path="url(#pb61eb27222)" d="M 210.033957 187.88 
L 210.033957 179.71 
" style="fill:none;stroke:#1f77b4;"/>
    <path clip-path="url(#pb61eb27222)" d="M 219.181908 187.88 
L 219.181908 179.71 
" style="fill:none;stroke:#1f77b4;"/>
    <path clip-path="url(#pb61eb27222)" d="M 223.632339 187.88 
L 223.632339 179.71 
" style="fill:none;stroke:#1f77b4;"/>
    <path clip-path="url(#pb61eb27222)" d="M 235.527602 187.88 
L 235.527602 179.71 
" style="fill:none;stroke:#1f77b4;"/>
    <path clip-path="url(#pb61eb27222)" d="M 263.004817 187.88 
L 263.004817 179.71 
" style="fill:none;stroke:#1f77b4;"/>
    <path clip-path="url(#pb61eb27222)" d="M 294.465491 187.88 
L 294.465491 179.71 
" style="fill:none;stroke:#1f77b4;"/>
    <path clip-path="url(#pb61eb27222)" d="M 317.242561 187.88 
L 317.242561 179.71 
" style="fill:none;stroke:#1f77b4;"/>
    <path clip-path="url(#pb61eb27222)" d="M 330.898569 187.88 
L 330.898569 179.71 
" style="fill:none;stroke:#1f77b4;"/>
    <path clip-path="url(#pb61eb27222)" d="M 326.851376 187.88 
L 326.851376 179.71 
" style="fill:none;stroke:#1f77b4;"/>
    <path clip-path="url(#pb61eb27222)" d="M 306.164714 187.88 
L 306.164714 179.71 
" style="fill:none;stroke:#1f77b4;"/>
    <path clip-path="url(#pb61eb27222)" d="M 285.358908 187.88 
L 285.358908 179.71 
" style="fill:none;stroke:#1f77b4;"/>
    <path clip-path="url(#pb61eb27222)" d="M 284.933731 187.88 
L 284.933731 179.71 
" style="fill:none;stroke:#1f77b4;"/>
    <path clip-path="url(#pb61eb27222)" d="M 297.491061 187.88 
L 297.491061 179.71 
" style="fill:none;stroke:#1f77b4;"/>
    <path clip-path="url(#pb61eb27222)" d="M 307.993821 187.88 
L 307.993821 179.71 
" style="fill:none;stroke:#1f77b4;"/>
    <path clip-path="url(#pb61eb27222)" d="M 321.2348 187.88 
L 321.2348 179.71 
" style="fill:none;stroke:#1f77b4;"/>
    <path clip-path="url(#pb61eb27222)" d="M 327.567658 187.88 
L 327.567658 179.71 
" style="fill:none;stroke:#1f77b4;"/>
    <path clip-path="url(#pb61eb27222)" d="M 310.599576 187.88 
L 310.599576 179.71 
" style="fill:none;stroke:#1f77b4;"/>
    <path clip-path="url(#pb61eb27222)" d="M 280.509073 187.88 
L 280.509073 179.71 
" style="fill:none;stroke:#1f77b4;"/>
    <path clip-path="url(#pb61eb27222)" d="M 254.961263 187.88 
L 254.961263 179.71 
" style="fill:none;stroke:#1f77b4;"/>
    <path clip-path="url(#pb61eb27222)" d="M 241.42963 187.88 
L 241.42963 179.71 
" style="fill:none;stroke:#1f77b4;"/>
    <path clip-path="url(#pb61eb27222)" d="M 245.258068 187.88 
L 245.258068 179.71 
" style="fill:none;stroke:#1f77b4;"/>
    <path clip-path="url(#pb61eb27222)" d="M 266.336912 187.88 
L 266.336912 179.71 
" style="fill:none;stroke:#1f77b4;"/>
    <path clip-path="url(#pb61eb27222)" d="M 292.586747 187.88 
L 292.586747 179.71 
" style="fill:none;stroke:#1f77b4;"/>
    <path clip-path="url(#pb61eb27222)" d="M 313.002455 187.88 
L 313.002455 179.71 
" style="fill:none;stroke:#1f77b4;"/>
    <path clip-path="url(#pb61eb27222)" d="M 325.268002 187.88 
L 325.268002 179.71 
" style="fill:none;stroke:#1f77b4;"/>
    <path clip-path="url(#pb61eb27222)" d="M 329.741552 187.88 
L 329.741552 179.71 
" style="fill:none;stroke:#1f77b4;"/>
    <path clip-path="url(#pb61eb27222)" d="M 323.482755 187.88 
L 323.482755 179.71 
" style="fill:none;stroke:#1f77b4;"/>
    <path clip-path="url(#pb61eb27222)" d="M 310.941252 187.88 
L 310.941252 179.71 
" style="fill:none;stroke:#1f77b4;"/>
    <path clip-path="url(#pb61eb27222)" d="M 301.510302 187.88 
L 301.510302 179.71 
" style="fill:none;stroke:#1f77b4;"/>
    <path clip-path="url(#pb61eb27222)" d="M 299.219642 187.88 
L 299.219642 179.71 
" style="fill:none;stroke:#1f77b4;"/>
    <path clip-path="url(#pb61eb27222)" d="M 302.623862 187.88 
L 302.623862 179.71 
" style="fill:none;stroke:#1f77b4;"/>
    <path clip-path="url(#pb61eb27222)" d="M 308.51347 187.88 
L 308.51347 179.71 
" style="fill:none;stroke:#1f77b4;"/>
    <path clip-path="url(#pb61eb27222)" d="M 314.456223 187.88 
L 314.456223 179.71 
" style="fill:none;stroke:#1f77b4;"/>
    <path clip-path="url(#pb61eb27222)" d="M 319.291709 187.88 
L 319.291709 179.71 
" style="fill:none;stroke:#1f77b4;"/>
    <path clip-path="url(#pb61eb27222)" d="M 322.809161 187.88 
L 322.809161 179.71 
" style="fill:none;stroke:#1f77b4;"/>
    <path clip-path="url(#pb61eb27222)" d="M 325.193427 187.88 
L 325.193427 179.71 
" style="fill:none;stroke:#1f77b4;"/>
    <path clip-path="url(#pb61eb27222)" d="M 326.740719 187.88 
L 326.740719 179.71 
" style="fill:none;stroke:#1f77b4;"/>
    <path clip-path="url(#pb61eb27222)" d="M 327.681288 187.88 
L 327.681288 179.71 
" style="fill:none;stroke:#1f77b4;"/>
    <path clip-path="url(#pb61eb27222)" d="M 328.130762 187.88 
L 328.130762 179.71 
" style="fill:none;stroke:#1f77b4;"/>
    <path clip-path="url(#pb61eb27222)" d="M 328.234883 187.88 
L 328.234883 179.71 
" style="fill:none;stroke:#1f77b4;"/>
    <path clip-path="url(#pb61eb27222)" d="M 328.083423 187.88 
L 328.083423 179.71 
" style="fill:none;stroke:#1f77b4;"/>
    <path clip-path="url(#pb61eb27222)" d="M 327.751671 187.88 
L 327.751671 179.71 
" style="fill:none;stroke:#1f77b4;"/>
    <path clip-path="url(#pb61eb27222)" d="M 327.339477 187.88 
L 327.339477 179.71 
" style="fill:none;stroke:#1f77b4;"/>
    <path clip-path="url(#pb61eb27222)" d="M 326.180471 187.88 
L 326.180471 179.71 
" style="fill:none;stroke:#1f77b4;"/>
    <path clip-path="url(#pb61eb27222)" d="M 318.894321 187.88 
L 318.894321 179.71 
" style="fill:none;stroke:#1f77b4;"/>
    <path clip-path="url(#pb61eb27222)" d="M 301.28559 187.88 
L 301.28559 179.71 
" style="fill:none;stroke:#1f77b4;"/>
    <path clip-path="url(#pb61eb27222)" d="M 273.697215 187.88 
L 273.697215 179.71 
" style="fill:none;stroke:#1f77b4;"/>
    <path clip-path="url(#pb61eb27222)" d="M 246.626873 187.88 
L 246.626873 179.71 
" style="fill:none;stroke:#1f77b4;"/>
    <path clip-path="url(#pb61eb27222)" d="M 235.381173 187.88 
L 235.381173 179.71 
" style="fill:none;stroke:#1f77b4;"/>
    <path clip-path="url(#pb61eb27222)" d="M 241.429007 187.88 
L 241.429007 179.71 
" style="fill:none;stroke:#1f77b4;"/>
    <path clip-path="url(#pb61eb27222)" d="M 254.603878 187.88 
L 254.603878 179.71 
" style="fill:none;stroke:#1f77b4;"/>
    <path clip-path="url(#pb61eb27222)" d="M 273.251815 187.88 
L 273.251815 179.71 
" style="fill:none;stroke:#1f77b4;"/>
    <path clip-path="url(#pb61eb27222)" d="M 302.448354 187.88 
L 302.448354 179.71 
" style="fill:none;stroke:#1f77b4;"/>
    <path clip-path="url(#pb61eb27222)" d="M 337.767309 187.88 
L 337.767309 179.71 
" style="fill:none;stroke:#1f77b4;"/>
    <path clip-path="url(#pb61eb27222)" d="M 378.794184 187.88 
L 378.794184 179.71 
" style="fill:none;stroke:#1f77b4;"/>
    <path clip-path="url(#pb61eb27222)" d="M 421.520088 187.88 
L 421.520088 179.71 
" style="fill:none;stroke:#1f77b4;"/>
    <path clip-path="url(#pb61eb27222)" d="M 458.136312 187.88 
L 458.136312 179.71 
" style="fill:none;stroke:#1f77b4;"/>
    <path clip-path="url(#pb61eb27222)" d="M 486.731367 187.88 
L 486.731367 179.71 
" style="fill:none;stroke:#1f77b4;"/>
    <path clip-path="url(#pb61eb27222)" d="M 500.168229 187.88 
L 500.168229 179.71 
" style="fill:none;stroke:#1f77b4;"/>
    <path clip-path="url(#pb61eb27222)" d="M 487.182963 187.88 
L 487.182963 179.71 
" style="fill:none;stroke:#1f77b4;"/>
    <path clip-path="url(#pb61eb27222)" d="M 454.805195 187.88 
L 454.805195 179.71 
" style="fill:none;stroke:#1f77b4;"/>
    <path clip-path="url(#pb61eb27222)" d="M 416.856586 187.88 
L 416.856586 179.71 
" style="fill:none;stroke:#1f77b4;"/>
    <path clip-path="url(#pb61eb27222)" d="M 382.757967 187.88 
L 382.757967 179.71 
" style="fill:none;stroke:#1f77b4;"/>
    <path clip-path="url(#pb61eb27222)" d="M 353.007583 187.88 
L 353.007583 179.71 
" style="fill:none;stroke:#1f77b4;"/>
    <path clip-path="url(#pb61eb27222)" d="M 321.679786 187.88 
L 321.679786 179.71 
" style="fill:none;stroke:#1f77b4;"/>
    <path clip-path="url(#pb61eb27222)" d="M 291.635045 187.88 
L 291.635045 179.71 
" style="fill:none;stroke:#1f77b4;"/>
    <path clip-path="url(#pb61eb27222)" d="M 267.446208 187.88 
L 267.446208 179.71 
" style="fill:none;stroke:#1f77b4;"/>
    <path clip-path="url(#pb61eb27222)" d="M 243.878101 187.88 
L 243.878101 179.71 
" style="fill:none;stroke:#1f77b4;"/>
    <path clip-path="url(#pb61eb27222)" d="M 219.4863 187.88 
L 219.4863 179.71 
" style="fill:none;stroke:#1f77b4;"/>
    <path clip-path="url(#pb61eb27222)" d="M 198.42416 187.88 
L 198.42416 179.71 
" style="fill:none;stroke:#1f77b4;"/>
    <path clip-path="url(#pb61eb27222)" d="M 180.531272 187.88 
L 180.531272 179.71 
" style="fill:none;stroke:#1f77b4;"/>
    <path clip-path="url(#pb61eb27222)" d="M 157.426703 187.88 
L 157.426703 179.71 
" style="fill:none;stroke:#1f77b4;"/>
    <path clip-path="url(#pb61eb27222)" d="M 126.317657 187.88 
L 126.317657 179.71 
" style="fill:none;stroke:#1f77b4;"/>
    <path clip-path="url(#pb61eb27222)" d="M 99.854966 187.88 
L 99.854966 179.71 
" style="fill:none;stroke:#1f77b4;"/>
    <path clip-path="url(#pb61eb27222)" d="M 96.262682 187.88 
L 96.262682 179.71 
" style="fill:none;stroke:#1f77b4;"/>
    <path clip-path="url(#pb61eb27222)" d="M 110.167387 187.88 
L 110.167387 179.71 
" style="fill:none;stroke:#1f77b4;"/>
    <path clip-path="url(#pb61eb27222)" d="M 126.687294 187.88 
L 126.687294 179.71 
" style="fill:none;stroke:#1f77b4;"/>
    <path clip-path="url(#pb61eb27222)" d="M 142.995034 187.88 
L 142.995034 179.71 
" style="fill:none;stroke:#1f77b4;"/>
    <path clip-path="url(#pb61eb27222)" d="M 163.46022 187.88 
L 163.46022 179.71 
" style="fill:none;stroke:#1f77b4;"/>
    <path clip-path="url(#pb61eb27222)" d="M 188.385576 187.88 
L 188.385576 179.71 
" style="fill:none;stroke:#1f77b4;"/>
    <path clip-path="url(#pb61eb27222)" d="M 216.7417 187.88 
L 216.7417 179.71 
" style="fill:none;stroke:#1f77b4;"/>
    <path clip-path="url(#pb61eb27222)" d="M 246.163982 187.88 
L 246.163982 179.71 
" style="fill:none;stroke:#1f77b4;"/>
    <path clip-path="url(#pb61eb27222)" d="M 271.79586 187.88 
L 271.79586 179.71 
" style="fill:none;stroke:#1f77b4;"/>
    <path clip-path="url(#pb61eb27222)" d="M 291.635214 187.88 
L 291.635214 179.71 
" style="fill:none;stroke:#1f77b4;"/>
    <path clip-path="url(#pb61eb27222)" d="M 311.686659 187.88 
L 311.686659 179.71 
" style="fill:none;stroke:#1f77b4;"/>
    <path clip-path="url(#pb61eb27222)" d="M 343.218024 187.88 
L 343.218024 179.71 
" style="fill:none;stroke:#1f77b4;"/>
    <path clip-path="url(#pb61eb27222)" d="M 373.122591 187.88 
L 373.122591 179.71 
" style="fill:none;stroke:#1f77b4;"/>
    <path clip-path="url(#pb61eb27222)" d="M 377.823995 187.88 
L 377.823995 179.71 
" style="fill:none;stroke:#1f77b4;"/>
    <path clip-path="url(#pb61eb27222)" d="M 351.590375 187.88 
L 351.590375 179.71 
" style="fill:none;stroke:#1f77b4;"/>
    <path clip-path="url(#pb61eb27222)" d="M 316.109152 187.88 
L 316.109152 179.71 
" style="fill:none;stroke:#1f77b4;"/>
    <path clip-path="url(#pb61eb27222)" d="M 292.550014 187.88 
L 292.550014 179.71 
" style="fill:none;stroke:#1f77b4;"/>
    <path clip-path="url(#pb61eb27222)" d="M 280.365083 187.88 
L 280.365083 179.71 
" style="fill:none;stroke:#1f77b4;"/>
    <path clip-path="url(#pb61eb27222)" d="M 271.501117 187.88 
L 271.501117 179.71 
" style="fill:none;stroke:#1f77b4;"/>
    <path clip-path="url(#pb61eb27222)" d="M 259.733765 187.88 
L 259.733765 179.71 
" style="fill:none;stroke:#1f77b4;"/>
    <path clip-path="url(#pb61eb27222)" d="M 240.260168 187.88 
L 240.260168 179.71 
" style="fill:none;stroke:#1f77b4;"/>
    <path clip-path="url(#pb61eb27222)" d="M 229.052291 187.88 
L 229.052291 179.71 
" style="fill:none;stroke:#1f77b4;"/>
    <path clip-path="url(#pb61eb27222)" d="M 238.974217 187.88 
L 238.974217 179.71 
" style="fill:none;stroke:#1f77b4;"/>
    <path clip-path="url(#pb61eb27222)" d="M 261.793835 187.88 
L 261.793835 179.71 
" style="fill:none;stroke:#1f77b4;"/>
    <path clip-path="url(#pb61eb27222)" d="M 286.074943 187.88 
L 286.074943 179.71 
" style="fill:none;stroke:#1f77b4;"/>
    <path clip-path="url(#pb61eb27222)" d="M 305.557696 187.88 
L 305.557696 179.71 
" style="fill:none;stroke:#1f77b4;"/>
    <path clip-path="url(#pb61eb27222)" d="M 318.941158 187.88 
L 318.941158 179.71 
" style="fill:none;stroke:#1f77b4;"/>
    <path clip-path="url(#pb61eb27222)" d="M 327.958637 187.88 
L 327.958637 179.71 
" style="fill:none;stroke:#1f77b4;"/>
    <path clip-path="url(#pb61eb27222)" d="M 335.651154 187.88 
L 335.651154 179.71 
" style="fill:none;stroke:#1f77b4;"/>
    <path clip-path="url(#pb61eb27222)" d="M 345.642147 187.88 
L 345.642147 179.71 
" style="fill:none;stroke:#1f77b4;"/>
    <path clip-path="url(#pb61eb27222)" d="M 358.044495 187.88 
L 358.044495 179.71 
" style="fill:none;stroke:#1f77b4;"/>
    <path clip-path="url(#pb61eb27222)" d="M 372.158114 187.88 
L 372.158114 179.71 
" style="fill:none;stroke:#1f77b4;"/>
    <path clip-path="url(#pb61eb27222)" d="M 392.266271 187.88 
L 392.266271 179.71 
" style="fill:none;stroke:#1f77b4;"/>
    <path clip-path="url(#pb61eb27222)" d="M 427.195058 187.88 
L 427.195058 179.71 
" style="fill:none;stroke:#1f77b4;"/>
    <path clip-path="url(#pb61eb27222)" d="M 470.138158 187.88 
L 470.138158 179.71 
" style="fill:none;stroke:#1f77b4;"/>
    <path clip-path="url(#pb61eb27222)" d="M 496.909179 187.88 
L 496.909179 179.71 
" style="fill:none;stroke:#1f77b4;"/>
    <path clip-path="url(#pb61eb27222)" d="M 493.042148 187.88 
L 493.042148 179.71 
" style="fill:none;stroke:#1f77b4;"/>
    <path clip-path="url(#pb61eb27222)" d="M 461.276711 187.88 
L 461.276711 179.71 
" style="fill:none;stroke:#1f77b4;"/>
    <path clip-path="url(#pb61eb27222)" d="M 415.50019 187.88 
L 415.50019 179.71 
" style="fill:none;stroke:#1f77b4;"/>
    <path clip-path="url(#pb61eb27222)" d="M 365.641071 187.88 
L 365.641071 179.71 
" style="fill:none;stroke:#1f77b4;"/>
    <path clip-path="url(#pb61eb27222)" d="M 307.911604 187.88 
L 307.911604 179.71 
" style="fill:none;stroke:#1f77b4;"/>
    <path clip-path="url(#pb61eb27222)" d="M 245.12453 187.88 
L 245.12453 179.71 
" style="fill:none;stroke:#1f77b4;"/>
    <path clip-path="url(#pb61eb27222)" d="M 197.878714 187.88 
L 197.878714 179.71 
" style="fill:none;stroke:#1f77b4;"/>
    <path clip-path="url(#pb61eb27222)" d="M 180.548064 187.88 
L 180.548064 179.71 
" style="fill:none;stroke:#1f77b4;"/>
    <path clip-path="url(#pb61eb27222)" d="M 189.658736 187.88 
L 189.658736 179.71 
" style="fill:none;stroke:#1f77b4;"/>
    <path clip-path="url(#pb61eb27222)" d="M 209.929482 187.88 
L 209.929482 179.71 
" style="fill:none;stroke:#1f77b4;"/>
    <path clip-path="url(#pb61eb27222)" d="M 230.449025 187.88 
L 230.449025 179.71 
" style="fill:none;stroke:#1f77b4;"/>
    <path clip-path="url(#pb61eb27222)" d="M 253.301899 187.88 
L 253.301899 179.71 
" style="fill:none;stroke:#1f77b4;"/>
    <path clip-path="url(#pb61eb27222)" d="M 304.958701 187.88 
L 304.958701 179.71 
" style="fill:none;stroke:#1f77b4;"/>
    <path clip-path="url(#pb61eb27222)" d="M 390.087519 187.88 
L 390.087519 179.71 
" style="fill:none;stroke:#1f77b4;"/>
    <path clip-path="url(#pb61eb27222)" d="M 477.247549 187.88 
L 477.247549 179.71 
" style="fill:none;stroke:#1f77b4;"/>
    <path clip-path="url(#pb61eb27222)" d="M 536.800352 187.88 
L 536.800352 179.71 
" style="fill:none;stroke:#1f77b4;"/>
    <path clip-path="url(#pb61eb27222)" d="M 555.634611 187.88 
L 555.634611 179.71 
" style="fill:none;stroke:#1f77b4;"/>
    <path clip-path="url(#pb61eb27222)" d="M 556.5896 187.88 
L 556.5896 179.71 
" style="fill:none;stroke:#1f77b4;"/>
    <path clip-path="url(#pb61eb27222)" d="M 552.262025 187.88 
L 552.262025 179.71 
" style="fill:none;stroke:#1f77b4;"/>
    <path clip-path="url(#pb61eb27222)" d="M 532.81837 187.88 
L 532.81837 179.71 
" style="fill:none;stroke:#1f77b4;"/>
    <path clip-path="url(#pb61eb27222)" d="M 496.148947 187.88 
L 496.148947 179.71 
" style="fill:none;stroke:#1f77b4;"/>
    <path clip-path="url(#pb61eb27222)" d="M 452.080125 187.88 
L 452.080125 179.71 
" style="fill:none;stroke:#1f77b4;"/>
    <path clip-path="url(#pb61eb27222)" d="M 414.444544 187.88 
L 414.444544 179.71 
" style="fill:none;stroke:#1f77b4;"/>
    <path clip-path="url(#pb61eb27222)" d="M 389.015028 187.88 
L 389.015028 179.71 
" style="fill:none;stroke:#1f77b4;"/>
    <path clip-path="url(#pb61eb27222)" d="M 369.844391 187.88 
L 369.844391 179.71 
" style="fill:none;stroke:#1f77b4;"/>
    <path clip-path="url(#pb61eb27222)" d="M 349.850687 187.88 
L 349.850687 179.71 
" style="fill:none;stroke:#1f77b4;"/>
    <path clip-path="url(#pb61eb27222)" d="M 330.86564 187.88 
L 330.86564 179.71 
" style="fill:none;stroke:#1f77b4;"/>
    <path clip-path="url(#pb61eb27222)" d="M 316.720699 187.88 
L 316.720699 179.71 
" style="fill:none;stroke:#1f77b4;"/>
    <path clip-path="url(#pb61eb27222)" d="M 312.880108 187.88 
L 312.880108 179.71 
" style="fill:none;stroke:#1f77b4;"/>
    <path clip-path="url(#pb61eb27222)" d="M 324.864819 187.88 
L 324.864819 179.71 
" style="fill:none;stroke:#1f77b4;"/>
    <path clip-path="url(#pb61eb27222)" d="M 353.833594 187.88 
L 353.833594 179.71 
" style="fill:none;stroke:#1f77b4;"/>
    <path clip-path="url(#pb61eb27222)" d="M 387.702601 187.88 
L 387.702601 179.71 
" style="fill:none;stroke:#1f77b4;"/>
    <path clip-path="url(#pb61eb27222)" d="M 406.200883 187.88 
L 406.200883 179.71 
" style="fill:none;stroke:#1f77b4;"/>
    <path clip-path="url(#pb61eb27222)" d="M 400.163308 187.88 
L 400.163308 179.71 
" style="fill:none;stroke:#1f77b4;"/>
    <path clip-path="url(#pb61eb27222)" d="M 375.641033 187.88 
L 375.641033 179.71 
" style="fill:none;stroke:#1f77b4;"/>
    <path clip-path="url(#pb61eb27222)" d="M 351.244915 187.88 
L 351.244915 179.71 
" style="fill:none;stroke:#1f77b4;"/>
    <path clip-path="url(#pb61eb27222)" d="M 342.497801 187.88 
L 342.497801 179.71 
" style="fill:none;stroke:#1f77b4;"/>
    <path clip-path="url(#pb61eb27222)" d="M 340.988696 187.88 
L 340.988696 179.71 
" style="fill:none;stroke:#1f77b4;"/>
    <path clip-path="url(#pb61eb27222)" d="M 331.657323 187.88 
L 331.657323 179.71 
" style="fill:none;stroke:#1f77b4;"/>
    <path clip-path="url(#pb61eb27222)" d="M 315.887587 187.88 
L 315.887587 179.71 
" style="fill:none;stroke:#1f77b4;"/>
    <path clip-path="url(#pb61eb27222)" d="M 299.197853 187.88 
L 299.197853 179.71 
" style="fill:none;stroke:#1f77b4;"/>
    <path clip-path="url(#pb61eb27222)" d="M 276.288363 187.88 
L 276.288363 179.71 
" style="fill:none;stroke:#1f77b4;"/>
    <path clip-path="url(#pb61eb27222)" d="M 251.612056 187.88 
L 251.612056 179.71 
" style="fill:none;stroke:#1f77b4;"/>
    <path clip-path="url(#pb61eb27222)" d="M 238.00016 187.88 
L 238.00016 179.71 
" style="fill:none;stroke:#1f77b4;"/>
    <path clip-path="url(#pb61eb27222)" d="M 234.194551 187.88 
L 234.194551 179.71 
" style="fill:none;stroke:#1f77b4;"/>
    <path clip-path="url(#pb61eb27222)" d="M 225.523913 187.88 
L 225.523913 179.71 
" style="fill:none;stroke:#1f77b4;"/>
    <path clip-path="url(#pb61eb27222)" d="M 209.627297 187.88 
L 209.627297 179.71 
" style="fill:none;stroke:#1f77b4;"/>
    <path clip-path="url(#pb61eb27222)" d="M 194.807464 187.88 
L 194.807464 179.71 
" style="fill:none;stroke:#1f77b4;"/>
    <path clip-path="url(#pb61eb27222)" d="M 183.121544 187.88 
L 183.121544 179.71 
" style="fill:none;stroke:#1f77b4;"/>
    <path clip-path="url(#pb61eb27222)" d="M 176.216906 187.88 
L 176.216906 179.71 
" style="fill:none;stroke:#1f77b4;"/>
    <path clip-path="url(#pb61eb27222)" d="M 175.94961 187.88 
L 175.94961 179.71 
" style="fill:none;stroke:#1f77b4;"/>
    <path clip-path="url(#pb61eb27222)" d="M 181.221183 187.88 
L 181.221183 179.71 
" style="fill:none;stroke:#1f77b4;"/>
    <path clip-path="url(#pb61eb27222)" d="M 193.516773 187.88 
L 193.516773 179.71 
" style="fill:none;stroke:#1f77b4;"/>
    <path clip-path="url(#pb61eb27222)" d="M 213.061472 187.88 
L 213.061472 179.71 
" style="fill:none;stroke:#1f77b4;"/>
    <path clip-path="url(#pb61eb27222)" d="M 231.184184 187.88 
L 231.184184 179.71 
" style="fill:none;stroke:#1f77b4;"/>
    <path clip-path="url(#pb61eb27222)" d="M 245.335761 187.88 
L 245.335761 179.71 
" style="fill:none;stroke:#1f77b4;"/>
    <path clip-path="url(#pb61eb27222)" d="M 262.341664 187.88 
L 262.341664 179.71 
" style="fill:none;stroke:#1f77b4;"/>
    <path clip-path="url(#pb61eb27222)" d="M 286.50756 187.88 
L 286.50756 179.71 
" style="fill:none;stroke:#1f77b4;"/>
    <path clip-path="url(#pb61eb27222)" d="M 316.075661 187.88 
L 316.075661 179.71 
" style="fill:none;stroke:#1f77b4;"/>
    <path clip-path="url(#pb61eb27222)" d="M 352.260804 187.88 
L 352.260804 179.71 
" style="fill:none;stroke:#1f77b4;"/>
    <path clip-path="url(#pb61eb27222)" d="M 390.079321 187.88 
L 390.079321 179.71 
" style="fill:none;stroke:#1f77b4;"/>
    <path clip-path="url(#pb61eb27222)" d="M 415.07879 187.88 
L 415.07879 179.71 
" style="fill:none;stroke:#1f77b4;"/>
    <path clip-path="url(#pb61eb27222)" d="M 415.599597 187.88 
L 415.599597 179.71 
" style="fill:none;stroke:#1f77b4;"/>
    <path clip-path="url(#pb61eb27222)" d="M 385.972937 187.88 
L 385.972937 179.71 
" style="fill:none;stroke:#1f77b4;"/>
    <path clip-path="url(#pb61eb27222)" d="M 342.342079 187.88 
L 342.342079 179.71 
" style="fill:none;stroke:#1f77b4;"/>
    <path clip-path="url(#pb61eb27222)" d="M 307.286869 187.88 
L 307.286869 179.71 
" style="fill:none;stroke:#1f77b4;"/>
    <path clip-path="url(#pb61eb27222)" d="M 287.498864 187.88 
L 287.498864 179.71 
" style="fill:none;stroke:#1f77b4;"/>
    <path clip-path="url(#pb61eb27222)" d="M 279.74363 187.88 
L 279.74363 179.71 
" style="fill:none;stroke:#1f77b4;"/>
    <path clip-path="url(#pb61eb27222)" d="M 282.837949 187.88 
L 282.837949 179.71 
" style="fill:none;stroke:#1f77b4;"/>
    <path clip-path="url(#pb61eb27222)" d="M 294.54169 187.88 
L 294.54169 179.71 
" style="fill:none;stroke:#1f77b4;"/>
    <path clip-path="url(#pb61eb27222)" d="M 308.110633 187.88 
L 308.110633 179.71 
" style="fill:none;stroke:#1f77b4;"/>
    <path clip-path="url(#pb61eb27222)" d="M 316.017316 187.88 
L 316.017316 179.71 
" style="fill:none;stroke:#1f77b4;"/>
    <path clip-path="url(#pb61eb27222)" d="M 316.021845 187.88 
L 316.021845 179.71 
" style="fill:none;stroke:#1f77b4;"/>
    <path clip-path="url(#pb61eb27222)" d="M 312.981985 187.88 
L 312.981985 179.71 
" style="fill:none;stroke:#1f77b4;"/>
    <path clip-path="url(#pb61eb27222)" d="M 311.296846 187.88 
L 311.296846 179.71 
" style="fill:none;stroke:#1f77b4;"/>
    <path clip-path="url(#pb61eb27222)" d="M 305.660509 187.88 
L 305.660509 179.71 
" style="fill:none;stroke:#1f77b4;"/>
    <path clip-path="url(#pb61eb27222)" d="M 286.649409 187.88 
L 286.649409 179.71 
" style="fill:none;stroke:#1f77b4;"/>
    <path clip-path="url(#pb61eb27222)" d="M 258.974249 187.88 
L 258.974249 179.71 
" style="fill:none;stroke:#1f77b4;"/>
    <path clip-path="url(#pb61eb27222)" d="M 237.051368 187.88 
L 237.051368 179.71 
" style="fill:none;stroke:#1f77b4;"/>
    <path clip-path="url(#pb61eb27222)" d="M 230.692225 187.88 
L 230.692225 179.71 
" style="fill:none;stroke:#1f77b4;"/>
    <path clip-path="url(#pb61eb27222)" d="M 239.896823 187.88 
L 239.896823 179.71 
" style="fill:none;stroke:#1f77b4;"/>
    <path clip-path="url(#pb61eb27222)" d="M 257.305699 187.88 
L 257.305699 179.71 
" style="fill:none;stroke:#1f77b4;"/>
    <path clip-path="url(#pb61eb27222)" d="M 275.449664 187.88 
L 275.449664 179.71 
" style="fill:none;stroke:#1f77b4;"/>
    <path clip-path="url(#pb61eb27222)" d="M 293.450396 187.88 
L 293.450396 179.71 
" style="fill:none;stroke:#1f77b4;"/>
    <path clip-path="url(#pb61eb27222)" d="M 309.805428 187.88 
L 309.805428 179.71 
" style="fill:none;stroke:#1f77b4;"/>
    <path clip-path="url(#pb61eb27222)" d="M 322.249058 187.88 
L 322.249058 179.71 
" style="fill:none;stroke:#1f77b4;"/>
    <path clip-path="url(#pb61eb27222)" d="M 330.237981 187.88 
L 330.237981 179.71 
" style="fill:none;stroke:#1f77b4;"/>
    <path clip-path="url(#pb61eb27222)" d="M 334.561062 187.88 
L 334.561062 179.71 
" style="fill:none;stroke:#1f77b4;"/>
    <path clip-path="url(#pb61eb27222)" d="M 336.327502 187.88 
L 336.327502 179.71 
" style="fill:none;stroke:#1f77b4;"/>
    <path clip-path="url(#pb61eb27222)" d="M 337.762402 187.88 
L 337.762402 179.71 
" style="fill:none;stroke:#1f77b4;"/>
    <path clip-path="url(#pb61eb27222)" d="M 337.29417 187.88 
L 337.29417 179.71 
" style="fill:none;stroke:#1f77b4;"/>
    <path clip-path="url(#pb61eb27222)" d="M 329.791462 187.88 
L 329.791462 179.71 
" style="fill:none;stroke:#1f77b4;"/>
    <path clip-path="url(#pb61eb27222)" d="M 315.024196 187.88 
L 315.024196 179.71 
" style="fill:none;stroke:#1f77b4;"/>
    <path clip-path="url(#pb61eb27222)" d="M 289.89768 187.88 
L 289.89768 179.71 
" style="fill:none;stroke:#1f77b4;"/>
    <path clip-path="url(#pb61eb27222)" d="M 257.749959 187.88 
L 257.749959 179.71 
" style="fill:none;stroke:#1f77b4;"/>
    <path clip-path="url(#pb61eb27222)" d="M 235.476977 187.88 
L 235.476977 179.71 
" style="fill:none;stroke:#1f77b4;"/>
    <path clip-path="url(#pb61eb27222)" d="M 238.105761 187.88 
L 238.105761 179.71 
" style="fill:none;stroke:#1f77b4;"/>
    <path clip-path="url(#pb61eb27222)" d="M 262.426068 187.88 
L 262.426068 179.71 
" style="fill:none;stroke:#1f77b4;"/>
    <path clip-path="url(#pb61eb27222)" d="M 289.19422 187.88 
L 289.19422 179.71 
" style="fill:none;stroke:#1f77b4;"/>
    <path clip-path="url(#pb61eb27222)" d="M 303.807959 187.88 
L 303.807959 179.71 
" style="fill:none;stroke:#1f77b4;"/>
    <path clip-path="url(#pb61eb27222)" d="M 304.121075 187.88 
L 304.121075 179.71 
" style="fill:none;stroke:#1f77b4;"/>
    <path clip-path="url(#pb61eb27222)" d="M 308.164642 187.88 
L 308.164642 179.71 
" style="fill:none;stroke:#1f77b4;"/>
    <path clip-path="url(#pb61eb27222)" d="M 342.821093 187.88 
L 342.821093 179.71 
" style="fill:none;stroke:#1f77b4;"/>
    <path clip-path="url(#pb61eb27222)" d="M 399.481466 187.88 
L 399.481466 179.71 
" style="fill:none;stroke:#1f77b4;"/>
    <path clip-path="url(#pb61eb27222)" d="M 440.356298 187.88 
L 440.356298 179.71 
" style="fill:none;stroke:#1f77b4;"/>
    <path clip-path="url(#pb61eb27222)" d="M 445.757683 187.88 
L 445.757683 179.71 
" style="fill:none;stroke:#1f77b4;"/>
    <path clip-path="url(#pb61eb27222)" d="M 421.646133 187.88 
L 421.646133 179.71 
" style="fill:none;stroke:#1f77b4;"/>
    <path clip-path="url(#pb61eb27222)" d="M 380.702185 187.88 
L 380.702185 179.71 
" style="fill:none;stroke:#1f77b4;"/>
    <path clip-path="url(#pb61eb27222)" d="M 333.210398 187.88 
L 333.210398 179.71 
" style="fill:none;stroke:#1f77b4;"/>
    <path clip-path="url(#pb61eb27222)" d="M 298.509219 187.88 
L 298.509219 179.71 
" style="fill:none;stroke:#1f77b4;"/>
    <path clip-path="url(#pb61eb27222)" d="M 287.970121 187.88 
L 287.970121 179.71 
" style="fill:none;stroke:#1f77b4;"/>
    <path clip-path="url(#pb61eb27222)" d="M 293.220581 187.88 
L 293.220581 179.71 
" style="fill:none;stroke:#1f77b4;"/>
    <path clip-path="url(#pb61eb27222)" d="M 302.791927 187.88 
L 302.791927 179.71 
" style="fill:none;stroke:#1f77b4;"/>
    <path clip-path="url(#pb61eb27222)" d="M 310.585152 187.88 
L 310.585152 179.71 
" style="fill:none;stroke:#1f77b4;"/>
    <path clip-path="url(#pb61eb27222)" d="M 315.497837 187.88 
L 315.497837 179.71 
" style="fill:none;stroke:#1f77b4;"/>
    <path clip-path="url(#pb61eb27222)" d="M 317.746942 187.88 
L 317.746942 179.71 
" style="fill:none;stroke:#1f77b4;"/>
    <path clip-path="url(#pb61eb27222)" d="M 316.330867 187.88 
L 316.330867 179.71 
" style="fill:none;stroke:#1f77b4;"/>
    <path clip-path="url(#pb61eb27222)" d="M 312.748287 187.88 
L 312.748287 179.71 
" style="fill:none;stroke:#1f77b4;"/>
    <path clip-path="url(#pb61eb27222)" d="M 310.532485 187.88 
L 310.532485 179.71 
" style="fill:none;stroke:#1f77b4;"/>
    <path clip-path="url(#pb61eb27222)" d="M 309.78726 187.88 
L 309.78726 179.71 
" style="fill:none;stroke:#1f77b4;"/>
    <path clip-path="url(#pb61eb27222)" d="M 302.693233 187.88 
L 302.693233 179.71 
" style="fill:none;stroke:#1f77b4;"/>
    <path clip-path="url(#pb61eb27222)" d="M 284.982535 187.88 
L 284.982535 179.71 
" style="fill:none;stroke:#1f77b4;"/>
    <path clip-path="url(#pb61eb27222)" d="M 260.798817 187.88 
L 260.798817 179.71 
" style="fill:none;stroke:#1f77b4;"/>
    <path clip-path="url(#pb61eb27222)" d="M 239.697498 187.88 
L 239.697498 179.71 
" style="fill:none;stroke:#1f77b4;"/>
    <path clip-path="url(#pb61eb27222)" d="M 233.752422 187.88 
L 233.752422 179.71 
" style="fill:none;stroke:#1f77b4;"/>
    <path clip-path="url(#pb61eb27222)" d="M 254.702913 187.88 
L 254.702913 179.71 
" style="fill:none;stroke:#1f77b4;"/>
    <path clip-path="url(#pb61eb27222)" d="M 287.793643 187.88 
L 287.793643 179.71 
" style="fill:none;stroke:#1f77b4;"/>
    <path clip-path="url(#pb61eb27222)" d="M 299.303566 187.88 
L 299.303566 179.71 
" style="fill:none;stroke:#1f77b4;"/>
    <path clip-path="url(#pb61eb27222)" d="M 281.643027 187.88 
L 281.643027 179.71 
" style="fill:none;stroke:#1f77b4;"/>
    <path clip-path="url(#pb61eb27222)" d="M 259.810767 187.88 
L 259.810767 179.71 
" style="fill:none;stroke:#1f77b4;"/>
    <path clip-path="url(#pb61eb27222)" d="M 261.434488 187.88 
L 261.434488 179.71 
" style="fill:none;stroke:#1f77b4;"/>
    <path clip-path="url(#pb61eb27222)" d="M 276.920717 187.88 
L 276.920717 179.71 
" style="fill:none;stroke:#1f77b4;"/>
    <path clip-path="url(#pb61eb27222)" d="M 285.632938 187.88 
L 285.632938 179.71 
" style="fill:none;stroke:#1f77b4;"/>
    <path clip-path="url(#pb61eb27222)" d="M 287.689053 187.88 
L 287.689053 179.71 
" style="fill:none;stroke:#1f77b4;"/>
    <path clip-path="url(#pb61eb27222)" d="M 288.511708 187.88 
L 288.511708 179.71 
" style="fill:none;stroke:#1f77b4;"/>
    <path clip-path="url(#pb61eb27222)" d="M 290.87535 187.88 
L 290.87535 179.71 
" style="fill:none;stroke:#1f77b4;"/>
    <path clip-path="url(#pb61eb27222)" d="M 297.436653 187.88 
L 297.436653 179.71 
" style="fill:none;stroke:#1f77b4;"/>
    <path clip-path="url(#pb61eb27222)" d="M 302.621008 187.88 
L 302.621008 179.71 
" style="fill:none;stroke:#1f77b4;"/>
    <path clip-path="url(#pb61eb27222)" d="M 295.853077 187.88 
L 295.853077 179.71 
" style="fill:none;stroke:#1f77b4;"/>
    <path clip-path="url(#pb61eb27222)" d="M 272.837931 187.88 
L 272.837931 179.71 
" style="fill:none;stroke:#1f77b4;"/>
    <path clip-path="url(#pb61eb27222)" d="M 247.808051 187.88 
L 247.808051 179.71 
" style="fill:none;stroke:#1f77b4;"/>
    <path clip-path="url(#pb61eb27222)" d="M 232.476584 187.88 
L 232.476584 179.71 
" style="fill:none;stroke:#1f77b4;"/>
    <path clip-path="url(#pb61eb27222)" d="M 229.950622 187.88 
L 229.950622 179.71 
" style="fill:none;stroke:#1f77b4;"/>
    <path clip-path="url(#pb61eb27222)" d="M 242.900662 187.88 
L 242.900662 179.71 
" style="fill:none;stroke:#1f77b4;"/>
    <path clip-path="url(#pb61eb27222)" d="M 264.587782 187.88 
L 264.587782 179.71 
" style="fill:none;stroke:#1f77b4;"/>
    <path clip-path="url(#pb61eb27222)" d="M 286.432585 187.88 
L 286.432585 179.71 
" style="fill:none;stroke:#1f77b4;"/>
    <path clip-path="url(#pb61eb27222)" d="M 303.660444 187.88 
L 303.660444 179.71 
" style="fill:none;stroke:#1f77b4;"/>
    <path clip-path="url(#pb61eb27222)" d="M 312.711968 187.88 
L 312.711968 179.71 
" style="fill:none;stroke:#1f77b4;"/>
    <path clip-path="url(#pb61eb27222)" d="M 314.695249 187.88 
L 314.695249 179.71 
" style="fill:none;stroke:#1f77b4;"/>
    <path clip-path="url(#pb61eb27222)" d="M 314.959335 187.88 
L 314.959335 179.71 
" style="fill:none;stroke:#1f77b4;"/>
    <path clip-path="url(#pb61eb27222)" d="M 316.324983 187.88 
L 316.324983 179.71 
" style="fill:none;stroke:#1f77b4;"/>
    <path clip-path="url(#pb61eb27222)" d="M 317.676527 187.88 
L 317.676527 179.71 
" style="fill:none;stroke:#1f77b4;"/>
    <path clip-path="url(#pb61eb27222)" d="M 318.270745 187.88 
L 318.270745 179.71 
" style="fill:none;stroke:#1f77b4;"/>
    <path clip-path="url(#pb61eb27222)" d="M 319.047142 187.88 
L 319.047142 179.71 
" style="fill:none;stroke:#1f77b4;"/>
    <path clip-path="url(#pb61eb27222)" d="M 320.48142 187.88 
L 320.48142 179.71 
" style="fill:none;stroke:#1f77b4;"/>
    <path clip-path="url(#pb61eb27222)" d="M 321.715316 187.88 
L 321.715316 179.71 
" style="fill:none;stroke:#1f77b4;"/>
    <path clip-path="url(#pb61eb27222)" d="M 314.486033 187.88 
L 314.486033 179.71 
" style="fill:none;stroke:#1f77b4;"/>
    <path clip-path="url(#pb61eb27222)" d="M 294.609221 187.88 
L 294.609221 179.71 
" style="fill:none;stroke:#1f77b4;"/>
    <path clip-path="url(#pb61eb27222)" d="M 274.495521 187.88 
L 274.495521 179.71 
" style="fill:none;stroke:#1f77b4;"/>
    <path clip-path="url(#pb61eb27222)" d="M 265.617257 187.88 
L 265.617257 179.71 
" style="fill:none;stroke:#1f77b4;"/>
    <path clip-path="url(#pb61eb27222)" d="M 269.171476 187.88 
L 269.171476 179.71 
" style="fill:none;stroke:#1f77b4;"/>
    <path clip-path="url(#pb61eb27222)" d="M 280.186177 187.88 
L 280.186177 179.71 
" style="fill:none;stroke:#1f77b4;"/>
    <path clip-path="url(#pb61eb27222)" d="M 296.635978 187.88 
L 296.635978 179.71 
" style="fill:none;stroke:#1f77b4;"/>
    <path clip-path="url(#pb61eb27222)" d="M 318.249978 187.88 
L 318.249978 179.71 
" style="fill:none;stroke:#1f77b4;"/>
    <path clip-path="url(#pb61eb27222)" d="M 337.028809 187.88 
L 337.028809 179.71 
" style="fill:none;stroke:#1f77b4;"/>
    <path clip-path="url(#pb61eb27222)" d="M 342.867864 187.88 
L 342.867864 179.71 
" style="fill:none;stroke:#1f77b4;"/>
    <path clip-path="url(#pb61eb27222)" d="M 337.123705 187.88 
L 337.123705 179.71 
" style="fill:none;stroke:#1f77b4;"/>
    <path clip-path="url(#pb61eb27222)" d="M 335.794549 187.88 
L 335.794549 179.71 
" style="fill:none;stroke:#1f77b4;"/>
    <path clip-path="url(#pb61eb27222)" d="M 344.917023 187.88 
L 344.917023 179.71 
" style="fill:none;stroke:#1f77b4;"/>
    <path clip-path="url(#pb61eb27222)" d="M 356.269359 187.88 
L 356.269359 179.71 
" style="fill:none;stroke:#1f77b4;"/>
    <path clip-path="url(#pb61eb27222)" d="M 361.862212 187.88 
L 361.862212 179.71 
" style="fill:none;stroke:#1f77b4;"/>
    <path clip-path="url(#pb61eb27222)" d="M 360.805849 187.88 
L 360.805849 179.71 
" style="fill:none;stroke:#1f77b4;"/>
    <path clip-path="url(#pb61eb27222)" d="M 362.47257 187.88 
L 362.47257 179.71 
" style="fill:none;stroke:#1f77b4;"/>
    <path clip-path="url(#pb61eb27222)" d="M 373.352913 187.88 
L 373.352913 179.71 
" style="fill:none;stroke:#1f77b4;"/>
    <path clip-path="url(#pb61eb27222)" d="M 387.162284 187.88 
L 387.162284 179.71 
" style="fill:none;stroke:#1f77b4;"/>
    <path clip-path="url(#pb61eb27222)" d="M 394.422266 187.88 
L 394.422266 179.71 
" style="fill:none;stroke:#1f77b4;"/>
    <path clip-path="url(#pb61eb27222)" d="M 391.043981 187.88 
L 391.043981 179.71 
" style="fill:none;stroke:#1f77b4;"/>
    <path clip-path="url(#pb61eb27222)" d="M 379.549432 187.88 
L 379.549432 179.71 
" style="fill:none;stroke:#1f77b4;"/>
    <path clip-path="url(#pb61eb27222)" d="M 364.829371 187.88 
L 364.829371 179.71 
" style="fill:none;stroke:#1f77b4;"/>
    <path clip-path="url(#pb61eb27222)" d="M 350.763046 187.88 
L 350.763046 179.71 
" style="fill:none;stroke:#1f77b4;"/>
    <path clip-path="url(#pb61eb27222)" d="M 339.264734 187.88 
L 339.264734 179.71 
" style="fill:none;stroke:#1f77b4;"/>
    <path clip-path="url(#pb61eb27222)" d="M 330.745916 187.88 
L 330.745916 179.71 
" style="fill:none;stroke:#1f77b4;"/>
    <path clip-path="url(#pb61eb27222)" d="M 324.873341 187.88 
L 324.873341 179.71 
" style="fill:none;stroke:#1f77b4;"/>
    <path clip-path="url(#pb61eb27222)" d="M 321.098988 187.88 
L 321.098988 179.71 
" style="fill:none;stroke:#1f77b4;"/>
    <path clip-path="url(#pb61eb27222)" d="M 318.912176 187.88 
L 318.912176 179.71 
" style="fill:none;stroke:#1f77b4;"/>
    <path clip-path="url(#pb61eb27222)" d="M 317.905135 187.88 
L 317.905135 179.71 
" style="fill:none;stroke:#1f77b4;"/>
    <path clip-path="url(#pb61eb27222)" d="M 317.738808 187.88 
L 317.738808 179.71 
" style="fill:none;stroke:#1f77b4;"/>
    <path clip-path="url(#pb61eb27222)" d="M 318.151887 187.88 
L 318.151887 179.71 
" style="fill:none;stroke:#1f77b4;"/>
    <path clip-path="url(#pb61eb27222)" d="M 318.930184 187.88 
L 318.930184 179.71 
" style="fill:none;stroke:#1f77b4;"/>
    <path clip-path="url(#pb61eb27222)" d="M 319.871368 187.88 
L 319.871368 179.71 
" style="fill:none;stroke:#1f77b4;"/>
    <path clip-path="url(#pb61eb27222)" d="M 320.943772 187.88 
L 320.943772 179.71 
" style="fill:none;stroke:#1f77b4;"/>
    <path clip-path="url(#pb61eb27222)" d="M 323.449014 187.88 
L 323.449014 179.71 
" style="fill:none;stroke:#1f77b4;"/>
    <path clip-path="url(#pb61eb27222)" d="M 327.70797 187.88 
L 327.70797 179.71 
" style="fill:none;stroke:#1f77b4;"/>
    <path clip-path="url(#pb61eb27222)" d="M 331.298348 187.88 
L 331.298348 179.71 
" style="fill:none;stroke:#1f77b4;"/>
    <path clip-path="url(#pb61eb27222)" d="M 331.699895 187.88 
L 331.699895 179.71 
" style="fill:none;stroke:#1f77b4;"/>
    <path clip-path="url(#pb61eb27222)" d="M 335.274591 187.88 
L 335.274591 179.71 
" style="fill:none;stroke:#1f77b4;"/>
    <path clip-path="url(#pb61eb27222)" d="M 352.436168 187.88 
L 352.436168 179.71 
" style="fill:none;stroke:#1f77b4;"/>
    <path clip-path="url(#pb61eb27222)" d="M 372.426733 187.88 
L 372.426733 179.71 
" style="fill:none;stroke:#1f77b4;"/>
    <path clip-path="url(#pb61eb27222)" d="M 378.010828 187.88 
L 378.010828 179.71 
" style="fill:none;stroke:#1f77b4;"/>
    <path clip-path="url(#pb61eb27222)" d="M 366.933402 187.88 
L 366.933402 179.71 
" style="fill:none;stroke:#1f77b4;"/>
    <path clip-path="url(#pb61eb27222)" d="M 344.083112 187.88 
L 344.083112 179.71 
" style="fill:none;stroke:#1f77b4;"/>
    <path clip-path="url(#pb61eb27222)" d="M 333.249663 187.88 
L 333.249663 179.71 
" style="fill:none;stroke:#1f77b4;"/>
    <path clip-path="url(#pb61eb27222)" d="M 350.372096 187.88 
L 350.372096 179.71 
" style="fill:none;stroke:#1f77b4;"/>
    <path clip-path="url(#pb61eb27222)" d="M 378.896715 187.88 
L 378.896715 179.71 
" style="fill:none;stroke:#1f77b4;"/>
    <path clip-path="url(#pb61eb27222)" d="M 397.01167 187.88 
L 397.01167 179.71 
" style="fill:none;stroke:#1f77b4;"/>
    <path clip-path="url(#pb61eb27222)" d="M 397.848031 187.88 
L 397.848031 179.71 
" style="fill:none;stroke:#1f77b4;"/>
    <path clip-path="url(#pb61eb27222)" d="M 386.246938 187.88 
L 386.246938 179.71 
" style="fill:none;stroke:#1f77b4;"/>
    <path clip-path="url(#pb61eb27222)" d="M 369.850909 187.88 
L 369.850909 179.71 
" style="fill:none;stroke:#1f77b4;"/>
    <path clip-path="url(#pb61eb27222)" d="M 354.117957 187.88 
L 354.117957 179.71 
" style="fill:none;stroke:#1f77b4;"/>
    <path clip-path="url(#pb61eb27222)" d="M 341.428026 187.88 
L 341.428026 179.71 
" style="fill:none;stroke:#1f77b4;"/>
    <path clip-path="url(#pb61eb27222)" d="M 332.62124 187.88 
L 332.62124 179.71 
" style="fill:none;stroke:#1f77b4;"/>
    <path clip-path="url(#pb61eb27222)" d="M 326.738604 187.88 
L 326.738604 179.71 
" style="fill:none;stroke:#1f77b4;"/>
    <path clip-path="url(#pb61eb27222)" d="M 318.882218 187.88 
L 318.882218 179.71 
" style="fill:none;stroke:#1f77b4;"/>
    <path clip-path="url(#pb61eb27222)" d="M 308.661809 187.88 
L 308.661809 179.71 
" style="fill:none;stroke:#1f77b4;"/>
    <path clip-path="url(#pb61eb27222)" d="M 300.939101 187.88 
L 300.939101 179.71 
" style="fill:none;stroke:#1f77b4;"/>
    <path clip-path="url(#pb61eb27222)" d="M 298.401956 187.88 
L 298.401956 179.71 
" style="fill:none;stroke:#1f77b4;"/>
    <path clip-path="url(#pb61eb27222)" d="M 300.370893 187.88 
L 300.370893 179.71 
" style="fill:none;stroke:#1f77b4;"/>
    <path clip-path="url(#pb61eb27222)" d="M 304.75912 187.88 
L 304.75912 179.71 
" style="fill:none;stroke:#1f77b4;"/>
    <path clip-path="url(#pb61eb27222)" d="M 309.737754 187.88 
L 309.737754 179.71 
" style="fill:none;stroke:#1f77b4;"/>
    <path clip-path="url(#pb61eb27222)" d="M 314.264826 187.88 
L 314.264826 179.71 
" style="fill:none;stroke:#1f77b4;"/>
    <path clip-path="url(#pb61eb27222)" d="M 317.953277 187.88 
L 317.953277 179.71 
" style="fill:none;stroke:#1f77b4;"/>
    <path clip-path="url(#pb61eb27222)" d="M 320.780343 187.88 
L 320.780343 179.71 
" style="fill:none;stroke:#1f77b4;"/>
    <path clip-path="url(#pb61eb27222)" d="M 322.852974 187.88 
L 322.852974 179.71 
" style="fill:none;stroke:#1f77b4;"/>
    <path clip-path="url(#pb61eb27222)" d="M 324.303899 187.88 
L 324.303899 179.71 
" style="fill:none;stroke:#1f77b4;"/>
    <path clip-path="url(#pb61eb27222)" d="M 325.252516 187.88 
L 325.252516 179.71 
" style="fill:none;stroke:#1f77b4;"/>
    <path clip-path="url(#pb61eb27222)" d="M 325.812453 187.88 
L 325.812453 179.71 
" style="fill:none;stroke:#1f77b4;"/>
    <path clip-path="url(#pb61eb27222)" d="M 326.081616 187.88 
L 326.081616 179.71 
" style="fill:none;stroke:#1f77b4;"/>
    <path clip-path="url(#pb61eb27222)" d="M 326.115885 187.88 
L 326.115885 179.71 
" style="fill:none;stroke:#1f77b4;"/>
    <path clip-path="url(#pb61eb27222)" d="M 326.013105 187.88 
L 326.013105 179.71 
" style="fill:none;stroke:#1f77b4;"/>
    <path clip-path="url(#pb61eb27222)" d="M 325.84702 187.88 
L 325.84702 179.71 
" style="fill:none;stroke:#1f77b4;"/>
    <path clip-path="url(#pb61eb27222)" d="M 325.644731 187.88 
L 325.644731 179.71 
" style="fill:none;stroke:#1f77b4;"/>
    <path clip-path="url(#pb61eb27222)" d="M 325.466551 187.88 
L 325.466551 179.71 
" style="fill:none;stroke:#1f77b4;"/>
    <path clip-path="url(#pb61eb27222)" d="M 325.335085 187.88 
L 325.335085 179.71 
" style="fill:none;stroke:#1f77b4;"/>
    <path clip-path="url(#pb61eb27222)" d="M 325.128275 187.88 
L 325.128275 179.71 
" style="fill:none;stroke:#1f77b4;"/>
    <path clip-path="url(#pb61eb27222)" d="M 325.162304 187.88 
L 325.162304 179.71 
" style="fill:none;stroke:#1f77b4;"/>
    <path clip-path="url(#pb61eb27222)" d="M 325.0169 187.88 
L 325.0169 179.71 
" style="fill:none;stroke:#1f77b4;"/>
    <path clip-path="url(#pb61eb27222)" d="M 335.72083 187.88 
L 335.72083 179.71 
" style="fill:none;stroke:#1f77b4;"/>
    <path clip-path="url(#pb61eb27222)" d="M 376.612686 187.88 
L 376.612686 179.71 
" style="fill:none;stroke:#1f77b4;"/>
    <path clip-path="url(#pb61eb27222)" d="M 429.981645 187.88 
L 429.981645 179.71 
" style="fill:none;stroke:#1f77b4;"/>
    <path clip-path="url(#pb61eb27222)" d="M 463.042197 187.88 
L 463.042197 179.71 
" style="fill:none;stroke:#1f77b4;"/>
    <path clip-path="url(#pb61eb27222)" d="M 465.096959 187.88 
L 465.096959 179.71 
" style="fill:none;stroke:#1f77b4;"/>
    <path clip-path="url(#pb61eb27222)" d="M 444.5787 187.88 
L 444.5787 179.71 
" style="fill:none;stroke:#1f77b4;"/>
    <path clip-path="url(#pb61eb27222)" d="M 415.107203 187.88 
L 415.107203 179.71 
" style="fill:none;stroke:#1f77b4;"/>
    <path clip-path="url(#pb61eb27222)" d="M 390.294968 187.88 
L 390.294968 179.71 
" style="fill:none;stroke:#1f77b4;"/>
    <path clip-path="url(#pb61eb27222)" d="M 379.351572 187.88 
L 379.351572 179.71 
" style="fill:none;stroke:#1f77b4;"/>
    <path clip-path="url(#pb61eb27222)" d="M 375.244017 187.88 
L 375.244017 179.71 
" style="fill:none;stroke:#1f77b4;"/>
    <path clip-path="url(#pb61eb27222)" d="M 371.114851 187.88 
L 371.114851 179.71 
" style="fill:none;stroke:#1f77b4;"/>
    <path clip-path="url(#pb61eb27222)" d="M 374.016765 187.88 
L 374.016765 179.71 
" style="fill:none;stroke:#1f77b4;"/>
    <path clip-path="url(#pb61eb27222)" d="M 384.816222 187.88 
L 384.816222 179.71 
" style="fill:none;stroke:#1f77b4;"/>
    <path clip-path="url(#pb61eb27222)" d="M 395.266803 187.88 
L 395.266803 179.71 
" style="fill:none;stroke:#1f77b4;"/>
    <path clip-path="url(#pb61eb27222)" d="M 417.445895 187.88 
L 417.445895 179.71 
" style="fill:none;stroke:#1f77b4;"/>
    <path clip-path="url(#pb61eb27222)" d="M 466.400567 187.88 
L 466.400567 179.71 
" style="fill:none;stroke:#1f77b4;"/>
    <path clip-path="url(#pb61eb27222)" d="M 514.507227 187.88 
L 514.507227 179.71 
" style="fill:none;stroke:#1f77b4;"/>
    <path clip-path="url(#pb61eb27222)" d="M 531.735796 187.88 
L 531.735796 179.71 
" style="fill:none;stroke:#1f77b4;"/>
    <path clip-path="url(#pb61eb27222)" d="M 524.881325 187.88 
L 524.881325 179.71 
" style="fill:none;stroke:#1f77b4;"/>
    <path clip-path="url(#pb61eb27222)" d="M 506.352663 187.88 
L 506.352663 179.71 
" style="fill:none;stroke:#1f77b4;"/>
    <path clip-path="url(#pb61eb27222)" d="M 465.445725 187.88 
L 465.445725 179.71 
" style="fill:none;stroke:#1f77b4;"/>
    <path clip-path="url(#pb61eb27222)" d="M 408.021777 187.88 
L 408.021777 179.71 
" style="fill:none;stroke:#1f77b4;"/>
    <path clip-path="url(#pb61eb27222)" d="M 354.624928 187.88 
L 354.624928 179.71 
" style="fill:none;stroke:#1f77b4;"/>
    <path clip-path="url(#pb61eb27222)" d="M 317.41304 187.88 
L 317.41304 179.71 
" style="fill:none;stroke:#1f77b4;"/>
    <path clip-path="url(#pb61eb27222)" d="M 297.121142 187.88 
L 297.121142 179.71 
" style="fill:none;stroke:#1f77b4;"/>
    <path clip-path="url(#pb61eb27222)" d="M 288.96211 187.88 
L 288.96211 179.71 
" style="fill:none;stroke:#1f77b4;"/>
    <path clip-path="url(#pb61eb27222)" d="M 287.804771 187.88 
L 287.804771 179.71 
" style="fill:none;stroke:#1f77b4;"/>
    <path clip-path="url(#pb61eb27222)" d="M 290.271333 187.88 
L 290.271333 179.71 
" style="fill:none;stroke:#1f77b4;"/>
    <path clip-path="url(#pb61eb27222)" d="M 295.214673 187.88 
L 295.214673 179.71 
" style="fill:none;stroke:#1f77b4;"/>
    <path clip-path="url(#pb61eb27222)" d="M 314.68897 187.88 
L 314.68897 179.71 
" style="fill:none;stroke:#1f77b4;"/>
    <path clip-path="url(#pb61eb27222)" d="M 352.189 187.88 
L 352.189 179.71 
" style="fill:none;stroke:#1f77b4;"/>
    <path clip-path="url(#pb61eb27222)" d="M 379.010888 187.88 
L 379.010888 179.71 
" style="fill:none;stroke:#1f77b4;"/>
    <path clip-path="url(#pb61eb27222)" d="M 381.122999 187.88 
L 381.122999 179.71 
" style="fill:none;stroke:#1f77b4;"/>
    <path clip-path="url(#pb61eb27222)" d="M 383.070113 187.88 
L 383.070113 179.71 
" style="fill:none;stroke:#1f77b4;"/>
    <path clip-path="url(#pb61eb27222)" d="M 402.457101 187.88 
L 402.457101 179.71 
" style="fill:none;stroke:#1f77b4;"/>
    <path clip-path="url(#pb61eb27222)" d="M 427.290829 187.88 
L 427.290829 179.71 
" style="fill:none;stroke:#1f77b4;"/>
    <path clip-path="url(#pb61eb27222)" d="M 449.345826 187.88 
L 449.345826 179.71 
" style="fill:none;stroke:#1f77b4;"/>
    <path clip-path="url(#pb61eb27222)" d="M 466.43394 187.88 
L 466.43394 179.71 
" style="fill:none;stroke:#1f77b4;"/>
    <path clip-path="url(#pb61eb27222)" d="M 474.505613 187.88 
L 474.505613 179.71 
" style="fill:none;stroke:#1f77b4;"/>
    <path clip-path="url(#pb61eb27222)" d="M 472.337517 187.88 
L 472.337517 179.71 
" style="fill:none;stroke:#1f77b4;"/>
    <path clip-path="url(#pb61eb27222)" d="M 454.368452 187.88 
L 454.368452 179.71 
" style="fill:none;stroke:#1f77b4;"/>
    <path clip-path="url(#pb61eb27222)" d="M 417.730393 187.88 
L 417.730393 179.71 
" style="fill:none;stroke:#1f77b4;"/>
    <path clip-path="url(#pb61eb27222)" d="M 374.392072 187.88 
L 374.392072 179.71 
" style="fill:none;stroke:#1f77b4;"/>
    <path clip-path="url(#pb61eb27222)" d="M 346.721376 187.88 
L 346.721376 179.71 
" style="fill:none;stroke:#1f77b4;"/>
    <path clip-path="url(#pb61eb27222)" d="M 337.045558 187.88 
L 337.045558 179.71 
" style="fill:none;stroke:#1f77b4;"/>
    <path clip-path="url(#pb61eb27222)" d="M 334.930593 187.88 
L 334.930593 179.71 
" style="fill:none;stroke:#1f77b4;"/>
    <path clip-path="url(#pb61eb27222)" d="M 330.948709 187.88 
L 330.948709 179.71 
" style="fill:none;stroke:#1f77b4;"/>
    <path clip-path="url(#pb61eb27222)" d="M 312.214734 187.88 
L 312.214734 179.71 
" style="fill:none;stroke:#1f77b4;"/>
    <path clip-path="url(#pb61eb27222)" d="M 283.022058 187.88 
L 283.022058 179.71 
" style="fill:none;stroke:#1f77b4;"/>
    <path clip-path="url(#pb61eb27222)" d="M 260.425638 187.88 
L 260.425638 179.71 
" style="fill:none;stroke:#1f77b4;"/>
    <path clip-path="url(#pb61eb27222)" d="M 253.23712 187.88 
L 253.23712 179.71 
" style="fill:none;stroke:#1f77b4;"/>
    <path clip-path="url(#pb61eb27222)" d="M 251.227952 187.88 
L 251.227952 179.71 
" style="fill:none;stroke:#1f77b4;"/>
    <path clip-path="url(#pb61eb27222)" d="M 241.639691 187.88 
L 241.639691 179.71 
" style="fill:none;stroke:#1f77b4;"/>
    <path clip-path="url(#pb61eb27222)" d="M 228.280404 187.88 
L 228.280404 179.71 
" style="fill:none;stroke:#1f77b4;"/>
    <path clip-path="url(#pb61eb27222)" d="M 222.604838 187.88 
L 222.604838 179.71 
" style="fill:none;stroke:#1f77b4;"/>
    <path clip-path="url(#pb61eb27222)" d="M 248.070009 187.88 
L 248.070009 179.71 
" style="fill:none;stroke:#1f77b4;"/>
    <path clip-path="url(#pb61eb27222)" d="M 312.739561 187.88 
L 312.739561 179.71 
" style="fill:none;stroke:#1f77b4;"/>
    <path clip-path="url(#pb61eb27222)" d="M 384.779063 187.88 
L 384.779063 179.71 
" style="fill:none;stroke:#1f77b4;"/>
    <path clip-path="url(#pb61eb27222)" d="M 438.677525 187.88 
L 438.677525 179.71 
" style="fill:none;stroke:#1f77b4;"/>
    <path clip-path="url(#pb61eb27222)" d="M 460.064443 187.88 
L 460.064443 179.71 
" style="fill:none;stroke:#1f77b4;"/>
    <path clip-path="url(#pb61eb27222)" d="M 432.709528 187.88 
L 432.709528 179.71 
" style="fill:none;stroke:#1f77b4;"/>
    <path clip-path="url(#pb61eb27222)" d="M 367.384962 187.88 
L 367.384962 179.71 
" style="fill:none;stroke:#1f77b4;"/>
    <path clip-path="url(#pb61eb27222)" d="M 294.847864 187.88 
L 294.847864 179.71 
" style="fill:none;stroke:#1f77b4;"/>
    <path clip-path="url(#pb61eb27222)" d="M 243.509454 187.88 
L 243.509454 179.71 
" style="fill:none;stroke:#1f77b4;"/>
    <path clip-path="url(#pb61eb27222)" d="M 229.67001 187.88 
L 229.67001 179.71 
" style="fill:none;stroke:#1f77b4;"/>
    <path clip-path="url(#pb61eb27222)" d="M 244.754458 187.88 
L 244.754458 179.71 
" style="fill:none;stroke:#1f77b4;"/>
    <path clip-path="url(#pb61eb27222)" d="M 262.497653 187.88 
L 262.497653 179.71 
" style="fill:none;stroke:#1f77b4;"/>
    <path clip-path="url(#pb61eb27222)" d="M 274.72251 187.88 
L 274.72251 179.71 
" style="fill:none;stroke:#1f77b4;"/>
    <path clip-path="url(#pb61eb27222)" d="M 282.043782 187.88 
L 282.043782 179.71 
" style="fill:none;stroke:#1f77b4;"/>
    <path clip-path="url(#pb61eb27222)" d="M 279.997253 187.88 
L 279.997253 179.71 
" style="fill:none;stroke:#1f77b4;"/>
    <path clip-path="url(#pb61eb27222)" d="M 282.807427 187.88 
L 282.807427 179.71 
" style="fill:none;stroke:#1f77b4;"/>
    <path clip-path="url(#pb61eb27222)" d="M 302.358081 187.88 
L 302.358081 179.71 
" style="fill:none;stroke:#1f77b4;"/>
    <path clip-path="url(#pb61eb27222)" d="M 328.579862 187.88 
L 328.579862 179.71 
" style="fill:none;stroke:#1f77b4;"/>
    <path clip-path="url(#pb61eb27222)" d="M 357.322929 187.88 
L 357.322929 179.71 
" style="fill:none;stroke:#1f77b4;"/>
    <path clip-path="url(#pb61eb27222)" d="M 385.95882 187.88 
L 385.95882 179.71 
" style="fill:none;stroke:#1f77b4;"/>
    <path clip-path="url(#pb61eb27222)" d="M 402.636251 187.88 
L 402.636251 179.71 
" style="fill:none;stroke:#1f77b4;"/>
    <path clip-path="url(#pb61eb27222)" d="M 399.443934 187.88 
L 399.443934 179.71 
" style="fill:none;stroke:#1f77b4;"/>
    <path clip-path="url(#pb61eb27222)" d="M 391.025107 187.88 
L 391.025107 179.71 
" style="fill:none;stroke:#1f77b4;"/>
    <path clip-path="url(#pb61eb27222)" d="M 389.351239 187.88 
L 389.351239 179.71 
" style="fill:none;stroke:#1f77b4;"/>
    <path clip-path="url(#pb61eb27222)" d="M 388.52443 187.88 
L 388.52443 179.71 
" style="fill:none;stroke:#1f77b4;"/>
    <path clip-path="url(#pb61eb27222)" d="M 382.803597 187.88 
L 382.803597 179.71 
" style="fill:none;stroke:#1f77b4;"/>
    <path clip-path="url(#pb61eb27222)" d="M 371.672984 187.88 
L 371.672984 179.71 
" style="fill:none;stroke:#1f77b4;"/>
    <path clip-path="url(#pb61eb27222)" d="M 355.127296 187.88 
L 355.127296 179.71 
" style="fill:none;stroke:#1f77b4;"/>
    <path clip-path="url(#pb61eb27222)" d="M 336.170589 187.88 
L 336.170589 179.71 
" style="fill:none;stroke:#1f77b4;"/>
    <path clip-path="url(#pb61eb27222)" d="M 318.092881 187.88 
L 318.092881 179.71 
" style="fill:none;stroke:#1f77b4;"/>
    <path clip-path="url(#pb61eb27222)" d="M 301.983609 187.88 
L 301.983609 179.71 
" style="fill:none;stroke:#1f77b4;"/>
    <path clip-path="url(#pb61eb27222)" d="M 294.119013 187.88 
L 294.119013 179.71 
" style="fill:none;stroke:#1f77b4;"/>
    <path clip-path="url(#pb61eb27222)" d="M 300.083762 187.88 
L 300.083762 179.71 
" style="fill:none;stroke:#1f77b4;"/>
    <path clip-path="url(#pb61eb27222)" d="M 313.124032 187.88 
L 313.124032 179.71 
" style="fill:none;stroke:#1f77b4;"/>
    <path clip-path="url(#pb61eb27222)" d="M 325.119599 187.88 
L 325.119599 179.71 
" style="fill:none;stroke:#1f77b4;"/>
    <path clip-path="url(#pb61eb27222)" d="M 337.930941 187.88 
L 337.930941 179.71 
" style="fill:none;stroke:#1f77b4;"/>
    <path clip-path="url(#pb61eb27222)" d="M 359.804928 187.88 
L 359.804928 179.71 
" style="fill:none;stroke:#1f77b4;"/>
    <path clip-path="url(#pb61eb27222)" d="M 383.627211 187.88 
L 383.627211 179.71 
" style="fill:none;stroke:#1f77b4;"/>
    <path clip-path="url(#pb61eb27222)" d="M 396.430979 187.88 
L 396.430979 179.71 
" style="fill:none;stroke:#1f77b4;"/>
    <path clip-path="url(#pb61eb27222)" d="M 397.561742 187.88 
L 397.561742 179.71 
" style="fill:none;stroke:#1f77b4;"/>
    <path clip-path="url(#pb61eb27222)" d="M 393.262936 187.88 
L 393.262936 179.71 
" style="fill:none;stroke:#1f77b4;"/>
    <path clip-path="url(#pb61eb27222)" d="M 385.448601 187.88 
L 385.448601 179.71 
" style="fill:none;stroke:#1f77b4;"/>
    <path clip-path="url(#pb61eb27222)" d="M 374.38018 187.88 
L 374.38018 179.71 
" style="fill:none;stroke:#1f77b4;"/>
    <path clip-path="url(#pb61eb27222)" d="M 361.534235 187.88 
L 361.534235 179.71 
" style="fill:none;stroke:#1f77b4;"/>
    <path clip-path="url(#pb61eb27222)" d="M 348.959573 187.88 
L 348.959573 179.71 
" style="fill:none;stroke:#1f77b4;"/>
    <path clip-path="url(#pb61eb27222)" d="M 338.227166 187.88 
L 338.227166 179.71 
" style="fill:none;stroke:#1f77b4;"/>
    <path clip-path="url(#pb61eb27222)" d="M 329.956705 187.88 
L 329.956705 179.71 
" style="fill:none;stroke:#1f77b4;"/>
    <path clip-path="url(#pb61eb27222)" d="M 324.130119 187.88 
L 324.130119 179.71 
" style="fill:none;stroke:#1f77b4;"/>
    <path clip-path="url(#pb61eb27222)" d="M 320.430586 187.88 
L 320.430586 179.71 
" style="fill:none;stroke:#1f77b4;"/>
    <path clip-path="url(#pb61eb27222)" d="M 318.378142 187.88 
L 318.378142 179.71 
" style="fill:none;stroke:#1f77b4;"/>
    <path clip-path="url(#pb61eb27222)" d="M 317.541355 187.88 
L 317.541355 179.71 
" style="fill:none;stroke:#1f77b4;"/>
    <path clip-path="url(#pb61eb27222)" d="M 317.542306 187.88 
L 317.542306 179.71 
" style="fill:none;stroke:#1f77b4;"/>
    <path clip-path="url(#pb61eb27222)" d="M 318.122621 187.88 
L 318.122621 179.71 
" style="fill:none;stroke:#1f77b4;"/>
    <path clip-path="url(#pb61eb27222)" d="M 318.958474 187.88 
L 318.958474 179.71 
" style="fill:none;stroke:#1f77b4;"/>
    <path clip-path="url(#pb61eb27222)" d="M 320.001193 187.88 
L 320.001193 179.71 
" style="fill:none;stroke:#1f77b4;"/>
   </g>
   <g id="line2d_13">
    <path clip-path="url(#pb61eb27222)" d="M 48.368286 187.855365 
L 61.504877 187.7413 
L 70.262605 187.457746 
L 79.020333 186.89657 
L 100.914652 185.023026 
L 109.67238 184.669114 
L 118.430107 184.583217 
L 135.945563 184.651086 
L 140.324427 184.556981 
L 144.703291 184.325877 
L 149.082154 183.901432 
L 153.461018 183.234353 
L 157.839882 182.294211 
L 162.218746 181.081673 
L 166.59761 179.63748 
L 179.734202 174.834304 
L 184.113065 173.401499 
L 197.249657 169.553999 
L 201.628521 167.914645 
L 206.007385 165.758038 
L 210.386249 162.939573 
L 214.765112 159.427672 
L 219.143976 155.330813 
L 227.901704 146.43819 
L 232.280568 142.326134 
L 236.659432 138.847253 
L 241.038296 136.166659 
L 245.417159 134.280933 
L 249.796023 133.014468 
L 258.553751 130.993953 
L 262.932615 129.430399 
L 267.311479 126.998888 
L 271.690343 123.428018 
L 276.069207 118.546055 
L 280.44807 112.260779 
L 284.826934 104.530055 
L 289.205798 95.356245 
L 293.584662 84.834432 
L 297.963526 73.257957 
L 302.34239 61.242413 
L 306.721254 49.793313 
L 311.100117 40.240407 
L 315.478981 34.00683 
L 319.857845 32.259779 
L 324.236709 35.561641 
L 328.615573 43.66196 
L 332.994437 55.522264 
L 337.373301 69.568936 
L 341.752165 84.075643 
L 346.131028 97.535356 
L 350.509892 108.908853 
L 354.888756 117.707544 
L 359.26762 123.938932 
L 363.646484 127.978198 
L 368.025348 130.423274 
L 372.404212 131.962605 
L 376.783075 133.260551 
L 381.161939 134.859086 
L 385.540803 137.102644 
L 389.919667 140.101788 
L 394.298531 143.749083 
L 407.435123 155.798591 
L 411.813986 159.304357 
L 416.19285 162.320811 
L 420.571714 164.823802 
L 424.950578 166.813786 
L 429.329442 168.286598 
L 433.708306 169.232883 
L 438.08717 169.663046 
L 442.466033 169.640738 
L 455.602625 168.538995 
L 459.981489 168.558402 
L 464.360353 169.046516 
L 468.739217 170.020636 
L 473.118081 171.388179 
L 486.254672 176.177214 
L 490.633536 177.545784 
L 495.0124 178.712263 
L 499.391264 179.690539 
L 503.770128 180.503612 
L 508.148991 181.166579 
L 512.527855 181.685318 
L 516.906719 182.066048 
L 525.664447 182.497132 
L 538.801038 182.897223 
L 547.558766 183.408521 
L 556.316494 184.267736 
L 578.210813 186.937681 
L 586.968541 187.521696 
L 595.726269 187.775907 
L 604.483996 187.851283 
L 604.483996 187.851283 
" style="fill:none;stroke:#1f77b4;stroke-linecap:square;stroke-width:1.5;"/>
   </g>
   <g id="patch_3">
    <path d="M 20.5625 187.88 
L 20.5625 24.48 
" style="fill:none;stroke:#000000;stroke-linecap:square;stroke-linejoin:miter;stroke-width:0.8;"/>
   </g>
   <g id="patch_4">
    <path d="M 20.5625 187.88 
L 632.289782 187.88 
" style="fill:none;stroke:#000000;stroke-linecap:square;stroke-linejoin:miter;stroke-width:0.8;"/>
   </g>
  </g>
  <g id="text_14">
   <!-- lancastersensorimotornorms_Interoceptive.mean [model: lancastersensorimotornorms_Interoceptive.mean] -->
   <defs>
    <path d="M 54.890625 33.015625 
L 54.890625 0 
L 45.90625 0 
L 45.90625 32.71875 
Q 45.90625 40.484375 42.875 44.328125 
Q 39.84375 48.1875 33.796875 48.1875 
Q 26.515625 48.1875 22.3125 43.546875 
Q 18.109375 38.921875 18.109375 30.90625 
L 18.109375 0 
L 9.078125 0 
L 9.078125 54.6875 
L 18.109375 54.6875 
L 18.109375 46.1875 
Q 21.34375 51.125 25.703125 53.5625 
Q 30.078125 56 35.796875 56 
Q 45.21875 56 50.046875 50.171875 
Q 54.890625 44.34375 54.890625 33.015625 
z
" id="DejaVuSans-110"/>
    <path d="M 48.78125 52.59375 
L 48.78125 44.1875 
Q 44.96875 46.296875 41.140625 47.34375 
Q 37.3125 48.390625 33.40625 48.390625 
Q 24.65625 48.390625 19.8125 42.84375 
Q 14.984375 37.3125 14.984375 27.296875 
Q 14.984375 17.28125 19.8125 11.734375 
Q 24.65625 6.203125 33.40625 6.203125 
Q 37.3125 6.203125 41.140625 7.25 
Q 44.96875 8.296875 48.78125 10.40625 
L 48.78125 2.09375 
Q 45.015625 0.34375 40.984375 -0.53125 
Q 36.96875 -1.421875 32.421875 -1.421875 
Q 20.0625 -1.421875 12.78125 6.34375 
Q 5.515625 14.109375 5.515625 27.296875 
Q 5.515625 40.671875 12.859375 48.328125 
Q 20.21875 56 33.015625 56 
Q 37.15625 56 41.109375 55.140625 
Q 45.0625 54.296875 48.78125 52.59375 
z
" id="DejaVuSans-99"/>
    <path d="M 18.3125 70.21875 
L 18.3125 54.6875 
L 36.8125 54.6875 
L 36.8125 47.703125 
L 18.3125 47.703125 
L 18.3125 18.015625 
Q 18.3125 11.328125 20.140625 9.421875 
Q 21.96875 7.515625 27.59375 7.515625 
L 36.8125 7.515625 
L 36.8125 0 
L 27.59375 0 
Q 17.1875 0 13.234375 3.875 
Q 9.28125 7.765625 9.28125 18.015625 
L 9.28125 47.703125 
L 2.6875 47.703125 
L 2.6875 54.6875 
L 9.28125 54.6875 
L 9.28125 70.21875 
z
" id="DejaVuSans-116"/>
    <path d="M 41.109375 46.296875 
Q 39.59375 47.171875 37.8125 47.578125 
Q 36.03125 48 33.890625 48 
Q 26.265625 48 22.1875 43.046875 
Q 18.109375 38.09375 18.109375 28.8125 
L 18.109375 0 
L 9.078125 0 
L 9.078125 54.6875 
L 18.109375 54.6875 
L 18.109375 46.1875 
Q 20.953125 51.171875 25.484375 53.578125 
Q 30.03125 56 36.53125 56 
Q 37.453125 56 38.578125 55.875 
Q 39.703125 55.765625 41.0625 55.515625 
z
" id="DejaVuSans-114"/>
    <path d="M 30.609375 48.390625 
Q 23.390625 48.390625 19.1875 42.75 
Q 14.984375 37.109375 14.984375 27.296875 
Q 14.984375 17.484375 19.15625 11.84375 
Q 23.34375 6.203125 30.609375 6.203125 
Q 37.796875 6.203125 41.984375 11.859375 
Q 46.1875 17.53125 46.1875 27.296875 
Q 46.1875 37.015625 41.984375 42.703125 
Q 37.796875 48.390625 30.609375 48.390625 
z
M 30.609375 56 
Q 42.328125 56 49.015625 48.375 
Q 55.71875 40.765625 55.71875 27.296875 
Q 55.71875 13.875 49.015625 6.21875 
Q 42.328125 -1.421875 30.609375 -1.421875 
Q 18.84375 -1.421875 12.171875 6.21875 
Q 5.515625 13.875 5.515625 27.296875 
Q 5.515625 40.765625 12.171875 48.375 
Q 18.84375 56 30.609375 56 
z
" id="DejaVuSans-111"/>
    <path d="M 9.421875 54.6875 
L 18.40625 54.6875 
L 18.40625 0 
L 9.421875 0 
z
M 9.421875 75.984375 
L 18.40625 75.984375 
L 18.40625 64.59375 
L 9.421875 64.59375 
z
" id="DejaVuSans-105"/>
    <path d="M 52 44.1875 
Q 55.375 50.25 60.0625 53.125 
Q 64.75 56 71.09375 56 
Q 79.640625 56 84.28125 50.015625 
Q 88.921875 44.046875 88.921875 33.015625 
L 88.921875 0 
L 79.890625 0 
L 79.890625 32.71875 
Q 79.890625 40.578125 77.09375 44.375 
Q 74.3125 48.1875 68.609375 48.1875 
Q 61.625 48.1875 57.5625 43.546875 
Q 53.515625 38.921875 53.515625 30.90625 
L 53.515625 0 
L 44.484375 0 
L 44.484375 32.71875 
Q 44.484375 40.625 41.703125 44.40625 
Q 38.921875 48.1875 33.109375 48.1875 
Q 26.21875 48.1875 22.15625 43.53125 
Q 18.109375 38.875 18.109375 30.90625 
L 18.109375 0 
L 9.078125 0 
L 9.078125 54.6875 
L 18.109375 54.6875 
L 18.109375 46.1875 
Q 21.1875 51.21875 25.484375 53.609375 
Q 29.78125 56 35.6875 56 
Q 41.65625 56 45.828125 52.96875 
Q 50 49.953125 52 44.1875 
z
" id="DejaVuSans-109"/>
    <path d="M 50.984375 -16.609375 
L 50.984375 -23.578125 
L -0.984375 -23.578125 
L -0.984375 -16.609375 
z
" id="DejaVuSans-95"/>
    <path d="M 9.8125 72.90625 
L 19.671875 72.90625 
L 19.671875 0 
L 9.8125 0 
z
" id="DejaVuSans-73"/>
    <path d="M 18.109375 8.203125 
L 18.109375 -20.796875 
L 9.078125 -20.796875 
L 9.078125 54.6875 
L 18.109375 54.6875 
L 18.109375 46.390625 
Q 20.953125 51.265625 25.265625 53.625 
Q 29.59375 56 35.59375 56 
Q 45.5625 56 51.78125 48.09375 
Q 58.015625 40.1875 58.015625 27.296875 
Q 58.015625 14.40625 51.78125 6.484375 
Q 45.5625 -1.421875 35.59375 -1.421875 
Q 29.59375 -1.421875 25.265625 0.953125 
Q 20.953125 3.328125 18.109375 8.203125 
z
M 48.6875 27.296875 
Q 48.6875 37.203125 44.609375 42.84375 
Q 40.53125 48.484375 33.40625 48.484375 
Q 26.265625 48.484375 22.1875 42.84375 
Q 18.109375 37.203125 18.109375 27.296875 
Q 18.109375 17.390625 22.1875 11.75 
Q 26.265625 6.109375 33.40625 6.109375 
Q 40.53125 6.109375 44.609375 11.75 
Q 48.6875 17.390625 48.6875 27.296875 
z
" id="DejaVuSans-112"/>
    <path id="DejaVuSans-32"/>
    <path d="M 8.59375 75.984375 
L 29.296875 75.984375 
L 29.296875 69 
L 17.578125 69 
L 17.578125 -6.203125 
L 29.296875 -6.203125 
L 29.296875 -13.1875 
L 8.59375 -13.1875 
z
" id="DejaVuSans-91"/>
    <path d="M 45.40625 46.390625 
L 45.40625 75.984375 
L 54.390625 75.984375 
L 54.390625 0 
L 45.40625 0 
L 45.40625 8.203125 
Q 42.578125 3.328125 38.25 0.953125 
Q 33.9375 -1.421875 27.875 -1.421875 
Q 17.96875 -1.421875 11.734375 6.484375 
Q 5.515625 14.40625 5.515625 27.296875 
Q 5.515625 40.1875 11.734375 48.09375 
Q 17.96875 56 27.875 56 
Q 33.9375 56 38.25 53.625 
Q 42.578125 51.265625 45.40625 46.390625 
z
M 14.796875 27.296875 
Q 14.796875 17.390625 18.875 11.75 
Q 22.953125 6.109375 30.078125 6.109375 
Q 37.203125 6.109375 41.296875 11.75 
Q 45.40625 17.390625 45.40625 27.296875 
Q 45.40625 37.203125 41.296875 42.84375 
Q 37.203125 48.484375 30.078125 48.484375 
Q 22.953125 48.484375 18.875 42.84375 
Q 14.796875 37.203125 14.796875 27.296875 
z
" id="DejaVuSans-100"/>
    <path d="M 11.71875 12.40625 
L 22.015625 12.40625 
L 22.015625 0 
L 11.71875 0 
z
M 11.71875 51.703125 
L 22.015625 51.703125 
L 22.015625 39.3125 
L 11.71875 39.3125 
z
" id="DejaVuSans-58"/>
    <path d="M 30.421875 75.984375 
L 30.421875 -13.1875 
L 9.71875 -13.1875 
L 9.71875 -6.203125 
L 21.390625 -6.203125 
L 21.390625 69 
L 9.71875 69 
L 9.71875 75.984375 
z
" id="DejaVuSans-93"/>
   </defs>
   <g transform="translate(50.89447 16.318125)scale(0.12 -0.12)">
    <use xlink:href="#DejaVuSans-108"/>
    <use x="27.783203" xlink:href="#DejaVuSans-97"/>
    <use x="89.0625" xlink:href="#DejaVuSans-110"/>
    <use x="152.441406" xlink:href="#DejaVuSans-99"/>
    <use x="207.421875" xlink:href="#DejaVuSans-97"/>
    <use x="268.701172" xlink:href="#DejaVuSans-115"/>
    <use x="320.800781" xlink:href="#DejaVuSans-116"/>
    <use x="360.009766" xlink:href="#DejaVuSans-101"/>
    <use x="421.533203" xlink:href="#DejaVuSans-114"/>
    <use x="462.646484" xlink:href="#DejaVuSans-115"/>
    <use x="514.746094" xlink:href="#DejaVuSans-101"/>
    <use x="576.269531" xlink:href="#DejaVuSans-110"/>
    <use x="639.648438" xlink:href="#DejaVuSans-115"/>
    <use x="691.748047" xlink:href="#DejaVuSans-111"/>
    <use x="752.929688" xlink:href="#DejaVuSans-114"/>
    <use x="794.042969" xlink:href="#DejaVuSans-105"/>
    <use x="821.826172" xlink:href="#DejaVuSans-109"/>
    <use x="919.238281" xlink:href="#DejaVuSans-111"/>
    <use x="980.419922" xlink:href="#DejaVuSans-116"/>
    <use x="1019.628906" xlink:href="#DejaVuSans-111"/>
    <use x="1080.810547" xlink:href="#DejaVuSans-114"/>
    <use x="1120.173828" xlink:href="#DejaVuSans-110"/>
    <use x="1183.552734" xlink:href="#DejaVuSans-111"/>
    <use x="1244.734375" xlink:href="#DejaVuSans-114"/>
    <use x="1284.097656" xlink:href="#DejaVuSans-109"/>
    <use x="1381.509766" xlink:href="#DejaVuSans-115"/>
    <use x="1433.609375" xlink:href="#DejaVuSans-95"/>
    <use x="1483.609375" xlink:href="#DejaVuSans-73"/>
    <use x="1513.101562" xlink:href="#DejaVuSans-110"/>
    <use x="1576.480469" xlink:href="#DejaVuSans-116"/>
    <use x="1615.689453" xlink:href="#DejaVuSans-101"/>
    <use x="1677.212891" xlink:href="#DejaVuSans-114"/>
    <use x="1716.076172" xlink:href="#DejaVuSans-111"/>
    <use x="1777.257812" xlink:href="#DejaVuSans-99"/>
    <use x="1832.238281" xlink:href="#DejaVuSans-101"/>
    <use x="1893.761719" xlink:href="#DejaVuSans-112"/>
    <use x="1957.238281" xlink:href="#DejaVuSans-116"/>
    <use x="1996.447266" xlink:href="#DejaVuSans-105"/>
    <use x="2024.230469" xlink:href="#DejaVuSans-118"/>
    <use x="2083.410156" xlink:href="#DejaVuSans-101"/>
    <use x="2144.933594" xlink:href="#DejaVuSans-46"/>
    <use x="2176.720703" xlink:href="#DejaVuSans-109"/>
    <use x="2274.132812" xlink:href="#DejaVuSans-101"/>
    <use x="2335.65625" xlink:href="#DejaVuSans-97"/>
    <use x="2396.935547" xlink:href="#DejaVuSans-110"/>
    <use x="2460.314453" xlink:href="#DejaVuSans-32"/>
    <use x="2492.101562" xlink:href="#DejaVuSans-91"/>
    <use x="2531.115234" xlink:href="#DejaVuSans-109"/>
    <use x="2628.527344" xlink:href="#DejaVuSans-111"/>
    <use x="2689.708984" xlink:href="#DejaVuSans-100"/>
    <use x="2753.185547" xlink:href="#DejaVuSans-101"/>
    <use x="2814.708984" xlink:href="#DejaVuSans-108"/>
    <use x="2842.492188" xlink:href="#DejaVuSans-58"/>
    <use x="2876.183594" xlink:href="#DejaVuSans-32"/>
    <use x="2907.970703" xlink:href="#DejaVuSans-108"/>
    <use x="2935.753906" xlink:href="#DejaVuSans-97"/>
    <use x="2997.033203" xlink:href="#DejaVuSans-110"/>
    <use x="3060.412109" xlink:href="#DejaVuSans-99"/>
    <use x="3115.392578" xlink:href="#DejaVuSans-97"/>
    <use x="3176.671875" xlink:href="#DejaVuSans-115"/>
    <use x="3228.771484" xlink:href="#DejaVuSans-116"/>
    <use x="3267.980469" xlink:href="#DejaVuSans-101"/>
    <use x="3329.503906" xlink:href="#DejaVuSans-114"/>
    <use x="3370.617188" xlink:href="#DejaVuSans-115"/>
    <use x="3422.716797" xlink:href="#DejaVuSans-101"/>
    <use x="3484.240234" xlink:href="#DejaVuSans-110"/>
    <use x="3547.619141" xlink:href="#DejaVuSans-115"/>
    <use x="3599.71875" xlink:href="#DejaVuSans-111"/>
    <use x="3660.900391" xlink:href="#DejaVuSans-114"/>
    <use x="3702.013672" xlink:href="#DejaVuSans-105"/>
    <use x="3729.796875" xlink:href="#DejaVuSans-109"/>
    <use x="3827.208984" xlink:href="#DejaVuSans-111"/>
    <use x="3888.390625" xlink:href="#DejaVuSans-116"/>
    <use x="3927.599609" xlink:href="#DejaVuSans-111"/>
    <use x="3988.78125" xlink:href="#DejaVuSans-114"/>
    <use x="4028.144531" xlink:href="#DejaVuSans-110"/>
    <use x="4091.523438" xlink:href="#DejaVuSans-111"/>
    <use x="4152.705078" xlink:href="#DejaVuSans-114"/>
    <use x="4192.068359" xlink:href="#DejaVuSans-109"/>
    <use x="4289.480469" xlink:href="#DejaVuSans-115"/>
    <use x="4341.580078" xlink:href="#DejaVuSans-95"/>
    <use x="4391.580078" xlink:href="#DejaVuSans-73"/>
    <use x="4421.072266" xlink:href="#DejaVuSans-110"/>
    <use x="4484.451172" xlink:href="#DejaVuSans-116"/>
    <use x="4523.660156" xlink:href="#DejaVuSans-101"/>
    <use x="4585.183594" xlink:href="#DejaVuSans-114"/>
    <use x="4624.046875" xlink:href="#DejaVuSans-111"/>
    <use x="4685.228516" xlink:href="#DejaVuSans-99"/>
    <use x="4740.208984" xlink:href="#DejaVuSans-101"/>
    <use x="4801.732422" xlink:href="#DejaVuSans-112"/>
    <use x="4865.208984" xlink:href="#DejaVuSans-116"/>
    <use x="4904.417969" xlink:href="#DejaVuSans-105"/>
    <use x="4932.201172" xlink:href="#DejaVuSans-118"/>
    <use x="4991.380859" xlink:href="#DejaVuSans-101"/>
    <use x="5052.904297" xlink:href="#DejaVuSans-46"/>
    <use x="5084.691406" xlink:href="#DejaVuSans-109"/>
    <use x="5182.103516" xlink:href="#DejaVuSans-101"/>
    <use x="5243.626953" xlink:href="#DejaVuSans-97"/>
    <use x="5304.90625" xlink:href="#DejaVuSans-110"/>
    <use x="5368.285156" xlink:href="#DejaVuSans-93"/>
   </g>
  </g>
  <g id="legend_1">
   <g id="text_15">
    <!-- ds_task -->
    <defs>
     <path d="M 9.078125 75.984375 
L 18.109375 75.984375 
L 18.109375 31.109375 
L 44.921875 54.6875 
L 56.390625 54.6875 
L 27.390625 29.109375 
L 57.625 0 
L 45.90625 0 
L 18.109375 26.703125 
L 18.109375 0 
L 9.078125 0 
z
" id="DejaVuSans-107"/>
    </defs>
    <g transform="translate(677.596345 107.860313)scale(0.1 -0.1)">
     <use xlink:href="#DejaVuSans-100"/>
     <use x="63.476562" xlink:href="#DejaVuSans-115"/>
     <use x="115.576172" xlink:href="#DejaVuSans-95"/>
     <use x="165.576172" xlink:href="#DejaVuSans-116"/>
     <use x="204.785156" xlink:href="#DejaVuSans-97"/>
     <use x="266.064453" xlink:href="#DejaVuSans-115"/>
     <use x="318.164062" xlink:href="#DejaVuSans-107"/>
    </g>
   </g>
   <g id="line2d_14">
    <path d="M 640.891657 119.316563 
L 660.891657 119.316563 
" style="fill:none;stroke:#1f77b4;stroke-linecap:square;stroke-width:1.5;"/>
   </g>
   <g id="line2d_15"/>
   <g id="text_16">
    <!-- Budapest_movie -->
    <defs>
     <path d="M 19.671875 34.8125 
L 19.671875 8.109375 
L 35.5 8.109375 
Q 43.453125 8.109375 47.28125 11.40625 
Q 51.125 14.703125 51.125 21.484375 
Q 51.125 28.328125 47.28125 31.5625 
Q 43.453125 34.8125 35.5 34.8125 
z
M 19.671875 64.796875 
L 19.671875 42.828125 
L 34.28125 42.828125 
Q 41.5 42.828125 45.03125 45.53125 
Q 48.578125 48.25 48.578125 53.8125 
Q 48.578125 59.328125 45.03125 62.0625 
Q 41.5 64.796875 34.28125 64.796875 
z
M 9.8125 72.90625 
L 35.015625 72.90625 
Q 46.296875 72.90625 52.390625 68.21875 
Q 58.5 63.53125 58.5 54.890625 
Q 58.5 48.1875 55.375 44.234375 
Q 52.25 40.28125 46.1875 39.3125 
Q 53.46875 37.75 57.5 32.78125 
Q 61.53125 27.828125 61.53125 20.40625 
Q 61.53125 10.640625 54.890625 5.3125 
Q 48.25 0 35.984375 0 
L 9.8125 0 
z
" id="DejaVuSans-66"/>
    </defs>
    <g transform="translate(668.891657 122.816563)scale(0.1 -0.1)">
     <use xlink:href="#DejaVuSans-66"/>
     <use x="68.603516" xlink:href="#DejaVuSans-117"/>
     <use x="131.982422" xlink:href="#DejaVuSans-100"/>
     <use x="195.458984" xlink:href="#DejaVuSans-97"/>
     <use x="256.738281" xlink:href="#DejaVuSans-112"/>
     <use x="320.214844" xlink:href="#DejaVuSans-101"/>
     <use x="381.738281" xlink:href="#DejaVuSans-115"/>
     <use x="433.837891" xlink:href="#DejaVuSans-116"/>
     <use x="473.046875" xlink:href="#DejaVuSans-95"/>
     <use x="523.046875" xlink:href="#DejaVuSans-109"/>
     <use x="620.458984" xlink:href="#DejaVuSans-111"/>
     <use x="681.640625" xlink:href="#DejaVuSans-118"/>
     <use x="740.820312" xlink:href="#DejaVuSans-105"/>
     <use x="768.603516" xlink:href="#DejaVuSans-101"/>
    </g>
   </g>
  </g>
 </g>
 <defs>
  <clipPath id="pb61eb27222">
   <rect height="163.4" width="611.727282" x="20.5625" y="24.48"/>
  </clipPath>
 </defs>
</svg>
